<svg version="1.1" viewBox="0.0 0.0 808.0 480.0" fill="none" stroke="none" stroke-linecap="square" stroke-miterlimit="10" width="808" height="480" xmlns:xlink="http://www.w3.org/1999/xlink" xmlns="http://www.w3.org/2000/svg"><path fill="#ffffff" d="M0 0L808.0 0L808.0 480.0L0 480.0L0 0Z" fill-rule="nonzero"/><path stroke="#333333" stroke-width="1.0" stroke-linecap="butt" d="M51.5 436.5L784.5 436.5" fill-rule="nonzero"/><path stroke="#cccccc" stroke-width="1.0" stroke-linecap="butt" d="M51.5 301.5L784.5 301.5" fill-rule="nonzero"/><path stroke="#cccccc" stroke-width="1.0" stroke-linecap="butt" d="M51.5 166.5L784.5 166.5" fill-rule="nonzero"/><path stroke="#cccccc" stroke-width="1.0" stroke-linecap="butt" d="M51.5 31.5L784.5 31.5" fill-rule="nonzero"/><clipPath id="id_0"><path d="M51.0 31.0L784.0 31.0L784.0 436.0L51.0 436.0L51.0 31.0Z" clip-rule="nonzero"/></clipPath><path stroke="#000000" stroke-width="2.0" stroke-linecap="butt" stroke-opacity="0.0" clip-path="url(#id_0)" d="M151.0 436.0L86.0 436.0L86.0 79.0C86.0 77.89543 86.89543 77.0 88.0 77.0L149.0 77.0C150.10457 77.0 151.0 77.89543 151.0 79.0Z" fill-rule="nonzero"/><path fill="#4285f4" clip-path="url(#id_0)" d="M151.0 436.0L86.0 436.0L86.0 79.0C86.0 77.89543 86.89543 77.0 88.0 77.0L149.0 77.0C150.10457 77.0 151.0 77.89543 151.0 79.0Z" fill-rule="nonzero"/><path stroke="#000000" stroke-width="2.0" stroke-linecap="butt" stroke-opacity="0.0" clip-path="url(#id_0)" d="M251.0 436.0L186.0 436.0L186.0 392.0C186.0 390.89542 186.89543 390.0 188.0 390.0L249.0 390.0C250.10457 390.0 251.0 390.89542 251.0 392.0Z" fill-rule="nonzero"/><path fill="#4285f4" clip-path="url(#id_0)" d="M251.0 436.0L186.0 436.0L186.0 392.0C186.0 390.89542 186.89543 390.0 188.0 390.0L249.0 390.0C250.10457 390.0 251.0 390.89542 251.0 392.0Z" fill-rule="nonzero"/><path stroke="#000000" stroke-width="2.0" stroke-linecap="butt" stroke-opacity="0.0" clip-path="url(#id_0)" d="M351.0 436.0L286.0 436.0L286.0 416.0C286.0 414.89542 286.89542 414.0 288.0 414.0L349.0 414.0C350.10458 414.0 351.0 414.89542 351.0 416.0Z" fill-rule="nonzero"/><path fill="#4285f4" clip-path="url(#id_0)" d="M351.0 436.0L286.0 436.0L286.0 416.0C286.0 414.89542 286.89542 414.0 288.0 414.0L349.0 414.0C350.10458 414.0 351.0 414.89542 351.0 416.0Z" fill-rule="nonzero"/><path stroke="#000000" stroke-width="2.0" stroke-linecap="butt" stroke-opacity="0.0" clip-path="url(#id_0)" d="M451.0 436.0L386.0 436.0L386.0 408.0C386.0 406.89542 386.89542 406.0 388.0 406.0L449.0 406.0C450.10458 406.0 451.0 406.89542 451.0 408.0Z" fill-rule="nonzero"/><path fill="#4285f4" clip-path="url(#id_0)" d="M451.0 436.0L386.0 436.0L386.0 408.0C386.0 406.89542 386.89542 406.0 388.0 406.0L449.0 406.0C450.10458 406.0 451.0 406.89542 451.0 408.0Z" fill-rule="nonzero"/><path stroke="#000000" stroke-width="2.0" stroke-linecap="butt" stroke-opacity="0.0" clip-path="url(#id_0)" d="M550.0 436.0L485.0 436.0L485.0 384.0C485.0 382.89542 485.89542 382.0 487.0 382.0L548.0 382.0C549.10455 382.0 550.0 382.89542 550.0 384.0Z" fill-rule="nonzero"/><path fill="#4285f4" clip-path="url(#id_0)" d="M550.0 436.0L485.0 436.0L485.0 384.0C485.0 382.89542 485.89542 382.0 487.0 382.0L548.0 382.0C549.10455 382.0 550.0 382.89542 550.0 384.0Z" fill-rule="nonzero"/><path stroke="#000000" stroke-width="2.0" stroke-linecap="butt" stroke-opacity="0.0" clip-path="url(#id_0)" d="M650.0 436.0L585.0 436.0L585.0 371.0C585.0 369.89542 585.89545 369.0 587.0 369.0L648.0 369.0C649.10455 369.0 650.0 369.89542 650.0 371.0Z" fill-rule="nonzero"/><path fill="#4285f4" clip-path="url(#id_0)" d="M650.0 436.0L585.0 436.0L585.0 371.0C585.0 369.89542 585.89545 369.0 587.0 369.0L648.0 369.0C649.10455 369.0 650.0 369.89542 650.0 371.0Z" fill-rule="nonzero"/><path stroke="#000000" stroke-width="2.0" stroke-linecap="butt" stroke-opacity="0.0" clip-path="url(#id_0)" d="M750.0 436.0L685.0 436.0L685.0 400.0C685.0 398.89542 685.89545 398.0 687.0 398.0L748.0 398.0C749.10455 398.0 750.0 398.89542 750.0 400.0Z" fill-rule="nonzero"/><path fill="#4285f4" clip-path="url(#id_0)" d="M750.0 436.0L685.0 436.0L685.0 400.0C685.0 398.89542 685.89545 398.0 687.0 398.0L748.0 398.0C749.10455 398.0 750.0 398.89542 750.0 400.0Z" fill-rule="nonzero"/><path stroke="#4285f4" stroke-width="3.0" stroke-linejoin="round" stroke-linecap="round" d="M111.765625 93.7L110.6875 93.7L110.6875 86.48125L108.5 87.27812L108.5 86.29375L111.609375 85.12187L111.765625 85.12187L111.765625 93.7ZM116.78125 88.90312L117.59375 88.90312Q118.375 88.8875 118.8125 88.49687Q119.25 88.10625 119.25 87.43437Q119.25 85.93437 117.75 85.93437Q117.046875 85.93437 116.625 86.34062Q116.21875 86.74687 116.21875 87.40312L115.125 87.40312Q115.125 86.3875 115.859375 85.71562Q116.609375 85.04375 117.75 85.04375Q118.953125 85.04375 119.640625 85.68437Q120.328125 86.325 120.328125 87.46562Q120.328125 88.02812 119.96875 88.54375Q119.609375 89.05937 118.984375 89.325Q119.6875 89.54375 120.0625 90.05937Q120.453125 90.575 120.453125 91.325Q120.453125 92.46562 119.703125 93.15312Q118.953125 93.825 117.75 93.825Q116.5625 93.825 115.796875 93.16875Q115.046875 92.5125 115.046875 91.45L116.140625 91.45Q116.140625 92.12187 116.578125 92.52812Q117.015625 92.93437 117.765625 92.93437Q118.546875 92.93437 118.953125 92.52812Q119.375 92.10625 119.375 91.34062Q119.375 90.60625 118.921875 90.21562Q118.46875 89.80937 117.59375 89.79375L116.78125 89.79375L116.78125 88.90312ZM123.78125 88.90312L124.59375 88.90312Q125.375 88.8875 125.8125 88.49687Q126.25 88.10625 126.25 87.43437Q126.25 85.93437 124.75 85.93437Q124.046875 85.93437 123.625 86.34062Q123.21875 86.74687 123.21875 87.40312L122.125 87.40312Q122.125 86.3875 122.859375 85.71562Q123.609375 85.04375 124.75 85.04375Q125.953125 85.04375 126.640625 85.68437Q127.328125 86.325 127.328125 87.46562Q127.328125 88.02812 126.96875 88.54375Q126.609375 89.05937 125.984375 89.325Q126.6875 89.54375 127.0625 90.05937Q127.453125 90.575 127.453125 91.325Q127.453125 92.46562 126.703125 93.15312Q125.953125 93.825 124.75 93.825Q123.5625 93.825 122.796875 93.16875Q122.046875 92.5125 122.046875 91.45L123.140625 91.45Q123.140625 92.12187 123.578125 92.52812Q124.015625 92.93437 124.765625 92.93437Q125.546875 92.93437 125.953125 92.52812Q126.375 92.10625 126.375 91.34062Q126.375 90.60625 125.921875 90.21562Q125.46875 89.80937 124.59375 89.79375L123.78125 89.79375L123.78125 88.90312Z" fill-rule="nonzero"/><path fill="#ffffff" d="M111.765625 93.7L110.6875 93.7L110.6875 86.48125L108.5 87.27812L108.5 86.29375L111.609375 85.12187L111.765625 85.12187L111.765625 93.7ZM116.78125 88.90312L117.59375 88.90312Q118.375 88.8875 118.8125 88.49687Q119.25 88.10625 119.25 87.43437Q119.25 85.93437 117.75 85.93437Q117.046875 85.93437 116.625 86.34062Q116.21875 86.74687 116.21875 87.40312L115.125 87.40312Q115.125 86.3875 115.859375 85.71562Q116.609375 85.04375 117.75 85.04375Q118.953125 85.04375 119.640625 85.68437Q120.328125 86.325 120.328125 87.46562Q120.328125 88.02812 119.96875 88.54375Q119.609375 89.05937 118.984375 89.325Q119.6875 89.54375 120.0625 90.05937Q120.453125 90.575 120.453125 91.325Q120.453125 92.46562 119.703125 93.15312Q118.953125 93.825 117.75 93.825Q116.5625 93.825 115.796875 93.16875Q115.046875 92.5125 115.046875 91.45L116.140625 91.45Q116.140625 92.12187 116.578125 92.52812Q117.015625 92.93437 117.765625 92.93437Q118.546875 92.93437 118.953125 92.52812Q119.375 92.10625 119.375 91.34062Q119.375 90.60625 118.921875 90.21562Q118.46875 89.80937 117.59375 89.79375L116.78125 89.79375L116.78125 88.90312ZM123.78125 88.90312L124.59375 88.90312Q125.375 88.8875 125.8125 88.49687Q126.25 88.10625 126.25 87.43437Q126.25 85.93437 124.75 85.93437Q124.046875 85.93437 123.625 86.34062Q123.21875 86.74687 123.21875 87.40312L122.125 87.40312Q122.125 86.3875 122.859375 85.71562Q123.609375 85.04375 124.75 85.04375Q125.953125 85.04375 126.640625 85.68437Q127.328125 86.325 127.328125 87.46562Q127.328125 88.02812 126.96875 88.54375Q126.609375 89.05937 125.984375 89.325Q126.6875 89.54375 127.0625 90.05937Q127.453125 90.575 127.453125 91.325Q127.453125 92.46562 126.703125 93.15312Q125.953125 93.825 124.75 93.825Q123.5625 93.825 122.796875 93.16875Q122.046875 92.5125 122.046875 91.45L123.140625 91.45Q123.140625 92.12187 123.578125 92.52812Q124.015625 92.93437 124.765625 92.93437Q125.546875 92.93437 125.953125 92.52812Q126.375 92.10625 126.375 91.34062Q126.375 90.60625 125.921875 90.21562Q125.46875 89.80937 124.59375 89.79375L123.78125 89.79375L123.78125 88.90312Z" fill-rule="nonzero"/><path stroke="#4285f4" stroke-width="3.0" stroke-linejoin="round" stroke-linecap="round" d="M215.26562 406.9L214.1875 406.9L214.1875 399.68124L212.0 400.47812L212.0 399.49374L215.10938 398.32187L215.26562 398.32187L215.26562 406.9ZM224.21875 398.97812L220.6875 406.9L219.54688 406.9L223.0625 399.25937L218.45312 399.25937L218.45312 398.36874L224.21875 398.36874L224.21875 398.97812Z" fill-rule="nonzero"/><path fill="#ffffff" d="M215.26562 406.9L214.1875 406.9L214.1875 399.68124L212.0 400.47812L212.0 399.49374L215.10938 398.32187L215.26562 398.32187L215.26562 406.9ZM224.21875 398.97812L220.6875 406.9L219.54688 406.9L223.0625 399.25937L218.45312 399.25937L218.45312 398.36874L224.21875 398.36874L224.21875 398.97812Z" fill-rule="nonzero"/><path stroke="#4285f4" stroke-width="3.0" stroke-linejoin="round" stroke-linecap="round" d="M320.39062 423.3875Q320.39062 424.02814 320.04688 424.52814Q319.70312 425.02814 319.14062 425.3094Q319.79688 425.59064 320.1875 426.15314Q320.57812 426.7 320.57812 427.40314Q320.57812 428.4969 319.82812 429.16876Q319.09375 429.825 317.875 429.825Q316.64062 429.825 315.89062 429.16876Q315.15625 428.4969 315.15625 427.40314Q315.15625 426.7 315.53125 426.15314Q315.90625 425.59064 316.57812 425.3094Q316.01562 425.02814 315.6875 424.52814Q315.35938 424.02814 315.35938 423.3875Q315.35938 422.3094 316.04688 421.6844Q316.73438 421.04376 317.875 421.04376Q319.0 421.04376 319.6875 421.6844Q320.39062 422.3094 320.39062 423.3875ZM319.5 427.3719Q319.5 426.65314 319.04688 426.21564Q318.59375 425.7625 317.85938 425.7625Q317.125 425.7625 316.67188 426.21564Q316.23438 426.65314 316.23438 427.3875Q316.23438 428.10626 316.67188 428.52814Q317.10938 428.9344 317.875 428.9344Q318.625 428.9344 319.0625 428.5125Q319.5 428.09064 319.5 427.3719ZM317.875 421.9344Q317.23438 421.9344 316.82812 422.34064Q316.4375 422.73126 316.4375 423.41876Q316.4375 424.0594 316.82812 424.46564Q317.21875 424.8719 317.85938 424.8719Q318.51562 424.8719 318.90625 424.46564Q319.29688 424.0594 319.29688 423.41876Q319.29688 422.7625 318.89062 422.35626Q318.48438 421.9344 317.875 421.9344Z" fill-rule="nonzero"/><path fill="#ffffff" d="M320.39062 423.3875Q320.39062 424.02814 320.04688 424.52814Q319.70312 425.02814 319.14062 425.3094Q319.79688 425.59064 320.1875 426.15314Q320.57812 426.7 320.57812 427.40314Q320.57812 428.4969 319.82812 429.16876Q319.09375 429.825 317.875 429.825Q316.64062 429.825 315.89062 429.16876Q315.15625 428.4969 315.15625 427.40314Q315.15625 426.7 315.53125 426.15314Q315.90625 425.59064 316.57812 425.3094Q316.01562 425.02814 315.6875 424.52814Q315.35938 424.02814 315.35938 423.3875Q315.35938 422.3094 316.04688 421.6844Q316.73438 421.04376 317.875 421.04376Q319.0 421.04376 319.6875 421.6844Q320.39062 422.3094 320.39062 423.3875ZM319.5 427.3719Q319.5 426.65314 319.04688 426.21564Q318.59375 425.7625 317.85938 425.7625Q317.125 425.7625 316.67188 426.21564Q316.23438 426.65314 316.23438 427.3875Q316.23438 428.10626 316.67188 428.52814Q317.10938 428.9344 317.875 428.9344Q318.625 428.9344 319.0625 428.5125Q319.5 428.09064 319.5 427.3719ZM317.875 421.9344Q317.23438 421.9344 316.82812 422.34064Q316.4375 422.73126 316.4375 423.41876Q316.4375 424.0594 316.82812 424.46564Q317.21875 424.8719 317.85938 424.8719Q318.51562 424.8719 318.90625 424.46564Q319.29688 424.0594 319.29688 423.41876Q319.29688 422.7625 318.89062 422.35626Q318.48438 421.9344 317.875 421.9344Z" fill-rule="nonzero"/><path stroke="#4285f4" stroke-width="3.0" stroke-linejoin="round" stroke-linecap="round" d="M415.26562 423.1L414.1875 423.1L414.1875 415.88126L412.0 416.67813L412.0 415.69376L415.10938 414.52188L415.26562 414.52188L415.26562 423.1ZM422.26562 423.1L421.1875 423.1L421.1875 415.88126L419.0 416.67813L419.0 415.69376L422.10938 414.52188L422.26562 414.52188L422.26562 423.1Z" fill-rule="nonzero"/><path fill="#ffffff" d="M415.26562 423.1L414.1875 423.1L414.1875 415.88126L412.0 416.67813L412.0 415.69376L415.10938 414.52188L415.26562 414.52188L415.26562 423.1ZM422.26562 423.1L421.1875 423.1L421.1875 415.88126L419.0 416.67813L419.0 415.69376L422.10938 414.52188L422.26562 414.52188L422.26562 423.1Z" fill-rule="nonzero"/><path stroke="#4285f4" stroke-width="3.0" stroke-linejoin="round" stroke-linecap="round" d="M516.2969 398.8L510.70312 398.8L510.70312 398.01874L513.65625 394.7375Q514.3125 393.9875 514.5625 393.53436Q514.8125 393.0656 514.8125 392.5656Q514.8125 391.89374 514.40625 391.47186Q514.0156 391.03436 513.3281 391.03436Q512.53125 391.03436 512.0781 391.5031Q511.625 391.95624 511.625 392.78436L510.54688 392.78436Q510.54688 391.59686 511.29688 390.8781Q512.0625 390.14374 513.3281 390.14374Q514.53125 390.14374 515.21875 390.76874Q515.90625 391.39374 515.90625 392.4406Q515.90625 393.6906 514.2969 395.4406L512.0156 397.90936L516.2969 397.90936L516.2969 398.8ZM523.0625 395.15936Q523.0625 397.0656 522.40625 398.0031Q521.7656 398.925 520.375 398.925Q519.0156 398.925 518.3594 398.01874Q517.7031 397.1125 517.6719 395.3L517.6719 393.8625Q517.6719 391.97186 518.3125 391.0656Q518.96875 390.14374 520.3594 390.14374Q521.7344 390.14374 522.3906 391.03436Q523.0469 391.90936 523.0625 393.7531L523.0625 395.15936ZM521.96875 393.675Q521.96875 392.3 521.5781 391.675Q521.2031 391.03436 520.3594 391.03436Q519.53125 391.03436 519.1406 391.675Q518.7656 392.3 518.7656 393.59686L518.7656 395.33124Q518.7656 396.70624 519.15625 397.3781Q519.5625 398.03436 520.375 398.03436Q521.1719 398.03436 521.5625 397.40936Q521.9531 396.78436 521.96875 395.45624L521.96875 393.675Z" fill-rule="nonzero"/><path fill="#ffffff" d="M516.2969 398.8L510.70312 398.8L510.70312 398.01874L513.65625 394.7375Q514.3125 393.9875 514.5625 393.53436Q514.8125 393.0656 514.8125 392.5656Q514.8125 391.89374 514.40625 391.47186Q514.0156 391.03436 513.3281 391.03436Q512.53125 391.03436 512.0781 391.5031Q511.625 391.95624 511.625 392.78436L510.54688 392.78436Q510.54688 391.59686 511.29688 390.8781Q512.0625 390.14374 513.3281 390.14374Q514.53125 390.14374 515.21875 390.76874Q515.90625 391.39374 515.90625 392.4406Q515.90625 393.6906 514.2969 395.4406L512.0156 397.90936L516.2969 397.90936L516.2969 398.8ZM523.0625 395.15936Q523.0625 397.0656 522.40625 398.0031Q521.7656 398.925 520.375 398.925Q519.0156 398.925 518.3594 398.01874Q517.7031 397.1125 517.6719 395.3L517.6719 393.8625Q517.6719 391.97186 518.3125 391.0656Q518.96875 390.14374 520.3594 390.14374Q521.7344 390.14374 522.3906 391.03436Q523.0469 391.90936 523.0625 393.7531L523.0625 395.15936ZM521.96875 393.675Q521.96875 392.3 521.5781 391.675Q521.2031 391.03436 520.3594 391.03436Q519.53125 391.03436 519.1406 391.675Q518.7656 392.3 518.7656 393.59686L518.7656 395.33124Q518.7656 396.70624 519.15625 397.3781Q519.5625 398.03436 520.375 398.03436Q521.1719 398.03436 521.5625 397.40936Q521.9531 396.78436 521.96875 395.45624L521.96875 393.675Z" fill-rule="nonzero"/><path stroke="#4285f4" stroke-width="3.0" stroke-linejoin="round" stroke-linecap="round" d="M616.2969 385.3L610.7031 385.3L610.7031 384.51874L613.65625 381.2375Q614.3125 380.4875 614.5625 380.03436Q614.8125 379.5656 614.8125 379.0656Q614.8125 378.39374 614.40625 377.97186Q614.0156 377.53436 613.3281 377.53436Q612.53125 377.53436 612.0781 378.0031Q611.625 378.45624 611.625 379.28436L610.5469 379.28436Q610.5469 378.09686 611.2969 377.3781Q612.0625 376.64374 613.3281 376.64374Q614.53125 376.64374 615.21875 377.26874Q615.90625 377.89374 615.90625 378.9406Q615.90625 380.1906 614.2969 381.9406L612.0156 384.40936L616.2969 384.40936L616.2969 385.3ZM618.2031 381.01874L618.6406 376.76874L623.0156 376.76874L623.0156 377.76874L619.5625 377.76874L619.2969 380.09686Q619.9375 379.72186 620.7344 379.72186Q621.8906 379.72186 622.5781 380.5031Q623.2656 381.26874 623.2656 382.58124Q623.2656 383.89374 622.5469 384.65936Q621.84375 385.425 620.5625 385.425Q619.4375 385.425 618.71875 384.8Q618.0 384.15936 617.90625 383.05L618.9219 383.05Q619.03125 383.78436 619.4531 384.15936Q619.875 384.53436 620.5625 384.53436Q621.3125 384.53436 621.75 384.01874Q622.1875 383.5031 622.1875 382.59686Q622.1875 381.7375 621.71875 381.22186Q621.25 380.70624 620.46875 380.70624Q619.7656 380.70624 619.3594 381.0031L619.0781 381.2375L618.2031 381.01874Z" fill-rule="nonzero"/><path fill="#ffffff" d="M616.2969 385.3L610.7031 385.3L610.7031 384.51874L613.65625 381.2375Q614.3125 380.4875 614.5625 380.03436Q614.8125 379.5656 614.8125 379.0656Q614.8125 378.39374 614.40625 377.97186Q614.0156 377.53436 613.3281 377.53436Q612.53125 377.53436 612.0781 378.0031Q611.625 378.45624 611.625 379.28436L610.5469 379.28436Q610.5469 378.09686 611.2969 377.3781Q612.0625 376.64374 613.3281 376.64374Q614.53125 376.64374 615.21875 377.26874Q615.90625 377.89374 615.90625 378.9406Q615.90625 380.1906 614.2969 381.9406L612.0156 384.40936L616.2969 384.40936L616.2969 385.3ZM618.2031 381.01874L618.6406 376.76874L623.0156 376.76874L623.0156 377.76874L619.5625 377.76874L619.2969 380.09686Q619.9375 379.72186 620.7344 379.72186Q621.8906 379.72186 622.5781 380.5031Q623.2656 381.26874 623.2656 382.58124Q623.2656 383.89374 622.5469 384.65936Q621.84375 385.425 620.5625 385.425Q619.4375 385.425 618.71875 384.8Q618.0 384.15936 617.90625 383.05L618.9219 383.05Q619.03125 383.78436 619.4531 384.15936Q619.875 384.53436 620.5625 384.53436Q621.3125 384.53436 621.75 384.01874Q622.1875 383.5031 622.1875 382.59686Q622.1875 381.7375 621.71875 381.22186Q621.25 380.70624 620.46875 380.70624Q619.7656 380.70624 619.3594 381.0031L619.0781 381.2375L618.2031 381.01874Z" fill-rule="nonzero"/><path stroke="#4285f4" stroke-width="3.0" stroke-linejoin="round" stroke-linecap="round" d="M714.2656 415.0L713.1875 415.0L713.1875 407.78125L711.0 408.57812L711.0 407.59375L714.1094 406.42188L714.2656 406.42188L714.2656 415.0ZM722.28125 412.14062L723.46875 412.14062L723.46875 413.01562L722.28125 413.01562L722.28125 415.0L721.2031 415.0L721.2031 413.01562L717.3125 413.01562L717.3125 412.375L721.125 406.46875L722.28125 406.46875L722.28125 412.14062ZM718.5469 412.14062L721.2031 412.14062L721.2031 407.95312L721.0625 408.1875L718.5469 412.14062Z" fill-rule="nonzero"/><path fill="#ffffff" d="M714.2656 415.0L713.1875 415.0L713.1875 407.78125L711.0 408.57812L711.0 407.59375L714.1094 406.42188L714.2656 406.42188L714.2656 415.0ZM722.28125 412.14062L723.46875 412.14062L723.46875 413.01562L722.28125 413.01562L722.28125 415.0L721.2031 415.0L721.2031 413.01562L717.3125 413.01562L717.3125 412.375L721.125 406.46875L722.28125 406.46875L722.28125 412.14062ZM718.5469 412.14062L721.2031 412.14062L721.2031 407.95312L721.0625 408.1875L718.5469 412.14062Z" fill-rule="nonzero"/><path fill="#000000" d="M38.5 435.76562Q38.5 434.23438 38.8125 433.3125Q39.125 432.375 39.734375 431.875Q40.359375 431.375 41.296875 431.375Q41.984375 431.375 42.5 431.65625Q43.03125 431.9375 43.375 432.46875Q43.71875 432.98438 43.90625 433.73438Q44.09375 434.48438 44.09375 435.76562Q44.09375 437.28125 43.78125 438.20312Q43.484375 439.125 42.859375 439.64062Q42.25 440.14062 41.296875 440.14062Q40.0625 440.14062 39.34375 439.25Q38.5 438.1875 38.5 435.76562ZM39.578125 435.76562Q39.578125 437.875 40.078125 438.57812Q40.578125 439.28125 41.296875 439.28125Q42.03125 439.28125 42.515625 438.57812Q43.015625 437.875 43.015625 435.76562Q43.015625 433.64062 42.515625 432.95312Q42.03125 432.25 41.28125 432.25Q40.5625 432.25 40.125 432.85938Q39.578125 433.64062 39.578125 435.76562Z" fill-rule="nonzero"/><path fill="#000000" d="M31.5 302.75L32.609375 302.65625Q32.734375 303.46875 33.171875 303.875Q33.625 304.28125 34.265625 304.28125Q35.015625 304.28125 35.546875 303.70312Q36.078125 303.125 36.078125 302.1875Q36.078125 301.28125 35.5625 300.76562Q35.0625 300.23438 34.234375 300.23438Q33.734375 300.23438 33.3125 300.46875Q32.90625 300.70312 32.671875 301.0625L31.6875 300.9375L32.515625 296.53125L36.796875 296.53125L36.796875 297.53125L33.359375 297.53125L32.90625 299.84375Q33.671875 299.29688 34.515625 299.29688Q35.640625 299.29688 36.40625 300.07812Q37.1875 300.85938 37.1875 302.09375Q37.1875 303.25 36.515625 304.10938Q35.6875 305.14062 34.265625 305.14062Q33.09375 305.14062 32.34375 304.48438Q31.609375 303.82812 31.5 302.75ZM38.5 300.76562Q38.5 299.23438 38.8125 298.3125Q39.125 297.375 39.734375 296.875Q40.359375 296.375 41.296875 296.375Q41.984375 296.375 42.5 296.65625Q43.03125 296.9375 43.375 297.46875Q43.71875 297.98438 43.90625 298.73438Q44.09375 299.48438 44.09375 300.76562Q44.09375 302.28125 43.78125 303.20312Q43.484375 304.125 42.859375 304.64062Q42.25 305.14062 41.296875 305.14062Q40.0625 305.14062 39.34375 304.25Q38.5 303.1875 38.5 300.76562ZM39.578125 300.76562Q39.578125 302.875 40.078125 303.57812Q40.578125 304.28125 41.296875 304.28125Q42.03125 304.28125 42.515625 303.57812Q43.015625 302.875 43.015625 300.76562Q43.015625 298.64062 42.515625 297.95312Q42.03125 297.25 41.28125 297.25Q40.5625 297.25 40.125 297.85938Q39.578125 298.64062 39.578125 300.76562Z" fill-rule="nonzero"/><path fill="#000000" d="M28.46875 170.0L27.421875 170.0L27.421875 163.28125Q27.03125 163.64062 26.40625 164.01562Q25.796875 164.375 25.3125 164.54688L25.3125 163.53125Q26.1875 163.10938 26.84375 162.53125Q27.515625 161.9375 27.796875 161.375L28.46875 161.375L28.46875 170.0ZM31.5 165.76562Q31.5 164.23438 31.8125 163.3125Q32.125 162.375 32.734375 161.875Q33.359375 161.375 34.296875 161.375Q34.984375 161.375 35.5 161.65625Q36.03125 161.9375 36.375 162.46875Q36.71875 162.98438 36.90625 163.73438Q37.09375 164.48438 37.09375 165.76562Q37.09375 167.28125 36.78125 168.20312Q36.484375 169.125 35.859375 169.64062Q35.25 170.14062 34.296875 170.14062Q33.0625 170.14062 32.34375 169.25Q31.5 168.1875 31.5 165.76562ZM32.578125 165.76562Q32.578125 167.875 33.078125 168.57812Q33.578125 169.28125 34.296875 169.28125Q35.03125 169.28125 35.515625 168.57812Q36.015625 167.875 36.015625 165.76562Q36.015625 163.64062 35.515625 162.95312Q35.03125 162.25 34.28125 162.25Q33.5625 162.25 33.125 162.85938Q32.578125 163.64062 32.578125 165.76562ZM38.5 165.76562Q38.5 164.23438 38.8125 163.3125Q39.125 162.375 39.734375 161.875Q40.359375 161.375 41.296875 161.375Q41.984375 161.375 42.5 161.65625Q43.03125 161.9375 43.375 162.46875Q43.71875 162.98438 43.90625 163.73438Q44.09375 164.48438 44.09375 165.76562Q44.09375 167.28125 43.78125 168.20312Q43.484375 169.125 42.859375 169.64062Q42.25 170.14062 41.296875 170.14062Q40.0625 170.14062 39.34375 169.25Q38.5 168.1875 38.5 165.76562ZM39.578125 165.76562Q39.578125 167.875 40.078125 168.57812Q40.578125 169.28125 41.296875 169.28125Q42.03125 169.28125 42.515625 168.57812Q43.015625 167.875 43.015625 165.76562Q43.015625 163.64062 42.515625 162.95312Q42.03125 162.25 41.28125 162.25Q40.5625 162.25 40.125 162.85938Q39.578125 163.64062 39.578125 165.76562Z" fill-rule="nonzero"/><path fill="#000000" d="M28.46875 35.0L27.421875 35.0L27.421875 28.28125Q27.03125 28.640625 26.40625 29.015625Q25.796875 29.375 25.3125 29.546875L25.3125 28.53125Q26.1875 28.109375 26.84375 27.53125Q27.515625 26.9375 27.796875 26.375L28.46875 26.375L28.46875 35.0ZM31.5 32.75L32.609375 32.65625Q32.734375 33.46875 33.171875 33.875Q33.625 34.28125 34.265625 34.28125Q35.015625 34.28125 35.546875 33.703125Q36.078125 33.125 36.078125 32.1875Q36.078125 31.28125 35.5625 30.765625Q35.0625 30.234375 34.234375 30.234375Q33.734375 30.234375 33.3125 30.46875Q32.90625 30.703125 32.671875 31.0625L31.6875 30.9375L32.515625 26.53125L36.796875 26.53125L36.796875 27.53125L33.359375 27.53125L32.90625 29.84375Q33.671875 29.296875 34.515625 29.296875Q35.640625 29.296875 36.40625 30.078125Q37.1875 30.859375 37.1875 32.09375Q37.1875 33.25 36.515625 34.109375Q35.6875 35.140625 34.265625 35.140625Q33.09375 35.140625 32.34375 34.484375Q31.609375 33.828125 31.5 32.75ZM38.5 30.765625Q38.5 29.234375 38.8125 28.3125Q39.125 27.375 39.734375 26.875Q40.359375 26.375 41.296875 26.375Q41.984375 26.375 42.5 26.65625Q43.03125 26.9375 43.375 27.46875Q43.71875 27.984375 43.90625 28.734375Q44.09375 29.484375 44.09375 30.765625Q44.09375 32.28125 43.78125 33.203125Q43.484375 34.125 42.859375 34.640625Q42.25 35.140625 41.296875 35.140625Q40.0625 35.140625 39.34375 34.25Q38.5 33.1875 38.5 30.765625ZM39.578125 30.765625Q39.578125 32.875 40.078125 33.578125Q40.578125 34.28125 41.296875 34.28125Q42.03125 34.28125 42.515625 33.578125Q43.015625 32.875 43.015625 30.765625Q43.015625 28.640625 42.515625 27.953125Q42.03125 27.25 41.28125 27.25Q40.5625 27.25 40.125 27.859375Q39.578125 28.640625 39.578125 30.765625Z" fill-rule="nonzero"/><path fill="#000000" d="M109.113205 445.625L109.113205 444.40625L110.175705 444.40625L110.175705 445.625L109.113205 445.625ZM109.113205 453.0L109.113205 446.78125L110.175705 446.78125L110.175705 453.0L109.113205 453.0ZM111.894455 448.8125Q111.894455 446.67188 113.03508 445.46875Q114.19133 444.25 116.00383 444.25Q117.206955 444.25 118.16008 444.82812Q119.113205 445.39062 119.613205 446.40625Q120.113205 447.42188 120.113205 448.71875Q120.113205 450.01562 119.581955 451.04688Q119.050705 452.07812 118.081955 452.60938Q117.12883 453.14062 116.00383 453.14062Q114.78508 453.14062 113.831955 452.5625Q112.87883 451.96875 112.37883 450.96875Q111.894455 449.95312 111.894455 448.8125ZM113.06633 448.82812Q113.06633 450.39062 113.894455 451.28125Q114.738205 452.17188 116.00383 452.17188Q117.28508 452.17188 118.113205 451.28125Q118.94133 450.375 118.94133 448.70312Q118.94133 447.65625 118.581955 446.875Q118.238205 446.09375 117.550705 445.67188Q116.863205 445.23438 116.019455 445.23438Q114.81633 445.23438 113.94133 446.0625Q113.06633 446.89062 113.06633 448.82812ZM120.863205 450.23438L121.925705 450.14062Q122.00383 450.79688 122.28508 451.20312Q122.56633 451.60938 123.144455 451.875Q123.738205 452.125 124.47258 452.125Q125.113205 452.125 125.613205 451.9375Q126.113205 451.73438 126.34758 451.40625Q126.59758 451.0625 126.59758 450.67188Q126.59758 450.26562 126.363205 449.96875Q126.12883 449.65625 125.59758 449.45312Q125.238205 449.3125 124.050705 449.03125Q122.87883 448.75 122.41008 448.5Q121.78508 448.17188 121.488205 447.70312Q121.19133 447.21875 121.19133 446.625Q121.19133 445.98438 121.550705 445.42188Q121.925705 444.84375 122.62883 444.5625Q123.34758 444.26562 124.206955 444.26562Q125.16008 444.26562 125.894455 444.57812Q126.62883 444.875 127.019455 445.48438Q127.41008 446.07812 127.44133 446.82812L126.34758 446.90625Q126.25383 446.09375 125.738205 445.6875Q125.238205 445.26562 124.25383 445.26562Q123.22258 445.26562 122.75383 445.64062Q122.28508 446.01562 122.28508 446.54688Q122.28508 447.01562 122.613205 447.3125Q122.94133 447.60938 124.31633 447.92188Q125.706955 448.23438 126.22258 448.46875Q126.97258 448.82812 127.331955 449.35938Q127.69133 449.875 127.69133 450.57812Q127.69133 451.26562 127.300705 451.875Q126.91008 452.46875 126.175705 452.8125Q125.44133 453.14062 124.519455 453.14062Q123.34758 453.14062 122.550705 452.8125Q121.769455 452.46875 121.31633 451.78125Q120.87883 451.09375 120.863205 450.23438Z" fill-rule="nonzero"/><path fill="#000000" d="M198.3411 453.0L198.3411 446.78125L199.2786 446.78125L199.2786 447.65625Q199.57547 447.1875 200.05984 446.92188Q200.54422 446.64062 201.16922 446.64062Q201.85672 446.64062 202.29422 446.92188Q202.74734 447.20312 202.91922 447.71875Q203.66922 446.64062 204.8411 446.64062Q205.7786 446.64062 206.26297 447.15625Q206.76297 447.65625 206.76297 448.73438L206.76297 453.0L205.7161 453.0L205.7161 449.07812Q205.7161 448.45312 205.60672 448.17188Q205.51297 447.89062 205.24734 447.71875Q204.98172 447.54688 204.60672 447.54688Q203.95047 447.54688 203.51297 447.98438Q203.0911 448.42188 203.0911 449.39062L203.0911 453.0L202.0286 453.0L202.0286 448.95312Q202.0286 448.25 201.76297 447.90625Q201.51297 447.54688 200.93484 447.54688Q200.48172 447.54688 200.10672 447.78125Q199.73172 448.01562 199.55984 448.46875Q199.38797 448.92188 199.38797 449.76562L199.38797 453.0L198.3411 453.0ZM213.4036 452.23438Q212.80984 452.73438 212.26297 452.9375Q211.73172 453.14062 211.10672 453.14062Q210.07547 453.14062 209.5286 452.64062Q208.98172 452.14062 208.98172 451.35938Q208.98172 450.90625 209.18484 450.53125Q209.38797 450.14062 209.73172 449.92188Q210.07547 449.6875 210.49734 449.57812Q210.79422 449.48438 211.43484 449.40625Q212.70047 449.26562 213.30984 449.04688Q213.30984 448.82812 213.30984 448.78125Q213.30984 448.125 213.01297 447.85938Q212.60672 447.51562 211.80984 447.51562Q211.07547 447.51562 210.7161 447.78125Q210.35672 448.03125 210.18484 448.6875L209.1536 448.54688Q209.29422 447.89062 209.62234 447.48438Q209.95047 447.07812 210.55984 446.85938Q211.16922 446.64062 211.9661 446.64062Q212.76297 446.64062 213.26297 446.82812Q213.76297 447.01562 213.99734 447.29688Q214.23172 447.57812 214.32547 448.01562Q214.37234 448.28125 214.37234 448.98438L214.37234 450.39062Q214.37234 451.85938 214.43484 452.25Q214.51297 452.64062 214.7161 453.0L213.60672 453.0Q213.45047 452.67188 213.4036 452.23438ZM213.30984 449.875Q212.73172 450.10938 211.5911 450.28125Q210.93484 450.375 210.66922 450.5Q210.4036 450.60938 210.24734 450.82812Q210.10672 451.04688 210.10672 451.32812Q210.10672 451.75 210.41922 452.03125Q210.74734 452.3125 211.35672 452.3125Q211.9661 452.3125 212.43484 452.04688Q212.91922 451.78125 213.13797 451.3125Q213.30984 450.95312 213.30984 450.26562L213.30984 449.875ZM220.4036 450.71875L221.43484 450.85938Q221.26297 451.92188 220.55984 452.53125Q219.85672 453.14062 218.8411 453.14062Q217.55984 453.14062 216.7786 452.3125Q216.01297 451.46875 216.01297 449.90625Q216.01297 448.90625 216.3411 448.15625Q216.68484 447.39062 217.35672 447.01562Q218.04422 446.64062 218.85672 446.64062Q219.85672 446.64062 220.49734 447.15625Q221.1536 447.65625 221.3411 448.60938L220.30984 448.76562Q220.16922 448.14062 219.79422 447.82812Q219.41922 447.5 218.88797 447.5Q218.0911 447.5 217.5911 448.07812Q217.0911 448.64062 217.0911 449.875Q217.0911 451.14062 217.57547 451.70312Q218.05984 452.26562 218.82547 452.26562Q219.45047 452.26562 219.85672 451.89062Q220.2786 451.51562 220.4036 450.71875ZM222.12234 448.8125Q222.12234 446.67188 223.26297 445.46875Q224.41922 444.25 226.23172 444.25Q227.43484 444.25 228.38797 444.82812Q229.3411 445.39062 229.8411 446.40625Q230.3411 447.42188 230.3411 448.71875Q230.3411 450.01562 229.80984 451.04688Q229.2786 452.07812 228.30984 452.60938Q227.35672 453.14062 226.23172 453.14062Q225.01297 453.14062 224.05984 452.5625Q223.10672 451.96875 222.60672 450.96875Q222.12234 449.95312 222.12234 448.8125ZM223.29422 448.82812Q223.29422 450.39062 224.12234 451.28125Q224.9661 452.17188 226.23172 452.17188Q227.51297 452.17188 228.3411 451.28125Q229.16922 450.375 229.16922 448.70312Q229.16922 447.65625 228.80984 446.875Q228.4661 446.09375 227.7786 445.67188Q227.0911 445.23438 226.24734 445.23438Q225.04422 445.23438 224.16922 446.0625Q223.29422 446.89062 223.29422 448.82812ZM231.0911 450.23438L232.1536 450.14062Q232.23172 450.79688 232.51297 451.20312Q232.79422 451.60938 233.37234 451.875Q233.9661 452.125 234.70047 452.125Q235.3411 452.125 235.8411 451.9375Q236.3411 451.73438 236.57547 451.40625Q236.82547 451.0625 236.82547 450.67188Q236.82547 450.26562 236.5911 449.96875Q236.35672 449.65625 235.82547 449.45312Q235.4661 449.3125 234.2786 449.03125Q233.10672 448.75 232.63797 448.5Q232.01297 448.17188 231.7161 447.70312Q231.41922 447.21875 231.41922 446.625Q231.41922 445.98438 231.7786 445.42188Q232.1536 444.84375 232.85672 444.5625Q233.57547 444.26562 234.43484 444.26562Q235.38797 444.26562 236.12234 444.57812Q236.85672 444.875 237.24734 445.48438Q237.63797 446.07812 237.66922 446.82812L236.57547 446.90625Q236.48172 446.09375 235.9661 445.6875Q235.4661 445.26562 234.48172 445.26562Q233.45047 445.26562 232.98172 445.64062Q232.51297 446.01562 232.51297 446.54688Q232.51297 447.01562 232.8411 447.3125Q233.16922 447.60938 234.54422 447.92188Q235.93484 448.23438 236.45047 448.46875Q237.20047 448.82812 237.55984 449.35938Q237.91922 449.875 237.91922 450.57812Q237.91922 451.26562 237.5286 451.875Q237.13797 452.46875 236.4036 452.8125Q235.66922 453.14062 234.74734 453.14062Q233.57547 453.14062 232.7786 452.8125Q231.99734 452.46875 231.54422 451.78125Q231.10672 451.09375 231.0911 450.23438Z" fill-rule="nonzero"/><path fill="#000000" d="M308.36584 452.0625L308.5221 452.98438Q308.06897 453.07812 307.72522 453.07812Q307.1471 453.07812 306.8346 452.90625Q306.5221 452.71875 306.38147 452.42188Q306.25647 452.125 306.25647 451.17188L306.25647 447.59375L305.49084 447.59375L305.49084 446.78125L306.25647 446.78125L306.25647 445.23438L307.30334 444.60938L307.30334 446.78125L308.36584 446.78125L308.36584 447.59375L307.30334 447.59375L307.30334 451.23438Q307.30334 451.6875 307.35022 451.8125Q307.41272 451.9375 307.53772 452.01562Q307.66272 452.09375 307.8971 452.09375Q308.0846 452.09375 308.36584 452.0625ZM310.78772 453.0L308.42834 446.78125L309.53772 446.78125L310.88147 450.5Q311.0846 451.10938 311.2721 451.75Q311.41272 451.26562 311.66272 450.57812L313.05334 446.78125L314.13147 446.78125L311.7721 453.0L310.78772 453.0ZM313.85022 448.8125Q313.85022 446.67188 314.99084 445.46875Q316.1471 444.25 317.9596 444.25Q319.16272 444.25 320.11584 444.82812Q321.06897 445.39062 321.56897 446.40625Q322.06897 447.42188 322.06897 448.71875Q322.06897 450.01562 321.53772 451.04688Q321.00647 452.07812 320.03772 452.60938Q319.0846 453.14062 317.9596 453.14062Q316.74084 453.14062 315.78772 452.5625Q314.8346 451.96875 314.3346 450.96875Q313.85022 449.95312 313.85022 448.8125ZM315.0221 448.82812Q315.0221 450.39062 315.85022 451.28125Q316.69397 452.17188 317.9596 452.17188Q319.24084 452.17188 320.06897 451.28125Q320.8971 450.375 320.8971 448.70312Q320.8971 447.65625 320.53772 446.875Q320.19397 446.09375 319.50647 445.67188Q318.81897 445.23438 317.97522 445.23438Q316.7721 445.23438 315.8971 446.0625Q315.0221 446.89062 315.0221 448.82812ZM322.81897 450.23438L323.88147 450.14062Q323.9596 450.79688 324.24084 451.20312Q324.5221 451.60938 325.10022 451.875Q325.69397 452.125 326.42834 452.125Q327.06897 452.125 327.56897 451.9375Q328.06897 451.73438 328.30334 451.40625Q328.55334 451.0625 328.55334 450.67188Q328.55334 450.26562 328.31897 449.96875Q328.0846 449.65625 327.55334 449.45312Q327.19397 449.3125 326.00647 449.03125Q324.8346 448.75 324.36584 448.5Q323.74084 448.17188 323.44397 447.70312Q323.1471 447.21875 323.1471 446.625Q323.1471 445.98438 323.50647 445.42188Q323.88147 444.84375 324.5846 444.5625Q325.30334 444.26562 326.16272 444.26562Q327.11584 444.26562 327.85022 444.57812Q328.5846 444.875 328.97522 445.48438Q329.36584 446.07812 329.3971 446.82812L328.30334 446.90625Q328.2096 446.09375 327.69397 445.6875Q327.19397 445.26562 326.2096 445.26562Q325.17834 445.26562 324.7096 445.64062Q324.24084 446.01562 324.24084 446.54688Q324.24084 447.01562 324.56897 447.3125Q324.8971 447.60938 326.2721 447.92188Q327.66272 448.23438 328.17834 448.46875Q328.92834 448.82812 329.28772 449.35938Q329.6471 449.875 329.6471 450.57812Q329.6471 451.26562 329.25647 451.875Q328.86584 452.46875 328.13147 452.8125Q327.3971 453.14062 326.47522 453.14062Q325.30334 453.14062 324.50647 452.8125Q323.72522 452.46875 323.2721 451.78125Q322.8346 451.09375 322.81897 450.23438Z" fill-rule="nonzero"/><path fill="#000000" d="M394.9375 453.0L393.03125 446.78125L394.125 446.78125L395.10938 450.375L395.48438 451.70312Q395.51562 451.60938 395.8125 450.42188L396.79688 446.78125L397.875 446.78125L398.8125 450.39062L399.125 451.57812L399.48438 450.375L400.54688 446.78125L401.57812 446.78125L399.625 453.0L398.53125 453.0L397.54688 449.26562L397.29688 448.21875L396.04688 453.0L394.9375 453.0ZM406.85938 452.23438Q406.26562 452.73438 405.71875 452.9375Q405.1875 453.14062 404.5625 453.14062Q403.53125 453.14062 402.98438 452.64062Q402.4375 452.14062 402.4375 451.35938Q402.4375 450.90625 402.64062 450.53125Q402.84375 450.14062 403.1875 449.92188Q403.53125 449.6875 403.95312 449.57812Q404.25 449.48438 404.89062 449.40625Q406.15625 449.26562 406.76562 449.04688Q406.76562 448.82812 406.76562 448.78125Q406.76562 448.125 406.46875 447.85938Q406.0625 447.51562 405.26562 447.51562Q404.53125 447.51562 404.17188 447.78125Q403.8125 448.03125 403.64062 448.6875L402.60938 448.54688Q402.75 447.89062 403.07812 447.48438Q403.40625 447.07812 404.01562 446.85938Q404.625 446.64062 405.42188 446.64062Q406.21875 446.64062 406.71875 446.82812Q407.21875 447.01562 407.45312 447.29688Q407.6875 447.57812 407.78125 448.01562Q407.82812 448.28125 407.82812 448.98438L407.82812 450.39062Q407.82812 451.85938 407.89062 452.25Q407.96875 452.64062 408.17188 453.0L407.0625 453.0Q406.90625 452.67188 406.85938 452.23438ZM406.76562 449.875Q406.1875 450.10938 405.04688 450.28125Q404.39062 450.375 404.125 450.5Q403.85938 450.60938 403.70312 450.82812Q403.5625 451.04688 403.5625 451.32812Q403.5625 451.75 403.875 452.03125Q404.20312 452.3125 404.8125 452.3125Q405.42188 452.3125 405.89062 452.04688Q406.375 451.78125 406.59375 451.3125Q406.76562 450.95312 406.76562 450.26562L406.76562 449.875ZM412.09375 452.0625L412.25 452.98438Q411.79688 453.07812 411.45312 453.07812Q410.875 453.07812 410.5625 452.90625Q410.25 452.71875 410.10938 452.42188Q409.98438 452.125 409.98438 451.17188L409.98438 447.59375L409.21875 447.59375L409.21875 446.78125L409.98438 446.78125L409.98438 445.23438L411.03125 444.60938L411.03125 446.78125L412.09375 446.78125L412.09375 447.59375L411.03125 447.59375L411.03125 451.23438Q411.03125 451.6875 411.07812 451.8125Q411.14062 451.9375 411.26562 452.01562Q411.39062 452.09375 411.625 452.09375Q411.8125 452.09375 412.09375 452.0625ZM416.85938 450.71875L417.89062 450.85938Q417.71875 451.92188 417.01562 452.53125Q416.3125 453.14062 415.29688 453.14062Q414.01562 453.14062 413.23438 452.3125Q412.46875 451.46875 412.46875 449.90625Q412.46875 448.90625 412.79688 448.15625Q413.14062 447.39062 413.8125 447.01562Q414.5 446.64062 415.3125 446.64062Q416.3125 446.64062 416.95312 447.15625Q417.60938 447.65625 417.79688 448.60938L416.76562 448.76562Q416.625 448.14062 416.25 447.82812Q415.875 447.5 415.34375 447.5Q414.54688 447.5 414.04688 448.07812Q413.54688 448.64062 413.54688 449.875Q413.54688 451.14062 414.03125 451.70312Q414.51562 452.26562 415.28125 452.26562Q415.90625 452.26562 416.3125 451.89062Q416.73438 451.51562 416.85938 450.71875ZM418.79688 453.0L418.79688 444.40625L419.84375 444.40625L419.84375 447.48438Q420.57812 446.64062 421.70312 446.64062Q422.40625 446.64062 422.90625 446.92188Q423.42188 447.1875 423.64062 447.67188Q423.85938 448.14062 423.85938 449.0625L423.85938 453.0L422.8125 453.0L422.8125 449.0625Q422.8125 448.26562 422.46875 447.90625Q422.125 447.54688 421.5 447.54688Q421.03125 447.54688 420.60938 447.79688Q420.20312 448.03125 420.01562 448.45312Q419.84375 448.85938 419.84375 449.59375L419.84375 453.0L418.79688 453.0ZM425.57812 448.8125Q425.57812 446.67188 426.71875 445.46875Q427.875 444.25 429.6875 444.25Q430.89062 444.25 431.84375 444.82812Q432.79688 445.39062 433.29688 446.40625Q433.79688 447.42188 433.79688 448.71875Q433.79688 450.01562 433.26562 451.04688Q432.73438 452.07812 431.76562 452.60938Q430.8125 453.14062 429.6875 453.14062Q428.46875 453.14062 427.51562 452.5625Q426.5625 451.96875 426.0625 450.96875Q425.57812 449.95312 425.57812 448.8125ZM426.75 448.82812Q426.75 450.39062 427.57812 451.28125Q428.42188 452.17188 429.6875 452.17188Q430.96875 452.17188 431.79688 451.28125Q432.625 450.375 432.625 448.70312Q432.625 447.65625 432.26562 446.875Q431.92188 446.09375 431.23438 445.67188Q430.54688 445.23438 429.70312 445.23438Q428.5 445.23438 427.625 446.0625Q426.75 446.89062 426.75 448.82812ZM434.54688 450.23438L435.60938 450.14062Q435.6875 450.79688 435.96875 451.20312Q436.25 451.60938 436.82812 451.875Q437.42188 452.125 438.15625 452.125Q438.79688 452.125 439.29688 451.9375Q439.79688 451.73438 440.03125 451.40625Q440.28125 451.0625 440.28125 450.67188Q440.28125 450.26562 440.04688 449.96875Q439.8125 449.65625 439.28125 449.45312Q438.92188 449.3125 437.73438 449.03125Q436.5625 448.75 436.09375 448.5Q435.46875 448.17188 435.17188 447.70312Q434.875 447.21875 434.875 446.625Q434.875 445.98438 435.23438 445.42188Q435.60938 444.84375 436.3125 444.5625Q437.03125 444.26562 437.89062 444.26562Q438.84375 444.26562 439.57812 444.57812Q440.3125 444.875 440.70312 445.48438Q441.09375 446.07812 441.125 446.82812L440.03125 446.90625Q439.9375 446.09375 439.42188 445.6875Q438.92188 445.26562 437.9375 445.26562Q436.90625 445.26562 436.4375 445.64062Q435.96875 446.01562 435.96875 446.54688Q435.96875 447.01562 436.29688 447.3125Q436.625 447.60938 438.0 447.92188Q439.39062 448.23438 439.90625 448.46875Q440.65625 448.82812 441.01562 449.35938Q441.375 449.875 441.375 450.57812Q441.375 451.26562 440.98438 451.875Q440.59375 452.46875 439.85938 452.8125Q439.125 453.14062 438.20312 453.14062Q437.03125 453.14062 436.23438 452.8125Q435.45312 452.46875 435.0 451.78125Q434.5625 451.09375 434.54688 450.23438Z" fill-rule="nonzero"/><path fill="#000000" d="M459.21228 453.0L459.21228 444.40625L465.00916 444.40625L465.00916 445.42188L460.3529 445.42188L460.3529 448.07812L464.38416 448.07812L464.38416 449.09375L460.3529 449.09375L460.3529 453.0L459.21228 453.0ZM466.00916 453.0L466.00916 446.78125L466.96228 446.78125L466.96228 447.71875Q467.32166 447.0625 467.61853 446.85938Q467.93103 446.64062 468.30603 446.64062Q468.83728 446.64062 469.38416 446.96875L469.02478 447.95312Q468.63416 447.71875 468.25916 447.71875Q467.89978 447.71875 467.61853 447.9375Q467.3529 448.14062 467.24353 448.51562Q467.05603 449.07812 467.05603 449.73438L467.05603 453.0L466.00916 453.0ZM474.08728 452.23438Q473.49353 452.73438 472.94666 452.9375Q472.4154 453.14062 471.7904 453.14062Q470.75916 453.14062 470.21228 452.64062Q469.6654 452.14062 469.6654 451.35938Q469.6654 450.90625 469.86853 450.53125Q470.07166 450.14062 470.4154 449.92188Q470.75916 449.6875 471.18103 449.57812Q471.4779 449.48438 472.11853 449.40625Q473.38416 449.26562 473.99353 449.04688Q473.99353 448.82812 473.99353 448.78125Q473.99353 448.125 473.69666 447.85938Q473.2904 447.51562 472.49353 447.51562Q471.75916 447.51562 471.39978 447.78125Q471.0404 448.03125 470.86853 448.6875L469.83728 448.54688Q469.9779 447.89062 470.30603 447.48438Q470.63416 447.07812 471.24353 446.85938Q471.8529 446.64062 472.64978 446.64062Q473.44666 446.64062 473.94666 446.82812Q474.44666 447.01562 474.68103 447.29688Q474.9154 447.57812 475.00916 448.01562Q475.05603 448.28125 475.05603 448.98438L475.05603 450.39062Q475.05603 451.85938 475.11853 452.25Q475.19666 452.64062 475.39978 453.0L474.2904 453.0Q474.13416 452.67188 474.08728 452.23438ZM473.99353 449.875Q473.4154 450.10938 472.27478 450.28125Q471.61853 450.375 471.3529 450.5Q471.08728 450.60938 470.93103 450.82812Q470.7904 451.04688 470.7904 451.32812Q470.7904 451.75 471.1029 452.03125Q471.43103 452.3125 472.0404 452.3125Q472.64978 452.3125 473.11853 452.04688Q473.6029 451.78125 473.82166 451.3125Q473.99353 450.95312 473.99353 450.26562L473.99353 449.875ZM477.02478 453.0L477.02478 446.78125L477.96228 446.78125L477.96228 447.65625Q478.25916 447.1875 478.74353 446.92188Q479.2279 446.64062 479.8529 446.64062Q480.5404 446.64062 480.9779 446.92188Q481.43103 447.20312 481.6029 447.71875Q482.3529 446.64062 483.52478 446.64062Q484.46228 446.64062 484.94666 447.15625Q485.44666 447.65625 485.44666 448.73438L485.44666 453.0L484.39978 453.0L484.39978 449.07812Q484.39978 448.45312 484.2904 448.17188Q484.19666 447.89062 483.93103 447.71875Q483.6654 447.54688 483.2904 447.54688Q482.63416 447.54688 482.19666 447.98438Q481.77478 448.42188 481.77478 449.39062L481.77478 453.0L480.71228 453.0L480.71228 448.95312Q480.71228 448.25 480.44666 447.90625Q480.19666 447.54688 479.61853 447.54688Q479.1654 447.54688 478.7904 447.78125Q478.4154 448.01562 478.24353 448.46875Q478.07166 448.92188 478.07166 449.76562L478.07166 453.0L477.02478 453.0ZM492.27478 451.0L493.36853 451.125Q493.11853 452.07812 492.4154 452.60938Q491.71228 453.14062 490.63416 453.14062Q489.27478 453.14062 488.46228 452.29688Q487.6654 451.45312 487.6654 449.9375Q487.6654 448.375 488.4779 447.51562Q489.2904 446.64062 490.57166 446.64062Q491.82166 446.64062 492.6029 447.48438Q493.39978 448.32812 493.39978 449.875Q493.39978 449.96875 493.39978 450.15625L488.75916 450.15625Q488.82166 451.1875 489.33728 451.73438Q489.8529 452.26562 490.63416 452.26562Q491.21228 452.26562 491.61853 451.96875Q492.0404 451.65625 492.27478 451.0ZM488.82166 449.29688L492.2904 449.29688Q492.2279 448.5 491.89978 448.10938Q491.38416 447.5 490.58728 447.5Q489.8529 447.5 489.3529 447.98438Q488.86853 448.46875 488.82166 449.29688ZM496.1654 453.0L494.25916 446.78125L495.3529 446.78125L496.33728 450.375L496.71228 451.70312Q496.74353 451.60938 497.0404 450.42188L498.02478 446.78125L499.1029 446.78125L500.0404 450.39062L500.3529 451.57812L500.71228 450.375L501.77478 446.78125L502.80603 446.78125L500.8529 453.0L499.75916 453.0L498.77478 449.26562L498.52478 448.21875L497.27478 453.0L496.1654 453.0ZM503.63416 449.89062Q503.63416 448.15625 504.58728 447.32812Q505.38416 446.64062 506.5404 446.64062Q507.82166 446.64062 508.63416 447.48438Q509.46228 448.3125 509.46228 449.79688Q509.46228 451.0 509.1029 451.6875Q508.74353 452.375 508.0404 452.76562Q507.3529 453.14062 506.5404 453.14062Q505.24353 453.14062 504.43103 452.3125Q503.63416 451.46875 503.63416 449.89062ZM504.71228 449.89062Q504.71228 451.07812 505.2279 451.67188Q505.75916 452.26562 506.5404 452.26562Q507.33728 452.26562 507.8529 451.67188Q508.36853 451.07812 508.36853 449.85938Q508.36853 448.70312 507.83728 448.10938Q507.32166 447.51562 506.5404 447.51562Q505.75916 447.51562 505.2279 448.10938Q504.71228 448.6875 504.71228 449.89062ZM511.00916 453.0L511.00916 446.78125L511.96228 446.78125L511.96228 447.71875Q512.32166 447.0625 512.6185 446.85938Q512.931 446.64062 513.306 446.64062Q513.8373 446.64062 514.38416 446.96875L514.0248 447.95312Q513.63416 447.71875 513.25916 447.71875Q512.8998 447.71875 512.6185 447.9375Q512.3529 448.14062 512.2435 448.51562Q512.056 449.07812 512.056 449.73438L512.056 453.0L511.00916 453.0ZM515.0248 453.0L515.0248 444.40625L516.0873 444.40625L516.0873 449.3125L518.57166 446.78125L519.94666 446.78125L517.556 449.07812L520.181 453.0L518.88416 453.0L516.82166 449.8125L516.0873 450.53125L516.0873 453.0L515.0248 453.0ZM520.6029 451.14062L521.63416 450.98438Q521.7279 451.60938 522.1185 451.9375Q522.5248 452.26562 523.25916 452.26562Q523.9779 452.26562 524.32166 451.98438Q524.681 451.6875 524.681 451.28125Q524.681 450.92188 524.3685 450.71875Q524.1498 450.57812 523.2904 450.35938Q522.13416 450.0625 521.681 449.85938Q521.2435 449.64062 521.00916 449.26562Q520.7748 448.89062 520.7748 448.42188Q520.7748 448.01562 520.9623 447.65625Q521.1498 447.29688 521.4779 447.0625Q521.7279 446.89062 522.1498 446.76562Q522.57166 446.64062 523.07166 446.64062Q523.7904 446.64062 524.3373 446.85938Q524.8998 447.0625 525.1654 447.42188Q525.431 447.78125 525.5248 448.375L524.4935 448.51562Q524.431 448.04688 524.0873 447.78125Q523.75916 447.5 523.13416 447.5Q522.4154 447.5 522.1029 447.75Q521.7904 447.98438 521.7904 448.3125Q521.7904 448.51562 521.9154 448.67188Q522.056 448.84375 522.32166 448.95312Q522.4779 449.01562 523.25916 449.21875Q524.38416 449.53125 524.82166 449.71875Q525.25916 449.90625 525.50916 450.26562Q525.75916 450.625 525.75916 451.17188Q525.75916 451.70312 525.44666 452.17188Q525.1498 452.625 524.57166 452.89062Q523.9935 453.14062 523.25916 453.14062Q522.0404 453.14062 521.3998 452.64062Q520.7748 452.125 520.6029 451.14062ZM530.63416 449.89062Q530.63416 448.15625 531.5873 447.32812Q532.38416 446.64062 533.5404 446.64062Q534.82166 446.64062 535.63416 447.48438Q536.4623 448.3125 536.4623 449.79688Q536.4623 451.0 536.1029 451.6875Q535.7435 452.375 535.0404 452.76562Q534.3529 453.14062 533.5404 453.14062Q532.2435 453.14062 531.431 452.3125Q530.63416 451.46875 530.63416 449.89062ZM531.7123 449.89062Q531.7123 451.07812 532.2279 451.67188Q532.75916 452.26562 533.5404 452.26562Q534.3373 452.26562 534.8529 451.67188Q535.3685 451.07812 535.3685 449.85938Q535.3685 448.70312 534.8373 448.10938Q534.32166 447.51562 533.5404 447.51562Q532.75916 447.51562 532.2279 448.10938Q531.7123 448.6875 531.7123 449.89062ZM538.00916 453.0L538.00916 446.78125L538.9623 446.78125L538.9623 447.71875Q539.32166 447.0625 539.6185 446.85938Q539.931 446.64062 540.306 446.64062Q540.8373 446.64062 541.38416 446.96875L541.0248 447.95312Q540.63416 447.71875 540.25916 447.71875Q539.8998 447.71875 539.6185 447.9375Q539.3529 448.14062 539.2435 448.51562Q539.056 449.07812 539.056 449.73438L539.056 453.0L538.00916 453.0ZM544.7748 450.23438L545.8373 450.14062Q545.9154 450.79688 546.19666 451.20312Q546.4779 451.60938 547.056 451.875Q547.6498 452.125 548.38416 452.125Q549.0248 452.125 549.5248 451.9375Q550.0248 451.73438 550.25916 451.40625Q550.50916 451.0625 550.50916 450.67188Q550.50916 450.26562 550.2748 449.96875Q550.0404 449.65625 549.50916 449.45312Q549.1498 449.3125 547.9623 449.03125Q546.7904 448.75 546.32166 448.5Q545.69666 448.17188 545.3998 447.70312Q545.1029 447.21875 545.1029 446.625Q545.1029 445.98438 545.4623 445.42188Q545.8373 444.84375 546.5404 444.5625Q547.25916 444.26562 548.1185 444.26562Q549.07166 444.26562 549.806 444.57812Q550.5404 444.875 550.931 445.48438Q551.32166 446.07812 551.3529 446.82812L550.25916 446.90625Q550.1654 446.09375 549.6498 445.6875Q549.1498 445.26562 548.1654 445.26562Q547.13416 445.26562 546.6654 445.64062Q546.19666 446.01562 546.19666 446.54688Q546.19666 447.01562 546.5248 447.3125Q546.8529 447.60938 548.2279 447.92188Q549.6185 448.23438 550.13416 448.46875Q550.88416 448.82812 551.2435 449.35938Q551.6029 449.875 551.6029 450.57812Q551.6029 451.26562 551.2123 451.875Q550.82166 452.46875 550.0873 452.8125Q549.3529 453.14062 548.431 453.14062Q547.25916 453.14062 546.4623 452.8125Q545.681 452.46875 545.2279 451.78125Q544.7904 451.09375 544.7748 450.23438ZM553.1498 453.0L553.1498 444.40625L556.1185 444.40625Q557.1185 444.40625 557.6498 444.53125Q558.38416 444.70312 558.8998 445.14062Q559.5873 445.71875 559.9154 446.625Q560.25916 447.51562 560.25916 448.65625Q560.25916 449.64062 560.0248 450.39062Q559.806 451.14062 559.44666 451.64062Q559.0873 452.14062 558.6498 452.42188Q558.2279 452.70312 557.63416 452.85938Q557.0404 453.0 556.25916 453.0L553.1498 453.0ZM554.2904 451.98438L556.1185 451.98438Q556.9779 451.98438 557.4623 451.82812Q557.94666 451.67188 558.2279 451.375Q558.63416 450.98438 558.8529 450.29688Q559.0873 449.60938 559.0873 448.64062Q559.0873 447.29688 558.63416 446.57812Q558.19666 445.84375 557.57166 445.59375Q557.1029 445.42188 556.1029 445.42188L554.2904 445.42188L554.2904 451.98438ZM562.1029 453.0L562.1029 444.40625L563.2435 444.40625L563.2435 448.67188L567.50916 444.40625L569.056 444.40625L565.44666 447.89062L569.2123 453.0L567.7123 453.0L564.6498 448.65625L563.2435 450.01562L563.2435 453.0L562.1029 453.0ZM569.6029 451.14062L570.63416 450.98438Q570.7279 451.60938 571.1185 451.9375Q571.5248 452.26562 572.25916 452.26562Q572.9779 452.26562 573.32166 451.98438Q573.681 451.6875 573.681 451.28125Q573.681 450.92188 573.3685 450.71875Q573.1498 450.57812 572.2904 450.35938Q571.13416 450.0625 570.681 449.85938Q570.2435 449.64062 570.00916 449.26562Q569.7748 448.89062 569.7748 448.42188Q569.7748 448.01562 569.9623 447.65625Q570.1498 447.29688 570.4779 447.0625Q570.7279 446.89062 571.1498 446.76562Q571.57166 446.64062 572.07166 446.64062Q572.7904 446.64062 573.3373 446.85938Q573.8998 447.0625 574.1654 447.42188Q574.431 447.78125 574.5248 448.375L573.4935 448.51562Q573.431 448.04688 573.0873 447.78125Q572.75916 447.5 572.13416 447.5Q571.4154 447.5 571.1029 447.75Q570.7904 447.98438 570.7904 448.3125Q570.7904 448.51562 570.9154 448.67188Q571.056 448.84375 571.32166 448.95312Q571.4779 449.01562 572.25916 449.21875Q573.38416 449.53125 573.82166 449.71875Q574.25916 449.90625 574.50916 450.26562Q574.75916 450.625 574.75916 451.17188Q574.75916 451.70312 574.44666 452.17188Q574.1498 452.625 573.57166 452.89062Q572.9935 453.14062 572.25916 453.14062Q571.0404 453.14062 570.3998 452.64062Q569.7748 452.125 569.6029 451.14062Z" fill-rule="nonzero"/><path fill="#000000" d="M595.9402 453.0L599.23706 444.40625L600.4558 444.40625L603.97144 453.0L602.6902 453.0L601.67456 450.39062L598.09644 450.39062L597.1433 453.0L595.9402 453.0ZM598.42456 449.46875L601.3308 449.46875L600.4402 447.09375Q600.0183 446.01562 599.8308 445.3125Q599.65894 446.14062 599.36206 446.95312L598.42456 449.46875ZM603.7527 453.0L603.7527 446.78125L604.6902 446.78125L604.6902 447.65625Q605.3777 446.64062 606.67456 446.64062Q607.23706 446.64062 607.7058 446.84375Q608.1902 447.04688 608.42456 447.375Q608.65894 447.70312 608.7527 448.14062Q608.79956 448.4375 608.79956 449.17188L608.79956 453.0L607.7527 453.0L607.7527 449.21875Q607.7527 448.5625 607.6277 448.25Q607.5027 447.9375 607.1902 447.75Q606.8777 447.54688 606.4558 447.54688Q605.78394 447.54688 605.28394 447.98438Q604.79956 448.40625 604.79956 449.59375L604.79956 453.0L603.7527 453.0ZM614.78394 453.0L614.78394 452.21875Q614.1902 453.14062 613.04956 453.14062Q612.29956 453.14062 611.67456 452.73438Q611.04956 452.3125 610.7058 451.57812Q610.36206 450.84375 610.36206 449.89062Q610.36206 448.96875 610.67456 448.20312Q610.98706 447.4375 611.61206 447.04688Q612.23706 446.64062 613.0027 446.64062Q613.5652 446.64062 614.0027 446.875Q614.4402 447.10938 614.72144 447.48438L614.72144 444.40625L615.7683 444.40625L615.7683 453.0L614.78394 453.0ZM611.4558 449.89062Q611.4558 451.09375 611.9558 451.6875Q612.4558 452.26562 613.1433 452.26562Q613.8308 452.26562 614.3152 451.70312Q614.79956 451.14062 614.79956 449.98438Q614.79956 448.70312 614.29956 448.10938Q613.8152 447.51562 613.09644 447.51562Q612.3933 447.51562 611.92456 448.09375Q611.4558 448.65625 611.4558 449.89062ZM617.73706 453.0L617.73706 446.78125L618.6902 446.78125L618.6902 447.71875Q619.04956 447.0625 619.34644 446.85938Q619.65894 446.64062 620.03394 446.64062Q620.5652 446.64062 621.11206 446.96875L620.7527 447.95312Q620.36206 447.71875 619.98706 447.71875Q619.6277 447.71875 619.34644 447.9375Q619.0808 448.14062 618.97144 448.51562Q618.78394 449.07812 618.78394 449.73438L618.78394 453.0L617.73706 453.0ZM621.36206 449.89062Q621.36206 448.15625 622.3152 447.32812Q623.11206 446.64062 624.2683 446.64062Q625.54956 446.64062 626.36206 447.48438Q627.1902 448.3125 627.1902 449.79688Q627.1902 451.0 626.8308 451.6875Q626.47144 452.375 625.7683 452.76562Q625.0808 453.14062 624.2683 453.14062Q622.97144 453.14062 622.15894 452.3125Q621.36206 451.46875 621.36206 449.89062ZM622.4402 449.89062Q622.4402 451.07812 622.9558 451.67188Q623.48706 452.26562 624.2683 452.26562Q625.0652 452.26562 625.5808 451.67188Q626.09644 451.07812 626.09644 449.85938Q626.09644 448.70312 625.5652 448.10938Q625.04956 447.51562 624.2683 447.51562Q623.48706 447.51562 622.9558 448.10938Q622.4402 448.6875 622.4402 449.89062ZM628.7527 445.625L628.7527 444.40625L629.8152 444.40625L629.8152 445.625L628.7527 445.625ZM628.7527 453.0L628.7527 446.78125L629.8152 446.78125L629.8152 453.0L628.7527 453.0ZM635.78394 453.0L635.78394 452.21875Q635.1902 453.14062 634.04956 453.14062Q633.29956 453.14062 632.67456 452.73438Q632.04956 452.3125 631.7058 451.57812Q631.36206 450.84375 631.36206 449.89062Q631.36206 448.96875 631.67456 448.20312Q631.98706 447.4375 632.61206 447.04688Q633.23706 446.64062 634.0027 446.64062Q634.5652 446.64062 635.0027 446.875Q635.4402 447.10938 635.72144 447.48438L635.72144 444.40625L636.7683 444.40625L636.7683 453.0L635.78394 453.0ZM632.4558 449.89062Q632.4558 451.09375 632.9558 451.6875Q633.4558 452.26562 634.1433 452.26562Q634.8308 452.26562 635.3152 451.70312Q635.79956 451.14062 635.79956 449.98438Q635.79956 448.70312 635.29956 448.10938Q634.8152 447.51562 634.09644 447.51562Q633.3933 447.51562 632.92456 448.09375Q632.4558 448.65625 632.4558 449.89062Z" fill-rule="nonzero"/><path fill="#000000" d="M706.6055 453.0L704.3243 444.40625L705.49615 444.40625L706.80865 450.04688Q707.0118 450.92188 707.168 451.79688Q707.49615 450.42188 707.55865 450.20312L709.18365 444.40625L710.55865 444.40625L711.793 448.75Q712.24615 450.375 712.4649 451.79688Q712.62115 450.98438 712.8868 449.92188L714.2305 444.40625L715.37115 444.40625L713.0274 453.0L711.918 453.0L710.12115 446.45312Q709.8868 445.64062 709.8399 445.45312Q709.7149 446.03125 709.5899 446.45312L707.7774 453.0L706.6055 453.0ZM720.2305 451.0L721.3243 451.125Q721.0743 452.07812 720.37115 452.60938Q719.668 453.14062 718.5899 453.14062Q717.2305 453.14062 716.418 452.29688Q715.62115 451.45312 715.62115 449.9375Q715.62115 448.375 716.43365 447.51562Q717.24615 446.64062 718.5274 446.64062Q719.7774 446.64062 720.55865 447.48438Q721.3555 448.32812 721.3555 449.875Q721.3555 449.96875 721.3555 450.15625L716.7149 450.15625Q716.7774 451.1875 717.293 451.73438Q717.80865 452.26562 718.5899 452.26562Q719.168 452.26562 719.5743 451.96875Q719.99615 451.65625 720.2305 451.0ZM716.7774 449.29688L720.24615 449.29688Q720.18365 448.5 719.8555 448.10938Q719.3399 447.5 718.543 447.5Q717.80865 447.5 717.30865 447.98438Q716.8243 448.46875 716.7774 449.29688ZM723.9493 453.0L722.9649 453.0L722.9649 444.40625L724.0274 444.40625L724.0274 447.46875Q724.6993 446.64062 725.7305 446.64062Q726.30865 446.64062 726.80865 446.875Q727.3243 447.09375 727.6524 447.51562Q727.99615 447.9375 728.18365 448.53125Q728.37115 449.125 728.37115 449.79688Q728.37115 451.39062 727.5743 452.26562Q726.7774 453.14062 725.68365 453.14062Q724.5743 453.14062 723.9493 452.21875L723.9493 453.0ZM723.93365 449.84375Q723.93365 450.95312 724.24615 451.45312Q724.74615 452.26562 725.5899 452.26562Q726.2774 452.26562 726.7774 451.67188Q727.293 451.07812 727.293 449.875Q727.293 448.65625 726.80865 448.07812Q726.3243 447.5 725.6368 447.5Q724.9493 447.5 724.43365 448.10938Q723.93365 448.70312 723.93365 449.84375Z" fill-rule="nonzero"/></svg>