<svg version="1.1" viewBox="0.0 0.0 653.0 402.0" fill="none" stroke="none" stroke-linecap="square" stroke-miterlimit="10" width="653" height="402" xmlns:xlink="http://www.w3.org/1999/xlink" xmlns="http://www.w3.org/2000/svg"><path fill="#ffffff" d="M0 0L653.0 0L653.0 402.0L0 402.0L0 0Z" fill-rule="nonzero"/><path fill="#4285f4" d="M326.5 20.1C426.40833 20.1 507.4 101.09169 507.4 201.0C507.4 300.90833 426.40833 381.9 326.5 381.9L326.5 201.0Z" fill-rule="nonzero"/><path fill="#46bdc6" d="M318.26642 20.287472C321.00916 20.162506 323.7544 20.1 326.5 20.1L326.5 201.0Z" fill-rule="nonzero"/><path fill="#ff6d01" d="M239.63962 42.31767C263.82703 29.077831 290.721 21.54249 318.26642 20.287472L326.5 201.0Z" fill-rule="nonzero"/><path fill="#34a853" d="M183.61145 90.06004C198.81808 70.4742 217.88889 54.223694 239.63962 42.31767L326.5 201.0Z" fill-rule="nonzero"/><path fill="#fbbc04" d="M188.80891 318.3285C133.21085 253.08127 131.0407 157.77019 183.61145 90.06004L326.5 201.0Z" fill-rule="nonzero"/><path fill="#ea4335" d="M326.5 381.9C273.5071 381.9 223.17915 358.66376 188.80891 318.3285L326.5 201.0Z" fill-rule="nonzero"/><path fill="#1a1a1a" d="M21.225 31.1L21.225 22.50625L22.35 22.50625L22.35 31.1L21.225 31.1ZM28.0375 31.1L26.13125 24.88125L27.225 24.88125L28.209375 28.475L28.584375 29.803125Q28.615625 29.709375 28.9125 28.521875L29.896875 24.88125L30.975 24.88125L31.9125 28.490625L32.225 29.678125L32.584373 28.475L33.646873 24.88125L34.678123 24.88125L32.725 31.1L31.63125 31.1L30.646875 27.365625L30.396875 26.31875L29.146875 31.1L28.0375 31.1ZM35.50625 27.990625Q35.50625 26.25625 36.459373 25.428125Q37.25625 24.740625 38.4125 24.740625Q39.69375 24.740625 40.50625 25.584375Q41.334373 26.4125 41.334373 27.896875Q41.334373 29.1 40.975 29.7875Q40.615623 30.475 39.9125 30.865625Q39.225 31.240625 38.4125 31.240625Q37.115623 31.240625 36.303123 30.4125Q35.50625 29.56875 35.50625 27.990625ZM36.584373 27.990625Q36.584373 29.178125 37.1 29.771875Q37.63125 30.365625 38.4125 30.365625Q39.209373 30.365625 39.725 29.771875Q40.240623 29.178125 40.240623 27.959375Q40.240623 26.803125 39.709373 26.209375Q39.19375 25.615625 38.4125 25.615625Q37.63125 25.615625 37.1 26.209375Q36.584373 26.7875 36.584373 27.990625ZM46.975 31.1L46.975 30.178125Q46.240623 31.240625 44.990623 31.240625Q44.44375 31.240625 43.959373 31.0375Q43.490623 30.81875 43.25625 30.50625Q43.021873 30.178125 42.928123 29.709375Q42.865623 29.4125 42.865623 28.725L42.865623 24.88125L43.928123 24.88125L43.928123 28.334375Q43.928123 29.146875 43.990623 29.44375Q44.084373 29.85 44.396873 30.1Q44.725 30.334375 45.209373 30.334375Q45.678123 30.334375 46.084373 30.1Q46.50625 29.85 46.678123 29.428125Q46.865623 29.00625 46.865623 28.209375L46.865623 24.88125L47.9125 24.88125L47.9125 31.1L46.975 31.1ZM49.865623 31.1L49.865623 22.50625L50.928123 22.50625L50.928123 31.1L49.865623 31.1ZM56.928123 31.1L56.928123 30.31875Q56.334373 31.240625 55.19375 31.240625Q54.44375 31.240625 53.81875 30.834375Q53.19375 30.4125 52.85 29.678125Q52.50625 28.94375 52.50625 27.990625Q52.50625 27.06875 52.81875 26.303125Q53.13125 25.5375 53.75625 25.146875Q54.38125 24.740625 55.146873 24.740625Q55.709373 24.740625 56.146873 24.975Q56.584373 25.209375 56.865623 25.584375L56.865623 22.50625L57.9125 22.50625L57.9125 31.1L56.928123 31.1ZM53.6 27.990625Q53.6 29.19375 54.1 29.7875Q54.6 30.365625 55.2875 30.365625Q55.975 30.365625 56.459373 29.803125Q56.94375 29.240625 56.94375 28.084375Q56.94375 26.803125 56.44375 26.209375Q55.959373 25.615625 55.240623 25.615625Q54.5375 25.615625 54.06875 26.19375Q53.6 26.75625 53.6 27.990625ZM62.88125 31.1L62.88125 24.88125L63.834373 24.88125L63.834373 25.81875Q64.19375 25.1625 64.49062 24.959375Q64.80312 24.740625 65.17812 24.740625Q65.70937 24.740625 66.25625 25.06875L65.89687 26.053125Q65.50625 25.81875 65.13125 25.81875Q64.77187 25.81875 64.49062 26.0375Q64.225 26.240625 64.11562 26.615625Q63.928123 27.178125 63.928123 27.834375L63.928123 31.1L62.88125 31.1ZM70.95937 30.334375Q70.36562 30.834375 69.81875 31.0375Q69.2875 31.240625 68.6625 31.240625Q67.63125 31.240625 67.08437 30.740625Q66.5375 30.240625 66.5375 29.459375Q66.5375 29.00625 66.74062 28.63125Q66.94375 28.240625 67.2875 28.021875Q67.63125 27.7875 68.05312 27.678125Q68.35 27.584375 68.99062 27.50625Q70.25625 27.365625 70.86562 27.146875Q70.86562 26.928125 70.86562 26.88125Q70.86562 26.225 70.56875 25.959375Q70.1625 25.615625 69.36562 25.615625Q68.63125 25.615625 68.27187 25.88125Q67.9125 26.13125 67.74062 26.7875L66.70937 26.646875Q66.85 25.990625 67.17812 25.584375Q67.50625 25.178125 68.11562 24.959375Q68.725 24.740625 69.52187 24.740625Q70.31875 24.740625 70.81875 24.928125Q71.31875 25.115625 71.55312 25.396875Q71.7875 25.678125 71.88125 26.115625Q71.92812 26.38125 71.92812 27.084375L71.92812 28.490625Q71.92812 29.959375 71.99062 30.35Q72.06875 30.740625 72.27187 31.1L71.1625 31.1Q71.00625 30.771875 70.95937 30.334375ZM70.86562 27.975Q70.2875 28.209375 69.14687 28.38125Q68.49062 28.475 68.225 28.6Q67.95937 28.709375 67.80312 28.928125Q67.6625 29.146875 67.6625 29.428125Q67.6625 29.85 67.975 30.13125Q68.30312 30.4125 68.9125 30.4125Q69.52187 30.4125 69.99062 30.146875Q70.475 29.88125 70.69375 29.4125Q70.86562 29.053125 70.86562 28.365625L70.86562 27.975ZM76.19375 30.1625L76.35 31.084375Q75.89687 31.178125 75.55312 31.178125Q74.975 31.178125 74.6625 31.00625Q74.35 30.81875 74.20937 30.521875Q74.08437 30.225 74.08437 29.271875L74.08437 25.69375L73.31875 25.69375L73.31875 24.88125L74.08437 24.88125L74.08437 23.334375L75.13125 22.709375L75.13125 24.88125L76.19375 24.88125L76.19375 25.69375L75.13125 25.69375L75.13125 29.334375Q75.13125 29.7875 75.17812 29.9125Q75.24062 30.0375 75.36562 30.115625Q75.49062 30.19375 75.725 30.19375Q75.9125 30.19375 76.19375 30.1625ZM76.89687 31.1L76.89687 22.50625L77.94375 22.50625L77.94375 25.584375Q78.67812 24.740625 79.80312 24.740625Q80.50625 24.740625 81.00625 25.021875Q81.52187 25.2875 81.74062 25.771875Q81.95937 26.240625 81.95937 27.1625L81.95937 31.1L80.9125 31.1L80.9125 27.1625Q80.9125 26.365625 80.56875 26.00625Q80.225 25.646875 79.6 25.646875Q79.13125 25.646875 78.70937 25.896875Q78.30312 26.13125 78.11562 26.553125Q77.94375 26.959375 77.94375 27.69375L77.94375 31.1L76.89687 31.1ZM88.14687 29.1L89.24062 29.225Q88.99062 30.178125 88.2875 30.709375Q87.58437 31.240625 86.50625 31.240625Q85.14687 31.240625 84.33437 30.396875Q83.5375 29.553125 83.5375 28.0375Q83.5375 26.475 84.35 25.615625Q85.1625 24.740625 86.44375 24.740625Q87.69375 24.740625 88.475 25.584375Q89.27187 26.428125 89.27187 27.975Q89.27187 28.06875 89.27187 28.25625L84.63125 28.25625Q84.69375 29.2875 85.20937 29.834375Q85.725 30.365625 86.50625 30.365625Q87.08437 30.365625 87.49062 30.06875Q87.9125 29.75625 88.14687 29.1ZM84.69375 27.396875L88.1625 27.396875Q88.1 26.6 87.77187 26.209375Q87.25625 25.6 86.45937 25.6Q85.725 25.6 85.225 26.084375Q84.74062 26.56875 84.69375 27.396875ZM90.88125 31.1L90.88125 24.88125L91.83437 24.88125L91.83437 25.81875Q92.19375 25.1625 92.49062 24.959375Q92.80312 24.740625 93.17812 24.740625Q93.70937 24.740625 94.25625 25.06875L93.89687 26.053125Q93.50625 25.81875 93.13125 25.81875Q92.77187 25.81875 92.49062 26.0375Q92.225 26.240625 92.11562 26.615625Q91.92812 27.178125 91.92812 27.834375L91.92812 31.1L90.88125 31.1ZM97.89687 31.1L97.89687 24.88125L98.83437 24.88125L98.83437 25.75625Q99.52187 24.740625 100.81875 24.740625Q101.38125 24.740625 101.85 24.94375Q102.33437 25.146875 102.56875 25.475Q102.80312 25.803125 102.89687 26.240625Q102.94375 26.5375 102.94375 27.271875L102.94375 31.1L101.89687 31.1L101.89687 27.31875Q101.89687 26.6625 101.77187 26.35Q101.64687 26.0375 101.33437 25.85Q101.02187 25.646875 100.6 25.646875Q99.92812 25.646875 99.42812 26.084375Q98.94375 26.50625 98.94375 27.69375L98.94375 31.1L97.89687 31.1ZM104.50625 27.990625Q104.50625 26.25625 105.45937 25.428125Q106.25625 24.740625 107.4125 24.740625Q108.69375 24.740625 109.50625 25.584375Q110.33437 26.4125 110.33437 27.896875Q110.33437 29.1 109.975 29.7875Q109.61562 30.475 108.9125 30.865625Q108.225 31.240625 107.4125 31.240625Q106.11562 31.240625 105.30312 30.4125Q104.50625 29.56875 104.50625 27.990625ZM105.58437 27.990625Q105.58437 29.178125 106.1 29.771875Q106.63125 30.365625 107.4125 30.365625Q108.20937 30.365625 108.725 29.771875Q109.24062 29.178125 109.24062 27.959375Q109.24062 26.803125 108.70937 26.209375Q108.19375 25.615625 107.4125 25.615625Q106.63125 25.615625 106.1 26.209375Q105.58437 26.7875 105.58437 27.990625ZM114.19375 30.1625L114.35 31.084375Q113.89687 31.178125 113.55312 31.178125Q112.975 31.178125 112.6625 31.00625Q112.35 30.81875 112.20937 30.521875Q112.08437 30.225 112.08437 29.271875L112.08437 25.69375L111.31875 25.69375L111.31875 24.88125L112.08437 24.88125L112.08437 23.334375L113.13125 22.709375L113.13125 24.88125L114.19375 24.88125L114.19375 25.69375L113.13125 25.69375L113.13125 29.334375Q113.13125 29.7875 113.17812 29.9125Q113.24062 30.0375 113.36562 30.115625Q113.49062 30.19375 113.725 30.19375Q113.9125 30.19375 114.19375 30.1625ZM117.475 29.240625L118.50625 29.084375Q118.6 29.709375 118.99062 30.0375Q119.39687 30.365625 120.13125 30.365625Q120.85 30.365625 121.19375 30.084375Q121.55312 29.7875 121.55312 29.38125Q121.55312 29.021875 121.24062 28.81875Q121.02187 28.678125 120.1625 28.459375Q119.00625 28.1625 118.55312 27.959375Q118.11562 27.740625 117.88125 27.365625Q117.64687 26.990625 117.64687 26.521875Q117.64687 26.115625 117.83437 25.75625Q118.02187 25.396875 118.35 25.1625Q118.6 24.990625 119.02187 24.865625Q119.44375 24.740625 119.94375 24.740625Q120.6625 24.740625 121.20937 24.959375Q121.77187 25.1625 122.0375 25.521875Q122.30312 25.88125 122.39687 26.475L121.36562 26.615625Q121.30312 26.146875 120.95937 25.88125Q120.63125 25.6 120.00625 25.6Q119.2875 25.6 118.975 25.85Q118.6625 26.084375 118.6625 26.4125Q118.6625 26.615625 118.7875 26.771875Q118.92812 26.94375 119.19375 27.053125Q119.35 27.115625 120.13125 27.31875Q121.25625 27.63125 121.69375 27.81875Q122.13125 28.00625 122.38125 28.365625Q122.63125 28.725 122.63125 29.271875Q122.63125 29.803125 122.31875 30.271875Q122.02187 30.725 121.44375 30.990625Q120.86562 31.240625 120.13125 31.240625Q118.9125 31.240625 118.27187 30.740625Q117.64687 30.225 117.475 29.240625ZM128.95938 30.334375Q128.36563 30.834375 127.81875 31.0375Q127.2875 31.240625 126.6625 31.240625Q125.63125 31.240625 125.08437 30.740625Q124.5375 30.240625 124.5375 29.459375Q124.5375 29.00625 124.74062 28.63125Q124.94375 28.240625 125.2875 28.021875Q125.63125 27.7875 126.05312 27.678125Q126.35 27.584375 126.99062 27.50625Q128.25626 27.365625 128.86563 27.146875Q128.86563 26.928125 128.86563 26.88125Q128.86563 26.225 128.56876 25.959375Q128.1625 25.615625 127.36562 25.615625Q126.63125 25.615625 126.27187 25.88125Q125.9125 26.13125 125.74062 26.7875L124.70937 26.646875Q124.85 25.990625 125.17812 25.584375Q125.50625 25.178125 126.11562 24.959375Q126.725 24.740625 127.52187 24.740625Q128.31876 24.740625 128.81876 24.928125Q129.31876 25.115625 129.55313 25.396875Q129.7875 25.678125 129.88126 26.115625Q129.92813 26.38125 129.92813 27.084375L129.92813 28.490625Q129.92813 29.959375 129.99063 30.35Q130.06876 30.740625 130.27188 31.1L129.1625 31.1Q129.00626 30.771875 128.95938 30.334375ZM128.86563 27.975Q128.2875 28.209375 127.14687 28.38125Q126.49062 28.475 126.225 28.6Q125.95937 28.709375 125.80312 28.928125Q125.6625 29.146875 125.6625 29.428125Q125.6625 29.85 125.975 30.13125Q126.30312 30.4125 126.9125 30.4125Q127.52187 30.4125 127.99062 30.146875Q128.475 29.88125 128.69376 29.4125Q128.86563 29.053125 128.86563 28.365625L128.86563 27.975ZM131.85 33.490623L131.725 32.50625Q132.06876 32.6 132.33438 32.6Q132.67813 32.6 132.88126 32.475Q133.1 32.365623 133.24063 32.1625Q133.33438 31.990625 133.56876 31.365625Q133.58438 31.2875 133.6625 31.115625L131.2875 24.88125L132.42813 24.88125L133.725 28.475Q133.975 29.1625 134.17813 29.928125Q134.36563 29.19375 134.61563 28.50625L135.94376 24.88125L136.99063 24.88125L134.63126 31.209375Q134.24063 32.225 134.0375 32.615623Q133.75626 33.146873 133.38126 33.38125Q133.02188 33.63125 132.52188 33.63125Q132.225 33.63125 131.85 33.490623Z" fill-rule="nonzero"/><path fill="#9e9e9e" d="M20.6 43.865623Q20.6 42.334373 20.9125 41.4125Q21.225 40.475 21.834375 39.975Q22.459375 39.475 23.396875 39.475Q24.084375 39.475 24.6 39.75625Q25.13125 40.0375 25.475 40.56875Q25.81875 41.084373 26.00625 41.834373Q26.19375 42.584373 26.19375 43.865623Q26.19375 45.38125 25.88125 46.303123Q25.584375 47.225 24.959375 47.740623Q24.35 48.240623 23.396875 48.240623Q22.1625 48.240623 21.44375 47.35Q20.6 46.2875 20.6 43.865623ZM21.678125 43.865623Q21.678125 45.975 22.178125 46.678123Q22.678125 47.38125 23.396875 47.38125Q24.13125 47.38125 24.615625 46.678123Q25.115625 45.975 25.115625 43.865623Q25.115625 41.740623 24.615625 41.053123Q24.13125 40.35 23.38125 40.35Q22.6625 40.35 22.225 40.959373Q21.678125 41.740623 21.678125 43.865623ZM28.19375 48.1L28.19375 46.896873L29.396875 46.896873L29.396875 48.1L28.19375 48.1ZM30.6625 40.63125L30.6625 39.615623L36.225 39.615623L36.225 40.44375Q35.4125 41.31875 34.6 42.771873Q33.803123 44.209373 33.365623 45.740623Q33.0375 46.81875 32.959373 48.1L31.865625 48.1Q31.88125 47.084373 32.25625 45.646873Q32.646873 44.209373 33.35 42.88125Q34.06875 41.553123 34.88125 40.63125L30.6625 40.63125ZM37.803123 41.56875Q37.803123 40.646873 38.25625 40.00625Q38.725 39.365623 39.6 39.365623Q40.4125 39.365623 40.94375 39.94375Q41.475 40.521873 41.475 41.63125Q41.475 42.725 40.928123 43.31875Q40.396873 43.896873 39.615623 43.896873Q38.834373 43.896873 38.31875 43.31875Q37.803123 42.740623 37.803123 41.56875ZM39.63125 40.084373Q39.240623 40.084373 38.975 40.428123Q38.725 40.771873 38.725 41.678123Q38.725 42.50625 38.975 42.85Q39.240623 43.178123 39.63125 43.178123Q40.0375 43.178123 40.2875 42.834373Q40.553123 42.490623 40.553123 41.6Q40.553123 40.75625 40.2875 40.428123Q40.021873 40.084373 39.63125 40.084373ZM39.63125 48.4125L44.334373 39.365623L45.19375 39.365623L40.50625 48.4125L39.63125 48.4125ZM43.35 46.084373Q43.35 45.1625 43.803123 44.521873Q44.271873 43.88125 45.1625 43.88125Q45.975 43.88125 46.50625 44.459373Q47.0375 45.021873 47.0375 46.146873Q47.0375 47.240623 46.490623 47.834373Q45.959373 48.4125 45.1625 48.4125Q44.396873 48.4125 43.865623 47.834373Q43.35 47.25625 43.35 46.084373ZM45.19375 44.6Q44.7875 44.6 44.521873 44.94375Q44.271873 45.2875 44.271873 46.19375Q44.271873 47.00625 44.5375 47.35Q44.803123 47.69375 45.19375 47.69375Q45.584373 47.69375 45.85 47.35Q46.115623 47.00625 46.115623 46.1Q46.115623 45.271873 45.85 44.94375Q45.584373 44.6 45.19375 44.6Z" fill-rule="nonzero"/><path stroke="#757575" stroke-width="1.0" stroke-linecap="butt" d="M20.1 35.6L139.6 35.6L322.58804 29.18953" fill-rule="nonzero"/><path fill="#9e9e9e" d="M324.58804 29.18953C324.58804 28.08496 323.6926 27.18953 322.58804 27.18953C321.48346 27.18953 320.58804 28.08496 320.58804 29.18953C320.58804 30.2941 321.48346 31.18953 322.58804 31.18953C323.6926 31.18953 324.58804 30.2941 324.58804 29.18953" fill-rule="nonzero"/><path fill="#1a1a1a" d="M20.678125 57.9125Q20.678125 55.771873 21.81875 54.56875Q22.975 53.35 24.7875 53.35Q25.990625 53.35 26.94375 53.928123Q27.896875 54.490623 28.396875 55.50625Q28.896875 56.521873 28.896875 57.81875Q28.896875 59.115623 28.365625 60.146873Q27.834375 61.178123 26.865625 61.709373Q25.9125 62.240623 24.7875 62.240623Q23.56875 62.240623 22.615625 61.6625Q21.6625 61.06875 21.1625 60.06875Q20.678125 59.053123 20.678125 57.9125ZM21.85 57.928123Q21.85 59.490623 22.678125 60.38125Q23.521875 61.271873 24.7875 61.271873Q26.06875 61.271873 26.896875 60.38125Q27.725 59.475 27.725 57.803123Q27.725 56.75625 27.365625 55.975Q27.021875 55.19375 26.334375 54.771873Q25.646875 54.334373 24.803125 54.334373Q23.6 54.334373 22.725 55.1625Q21.85 55.990623 21.85 57.928123ZM32.19375 61.1625L32.35 62.084373Q31.896875 62.178123 31.553125 62.178123Q30.975 62.178123 30.6625 62.00625Q30.35 61.81875 30.209375 61.521873Q30.084375 61.225 30.084375 60.271873L30.084375 56.69375L29.31875 56.69375L29.31875 55.88125L30.084375 55.88125L30.084375 54.334373L31.13125 53.709373L31.13125 55.88125L32.19375 55.88125L32.19375 56.69375L31.13125 56.69375L31.13125 60.334373Q31.13125 60.7875 31.178125 60.9125Q31.240625 61.0375 31.365625 61.115623Q31.490625 61.19375 31.725 61.19375Q31.9125 61.19375 32.19375 61.1625ZM32.896873 62.1L32.896873 53.50625L33.94375 53.50625L33.94375 56.584373Q34.678123 55.740623 35.803123 55.740623Q36.50625 55.740623 37.00625 56.021873Q37.521873 56.2875 37.740623 56.771873Q37.959373 57.240623 37.959373 58.1625L37.959373 62.1L36.9125 62.1L36.9125 58.1625Q36.9125 57.365623 36.56875 57.00625Q36.225 56.646873 35.6 56.646873Q35.13125 56.646873 34.709373 56.896873Q34.303123 57.13125 34.115623 57.553123Q33.94375 57.959373 33.94375 58.69375L33.94375 62.1L32.896873 62.1ZM44.146873 60.1L45.240623 60.225Q44.990623 61.178123 44.2875 61.709373Q43.584373 62.240623 42.50625 62.240623Q41.146873 62.240623 40.334373 61.396873Q39.5375 60.553123 39.5375 59.0375Q39.5375 57.475 40.35 56.615623Q41.1625 55.740623 42.44375 55.740623Q43.69375 55.740623 44.475 56.584373Q45.271873 57.428123 45.271873 58.975Q45.271873 59.06875 45.271873 59.25625L40.63125 59.25625Q40.69375 60.2875 41.209373 60.834373Q41.725 61.365623 42.50625 61.365623Q43.084373 61.365623 43.490623 61.06875Q43.9125 60.75625 44.146873 60.1ZM40.69375 58.396873L44.1625 58.396873Q44.1 57.6 43.771873 57.209373Q43.25625 56.6 42.459373 56.6Q41.725 56.6 41.225 57.084373Q40.740623 57.56875 40.69375 58.396873ZM46.88125 62.1L46.88125 55.88125L47.834373 55.88125L47.834373 56.81875Q48.19375 56.1625 48.490623 55.959373Q48.803123 55.740623 49.178123 55.740623Q49.709373 55.740623 50.25625 56.06875L49.896873 57.053123Q49.50625 56.81875 49.13125 56.81875Q48.771873 56.81875 48.490623 57.0375Q48.225 57.240623 48.115623 57.615623Q47.928123 58.178123 47.928123 58.834373L47.928123 62.1L46.88125 62.1ZM59.6625 53.50625L60.803123 53.50625L60.803123 58.475Q60.803123 59.771873 60.50625 60.5375Q60.209373 61.2875 59.44375 61.771873Q58.678123 62.240623 57.44375 62.240623Q56.240623 62.240623 55.459373 61.834373Q54.69375 61.4125 54.365623 60.63125Q54.0375 59.834373 54.0375 58.475L54.0375 53.50625L55.178123 53.50625L55.178123 58.459373Q55.178123 59.584373 55.38125 60.115623Q55.6 60.646873 56.1 60.94375Q56.615623 61.225 57.35 61.225Q58.6 61.225 59.13125 60.6625Q59.6625 60.084373 59.6625 58.459373L59.6625 53.50625ZM65.19375 61.1625L65.35 62.084373Q64.89687 62.178123 64.55312 62.178123Q63.975 62.178123 63.6625 62.00625Q63.35 61.81875 63.209373 61.521873Q63.084373 61.225 63.084373 60.271873L63.084373 56.69375L62.31875 56.69375L62.31875 55.88125L63.084373 55.88125L63.084373 54.334373L64.13125 53.709373L64.13125 55.88125L65.19375 55.88125L65.19375 56.69375L64.13125 56.69375L64.13125 60.334373Q64.13125 60.7875 64.17812 60.9125Q64.24062 61.0375 64.36562 61.115623Q64.49062 61.19375 64.725 61.19375Q64.9125 61.19375 65.19375 61.1625ZM69.95937 61.334373Q69.36562 61.834373 68.81875 62.0375Q68.2875 62.240623 67.6625 62.240623Q66.63125 62.240623 66.08437 61.740623Q65.5375 61.240623 65.5375 60.459373Q65.5375 60.00625 65.74062 59.63125Q65.94375 59.240623 66.2875 59.021873Q66.63125 58.7875 67.05312 58.678123Q67.35 58.584373 67.99062 58.50625Q69.25625 58.365623 69.86562 58.146873Q69.86562 57.928123 69.86562 57.88125Q69.86562 57.225 69.56875 56.959373Q69.1625 56.615623 68.36562 56.615623Q67.63125 56.615623 67.27187 56.88125Q66.9125 57.13125 66.74062 57.7875L65.70937 57.646873Q65.85 56.990623 66.17812 56.584373Q66.50625 56.178123 67.11562 55.959373Q67.725 55.740623 68.52187 55.740623Q69.31875 55.740623 69.81875 55.928123Q70.31875 56.115623 70.55312 56.396873Q70.7875 56.678123 70.88125 57.115623Q70.92812 57.38125 70.92812 58.084373L70.92812 59.490623Q70.92812 60.959373 70.99062 61.35Q71.06875 61.740623 71.27187 62.1L70.1625 62.1Q70.00625 61.771873 69.95937 61.334373ZM69.86562 58.975Q69.2875 59.209373 68.14687 59.38125Q67.49062 59.475 67.225 59.6Q66.95937 59.709373 66.80312 59.928123Q66.6625 60.146873 66.6625 60.428123Q66.6625 60.85 66.975 61.13125Q67.30312 61.4125 67.9125 61.4125Q68.52187 61.4125 68.99062 61.146873Q69.475 60.88125 69.69375 60.4125Q69.86562 60.053123 69.86562 59.365623L69.86562 58.975ZM72.89687 62.1L72.89687 53.50625L73.94375 53.50625L73.94375 56.584373Q74.67812 55.740623 75.80312 55.740623Q76.50625 55.740623 77.00625 56.021873Q77.52187 56.2875 77.74062 56.771873Q77.95937 57.240623 77.95937 58.1625L77.95937 62.1L76.9125 62.1L76.9125 58.1625Q76.9125 57.365623 76.56875 57.00625Q76.225 56.646873 75.6 56.646873Q75.13125 56.646873 74.70937 56.896873Q74.30312 57.13125 74.11562 57.553123Q73.94375 57.959373 73.94375 58.69375L73.94375 62.1L72.89687 62.1ZM89.1625 59.084373L90.2875 59.38125Q89.92812 60.771873 89.00625 61.50625Q88.08437 62.240623 86.74062 62.240623Q85.35 62.240623 84.475 61.678123Q83.6 61.115623 83.14687 60.053123Q82.69375 58.975 82.69375 57.740623Q82.69375 56.396873 83.20937 55.396873Q83.725 54.396873 84.6625 53.88125Q85.61562 53.365623 86.75625 53.365623Q88.0375 53.365623 88.9125 54.021873Q89.80312 54.678123 90.14687 55.865623L89.02187 56.13125Q88.725 55.19375 88.14687 54.771873Q87.58437 54.334373 86.725 54.334373Q85.74062 54.334373 85.06875 54.81875Q84.4125 55.2875 84.13125 56.084373Q83.86562 56.88125 83.86562 57.740623Q83.86562 58.834373 84.17812 59.646873Q84.50625 60.459373 85.17812 60.865623Q85.85 61.271873 86.64687 61.271873Q87.6 61.271873 88.25625 60.725Q88.92812 60.178123 89.1625 59.084373ZM91.50625 58.990623Q91.50625 57.25625 92.45937 56.428123Q93.25625 55.740623 94.4125 55.740623Q95.69375 55.740623 96.50625 56.584373Q97.33437 57.4125 97.33437 58.896873Q97.33437 60.1 96.975 60.7875Q96.61562 61.475 95.9125 61.865623Q95.225 62.240623 94.4125 62.240623Q93.11562 62.240623 92.30312 61.4125Q91.50625 60.56875 91.50625 58.990623ZM92.58437 58.990623Q92.58437 60.178123 93.1 60.771873Q93.63125 61.365623 94.4125 61.365623Q95.20937 61.365623 95.725 60.771873Q96.24062 60.178123 96.24062 58.959373Q96.24062 57.803123 95.70937 57.209373Q95.19375 56.615623 94.4125 56.615623Q93.63125 56.615623 93.1 57.209373Q92.58437 57.7875 92.58437 58.990623ZM102.975 62.1L102.975 61.178123Q102.24062 62.240623 100.99062 62.240623Q100.44375 62.240623 99.95937 62.0375Q99.49062 61.81875 99.25625 61.50625Q99.02187 61.178123 98.92812 60.709373Q98.86562 60.4125 98.86562 59.725L98.86562 55.88125L99.92812 55.88125L99.92812 59.334373Q99.92812 60.146873 99.99062 60.44375Q100.08437 60.85 100.39687 61.1Q100.725 61.334373 101.20937 61.334373Q101.67812 61.334373 102.08437 61.1Q102.50625 60.85 102.67812 60.428123Q102.86562 60.00625 102.86562 59.209373L102.86562 55.88125L103.9125 55.88125L103.9125 62.1L102.975 62.1ZM105.89687 62.1L105.89687 55.88125L106.83437 55.88125L106.83437 56.75625Q107.52187 55.740623 108.81875 55.740623Q109.38125 55.740623 109.85 55.94375Q110.33437 56.146873 110.56875 56.475Q110.80312 56.803123 110.89687 57.240623Q110.94375 57.5375 110.94375 58.271873L110.94375 62.1L109.89687 62.1L109.89687 58.31875Q109.89687 57.6625 109.77187 57.35Q109.64687 57.0375 109.33437 56.85Q109.02187 56.646873 108.6 56.646873Q107.92812 56.646873 107.42812 57.084373Q106.94375 57.50625 106.94375 58.69375L106.94375 62.1L105.89687 62.1ZM115.19375 61.1625L115.35 62.084373Q114.89687 62.178123 114.55312 62.178123Q113.975 62.178123 113.6625 62.00625Q113.35 61.81875 113.20937 61.521873Q113.08437 61.225 113.08437 60.271873L113.08437 56.69375L112.31875 56.69375L112.31875 55.88125L113.08437 55.88125L113.08437 54.334373L114.13125 53.709373L114.13125 55.88125L115.19375 55.88125L115.19375 56.69375L114.13125 56.69375L114.13125 60.334373Q114.13125 60.7875 114.17812 60.9125Q114.24062 61.0375 114.36562 61.115623Q114.49062 61.19375 114.725 61.19375Q114.9125 61.19375 115.19375 61.1625ZM115.85 64.49062L115.725 63.50625Q116.06875 63.6 116.33437 63.6Q116.67812 63.6 116.88125 63.475Q117.1 63.365623 117.24062 63.1625Q117.33437 62.990623 117.56875 62.365623Q117.58437 62.2875 117.6625 62.115623L115.2875 55.88125L116.42812 55.88125L117.725 59.475Q117.975 60.1625 118.17812 60.928123Q118.36562 60.19375 118.61562 59.50625L119.94375 55.88125L120.99062 55.88125L118.63125 62.209373Q118.24062 63.225 118.0375 63.615623Q117.75625 64.14687 117.38125 64.38125Q117.02187 64.63125 116.52187 64.63125Q116.225 64.63125 115.85 64.49062Z" fill-rule="nonzero"/><path fill="#9e9e9e" d="M20.6625 71.63125L20.6625 70.61562L26.225 70.61562L26.225 71.44375Q25.4125 72.31875 24.6 73.77187Q23.803125 75.20937 23.365625 76.74062Q23.0375 77.81875 22.959375 79.1L21.865625 79.1Q21.88125 78.08437 22.25625 76.64687Q22.646875 75.20937 23.35 73.88125Q24.06875 72.55312 24.88125 71.63125L20.6625 71.63125ZM28.19375 79.1L28.19375 77.89687L29.396875 77.89687L29.396875 79.1L28.19375 79.1ZM36.146873 78.08437L36.146873 79.1L30.459375 79.1Q30.459375 78.725 30.584375 78.36562Q30.803125 77.7875 31.271875 77.225Q31.75625 76.6625 32.6625 75.92812Q34.06875 74.77187 34.553123 74.1Q35.053123 73.42812 35.053123 72.83437Q35.053123 72.20937 34.6 71.7875Q34.146873 71.35 33.428123 71.35Q32.6625 71.35 32.209373 71.80312Q31.75625 72.25625 31.740625 73.06875L30.6625 72.95937Q30.771875 71.74062 31.490625 71.11562Q32.225 70.475 33.459373 70.475Q34.69375 70.475 35.4125 71.1625Q36.13125 71.85 36.13125 72.86562Q36.13125 73.38125 35.9125 73.88125Q35.709373 74.36562 35.209373 74.92812Q34.725 75.475 33.6 76.42812Q32.646873 77.225 32.365623 77.52187Q32.1 77.80312 31.928125 78.08437L36.146873 78.08437ZM37.803123 72.56875Q37.803123 71.64687 38.25625 71.00625Q38.725 70.36562 39.6 70.36562Q40.4125 70.36562 40.94375 70.94375Q41.475 71.52187 41.475 72.63125Q41.475 73.725 40.928123 74.31875Q40.396873 74.89687 39.615623 74.89687Q38.834373 74.89687 38.31875 74.31875Q37.803123 73.74062 37.803123 72.56875ZM39.63125 71.08437Q39.240623 71.08437 38.975 71.42812Q38.725 71.77187 38.725 72.67812Q38.725 73.50625 38.975 73.85Q39.240623 74.17812 39.63125 74.17812Q40.0375 74.17812 40.2875 73.83437Q40.553123 73.49062 40.553123 72.6Q40.553123 71.75625 40.2875 71.42812Q40.021873 71.08437 39.63125 71.08437ZM39.63125 79.4125L44.334373 70.36562L45.19375 70.36562L40.50625 79.4125L39.63125 79.4125ZM43.35 77.08437Q43.35 76.1625 43.803123 75.52187Q44.271873 74.88125 45.1625 74.88125Q45.975 74.88125 46.50625 75.45937Q47.0375 76.02187 47.0375 77.14687Q47.0375 78.24062 46.490623 78.83437Q45.959373 79.4125 45.1625 79.4125Q44.396873 79.4125 43.865623 78.83437Q43.35 78.25625 43.35 77.08437ZM45.19375 75.6Q44.7875 75.6 44.521873 75.94375Q44.271873 76.2875 44.271873 77.19375Q44.271873 78.00625 44.5375 78.35Q44.803123 78.69375 45.19375 78.69375Q45.584373 78.69375 45.85 78.35Q46.115623 78.00625 46.115623 77.1Q46.115623 76.27187 45.85 75.94375Q45.584373 75.6 45.19375 75.6Z" fill-rule="nonzero"/><path stroke="#757575" stroke-width="1.0" stroke-linecap="butt" d="M20.1 66.6L139.6 66.6L280.13406 35.51785" fill-rule="nonzero"/><path fill="#9e9e9e" d="M282.13406 35.51785C282.13406 34.41328 281.23865 33.51785 280.13406 33.51785C279.0295 33.51785 278.13406 34.41328 278.13406 35.51785C278.13406 36.622417 279.0295 37.51785 280.13406 37.51785C281.23865 37.51785 282.13406 36.622417 282.13406 35.51785" fill-rule="nonzero"/><path fill="#1a1a1a" d="M22.521875 93.1L20.240625 84.50625L21.4125 84.50625L22.725 90.14687Q22.928125 91.02187 23.084375 91.89687Q23.4125 90.52187 23.475 90.30312L25.1 84.50625L26.475 84.50625L27.709375 88.85Q28.1625 90.475 28.38125 91.89687Q28.5375 91.08437 28.803125 90.02187L30.146875 84.50625L31.2875 84.50625L28.94375 93.1L27.834375 93.1L26.0375 86.55312Q25.803125 85.74062 25.75625 85.55312Q25.63125 86.13125 25.50625 86.55312L23.69375 93.1L22.521875 93.1ZM36.146873 91.1L37.240623 91.225Q36.990623 92.17812 36.2875 92.70937Q35.584373 93.24062 34.50625 93.24062Q33.146873 93.24062 32.334373 92.39687Q31.5375 91.55312 31.5375 90.0375Q31.5375 88.475 32.35 87.61562Q33.1625 86.74062 34.44375 86.74062Q35.69375 86.74062 36.475 87.58437Q37.271873 88.42812 37.271873 89.975Q37.271873 90.06875 37.271873 90.25625L32.63125 90.25625Q32.69375 91.2875 33.209373 91.83437Q33.725 92.36562 34.50625 92.36562Q35.084373 92.36562 35.490623 92.06875Q35.9125 91.75625 36.146873 91.1ZM32.69375 89.39687L36.1625 89.39687Q36.1 88.6 35.771873 88.20937Q35.25625 87.6 34.459373 87.6Q33.725 87.6 33.225 88.08437Q32.740623 88.56875 32.69375 89.39687ZM39.865623 93.1L38.88125 93.1L38.88125 84.50625L39.94375 84.50625L39.94375 87.56875Q40.615623 86.74062 41.646873 86.74062Q42.225 86.74062 42.725 86.975Q43.240623 87.19375 43.56875 87.61562Q43.9125 88.0375 44.1 88.63125Q44.2875 89.225 44.2875 89.89687Q44.2875 91.49062 43.490623 92.36562Q42.69375 93.24062 41.6 93.24062Q40.490623 93.24062 39.865623 92.31875L39.865623 93.1ZM39.85 89.94375Q39.85 91.05312 40.1625 91.55312Q40.6625 92.36562 41.50625 92.36562Q42.19375 92.36562 42.69375 91.77187Q43.209373 91.17812 43.209373 89.975Q43.209373 88.75625 42.725 88.17812Q42.240623 87.6 41.553123 87.6Q40.865623 87.6 40.35 88.20937Q39.85 88.80312 39.85 89.94375ZM50.146873 91.1L51.240623 91.225Q50.990623 92.17812 50.2875 92.70937Q49.584373 93.24062 48.50625 93.24062Q47.146873 93.24062 46.334373 92.39687Q45.5375 91.55312 45.5375 90.0375Q45.5375 88.475 46.35 87.61562Q47.1625 86.74062 48.44375 86.74062Q49.69375 86.74062 50.475 87.58437Q51.271873 88.42812 51.271873 89.975Q51.271873 90.06875 51.271873 90.25625L46.63125 90.25625Q46.69375 91.2875 47.209373 91.83437Q47.725 92.36562 48.50625 92.36562Q49.084373 92.36562 49.490623 92.06875Q49.9125 91.75625 50.146873 91.1ZM46.69375 89.39687L50.1625 89.39687Q50.1 88.6 49.771873 88.20937Q49.25625 87.6 48.459373 87.6Q47.725 87.6 47.225 88.08437Q46.740623 88.56875 46.69375 89.39687ZM52.88125 93.1L52.88125 86.88125L53.834373 86.88125L53.834373 87.81875Q54.19375 87.1625 54.490623 86.95937Q54.803123 86.74062 55.178123 86.74062Q55.709373 86.74062 56.25625 87.06875L55.896873 88.05312Q55.50625 87.81875 55.13125 87.81875Q54.771873 87.81875 54.490623 88.0375Q54.225 88.24062 54.115623 88.61562Q53.928123 89.17812 53.928123 89.83437L53.928123 93.1L52.88125 93.1ZM56.1 93.24062L58.584373 84.36562L59.428123 84.36562L56.94375 93.24062L56.1 93.24062ZM60.021873 93.1L60.021873 84.50625L62.990623 84.50625Q63.990623 84.50625 64.52187 84.63125Q65.25625 84.80312 65.77187 85.24062Q66.45937 85.81875 66.7875 86.725Q67.13125 87.61562 67.13125 88.75625Q67.13125 89.74062 66.89687 90.49062Q66.67812 91.24062 66.31875 91.74062Q65.95937 92.24062 65.52187 92.52187Q65.1 92.80312 64.50625 92.95937Q63.9125 93.1 63.13125 93.1L60.021873 93.1ZM61.1625 92.08437L62.990623 92.08437Q63.85 92.08437 64.33437 91.92812Q64.81875 91.77187 65.1 91.475Q65.50625 91.08437 65.725 90.39687Q65.95937 89.70937 65.95937 88.74062Q65.95937 87.39687 65.50625 86.67812Q65.06875 85.94375 64.44375 85.69375Q63.975 85.52187 62.975 85.52187L61.1625 85.52187L61.1625 92.08437ZM72.95937 92.33437Q72.36562 92.83437 71.81875 93.0375Q71.2875 93.24062 70.6625 93.24062Q69.63125 93.24062 69.08437 92.74062Q68.5375 92.24062 68.5375 91.45937Q68.5375 91.00625 68.74062 90.63125Q68.94375 90.24062 69.2875 90.02187Q69.63125 89.7875 70.05312 89.67812Q70.35 89.58437 70.99062 89.50625Q72.25625 89.36562 72.86562 89.14687Q72.86562 88.92812 72.86562 88.88125Q72.86562 88.225 72.56875 87.95937Q72.1625 87.61562 71.36562 87.61562Q70.63125 87.61562 70.27187 87.88125Q69.9125 88.13125 69.74062 88.7875L68.70937 88.64687Q68.85 87.99062 69.17812 87.58437Q69.50625 87.17812 70.11562 86.95937Q70.725 86.74062 71.52187 86.74062Q72.31875 86.74062 72.81875 86.92812Q73.31875 87.11562 73.55312 87.39687Q73.7875 87.67812 73.88125 88.11562Q73.92812 88.38125 73.92812 89.08437L73.92812 90.49062Q73.92812 91.95937 73.99062 92.35Q74.06875 92.74062 74.27187 93.1L73.1625 93.1Q73.00625 92.77187 72.95937 92.33437ZM72.86562 89.975Q72.2875 90.20937 71.14687 90.38125Q70.49062 90.475 70.225 90.6Q69.95937 90.70937 69.80312 90.92812Q69.6625 91.14687 69.6625 91.42812Q69.6625 91.85 69.975 92.13125Q70.30312 92.4125 70.9125 92.4125Q71.52187 92.4125 71.99062 92.14687Q72.475 91.88125 72.69375 91.4125Q72.86562 91.05312 72.86562 90.36562L72.86562 89.975ZM77.61562 93.1L75.25625 86.88125L76.36562 86.88125L77.70937 90.6Q77.9125 91.20937 78.1 91.85Q78.24062 91.36562 78.49062 90.67812L79.88125 86.88125L80.95937 86.88125L78.6 93.1L77.61562 93.1ZM80.89687 85.725L80.89687 84.50625L81.95937 84.50625L81.95937 85.725L80.89687 85.725ZM80.89687 93.1L80.89687 86.88125L81.95937 86.88125L81.95937 93.1L80.89687 93.1ZM83.475 91.24062L84.50625 91.08437Q84.6 91.70937 84.99062 92.0375Q85.39687 92.36562 86.13125 92.36562Q86.85 92.36562 87.19375 92.08437Q87.55312 91.7875 87.55312 91.38125Q87.55312 91.02187 87.24062 90.81875Q87.02187 90.67812 86.1625 90.45937Q85.00625 90.1625 84.55312 89.95937Q84.11562 89.74062 83.88125 89.36562Q83.64687 88.99062 83.64687 88.52187Q83.64687 88.11562 83.83437 87.75625Q84.02187 87.39687 84.35 87.1625Q84.6 86.99062 85.02187 86.86562Q85.44375 86.74062 85.94375 86.74062Q86.6625 86.74062 87.20937 86.95937Q87.77187 87.1625 88.0375 87.52187Q88.30312 87.88125 88.39687 88.475L87.36562 88.61562Q87.30312 88.14687 86.95937 87.88125Q86.63125 87.6 86.00625 87.6Q85.2875 87.6 84.975 87.85Q84.6625 88.08437 84.6625 88.4125Q84.6625 88.61562 84.7875 88.77187Q84.92812 88.94375 85.19375 89.05312Q85.35 89.11562 86.13125 89.31875Q87.25625 89.63125 87.69375 89.81875Q88.13125 90.00625 88.38125 90.36562Q88.63125 90.725 88.63125 91.27187Q88.63125 91.80312 88.31875 92.27187Q88.02187 92.725 87.44375 92.99062Q86.86562 93.24062 86.13125 93.24062Q84.9125 93.24062 84.27187 92.74062Q83.64687 92.225 83.475 91.24062ZM100.1625 90.08437L101.2875 90.38125Q100.92812 91.77187 100.00625 92.50625Q99.08437 93.24062 97.74062 93.24062Q96.35 93.24062 95.475 92.67812Q94.6 92.11562 94.14687 91.05312Q93.69375 89.975 93.69375 88.74062Q93.69375 87.39687 94.20937 86.39687Q94.725 85.39687 95.6625 84.88125Q96.61562 84.36562 97.75625 84.36562Q99.0375 84.36562 99.9125 85.02187Q100.80312 85.67812 101.14687 86.86562L100.02187 87.13125Q99.725 86.19375 99.14687 85.77187Q98.58437 85.33437 97.725 85.33437Q96.74062 85.33437 96.06875 85.81875Q95.4125 86.2875 95.13125 87.08437Q94.86562 87.88125 94.86562 88.74062Q94.86562 89.83437 95.17812 90.64687Q95.50625 91.45937 96.17812 91.86562Q96.85 92.27187 97.64687 92.27187Q98.6 92.27187 99.25625 91.725Q99.92812 91.17812 100.1625 90.08437ZM102.50625 89.99062Q102.50625 88.25625 103.45937 87.42812Q104.25625 86.74062 105.4125 86.74062Q106.69375 86.74062 107.50625 87.58437Q108.33437 88.4125 108.33437 89.89687Q108.33437 91.1 107.975 91.7875Q107.61562 92.475 106.9125 92.86562Q106.225 93.24062 105.4125 93.24062Q104.11562 93.24062 103.30312 92.4125Q102.50625 91.56875 102.50625 89.99062ZM103.58437 89.99062Q103.58437 91.17812 104.1 91.77187Q104.63125 92.36562 105.4125 92.36562Q106.20937 92.36562 106.725 91.77187Q107.24062 91.17812 107.24062 89.95937Q107.24062 88.80312 106.70937 88.20937Q106.19375 87.61562 105.4125 87.61562Q104.63125 87.61562 104.1 88.20937Q103.58437 88.7875 103.58437 89.99062ZM113.975 93.1L113.975 92.17812Q113.24062 93.24062 111.99062 93.24062Q111.44375 93.24062 110.95937 93.0375Q110.49062 92.81875 110.25625 92.50625Q110.02187 92.17812 109.92812 91.70937Q109.86562 91.4125 109.86562 90.725L109.86562 86.88125L110.92812 86.88125L110.92812 90.33437Q110.92812 91.14687 110.99062 91.44375Q111.08437 91.85 111.39687 92.1Q111.725 92.33437 112.20937 92.33437Q112.67812 92.33437 113.08437 92.1Q113.50625 91.85 113.67812 91.42812Q113.86562 91.00625 113.86562 90.20937L113.86562 86.88125L114.9125 86.88125L114.9125 93.1L113.975 93.1ZM116.89687 93.1L116.89687 86.88125L117.83437 86.88125L117.83437 87.75625Q118.52187 86.74062 119.81875 86.74062Q120.38125 86.74062 120.85 86.94375Q121.33437 87.14687 121.56875 87.475Q121.80312 87.80312 121.89687 88.24062Q121.94375 88.5375 121.94375 89.27187L121.94375 93.1L120.89687 93.1L120.89687 89.31875Q120.89687 88.6625 120.77187 88.35Q120.64687 88.0375 120.33437 87.85Q120.02187 87.64687 119.6 87.64687Q118.92812 87.64687 118.42812 88.08437Q117.94375 88.50625 117.94375 89.69375L117.94375 93.1L116.89687 93.1ZM126.19375 92.1625L126.35 93.08437Q125.89687 93.17812 125.55312 93.17812Q124.975 93.17812 124.6625 93.00625Q124.35 92.81875 124.20937 92.52187Q124.08437 92.225 124.08437 91.27187L124.08437 87.69375L123.31875 87.69375L123.31875 86.88125L124.08437 86.88125L124.08437 85.33437L125.13125 84.70937L125.13125 86.88125L126.19375 86.88125L126.19375 87.69375L125.13125 87.69375L125.13125 91.33437Q125.13125 91.7875 125.17812 91.9125Q125.24062 92.0375 125.36562 92.11562Q125.49062 92.19375 125.725 92.19375Q125.9125 92.19375 126.19375 92.1625ZM126.85 95.49062L126.725 94.50625Q127.06875 94.6 127.33437 94.6Q127.67812 94.6 127.88125 94.475Q128.1 94.36562 128.24063 94.1625Q128.33438 93.99062 128.56876 93.36562Q128.58438 93.2875 128.6625 93.11562L126.2875 86.88125L127.42812 86.88125L128.725 90.475Q128.975 91.1625 129.17813 91.92812Q129.36563 91.19375 129.61563 90.50625L130.94376 86.88125L131.99063 86.88125L129.63126 93.20937Q129.24063 94.225 129.0375 94.61562Q128.75626 95.14687 128.38126 95.38125Q128.02188 95.63125 127.52187 95.63125Q127.225 95.63125 126.85 95.49062Z" fill-rule="nonzero"/><path fill="#9e9e9e" d="M26.06875 103.61562L25.021875 103.69375Q24.88125 103.06875 24.63125 102.7875Q24.19375 102.33437 23.56875 102.33437Q23.06875 102.33437 22.678125 102.61562Q22.19375 102.99062 21.896875 103.69375Q21.615625 104.38125 21.6 105.6625Q21.975 105.08437 22.521875 104.80312Q23.084375 104.52187 23.69375 104.52187Q24.740625 104.52187 25.475 105.30312Q26.225 106.08437 26.225 107.30312Q26.225 108.11562 25.865625 108.81875Q25.521875 109.50625 24.9125 109.88125Q24.303125 110.24062 23.5375 110.24062Q22.209375 110.24062 21.38125 109.27187Q20.553125 108.30312 20.553125 106.08437Q20.553125 103.58437 21.475 102.45937Q22.271875 101.475 23.63125 101.475Q24.646875 101.475 25.2875 102.05312Q25.94375 102.61562 26.06875 103.61562ZM21.771875 107.31875Q21.771875 107.86562 21.990625 108.36562Q22.225 108.85 22.63125 109.11562Q23.053125 109.38125 23.521875 109.38125Q24.178125 109.38125 24.6625 108.85Q25.146875 108.30312 25.146875 107.38125Q25.146875 106.49062 24.6625 105.975Q24.19375 105.45937 23.475 105.45937Q22.75625 105.45937 22.25625 105.975Q21.771875 106.49062 21.771875 107.31875ZM28.19375 110.1L28.19375 108.89687L29.396875 108.89687L29.396875 110.1L28.19375 110.1ZM30.6 107.85L31.709375 107.75625Q31.834375 108.56875 32.271873 108.975Q32.725 109.38125 33.365623 109.38125Q34.115623 109.38125 34.646873 108.80312Q35.178123 108.225 35.178123 107.2875Q35.178123 106.38125 34.6625 105.86562Q34.1625 105.33437 33.334373 105.33437Q32.834373 105.33437 32.4125 105.56875Q32.00625 105.80312 31.771875 106.1625L30.7875 106.0375L31.615625 101.63125L35.896873 101.63125L35.896873 102.63125L32.459373 102.63125L32.00625 104.94375Q32.771873 104.39687 33.615623 104.39687Q34.740623 104.39687 35.50625 105.17812Q36.2875 105.95937 36.2875 107.19375Q36.2875 108.35 35.615623 109.20937Q34.7875 110.24062 33.365623 110.24062Q32.19375 110.24062 31.44375 109.58437Q30.709375 108.92812 30.6 107.85ZM37.803123 103.56875Q37.803123 102.64687 38.25625 102.00625Q38.725 101.36562 39.6 101.36562Q40.4125 101.36562 40.94375 101.94375Q41.475 102.52187 41.475 103.63125Q41.475 104.725 40.928123 105.31875Q40.396873 105.89687 39.615623 105.89687Q38.834373 105.89687 38.31875 105.31875Q37.803123 104.74062 37.803123 103.56875ZM39.63125 102.08437Q39.240623 102.08437 38.975 102.42812Q38.725 102.77187 38.725 103.67812Q38.725 104.50625 38.975 104.85Q39.240623 105.17812 39.63125 105.17812Q40.0375 105.17812 40.2875 104.83437Q40.553123 104.49062 40.553123 103.6Q40.553123 102.75625 40.2875 102.42812Q40.021873 102.08437 39.63125 102.08437ZM39.63125 110.4125L44.334373 101.36562L45.19375 101.36562L40.50625 110.4125L39.63125 110.4125ZM43.35 108.08437Q43.35 107.1625 43.803123 106.52187Q44.271873 105.88125 45.1625 105.88125Q45.975 105.88125 46.50625 106.45937Q47.0375 107.02187 47.0375 108.14687Q47.0375 109.24062 46.490623 109.83437Q45.959373 110.4125 45.1625 110.4125Q44.396873 110.4125 43.865623 109.83437Q43.35 109.25625 43.35 108.08437ZM45.19375 106.6Q44.7875 106.6 44.521873 106.94375Q44.271873 107.2875 44.271873 108.19375Q44.271873 109.00625 44.5375 109.35Q44.803123 109.69375 45.19375 109.69375Q45.584373 109.69375 45.85 109.35Q46.115623 109.00625 46.115623 108.1Q46.115623 107.27187 45.85 106.94375Q45.584373 106.6 45.19375 106.6Z" fill-rule="nonzero"/><path stroke="#757575" stroke-width="1.0" stroke-linecap="butt" d="M20.1 97.6L139.6 97.6L215.03792 70.193474" fill-rule="nonzero"/><path fill="#9e9e9e" d="M217.03792 70.193474C217.03792 69.088905 216.1425 68.193474 215.03792 68.193474C213.93335 68.193474 213.03792 69.088905 213.03792 70.193474C213.03792 71.29804 213.93335 72.193474 215.03792 72.193474C216.1425 72.193474 217.03792 71.29804 217.03792 70.193474" fill-rule="nonzero"/><path fill="#1a1a1a" d="M20.646875 197.64635L21.709375 197.5526Q21.7875 198.20885 22.06875 198.6151Q22.35 199.02135 22.928125 199.28697Q23.521875 199.53697 24.25625 199.53697Q24.896875 199.53697 25.396875 199.34947Q25.896875 199.14635 26.13125 198.81822Q26.38125 198.47447 26.38125 198.08385Q26.38125 197.6776 26.146875 197.38072Q25.9125 197.06822 25.38125 196.8651Q25.021875 196.72447 23.834375 196.44322Q22.6625 196.16197 22.19375 195.91197Q21.56875 195.58385 21.271875 195.1151Q20.975 194.63072 20.975 194.03697Q20.975 193.39635 21.334375 192.83385Q21.709375 192.25572 22.4125 191.97447Q23.13125 191.6776 23.990625 191.6776Q24.94375 191.6776 25.678125 191.9901Q26.4125 192.28697 26.803125 192.89635Q27.19375 193.4901 27.225 194.2401L26.13125 194.31822Q26.0375 193.50572 25.521875 193.09947Q25.021875 192.6776 24.0375 192.6776Q23.00625 192.6776 22.5375 193.0526Q22.06875 193.4276 22.06875 193.95885Q22.06875 194.4276 22.396875 194.72447Q22.725 195.02135 24.1 195.33385Q25.490625 195.64635 26.00625 195.88072Q26.75625 196.2401 27.115625 196.77135Q27.475 197.28697 27.475 197.9901Q27.475 198.6776 27.084375 199.28697Q26.69375 199.88072 25.959375 200.22447Q25.225 200.5526 24.303125 200.5526Q23.13125 200.5526 22.334375 200.22447Q21.553125 199.88072 21.1 199.19322Q20.6625 198.50572 20.646875 197.64635ZM32.959373 199.64635Q32.365623 200.14635 31.81875 200.34947Q31.2875 200.5526 30.6625 200.5526Q29.63125 200.5526 29.084375 200.0526Q28.5375 199.5526 28.5375 198.77135Q28.5375 198.31822 28.740625 197.94322Q28.94375 197.5526 29.2875 197.33385Q29.63125 197.09947 30.053125 196.9901Q30.35 196.89635 30.990625 196.81822Q32.25625 196.6776 32.865623 196.45885Q32.865623 196.2401 32.865623 196.19322Q32.865623 195.53697 32.56875 195.27135Q32.1625 194.9276 31.365625 194.9276Q30.63125 194.9276 30.271875 195.19322Q29.9125 195.44322 29.740625 196.09947L28.709375 195.95885Q28.85 195.3026 29.178125 194.89635Q29.50625 194.4901 30.115625 194.27135Q30.725 194.0526 31.521875 194.0526Q32.31875 194.0526 32.81875 194.2401Q33.31875 194.4276 33.553123 194.70885Q33.7875 194.9901 33.88125 195.4276Q33.928123 195.69322 33.928123 196.39635L33.928123 197.8026Q33.928123 199.27135 33.990623 199.66197Q34.06875 200.0526 34.271873 200.41197L33.1625 200.41197Q33.00625 200.08385 32.959373 199.64635ZM32.865623 197.28697Q32.2875 197.52135 31.146875 197.69322Q30.490625 197.78697 30.225 197.91197Q29.959375 198.02135 29.803125 198.2401Q29.6625 198.45885 29.6625 198.7401Q29.6625 199.16197 29.975 199.44322Q30.303125 199.72447 30.9125 199.72447Q31.521875 199.72447 31.990625 199.45885Q32.475 199.19322 32.69375 198.72447Q32.865623 198.3651 32.865623 197.6776L32.865623 197.28697ZM35.865623 200.41197L35.865623 191.81822L36.928123 191.81822L36.928123 200.41197L35.865623 200.41197ZM41.19375 199.47447L41.35 200.39635Q40.896873 200.4901 40.553123 200.4901Q39.975 200.4901 39.6625 200.31822Q39.35 200.13072 39.209373 199.83385Q39.084373 199.53697 39.084373 198.58385L39.084373 195.00572L38.31875 195.00572L38.31875 194.19322L39.084373 194.19322L39.084373 192.64635L40.13125 192.02135L40.13125 194.19322L41.19375 194.19322L41.19375 195.00572L40.13125 195.00572L40.13125 198.64635Q40.13125 199.09947 40.178123 199.22447Q40.240623 199.34947 40.365623 199.4276Q40.490623 199.50572 40.725 199.50572Q40.9125 199.50572 41.19375 199.47447ZM44.975 200.41197L44.975 191.81822L46.115623 191.81822L46.115623 199.39635L50.35 199.39635L50.35 200.41197L44.975 200.41197ZM55.959373 199.64635Q55.365623 200.14635 54.81875 200.34947Q54.2875 200.5526 53.6625 200.5526Q52.63125 200.5526 52.084373 200.0526Q51.5375 199.5526 51.5375 198.77135Q51.5375 198.31822 51.740623 197.94322Q51.94375 197.5526 52.2875 197.33385Q52.63125 197.09947 53.053123 196.9901Q53.35 196.89635 53.990623 196.81822Q55.25625 196.6776 55.865623 196.45885Q55.865623 196.2401 55.865623 196.19322Q55.865623 195.53697 55.56875 195.27135Q55.1625 194.9276 54.365623 194.9276Q53.63125 194.9276 53.271873 195.19322Q52.9125 195.44322 52.740623 196.09947L51.709373 195.95885Q51.85 195.3026 52.178123 194.89635Q52.50625 194.4901 53.115623 194.27135Q53.725 194.0526 54.521873 194.0526Q55.31875 194.0526 55.81875 194.2401Q56.31875 194.4276 56.553123 194.70885Q56.7875 194.9901 56.88125 195.4276Q56.928123 195.69322 56.928123 196.39635L56.928123 197.8026Q56.928123 199.27135 56.990623 199.66197Q57.06875 200.0526 57.271873 200.41197L56.1625 200.41197Q56.00625 200.08385 55.959373 199.64635ZM55.865623 197.28697Q55.2875 197.52135 54.146873 197.69322Q53.490623 197.78697 53.225 197.91197Q52.959373 198.02135 52.803123 198.2401Q52.6625 198.45885 52.6625 198.7401Q52.6625 199.16197 52.975 199.44322Q53.303123 199.72447 53.9125 199.72447Q54.521873 199.72447 54.990623 199.45885Q55.475 199.19322 55.69375 198.72447Q55.865623 198.3651 55.865623 197.6776L55.865623 197.28697ZM58.896873 200.41197L58.896873 191.81822L59.959373 191.81822L59.959373 196.72447L62.44375 194.19322L63.81875 194.19322L61.428123 196.4901L64.05312 200.41197L62.75625 200.41197L60.69375 197.22447L59.959373 197.94322L59.959373 200.41197L58.896873 200.41197ZM69.14687 198.41197L70.24062 198.53697Q69.99062 199.4901 69.2875 200.02135Q68.58437 200.5526 67.50625 200.5526Q66.14687 200.5526 65.33437 199.70885Q64.5375 198.8651 64.5375 197.34947Q64.5375 195.78697 65.35 194.9276Q66.1625 194.0526 67.44375 194.0526Q68.69375 194.0526 69.475 194.89635Q70.27187 195.7401 70.27187 197.28697Q70.27187 197.38072 70.27187 197.56822L65.63125 197.56822Q65.69375 198.59947 66.20937 199.14635Q66.725 199.6776 67.50625 199.6776Q68.08437 199.6776 68.49062 199.38072Q68.9125 199.06822 69.14687 198.41197ZM65.69375 196.70885L69.1625 196.70885Q69.1 195.91197 68.77187 195.52135Q68.25625 194.91197 67.45937 194.91197Q66.725 194.91197 66.225 195.39635Q65.74062 195.88072 65.69375 196.70885ZM81.1625 197.39635L82.2875 197.69322Q81.92812 199.08385 81.00625 199.81822Q80.08437 200.5526 78.74062 200.5526Q77.35 200.5526 76.475 199.9901Q75.6 199.4276 75.14687 198.3651Q74.69375 197.28697 74.69375 196.0526Q74.69375 194.70885 75.20937 193.70885Q75.725 192.70885 76.6625 192.19322Q77.61562 191.6776 78.75625 191.6776Q80.0375 191.6776 80.9125 192.33385Q81.80312 192.9901 82.14687 194.1776L81.02187 194.44322Q80.725 193.50572 80.14687 193.08385Q79.58437 192.64635 78.725 192.64635Q77.74062 192.64635 77.06875 193.13072Q76.4125 193.59947 76.13125 194.39635Q75.86562 195.19322 75.86562 196.0526Q75.86562 197.14635 76.17812 197.95885Q76.50625 198.77135 77.17812 199.1776Q77.85 199.58385 78.64687 199.58385Q79.6 199.58385 80.25625 199.03697Q80.92812 198.4901 81.1625 197.39635ZM83.50625 197.3026Q83.50625 195.56822 84.45937 194.7401Q85.25625 194.0526 86.4125 194.0526Q87.69375 194.0526 88.50625 194.89635Q89.33437 195.72447 89.33437 197.20885Q89.33437 198.41197 88.975 199.09947Q88.61562 199.78697 87.9125 200.1776Q87.225 200.5526 86.4125 200.5526Q85.11562 200.5526 84.30312 199.72447Q83.50625 198.88072 83.50625 197.3026ZM84.58437 197.3026Q84.58437 198.4901 85.1 199.08385Q85.63125 199.6776 86.4125 199.6776Q87.20937 199.6776 87.725 199.08385Q88.24062 198.4901 88.24062 197.27135Q88.24062 196.1151 87.70937 195.52135Q87.19375 194.9276 86.4125 194.9276Q85.63125 194.9276 85.1 195.52135Q84.58437 196.09947 84.58437 197.3026ZM94.975 200.41197L94.975 199.4901Q94.24062 200.5526 92.99062 200.5526Q92.44375 200.5526 91.95937 200.34947Q91.49062 200.13072 91.25625 199.81822Q91.02187 199.4901 90.92812 199.02135Q90.86562 198.72447 90.86562 198.03697L90.86562 194.19322L91.92812 194.19322L91.92812 197.64635Q91.92812 198.45885 91.99062 198.75572Q92.08437 199.16197 92.39687 199.41197Q92.725 199.64635 93.20937 199.64635Q93.67812 199.64635 94.08437 199.41197Q94.50625 199.16197 94.67812 198.7401Q94.86562 198.31822 94.86562 197.52135L94.86562 194.19322L95.9125 194.19322L95.9125 200.41197L94.975 200.41197ZM97.89687 200.41197L97.89687 194.19322L98.83437 194.19322L98.83437 195.06822Q99.52187 194.0526 100.81875 194.0526Q101.38125 194.0526 101.85 194.25572Q102.33437 194.45885 102.56875 194.78697Q102.80312 195.1151 102.89687 195.5526Q102.94375 195.84947 102.94375 196.58385L102.94375 200.41197L101.89687 200.41197L101.89687 196.63072Q101.89687 195.97447 101.77187 195.66197Q101.64687 195.34947 101.33437 195.16197Q101.02187 194.95885 100.6 194.95885Q99.92812 194.95885 99.42812 195.39635Q98.94375 195.81822 98.94375 197.00572L98.94375 200.41197L97.89687 200.41197ZM107.19375 199.47447L107.35 200.39635Q106.89687 200.4901 106.55312 200.4901Q105.975 200.4901 105.6625 200.31822Q105.35 200.13072 105.20937 199.83385Q105.08437 199.53697 105.08437 198.58385L105.08437 195.00572L104.31875 195.00572L104.31875 194.19322L105.08437 194.19322L105.08437 192.64635L106.13125 192.02135L106.13125 194.19322L107.19375 194.19322L107.19375 195.00572L106.13125 195.00572L106.13125 198.64635Q106.13125 199.09947 106.17812 199.22447Q106.24062 199.34947 106.36562 199.4276Q106.49062 199.50572 106.725 199.50572Q106.9125 199.50572 107.19375 199.47447ZM107.85 202.8026L107.725 201.81822Q108.06875 201.91197 108.33437 201.91197Q108.67812 201.91197 108.88125 201.78697Q109.1 201.6776 109.24062 201.47447Q109.33437 201.3026 109.56875 200.6776Q109.58437 200.59947 109.6625 200.4276L107.2875 194.19322L108.42812 194.19322L109.725 197.78697Q109.975 198.47447 110.17812 199.2401Q110.36562 198.50572 110.61562 197.81822L111.94375 194.19322L112.99062 194.19322L110.63125 200.52135Q110.24062 201.53697 110.0375 201.9276Q109.75625 202.45885 109.38125 202.69322Q109.02187 202.94322 108.52187 202.94322Q108.225 202.94322 107.85 202.8026Z" fill-rule="nonzero"/><path fill="#9e9e9e" d="M26.146875 216.39635L26.146875 217.41197L20.459375 217.41197Q20.459375 217.03697 20.584375 216.6776Q20.803125 216.09947 21.271875 215.53697Q21.75625 214.97447 22.6625 214.2401Q24.06875 213.08385 24.553125 212.41197Q25.053125 211.7401 25.053125 211.14635Q25.053125 210.52135 24.6 210.09947Q24.146875 209.66197 23.428125 209.66197Q22.6625 209.66197 22.209375 210.1151Q21.75625 210.56822 21.740625 211.38072L20.6625 211.27135Q20.771875 210.0526 21.490625 209.4276Q22.225 208.78697 23.459375 208.78697Q24.69375 208.78697 25.4125 209.47447Q26.13125 210.16197 26.13125 211.1776Q26.13125 211.69322 25.9125 212.19322Q25.709375 212.6776 25.209375 213.2401Q24.725 213.78697 23.6 214.7401Q22.646875 215.53697 22.365625 215.83385Q22.1 216.1151 21.928125 216.39635L26.146875 216.39635ZM31.56875 217.41197L30.521875 217.41197L30.521875 210.69322Q30.13125 211.0526 29.50625 211.4276Q28.896875 211.78697 28.4125 211.95885L28.4125 210.94322Q29.2875 210.52135 29.94375 209.94322Q30.615625 209.34947 30.896875 208.78697L31.56875 208.78697L31.56875 217.41197ZM35.19375 217.41197L35.19375 216.20885L36.396873 216.20885L36.396873 217.41197L35.19375 217.41197ZM37.6625 209.94322L37.6625 208.9276L43.225 208.9276L43.225 209.75572Q42.4125 210.63072 41.6 212.08385Q40.803123 213.52135 40.365623 215.0526Q40.0375 216.13072 39.959373 217.41197L38.865623 217.41197Q38.88125 216.39635 39.25625 214.95885Q39.646873 213.52135 40.35 212.19322Q41.06875 210.8651 41.88125 209.94322L37.6625 209.94322ZM44.803123 210.88072Q44.803123 209.95885 45.25625 209.31822Q45.725 208.6776 46.6 208.6776Q47.4125 208.6776 47.94375 209.25572Q48.475 209.83385 48.475 210.94322Q48.475 212.03697 47.928123 212.63072Q47.396873 213.20885 46.615623 213.20885Q45.834373 213.20885 45.31875 212.63072Q44.803123 212.0526 44.803123 210.88072ZM46.63125 209.39635Q46.240623 209.39635 45.975 209.7401Q45.725 210.08385 45.725 210.9901Q45.725 211.81822 45.975 212.16197Q46.240623 212.4901 46.63125 212.4901Q47.0375 212.4901 47.2875 212.14635Q47.553123 211.8026 47.553123 210.91197Q47.553123 210.06822 47.2875 209.7401Q47.021873 209.39635 46.63125 209.39635ZM46.63125 217.72447L51.334373 208.6776L52.19375 208.6776L47.50625 217.72447L46.63125 217.72447ZM50.35 215.39635Q50.35 214.47447 50.803123 213.83385Q51.271873 213.19322 52.1625 213.19322Q52.975 213.19322 53.50625 213.77135Q54.0375 214.33385 54.0375 215.45885Q54.0375 216.5526 53.490623 217.14635Q52.959373 217.72447 52.1625 217.72447Q51.396873 217.72447 50.865623 217.14635Q50.35 216.56822 50.35 215.39635ZM52.19375 213.91197Q51.7875 213.91197 51.521873 214.25572Q51.271873 214.59947 51.271873 215.50572Q51.271873 216.31822 51.5375 216.66197Q51.803123 217.00572 52.19375 217.00572Q52.584373 217.00572 52.85 216.66197Q53.115623 216.31822 53.115623 215.41197Q53.115623 214.58385 52.85 214.25572Q52.584373 213.91197 52.19375 213.91197Z" fill-rule="nonzero"/><path stroke="#757575" stroke-width="1.0" stroke-linecap="butt" d="M20.1 204.91197L139.6 204.91197L154.68953 204.91197" fill-rule="nonzero"/><path fill="#9e9e9e" d="M156.68953 204.91197C156.68953 203.8074 155.7941 202.91197 154.68953 202.91197C153.58496 202.91197 152.68953 203.8074 152.68953 204.91197C152.68953 206.01654 153.58496 206.91197 154.68953 206.91197C155.7941 206.91197 156.68953 206.01654 156.68953 204.91197" fill-rule="nonzero"/><path fill="#1a1a1a" d="M21.021875 352.52798L21.021875 343.93423L22.178125 343.93423L26.69375 350.68423L26.69375 343.93423L27.7875 343.93423L27.7875 352.52798L26.615625 352.52798L22.1 345.77798L22.1 352.52798L21.021875 352.52798ZM29.50625 349.4186Q29.50625 347.68423 30.459375 346.8561Q31.25625 346.1686 32.4125 346.1686Q33.69375 346.1686 34.50625 347.01236Q35.334373 347.84048 35.334373 349.32486Q35.334373 350.52798 34.975 351.21548Q34.615623 351.90298 33.9125 352.2936Q33.225 352.6686 32.4125 352.6686Q31.115625 352.6686 30.303125 351.84048Q29.50625 350.99673 29.50625 349.4186ZM30.584375 349.4186Q30.584375 350.6061 31.1 351.19986Q31.63125 351.7936 32.4125 351.7936Q33.209373 351.7936 33.725 351.19986Q34.240623 350.6061 34.240623 349.38736Q34.240623 348.2311 33.709373 347.63736Q33.19375 347.0436 32.4125 347.0436Q31.63125 347.0436 31.1 347.63736Q30.584375 348.21548 30.584375 349.4186ZM39.19375 351.59048L39.35 352.51236Q38.896873 352.6061 38.553123 352.6061Q37.975 352.6061 37.6625 352.43423Q37.35 352.24673 37.209373 351.94986Q37.084373 351.65298 37.084373 350.69986L37.084373 347.12173L36.31875 347.12173L36.31875 346.30923L37.084373 346.30923L37.084373 344.76236L38.13125 344.13736L38.13125 346.30923L39.19375 346.30923L39.19375 347.12173L38.13125 347.12173L38.13125 350.76236Q38.13125 351.21548 38.178123 351.34048Q38.240623 351.46548 38.365623 351.5436Q38.490623 351.62173 38.725 351.62173Q38.9125 351.62173 39.19375 351.59048ZM39.475 349.94986L39.475 348.88736L42.725 348.88736L42.725 349.94986L39.475 349.94986ZM49.6625 343.93423L50.803123 343.93423L50.803123 348.90298Q50.803123 350.19986 50.50625 350.96548Q50.209373 351.71548 49.44375 352.19986Q48.678123 352.6686 47.44375 352.6686Q46.240623 352.6686 45.459373 352.26236Q44.69375 351.84048 44.365623 351.05923Q44.0375 350.26236 44.0375 348.90298L44.0375 343.93423L45.178123 343.93423L45.178123 348.88736Q45.178123 350.01236 45.38125 350.5436Q45.6 351.07486 46.1 351.37173Q46.615623 351.65298 47.35 351.65298Q48.6 351.65298 49.13125 351.09048Q49.6625 350.51236 49.6625 348.88736L49.6625 343.93423ZM55.19375 351.59048L55.35 352.51236Q54.896873 352.6061 54.553123 352.6061Q53.975 352.6061 53.6625 352.43423Q53.35 352.24673 53.209373 351.94986Q53.084373 351.65298 53.084373 350.69986L53.084373 347.12173L52.31875 347.12173L52.31875 346.30923L53.084373 346.30923L53.084373 344.76236L54.13125 344.13736L54.13125 346.30923L55.19375 346.30923L55.19375 347.12173L54.13125 347.12173L54.13125 350.76236Q54.13125 351.21548 54.178123 351.34048Q54.240623 351.46548 54.365623 351.5436Q54.490623 351.62173 54.725 351.62173Q54.9125 351.62173 55.19375 351.59048ZM59.959373 351.76236Q59.365623 352.26236 58.81875 352.46548Q58.2875 352.6686 57.6625 352.6686Q56.63125 352.6686 56.084373 352.1686Q55.5375 351.6686 55.5375 350.88736Q55.5375 350.43423 55.740623 350.05923Q55.94375 349.6686 56.2875 349.44986Q56.63125 349.21548 57.053123 349.1061Q57.35 349.01236 57.990623 348.93423Q59.25625 348.7936 59.865623 348.57486Q59.865623 348.3561 59.865623 348.30923Q59.865623 347.65298 59.56875 347.38736Q59.1625 347.0436 58.365623 347.0436Q57.63125 347.0436 57.271873 347.30923Q56.9125 347.55923 56.740623 348.21548L55.709373 348.07486Q55.85 347.4186 56.178123 347.01236Q56.50625 346.6061 57.115623 346.38736Q57.725 346.1686 58.521873 346.1686Q59.31875 346.1686 59.81875 346.3561Q60.31875 346.5436 60.553123 346.82486Q60.7875 347.1061 60.88125 347.5436Q60.928123 347.80923 60.928123 348.51236L60.928123 349.9186Q60.928123 351.38736 60.990623 351.77798Q61.06875 352.1686 61.271873 352.52798L60.1625 352.52798Q60.00625 352.19986 59.959373 351.76236ZM59.865623 349.40298Q59.2875 349.63736 58.146873 349.80923Q57.490623 349.90298 57.225 350.02798Q56.959373 350.13736 56.803123 350.3561Q56.6625 350.57486 56.6625 350.8561Q56.6625 351.27798 56.975 351.55923Q57.303123 351.84048 57.9125 351.84048Q58.521873 351.84048 58.990623 351.57486Q59.475 351.30923 59.69375 350.84048Q59.865623 350.4811 59.865623 349.7936L59.865623 349.40298ZM62.896873 352.52798L62.896873 343.93423L63.94375 343.93423L63.94375 347.01236Q64.67812 346.1686 65.80312 346.1686Q66.50625 346.1686 67.00625 346.44986Q67.52187 346.71548 67.74062 347.19986Q67.95937 347.6686 67.95937 348.59048L67.95937 352.52798L66.9125 352.52798L66.9125 348.59048Q66.9125 347.7936 66.56875 347.43423Q66.225 347.07486 65.6 347.07486Q65.13125 347.07486 64.70937 347.32486Q64.30312 347.55923 64.11562 347.9811Q63.94375 348.38736 63.94375 349.12173L63.94375 352.52798L62.896873 352.52798Z" fill-rule="nonzero"/><path fill="#9e9e9e" d="M24.56875 369.52798L23.521875 369.52798L23.521875 362.80923Q23.13125 363.1686 22.50625 363.5436Q21.896875 363.90298 21.4125 364.07486L21.4125 363.05923Q22.2875 362.63736 22.94375 362.05923Q23.615625 361.46548 23.896875 360.90298L24.56875 360.90298L24.56875 369.52798ZM27.6 367.26236L28.6625 367.12173Q28.834375 368.01236 29.271875 368.4186Q29.709375 368.80923 30.334375 368.80923Q31.084375 368.80923 31.6 368.2936Q32.115623 367.77798 32.115623 367.01236Q32.115623 366.2936 31.63125 365.82486Q31.1625 365.34048 30.428125 365.34048Q30.13125 365.34048 29.678125 365.46548L29.803125 364.52798Q29.9125 364.5436 29.975 364.5436Q30.646875 364.5436 31.178125 364.19986Q31.725 363.84048 31.725 363.1061Q31.725 362.52798 31.334375 362.15298Q30.94375 361.76236 30.31875 361.76236Q29.709375 361.76236 29.2875 362.15298Q28.88125 362.5436 28.771875 363.30923L27.709375 363.12173Q27.896875 362.07486 28.584375 361.49673Q29.271875 360.90298 30.2875 360.90298Q30.990625 360.90298 31.584375 361.21548Q32.178123 361.51236 32.490623 362.02798Q32.803123 362.5436 32.803123 363.13736Q32.803123 363.68423 32.50625 364.15298Q32.209373 364.6061 31.63125 364.87173Q32.38125 365.0436 32.803123 365.6061Q33.225 366.15298 33.225 366.99673Q33.225 368.12173 32.396873 368.90298Q31.584375 369.68423 30.334375 369.68423Q29.209375 369.68423 28.459375 369.01236Q27.709375 368.32486 27.6 367.26236ZM35.19375 369.52798L35.19375 368.32486L36.396873 368.32486L36.396873 369.52798L35.19375 369.52798ZM39.225 364.87173Q38.56875 364.62173 38.240623 364.18423Q37.928123 363.7311 37.928123 363.12173Q37.928123 362.18423 38.6 361.5436Q39.2875 360.90298 40.396873 360.90298Q41.521873 360.90298 42.209373 361.55923Q42.896873 362.21548 42.896873 363.15298Q42.896873 363.74673 42.584373 364.18423Q42.271873 364.62173 41.63125 364.87173Q42.428123 365.12173 42.834373 365.69986Q43.240623 366.27798 43.240623 367.07486Q43.240623 368.1686 42.459373 368.9186Q41.69375 369.6686 40.4125 369.6686Q39.146873 369.6686 38.365623 368.9186Q37.584373 368.1686 37.584373 367.0436Q37.584373 366.19986 38.00625 365.63736Q38.44375 365.07486 39.225 364.87173ZM39.00625 363.07486Q39.00625 363.68423 39.396873 364.07486Q39.803123 364.46548 40.428123 364.46548Q41.0375 364.46548 41.428123 364.09048Q41.81875 363.69986 41.81875 363.13736Q41.81875 362.55923 41.4125 362.1686Q41.00625 361.76236 40.4125 361.76236Q39.803123 361.76236 39.396873 362.15298Q39.00625 362.5436 39.00625 363.07486ZM38.678123 367.0436Q38.678123 367.49673 38.88125 367.9186Q39.1 368.34048 39.521873 368.57486Q39.94375 368.80923 40.428123 368.80923Q41.178123 368.80923 41.6625 368.32486Q42.1625 367.84048 42.1625 367.09048Q42.1625 366.32486 41.6625 365.82486Q41.1625 365.32486 40.396873 365.32486Q39.646873 365.32486 39.1625 365.82486Q38.678123 366.30923 38.678123 367.0436ZM44.803123 362.99673Q44.803123 362.07486 45.25625 361.43423Q45.725 360.7936 46.6 360.7936Q47.4125 360.7936 47.94375 361.37173Q48.475 361.94986 48.475 363.05923Q48.475 364.15298 47.928123 364.74673Q47.396873 365.32486 46.615623 365.32486Q45.834373 365.32486 45.31875 364.74673Q44.803123 364.1686 44.803123 362.99673ZM46.63125 361.51236Q46.240623 361.51236 45.975 361.8561Q45.725 362.19986 45.725 363.1061Q45.725 363.93423 45.975 364.27798Q46.240623 364.6061 46.63125 364.6061Q47.0375 364.6061 47.2875 364.26236Q47.553123 363.9186 47.553123 363.02798Q47.553123 362.18423 47.2875 361.8561Q47.021873 361.51236 46.63125 361.51236ZM46.63125 369.84048L51.334373 360.7936L52.19375 360.7936L47.50625 369.84048L46.63125 369.84048ZM50.35 367.51236Q50.35 366.59048 50.803123 365.94986Q51.271873 365.30923 52.1625 365.30923Q52.975 365.30923 53.50625 365.88736Q54.0375 366.44986 54.0375 367.57486Q54.0375 368.6686 53.490623 369.26236Q52.959373 369.84048 52.1625 369.84048Q51.396873 369.84048 50.865623 369.26236Q50.35 368.68423 50.35 367.51236ZM52.19375 366.02798Q51.7875 366.02798 51.521873 366.37173Q51.271873 366.71548 51.271873 367.62173Q51.271873 368.43423 51.5375 368.77798Q51.803123 369.12173 52.19375 369.12173Q52.584373 369.12173 52.85 368.77798Q53.115623 368.43423 53.115623 367.52798Q53.115623 366.69986 52.85 366.37173Q52.584373 366.02798 52.19375 366.02798Z" fill-rule="nonzero"/><path stroke="#757575" stroke-width="1.0" stroke-linecap="butt" d="M20.1 357.02798L139.6 357.02798L254.46242 357.02798" fill-rule="nonzero"/><path fill="#9e9e9e" d="M256.46243 357.02798C256.46243 355.9234 255.56699 355.02798 254.46242 355.02798C253.35785 355.02798 252.46242 355.9234 252.46242 357.02798C252.46242 358.13254 253.35785 359.02798 254.46242 359.02798C255.56699 359.02798 256.46243 358.13254 256.46243 357.02798" fill-rule="nonzero"/><path fill="#1a1a1a" d="M572.4625 187.90625L573.60315 187.90625L573.60315 192.875Q573.60315 194.17188 573.3063 194.9375Q573.0094 195.6875 572.2438 196.17188Q571.47815 196.64062 570.2438 196.64062Q569.04065 196.64062 568.2594 196.23438Q567.4938 195.8125 567.16565 195.03125Q566.8375 194.23438 566.8375 192.875L566.8375 187.90625L567.97815 187.90625L567.97815 192.85938Q567.97815 193.98438 568.1813 194.51562Q568.4 195.04688 568.9 195.34375Q569.41565 195.625 570.15 195.625Q571.4 195.625 571.9313 195.0625Q572.4625 194.48438 572.4625 192.85938L572.4625 187.90625ZM577.9938 195.5625L578.15 196.48438Q577.6969 196.57812 577.35315 196.57812Q576.775 196.57812 576.4625 196.40625Q576.15 196.21875 576.0094 195.92188Q575.8844 195.625 575.8844 194.67188L575.8844 191.09375L575.1188 191.09375L575.1188 190.28125L575.8844 190.28125L575.8844 188.73438L576.9313 188.10938L576.9313 190.28125L577.9938 190.28125L577.9938 191.09375L576.9313 191.09375L576.9313 194.73438Q576.9313 195.1875 576.97815 195.3125Q577.04065 195.4375 577.16565 195.51562Q577.29065 195.59375 577.525 195.59375Q577.7125 195.59375 577.9938 195.5625ZM582.7594 195.73438Q582.16565 196.23438 581.6188 196.4375Q581.0875 196.64062 580.4625 196.64062Q579.4313 196.64062 578.8844 196.14062Q578.3375 195.64062 578.3375 194.85938Q578.3375 194.40625 578.54065 194.03125Q578.7438 193.64062 579.0875 193.42188Q579.4313 193.1875 579.85315 193.07812Q580.15 192.98438 580.79065 192.90625Q582.0563 192.76562 582.66565 192.54688Q582.66565 192.32812 582.66565 192.28125Q582.66565 191.625 582.3688 191.35938Q581.9625 191.01562 581.16565 191.01562Q580.4313 191.01562 580.0719 191.28125Q579.7125 191.53125 579.54065 192.1875L578.5094 192.04688Q578.65 191.39062 578.97815 190.98438Q579.3063 190.57812 579.91565 190.35938Q580.525 190.14062 581.3219 190.14062Q582.1188 190.14062 582.6188 190.32812Q583.1188 190.51562 583.35315 190.79688Q583.5875 191.07812 583.6813 191.51562Q583.72815 191.78125 583.72815 192.48438L583.72815 193.89062Q583.72815 195.35938 583.79065 195.75Q583.8688 196.14062 584.0719 196.5L582.9625 196.5Q582.8063 196.17188 582.7594 195.73438ZM582.66565 193.375Q582.0875 193.60938 580.9469 193.78125Q580.29065 193.875 580.025 194.0Q579.7594 194.10938 579.60315 194.32812Q579.4625 194.54688 579.4625 194.82812Q579.4625 195.25 579.775 195.53125Q580.10315 195.8125 580.7125 195.8125Q581.3219 195.8125 581.79065 195.54688Q582.275 195.28125 582.4938 194.8125Q582.66565 194.45312 582.66565 193.76562L582.66565 193.375ZM585.6969 196.5L585.6969 187.90625L586.7438 187.90625L586.7438 190.98438Q587.47815 190.14062 588.60315 190.14062Q589.3063 190.14062 589.8063 190.42188Q590.3219 190.6875 590.54065 191.17188Q590.7594 191.64062 590.7594 192.5625L590.7594 196.5L589.7125 196.5L589.7125 192.5625Q589.7125 191.76562 589.3688 191.40625Q589.025 191.04688 588.4 191.04688Q587.9313 191.04688 587.5094 191.29688Q587.10315 191.53125 586.91565 191.95312Q586.7438 192.35938 586.7438 193.09375L586.7438 196.5L585.6969 196.5ZM601.9625 193.48438L603.0875 193.78125Q602.72815 195.17188 601.8063 195.90625Q600.8844 196.64062 599.54065 196.64062Q598.15 196.64062 597.275 196.07812Q596.4 195.51562 595.9469 194.45312Q595.4938 193.375 595.4938 192.14062Q595.4938 190.79688 596.0094 189.79688Q596.525 188.79688 597.4625 188.28125Q598.41565 187.76562 599.5563 187.76562Q600.8375 187.76562 601.7125 188.42188Q602.60315 189.07812 602.9469 190.26562L601.8219 190.53125Q601.525 189.59375 600.9469 189.17188Q600.3844 188.73438 599.525 188.73438Q598.54065 188.73438 597.8688 189.21875Q597.2125 189.6875 596.9313 190.48438Q596.66565 191.28125 596.66565 192.14062Q596.66565 193.23438 596.97815 194.04688Q597.3063 194.85938 597.97815 195.26562Q598.65 195.67188 599.4469 195.67188Q600.4 195.67188 601.0563 195.125Q601.72815 194.57812 601.9625 193.48438ZM604.3063 193.39062Q604.3063 191.65625 605.2594 190.82812Q606.0563 190.14062 607.2125 190.14062Q608.4938 190.14062 609.3063 190.98438Q610.1344 191.8125 610.1344 193.29688Q610.1344 194.5 609.775 195.1875Q609.41565 195.875 608.7125 196.26562Q608.025 196.64062 607.2125 196.64062Q605.91565 196.64062 605.10315 195.8125Q604.3063 194.96875 604.3063 193.39062ZM605.3844 193.39062Q605.3844 194.57812 605.9 195.17188Q606.4313 195.76562 607.2125 195.76562Q608.0094 195.76562 608.525 195.17188Q609.04065 194.57812 609.04065 193.35938Q609.04065 192.20312 608.5094 191.60938Q607.9938 191.01562 607.2125 191.01562Q606.4313 191.01562 605.9 191.60938Q605.3844 192.1875 605.3844 193.39062ZM615.775 196.5L615.775 195.57812Q615.04065 196.64062 613.79065 196.64062Q613.2438 196.64062 612.7594 196.4375Q612.29065 196.21875 612.0563 195.90625Q611.8219 195.57812 611.72815 195.10938Q611.66565 194.8125 611.66565 194.125L611.66565 190.28125L612.72815 190.28125L612.72815 193.73438Q612.72815 194.54688 612.79065 194.84375Q612.8844 195.25 613.1969 195.5Q613.525 195.73438 614.0094 195.73438Q614.47815 195.73438 614.8844 195.5Q615.3063 195.25 615.47815 194.82812Q615.66565 194.40625 615.66565 193.60938L615.66565 190.28125L616.7125 190.28125L616.7125 196.5L615.775 196.5ZM618.6969 196.5L618.6969 190.28125L619.6344 190.28125L619.6344 191.15625Q620.3219 190.14062 621.6188 190.14062Q622.1813 190.14062 622.65 190.34375Q623.1344 190.54688 623.3688 190.875Q623.60315 191.20312 623.6969 191.64062Q623.7438 191.9375 623.7438 192.67188L623.7438 196.5L622.6969 196.5L622.6969 192.71875Q622.6969 192.0625 622.5719 191.75Q622.4469 191.4375 622.1344 191.25Q621.8219 191.04688 621.4 191.04688Q620.72815 191.04688 620.22815 191.48438Q619.7438 191.90625 619.7438 193.09375L619.7438 196.5L618.6969 196.5ZM627.9938 195.5625L628.15 196.48438Q627.6969 196.57812 627.35315 196.57812Q626.775 196.57812 626.4625 196.40625Q626.15 196.21875 626.0094 195.92188Q625.8844 195.625 625.8844 194.67188L625.8844 191.09375L625.1188 191.09375L625.1188 190.28125L625.8844 190.28125L625.8844 188.73438L626.9313 188.10938L626.9313 190.28125L627.9938 190.28125L627.9938 191.09375L626.9313 191.09375L626.9313 194.73438Q626.9313 195.1875 626.97815 195.3125Q627.04065 195.4375 627.16565 195.51562Q627.29065 195.59375 627.525 195.59375Q627.7125 195.59375 627.9938 195.5625ZM628.65 198.89062L628.525 197.90625Q628.8688 198.0 629.1344 198.0Q629.47815 198.0 629.6813 197.875Q629.9 197.76562 630.04065 197.5625Q630.1344 197.39062 630.3688 196.76562Q630.3844 196.6875 630.4625 196.51562L628.0875 190.28125L629.22815 190.28125L630.525 193.875Q630.775 194.5625 630.97815 195.32812Q631.16565 194.59375 631.41565 193.90625L632.7438 190.28125L633.79065 190.28125L631.4313 196.60938Q631.04065 197.625 630.8375 198.01562Q630.5563 198.54688 630.1813 198.78125Q629.8219 199.03125 629.3219 199.03125Q629.025 199.03125 628.65 198.89062Z" fill-rule="nonzero"/><path fill="#9e9e9e" d="M598.4 211.25L599.5094 211.15625Q599.6344 211.96875 600.0719 212.375Q600.525 212.78125 601.16565 212.78125Q601.91565 212.78125 602.4469 212.20312Q602.97815 211.625 602.97815 210.6875Q602.97815 209.78125 602.4625 209.26562Q601.9625 208.73438 601.1344 208.73438Q600.6344 208.73438 600.2125 208.96875Q599.8063 209.20312 599.5719 209.5625L598.5875 209.4375L599.41565 205.03125L603.6969 205.03125L603.6969 206.03125L600.2594 206.03125L599.8063 208.34375Q600.5719 207.79688 601.41565 207.79688Q602.54065 207.79688 603.3063 208.57812Q604.0875 209.35938 604.0875 210.59375Q604.0875 211.75 603.41565 212.60938Q602.5875 213.64062 601.16565 213.64062Q599.9938 213.64062 599.2438 212.98438Q598.5094 212.32812 598.4 211.25ZM605.4 209.26562Q605.4 207.73438 605.7125 206.8125Q606.025 205.875 606.6344 205.375Q607.2594 204.875 608.1969 204.875Q608.8844 204.875 609.4 205.15625Q609.9313 205.4375 610.275 205.96875Q610.6188 206.48438 610.8063 207.23438Q610.9938 207.98438 610.9938 209.26562Q610.9938 210.78125 610.6813 211.70312Q610.3844 212.625 609.7594 213.14062Q609.15 213.64062 608.1969 213.64062Q606.9625 213.64062 606.2438 212.75Q605.4 211.6875 605.4 209.26562ZM606.47815 209.26562Q606.47815 211.375 606.97815 212.07812Q607.47815 212.78125 608.1969 212.78125Q608.9313 212.78125 609.41565 212.07812Q609.91565 211.375 609.91565 209.26562Q609.91565 207.14062 609.41565 206.45312Q608.9313 205.75 608.1813 205.75Q607.4625 205.75 607.025 206.35938Q606.47815 207.14062 606.47815 209.26562ZM612.9938 213.5L612.9938 212.29688L614.1969 212.29688L614.1969 213.5L612.9938 213.5ZM615.4 209.26562Q615.4 207.73438 615.7125 206.8125Q616.025 205.875 616.6344 205.375Q617.2594 204.875 618.1969 204.875Q618.8844 204.875 619.4 205.15625Q619.9313 205.4375 620.275 205.96875Q620.6188 206.48438 620.8063 207.23438Q620.9938 207.98438 620.9938 209.26562Q620.9938 210.78125 620.6813 211.70312Q620.3844 212.625 619.7594 213.14062Q619.15 213.64062 618.1969 213.64062Q616.9625 213.64062 616.2438 212.75Q615.4 211.6875 615.4 209.26562ZM616.47815 209.26562Q616.47815 211.375 616.97815 212.07812Q617.47815 212.78125 618.1969 212.78125Q618.9313 212.78125 619.41565 212.07812Q619.91565 211.375 619.91565 209.26562Q619.91565 207.14062 619.41565 206.45312Q618.9313 205.75 618.1813 205.75Q617.4625 205.75 617.025 206.35938Q616.47815 207.14062 616.47815 209.26562ZM622.60315 206.96875Q622.60315 206.04688 623.0563 205.40625Q623.525 204.76562 624.4 204.76562Q625.2125 204.76562 625.7438 205.34375Q626.275 205.92188 626.275 207.03125Q626.275 208.125 625.72815 208.71875Q625.1969 209.29688 624.41565 209.29688Q623.6344 209.29688 623.1188 208.71875Q622.60315 208.14062 622.60315 206.96875ZM624.4313 205.48438Q624.04065 205.48438 623.775 205.82812Q623.525 206.17188 623.525 207.07812Q623.525 207.90625 623.775 208.25Q624.04065 208.57812 624.4313 208.57812Q624.8375 208.57812 625.0875 208.23438Q625.35315 207.89062 625.35315 207.0Q625.35315 206.15625 625.0875 205.82812Q624.8219 205.48438 624.4313 205.48438ZM624.4313 213.8125L629.1344 204.76562L629.9938 204.76562L625.3063 213.8125L624.4313 213.8125ZM628.15 211.48438Q628.15 210.5625 628.60315 209.92188Q629.0719 209.28125 629.9625 209.28125Q630.775 209.28125 631.3063 209.85938Q631.8375 210.42188 631.8375 211.54688Q631.8375 212.64062 631.29065 213.23438Q630.7594 213.8125 629.9625 213.8125Q629.1969 213.8125 628.66565 213.23438Q628.15 212.65625 628.15 211.48438ZM629.9938 210.0Q629.5875 210.0 629.3219 210.34375Q629.0719 210.6875 629.0719 211.59375Q629.0719 212.40625 629.3375 212.75Q629.60315 213.09375 629.9938 213.09375Q630.3844 213.09375 630.65 212.75Q630.91565 212.40625 630.91565 211.5Q630.91565 210.67188 630.65 210.34375Q630.3844 210.0 629.9938 210.0Z" fill-rule="nonzero"/><path stroke="#757575" stroke-width="1.0" stroke-linecap="butt" d="M632.9 201.0L513.4 201.0L498.355 201.0" fill-rule="nonzero"/><path fill="#9e9e9e" d="M500.355 201.0C500.355 199.89543 499.45956 199.0 498.355 199.0C497.25043 199.0 496.355 199.89543 496.355 201.0C496.355 202.10457 497.25043 203.0 498.355 203.0C499.45956 203.0 500.355 202.10457 500.355 201.0" fill-rule="nonzero"/></svg>