<svg version="1.1" viewBox="0.0 0.0 893.0 371.0" fill="none" stroke="none" stroke-linecap="square" stroke-miterlimit="10" width="893" height="371" xmlns:xlink="http://www.w3.org/1999/xlink" xmlns="http://www.w3.org/2000/svg"><path fill="#ffffff" d="M0 0L893.0 0L893.0 371.0L0 371.0L0 0Z" fill-rule="nonzero"/><path fill="#fbbc04" d="M347.46005 92.67607C374.7178 68.35689 409.97046 54.916668 446.5 54.916668L446.5 203.68333Z" fill-rule="nonzero"/><path fill="#ea4335" d="M426.24295 351.0644C368.76376 343.16406 321.12195 302.56778 304.20078 247.07053C287.2796 191.57329 304.1668 131.30202 347.46005 92.67607L446.5 203.68333Z" fill-rule="nonzero"/><path fill="#4285f4" d="M446.5 54.916668C502.07663 54.916668 553.01886 85.89533 578.5877 135.241C604.15656 184.58665 600.0878 244.06972 568.0379 289.47415C535.9879 334.87857 481.3019 358.63205 426.24295 351.0644L446.5 203.68333Z" fill-rule="nonzero"/><path fill="#1a1a1a" d="M19.675 67.12701L19.675 58.533257L20.8 58.533257L20.8 67.12701L19.675 67.12701ZM29.409374 66.36138Q28.815624 66.86138 28.26875 67.06451Q27.7375 67.26763 27.1125 67.26763Q26.08125 67.26763 25.534374 66.76763Q24.9875 66.26763 24.9875 65.48638Q24.9875 65.03326 25.190624 64.65826Q25.39375 64.26763 25.7375 64.04888Q26.08125 63.814507 26.503124 63.70513Q26.8 63.61138 27.440624 63.533257Q28.70625 63.39263 29.315624 63.17388Q29.315624 62.95513 29.315624 62.908257Q29.315624 62.252007 29.01875 61.98638Q28.6125 61.64263 27.815624 61.64263Q27.08125 61.64263 26.721874 61.908257Q26.3625 62.158257 26.190624 62.814507L25.159374 62.67388Q25.3 62.01763 25.628124 61.61138Q25.95625 61.20513 26.565624 60.98638Q27.175 60.76763 27.971874 60.76763Q28.76875 60.76763 29.26875 60.95513Q29.76875 61.14263 30.003124 61.42388Q30.2375 61.70513 30.33125 62.14263Q30.378124 62.408257 30.378124 63.11138L30.378124 64.51763Q30.378124 65.98638 30.440624 66.37701Q30.51875 66.76763 30.721874 67.12701L29.6125 67.12701Q29.45625 66.79888 29.409374 66.36138ZM29.315624 64.00201Q28.7375 64.23638 27.596874 64.40826Q26.940624 64.50201 26.675 64.62701Q26.409374 64.73638 26.253124 64.95513Q26.1125 65.17388 26.1125 65.45513Q26.1125 65.87701 26.425 66.15826Q26.753124 66.43951 27.3625 66.43951Q27.971874 66.43951 28.440624 66.17388Q28.925 65.90826 29.14375 65.43951Q29.315624 65.08013 29.315624 64.39263L29.315624 64.00201ZM32.346874 67.12701L32.346874 60.908257L33.284374 60.908257L33.284374 61.783257Q33.58125 61.314507 34.065624 61.04888Q34.55 60.76763 35.175 60.76763Q35.8625 60.76763 36.3 61.04888Q36.753124 61.33013 36.925 61.845757Q37.675 60.76763 38.846874 60.76763Q39.784374 60.76763 40.26875 61.283257Q40.76875 61.783257 40.76875 62.86138L40.76875 67.12701L39.721874 67.12701L39.721874 63.20513Q39.721874 62.58013 39.6125 62.29888Q39.51875 62.01763 39.253124 61.845757Q38.9875 61.67388 38.6125 61.67388Q37.95625 61.67388 37.51875 62.11138Q37.096874 62.54888 37.096874 63.51763L37.096874 67.12701L36.034374 67.12701L36.034374 63.08013Q36.034374 62.377007 35.76875 62.033257Q35.51875 61.67388 34.940624 61.67388Q34.4875 61.67388 34.1125 61.908257Q33.7375 62.14263 33.565624 62.595757Q33.39375 63.04888 33.39375 63.89263L33.39375 67.12701L32.346874 67.12701ZM46.346874 67.12701L46.346874 60.908257L47.284374 60.908257L47.284374 61.783257Q47.971874 60.76763 49.26875 60.76763Q49.83125 60.76763 50.3 60.970757Q50.784374 61.17388 51.01875 61.502007Q51.253124 61.83013 51.346874 62.26763Q51.39375 62.564507 51.39375 63.29888L51.39375 67.12701L50.346874 67.12701L50.346874 63.345757Q50.346874 62.689507 50.221874 62.377007Q50.096874 62.064507 49.784374 61.877007Q49.471874 61.67388 49.05 61.67388Q48.378124 61.67388 47.878124 62.11138Q47.39375 62.533257 47.39375 63.720757L47.39375 67.12701L46.346874 67.12701ZM52.95625 64.01763Q52.95625 62.283257 53.909374 61.45513Q54.70625 60.76763 55.8625 60.76763Q57.14375 60.76763 57.95625 61.61138Q58.784374 62.439507 58.784374 63.92388Q58.784374 65.12701 58.425 65.81451Q58.065624 66.50201 57.3625 66.89263Q56.675 67.26763 55.8625 67.26763Q54.565624 67.26763 53.753124 66.43951Q52.95625 65.59576 52.95625 64.01763ZM54.034374 64.01763Q54.034374 65.20513 54.55 65.79888Q55.08125 66.39263 55.8625 66.39263Q56.659374 66.39263 57.175 65.79888Q57.690624 65.20513 57.690624 63.98638Q57.690624 62.83013 57.159374 62.23638Q56.64375 61.64263 55.8625 61.64263Q55.08125 61.64263 54.55 62.23638Q54.034374 62.814507 54.034374 64.01763ZM62.64375 66.18951L62.8 67.11138Q62.346874 67.20513 62.003124 67.20513Q61.425 67.20513 61.1125 67.03326Q60.8 66.84576 60.659374 66.54888Q60.534374 66.25201 60.534374 65.29888L60.534374 61.720757L59.76875 61.720757L59.76875 60.908257L60.534374 60.908257L60.534374 59.36138L61.58125 58.73638L61.58125 60.908257L62.64375 60.908257L62.64375 61.720757L61.58125 61.720757L61.58125 65.36138Q61.58125 65.81451 61.628124 65.93951Q61.690624 66.06451 61.815624 66.14263Q61.940624 66.22076 62.175 66.22076Q62.3625 66.22076 62.64375 66.18951ZM66.34688 59.752007L66.34688 58.533257L67.40938 58.533257L67.40938 59.752007L66.34688 59.752007ZM66.34688 67.12701L66.34688 60.908257L67.40938 60.908257L67.40938 67.12701L66.34688 67.12701ZM69.34688 67.12701L69.34688 60.908257L70.28438 60.908257L70.28438 61.783257Q70.97188 60.76763 72.26875 60.76763Q72.83125 60.76763 73.3 60.970757Q73.78438 61.17388 74.01875 61.502007Q74.25313 61.83013 74.34688 62.26763Q74.39375 62.564507 74.39375 63.29888L74.39375 67.12701L73.34688 67.12701L73.34688 63.345757Q73.34688 62.689507 73.22188 62.377007Q73.09688 62.064507 72.78438 61.877007Q72.47188 61.67388 72.05 61.67388Q71.37813 61.67388 70.87813 62.11138Q70.39375 62.533257 70.39375 63.720757L70.39375 67.12701L69.34688 67.12701ZM85.1125 58.533257L86.25313 58.533257L86.25313 63.502007Q86.25313 64.79888 85.95625 65.56451Q85.65938 66.31451 84.89375 66.79888Q84.12813 67.26763 82.89375 67.26763Q81.69063 67.26763 80.90938 66.86138Q80.14375 66.43951 79.81563 65.65826Q79.4875 64.86138 79.4875 63.502007L79.4875 58.533257L80.62813 58.533257L80.62813 63.48638Q80.62813 64.61138 80.83125 65.14263Q81.05 65.67388 81.55 65.97076Q82.06563 66.25201 82.8 66.25201Q84.05 66.25201 84.58125 65.68951Q85.1125 65.11138 85.1125 63.48638L85.1125 58.533257ZM90.64375 66.18951L90.8 67.11138Q90.34688 67.20513 90.00313 67.20513Q89.425 67.20513 89.1125 67.03326Q88.8 66.84576 88.65938 66.54888Q88.53438 66.25201 88.53438 65.29888L88.53438 61.720757L87.76875 61.720757L87.76875 60.908257L88.53438 60.908257L88.53438 59.36138L89.58125 58.73638L89.58125 60.908257L90.64375 60.908257L90.64375 61.720757L89.58125 61.720757L89.58125 65.36138Q89.58125 65.81451 89.62813 65.93951Q89.69063 66.06451 89.81563 66.14263Q89.94063 66.22076 90.175 66.22076Q90.3625 66.22076 90.64375 66.18951ZM95.40938 66.36138Q94.81563 66.86138 94.26875 67.06451Q93.7375 67.26763 93.1125 67.26763Q92.08125 67.26763 91.53438 66.76763Q90.9875 66.26763 90.9875 65.48638Q90.9875 65.03326 91.19063 64.65826Q91.39375 64.26763 91.7375 64.04888Q92.08125 63.814507 92.50313 63.70513Q92.8 63.61138 93.44063 63.533257Q94.70625 63.39263 95.31563 63.17388Q95.31563 62.95513 95.31563 62.908257Q95.31563 62.252007 95.01875 61.98638Q94.6125 61.64263 93.81563 61.64263Q93.08125 61.64263 92.72188 61.908257Q92.3625 62.158257 92.19063 62.814507L91.15938 62.67388Q91.3 62.01763 91.62813 61.61138Q91.95625 61.20513 92.56563 60.98638Q93.175 60.76763 93.97188 60.76763Q94.76875 60.76763 95.26875 60.95513Q95.76875 61.14263 96.00313 61.42388Q96.2375 61.70513 96.33125 62.14263Q96.37813 62.408257 96.37813 63.11138L96.37813 64.51763Q96.37813 65.98638 96.44063 66.37701Q96.51875 66.76763 96.72188 67.12701L95.6125 67.12701Q95.45625 66.79888 95.40938 66.36138ZM95.31563 64.00201Q94.7375 64.23638 93.59688 64.40826Q92.94063 64.50201 92.675 64.62701Q92.40938 64.73638 92.25313 64.95513Q92.1125 65.17388 92.1125 65.45513Q92.1125 65.87701 92.425 66.15826Q92.75313 66.43951 93.3625 66.43951Q93.97188 66.43951 94.44063 66.17388Q94.925 65.90826 95.14375 65.43951Q95.31563 65.08013 95.31563 64.39263L95.31563 64.00201ZM98.34688 67.12701L98.34688 58.533257L99.39375 58.533257L99.39375 61.61138Q100.12813 60.76763 101.25313 60.76763Q101.95625 60.76763 102.45625 61.04888Q102.97188 61.314507 103.19063 61.79888Q103.40938 62.26763 103.40938 63.189507L103.40938 67.12701L102.3625 67.12701L102.3625 63.189507Q102.3625 62.39263 102.01875 62.033257Q101.675 61.67388 101.05 61.67388Q100.58125 61.67388 100.15938 61.92388Q99.75313 62.158257 99.56563 62.58013Q99.39375 62.98638 99.39375 63.720757L99.39375 67.12701L98.34688 67.12701ZM112.40938 66.36138Q111.81563 66.86138 111.26875 67.06451Q110.7375 67.26763 110.1125 67.26763Q109.08125 67.26763 108.53438 66.76763Q107.9875 66.26763 107.9875 65.48638Q107.9875 65.03326 108.19063 64.65826Q108.39375 64.26763 108.7375 64.04888Q109.08125 63.814507 109.50313 63.70513Q109.8 63.61138 110.44063 63.533257Q111.70625 63.39263 112.31563 63.17388Q112.31563 62.95513 112.31563 62.908257Q112.31563 62.252007 112.01875 61.98638Q111.6125 61.64263 110.81563 61.64263Q110.08125 61.64263 109.72188 61.908257Q109.3625 62.158257 109.19063 62.814507L108.15938 62.67388Q108.3 62.01763 108.62813 61.61138Q108.95625 61.20513 109.56563 60.98638Q110.175 60.76763 110.97188 60.76763Q111.76875 60.76763 112.26875 60.95513Q112.76875 61.14263 113.00313 61.42388Q113.2375 61.70513 113.33125 62.14263Q113.37813 62.408257 113.37813 63.11138L113.37813 64.51763Q113.37813 65.98638 113.44063 66.37701Q113.51875 66.76763 113.72188 67.12701L112.6125 67.12701Q112.45625 66.79888 112.40938 66.36138ZM112.31563 64.00201Q111.7375 64.23638 110.59688 64.40826Q109.94063 64.50201 109.675 64.62701Q109.40938 64.73638 109.25313 64.95513Q109.1125 65.17388 109.1125 65.45513Q109.1125 65.87701 109.425 66.15826Q109.75313 66.43951 110.3625 66.43951Q110.97188 66.43951 111.44063 66.17388Q111.925 65.90826 112.14375 65.43951Q112.31563 65.08013 112.31563 64.39263L112.31563 64.00201ZM115.34688 67.12701L115.34688 60.908257L116.28438 60.908257L116.28438 61.783257Q116.97188 60.76763 118.26875 60.76763Q118.83125 60.76763 119.3 60.970757Q119.78438 61.17388 120.01875 61.502007Q120.25313 61.83013 120.34688 62.26763Q120.39375 62.564507 120.39375 63.29888L120.39375 67.12701L119.34688 67.12701L119.34688 63.345757Q119.34688 62.689507 119.22188 62.377007Q119.09688 62.064507 118.78438 61.877007Q118.47188 61.67388 118.05 61.67388Q117.37813 61.67388 116.87813 62.11138Q116.39375 62.533257 116.39375 63.720757L116.39375 67.12701L115.34688 67.12701ZM126.37813 67.12701L126.37813 66.34576Q125.78438 67.26763 124.64375 67.26763Q123.89375 67.26763 123.26875 66.86138Q122.64375 66.43951 122.3 65.70513Q121.95625 64.97076 121.95625 64.01763Q121.95625 63.095757 122.26875 62.33013Q122.58125 61.564507 123.20625 61.17388Q123.83125 60.76763 124.59688 60.76763Q125.15938 60.76763 125.59688 61.002007Q126.03438 61.23638 126.31563 61.61138L126.31563 58.533257L127.3625 58.533257L127.3625 67.12701L126.37813 67.12701ZM123.05 64.01763Q123.05 65.22076 123.55 65.81451Q124.05 66.39263 124.7375 66.39263Q125.425 66.39263 125.90938 65.83013Q126.39375 65.26763 126.39375 64.11138Q126.39375 62.83013 125.89375 62.23638Q125.40938 61.64263 124.69063 61.64263Q123.9875 61.64263 123.51875 62.220757Q123.05 62.783257 123.05 64.01763ZM132.34688 67.12701L132.34688 60.908257L133.28438 60.908257L133.28438 61.783257Q133.58125 61.314507 134.06563 61.04888Q134.55 60.76763 135.175 60.76763Q135.8625 60.76763 136.3 61.04888Q136.75313 61.33013 136.925 61.845757Q137.675 60.76763 138.84688 60.76763Q139.78438 60.76763 140.26875 61.283257Q140.76875 61.783257 140.76875 62.86138L140.76875 67.12701L139.72188 67.12701L139.72188 63.20513Q139.72188 62.58013 139.6125 62.29888Q139.51875 62.01763 139.25313 61.845757Q138.9875 61.67388 138.6125 61.67388Q137.95625 61.67388 137.51875 62.11138Q137.09688 62.54888 137.09688 63.51763L137.09688 67.12701L136.03438 67.12701L136.03438 63.08013Q136.03438 62.377007 135.76875 62.033257Q135.51875 61.67388 134.94063 61.67388Q134.4875 61.67388 134.1125 61.908257Q133.7375 62.14263 133.56563 62.595757Q133.39375 63.04888 133.39375 63.89263L133.39375 67.12701L132.34688 67.12701ZM143.3 69.51763L143.175 68.53326Q143.51875 68.62701 143.78438 68.62701Q144.12813 68.62701 144.33125 68.50201Q144.55 68.39263 144.69063 68.18951Q144.78438 68.01763 145.01875 67.39263Q145.03438 67.31451 145.1125 67.14263L142.7375 60.908257L143.87813 60.908257L145.175 64.50201Q145.425 65.18951 145.62813 65.95513Q145.81563 65.22076 146.06563 64.53326L147.39375 60.908257L148.44063 60.908257L146.08125 67.23638Q145.69063 68.25201 145.4875 68.64263Q145.20625 69.17388 144.83125 69.40826Q144.47188 69.65826 143.97188 69.65826Q143.675 69.65826 143.3 69.51763ZM155.59688 65.12701L156.69063 65.25201Q156.44063 66.20513 155.7375 66.73638Q155.03438 67.26763 153.95625 67.26763Q152.59688 67.26763 151.78438 66.42388Q150.9875 65.58013 150.9875 64.06451Q150.9875 62.502007 151.8 61.64263Q152.6125 60.76763 153.89375 60.76763Q155.14375 60.76763 155.925 61.61138Q156.72188 62.45513 156.72188 64.00201Q156.72188 64.09576 156.72188 64.28326L152.08125 64.28326Q152.14375 65.31451 152.65938 65.86138Q153.175 66.39263 153.95625 66.39263Q154.53438 66.39263 154.94063 66.09576Q155.3625 65.78326 155.59688 65.12701ZM152.14375 63.42388L155.6125 63.42388Q155.55 62.627007 155.22188 62.23638Q154.70625 61.627007 153.90938 61.627007Q153.175 61.627007 152.675 62.11138Q152.19063 62.595757 152.14375 63.42388ZM158.34688 67.12701L158.34688 60.908257L159.28438 60.908257L159.28438 61.783257Q159.58125 61.314507 160.06563 61.04888Q160.55 60.76763 161.175 60.76763Q161.8625 60.76763 162.3 61.04888Q162.75313 61.33013 162.925 61.845757Q163.675 60.76763 164.84688 60.76763Q165.78438 60.76763 166.26875 61.283257Q166.76875 61.783257 166.76875 62.86138L166.76875 67.12701L165.72188 67.12701L165.72188 63.20513Q165.72188 62.58013 165.6125 62.29888Q165.51875 62.01763 165.25313 61.845757Q164.9875 61.67388 164.6125 61.67388Q163.95625 61.67388 163.51875 62.11138Q163.09688 62.54888 163.09688 63.51763L163.09688 67.12701L162.03438 67.12701L162.03438 63.08013Q162.03438 62.377007 161.76875 62.033257Q161.51875 61.67388 160.94063 61.67388Q160.4875 61.67388 160.1125 61.908257Q159.7375 62.14263 159.56563 62.595757Q159.39375 63.04888 159.39375 63.89263L159.39375 67.12701L158.34688 67.12701ZM169.34688 69.51763L169.34688 60.908257L170.3 60.908257L170.3 61.70513Q170.64375 61.23638 171.06563 61.002007Q171.50313 60.76763 172.1125 60.76763Q172.90938 60.76763 173.51875 61.17388Q174.12813 61.58013 174.425 62.33013Q174.7375 63.08013 174.7375 63.970757Q174.7375 64.92388 174.39375 65.68951Q174.06563 66.45513 173.40938 66.86138Q172.75313 67.26763 172.03438 67.26763Q171.50313 67.26763 171.08125 67.04888Q170.65938 66.81451 170.39375 66.48638L170.39375 69.51763L169.34688 69.51763ZM170.3 64.04888Q170.3 65.25201 170.78438 65.83013Q171.26875 66.39263 171.95625 66.39263Q172.65938 66.39263 173.15938 65.79888Q173.65938 65.20513 173.65938 63.95513Q173.65938 62.76763 173.175 62.189507Q172.69063 61.595757 172.00313 61.595757Q171.33125 61.595757 170.81563 62.220757Q170.3 62.845757 170.3 64.04888ZM176.31563 67.12701L176.31563 58.533257L177.37813 58.533257L177.37813 67.12701L176.31563 67.12701ZM178.95625 64.01763Q178.95625 62.283257 179.90938 61.45513Q180.70625 60.76763 181.8625 60.76763Q183.14375 60.76763 183.95625 61.61138Q184.78438 62.439507 184.78438 63.92388Q184.78438 65.12701 184.425 65.81451Q184.06563 66.50201 183.3625 66.89263Q182.675 67.26763 181.8625 67.26763Q180.56563 67.26763 179.75313 66.43951Q178.95625 65.59576 178.95625 64.01763ZM180.03438 64.01763Q180.03438 65.20513 180.55 65.79888Q181.08125 66.39263 181.8625 66.39263Q182.65938 66.39263 183.175 65.79888Q183.69063 65.20513 183.69063 63.98638Q183.69063 62.83013 183.15938 62.23638Q182.64375 61.64263 181.8625 61.64263Q181.08125 61.64263 180.55 62.23638Q180.03438 62.814507 180.03438 64.01763ZM186.3 69.51763L186.175 68.53326Q186.51875 68.62701 186.78438 68.62701Q187.12813 68.62701 187.33125 68.50201Q187.55 68.39263 187.69063 68.18951Q187.78438 68.01763 188.01875 67.39263Q188.03438 67.31451 188.1125 67.14263L185.7375 60.908257L186.87813 60.908257L188.175 64.50201Q188.425 65.18951 188.62813 65.95513Q188.81563 65.22076 189.06563 64.53326L190.39375 60.908257L191.44063 60.908257L189.08125 67.23638Q188.69063 68.25201 188.4875 68.64263Q188.20625 69.17388 187.83125 69.40826Q187.47188 69.65826 186.97188 69.65826Q186.675 69.65826 186.3 69.51763ZM195.59688 65.12701L196.69063 65.25201Q196.44063 66.20513 195.7375 66.73638Q195.03438 67.26763 193.95625 67.26763Q192.59688 67.26763 191.78438 66.42388Q190.9875 65.58013 190.9875 64.06451Q190.9875 62.502007 191.8 61.64263Q192.6125 60.76763 193.89375 60.76763Q195.14375 60.76763 195.925 61.61138Q196.72188 62.45513 196.72188 64.00201Q196.72188 64.09576 196.72188 64.28326L192.08125 64.28326Q192.14375 65.31451 192.65938 65.86138Q193.175 66.39263 193.95625 66.39263Q194.53438 66.39263 194.94063 66.09576Q195.3625 65.78326 195.59688 65.12701ZM192.14375 63.42388L195.6125 63.42388Q195.55 62.627007 195.22188 62.23638Q194.70625 61.627007 193.90938 61.627007Q193.175 61.627007 192.675 62.11138Q192.19063 62.595757 192.14375 63.42388ZM198.33125 67.12701L198.33125 60.908257L199.28438 60.908257L199.28438 61.845757Q199.64375 61.189507 199.94063 60.98638Q200.25313 60.76763 200.62813 60.76763Q201.15938 60.76763 201.70625 61.095757L201.34688 62.08013Q200.95625 61.845757 200.58125 61.845757Q200.22188 61.845757 199.94063 62.064507Q199.675 62.26763 199.56563 62.64263Q199.37813 63.20513 199.37813 63.86138L199.37813 67.12701L198.33125 67.12701ZM205.34688 59.752007L205.34688 58.533257L206.40938 58.533257L206.40938 59.752007L205.34688 59.752007ZM205.34688 67.12701L205.34688 60.908257L206.40938 60.908257L206.40938 67.12701L205.34688 67.12701ZM207.925 65.26763L208.95625 65.11138Q209.05 65.73638 209.44063 66.06451Q209.84688 66.39263 210.58125 66.39263Q211.3 66.39263 211.64375 66.11138Q212.00313 65.81451 212.00313 65.40826Q212.00313 65.04888 211.69063 64.84576Q211.47188 64.70513 210.6125 64.48638Q209.45625 64.18951 209.00313 63.98638Q208.56563 63.76763 208.33125 63.39263Q208.09688 63.01763 208.09688 62.54888Q208.09688 62.14263 208.28438 61.783257Q208.47188 61.42388 208.8 61.189507Q209.05 61.01763 209.47188 60.89263Q209.89375 60.76763 210.39375 60.76763Q211.1125 60.76763 211.65938 60.98638Q212.22188 61.189507 212.4875 61.54888Q212.75313 61.908257 212.84688 62.502007L211.81563 62.64263Q211.75313 62.17388 211.40938 61.908257Q211.08125 61.627007 210.45625 61.627007Q209.7375 61.627007 209.425 61.877007Q209.1125 62.11138 209.1125 62.439507Q209.1125 62.64263 209.2375 62.79888Q209.37813 62.970757 209.64375 63.08013Q209.8 63.14263 210.58125 63.345757Q211.70625 63.658257 212.14375 63.845757Q212.58125 64.03326 212.83125 64.39263Q213.08125 64.75201 213.08125 65.29888Q213.08125 65.83013 212.76875 66.29888Q212.47188 66.75201 211.89375 67.01763Q211.31563 67.26763 210.58125 67.26763Q209.3625 67.26763 208.72188 66.76763Q208.09688 66.25201 207.925 65.26763ZM218.34688 67.12701L218.34688 60.908257L219.28438 60.908257L219.28438 61.783257Q219.97188 60.76763 221.26875 60.76763Q221.83125 60.76763 222.3 60.970757Q222.78438 61.17388 223.01875 61.502007Q223.25313 61.83013 223.34688 62.26763Q223.39375 62.564507 223.39375 63.29888L223.39375 67.12701L222.34688 67.12701L222.34688 63.345757Q222.34688 62.689507 222.22188 62.377007Q222.09688 62.064507 221.78438 61.877007Q221.47188 61.67388 221.05 61.67388Q220.37813 61.67388 219.87813 62.11138Q219.39375 62.533257 219.39375 63.720757L219.39375 67.12701L218.34688 67.12701ZM224.95625 64.01763Q224.95625 62.283257 225.90938 61.45513Q226.70625 60.76763 227.8625 60.76763Q229.14375 60.76763 229.95625 61.61138Q230.78438 62.439507 230.78438 63.92388Q230.78438 65.12701 230.425 65.81451Q230.06563 66.50201 229.3625 66.89263Q228.675 67.26763 227.8625 67.26763Q226.56563 67.26763 225.75313 66.43951Q224.95625 65.59576 224.95625 64.01763ZM226.03438 64.01763Q226.03438 65.20513 226.55 65.79888Q227.08125 66.39263 227.8625 66.39263Q228.65938 66.39263 229.175 65.79888Q229.69063 65.20513 229.69063 63.98638Q229.69063 62.83013 229.15938 62.23638Q228.64375 61.64263 227.8625 61.64263Q227.08125 61.64263 226.55 62.23638Q226.03438 62.814507 226.03438 64.01763ZM234.64375 66.18951L234.8 67.11138Q234.34688 67.20513 234.00313 67.20513Q233.425 67.20513 233.1125 67.03326Q232.8 66.84576 232.65938 66.54888Q232.53438 66.25201 232.53438 65.29888L232.53438 61.720757L231.76875 61.720757L231.76875 60.908257L232.53438 60.908257L232.53438 59.36138L233.58125 58.73638L233.58125 60.908257L234.64375 60.908257L234.64375 61.720757L233.58125 61.720757L233.58125 65.36138Q233.58125 65.81451 233.62813 65.93951Q233.69063 66.06451 233.81563 66.14263Q233.94063 66.22076 234.175 66.22076Q234.3625 66.22076 234.64375 66.18951ZM238.34688 59.752007L238.34688 58.533257L239.40938 58.533257L239.40938 59.752007L238.34688 59.752007ZM238.34688 67.12701L238.34688 60.908257L239.40938 60.908257L239.40938 67.12701L238.34688 67.12701ZM241.34688 67.12701L241.34688 60.908257L242.28438 60.908257L242.28438 61.783257Q242.97188 60.76763 244.26875 60.76763Q244.83125 60.76763 245.3 60.970757Q245.78438 61.17388 246.01875 61.502007Q246.25313 61.83013 246.34688 62.26763Q246.39375 62.564507 246.39375 63.29888L246.39375 67.12701L245.34688 67.12701L245.34688 63.345757Q245.34688 62.689507 245.22188 62.377007Q245.09688 62.064507 244.78438 61.877007Q244.47188 61.67388 244.05 61.67388Q243.37813 61.67388 242.87813 62.11138Q242.39375 62.533257 242.39375 63.720757L242.39375 67.12701L241.34688 67.12701ZM257.1125 58.533257L258.2531 58.533257L258.2531 63.502007Q258.2531 64.79888 257.95624 65.56451Q257.65936 66.31451 256.89374 66.79888Q256.1281 67.26763 254.89375 67.26763Q253.69063 67.26763 252.90938 66.86138Q252.14375 66.43951 251.81563 65.65826Q251.4875 64.86138 251.4875 63.502007L251.4875 58.533257L252.62813 58.533257L252.62813 63.48638Q252.62813 64.61138 252.83125 65.14263Q253.05 65.67388 253.55 65.97076Q254.06563 66.25201 254.8 66.25201Q256.05 66.25201 256.58124 65.68951Q257.1125 65.11138 257.1125 63.48638L257.1125 58.533257ZM262.64374 66.18951L262.8 67.11138Q262.34686 67.20513 262.0031 67.20513Q261.425 67.20513 261.1125 67.03326Q260.8 66.84576 260.65936 66.54888Q260.53436 66.25201 260.53436 65.29888L260.53436 61.720757L259.76874 61.720757L259.76874 60.908257L260.53436 60.908257L260.53436 59.36138L261.58124 58.73638L261.58124 60.908257L262.64374 60.908257L262.64374 61.720757L261.58124 61.720757L261.58124 65.36138Q261.58124 65.81451 261.6281 65.93951Q261.6906 66.06451 261.8156 66.14263Q261.9406 66.22076 262.175 66.22076Q262.3625 66.22076 262.64374 66.18951ZM267.40936 66.36138Q266.8156 66.86138 266.26874 67.06451Q265.7375 67.26763 265.1125 67.26763Q264.08124 67.26763 263.53436 66.76763Q262.9875 66.26763 262.9875 65.48638Q262.9875 65.03326 263.1906 64.65826Q263.39374 64.26763 263.7375 64.04888Q264.08124 63.814507 264.5031 63.70513Q264.8 63.61138 265.4406 63.533257Q266.70624 63.39263 267.3156 63.17388Q267.3156 62.95513 267.3156 62.908257Q267.3156 62.252007 267.01874 61.98638Q266.6125 61.64263 265.8156 61.64263Q265.08124 61.64263 264.72186 61.908257Q264.3625 62.158257 264.1906 62.814507L263.15936 62.67388Q263.3 62.01763 263.6281 61.61138Q263.95624 61.20513 264.5656 60.98638Q265.175 60.76763 265.97186 60.76763Q266.76874 60.76763 267.26874 60.95513Q267.76874 61.14263 268.0031 61.42388Q268.2375 61.70513 268.33124 62.14263Q268.3781 62.408257 268.3781 63.11138L268.3781 64.51763Q268.3781 65.98638 268.4406 66.37701Q268.51874 66.76763 268.72186 67.12701L267.6125 67.12701Q267.45624 66.79888 267.40936 66.36138ZM267.3156 64.00201Q266.7375 64.23638 265.59686 64.40826Q264.9406 64.50201 264.675 64.62701Q264.40936 64.73638 264.2531 64.95513Q264.1125 65.17388 264.1125 65.45513Q264.1125 65.87701 264.425 66.15826Q264.7531 66.43951 265.3625 66.43951Q265.97186 66.43951 266.4406 66.17388Q266.925 65.90826 267.14374 65.43951Q267.3156 65.08013 267.3156 64.39263L267.3156 64.00201ZM270.34686 67.12701L270.34686 58.533257L271.39374 58.533257L271.39374 61.61138Q272.1281 60.76763 273.2531 60.76763Q273.95624 60.76763 274.45624 61.04888Q274.97186 61.314507 275.1906 61.79888Q275.40936 62.26763 275.40936 63.189507L275.40936 67.12701L274.3625 67.12701L274.3625 63.189507Q274.3625 62.39263 274.01874 62.033257Q273.675 61.67388 273.05 61.67388Q272.58124 61.67388 272.15936 61.92388Q271.7531 62.158257 271.5656 62.58013Q271.39374 62.98638 271.39374 63.720757L271.39374 67.12701L270.34686 67.12701Z" fill-rule="nonzero"/><path fill="#9e9e9e" d="M23.01875 84.12701L21.971874 84.12701L21.971874 77.40826Q21.58125 77.76763 20.95625 78.14263Q20.346874 78.50201 19.8625 78.67388L19.8625 77.65826Q20.7375 77.23638 21.39375 76.65826Q22.065624 76.06451 22.346874 75.50201L23.01875 75.50201L23.01875 84.12701ZM30.01875 84.12701L28.971874 84.12701L28.971874 77.40826Q28.58125 77.76763 27.95625 78.14263Q27.346874 78.50201 26.8625 78.67388L26.8625 77.65826Q27.7375 77.23638 28.39375 76.65826Q29.065624 76.06451 29.346874 75.50201L30.01875 75.50201L30.01875 84.12701ZM33.64375 84.12701L33.64375 82.92388L34.846874 82.92388L34.846874 84.12701L33.64375 84.12701ZM41.51875 77.64263L40.471874 77.72076Q40.33125 77.09576 40.08125 76.81451Q39.64375 76.36138 39.01875 76.36138Q38.51875 76.36138 38.128124 76.64263Q37.64375 77.01763 37.346874 77.72076Q37.065624 78.40826 37.05 79.68951Q37.425 79.11138 37.971874 78.83013Q38.534374 78.54888 39.14375 78.54888Q40.190624 78.54888 40.925 79.33013Q41.675 80.11138 41.675 81.33013Q41.675 82.14263 41.315624 82.84576Q40.971874 83.53326 40.3625 83.90826Q39.753124 84.26763 38.9875 84.26763Q37.659374 84.26763 36.83125 83.29888Q36.003124 82.33013 36.003124 80.11138Q36.003124 77.61138 36.925 76.48638Q37.721874 75.50201 39.08125 75.50201Q40.096874 75.50201 40.7375 76.08013Q41.39375 76.64263 41.51875 77.64263ZM37.221874 81.34576Q37.221874 81.89263 37.440624 82.39263Q37.675 82.87701 38.08125 83.14263Q38.503124 83.40826 38.971874 83.40826Q39.628124 83.40826 40.1125 82.87701Q40.596874 82.33013 40.596874 81.40826Q40.596874 80.51763 40.1125 80.00201Q39.64375 79.48638 38.925 79.48638Q38.20625 79.48638 37.70625 80.00201Q37.221874 80.51763 37.221874 81.34576ZM43.253124 77.59576Q43.253124 76.67388 43.70625 76.03326Q44.175 75.39263 45.05 75.39263Q45.8625 75.39263 46.39375 75.97076Q46.925 76.54888 46.925 77.65826Q46.925 78.75201 46.378124 79.34576Q45.846874 79.92388 45.065624 79.92388Q44.284374 79.92388 43.76875 79.34576Q43.253124 78.76763 43.253124 77.59576ZM45.08125 76.11138Q44.690624 76.11138 44.425 76.45513Q44.175 76.79888 44.175 77.70513Q44.175 78.53326 44.425 78.87701Q44.690624 79.20513 45.08125 79.20513Q45.4875 79.20513 45.7375 78.86138Q46.003124 78.51763 46.003124 77.62701Q46.003124 76.78326 45.7375 76.45513Q45.471874 76.11138 45.08125 76.11138ZM45.08125 84.43951L49.784374 75.39263L50.64375 75.39263L45.95625 84.43951L45.08125 84.43951ZM48.8 82.11138Q48.8 81.18951 49.253124 80.54888Q49.721874 79.90826 50.6125 79.90826Q51.425 79.90826 51.95625 80.48638Q52.4875 81.04888 52.4875 82.17388Q52.4875 83.26763 51.940624 83.86138Q51.409374 84.43951 50.6125 84.43951Q49.846874 84.43951 49.315624 83.86138Q48.8 83.28326 48.8 82.11138ZM50.64375 80.62701Q50.2375 80.62701 49.971874 80.97076Q49.721874 81.31451 49.721874 82.22076Q49.721874 83.03326 49.9875 83.37701Q50.253124 83.72076 50.64375 83.72076Q51.034374 83.72076 51.3 83.37701Q51.565624 83.03326 51.565624 82.12701Q51.565624 81.29888 51.3 80.97076Q51.034374 80.62701 50.64375 80.62701Z" fill-rule="nonzero"/><path stroke="#757575" stroke-width="1.0" stroke-linecap="butt" d="M18.55 71.62701L291.73334 71.62701L396.15295 71.62701" fill-rule="nonzero"/><path fill="#9e9e9e" d="M398.15295 71.62701C398.15295 70.52244 397.2575 69.62701 396.15295 69.62701C395.04837 69.62701 394.15295 70.52244 394.15295 71.62701C394.15295 72.73158 395.04837 73.62701 396.15295 73.62701C397.2575 73.62701 398.15295 72.73158 398.15295 71.62701" fill-rule="nonzero"/><path fill="#1a1a1a" d="M19.675 240.40117L19.675 231.80742L20.8 231.80742L20.8 240.40117L19.675 240.40117ZM29.409374 239.63554Q28.815624 240.13554 28.26875 240.33867Q27.7375 240.5418 27.1125 240.5418Q26.08125 240.5418 25.534374 240.0418Q24.9875 239.5418 24.9875 238.76054Q24.9875 238.30742 25.190624 237.93242Q25.39375 237.5418 25.7375 237.32304Q26.08125 237.08867 26.503124 236.9793Q26.8 236.88554 27.440624 236.80742Q28.70625 236.6668 29.315624 236.44804Q29.315624 236.2293 29.315624 236.18242Q29.315624 235.52617 29.01875 235.26054Q28.6125 234.9168 27.815624 234.9168Q27.08125 234.9168 26.721874 235.18242Q26.3625 235.43242 26.190624 236.08867L25.159374 235.94804Q25.3 235.2918 25.628124 234.88554Q25.95625 234.4793 26.565624 234.26054Q27.175 234.0418 27.971874 234.0418Q28.76875 234.0418 29.26875 234.2293Q29.76875 234.4168 30.003124 234.69804Q30.2375 234.9793 30.33125 235.4168Q30.378124 235.68242 30.378124 236.38554L30.378124 237.7918Q30.378124 239.26054 30.440624 239.65117Q30.51875 240.0418 30.721874 240.40117L29.6125 240.40117Q29.45625 240.07304 29.409374 239.63554ZM29.315624 237.27617Q28.7375 237.51054 27.596874 237.68242Q26.940624 237.77617 26.675 237.90117Q26.409374 238.01054 26.253124 238.2293Q26.1125 238.44804 26.1125 238.7293Q26.1125 239.15117 26.425 239.43242Q26.753124 239.71367 27.3625 239.71367Q27.971874 239.71367 28.440624 239.44804Q28.925 239.18242 29.14375 238.71367Q29.315624 238.3543 29.315624 237.6668L29.315624 237.27617ZM32.346874 240.40117L32.346874 234.18242L33.284374 234.18242L33.284374 235.05742Q33.58125 234.58867 34.065624 234.32304Q34.55 234.0418 35.175 234.0418Q35.8625 234.0418 36.3 234.32304Q36.753124 234.6043 36.925 235.11992Q37.675 234.0418 38.846874 234.0418Q39.784374 234.0418 40.26875 234.55742Q40.76875 235.05742 40.76875 236.13554L40.76875 240.40117L39.721874 240.40117L39.721874 236.4793Q39.721874 235.8543 39.6125 235.57304Q39.51875 235.2918 39.253124 235.11992Q38.9875 234.94804 38.6125 234.94804Q37.95625 234.94804 37.51875 235.38554Q37.096874 235.82304 37.096874 236.7918L37.096874 240.40117L36.034374 240.40117L36.034374 236.3543Q36.034374 235.65117 35.76875 235.30742Q35.51875 234.94804 34.940624 234.94804Q34.4875 234.94804 34.1125 235.18242Q33.7375 235.4168 33.565624 235.86992Q33.39375 236.32304 33.39375 237.1668L33.39375 240.40117L32.346874 240.40117ZM46.315624 240.40117L46.315624 231.80742L47.378124 231.80742L47.378124 240.40117L46.315624 240.40117ZM48.95625 237.2918Q48.95625 235.55742 49.909374 234.7293Q50.70625 234.0418 51.8625 234.0418Q53.14375 234.0418 53.95625 234.88554Q54.784374 235.71367 54.784374 237.19804Q54.784374 238.40117 54.425 239.08867Q54.065624 239.77617 53.3625 240.1668Q52.675 240.5418 51.8625 240.5418Q50.565624 240.5418 49.753124 239.71367Q48.95625 238.86992 48.95625 237.2918ZM50.034374 237.2918Q50.034374 238.4793 50.55 239.07304Q51.08125 239.6668 51.8625 239.6668Q52.659374 239.6668 53.175 239.07304Q53.690624 238.4793 53.690624 237.26054Q53.690624 236.1043 53.159374 235.51054Q52.64375 234.9168 51.8625 234.9168Q51.08125 234.9168 50.55 235.51054Q50.034374 236.08867 50.034374 237.2918ZM60.409374 238.11992L61.440624 238.26054Q61.26875 239.32304 60.565624 239.93242Q59.8625 240.5418 58.846874 240.5418Q57.565624 240.5418 56.784374 239.71367Q56.01875 238.86992 56.01875 237.30742Q56.01875 236.30742 56.346874 235.55742Q56.690624 234.7918 57.3625 234.4168Q58.05 234.0418 58.8625 234.0418Q59.8625 234.0418 60.503124 234.55742Q61.159374 235.05742 61.346874 236.01054L60.315624 236.1668Q60.175 235.5418 59.8 235.2293Q59.425 234.90117 58.89375 234.90117Q58.096874 234.90117 57.596874 235.4793Q57.096874 236.0418 57.096874 237.27617Q57.096874 238.5418 57.58125 239.1043Q58.065624 239.6668 58.83125 239.6668Q59.45625 239.6668 59.8625 239.2918Q60.284374 238.9168 60.409374 238.11992ZM66.40938 239.63554Q65.81563 240.13554 65.26875 240.33867Q64.7375 240.5418 64.1125 240.5418Q63.08125 240.5418 62.534374 240.0418Q61.9875 239.5418 61.9875 238.76054Q61.9875 238.30742 62.190624 237.93242Q62.39375 237.5418 62.7375 237.32304Q63.08125 237.08867 63.503124 236.9793Q63.8 236.88554 64.44063 236.80742Q65.70625 236.6668 66.31563 236.44804Q66.31563 236.2293 66.31563 236.18242Q66.31563 235.52617 66.01875 235.26054Q65.6125 234.9168 64.81563 234.9168Q64.08125 234.9168 63.721874 235.18242Q63.3625 235.43242 63.190624 236.08867L62.159374 235.94804Q62.3 235.2918 62.628124 234.88554Q62.95625 234.4793 63.565624 234.26054Q64.175 234.0418 64.97188 234.0418Q65.76875 234.0418 66.26875 234.2293Q66.76875 234.4168 67.00313 234.69804Q67.2375 234.9793 67.33125 235.4168Q67.37813 235.68242 67.37813 236.38554L67.37813 237.7918Q67.37813 239.26054 67.44063 239.65117Q67.51875 240.0418 67.72188 240.40117L66.6125 240.40117Q66.45625 240.07304 66.40938 239.63554ZM66.31563 237.27617Q65.7375 237.51054 64.59688 237.68242Q63.940624 237.77617 63.675 237.90117Q63.409374 238.01054 63.253124 238.2293Q63.1125 238.44804 63.1125 238.7293Q63.1125 239.15117 63.425 239.43242Q63.753124 239.71367 64.3625 239.71367Q64.97188 239.71367 65.44063 239.44804Q65.925 239.18242 66.14375 238.71367Q66.31563 238.3543 66.31563 237.6668L66.31563 237.27617ZM71.64375 239.46367L71.8 240.38554Q71.34688 240.4793 71.00313 240.4793Q70.425 240.4793 70.1125 240.30742Q69.8 240.11992 69.65938 239.82304Q69.53438 239.52617 69.53438 238.57304L69.53438 234.99492L68.76875 234.99492L68.76875 234.18242L69.53438 234.18242L69.53438 232.63554L70.58125 232.01054L70.58125 234.18242L71.64375 234.18242L71.64375 234.99492L70.58125 234.99492L70.58125 238.63554Q70.58125 239.08867 70.62813 239.21367Q70.69063 239.33867 70.81563 239.4168Q70.94063 239.49492 71.175 239.49492Q71.3625 239.49492 71.64375 239.46367ZM76.59688 238.40117L77.69063 238.52617Q77.44063 239.4793 76.7375 240.01054Q76.03438 240.5418 74.95625 240.5418Q73.59688 240.5418 72.78438 239.69804Q71.9875 238.8543 71.9875 237.33867Q71.9875 235.77617 72.8 234.9168Q73.6125 234.0418 74.89375 234.0418Q76.14375 234.0418 76.925 234.88554Q77.72188 235.7293 77.72188 237.27617Q77.72188 237.36992 77.72188 237.55742L73.08125 237.55742Q73.14375 238.58867 73.65938 239.13554Q74.175 239.6668 74.95625 239.6668Q75.53438 239.6668 75.94063 239.36992Q76.3625 239.05742 76.59688 238.40117ZM73.14375 236.69804L76.6125 236.69804Q76.55 235.90117 76.22188 235.51054Q75.70625 234.90117 74.90938 234.90117Q74.175 234.90117 73.675 235.38554Q73.19063 235.86992 73.14375 236.69804ZM83.37813 240.40117L83.37813 239.61992Q82.78438 240.5418 81.64375 240.5418Q80.89375 240.5418 80.26875 240.13554Q79.64375 239.71367 79.3 238.9793Q78.95625 238.24492 78.95625 237.2918Q78.95625 236.36992 79.26875 235.6043Q79.58125 234.83867 80.20625 234.44804Q80.83125 234.0418 81.59688 234.0418Q82.15938 234.0418 82.59688 234.27617Q83.03438 234.51054 83.31563 234.88554L83.31563 231.80742L84.3625 231.80742L84.3625 240.40117L83.37813 240.40117ZM80.05 237.2918Q80.05 238.49492 80.55 239.08867Q81.05 239.6668 81.7375 239.6668Q82.425 239.6668 82.90938 239.1043Q83.39375 238.5418 83.39375 237.38554Q83.39375 236.1043 82.89375 235.51054Q82.40938 234.9168 81.69063 234.9168Q80.9875 234.9168 80.51875 235.49492Q80.05 236.05742 80.05 237.2918ZM89.34688 233.02617L89.34688 231.80742L90.40938 231.80742L90.40938 233.02617L89.34688 233.02617ZM89.34688 240.40117L89.34688 234.18242L90.40938 234.18242L90.40938 240.40117L89.34688 240.40117ZM92.34688 240.40117L92.34688 234.18242L93.28438 234.18242L93.28438 235.05742Q93.97188 234.0418 95.26875 234.0418Q95.83125 234.0418 96.3 234.24492Q96.78438 234.44804 97.01875 234.77617Q97.25313 235.1043 97.34688 235.5418Q97.39375 235.83867 97.39375 236.57304L97.39375 240.40117L96.34688 240.40117L96.34688 236.61992Q96.34688 235.96367 96.22188 235.65117Q96.09688 235.33867 95.78438 235.15117Q95.47188 234.94804 95.05 234.94804Q94.37813 234.94804 93.87813 235.38554Q93.39375 235.80742 93.39375 236.99492L93.39375 240.40117L92.34688 240.40117ZM108.1125 231.80742L109.25313 231.80742L109.25313 236.77617Q109.25313 238.07304 108.95625 238.83867Q108.65938 239.58867 107.89375 240.07304Q107.12813 240.5418 105.89375 240.5418Q104.69063 240.5418 103.90938 240.13554Q103.14375 239.71367 102.81563 238.93242Q102.4875 238.13554 102.4875 236.77617L102.4875 231.80742L103.62813 231.80742L103.62813 236.76054Q103.62813 237.88554 103.83125 238.4168Q104.05 238.94804 104.55 239.24492Q105.06563 239.52617 105.8 239.52617Q107.05 239.52617 107.58125 238.96367Q108.1125 238.38554 108.1125 236.76054L108.1125 231.80742ZM113.64375 239.46367L113.8 240.38554Q113.34688 240.4793 113.00313 240.4793Q112.425 240.4793 112.1125 240.30742Q111.8 240.11992 111.65938 239.82304Q111.53438 239.52617 111.53438 238.57304L111.53438 234.99492L110.76875 234.99492L110.76875 234.18242L111.53438 234.18242L111.53438 232.63554L112.58125 232.01054L112.58125 234.18242L113.64375 234.18242L113.64375 234.99492L112.58125 234.99492L112.58125 238.63554Q112.58125 239.08867 112.62813 239.21367Q112.69063 239.33867 112.81563 239.4168Q112.94063 239.49492 113.175 239.49492Q113.3625 239.49492 113.64375 239.46367ZM118.40938 239.63554Q117.81563 240.13554 117.26875 240.33867Q116.7375 240.5418 116.1125 240.5418Q115.08125 240.5418 114.53438 240.0418Q113.9875 239.5418 113.9875 238.76054Q113.9875 238.30742 114.19063 237.93242Q114.39375 237.5418 114.7375 237.32304Q115.08125 237.08867 115.50313 236.9793Q115.8 236.88554 116.44063 236.80742Q117.70625 236.6668 118.31563 236.44804Q118.31563 236.2293 118.31563 236.18242Q118.31563 235.52617 118.01875 235.26054Q117.6125 234.9168 116.81563 234.9168Q116.08125 234.9168 115.72188 235.18242Q115.3625 235.43242 115.19063 236.08867L114.15938 235.94804Q114.3 235.2918 114.62813 234.88554Q114.95625 234.4793 115.56563 234.26054Q116.175 234.0418 116.97188 234.0418Q117.76875 234.0418 118.26875 234.2293Q118.76875 234.4168 119.00313 234.69804Q119.2375 234.9793 119.33125 235.4168Q119.37813 235.68242 119.37813 236.38554L119.37813 237.7918Q119.37813 239.26054 119.44063 239.65117Q119.51875 240.0418 119.72188 240.40117L118.6125 240.40117Q118.45625 240.07304 118.40938 239.63554ZM118.31563 237.27617Q117.7375 237.51054 116.59688 237.68242Q115.94063 237.77617 115.675 237.90117Q115.40938 238.01054 115.25313 238.2293Q115.1125 238.44804 115.1125 238.7293Q115.1125 239.15117 115.425 239.43242Q115.75313 239.71367 116.3625 239.71367Q116.97188 239.71367 117.44063 239.44804Q117.925 239.18242 118.14375 238.71367Q118.31563 238.3543 118.31563 237.6668L118.31563 237.27617ZM121.34688 240.40117L121.34688 231.80742L122.39375 231.80742L122.39375 234.88554Q123.12813 234.0418 124.25313 234.0418Q124.95625 234.0418 125.45625 234.32304Q125.97188 234.58867 126.19063 235.07304Q126.40938 235.5418 126.40938 236.46367L126.40938 240.40117L125.3625 240.40117L125.3625 236.46367Q125.3625 235.6668 125.01875 235.30742Q124.675 234.94804 124.05 234.94804Q123.58125 234.94804 123.15938 235.19804Q122.75313 235.43242 122.56563 235.8543Q122.39375 236.26054 122.39375 236.99492L122.39375 240.40117L121.34688 240.40117ZM128.6125 240.40117L128.6125 239.19804L129.81563 239.19804L129.81563 240.40117Q129.81563 241.05742 129.58125 241.46367Q129.34688 241.88554 128.84688 242.1043L128.55 241.65117Q128.87813 241.51054 129.03438 241.21367Q129.19063 240.93242 129.22188 240.40117L128.6125 240.40117ZM135.31563 240.40117L134.33125 240.40117L134.33125 231.80742L135.39375 231.80742L135.39375 234.86992Q136.06563 234.0418 137.09688 234.0418Q137.675 234.0418 138.175 234.27617Q138.69063 234.49492 139.01875 234.9168Q139.3625 235.33867 139.55 235.93242Q139.7375 236.52617 139.7375 237.19804Q139.7375 238.7918 138.94063 239.6668Q138.14375 240.5418 137.05 240.5418Q135.94063 240.5418 135.31563 239.61992L135.31563 240.40117ZM135.3 237.24492Q135.3 238.3543 135.6125 238.8543Q136.1125 239.6668 136.95625 239.6668Q137.64375 239.6668 138.14375 239.07304Q138.65938 238.4793 138.65938 237.27617Q138.65938 236.05742 138.175 235.4793Q137.69063 234.90117 137.00313 234.90117Q136.31563 234.90117 135.8 235.51054Q135.3 236.1043 135.3 237.24492ZM145.425 240.40117L145.425 239.4793Q144.69063 240.5418 143.44063 240.5418Q142.89375 240.5418 142.40938 240.33867Q141.94063 240.11992 141.70625 239.80742Q141.47188 239.4793 141.37813 239.01054Q141.31563 238.71367 141.31563 238.02617L141.31563 234.18242L142.37813 234.18242L142.37813 237.63554Q142.37813 238.44804 142.44063 238.74492Q142.53438 239.15117 142.84688 239.40117Q143.175 239.63554 143.65938 239.63554Q144.12813 239.63554 144.53438 239.40117Q144.95625 239.15117 145.12813 238.7293Q145.31563 238.30742 145.31563 237.51054L145.31563 234.18242L146.3625 234.18242L146.3625 240.40117L145.425 240.40117ZM150.64375 239.46367L150.8 240.38554Q150.34688 240.4793 150.00313 240.4793Q149.425 240.4793 149.1125 240.30742Q148.8 240.11992 148.65938 239.82304Q148.53438 239.52617 148.53438 238.57304L148.53438 234.99492L147.76875 234.99492L147.76875 234.18242L148.53438 234.18242L148.53438 232.63554L149.58125 232.01054L149.58125 234.18242L150.64375 234.18242L150.64375 234.99492L149.58125 234.99492L149.58125 238.63554Q149.58125 239.08867 149.62813 239.21367Q149.69063 239.33867 149.81563 239.4168Q149.94063 239.49492 150.175 239.49492Q150.3625 239.49492 150.64375 239.46367ZM154.34688 240.40117L154.34688 234.18242L155.28438 234.18242L155.28438 235.05742Q155.58125 234.58867 156.06563 234.32304Q156.55 234.0418 157.175 234.0418Q157.8625 234.0418 158.3 234.32304Q158.75313 234.6043 158.925 235.11992Q159.675 234.0418 160.84688 234.0418Q161.78438 234.0418 162.26875 234.55742Q162.76875 235.05742 162.76875 236.13554L162.76875 240.40117L161.72188 240.40117L161.72188 236.4793Q161.72188 235.8543 161.6125 235.57304Q161.51875 235.2918 161.25313 235.11992Q160.9875 234.94804 160.6125 234.94804Q159.95625 234.94804 159.51875 235.38554Q159.09688 235.82304 159.09688 236.7918L159.09688 240.40117L158.03438 240.40117L158.03438 236.3543Q158.03438 235.65117 157.76875 235.30742Q157.51875 234.94804 156.94063 234.94804Q156.4875 234.94804 156.1125 235.18242Q155.7375 235.4168 155.56563 235.86992Q155.39375 236.32304 155.39375 237.1668L155.39375 240.40117L154.34688 240.40117ZM165.3 242.7918L165.175 241.80742Q165.51875 241.90117 165.78438 241.90117Q166.12813 241.90117 166.33125 241.77617Q166.55 241.6668 166.69063 241.46367Q166.78438 241.2918 167.01875 240.6668Q167.03438 240.58867 167.1125 240.4168L164.7375 234.18242L165.87813 234.18242L167.175 237.77617Q167.425 238.46367 167.62813 239.2293Q167.81563 238.49492 168.06563 237.80742L169.39375 234.18242L170.44063 234.18242L168.08125 240.51054Q167.69063 241.52617 167.4875 241.9168Q167.20625 242.44804 166.83125 242.68242Q166.47188 242.93242 165.97188 242.93242Q165.675 242.93242 165.3 242.7918ZM177.59688 238.40117L178.69063 238.52617Q178.44063 239.4793 177.7375 240.01054Q177.03438 240.5418 175.95625 240.5418Q174.59688 240.5418 173.78438 239.69804Q172.9875 238.8543 172.9875 237.33867Q172.9875 235.77617 173.8 234.9168Q174.6125 234.0418 175.89375 234.0418Q177.14375 234.0418 177.925 234.88554Q178.72188 235.7293 178.72188 237.27617Q178.72188 237.36992 178.72188 237.55742L174.08125 237.55742Q174.14375 238.58867 174.65938 239.13554Q175.175 239.6668 175.95625 239.6668Q176.53438 239.6668 176.94063 239.36992Q177.3625 239.05742 177.59688 238.40117ZM174.14375 236.69804L177.6125 236.69804Q177.55 235.90117 177.22188 235.51054Q176.70625 234.90117 175.90938 234.90117Q175.175 234.90117 174.675 235.38554Q174.19063 235.86992 174.14375 236.69804ZM180.34688 240.40117L180.34688 234.18242L181.28438 234.18242L181.28438 235.05742Q181.58125 234.58867 182.06563 234.32304Q182.55 234.0418 183.175 234.0418Q183.8625 234.0418 184.3 234.32304Q184.75313 234.6043 184.925 235.11992Q185.675 234.0418 186.84688 234.0418Q187.78438 234.0418 188.26875 234.55742Q188.76875 235.05742 188.76875 236.13554L188.76875 240.40117L187.72188 240.40117L187.72188 236.4793Q187.72188 235.8543 187.6125 235.57304Q187.51875 235.2918 187.25313 235.11992Q186.9875 234.94804 186.6125 234.94804Q185.95625 234.94804 185.51875 235.38554Q185.09688 235.82304 185.09688 236.7918L185.09688 240.40117L184.03438 240.40117L184.03438 236.3543Q184.03438 235.65117 183.76875 235.30742Q183.51875 234.94804 182.94063 234.94804Q182.4875 234.94804 182.1125 235.18242Q181.7375 235.4168 181.56563 235.86992Q181.39375 236.32304 181.39375 237.1668L181.39375 240.40117L180.34688 240.40117ZM191.34688 242.7918L191.34688 234.18242L192.3 234.18242L192.3 234.9793Q192.64375 234.51054 193.06563 234.27617Q193.50313 234.0418 194.1125 234.0418Q194.90938 234.0418 195.51875 234.44804Q196.12813 234.8543 196.425 235.6043Q196.7375 236.3543 196.7375 237.24492Q196.7375 238.19804 196.39375 238.96367Q196.06563 239.7293 195.40938 240.13554Q194.75313 240.5418 194.03438 240.5418Q193.50313 240.5418 193.08125 240.32304Q192.65938 240.08867 192.39375 239.76054L192.39375 242.7918L191.34688 242.7918ZM192.3 237.32304Q192.3 238.52617 192.78438 239.1043Q193.26875 239.6668 193.95625 239.6668Q194.65938 239.6668 195.15938 239.07304Q195.65938 238.4793 195.65938 237.2293Q195.65938 236.0418 195.175 235.46367Q194.69063 234.86992 194.00313 234.86992Q193.33125 234.86992 192.81563 235.49492Q192.3 236.11992 192.3 237.32304ZM198.31563 240.40117L198.31563 231.80742L199.37813 231.80742L199.37813 240.40117L198.31563 240.40117ZM200.95625 237.2918Q200.95625 235.55742 201.90938 234.7293Q202.70625 234.0418 203.8625 234.0418Q205.14375 234.0418 205.95625 234.88554Q206.78438 235.71367 206.78438 237.19804Q206.78438 238.40117 206.425 239.08867Q206.06563 239.77617 205.3625 240.1668Q204.675 240.5418 203.8625 240.5418Q202.56563 240.5418 201.75313 239.71367Q200.95625 238.86992 200.95625 237.2918ZM202.03438 237.2918Q202.03438 238.4793 202.55 239.07304Q203.08125 239.6668 203.8625 239.6668Q204.65938 239.6668 205.175 239.07304Q205.69063 238.4793 205.69063 237.26054Q205.69063 236.1043 205.15938 235.51054Q204.64375 234.9168 203.8625 234.9168Q203.08125 234.9168 202.55 235.51054Q202.03438 236.08867 202.03438 237.2918ZM208.3 242.7918L208.175 241.80742Q208.51875 241.90117 208.78438 241.90117Q209.12813 241.90117 209.33125 241.77617Q209.55 241.6668 209.69063 241.46367Q209.78438 241.2918 210.01875 240.6668Q210.03438 240.58867 210.1125 240.4168L207.7375 234.18242L208.87813 234.18242L210.175 237.77617Q210.425 238.46367 210.62813 239.2293Q210.81563 238.49492 211.06563 237.80742L212.39375 234.18242L213.44063 234.18242L211.08125 240.51054Q210.69063 241.52617 210.4875 241.9168Q210.20625 242.44804 209.83125 242.68242Q209.47188 242.93242 208.97188 242.93242Q208.675 242.93242 208.3 242.7918ZM217.59688 238.40117L218.69063 238.52617Q218.44063 239.4793 217.7375 240.01054Q217.03438 240.5418 215.95625 240.5418Q214.59688 240.5418 213.78438 239.69804Q212.9875 238.8543 212.9875 237.33867Q212.9875 235.77617 213.8 234.9168Q214.6125 234.0418 215.89375 234.0418Q217.14375 234.0418 217.925 234.88554Q218.72188 235.7293 218.72188 237.27617Q218.72188 237.36992 218.72188 237.55742L214.08125 237.55742Q214.14375 238.58867 214.65938 239.13554Q215.175 239.6668 215.95625 239.6668Q216.53438 239.6668 216.94063 239.36992Q217.3625 239.05742 217.59688 238.40117ZM214.14375 236.69804L217.6125 236.69804Q217.55 235.90117 217.22188 235.51054Q216.70625 234.90117 215.90938 234.90117Q215.175 234.90117 214.675 235.38554Q214.19063 235.86992 214.14375 236.69804ZM220.33125 240.40117L220.33125 234.18242L221.28438 234.18242L221.28438 235.11992Q221.64375 234.46367 221.94063 234.26054Q222.25313 234.0418 222.62813 234.0418Q223.15938 234.0418 223.70625 234.36992L223.34688 235.3543Q222.95625 235.11992 222.58125 235.11992Q222.22188 235.11992 221.94063 235.33867Q221.675 235.5418 221.56563 235.9168Q221.37813 236.4793 221.37813 237.13554L221.37813 240.40117L220.33125 240.40117ZM227.34688 233.02617L227.34688 231.80742L228.40938 231.80742L228.40938 233.02617L227.34688 233.02617ZM227.34688 240.40117L227.34688 234.18242L228.40938 234.18242L228.40938 240.40117L227.34688 240.40117ZM229.925 238.5418L230.95625 238.38554Q231.05 239.01054 231.44063 239.33867Q231.84688 239.6668 232.58125 239.6668Q233.3 239.6668 233.64375 239.38554Q234.00313 239.08867 234.00313 238.68242Q234.00313 238.32304 233.69063 238.11992Q233.47188 237.9793 232.6125 237.76054Q231.45625 237.46367 231.00313 237.26054Q230.56563 237.0418 230.33125 236.6668Q230.09688 236.2918 230.09688 235.82304Q230.09688 235.4168 230.28438 235.05742Q230.47188 234.69804 230.8 234.46367Q231.05 234.2918 231.47188 234.1668Q231.89375 234.0418 232.39375 234.0418Q233.1125 234.0418 233.65938 234.26054Q234.22188 234.46367 234.4875 234.82304Q234.75313 235.18242 234.84688 235.77617L233.81563 235.9168Q233.75313 235.44804 233.40938 235.18242Q233.08125 234.90117 232.45625 234.90117Q231.7375 234.90117 231.425 235.15117Q231.1125 235.38554 231.1125 235.71367Q231.1125 235.9168 231.2375 236.07304Q231.37813 236.24492 231.64375 236.3543Q231.8 236.4168 232.58125 236.61992Q233.70625 236.93242 234.14375 237.11992Q234.58125 237.30742 234.83125 237.6668Q235.08125 238.02617 235.08125 238.57304Q235.08125 239.1043 234.76875 239.57304Q234.47188 240.02617 233.89375 240.2918Q233.31563 240.5418 232.58125 240.5418Q231.3625 240.5418 230.72188 240.0418Q230.09688 239.52617 229.925 238.5418ZM240.34688 240.40117L240.34688 234.18242L241.28438 234.18242L241.28438 235.05742Q241.97188 234.0418 243.26875 234.0418Q243.83125 234.0418 244.3 234.24492Q244.78438 234.44804 245.01875 234.77617Q245.25313 235.1043 245.34688 235.5418Q245.39375 235.83867 245.39375 236.57304L245.39375 240.40117L244.34688 240.40117L244.34688 236.61992Q244.34688 235.96367 244.22188 235.65117Q244.09688 235.33867 243.78438 235.15117Q243.47188 234.94804 243.05 234.94804Q242.37813 234.94804 241.87813 235.38554Q241.39375 235.80742 241.39375 236.99492L241.39375 240.40117L240.34688 240.40117ZM246.95625 237.2918Q246.95625 235.55742 247.90938 234.7293Q248.70625 234.0418 249.8625 234.0418Q251.14375 234.0418 251.95625 234.88554Q252.78438 235.71367 252.78438 237.19804Q252.78438 238.40117 252.425 239.08867Q252.06563 239.77617 251.3625 240.1668Q250.675 240.5418 249.8625 240.5418Q248.56563 240.5418 247.75313 239.71367Q246.95625 238.86992 246.95625 237.2918ZM248.03438 237.2918Q248.03438 238.4793 248.55 239.07304Q249.08125 239.6668 249.8625 239.6668Q250.65938 239.6668 251.175 239.07304Q251.69063 238.4793 251.69063 237.26054Q251.69063 236.1043 251.15938 235.51054Q250.64375 234.9168 249.8625 234.9168Q249.08125 234.9168 248.55 235.51054Q248.03438 236.08867 248.03438 237.2918ZM256.64374 239.46367L256.8 240.38554Q256.34686 240.4793 256.0031 240.4793Q255.425 240.4793 255.1125 240.30742Q254.8 240.11992 254.65938 239.82304Q254.53438 239.52617 254.53438 238.57304L254.53438 234.99492L253.76875 234.99492L253.76875 234.18242L254.53438 234.18242L254.53438 232.63554L255.58125 232.01054L255.58125 234.18242L256.64374 234.18242L256.64374 234.99492L255.58125 234.99492L255.58125 238.63554Q255.58125 239.08867 255.62813 239.21367Q255.69063 239.33867 255.81563 239.4168Q255.94063 239.49492 256.175 239.49492Q256.3625 239.49492 256.64374 239.46367Z" fill-rule="nonzero"/><path fill="#9e9e9e" d="M19.05 255.13553L20.1125 254.9949Q20.284374 255.88553 20.721874 256.29178Q21.159374 256.6824 21.784374 256.6824Q22.534374 256.6824 23.05 256.16678Q23.565624 255.65115 23.565624 254.88553Q23.565624 254.16678 23.08125 253.69803Q22.6125 253.21365 21.878124 253.21365Q21.58125 253.21365 21.128124 253.33865L21.253124 252.40115Q21.3625 252.41678 21.425 252.41678Q22.096874 252.41678 22.628124 252.07303Q23.175 251.71365 23.175 250.97928Q23.175 250.40115 22.784374 250.02615Q22.39375 249.63553 21.76875 249.63553Q21.159374 249.63553 20.7375 250.02615Q20.33125 250.41678 20.221874 251.1824L19.159374 250.9949Q19.346874 249.94803 20.034374 249.3699Q20.721874 248.77615 21.7375 248.77615Q22.440624 248.77615 23.034374 249.08865Q23.628124 249.38553 23.940624 249.90115Q24.253124 250.41678 24.253124 251.01053Q24.253124 251.5574 23.95625 252.02615Q23.659374 252.47928 23.08125 252.7449Q23.83125 252.91678 24.253124 253.47928Q24.675 254.02615 24.675 254.8699Q24.675 255.9949 23.846874 256.77615Q23.034374 257.5574 21.784374 257.5574Q20.659374 257.5574 19.909374 256.88553Q19.159374 256.19803 19.05 255.13553ZM31.51875 250.91678L30.471874 250.9949Q30.33125 250.3699 30.08125 250.08865Q29.64375 249.63553 29.01875 249.63553Q28.51875 249.63553 28.128124 249.91678Q27.64375 250.29178 27.346874 250.9949Q27.065624 251.6824 27.05 252.96365Q27.425 252.38553 27.971874 252.10428Q28.534374 251.82303 29.14375 251.82303Q30.190624 251.82303 30.925 252.60428Q31.675 253.38553 31.675 254.60428Q31.675 255.41678 31.315624 256.1199Q30.971874 256.8074 30.3625 257.1824Q29.753124 257.54178 28.9875 257.54178Q27.659374 257.54178 26.83125 256.57303Q26.003124 255.60428 26.003124 253.38553Q26.003124 250.88553 26.925 249.76053Q27.721874 248.77615 29.08125 248.77615Q30.096874 248.77615 30.7375 249.35428Q31.39375 249.91678 31.51875 250.91678ZM27.221874 254.6199Q27.221874 255.16678 27.440624 255.66678Q27.675 256.15115 28.08125 256.41678Q28.503124 256.6824 28.971874 256.6824Q29.628124 256.6824 30.1125 256.15115Q30.596874 255.60428 30.596874 254.6824Q30.596874 253.79178 30.1125 253.27615Q29.64375 252.76053 28.925 252.76053Q28.20625 252.76053 27.70625 253.27615Q27.221874 253.79178 27.221874 254.6199ZM33.64375 257.40115L33.64375 256.19803L34.846874 256.19803L34.846874 257.40115L33.64375 257.40115ZM41.596874 256.38553L41.596874 257.40115L35.909374 257.40115Q35.909374 257.02615 36.034374 256.66678Q36.253124 256.08865 36.721874 255.52615Q37.20625 254.96365 38.1125 254.22928Q39.51875 253.07303 40.003124 252.40115Q40.503124 251.72928 40.503124 251.13553Q40.503124 250.51053 40.05 250.08865Q39.596874 249.65115 38.878124 249.65115Q38.1125 249.65115 37.659374 250.10428Q37.20625 250.5574 37.190624 251.3699L36.1125 251.26053Q36.221874 250.04178 36.940624 249.41678Q37.675 248.77615 38.909374 248.77615Q40.14375 248.77615 40.8625 249.46365Q41.58125 250.15115 41.58125 251.16678Q41.58125 251.6824 41.3625 252.1824Q41.159374 252.66678 40.659374 253.22928Q40.175 253.77615 39.05 254.72928Q38.096874 255.52615 37.815624 255.82303Q37.55 256.10428 37.378124 256.38553L41.596874 256.38553ZM43.253124 250.8699Q43.253124 249.94803 43.70625 249.3074Q44.175 248.66678 45.05 248.66678Q45.8625 248.66678 46.39375 249.2449Q46.925 249.82303 46.925 250.9324Q46.925 252.02615 46.378124 252.6199Q45.846874 253.19803 45.065624 253.19803Q44.284374 253.19803 43.76875 252.6199Q43.253124 252.04178 43.253124 250.8699ZM45.08125 249.38553Q44.690624 249.38553 44.425 249.72928Q44.175 250.07303 44.175 250.97928Q44.175 251.8074 44.425 252.15115Q44.690624 252.47928 45.08125 252.47928Q45.4875 252.47928 45.7375 252.13553Q46.003124 251.79178 46.003124 250.90115Q46.003124 250.0574 45.7375 249.72928Q45.471874 249.38553 45.08125 249.38553ZM45.08125 257.71365L49.784374 248.66678L50.64375 248.66678L45.95625 257.71365L45.08125 257.71365ZM48.8 255.38553Q48.8 254.46365 49.253124 253.82303Q49.721874 253.1824 50.6125 253.1824Q51.425 253.1824 51.95625 253.76053Q52.4875 254.32303 52.4875 255.44803Q52.4875 256.54178 51.940624 257.13553Q51.409374 257.71365 50.6125 257.71365Q49.846874 257.71365 49.315624 257.13553Q48.8 256.5574 48.8 255.38553ZM50.64375 253.90115Q50.2375 253.90115 49.971874 254.2449Q49.721874 254.58865 49.721874 255.4949Q49.721874 256.3074 49.9875 256.65115Q50.253124 256.9949 50.64375 256.9949Q51.034374 256.9949 51.3 256.65115Q51.565624 256.3074 51.565624 255.40115Q51.565624 254.57303 51.3 254.2449Q51.034374 253.90115 50.64375 253.90115Z" fill-rule="nonzero"/><path stroke="#757575" stroke-width="1.0" stroke-linecap="butt" d="M18.55 244.90117L291.73334 244.90117L311.31573 244.90117" fill-rule="nonzero"/><path fill="#9e9e9e" d="M313.31573 244.90117C313.31573 243.7966 312.4203 242.90117 311.31573 242.90117C310.21115 242.90117 309.31573 243.7966 309.31573 244.90117C309.31573 246.00574 310.21115 246.90117 311.31573 246.90117C312.4203 246.90117 313.31573 246.00574 313.31573 244.90117" fill-rule="nonzero"/><path fill="#1a1a1a" d="M709.34064 208.82793L709.34064 200.23418L711.0594 200.23418L713.09064 206.3123Q713.3719 207.17168 713.4969 207.59355Q713.6375 207.1248 713.95 206.21855L716.0125 200.23418L717.54376 200.23418L717.54376 208.82793L716.45 208.82793L716.45 201.64043L713.95 208.82793L712.91876 208.82793L710.4344 201.51543L710.4344 208.82793L709.34064 208.82793ZM718.2 211.21855L718.075 210.23418Q718.41876 210.32793 718.6844 210.32793Q719.02814 210.32793 719.23126 210.20293Q719.45 210.09355 719.59064 209.89043Q719.6844 209.71855 719.91876 209.09355Q719.9344 209.01543 720.0125 208.84355L717.6375 202.60918L718.77814 202.60918L720.075 206.20293Q720.325 206.89043 720.52814 207.65605Q720.71564 206.92168 720.96564 206.23418L722.29376 202.60918L723.34064 202.60918L720.98126 208.9373Q720.59064 209.95293 720.3875 210.34355Q720.10626 210.8748 719.73126 211.10918Q719.3719 211.35918 718.8719 211.35918Q718.575 211.35918 718.2 211.21855ZM730.4969 206.82793L731.59064 206.95293Q731.34064 207.90605 730.6375 208.4373Q729.9344 208.96855 728.85626 208.96855Q727.4969 208.96855 726.6844 208.1248Q725.8875 207.28105 725.8875 205.76543Q725.8875 204.20293 726.7 203.34355Q727.5125 202.46855 728.79376 202.46855Q730.04376 202.46855 730.825 203.3123Q731.6219 204.15605 731.6219 205.70293Q731.6219 205.79668 731.6219 205.98418L726.98126 205.98418Q727.04376 207.01543 727.5594 207.5623Q728.075 208.09355 728.85626 208.09355Q729.4344 208.09355 729.84064 207.79668Q730.2625 207.48418 730.4969 206.82793ZM727.04376 205.1248L730.5125 205.1248Q730.45 204.32793 730.1219 203.9373Q729.60626 203.32793 728.8094 203.32793Q728.075 203.32793 727.575 203.8123Q727.09064 204.29668 727.04376 205.1248ZM733.2469 208.82793L733.2469 202.60918L734.1844 202.60918L734.1844 203.48418Q734.48126 203.01543 734.96564 202.7498Q735.45 202.46855 736.075 202.46855Q736.7625 202.46855 737.2 202.7498Q737.65314 203.03105 737.825 203.54668Q738.575 202.46855 739.7469 202.46855Q740.6844 202.46855 741.16876 202.98418Q741.66876 203.48418 741.66876 204.5623L741.66876 208.82793L740.6219 208.82793L740.6219 204.90605Q740.6219 204.28105 740.5125 203.9998Q740.41876 203.71855 740.15314 203.54668Q739.8875 203.3748 739.5125 203.3748Q738.85626 203.3748 738.41876 203.8123Q737.9969 204.2498 737.9969 205.21855L737.9969 208.82793L736.9344 208.82793L736.9344 204.78105Q736.9344 204.07793 736.66876 203.73418Q736.41876 203.3748 735.84064 203.3748Q735.3875 203.3748 735.0125 203.60918Q734.6375 203.84355 734.46564 204.29668Q734.29376 204.7498 734.29376 205.59355L734.29376 208.82793L733.2469 208.82793ZM744.2469 211.21855L744.2469 202.60918L745.2 202.60918L745.2 203.40605Q745.54376 202.9373 745.96564 202.70293Q746.40314 202.46855 747.0125 202.46855Q747.8094 202.46855 748.41876 202.8748Q749.02814 203.28105 749.325 204.03105Q749.6375 204.78105 749.6375 205.67168Q749.6375 206.6248 749.29376 207.39043Q748.96564 208.15605 748.3094 208.5623Q747.65314 208.96855 746.9344 208.96855Q746.40314 208.96855 745.98126 208.7498Q745.5594 208.51543 745.29376 208.1873L745.29376 211.21855L744.2469 211.21855ZM745.2 205.7498Q745.2 206.95293 745.6844 207.53105Q746.16876 208.09355 746.85626 208.09355Q747.5594 208.09355 748.0594 207.4998Q748.5594 206.90605 748.5594 205.65605Q748.5594 204.46855 748.075 203.89043Q747.59064 203.29668 746.90314 203.29668Q746.23126 203.29668 745.71564 203.92168Q745.2 204.54668 745.2 205.7498ZM751.21564 208.82793L751.21564 200.23418L752.27814 200.23418L752.27814 208.82793L751.21564 208.82793ZM753.85626 205.71855Q753.85626 203.98418 754.8094 203.15605Q755.60626 202.46855 756.7625 202.46855Q758.04376 202.46855 758.85626 203.3123Q759.6844 204.14043 759.6844 205.6248Q759.6844 206.82793 759.325 207.51543Q758.96564 208.20293 758.2625 208.59355Q757.575 208.96855 756.7625 208.96855Q755.46564 208.96855 754.65314 208.14043Q753.85626 207.29668 753.85626 205.71855ZM754.9344 205.71855Q754.9344 206.90605 755.45 207.4998Q755.98126 208.09355 756.7625 208.09355Q757.5594 208.09355 758.075 207.4998Q758.59064 206.90605 758.59064 205.6873Q758.59064 204.53105 758.0594 203.9373Q757.54376 203.34355 756.7625 203.34355Q755.98126 203.34355 755.45 203.9373Q754.9344 204.51543 754.9344 205.71855ZM761.2 211.21855L761.075 210.23418Q761.41876 210.32793 761.6844 210.32793Q762.02814 210.32793 762.23126 210.20293Q762.45 210.09355 762.59064 209.89043Q762.6844 209.71855 762.91876 209.09355Q762.9344 209.01543 763.0125 208.84355L760.6375 202.60918L761.77814 202.60918L763.075 206.20293Q763.325 206.89043 763.52814 207.65605Q763.71564 206.92168 763.96564 206.23418L765.29376 202.60918L766.34064 202.60918L763.98126 208.9373Q763.59064 209.95293 763.3875 210.34355Q763.10626 210.8748 762.73126 211.10918Q762.3719 211.35918 761.8719 211.35918Q761.575 211.35918 761.2 211.21855ZM770.4969 206.82793L771.59064 206.95293Q771.34064 207.90605 770.6375 208.4373Q769.9344 208.96855 768.85626 208.96855Q767.4969 208.96855 766.6844 208.1248Q765.8875 207.28105 765.8875 205.76543Q765.8875 204.20293 766.7 203.34355Q767.5125 202.46855 768.79376 202.46855Q770.04376 202.46855 770.825 203.3123Q771.6219 204.15605 771.6219 205.70293Q771.6219 205.79668 771.6219 205.98418L766.98126 205.98418Q767.04376 207.01543 767.5594 207.5623Q768.075 208.09355 768.85626 208.09355Q769.4344 208.09355 769.84064 207.79668Q770.2625 207.48418 770.4969 206.82793ZM767.04376 205.1248L770.5125 205.1248Q770.45 204.32793 770.1219 203.9373Q769.60626 203.32793 768.8094 203.32793Q768.075 203.32793 767.575 203.8123Q767.09064 204.29668 767.04376 205.1248ZM773.23126 208.82793L773.23126 202.60918L774.1844 202.60918L774.1844 203.54668Q774.54376 202.89043 774.84064 202.6873Q775.15314 202.46855 775.52814 202.46855Q776.0594 202.46855 776.60626 202.79668L776.2469 203.78105Q775.85626 203.54668 775.48126 203.54668Q775.1219 203.54668 774.84064 203.76543Q774.575 203.96855 774.46564 204.34355Q774.27814 204.90605 774.27814 205.5623L774.27814 208.82793L773.23126 208.82793ZM780.2469 201.45293L780.2469 200.23418L781.3094 200.23418L781.3094 201.45293L780.2469 201.45293ZM780.2469 208.82793L780.2469 202.60918L781.3094 202.60918L781.3094 208.82793L780.2469 208.82793ZM782.825 206.96855L783.85626 206.8123Q783.95 207.4373 784.34064 207.76543Q784.7469 208.09355 785.48126 208.09355Q786.2 208.09355 786.54376 207.8123Q786.90314 207.51543 786.90314 207.10918Q786.90314 206.7498 786.59064 206.54668Q786.3719 206.40605 785.5125 206.1873Q784.35626 205.89043 783.90314 205.6873Q783.46564 205.46855 783.23126 205.09355Q782.9969 204.71855 782.9969 204.2498Q782.9969 203.84355 783.1844 203.48418Q783.3719 203.1248 783.7 202.89043Q783.95 202.71855 784.3719 202.59355Q784.79376 202.46855 785.29376 202.46855Q786.0125 202.46855 786.5594 202.6873Q787.1219 202.89043 787.3875 203.2498Q787.65314 203.60918 787.7469 204.20293L786.71564 204.34355Q786.65314 203.8748 786.3094 203.60918Q785.98126 203.32793 785.35626 203.32793Q784.6375 203.32793 784.325 203.57793Q784.0125 203.8123 784.0125 204.14043Q784.0125 204.34355 784.1375 204.4998Q784.27814 204.67168 784.54376 204.78105Q784.7 204.84355 785.48126 205.04668Q786.60626 205.35918 787.04376 205.54668Q787.48126 205.73418 787.73126 206.09355Q787.98126 206.45293 787.98126 206.9998Q787.98126 207.53105 787.66876 207.9998Q787.3719 208.45293 786.79376 208.71855Q786.21564 208.96855 785.48126 208.96855Q784.2625 208.96855 783.6219 208.46855Q782.9969 207.95293 782.825 206.96855ZM793.21564 208.82793L793.21564 200.23418L794.27814 200.23418L794.27814 208.82793L793.21564 208.82793ZM795.85626 205.71855Q795.85626 203.98418 796.8094 203.15605Q797.60626 202.46855 798.7625 202.46855Q800.04376 202.46855 800.85626 203.3123Q801.6844 204.14043 801.6844 205.6248Q801.6844 206.82793 801.325 207.51543Q800.96564 208.20293 800.2625 208.59355Q799.575 208.96855 798.7625 208.96855Q797.46564 208.96855 796.65314 208.14043Q795.85626 207.29668 795.85626 205.71855ZM796.9344 205.71855Q796.9344 206.90605 797.45 207.4998Q797.98126 208.09355 798.7625 208.09355Q799.5594 208.09355 800.075 207.4998Q800.59064 206.90605 800.59064 205.6873Q800.59064 204.53105 800.0594 203.9373Q799.54376 203.34355 798.7625 203.34355Q797.98126 203.34355 797.45 203.9373Q796.9344 204.51543 796.9344 205.71855ZM807.3094 206.54668L808.34064 206.6873Q808.16876 207.7498 807.46564 208.35918Q806.7625 208.96855 805.7469 208.96855Q804.46564 208.96855 803.6844 208.14043Q802.91876 207.29668 802.91876 205.73418Q802.91876 204.73418 803.2469 203.98418Q803.59064 203.21855 804.2625 202.84355Q804.95 202.46855 805.7625 202.46855Q806.7625 202.46855 807.40314 202.98418Q808.0594 203.48418 808.2469 204.4373L807.21564 204.59355Q807.075 203.96855 806.7 203.65605Q806.325 203.32793 805.79376 203.32793Q804.9969 203.32793 804.4969 203.90605Q803.9969 204.46855 803.9969 205.70293Q803.9969 206.96855 804.48126 207.53105Q804.96564 208.09355 805.73126 208.09355Q806.35626 208.09355 806.7625 207.71855Q807.1844 207.34355 807.3094 206.54668ZM813.3094 208.0623Q812.71564 208.5623 812.16876 208.76543Q811.6375 208.96855 811.0125 208.96855Q809.98126 208.96855 809.4344 208.46855Q808.8875 207.96855 808.8875 207.1873Q808.8875 206.73418 809.09064 206.35918Q809.29376 205.96855 809.6375 205.7498Q809.98126 205.51543 810.40314 205.40605Q810.7 205.3123 811.34064 205.23418Q812.60626 205.09355 813.21564 204.8748Q813.21564 204.65605 813.21564 204.60918Q813.21564 203.95293 812.91876 203.6873Q812.5125 203.34355 811.71564 203.34355Q810.98126 203.34355 810.6219 203.60918Q810.2625 203.85918 810.09064 204.51543L809.0594 204.3748Q809.2 203.71855 809.52814 203.3123Q809.85626 202.90605 810.46564 202.6873Q811.075 202.46855 811.8719 202.46855Q812.66876 202.46855 813.16876 202.65605Q813.66876 202.84355 813.90314 203.1248Q814.1375 203.40605 814.23126 203.84355Q814.27814 204.10918 814.27814 204.8123L814.27814 206.21855Q814.27814 207.6873 814.34064 208.07793Q814.41876 208.46855 814.6219 208.82793L813.5125 208.82793Q813.35626 208.4998 813.3094 208.0623ZM813.21564 205.70293Q812.6375 205.9373 811.4969 206.10918Q810.84064 206.20293 810.575 206.32793Q810.3094 206.4373 810.15314 206.65605Q810.0125 206.8748 810.0125 207.15605Q810.0125 207.57793 810.325 207.85918Q810.65314 208.14043 811.2625 208.14043Q811.8719 208.14043 812.34064 207.8748Q812.825 207.60918 813.04376 207.14043Q813.21564 206.78105 813.21564 206.09355L813.21564 205.70293ZM818.54376 207.89043L818.7 208.8123Q818.2469 208.90605 817.90314 208.90605Q817.325 208.90605 817.0125 208.73418Q816.7 208.54668 816.5594 208.2498Q816.4344 207.95293 816.4344 206.9998L816.4344 203.42168L815.66876 203.42168L815.66876 202.60918L816.4344 202.60918L816.4344 201.0623L817.48126 200.4373L817.48126 202.60918L818.54376 202.60918L818.54376 203.42168L817.48126 203.42168L817.48126 207.0623Q817.48126 207.51543 817.52814 207.64043Q817.59064 207.76543 817.71564 207.84355Q817.84064 207.92168 818.075 207.92168Q818.2625 207.92168 818.54376 207.89043ZM823.4969 206.82793L824.59064 206.95293Q824.34064 207.90605 823.6375 208.4373Q822.9344 208.96855 821.85626 208.96855Q820.4969 208.96855 819.6844 208.1248Q818.8875 207.28105 818.8875 205.76543Q818.8875 204.20293 819.7 203.34355Q820.5125 202.46855 821.79376 202.46855Q823.04376 202.46855 823.825 203.3123Q824.6219 204.15605 824.6219 205.70293Q824.6219 205.79668 824.6219 205.98418L819.98126 205.98418Q820.04376 207.01543 820.5594 207.5623Q821.075 208.09355 821.85626 208.09355Q822.4344 208.09355 822.84064 207.79668Q823.2625 207.48418 823.4969 206.82793ZM820.04376 205.1248L823.5125 205.1248Q823.45 204.32793 823.1219 203.9373Q822.60626 203.32793 821.8094 203.32793Q821.075 203.32793 820.575 203.8123Q820.09064 204.29668 820.04376 205.1248ZM830.27814 208.82793L830.27814 208.04668Q829.6844 208.96855 828.54376 208.96855Q827.79376 208.96855 827.16876 208.5623Q826.54376 208.14043 826.2 207.40605Q825.85626 206.67168 825.85626 205.71855Q825.85626 204.79668 826.16876 204.03105Q826.48126 203.26543 827.10626 202.8748Q827.73126 202.46855 828.4969 202.46855Q829.0594 202.46855 829.4969 202.70293Q829.9344 202.9373 830.21564 203.3123L830.21564 200.23418L831.2625 200.23418L831.2625 208.82793L830.27814 208.82793ZM826.95 205.71855Q826.95 206.92168 827.45 207.51543Q827.95 208.09355 828.6375 208.09355Q829.325 208.09355 829.8094 207.53105Q830.29376 206.96855 830.29376 205.8123Q830.29376 204.53105 829.79376 203.9373Q829.3094 203.34355 828.59064 203.34355Q827.8875 203.34355 827.41876 203.92168Q826.95 204.48418 826.95 205.71855ZM836.2469 201.45293L836.2469 200.23418L837.3094 200.23418L837.3094 201.45293L836.2469 201.45293ZM836.2469 208.82793L836.2469 202.60918L837.3094 202.60918L837.3094 208.82793L836.2469 208.82793ZM839.2469 208.82793L839.2469 202.60918L840.1844 202.60918L840.1844 203.48418Q840.8719 202.46855 842.16876 202.46855Q842.73126 202.46855 843.2 202.67168Q843.6844 202.8748 843.91876 203.20293Q844.15314 203.53105 844.2469 203.96855Q844.29376 204.26543 844.29376 204.9998L844.29376 208.82793L843.2469 208.82793L843.2469 205.04668Q843.2469 204.39043 843.1219 204.07793Q842.9969 203.76543 842.6844 203.57793Q842.3719 203.3748 841.95 203.3748Q841.27814 203.3748 840.77814 203.8123Q840.29376 204.23418 840.29376 205.42168L840.29376 208.82793L839.2469 208.82793ZM855.0125 200.23418L856.15314 200.23418L856.15314 205.20293Q856.15314 206.4998 855.85626 207.26543Q855.5594 208.01543 854.79376 208.4998Q854.02814 208.96855 852.79376 208.96855Q851.59064 208.96855 850.8094 208.5623Q850.04376 208.14043 849.71564 207.35918Q849.3875 206.5623 849.3875 205.20293L849.3875 200.23418L850.52814 200.23418L850.52814 205.1873Q850.52814 206.3123 850.73126 206.84355Q850.95 207.3748 851.45 207.67168Q851.96564 207.95293 852.7 207.95293Q853.95 207.95293 854.48126 207.39043Q855.0125 206.8123 855.0125 205.1873L855.0125 200.23418ZM860.54376 207.89043L860.7 208.8123Q860.2469 208.90605 859.90314 208.90605Q859.325 208.90605 859.0125 208.73418Q858.7 208.54668 858.5594 208.2498Q858.4344 207.95293 858.4344 206.9998L858.4344 203.42168L857.66876 203.42168L857.66876 202.60918L858.4344 202.60918L858.4344 201.0623L859.48126 200.4373L859.48126 202.60918L860.54376 202.60918L860.54376 203.42168L859.48126 203.42168L859.48126 207.0623Q859.48126 207.51543 859.52814 207.64043Q859.59064 207.76543 859.71564 207.84355Q859.84064 207.92168 860.075 207.92168Q860.2625 207.92168 860.54376 207.89043ZM865.3094 208.0623Q864.71564 208.5623 864.16876 208.76543Q863.6375 208.96855 863.0125 208.96855Q861.98126 208.96855 861.4344 208.46855Q860.8875 207.96855 860.8875 207.1873Q860.8875 206.73418 861.09064 206.35918Q861.29376 205.96855 861.6375 205.7498Q861.98126 205.51543 862.40314 205.40605Q862.7 205.3123 863.34064 205.23418Q864.60626 205.09355 865.21564 204.8748Q865.21564 204.65605 865.21564 204.60918Q865.21564 203.95293 864.91876 203.6873Q864.5125 203.34355 863.71564 203.34355Q862.98126 203.34355 862.6219 203.60918Q862.2625 203.85918 862.09064 204.51543L861.0594 204.3748Q861.2 203.71855 861.52814 203.3123Q861.85626 202.90605 862.46564 202.6873Q863.075 202.46855 863.8719 202.46855Q864.66876 202.46855 865.16876 202.65605Q865.66876 202.84355 865.90314 203.1248Q866.1375 203.40605 866.23126 203.84355Q866.27814 204.10918 866.27814 204.8123L866.27814 206.21855Q866.27814 207.6873 866.34064 208.07793Q866.41876 208.46855 866.6219 208.82793L865.5125 208.82793Q865.35626 208.4998 865.3094 208.0623ZM865.21564 205.70293Q864.6375 205.9373 863.4969 206.10918Q862.84064 206.20293 862.575 206.32793Q862.3094 206.4373 862.15314 206.65605Q862.0125 206.8748 862.0125 207.15605Q862.0125 207.57793 862.325 207.85918Q862.65314 208.14043 863.2625 208.14043Q863.8719 208.14043 864.34064 207.8748Q864.825 207.60918 865.04376 207.14043Q865.21564 206.78105 865.21564 206.09355L865.21564 205.70293ZM868.2469 208.82793L868.2469 200.23418L869.29376 200.23418L869.29376 203.3123Q870.02814 202.46855 871.15314 202.46855Q871.85626 202.46855 872.35626 202.7498Q872.8719 203.01543 873.09064 203.4998Q873.3094 203.96855 873.3094 204.89043L873.3094 208.82793L872.2625 208.82793L872.2625 204.89043Q872.2625 204.09355 871.91876 203.73418Q871.575 203.3748 870.95 203.3748Q870.48126 203.3748 870.0594 203.6248Q869.65314 203.85918 869.46564 204.28105Q869.29376 204.6873 869.29376 205.42168L869.29376 208.82793L868.2469 208.82793Z" fill-rule="nonzero"/><path fill="#9e9e9e" d="M839.95 223.57793L841.0594 223.48418Q841.1844 224.29668 841.6219 224.70293Q842.075 225.10918 842.71564 225.10918Q843.46564 225.10918 843.9969 224.53105Q844.52814 223.95293 844.52814 223.01543Q844.52814 222.10918 844.0125 221.59355Q843.5125 221.0623 842.6844 221.0623Q842.1844 221.0623 841.7625 221.29668Q841.35626 221.53105 841.1219 221.89043L840.1375 221.76543L840.96564 217.35918L845.2469 217.35918L845.2469 218.35918L841.8094 218.35918L841.35626 220.67168Q842.1219 220.1248 842.96564 220.1248Q844.09064 220.1248 844.85626 220.90605Q845.6375 221.6873 845.6375 222.92168Q845.6375 224.07793 844.96564 224.9373Q844.1375 225.96855 842.71564 225.96855Q841.54376 225.96855 840.79376 225.3123Q840.0594 224.65605 839.95 223.57793ZM852.4969 224.8123L852.4969 225.82793L846.8094 225.82793Q846.8094 225.45293 846.9344 225.09355Q847.15314 224.51543 847.6219 223.95293Q848.10626 223.39043 849.0125 222.65605Q850.41876 221.4998 850.90314 220.82793Q851.40314 220.15605 851.40314 219.5623Q851.40314 218.9373 850.95 218.51543Q850.4969 218.07793 849.77814 218.07793Q849.0125 218.07793 848.5594 218.53105Q848.10626 218.98418 848.09064 219.79668L847.0125 219.6873Q847.1219 218.46855 847.84064 217.84355Q848.575 217.20293 849.8094 217.20293Q851.04376 217.20293 851.7625 217.89043Q852.48126 218.57793 852.48126 219.59355Q852.48126 220.10918 852.2625 220.60918Q852.0594 221.09355 851.5594 221.65605Q851.075 222.20293 849.95 223.15605Q848.9969 223.95293 848.71564 224.2498Q848.45 224.53105 848.27814 224.8123L852.4969 224.8123ZM854.54376 225.82793L854.54376 224.6248L855.7469 224.6248L855.7469 225.82793L854.54376 225.82793ZM862.4969 224.8123L862.4969 225.82793L856.8094 225.82793Q856.8094 225.45293 856.9344 225.09355Q857.15314 224.51543 857.6219 223.95293Q858.10626 223.39043 859.0125 222.65605Q860.41876 221.4998 860.90314 220.82793Q861.40314 220.15605 861.40314 219.5623Q861.40314 218.9373 860.95 218.51543Q860.4969 218.07793 859.77814 218.07793Q859.0125 218.07793 858.5594 218.53105Q858.10626 218.98418 858.09064 219.79668L857.0125 219.6873Q857.1219 218.46855 857.84064 217.84355Q858.575 217.20293 859.8094 217.20293Q861.04376 217.20293 861.7625 217.89043Q862.48126 218.57793 862.48126 219.59355Q862.48126 220.10918 862.2625 220.60918Q862.0594 221.09355 861.5594 221.65605Q861.075 222.20293 859.95 223.15605Q858.9969 223.95293 858.71564 224.2498Q858.45 224.53105 858.27814 224.8123L862.4969 224.8123ZM864.15314 219.29668Q864.15314 218.3748 864.60626 217.73418Q865.075 217.09355 865.95 217.09355Q866.7625 217.09355 867.29376 217.67168Q867.825 218.2498 867.825 219.35918Q867.825 220.45293 867.27814 221.04668Q866.7469 221.6248 865.96564 221.6248Q865.1844 221.6248 864.66876 221.04668Q864.15314 220.46855 864.15314 219.29668ZM865.98126 217.8123Q865.59064 217.8123 865.325 218.15605Q865.075 218.4998 865.075 219.40605Q865.075 220.23418 865.325 220.57793Q865.59064 220.90605 865.98126 220.90605Q866.3875 220.90605 866.6375 220.5623Q866.90314 220.21855 866.90314 219.32793Q866.90314 218.48418 866.6375 218.15605Q866.3719 217.8123 865.98126 217.8123ZM865.98126 226.14043L870.6844 217.09355L871.54376 217.09355L866.85626 226.14043L865.98126 226.14043ZM869.7 223.8123Q869.7 222.89043 870.15314 222.2498Q870.6219 221.60918 871.5125 221.60918Q872.325 221.60918 872.85626 222.1873Q873.3875 222.7498 873.3875 223.8748Q873.3875 224.96855 872.84064 225.5623Q872.3094 226.14043 871.5125 226.14043Q870.7469 226.14043 870.21564 225.5623Q869.7 224.98418 869.7 223.8123ZM871.54376 222.32793Q871.1375 222.32793 870.8719 222.67168Q870.6219 223.01543 870.6219 223.92168Q870.6219 224.73418 870.8875 225.07793Q871.15314 225.42168 871.54376 225.42168Q871.9344 225.42168 872.2 225.07793Q872.46564 224.73418 872.46564 223.82793Q872.46564 222.9998 872.2 222.67168Q871.9344 222.32793 871.54376 222.32793Z" fill-rule="nonzero"/><path stroke="#757575" stroke-width="1.0" stroke-linecap="butt" d="M874.45 213.32793L601.26666 213.32793L587.49884 213.32793" fill-rule="nonzero"/><path fill="#9e9e9e" d="M589.49884 213.32793C589.49884 212.22334 588.60345 211.32793 587.49884 211.32793C586.3943 211.32793 585.49884 212.22334 585.49884 213.32793C585.49884 214.4325 586.3943 215.32793 587.49884 215.32793C588.60345 215.32793 589.49884 214.4325 589.49884 213.32793" fill-rule="nonzero"/><path fill="#757575" d="M30.315624 32.534374L32.20625 33.003124Q31.6125 35.346874 30.065624 36.58125Q28.51875 37.8 26.26875 37.8Q23.95625 37.8 22.503124 36.8625Q21.065624 35.909374 20.3 34.128124Q19.55 32.33125 19.55 30.284374Q19.55 28.05 20.39375 26.39375Q21.253124 24.721874 22.83125 23.8625Q24.409374 22.9875 26.3 22.9875Q28.45625 22.9875 29.909374 24.08125Q31.378124 25.175 31.95625 27.159374L30.096874 27.596874Q29.596874 26.034374 28.64375 25.33125Q27.70625 24.6125 26.26875 24.6125Q24.6125 24.6125 23.503124 25.409374Q22.39375 26.190624 21.940624 27.534374Q21.503124 28.8625 21.503124 30.26875Q21.503124 32.096874 22.034374 33.471874Q22.565624 34.83125 23.690624 35.503124Q24.815624 36.175 26.1125 36.175Q27.70625 36.175 28.815624 35.253124Q29.925 34.33125 30.315624 32.534374ZM33.221874 32.3625Q33.221874 29.4875 34.815624 28.096874Q36.159374 26.940624 38.08125 26.940624Q40.221874 26.940624 41.565624 28.346874Q42.925 29.753124 42.925 32.221874Q42.925 34.221874 42.33125 35.378124Q41.7375 36.51875 40.58125 37.159374Q39.440624 37.784374 38.08125 37.784374Q35.89375 37.784374 34.55 36.39375Q33.221874 34.9875 33.221874 32.3625ZM35.01875 32.3625Q35.01875 34.3625 35.878124 35.346874Q36.753124 36.33125 38.08125 36.33125Q39.39375 36.33125 40.253124 35.346874Q41.128124 34.346874 41.128124 32.3Q41.128124 30.378124 40.253124 29.39375Q39.378124 28.39375 38.08125 28.39375Q36.753124 28.39375 35.878124 29.39375Q35.01875 30.378124 35.01875 32.3625ZM51.659374 37.55L51.659374 36.01875Q50.45625 37.784374 48.378124 37.784374Q47.45625 37.784374 46.659374 37.440624Q45.8625 37.08125 45.471874 36.55Q45.096874 36.01875 44.940624 35.2375Q44.83125 34.721874 44.83125 33.596874L44.83125 27.175L46.58125 27.175L46.58125 32.925Q46.58125 34.3 46.690624 34.784374Q46.8625 35.471874 47.39375 35.878124Q47.940624 36.26875 48.721874 36.26875Q49.51875 36.26875 50.20625 35.8625Q50.909374 35.45625 51.190624 34.76875Q51.4875 34.065624 51.4875 32.7375L51.4875 27.175L53.2375 27.175L53.2375 37.55L51.659374 37.55ZM54.8625 37.55L54.8625 27.175L56.45625 27.175L56.45625 28.659374Q57.596874 26.940624 59.753124 26.940624Q60.690624 26.940624 61.471874 27.284374Q62.26875 27.6125 62.659374 28.159374Q63.05 28.70625 63.20625 29.45625Q63.3 29.95625 63.3 31.175L63.3 37.55L61.534374 37.55L61.534374 31.2375Q61.534374 30.159374 61.33125 29.628124Q61.128124 29.096874 60.596874 28.784374Q60.08125 28.471874 59.378124 28.471874Q58.253124 28.471874 57.440624 29.190624Q56.628124 29.89375 56.628124 31.878124L56.628124 37.55L54.8625 37.55ZM68.70625 35.971874L68.95625 37.534374Q68.22188 37.690624 67.62813 37.690624Q66.675 37.690624 66.14375 37.39375Q65.62813 37.08125 65.40938 36.596874Q65.19063 36.096874 65.19063 34.51875L65.19063 28.55L63.909374 28.55L63.909374 27.175L65.19063 27.175L65.19063 24.6125L66.94063 23.55L66.94063 27.175L68.70625 27.175L68.70625 28.55L66.94063 28.55L66.94063 34.6125Q66.94063 35.3625 67.03438 35.58125Q67.12813 35.784374 67.33125 35.925Q67.55 36.05 67.94063 36.05Q68.22188 36.05 68.70625 35.971874ZM76.22188 32.3625Q76.22188 29.4875 77.81563 28.096874Q79.15938 26.940624 81.08125 26.940624Q83.22188 26.940624 84.56563 28.346874Q85.925 29.753124 85.925 32.221874Q85.925 34.221874 85.33125 35.378124Q84.7375 36.51875 83.58125 37.159374Q82.44063 37.784374 81.08125 37.784374Q78.89375 37.784374 77.55 36.39375Q76.22188 34.9875 76.22188 32.3625ZM78.01875 32.3625Q78.01875 34.3625 78.87813 35.346874Q79.75313 36.33125 81.08125 36.33125Q82.39375 36.33125 83.25313 35.346874Q84.12813 34.346874 84.12813 32.3Q84.12813 30.378124 83.25313 29.39375Q82.37813 28.39375 81.08125 28.39375Q79.75313 28.39375 78.87813 29.39375Q78.01875 30.378124 78.01875 32.3625ZM88.28438 37.55L88.28438 28.55L86.7375 28.55L86.7375 27.175L88.28438 27.175L88.28438 26.08125Q88.28438 25.034374 88.47188 24.51875Q88.72188 23.83125 89.3625 23.409374Q90.00313 22.9875 91.15938 22.9875Q91.90938 22.9875 92.8 23.159374L92.53438 24.690624Q91.9875 24.596874 91.50313 24.596874Q90.70625 24.596874 90.3625 24.940624Q90.03438 25.284374 90.03438 26.221874L90.03438 27.175L92.06563 27.175L92.06563 28.55L90.03438 28.55L90.03438 37.55L88.28438 37.55ZM100.12813 37.55L100.12813 23.2375L110.4875 23.2375L110.4875 24.925L102.03438 24.925L102.03438 29.3L109.94063 29.3L109.94063 30.9875L102.03438 30.9875L102.03438 35.8625L110.81563 35.8625L110.81563 37.55L100.12813 37.55ZM112.8625 37.55L112.8625 27.175L114.44063 27.175L114.44063 28.628124Q114.925 27.878124 115.7375 27.409374Q116.55 26.940624 117.58125 26.940624Q118.7375 26.940624 119.47188 27.425Q120.20625 27.89375 120.51875 28.753124Q121.75313 26.940624 123.72188 26.940624Q125.26875 26.940624 126.09688 27.8Q126.925 28.659374 126.925 30.425L126.925 37.55L125.175 37.55L125.175 31.01875Q125.175 29.95625 125.00313 29.503124Q124.83125 29.034374 124.37813 28.753124Q123.94063 28.471874 123.33125 28.471874Q122.2375 28.471874 121.50313 29.20625Q120.78438 29.925 120.78438 31.51875L120.78438 37.55L119.03438 37.55L119.03438 30.815624Q119.03438 29.64375 118.59688 29.065624Q118.175 28.471874 117.19063 28.471874Q116.45625 28.471874 115.81563 28.8625Q115.19063 29.253124 114.90938 30.003124Q114.62813 30.753124 114.62813 32.175L114.62813 37.55L112.8625 37.55ZM128.8625 41.51875L128.8625 27.175L130.47188 27.175L130.47188 28.51875Q131.03438 27.7375 131.7375 27.346874Q132.45625 26.940624 133.47188 26.940624Q134.8 26.940624 135.81563 27.628124Q136.83125 28.315624 137.34688 29.565624Q137.87813 30.8 137.87813 32.284374Q137.87813 33.878124 137.3 35.159374Q136.7375 36.425 135.64375 37.1125Q134.55 37.784374 133.34688 37.784374Q132.47188 37.784374 131.76875 37.409374Q131.08125 37.034374 130.62813 36.471874L130.62813 41.51875L128.8625 41.51875ZM130.45625 32.425Q130.45625 34.425 131.26875 35.378124Q132.08125 36.33125 133.2375 36.33125Q134.40938 36.33125 135.2375 35.346874Q136.08125 34.3625 136.08125 32.26875Q136.08125 30.3 135.25313 29.315624Q134.44063 28.315624 133.31563 28.315624Q132.19063 28.315624 131.31563 29.378124Q130.45625 30.425 130.45625 32.425ZM139.83125 37.55L139.83125 23.2375L141.58125 23.2375L141.58125 37.55L139.83125 37.55ZM143.22188 32.3625Q143.22188 29.4875 144.81563 28.096874Q146.15938 26.940624 148.08125 26.940624Q150.22188 26.940624 151.56563 28.346874Q152.925 29.753124 152.925 32.221874Q152.925 34.221874 152.33125 35.378124Q151.7375 36.51875 150.58125 37.159374Q149.44063 37.784374 148.08125 37.784374Q145.89375 37.784374 144.55 36.39375Q143.22188 34.9875 143.22188 32.3625ZM145.01875 32.3625Q145.01875 34.3625 145.87813 35.346874Q146.75313 36.33125 148.08125 36.33125Q149.39375 36.33125 150.25313 35.346874Q151.12813 34.346874 151.12813 32.3Q151.12813 30.378124 150.25313 29.39375Q149.37813 28.39375 148.08125 28.39375Q146.75313 28.39375 145.87813 29.39375Q145.01875 30.378124 145.01875 32.3625ZM154.78438 41.55L154.59688 39.89375Q155.175 40.05 155.59688 40.05Q156.19063 40.05 156.53438 39.846874Q156.89375 39.659374 157.1125 39.315624Q157.28438 39.05 157.65938 38.003124Q157.70625 37.846874 157.81563 37.565624L153.87813 27.175L155.76875 27.175L157.925 33.190624Q158.34688 34.33125 158.675 35.58125Q158.9875 34.378124 159.39375 33.221874L161.6125 27.175L163.37813 27.175L159.425 37.721874Q158.8 39.440624 158.44063 40.08125Q157.97188 40.95625 157.3625 41.346874Q156.76875 41.753124 155.925 41.753124Q155.40938 41.753124 154.78438 41.55ZM171.97188 34.20625L173.78438 34.440624Q173.3625 36.01875 172.19063 36.909374Q171.03438 37.784374 169.22188 37.784374Q166.95625 37.784374 165.6125 36.39375Q164.28438 34.9875 164.28438 32.45625Q164.28438 29.83125 165.62813 28.39375Q166.97188 26.940624 169.12813 26.940624Q171.20625 26.940624 172.51875 28.3625Q173.84688 29.76875 173.84688 32.346874Q173.84688 32.503124 173.83125 32.815624L166.09688 32.815624Q166.19063 34.51875 167.06563 35.425Q167.94063 36.33125 169.2375 36.33125Q170.20625 36.33125 170.87813 35.83125Q171.56563 35.315624 171.97188 34.20625ZM166.19063 31.3625L171.9875 31.3625Q171.87813 30.065624 171.33125 29.409374Q170.4875 28.39375 169.14375 28.39375Q167.94063 28.39375 167.1125 29.20625Q166.28438 30.003124 166.19063 31.3625ZM175.84688 37.55L175.84688 27.175L177.425 27.175L177.425 28.753124Q178.03438 27.64375 178.55 27.3Q179.06563 26.940624 179.675 26.940624Q180.56563 26.940624 181.4875 27.503124L180.87813 29.14375Q180.2375 28.753124 179.59688 28.753124Q179.01875 28.753124 178.55 29.1125Q178.09688 29.45625 177.89375 30.065624Q177.6125 31.003124 177.6125 32.1125L177.6125 37.55L175.84688 37.55ZM189.01875 37.55L189.01875 23.2375L190.90938 23.2375L190.90938 35.8625L197.95625 35.8625L197.95625 37.55L189.01875 37.55ZM199.22188 32.3625Q199.22188 29.4875 200.81563 28.096874Q202.15938 26.940624 204.08125 26.940624Q206.22188 26.940624 207.56563 28.346874Q208.925 29.753124 208.925 32.221874Q208.925 34.221874 208.33125 35.378124Q207.7375 36.51875 206.58125 37.159374Q205.44063 37.784374 204.08125 37.784374Q201.89375 37.784374 200.55 36.39375Q199.22188 34.9875 199.22188 32.3625ZM201.01875 32.3625Q201.01875 34.3625 201.87813 35.346874Q202.75313 36.33125 204.08125 36.33125Q205.39375 36.33125 206.25313 35.346874Q207.12813 34.346874 207.12813 32.3Q207.12813 30.378124 206.25313 29.39375Q205.37813 28.39375 204.08125 28.39375Q202.75313 28.39375 201.87813 29.39375Q201.01875 30.378124 201.01875 32.3625ZM217.64375 33.753124L219.3625 33.971874Q219.08125 35.76875 217.90938 36.784374Q216.75313 37.784374 215.05 37.784374Q212.925 37.784374 211.62813 36.39375Q210.33125 35.003124 210.33125 32.409374Q210.33125 30.721874 210.87813 29.471874Q211.44063 28.20625 212.58125 27.58125Q213.72188 26.940624 215.06563 26.940624Q216.75313 26.940624 217.81563 27.8Q218.89375 28.659374 219.20625 30.221874L217.4875 30.4875Q217.25313 29.440624 216.62813 28.925Q216.00313 28.39375 215.12813 28.39375Q213.8 28.39375 212.97188 29.346874Q212.14375 30.3 212.14375 32.346874Q212.14375 34.440624 212.94063 35.39375Q213.7375 36.33125 215.03438 36.33125Q216.06563 36.33125 216.75313 35.70625Q217.45625 35.065624 217.64375 33.753124ZM227.64375 36.26875Q226.65938 37.096874 225.75313 37.440624Q224.84688 37.784374 223.81563 37.784374Q222.1125 37.784374 221.19063 36.95625Q220.26875 36.1125 220.26875 34.815624Q220.26875 34.05 220.6125 33.425Q220.97188 32.8 221.53438 32.425Q222.09688 32.034374 222.8 31.83125Q223.31563 31.70625 224.3625 31.565624Q226.4875 31.315624 227.4875 30.971874Q227.50313 30.6125 227.50313 30.503124Q227.50313 29.440624 227.00313 28.9875Q226.33125 28.39375 225.00313 28.39375Q223.75313 28.39375 223.15938 28.83125Q222.58125 29.26875 222.3 30.378124L220.58125 30.14375Q220.81563 29.034374 221.34688 28.3625Q221.87813 27.675 222.89375 27.315624Q223.90938 26.940624 225.25313 26.940624Q226.58125 26.940624 227.40938 27.253124Q228.2375 27.565624 228.62813 28.05Q229.01875 28.51875 229.175 29.2375Q229.26875 29.690624 229.26875 30.8625L229.26875 33.20625Q229.26875 35.659374 229.37813 36.315624Q229.4875 36.95625 229.83125 37.55L227.9875 37.55Q227.72188 37.003124 227.64375 36.26875ZM227.4875 32.346874Q226.53438 32.7375 224.6125 33.003124Q223.53438 33.159374 223.08125 33.3625Q222.64375 33.55 222.39375 33.925Q222.14375 34.3 222.14375 34.76875Q222.14375 35.471874 222.675 35.940624Q223.20625 36.409374 224.2375 36.409374Q225.25313 36.409374 226.03438 35.971874Q226.83125 35.51875 227.20625 34.753124Q227.4875 34.14375 227.4875 32.9875L227.4875 32.346874ZM235.70625 35.971874L235.95625 37.534374Q235.22188 37.690624 234.62813 37.690624Q233.675 37.690624 233.14375 37.39375Q232.62813 37.08125 232.40938 36.596874Q232.19063 36.096874 232.19063 34.51875L232.19063 28.55L230.90938 28.55L230.90938 27.175L232.19063 27.175L232.19063 24.6125L233.94063 23.55L233.94063 27.175L235.70625 27.175L235.70625 28.55L233.94063 28.55L233.94063 34.6125Q233.94063 35.3625 234.03438 35.58125Q234.12813 35.784374 234.33125 35.925Q234.55 36.05 234.94063 36.05Q235.22188 36.05 235.70625 35.971874ZM237.87813 25.253124L237.87813 23.2375L239.64375 23.2375L239.64375 25.253124L237.87813 25.253124ZM237.87813 37.55L237.87813 27.175L239.64375 27.175L239.64375 37.55L237.87813 37.55ZM241.22188 32.3625Q241.22188 29.4875 242.81563 28.096874Q244.15938 26.940624 246.08125 26.940624Q248.22188 26.940624 249.56563 28.346874Q250.925 29.753124 250.925 32.221874Q250.925 34.221874 250.33125 35.378124Q249.7375 36.51875 248.58125 37.159374Q247.44063 37.784374 246.08125 37.784374Q243.89375 37.784374 242.55 36.39375Q241.22188 34.9875 241.22188 32.3625ZM243.01875 32.3625Q243.01875 34.3625 243.87813 35.346874Q244.75313 36.33125 246.08125 36.33125Q247.39375 36.33125 248.25313 35.346874Q249.12813 34.346874 249.12813 32.3Q249.12813 30.378124 248.25313 29.39375Q247.37813 28.39375 246.08125 28.39375Q244.75313 28.39375 243.87813 29.39375Q243.01875 30.378124 243.01875 32.3625ZM252.8625 37.55L252.8625 27.175L254.45625 27.175L254.45625 28.659374Q255.59688 26.940624 257.7531 26.940624Q258.6906 26.940624 259.47186 27.284374Q260.26874 27.6125 260.65936 28.159374Q261.05 28.70625 261.20624 29.45625Q261.3 29.95625 261.3 31.175L261.3 37.55L259.53436 37.55L259.53436 31.2375Q259.53436 30.159374 259.33124 29.628124Q259.1281 29.096874 258.59686 28.784374Q258.08124 28.471874 257.3781 28.471874Q256.2531 28.471874 255.44063 29.190624Q254.62813 29.89375 254.62813 31.878124L254.62813 37.55L252.8625 37.55Z" fill-rule="nonzero"/></svg>