<svg version="1.1" viewBox="0.0 0.0 763.0 377.0" fill="none" stroke="none" stroke-linecap="square" stroke-miterlimit="10" width="763" height="377" xmlns:xlink="http://www.w3.org/1999/xlink" xmlns="http://www.w3.org/2000/svg"><path fill="#ffffff" d="M0 0L763.0 0L763.0 377.0L0 377.0L0 0Z" fill-rule="nonzero"/><path stroke="#333333" stroke-width="1.0" stroke-linecap="butt" d="M45.5 324.5L744.5 324.5" fill-rule="nonzero"/><path stroke="#cccccc" stroke-width="1.0" stroke-linecap="butt" d="M45.5 224.5L744.5 224.5" fill-rule="nonzero"/><path stroke="#cccccc" stroke-width="1.0" stroke-linecap="butt" d="M45.5 125.5L744.5 125.5" fill-rule="nonzero"/><path stroke="#cccccc" stroke-width="1.0" stroke-linecap="butt" d="M45.5 25.5L744.5 25.5" fill-rule="nonzero"/><clipPath id="id_0"><path d="M45.85 25.85L744.15 25.85L744.15 324.15L45.85 324.15L45.85 25.85Z" clip-rule="nonzero"/></clipPath><path stroke="#000000" stroke-width="2.0" stroke-linecap="butt" stroke-opacity="0.0" clip-path="url(#id_0)" d="M156.0 324.0L85.0 324.0L85.0 312.0C85.0 310.89542 85.89543 310.0 87.0 310.0L154.0 310.0C155.10457 310.0 156.0 310.89542 156.0 312.0Z" fill-rule="nonzero"/><path fill="#4285f4" clip-path="url(#id_0)" d="M156.0 324.0L85.0 324.0L85.0 312.0C85.0 310.89542 85.89543 310.0 87.0 310.0L154.0 310.0C155.10457 310.0 156.0 310.89542 156.0 312.0Z" fill-rule="nonzero"/><path stroke="#000000" stroke-width="2.0" stroke-linecap="butt" stroke-opacity="0.0" clip-path="url(#id_0)" d="M266.0 324.0L195.0 324.0L195.0 74.0C195.0 72.89543 195.89543 72.0 197.0 72.0L264.0 72.0C265.10458 72.0 266.0 72.89543 266.0 74.0Z" fill-rule="nonzero"/><path fill="#4285f4" clip-path="url(#id_0)" d="M266.0 324.0L195.0 324.0L195.0 74.0C195.0 72.89543 195.89543 72.0 197.0 72.0L264.0 72.0C265.10458 72.0 266.0 72.89543 266.0 74.0Z" fill-rule="nonzero"/><path stroke="#000000" stroke-width="2.0" stroke-linecap="butt" stroke-opacity="0.0" clip-path="url(#id_0)" d="M376.0 324.0L305.0 324.0L305.0 323.0C305.0 322.44772 305.44772 322.0 306.0 322.0L375.0 322.0C375.55228 322.0 376.0 322.44772 376.0 323.0Z" fill-rule="nonzero"/><path fill="#4285f4" clip-path="url(#id_0)" d="M376.0 324.0L305.0 324.0L305.0 323.0C305.0 322.44772 305.44772 322.0 306.0 322.0L375.0 322.0C375.55228 322.0 376.0 322.44772 376.0 323.0Z" fill-rule="nonzero"/><path stroke="#000000" stroke-width="2.0" stroke-linecap="butt" stroke-opacity="0.0" clip-path="url(#id_0)" d="M486.0 324.0L415.0 324.0L415.0 322.0C415.0 320.89542 415.89542 320.0 417.0 320.0L484.0 320.0C485.10458 320.0 486.0 320.89542 486.0 322.0Z" fill-rule="nonzero"/><path fill="#4285f4" clip-path="url(#id_0)" d="M486.0 324.0L415.0 324.0L415.0 322.0C415.0 320.89542 415.89542 320.0 417.0 320.0L484.0 320.0C485.10458 320.0 486.0 320.89542 486.0 322.0Z" fill-rule="nonzero"/><path stroke="#000000" stroke-width="2.0" stroke-linecap="butt" stroke-opacity="0.0" clip-path="url(#id_0)" d="M596.0 324.0L525.0 324.0L525.0 324.0L596.0 324.0Z" fill-rule="nonzero"/><path fill="#4285f4" clip-path="url(#id_0)" d="M596.0 324.0L525.0 324.0L525.0 324.0L596.0 324.0Z" fill-rule="nonzero"/><path stroke="#000000" stroke-width="2.0" stroke-linecap="butt" stroke-opacity="0.0" clip-path="url(#id_0)" d="M706.0 324.0L635.0 324.0L635.0 323.0C635.0 322.44772 635.4477 322.0 636.0 322.0L705.0 322.0C705.5523 322.0 706.0 322.44772 706.0 323.0Z" fill-rule="nonzero"/><path fill="#4285f4" clip-path="url(#id_0)" d="M706.0 324.0L635.0 324.0L635.0 323.0C635.0 322.44772 635.4477 322.0 636.0 322.0L705.0 322.0C705.5523 322.0 706.0 322.44772 706.0 323.0Z" fill-rule="nonzero"/><path stroke="#ffffff" stroke-width="3.0" stroke-linejoin="round" stroke-linecap="round" d="M122.71875 287.30746L119.1875 295.22934L118.046875 295.22934L121.5625 287.5887L116.953125 287.5887L116.953125 286.6981L122.71875 286.6981L122.71875 287.30746Z" fill-rule="nonzero"/><path fill="#4285f4" d="M122.71875 287.30746L119.1875 295.22934L118.046875 295.22934L121.5625 287.5887L116.953125 287.5887L116.953125 286.6981L122.71875 286.6981L122.71875 287.30746Z" fill-rule="nonzero"/><path stroke="#4285f4" stroke-width="3.0" stroke-linejoin="round" stroke-linecap="round" d="M223.76562 88.389336L222.6875 88.389336L222.6875 81.170586L220.5 81.96746L220.5 80.983086L223.60938 79.81121L223.76562 79.81121L223.76562 88.389336ZM232.79688 88.389336L227.20312 88.389336L227.20312 87.608086L230.15625 84.326836Q230.8125 83.576836 231.0625 83.12371Q231.3125 82.65496 231.3125 82.15496Q231.3125 81.483086 230.90625 81.06121Q230.51562 80.62371 229.82812 80.62371Q229.03125 80.62371 228.57812 81.09246Q228.125 81.545586 228.125 82.37371L227.04688 82.37371Q227.04688 81.18621 227.79688 80.46746Q228.5625 79.733086 229.82812 79.733086Q231.03125 79.733086 231.71875 80.358086Q232.40625 80.983086 232.40625 82.02996Q232.40625 83.27996 230.79688 85.02996L228.51562 87.49871L232.79688 87.49871L232.79688 88.389336ZM239.71875 80.46746L236.1875 88.389336L235.04688 88.389336L238.5625 80.74871L233.95312 80.74871L233.95312 79.858086L239.71875 79.858086L239.71875 80.46746Z" fill-rule="nonzero"/><path fill="#ffffff" d="M223.76562 88.389336L222.6875 88.389336L222.6875 81.170586L220.5 81.96746L220.5 80.983086L223.60938 79.81121L223.76562 79.81121L223.76562 88.389336ZM232.79688 88.389336L227.20312 88.389336L227.20312 87.608086L230.15625 84.326836Q230.8125 83.576836 231.0625 83.12371Q231.3125 82.65496 231.3125 82.15496Q231.3125 81.483086 230.90625 81.06121Q230.51562 80.62371 229.82812 80.62371Q229.03125 80.62371 228.57812 81.09246Q228.125 81.545586 228.125 82.37371L227.04688 82.37371Q227.04688 81.18621 227.79688 80.46746Q228.5625 79.733086 229.82812 79.733086Q231.03125 79.733086 231.71875 80.358086Q232.40625 80.983086 232.40625 82.02996Q232.40625 83.27996 230.79688 85.02996L228.51562 87.49871L232.79688 87.49871L232.79688 88.389336ZM239.71875 80.46746L236.1875 88.389336L235.04688 88.389336L238.5625 80.74871L233.95312 80.74871L233.95312 79.858086L239.71875 79.858086L239.71875 80.46746Z" fill-rule="nonzero"/><path stroke="#ffffff" stroke-width="3.0" stroke-linejoin="round" stroke-linecap="round" d="M340.76562 307.16135L339.6875 307.16135L339.6875 299.9426L337.5 300.73947L337.5 299.7551L340.60938 298.58322L340.76562 298.58322L340.76562 307.16135Z" fill-rule="nonzero"/><path fill="#4285f4" d="M340.76562 307.16135L339.6875 307.16135L339.6875 299.9426L337.5 300.73947L337.5 299.7551L340.60938 298.58322L340.76562 298.58322L340.76562 307.16135Z" fill-rule="nonzero"/><path stroke="#ffffff" stroke-width="3.0" stroke-linejoin="round" stroke-linecap="round" d="M452.79688 305.17267L447.20312 305.17267L447.20312 304.39142L450.15625 301.11017Q450.8125 300.36017 451.0625 299.90704Q451.3125 299.4383 451.3125 298.9383Q451.3125 298.26642 450.90625 297.84454Q450.51562 297.40704 449.82812 297.40704Q449.03125 297.40704 448.57812 297.8758Q448.125 298.32892 448.125 299.15704L447.04688 299.15704Q447.04688 297.96954 447.79688 297.2508Q448.5625 296.51642 449.82812 296.51642Q451.03125 296.51642 451.71875 297.14142Q452.40625 297.76642 452.40625 298.8133Q452.40625 300.0633 450.79688 301.8133L448.51562 304.28204L452.79688 304.28204L452.79688 305.17267Z" fill-rule="nonzero"/><path fill="#4285f4" d="M452.79688 305.17267L447.20312 305.17267L447.20312 304.39142L450.15625 301.11017Q450.8125 300.36017 451.0625 299.90704Q451.3125 299.4383 451.3125 298.9383Q451.3125 298.26642 450.90625 297.84454Q450.51562 297.40704 449.82812 297.40704Q449.03125 297.40704 448.57812 297.8758Q448.125 298.32892 448.125 299.15704L447.04688 299.15704Q447.04688 297.96954 447.79688 297.2508Q448.5625 296.51642 449.82812 296.51642Q451.03125 296.51642 451.71875 297.14142Q452.40625 297.76642 452.40625 298.8133Q452.40625 300.0633 450.79688 301.8133L448.51562 304.28204L452.79688 304.28204L452.79688 305.17267Z" fill-rule="nonzero"/><path stroke="#ffffff" stroke-width="3.0" stroke-linejoin="round" stroke-linecap="round" d="M562.5625 305.50937Q562.5625 307.41562 561.90625 308.35312Q561.2656 309.275 559.875 309.275Q558.5156 309.275 557.8594 308.36874Q557.2031 307.4625 557.1719 305.65L557.1719 304.2125Q557.1719 302.32187 557.8125 301.41562Q558.46875 300.49374 559.8594 300.49374Q561.2344 300.49374 561.8906 301.38437Q562.5469 302.25937 562.5625 304.10312L562.5625 305.50937ZM561.46875 304.025Q561.46875 302.65 561.0781 302.025Q560.7031 301.38437 559.8594 301.38437Q559.03125 301.38437 558.6406 302.025Q558.2656 302.65 558.2656 303.94687L558.2656 305.68124Q558.2656 307.05624 558.65625 307.72812Q559.0625 308.38437 559.875 308.38437Q560.6719 308.38437 561.0625 307.75937Q561.4531 307.13437 561.46875 305.80624L561.46875 304.025Z" fill-rule="nonzero"/><path fill="#4285f4" d="M562.5625 305.50937Q562.5625 307.41562 561.90625 308.35312Q561.2656 309.275 559.875 309.275Q558.5156 309.275 557.8594 308.36874Q557.2031 307.4625 557.1719 305.65L557.1719 304.2125Q557.1719 302.32187 557.8125 301.41562Q558.46875 300.49374 559.8594 300.49374Q561.2344 300.49374 561.8906 301.38437Q562.5469 302.25937 562.5625 304.10312L562.5625 305.50937ZM561.46875 304.025Q561.46875 302.65 561.0781 302.025Q560.7031 301.38437 559.8594 301.38437Q559.03125 301.38437 558.6406 302.025Q558.2656 302.65 558.2656 303.94687L558.2656 305.68124Q558.2656 307.05624 558.65625 307.72812Q559.0625 308.38437 559.875 308.38437Q560.6719 308.38437 561.0625 307.75937Q561.4531 307.13437 561.46875 305.80624L561.46875 304.025Z" fill-rule="nonzero"/><path stroke="#ffffff" stroke-width="3.0" stroke-linejoin="round" stroke-linecap="round" d="M670.7656 307.16135L669.6875 307.16135L669.6875 299.9426L667.5 300.73947L667.5 299.7551L670.6094 298.58322L670.7656 298.58322L670.7656 307.16135Z" fill-rule="nonzero"/><path fill="#4285f4" d="M670.7656 307.16135L669.6875 307.16135L669.6875 299.9426L667.5 300.73947L667.5 299.7551L670.6094 298.58322L670.7656 298.58322L670.7656 307.16135Z" fill-rule="nonzero"/><path fill="#000000" d="M33.35 323.91562Q33.35 322.38437 33.6625 321.4625Q33.975 320.525 34.584373 320.025Q35.209373 319.525 36.146873 319.525Q36.834373 319.525 37.35 319.80624Q37.88125 320.0875 38.225 320.61874Q38.56875 321.13437 38.75625 321.88437Q38.94375 322.63437 38.94375 323.91562Q38.94375 325.43124 38.63125 326.35312Q38.334373 327.275 37.709373 327.79062Q37.1 328.29062 36.146873 328.29062Q34.9125 328.29062 34.19375 327.4Q33.35 326.3375 33.35 323.91562ZM34.428123 323.91562Q34.428123 326.025 34.928123 326.72812Q35.428123 327.43124 36.146873 327.43124Q36.88125 327.43124 37.365623 326.72812Q37.865623 326.025 37.865623 323.91562Q37.865623 321.79062 37.365623 321.10312Q36.88125 320.4 36.13125 320.4Q35.4125 320.4 34.975 321.00937Q34.428123 321.79062 34.428123 323.91562Z" fill-rule="nonzero"/><path fill="#000000" d="M26.35 226.46666L27.459375 226.37291Q27.584375 227.18541 28.021875 227.59166Q28.475 227.99791 29.115625 227.99791Q29.865625 227.99791 30.396875 227.41978Q30.928125 226.84166 30.928125 225.90416Q30.928125 224.99791 30.4125 224.48228Q29.9125 223.95103 29.084375 223.95103Q28.584375 223.95103 28.1625 224.18541Q27.75625 224.41978 27.521875 224.77916L26.5375 224.65416L27.365625 220.24791L31.646875 220.24791L31.646875 221.24791L28.209375 221.24791L27.75625 223.56041Q28.521875 223.01353 29.365625 223.01353Q30.490625 223.01353 31.25625 223.79478Q32.0375 224.57603 32.0375 225.81041Q32.0375 226.96666 31.365625 227.82603Q30.5375 228.85728 29.115625 228.85728Q27.94375 228.85728 27.19375 228.20103Q26.459375 227.54478 26.35 226.46666ZM33.35 224.48228Q33.35 222.95103 33.6625 222.02916Q33.975 221.09166 34.584373 220.59166Q35.209373 220.09166 36.146873 220.09166Q36.834373 220.09166 37.35 220.37291Q37.88125 220.65416 38.225 221.18541Q38.56875 221.70103 38.75625 222.45103Q38.94375 223.20103 38.94375 224.48228Q38.94375 225.99791 38.63125 226.91978Q38.334373 227.84166 37.709373 228.35728Q37.1 228.85728 36.146873 228.85728Q34.9125 228.85728 34.19375 227.96666Q33.35 226.90416 33.35 224.48228ZM34.428123 224.48228Q34.428123 226.59166 34.928123 227.29478Q35.428123 227.99791 36.146873 227.99791Q36.88125 227.99791 37.365623 227.29478Q37.865623 226.59166 37.865623 224.48228Q37.865623 222.35728 37.365623 221.66978Q36.88125 220.96666 36.13125 220.96666Q35.4125 220.96666 34.975 221.57603Q34.428123 222.35728 34.428123 224.48228Z" fill-rule="nonzero"/><path fill="#000000" d="M23.31875 129.28334L22.271875 129.28334L22.271875 122.56459Q21.88125 122.923965 21.25625 123.298965Q20.646875 123.65834 20.1625 123.830215L20.1625 122.81459Q21.0375 122.392715 21.69375 121.81459Q22.365625 121.22084 22.646875 120.65834L23.31875 120.65834L23.31875 129.28334ZM26.35 125.048965Q26.35 123.517715 26.6625 122.59584Q26.975 121.65834 27.584375 121.15834Q28.209375 120.65834 29.146875 120.65834Q29.834375 120.65834 30.35 120.93959Q30.88125 121.22084 31.225 121.75209Q31.56875 122.267715 31.75625 123.017715Q31.94375 123.767715 31.94375 125.048965Q31.94375 126.56459 31.63125 127.486465Q31.334375 128.40834 30.709375 128.92397Q30.1 129.42397 29.146875 129.42397Q27.9125 129.42397 27.19375 128.53334Q26.35 127.47084 26.35 125.048965ZM27.428125 125.048965Q27.428125 127.15834 27.928125 127.861465Q28.428125 128.56459 29.146875 128.56459Q29.88125 128.56459 30.365625 127.861465Q30.865625 127.15834 30.865625 125.048965Q30.865625 122.923965 30.365625 122.236465Q29.88125 121.53334 29.13125 121.53334Q28.4125 121.53334 27.975 122.142715Q27.428125 122.923965 27.428125 125.048965ZM33.35 125.048965Q33.35 123.517715 33.6625 122.59584Q33.975 121.65834 34.584373 121.15834Q35.209373 120.65834 36.146873 120.65834Q36.834373 120.65834 37.35 120.93959Q37.88125 121.22084 38.225 121.75209Q38.56875 122.267715 38.75625 123.017715Q38.94375 123.767715 38.94375 125.048965Q38.94375 126.56459 38.63125 127.486465Q38.334373 128.40834 37.709373 128.92397Q37.1 129.42397 36.146873 129.42397Q34.9125 129.42397 34.19375 128.53334Q33.35 127.47084 33.35 125.048965ZM34.428123 125.048965Q34.428123 127.15834 34.928123 127.861465Q35.428123 128.56459 36.146873 128.56459Q36.88125 128.56459 37.365623 127.861465Q37.865623 127.15834 37.865623 125.048965Q37.865623 122.923965 37.365623 122.236465Q36.88125 121.53334 36.13125 121.53334Q35.4125 121.53334 34.975 122.142715Q34.428123 122.923965 34.428123 125.048965Z" fill-rule="nonzero"/><path fill="#000000" d="M23.31875 29.85L22.271875 29.85L22.271875 23.13125Q21.88125 23.490625 21.25625 23.865625Q20.646875 24.225 20.1625 24.396875L20.1625 23.38125Q21.0375 22.959375 21.69375 22.38125Q22.365625 21.7875 22.646875 21.225L23.31875 21.225L23.31875 29.85ZM26.35 27.6L27.459375 27.50625Q27.584375 28.31875 28.021875 28.725Q28.475 29.13125 29.115625 29.13125Q29.865625 29.13125 30.396875 28.553125Q30.928125 27.975 30.928125 27.0375Q30.928125 26.13125 30.4125 25.615625Q29.9125 25.084375 29.084375 25.084375Q28.584375 25.084375 28.1625 25.31875Q27.75625 25.553125 27.521875 25.9125L26.5375 25.7875L27.365625 21.38125L31.646875 21.38125L31.646875 22.38125L28.209375 22.38125L27.75625 24.69375Q28.521875 24.146875 29.365625 24.146875Q30.490625 24.146875 31.25625 24.928125Q32.0375 25.709375 32.0375 26.94375Q32.0375 28.1 31.365625 28.959375Q30.5375 29.990625 29.115625 29.990625Q27.94375 29.990625 27.19375 29.334375Q26.459375 28.678125 26.35 27.6ZM33.35 25.615625Q33.35 24.084375 33.6625 23.1625Q33.975 22.225 34.584373 21.725Q35.209373 21.225 36.146873 21.225Q36.834373 21.225 37.35 21.50625Q37.88125 21.7875 38.225 22.31875Q38.56875 22.834375 38.75625 23.584375Q38.94375 24.334375 38.94375 25.615625Q38.94375 27.13125 38.63125 28.053125Q38.334373 28.975 37.709373 29.490625Q37.1 29.990625 36.146873 29.990625Q34.9125 29.990625 34.19375 29.1Q33.35 28.0375 33.35 25.615625ZM34.428123 25.615625Q34.428123 27.725 34.928123 28.428125Q35.428123 29.13125 36.146873 29.13125Q36.88125 29.13125 37.365623 28.428125Q37.865623 27.725 37.865623 25.615625Q37.865623 23.490625 37.365623 22.803125Q36.88125 22.1 36.13125 22.1Q35.4125 22.1 34.975 22.709375Q34.428123 23.490625 34.428123 25.615625Z" fill-rule="nonzero"/><path fill="#000000" d="M92.14124 338.13437L93.26624 338.43124Q92.90687 339.82187 91.98499 340.55624Q91.06312 341.29062 89.71937 341.29062Q88.32874 341.29062 87.45374 340.72812Q86.57874 340.16562 86.12562 339.10312Q85.67249 338.025 85.67249 336.79062Q85.67249 335.44687 86.18812 334.44687Q86.70374 333.44687 87.64124 332.93124Q88.59437 332.41562 89.73499 332.41562Q91.01624 332.41562 91.89124 333.07187Q92.78187 333.72812 93.12562 334.91562L92.00062 335.18124Q91.70374 334.24374 91.12562 333.82187Q90.56312 333.38437 89.70374 333.38437Q88.71937 333.38437 88.04749 333.86874Q87.39124 334.3375 87.10999 335.13437Q86.84437 335.93124 86.84437 336.79062Q86.84437 337.88437 87.15687 338.69687Q87.48499 339.50937 88.15687 339.91562Q88.82874 340.32187 89.62562 340.32187Q90.57874 340.32187 91.23499 339.775Q91.90687 339.22812 92.14124 338.13437ZM94.48499 338.04062Q94.48499 336.30624 95.43812 335.47812Q96.23499 334.79062 97.39124 334.79062Q98.67249 334.79062 99.48499 335.63437Q100.31312 336.4625 100.31312 337.94687Q100.31312 339.15 99.95374 339.8375Q99.59437 340.525 98.89124 340.91562Q98.20374 341.29062 97.39124 341.29062Q96.09437 341.29062 95.28187 340.4625Q94.48499 339.61874 94.48499 338.04062ZM95.56312 338.04062Q95.56312 339.22812 96.07874 339.82187Q96.60999 340.41562 97.39124 340.41562Q98.18812 340.41562 98.70374 339.82187Q99.21937 339.22812 99.21937 338.00937Q99.21937 336.85312 98.68812 336.25937Q98.17249 335.66562 97.39124 335.66562Q96.60999 335.66562 96.07874 336.25937Q95.56312 336.8375 95.56312 338.04062ZM101.87562 341.15L101.87562 334.93124L102.81312 334.93124L102.81312 335.80624Q103.50062 334.79062 104.79749 334.79062Q105.35999 334.79062 105.82874 334.99374Q106.31312 335.19687 106.54749 335.525Q106.78187 335.85312 106.87562 336.29062Q106.92249 336.5875 106.92249 337.32187L106.92249 341.15L105.87562 341.15L105.87562 337.36874Q105.87562 336.7125 105.75062 336.4Q105.62562 336.0875 105.31312 335.9Q105.00062 335.69687 104.57874 335.69687Q103.90687 335.69687 103.40687 336.13437Q102.92249 336.55624 102.92249 337.74374L102.92249 341.15L101.87562 341.15ZM111.17249 340.2125L111.32874 341.13437Q110.87562 341.22812 110.53187 341.22812Q109.95374 341.22812 109.64124 341.05624Q109.32874 340.86874 109.18812 340.57187Q109.06312 340.275 109.06312 339.32187L109.06312 335.74374L108.29749 335.74374L108.29749 334.93124L109.06312 334.93124L109.06312 333.38437L110.10999 332.75937L110.10999 334.93124L111.17249 334.93124L111.17249 335.74374L110.10999 335.74374L110.10999 339.38437Q110.10999 339.8375 110.15687 339.9625Q110.21937 340.0875 110.34437 340.16562Q110.46937 340.24374 110.70374 340.24374Q110.89124 340.24374 111.17249 340.2125ZM111.85999 341.15L111.85999 334.93124L112.81312 334.93124L112.81312 335.86874Q113.17249 335.2125 113.46937 335.00937Q113.78187 334.79062 114.15687 334.79062Q114.68812 334.79062 115.23499 335.11874L114.87562 336.10312Q114.48499 335.86874 114.10999 335.86874Q113.75062 335.86874 113.46937 336.0875Q113.20374 336.29062 113.09437 336.66562Q112.90687 337.22812 112.90687 337.88437L112.90687 341.15L111.85999 341.15ZM119.93812 340.38437Q119.34437 340.88437 118.79749 341.0875Q118.26624 341.29062 117.64124 341.29062Q116.60999 341.29062 116.06312 340.79062Q115.51624 340.29062 115.51624 339.50937Q115.51624 339.05624 115.71937 338.68124Q115.92249 338.29062 116.26624 338.07187Q116.60999 337.8375 117.03187 337.72812Q117.32874 337.63437 117.96937 337.55624Q119.23499 337.41562 119.84437 337.19687Q119.84437 336.97812 119.84437 336.93124Q119.84437 336.275 119.54749 336.00937Q119.14124 335.66562 118.34437 335.66562Q117.60999 335.66562 117.25062 335.93124Q116.89124 336.18124 116.71937 336.8375L115.68812 336.69687Q115.82874 336.04062 116.15687 335.63437Q116.48499 335.22812 117.09437 335.00937Q117.70374 334.79062 118.50062 334.79062Q119.29749 334.79062 119.79749 334.97812Q120.29749 335.16562 120.53187 335.44687Q120.76624 335.72812 120.85999 336.16562Q120.90687 336.43124 120.90687 337.13437L120.90687 338.54062Q120.90687 340.00937 120.96937 340.4Q121.04749 340.79062 121.25062 341.15L120.14124 341.15Q119.98499 340.82187 119.93812 340.38437ZM119.84437 338.025Q119.26624 338.25937 118.12562 338.43124Q117.46937 338.525 117.20374 338.65Q116.93812 338.75937 116.78187 338.97812Q116.64124 339.19687 116.64124 339.47812Q116.64124 339.9 116.95374 340.18124Q117.28187 340.4625 117.89124 340.4625Q118.50062 340.4625 118.96937 340.19687Q119.45374 339.93124 119.67249 339.4625Q119.84437 339.10312 119.84437 338.41562L119.84437 338.025ZM126.93812 338.86874L127.96937 339.00937Q127.79749 340.07187 127.09437 340.68124Q126.39124 341.29062 125.37562 341.29062Q124.09437 341.29062 123.31312 340.4625Q122.54749 339.61874 122.54749 338.05624Q122.54749 337.05624 122.87562 336.30624Q123.21937 335.54062 123.89124 335.16562Q124.57874 334.79062 125.39124 334.79062Q126.39124 334.79062 127.03187 335.30624Q127.68812 335.80624 127.87562 336.75937L126.84437 336.91562Q126.70374 336.29062 126.32874 335.97812Q125.95374 335.65 125.42249 335.65Q124.62562 335.65 124.12562 336.22812Q123.62562 336.79062 123.62562 338.025Q123.62562 339.29062 124.10999 339.85312Q124.59437 340.41562 125.35999 340.41562Q125.98499 340.41562 126.39124 340.04062Q126.81312 339.66562 126.93812 338.86874ZM131.17249 340.2125L131.32874 341.13437Q130.87561 341.22812 130.53186 341.22812Q129.95374 341.22812 129.64124 341.05624Q129.32874 340.86874 129.18811 340.57187Q129.06311 340.275 129.06311 339.32187L129.06311 335.74374L128.29749 335.74374L128.29749 334.93124L129.06311 334.93124L129.06311 333.38437L130.10999 332.75937L130.10999 334.93124L131.17249 334.93124L131.17249 335.74374L130.10999 335.74374L130.10999 339.38437Q130.10999 339.8375 130.15686 339.9625Q130.21936 340.0875 130.34436 340.16562Q130.46936 340.24374 130.70374 340.24374Q130.89124 340.24374 131.17249 340.2125ZM138.93811 340.38437Q138.34436 340.88437 137.79749 341.0875Q137.26624 341.29062 136.64124 341.29062Q135.60999 341.29062 135.06311 340.79062Q134.51624 340.29062 134.51624 339.50937Q134.51624 339.05624 134.71936 338.68124Q134.92249 338.29062 135.26624 338.07187Q135.60999 337.8375 136.03186 337.72812Q136.32874 337.63437 136.96936 337.55624Q138.23499 337.41562 138.84436 337.19687Q138.84436 336.97812 138.84436 336.93124Q138.84436 336.275 138.54749 336.00937Q138.14124 335.66562 137.34436 335.66562Q136.60999 335.66562 136.25061 335.93124Q135.89124 336.18124 135.71936 336.8375L134.68811 336.69687Q134.82874 336.04062 135.15686 335.63437Q135.48499 335.22812 136.09436 335.00937Q136.70374 334.79062 137.50061 334.79062Q138.29749 334.79062 138.79749 334.97812Q139.29749 335.16562 139.53186 335.44687Q139.76624 335.72812 139.85999 336.16562Q139.90686 336.43124 139.90686 337.13437L139.90686 338.54062Q139.90686 340.00937 139.96936 340.4Q140.04749 340.79062 140.25061 341.15L139.14124 341.15Q138.98499 340.82187 138.93811 340.38437ZM138.84436 338.025Q138.26624 338.25937 137.12561 338.43124Q136.46936 338.525 136.20374 338.65Q135.93811 338.75937 135.78186 338.97812Q135.64124 339.19687 135.64124 339.47812Q135.64124 339.9 135.95374 340.18124Q136.28186 340.4625 136.89124 340.4625Q137.50061 340.4625 137.96936 340.19687Q138.45374 339.93124 138.67249 339.4625Q138.84436 339.10312 138.84436 338.41562L138.84436 338.025ZM141.87561 343.54062L141.87561 334.93124L142.82874 334.93124L142.82874 335.72812Q143.17249 335.25937 143.59436 335.025Q144.03186 334.79062 144.64124 334.79062Q145.43811 334.79062 146.04749 335.19687Q146.65686 335.60312 146.95374 336.35312Q147.26624 337.10312 147.26624 337.99374Q147.26624 338.94687 146.92249 339.7125Q146.59436 340.47812 145.93811 340.88437Q145.28186 341.29062 144.56311 341.29062Q144.03186 341.29062 143.60999 341.07187Q143.18811 340.8375 142.92249 340.50937L142.92249 343.54062L141.87561 343.54062ZM142.82874 338.07187Q142.82874 339.275 143.31311 339.85312Q143.79749 340.41562 144.48499 340.41562Q145.18811 340.41562 145.68811 339.82187Q146.18811 339.22812 146.18811 337.97812Q146.18811 336.79062 145.70374 336.2125Q145.21936 335.61874 144.53186 335.61874Q143.85999 335.61874 143.34436 336.24374Q142.82874 336.86874 142.82874 338.07187ZM148.87561 343.54062L148.87561 334.93124L149.82874 334.93124L149.82874 335.72812Q150.17249 335.25937 150.59436 335.025Q151.03186 334.79062 151.64124 334.79062Q152.43811 334.79062 153.04749 335.19687Q153.65686 335.60312 153.95374 336.35312Q154.26624 337.10312 154.26624 337.99374Q154.26624 338.94687 153.92249 339.7125Q153.59436 340.47812 152.93811 340.88437Q152.28186 341.29062 151.56311 341.29062Q151.03186 341.29062 150.60999 341.07187Q150.18811 340.8375 149.92249 340.50937L149.92249 343.54062L148.87561 343.54062ZM149.82874 338.07187Q149.82874 339.275 150.31311 339.85312Q150.79749 340.41562 151.48499 340.41562Q152.18811 340.41562 152.68811 339.82187Q153.18811 339.22812 153.18811 337.97812Q153.18811 336.79062 152.70374 336.2125Q152.21936 335.61874 151.53186 335.61874Q150.85999 335.61874 150.34436 336.24374Q149.82874 336.86874 149.82874 338.07187Z" fill-rule="nonzero"/><path fill="#000000" d="M89.40687 355.15L89.40687 354.36874Q88.81312 355.29062 87.67249 355.29062Q86.92249 355.29062 86.29749 354.88437Q85.67249 354.4625 85.32874 353.72812Q84.98499 352.99374 84.98499 352.04062Q84.98499 351.11874 85.29749 350.35312Q85.60999 349.5875 86.23499 349.19687Q86.85999 348.79062 87.62562 348.79062Q88.18812 348.79062 88.62562 349.025Q89.06312 349.25937 89.34437 349.63437L89.34437 346.55624L90.39124 346.55624L90.39124 355.15L89.40687 355.15ZM86.07874 352.04062Q86.07874 353.24374 86.57874 353.8375Q87.07874 354.41562 87.76624 354.41562Q88.45374 354.41562 88.93812 353.85312Q89.42249 353.29062 89.42249 352.13437Q89.42249 350.85312 88.92249 350.25937Q88.43812 349.66562 87.71937 349.66562Q87.01624 349.66562 86.54749 350.24374Q86.07874 350.80624 86.07874 352.04062ZM96.62562 353.15L97.71937 353.275Q97.46937 354.22812 96.76624 354.75937Q96.06312 355.29062 94.98499 355.29062Q93.62562 355.29062 92.81312 354.44687Q92.01624 353.60312 92.01624 352.0875Q92.01624 350.525 92.82874 349.66562Q93.64124 348.79062 94.92249 348.79062Q96.17249 348.79062 96.95374 349.63437Q97.75062 350.47812 97.75062 352.025Q97.75062 352.11874 97.75062 352.30624L93.10999 352.30624Q93.17249 353.3375 93.68812 353.88437Q94.20374 354.41562 94.98499 354.41562Q95.56312 354.41562 95.96937 354.11874Q96.39124 353.80624 96.62562 353.15ZM93.17249 351.44687L96.64124 351.44687Q96.57874 350.65 96.25062 350.25937Q95.73499 349.65 94.93812 349.65Q94.20374 349.65 93.70374 350.13437Q93.21937 350.61874 93.17249 351.44687ZM101.09437 355.15L98.73499 348.93124L99.84437 348.93124L101.18812 352.65Q101.39124 353.25937 101.57874 353.9Q101.71937 353.41562 101.96937 352.72812L103.35999 348.93124L104.43812 348.93124L102.07874 355.15L101.09437 355.15ZM108.62562 353.15L109.71937 353.275Q109.46937 354.22812 108.76624 354.75937Q108.06312 355.29062 106.98499 355.29062Q105.62562 355.29062 104.81312 354.44687Q104.01624 353.60312 104.01624 352.0875Q104.01624 350.525 104.82874 349.66562Q105.64124 348.79062 106.92249 348.79062Q108.17249 348.79062 108.95374 349.63437Q109.75062 350.47812 109.75062 352.025Q109.75062 352.11874 109.75062 352.30624L105.10999 352.30624Q105.17249 353.3375 105.68812 353.88437Q106.20374 354.41562 106.98499 354.41562Q107.56312 354.41562 107.96937 354.11874Q108.39124 353.80624 108.62562 353.15ZM105.17249 351.44687L108.64124 351.44687Q108.57874 350.65 108.25062 350.25937Q107.73499 349.65 106.93812 349.65Q106.20374 349.65 105.70374 350.13437Q105.21937 350.61874 105.17249 351.44687ZM111.34437 355.15L111.34437 346.55624L112.40687 346.55624L112.40687 355.15L111.34437 355.15ZM113.98499 352.04062Q113.98499 350.30624 114.93812 349.47812Q115.73499 348.79062 116.89124 348.79062Q118.17249 348.79062 118.98499 349.63437Q119.81312 350.4625 119.81312 351.94687Q119.81312 353.15 119.45374 353.8375Q119.09437 354.525 118.39124 354.91562Q117.70374 355.29062 116.89124 355.29062Q115.59437 355.29062 114.78187 354.4625Q113.98499 353.61874 113.98499 352.04062ZM115.06312 352.04062Q115.06312 353.22812 115.57874 353.82187Q116.10999 354.41562 116.89124 354.41562Q117.68812 354.41562 118.20374 353.82187Q118.71937 353.22812 118.71937 352.00937Q118.71937 350.85312 118.18812 350.25937Q117.67249 349.66562 116.89124 349.66562Q116.10999 349.66562 115.57874 350.25937Q115.06312 350.8375 115.06312 352.04062ZM121.37562 357.54062L121.37562 348.93124L122.32874 348.93124L122.32874 349.72812Q122.67249 349.25937 123.09437 349.025Q123.53187 348.79062 124.14124 348.79062Q124.93812 348.79062 125.54749 349.19687Q126.15687 349.60312 126.45374 350.35312Q126.76624 351.10312 126.76624 351.99374Q126.76624 352.94687 126.42249 353.7125Q126.09437 354.47812 125.43812 354.88437Q124.78187 355.29062 124.06312 355.29062Q123.53187 355.29062 123.10999 355.07187Q122.68812 354.8375 122.42249 354.50937L122.42249 357.54062L121.37562 357.54062ZM122.32874 352.07187Q122.32874 353.275 122.81312 353.85312Q123.29749 354.41562 123.98499 354.41562Q124.68812 354.41562 125.18812 353.82187Q125.68812 353.22812 125.68812 351.97812Q125.68812 350.79062 125.20374 350.2125Q124.71937 349.61874 124.03187 349.61874Q123.35999 349.61874 122.84437 350.24374Q122.32874 350.86874 122.32874 352.07187ZM128.37561 355.15L128.37561 348.93124L129.31311 348.93124L129.31311 349.80624Q129.60999 349.3375 130.09436 349.07187Q130.57874 348.79062 131.20374 348.79062Q131.89124 348.79062 132.32874 349.07187Q132.78186 349.35312 132.95374 349.86874Q133.70374 348.79062 134.87561 348.79062Q135.81311 348.79062 136.29749 349.30624Q136.79749 349.80624 136.79749 350.88437L136.79749 355.15L135.75061 355.15L135.75061 351.22812Q135.75061 350.60312 135.64124 350.32187Q135.54749 350.04062 135.28186 349.86874Q135.01624 349.69687 134.64124 349.69687Q133.98499 349.69687 133.54749 350.13437Q133.12561 350.57187 133.12561 351.54062L133.12561 355.15L132.06311 355.15L132.06311 351.10312Q132.06311 350.4 131.79749 350.05624Q131.54749 349.69687 130.96936 349.69687Q130.51624 349.69687 130.14124 349.93124Q129.76624 350.16562 129.59436 350.61874Q129.42249 351.07187 129.42249 351.91562L129.42249 355.15L128.37561 355.15ZM143.62561 353.15L144.71936 353.275Q144.46936 354.22812 143.76624 354.75937Q143.06311 355.29062 141.98499 355.29062Q140.62561 355.29062 139.81311 354.44687Q139.01624 353.60312 139.01624 352.0875Q139.01624 350.525 139.82874 349.66562Q140.64124 348.79062 141.92249 348.79062Q143.17249 348.79062 143.95374 349.63437Q144.75061 350.47812 144.75061 352.025Q144.75061 352.11874 144.75061 352.30624L140.10999 352.30624Q140.17249 353.3375 140.68811 353.88437Q141.20374 354.41562 141.98499 354.41562Q142.56311 354.41562 142.96936 354.11874Q143.39124 353.80624 143.62561 353.15ZM140.17249 351.44687L143.64124 351.44687Q143.57874 350.65 143.25061 350.25937Q142.73499 349.65 141.93811 349.65Q141.20374 349.65 140.70374 350.13437Q140.21936 350.61874 140.17249 351.44687ZM146.37561 355.15L146.37561 348.93124L147.31311 348.93124L147.31311 349.80624Q148.00061 348.79062 149.29749 348.79062Q149.85999 348.79062 150.32874 348.99374Q150.81311 349.19687 151.04749 349.525Q151.28186 349.85312 151.37561 350.29062Q151.42249 350.5875 151.42249 351.32187L151.42249 355.15L150.37561 355.15L150.37561 351.36874Q150.37561 350.7125 150.25061 350.4Q150.12561 350.0875 149.81311 349.9Q149.50061 349.69687 149.07874 349.69687Q148.40686 349.69687 147.90686 350.13437Q147.42249 350.55624 147.42249 351.74374L147.42249 355.15L146.37561 355.15ZM155.67249 354.2125L155.82874 355.13437Q155.37561 355.22812 155.03186 355.22812Q154.45374 355.22812 154.14124 355.05624Q153.82874 354.86874 153.68811 354.57187Q153.56311 354.275 153.56311 353.32187L153.56311 349.74374L152.79749 349.74374L152.79749 348.93124L153.56311 348.93124L153.56311 347.38437L154.60999 346.75937L154.60999 348.93124L155.67249 348.93124L155.67249 349.74374L154.60999 349.74374L154.60999 353.38437Q154.60999 353.8375 154.65686 353.9625Q154.71936 354.0875 154.84436 354.16562Q154.96936 354.24374 155.20374 354.24374Q155.39124 354.24374 155.67249 354.2125Z" fill-rule="nonzero"/><path fill="#000000" d="M183.67224 341.15L183.67224 332.55624L184.79724 332.55624L184.79724 341.15L183.67224 341.15ZM190.48474 341.15L188.57849 334.93124L189.67224 334.93124L190.65662 338.525L191.03162 339.85312Q191.06287 339.75937 191.35974 338.57187L192.34412 334.93124L193.42224 334.93124L194.35974 338.54062L194.67224 339.72812L195.03162 338.525L196.09412 334.93124L197.12537 334.93124L195.17224 341.15L194.07849 341.15L193.09412 337.41562L192.84412 336.36874L191.59412 341.15L190.48474 341.15ZM197.95349 338.04062Q197.95349 336.30624 198.90662 335.47812Q199.70349 334.79062 200.85974 334.79062Q202.14099 334.79062 202.95349 335.63437Q203.78162 336.4625 203.78162 337.94687Q203.78162 339.15 203.42224 339.8375Q203.06287 340.525 202.35974 340.91562Q201.67224 341.29062 200.85974 341.29062Q199.56287 341.29062 198.75037 340.4625Q197.95349 339.61874 197.95349 338.04062ZM199.03162 338.04062Q199.03162 339.22812 199.54724 339.82187Q200.07849 340.41562 200.85974 340.41562Q201.65662 340.41562 202.17224 339.82187Q202.68787 339.22812 202.68787 338.00937Q202.68787 336.85312 202.15662 336.25937Q201.64099 335.66562 200.85974 335.66562Q200.07849 335.66562 199.54724 336.25937Q199.03162 336.8375 199.03162 338.04062ZM205.32849 341.15L205.32849 334.93124L206.28162 334.93124L206.28162 335.86874Q206.64099 335.2125 206.93787 335.00937Q207.25037 334.79062 207.62537 334.79062Q208.15662 334.79062 208.70349 335.11874L208.34412 336.10312Q207.95349 335.86874 207.57849 335.86874Q207.21912 335.86874 206.93787 336.0875Q206.67224 336.29062 206.56287 336.66562Q206.37537 337.22812 206.37537 337.88437L206.37537 341.15L205.32849 341.15ZM209.34412 341.15L209.34412 332.55624L210.40662 332.55624L210.40662 337.4625L212.89099 334.93124L214.26599 334.93124L211.87537 337.22812L214.50037 341.15L213.20349 341.15L211.14099 337.9625L210.40662 338.68124L210.40662 341.15L209.34412 341.15ZM218.59412 341.15L218.59412 335.74374L217.65662 335.74374L217.65662 334.93124L218.59412 334.93124L218.59412 334.25937Q218.59412 333.63437 218.70349 333.3375Q218.85974 332.91562 219.23474 332.66562Q219.62537 332.41562 220.31287 332.41562Q220.76599 332.41562 221.29724 332.525L221.14099 333.43124Q220.81287 333.38437 220.51599 333.38437Q220.03162 333.38437 219.82849 333.5875Q219.64099 333.79062 219.64099 334.35312L219.64099 334.93124L220.85974 334.93124L220.85974 335.74374L219.64099 335.74374L219.64099 341.15L218.59412 341.15ZM225.42224 341.15L225.42224 340.22812Q224.68787 341.29062 223.43787 341.29062Q222.89099 341.29062 222.40662 341.0875Q221.93787 340.86874 221.70349 340.55624Q221.46912 340.22812 221.37537 339.75937Q221.31287 339.4625 221.31287 338.775L221.31287 334.93124L222.37537 334.93124L222.37537 338.38437Q222.37537 339.19687 222.43787 339.49374Q222.53162 339.9 222.84412 340.15Q223.17224 340.38437 223.65662 340.38437Q224.12537 340.38437 224.53162 340.15Q224.95349 339.9 225.12537 339.47812Q225.31287 339.05624 225.31287 338.25937L225.31287 334.93124L226.35974 334.93124L226.35974 341.15L225.42224 341.15ZM228.31287 341.15L228.31287 332.55624L229.37537 332.55624L229.37537 341.15L228.31287 341.15ZM231.31287 341.15L231.31287 332.55624L232.37537 332.55624L232.37537 341.15L231.31287 341.15ZM239.64099 340.2125L239.79724 341.13437Q239.34412 341.22812 239.00037 341.22812Q238.42224 341.22812 238.10974 341.05624Q237.79724 340.86874 237.65662 340.57187Q237.53162 340.275 237.53162 339.32187L237.53162 335.74374L236.76599 335.74374L236.76599 334.93124L237.53162 334.93124L237.53162 333.38437L238.57849 332.75937L238.57849 334.93124L239.64099 334.93124L239.64099 335.74374L238.57849 335.74374L238.57849 339.38437Q238.57849 339.8375 238.62537 339.9625Q238.68787 340.0875 238.81287 340.16562Q238.93787 340.24374 239.17224 340.24374Q239.35974 340.24374 239.64099 340.2125ZM240.34412 333.775L240.34412 332.55624L241.40662 332.55624L241.40662 333.775L240.34412 333.775ZM240.34412 341.15L240.34412 334.93124L241.40662 334.93124L241.40662 341.15L240.34412 341.15ZM243.34412 341.15L243.34412 334.93124L244.28162 334.93124L244.28162 335.80624Q244.57849 335.3375 245.06287 335.07187Q245.54724 334.79062 246.17224 334.79062Q246.85974 334.79062 247.29724 335.07187Q247.75037 335.35312 247.92224 335.86874Q248.67224 334.79062 249.84412 334.79062Q250.78162 334.79062 251.26599 335.30624Q251.76599 335.80624 251.76599 336.88437L251.76599 341.15L250.71912 341.15L250.71912 337.22812Q250.71912 336.60312 250.60974 336.32187Q250.51599 336.04062 250.25037 335.86874Q249.98474 335.69687 249.60974 335.69687Q248.95349 335.69687 248.51599 336.13437Q248.09412 336.57187 248.09412 337.54062L248.09412 341.15L247.03162 341.15L247.03162 337.10312Q247.03162 336.4 246.76599 336.05624Q246.51599 335.69687 245.93787 335.69687Q245.48474 335.69687 245.10974 335.93124Q244.73474 336.16562 244.56287 336.61874Q244.39099 337.07187 244.39099 337.91562L244.39099 341.15L243.34412 341.15ZM258.59412 339.15L259.68787 339.275Q259.43787 340.22812 258.73474 340.75937Q258.03162 341.29062 256.9535 341.29062Q255.59412 341.29062 254.78162 340.44687Q253.98474 339.60312 253.98474 338.0875Q253.98474 336.525 254.79724 335.66562Q255.60974 334.79062 256.891 334.79062Q258.141 334.79062 258.92224 335.63437Q259.71912 336.47812 259.71912 338.025Q259.71912 338.11874 259.71912 338.30624L255.07849 338.30624Q255.14099 339.3375 255.65662 339.88437Q256.17224 340.41562 256.9535 340.41562Q257.53162 340.41562 257.93787 340.11874Q258.35974 339.80624 258.59412 339.15ZM255.14099 337.44687L258.60974 337.44687Q258.54724 336.65 258.21912 336.25937Q257.7035 335.65 256.90662 335.65Q256.17224 335.65 255.67224 336.13437Q255.18787 336.61874 255.14099 337.44687ZM264.59412 341.15L264.59412 335.74374L263.65662 335.74374L263.65662 334.93124L264.59412 334.93124L264.59412 334.25937Q264.59412 333.63437 264.7035 333.3375Q264.85974 332.91562 265.23474 332.66562Q265.62537 332.41562 266.31287 332.41562Q266.766 332.41562 267.29724 332.525L267.141 333.43124Q266.81287 333.38437 266.516 333.38437Q266.03162 333.38437 265.8285 333.5875Q265.641 333.79062 265.641 334.35312L265.641 334.93124L266.85974 334.93124L266.85974 335.74374L265.641 335.74374L265.641 341.15L264.59412 341.15ZM266.9535 338.04062Q266.9535 336.30624 267.90662 335.47812Q268.7035 334.79062 269.85974 334.79062Q271.141 334.79062 271.9535 335.63437Q272.78162 336.4625 272.78162 337.94687Q272.78162 339.15 272.42224 339.8375Q272.06287 340.525 271.35974 340.91562Q270.67224 341.29062 269.85974 341.29062Q268.56287 341.29062 267.75037 340.4625Q266.9535 339.61874 266.9535 338.04062ZM268.03162 338.04062Q268.03162 339.22812 268.54724 339.82187Q269.0785 340.41562 269.85974 340.41562Q270.65662 340.41562 271.17224 339.82187Q271.68787 339.22812 271.68787 338.00937Q271.68787 336.85312 271.15662 336.25937Q270.641 335.66562 269.85974 335.66562Q269.0785 335.66562 268.54724 336.25937Q268.03162 336.8375 268.03162 338.04062ZM274.3285 341.15L274.3285 334.93124L275.28162 334.93124L275.28162 335.86874Q275.641 335.2125 275.93787 335.00937Q276.25037 334.79062 276.62537 334.79062Q277.15662 334.79062 277.7035 335.11874L277.34412 336.10312Q276.9535 335.86874 276.5785 335.86874Q276.21912 335.86874 275.93787 336.0875Q275.67224 336.29062 275.56287 336.66562Q275.37537 337.22812 275.37537 337.88437L275.37537 341.15L274.3285 341.15Z" fill-rule="nonzero"/><path fill="#000000" d="M204.90662 354.38437Q204.31287 354.88437 203.76599 355.0875Q203.23474 355.29062 202.60974 355.29062Q201.57849 355.29062 201.03162 354.79062Q200.48474 354.29062 200.48474 353.50937Q200.48474 353.05624 200.68787 352.68124Q200.89099 352.29062 201.23474 352.07187Q201.57849 351.8375 202.00037 351.72812Q202.29724 351.63437 202.93787 351.55624Q204.20349 351.41562 204.81287 351.19687Q204.81287 350.97812 204.81287 350.93124Q204.81287 350.275 204.51599 350.00937Q204.10974 349.66562 203.31287 349.66562Q202.57849 349.66562 202.21912 349.93124Q201.85974 350.18124 201.68787 350.8375L200.65662 350.69687Q200.79724 350.04062 201.12537 349.63437Q201.45349 349.22812 202.06287 349.00937Q202.67224 348.79062 203.46912 348.79062Q204.26599 348.79062 204.76599 348.97812Q205.26599 349.16562 205.50037 349.44687Q205.73474 349.72812 205.82849 350.16562Q205.87537 350.43124 205.87537 351.13437L205.87537 352.54062Q205.87537 354.00937 205.93787 354.4Q206.01599 354.79062 206.21912 355.15L205.10974 355.15Q204.95349 354.82187 204.90662 354.38437ZM204.81287 352.025Q204.23474 352.25937 203.09412 352.43124Q202.43787 352.525 202.17224 352.65Q201.90662 352.75937 201.75037 352.97812Q201.60974 353.19687 201.60974 353.47812Q201.60974 353.9 201.92224 354.18124Q202.25037 354.4625 202.85974 354.4625Q203.46912 354.4625 203.93787 354.19687Q204.42224 353.93124 204.64099 353.4625Q204.81287 353.10312 204.81287 352.41562L204.81287 352.025ZM214.90662 352.86874L215.93787 353.00937Q215.76599 354.07187 215.06287 354.68124Q214.35974 355.29062 213.34412 355.29062Q212.06287 355.29062 211.28162 354.4625Q210.51599 353.61874 210.51599 352.05624Q210.51599 351.05624 210.84412 350.30624Q211.18787 349.54062 211.85974 349.16562Q212.54724 348.79062 213.35974 348.79062Q214.35974 348.79062 215.00037 349.30624Q215.65662 349.80624 215.84412 350.75937L214.81287 350.91562Q214.67224 350.29062 214.29724 349.97812Q213.92224 349.65 213.39099 349.65Q212.59412 349.65 212.09412 350.22812Q211.59412 350.79062 211.59412 352.025Q211.59412 353.29062 212.07849 353.85312Q212.56287 354.41562 213.32849 354.41562Q213.95349 354.41562 214.35974 354.04062Q214.78162 353.66562 214.90662 352.86874ZM216.45349 352.04062Q216.45349 350.30624 217.40662 349.47812Q218.20349 348.79062 219.35974 348.79062Q220.64099 348.79062 221.45349 349.63437Q222.28162 350.4625 222.28162 351.94687Q222.28162 353.15 221.92224 353.8375Q221.56287 354.525 220.85974 354.91562Q220.17224 355.29062 219.35974 355.29062Q218.06287 355.29062 217.25037 354.4625Q216.45349 353.61874 216.45349 352.04062ZM217.53162 352.04062Q217.53162 353.22812 218.04724 353.82187Q218.57849 354.41562 219.35974 354.41562Q220.15662 354.41562 220.67224 353.82187Q221.18787 353.22812 221.18787 352.00937Q221.18787 350.85312 220.65662 350.25937Q220.14099 349.66562 219.35974 349.66562Q218.57849 349.66562 218.04724 350.25937Q217.53162 350.8375 217.53162 352.04062ZM223.84412 355.15L223.84412 348.93124L224.78162 348.93124L224.78162 349.80624Q225.07849 349.3375 225.56287 349.07187Q226.04724 348.79062 226.67224 348.79062Q227.35974 348.79062 227.79724 349.07187Q228.25037 349.35312 228.42224 349.86874Q229.17224 348.79062 230.34412 348.79062Q231.28162 348.79062 231.76599 349.30624Q232.26599 349.80624 232.26599 350.88437L232.26599 355.15L231.21912 355.15L231.21912 351.22812Q231.21912 350.60312 231.10974 350.32187Q231.01599 350.04062 230.75037 349.86874Q230.48474 349.69687 230.10974 349.69687Q229.45349 349.69687 229.01599 350.13437Q228.59412 350.57187 228.59412 351.54062L228.59412 355.15L227.53162 355.15L227.53162 351.10312Q227.53162 350.4 227.26599 350.05624Q227.01599 349.69687 226.43787 349.69687Q225.98474 349.69687 225.60974 349.93124Q225.23474 350.16562 225.06287 350.61874Q224.89099 351.07187 224.89099 351.91562L224.89099 355.15L223.84412 355.15ZM234.84412 357.54062L234.84412 348.93124L235.79724 348.93124L235.79724 349.72812Q236.14099 349.25937 236.56287 349.025Q237.00037 348.79062 237.60974 348.79062Q238.40662 348.79062 239.01599 349.19687Q239.62537 349.60312 239.92224 350.35312Q240.23474 351.10312 240.23474 351.99374Q240.23474 352.94687 239.89099 353.7125Q239.56287 354.47812 238.90662 354.88437Q238.25037 355.29062 237.53162 355.29062Q237.00037 355.29062 236.57849 355.07187Q236.15662 354.8375 235.89099 354.50937L235.89099 357.54062L234.84412 357.54062ZM235.79724 352.07187Q235.79724 353.275 236.28162 353.85312Q236.76599 354.41562 237.45349 354.41562Q238.15662 354.41562 238.65662 353.82187Q239.15662 353.22812 239.15662 351.97812Q239.15662 350.79062 238.67224 350.2125Q238.18787 349.61874 237.50037 349.61874Q236.82849 349.61874 236.31287 350.24374Q235.79724 350.86874 235.79724 352.07187ZM245.90662 354.38437Q245.31287 354.88437 244.76599 355.0875Q244.23474 355.29062 243.60974 355.29062Q242.57849 355.29062 242.03162 354.79062Q241.48474 354.29062 241.48474 353.50937Q241.48474 353.05624 241.68787 352.68124Q241.89099 352.29062 242.23474 352.07187Q242.57849 351.8375 243.00037 351.72812Q243.29724 351.63437 243.93787 351.55624Q245.20349 351.41562 245.81287 351.19687Q245.81287 350.97812 245.81287 350.93124Q245.81287 350.275 245.51599 350.00937Q245.10974 349.66562 244.31287 349.66562Q243.57849 349.66562 243.21912 349.93124Q242.85974 350.18124 242.68787 350.8375L241.65662 350.69687Q241.79724 350.04062 242.12537 349.63437Q242.45349 349.22812 243.06287 349.00937Q243.67224 348.79062 244.46912 348.79062Q245.26599 348.79062 245.76599 348.97812Q246.26599 349.16562 246.50037 349.44687Q246.73474 349.72812 246.82849 350.16562Q246.87537 350.43124 246.87537 351.13437L246.87537 352.54062Q246.87537 354.00937 246.93787 354.4Q247.01599 354.79062 247.21912 355.15L246.10974 355.15Q245.95349 354.82187 245.90662 354.38437ZM245.81287 352.025Q245.23474 352.25937 244.09412 352.43124Q243.43787 352.525 243.17224 352.65Q242.90662 352.75937 242.75037 352.97812Q242.60974 353.19687 242.60974 353.47812Q242.60974 353.9 242.92224 354.18124Q243.25037 354.4625 243.85974 354.4625Q244.46912 354.4625 244.93787 354.19687Q245.42224 353.93124 245.64099 353.4625Q245.81287 353.10312 245.81287 352.41562L245.81287 352.025ZM248.84412 355.15L248.84412 348.93124L249.78162 348.93124L249.78162 349.80624Q250.46912 348.79062 251.76599 348.79062Q252.32849 348.79062 252.79724 348.99374Q253.28162 349.19687 253.51599 349.525Q253.75037 349.85312 253.84412 350.29062Q253.89099 350.5875 253.89099 351.32187L253.89099 355.15L252.84412 355.15L252.84412 351.36874Q252.84412 350.7125 252.71912 350.4Q252.59412 350.0875 252.28162 349.9Q251.96912 349.69687 251.54724 349.69687Q250.87537 349.69687 250.37537 350.13437Q249.89099 350.55624 249.89099 351.74374L249.89099 355.15L248.84412 355.15ZM255.79724 357.54062L255.67224 356.55624Q256.016 356.65 256.28162 356.65Q256.62537 356.65 256.8285 356.525Q257.04724 356.41562 257.18787 356.2125Q257.28162 356.04062 257.516 355.41562Q257.53162 355.3375 257.60974 355.16562L255.23474 348.93124L256.37537 348.93124L257.67224 352.525Q257.92224 353.2125 258.12537 353.97812Q258.31287 353.24374 258.56287 352.55624L259.891 348.93124L260.93787 348.93124L258.5785 355.25937Q258.18787 356.275 257.98474 356.66562Q257.7035 357.19687 257.3285 357.43124Q256.96912 357.68124 256.46912 357.68124Q256.17224 357.68124 255.79724 357.54062Z" fill-rule="nonzero"/><path fill="#000000" d="M288.93762 341.15L288.93762 332.55624L292.18762 332.55624Q293.03137 332.55624 293.4845 332.63437Q294.12512 332.74374 294.547 333.04062Q294.9845 333.3375 295.2345 333.86874Q295.50012 334.4 295.50012 335.04062Q295.50012 336.13437 294.797 336.9Q294.1095 337.65 292.28137 337.65L290.07825 337.65L290.07825 341.15L288.93762 341.15ZM290.07825 336.65L292.297 336.65Q293.40637 336.65 293.8595 336.24374Q294.32825 335.82187 294.32825 335.07187Q294.32825 334.54062 294.047 334.16562Q293.78137 333.775 293.34387 333.65Q293.047 333.57187 292.28137 333.57187L290.07825 333.57187L290.07825 336.65ZM300.89075 341.15L300.89075 340.22812Q300.15637 341.29062 298.90637 341.29062Q298.3595 341.29062 297.87512 341.0875Q297.40637 340.86874 297.172 340.55624Q296.93762 340.22812 296.84387 339.75937Q296.78137 339.4625 296.78137 338.775L296.78137 334.93124L297.84387 334.93124L297.84387 338.38437Q297.84387 339.19687 297.90637 339.49374Q298.00012 339.9 298.31262 340.15Q298.64075 340.38437 299.12512 340.38437Q299.59387 340.38437 300.00012 340.15Q300.422 339.9 300.59387 339.47812Q300.78137 339.05624 300.78137 338.25937L300.78137 334.93124L301.82825 334.93124L301.82825 341.15L300.89075 341.15ZM304.78137 341.15L303.797 341.15L303.797 332.55624L304.8595 332.55624L304.8595 335.61874Q305.53137 334.79062 306.56262 334.79062Q307.14075 334.79062 307.64075 335.025Q308.15637 335.24374 308.4845 335.66562Q308.82825 336.0875 309.01575 336.68124Q309.20325 337.275 309.20325 337.94687Q309.20325 339.54062 308.40637 340.41562Q307.6095 341.29062 306.51575 341.29062Q305.40637 341.29062 304.78137 340.36874L304.78137 341.15ZM304.76575 337.99374Q304.76575 339.10312 305.07825 339.60312Q305.57825 340.41562 306.422 340.41562Q307.1095 340.41562 307.6095 339.82187Q308.12512 339.22812 308.12512 338.025Q308.12512 336.80624 307.64075 336.22812Q307.15637 335.65 306.46887 335.65Q305.78137 335.65 305.26575 336.25937Q304.76575 336.85312 304.76575 337.99374ZM310.78137 341.15L310.78137 332.55624L311.84387 332.55624L311.84387 341.15L310.78137 341.15ZM313.81262 333.775L313.81262 332.55624L314.87512 332.55624L314.87512 333.775L313.81262 333.775ZM313.81262 341.15L313.81262 334.93124L314.87512 334.93124L314.87512 341.15L313.81262 341.15ZM316.39075 339.29062L317.422 339.13437Q317.51575 339.75937 317.90637 340.0875Q318.31262 340.41562 319.047 340.41562Q319.76575 340.41562 320.1095 340.13437Q320.46887 339.8375 320.46887 339.43124Q320.46887 339.07187 320.15637 338.86874Q319.93762 338.72812 319.07825 338.50937Q317.922 338.2125 317.46887 338.00937Q317.03137 337.79062 316.797 337.41562Q316.56262 337.04062 316.56262 336.57187Q316.56262 336.16562 316.75012 335.80624Q316.93762 335.44687 317.26575 335.2125Q317.51575 335.04062 317.93762 334.91562Q318.3595 334.79062 318.8595 334.79062Q319.57825 334.79062 320.12512 335.00937Q320.68762 335.2125 320.95325 335.57187Q321.21887 335.93124 321.31262 336.525L320.28137 336.66562Q320.21887 336.19687 319.87512 335.93124Q319.547 335.65 318.922 335.65Q318.20325 335.65 317.89075 335.9Q317.57825 336.13437 317.57825 336.4625Q317.57825 336.66562 317.70325 336.82187Q317.84387 336.99374 318.1095 337.10312Q318.26575 337.16562 319.047 337.36874Q320.172 337.68124 320.6095 337.86874Q321.047 338.05624 321.297 338.41562Q321.547 338.775 321.547 339.32187Q321.547 339.85312 321.2345 340.32187Q320.93762 340.775 320.3595 341.04062Q319.78137 341.29062 319.047 341.29062Q317.82825 341.29062 317.18762 340.79062Q316.56262 340.275 316.39075 339.29062ZM323.81262 341.15L323.81262 332.55624L324.8595 332.55624L324.8595 335.63437Q325.59387 334.79062 326.71887 334.79062Q327.422 334.79062 327.922 335.07187Q328.43762 335.3375 328.65637 335.82187Q328.87512 336.29062 328.87512 337.2125L328.87512 341.15L327.82825 341.15L327.82825 337.2125Q327.82825 336.41562 327.4845 336.05624Q327.14075 335.69687 326.51575 335.69687Q326.047 335.69687 325.62512 335.94687Q325.21887 336.18124 325.03137 336.60312Q324.8595 337.00937 324.8595 337.74374L324.8595 341.15L323.81262 341.15ZM330.81262 333.775L330.81262 332.55624L331.87512 332.55624L331.87512 333.775L330.81262 333.775ZM330.81262 341.15L330.81262 334.93124L331.87512 334.93124L331.87512 341.15L330.81262 341.15ZM333.81262 341.15L333.81262 334.93124L334.75012 334.93124L334.75012 335.80624Q335.43762 334.79062 336.7345 334.79062Q337.297 334.79062 337.76575 334.99374Q338.25012 335.19687 338.4845 335.525Q338.71887 335.85312 338.81262 336.29062Q338.8595 336.5875 338.8595 337.32187L338.8595 341.15L337.81262 341.15L337.81262 337.36874Q337.81262 336.7125 337.68762 336.4Q337.56262 336.0875 337.25012 335.9Q336.93762 335.69687 336.51575 335.69687Q335.84387 335.69687 335.34387 336.13437Q334.8595 336.55624 334.8595 337.74374L334.8595 341.15L333.81262 341.15ZM340.6095 341.66562L341.64075 341.82187Q341.70325 342.29062 342.00012 342.50937Q342.39075 342.80624 343.06262 342.80624Q343.797 342.80624 344.18762 342.50937Q344.59387 342.2125 344.7345 341.69687Q344.82825 341.36874 344.81262 340.3375Q344.12512 341.15 343.09387 341.15Q341.81262 341.15 341.1095 340.22812Q340.40637 339.29062 340.40637 338.00937Q340.40637 337.11874 340.71887 336.36874Q341.047 335.60312 341.65637 335.19687Q342.26575 334.79062 343.09387 334.79062Q344.20325 334.79062 344.922 335.68124L344.922 334.93124L345.89075 334.93124L345.89075 340.30624Q345.89075 341.75937 345.59387 342.36874Q345.297 342.97812 344.65637 343.32187Q344.01575 343.68124 343.07825 343.68124Q341.96887 343.68124 341.28137 343.18124Q340.59387 342.68124 340.6095 341.66562ZM341.4845 337.93124Q341.4845 339.15 341.96887 339.7125Q342.45325 340.275 343.18762 340.275Q343.922 340.275 344.40637 339.7125Q344.90637 339.15 344.90637 337.9625Q344.90637 336.82187 344.39075 336.24374Q343.89075 335.66562 343.172 335.66562Q342.46887 335.66562 341.96887 336.24374Q341.4845 336.80624 341.4845 337.93124ZM350.81262 341.15L350.81262 334.93124L351.75012 334.93124L351.75012 335.80624Q352.047 335.3375 352.53137 335.07187Q353.01575 334.79062 353.64075 334.79062Q354.32825 334.79062 354.76575 335.07187Q355.21887 335.35312 355.39075 335.86874Q356.14075 334.79062 357.31262 334.79062Q358.25012 334.79062 358.7345 335.30624Q359.2345 335.80624 359.2345 336.88437L359.2345 341.15L358.18762 341.15L358.18762 337.22812Q358.18762 336.60312 358.07825 336.32187Q357.9845 336.04062 357.71887 335.86874Q357.45325 335.69687 357.07825 335.69687Q356.422 335.69687 355.9845 336.13437Q355.56262 336.57187 355.56262 337.54062L355.56262 341.15L354.50012 341.15L354.50012 337.10312Q354.50012 336.4 354.2345 336.05624Q353.9845 335.69687 353.40637 335.69687Q352.95325 335.69687 352.57825 335.93124Q352.20325 336.16562 352.03137 336.61874Q351.8595 337.07187 351.8595 337.91562L351.8595 341.15L350.81262 341.15ZM361.76575 343.54062L361.64075 342.55624Q361.9845 342.65 362.25012 342.65Q362.59387 342.65 362.797 342.525Q363.01575 342.41562 363.15637 342.2125Q363.25012 342.04062 363.4845 341.41562Q363.50012 341.3375 363.57825 341.16562L361.20325 334.93124L362.34387 334.93124L363.64075 338.525Q363.89075 339.2125 364.09387 339.97812Q364.28137 339.24374 364.53137 338.55624L365.8595 334.93124L366.90637 334.93124L364.547 341.25937Q364.15637 342.275 363.95325 342.66562Q363.672 343.19687 363.297 343.43124Q362.93762 343.68124 362.43762 343.68124Q362.14075 343.68124 361.76575 343.54062ZM369.422 338.04062Q369.422 336.30624 370.37512 335.47812Q371.172 334.79062 372.32825 334.79062Q373.6095 334.79062 374.422 335.63437Q375.25012 336.4625 375.25012 337.94687Q375.25012 339.15 374.89075 339.8375Q374.53137 340.525 373.82825 340.91562Q373.14075 341.29062 372.32825 341.29062Q371.03137 341.29062 370.21887 340.4625Q369.422 339.61874 369.422 338.04062ZM370.50012 338.04062Q370.50012 339.22812 371.01575 339.82187Q371.547 340.41562 372.32825 340.41562Q373.12512 340.41562 373.64075 339.82187Q374.15637 339.22812 374.15637 338.00937Q374.15637 336.85312 373.62512 336.25937Q373.1095 335.66562 372.32825 335.66562Q371.547 335.66562 371.01575 336.25937Q370.50012 336.8375 370.50012 338.04062ZM377.95325 341.15L376.047 334.93124L377.14075 334.93124L378.12512 338.525L378.50012 339.85312Q378.53137 339.75937 378.82825 338.57187L379.81262 334.93124L380.89075 334.93124L381.82825 338.54062L382.14075 339.72812L382.50012 338.525L383.56262 334.93124L384.59387 334.93124L382.64075 341.15L381.547 341.15L380.56262 337.41562L380.31262 336.36874L379.06262 341.15L377.95325 341.15ZM385.81262 341.15L385.81262 334.93124L386.75012 334.93124L386.75012 335.80624Q387.43762 334.79062 388.7345 334.79062Q389.297 334.79062 389.76575 334.99374Q390.25012 335.19687 390.4845 335.525Q390.71887 335.85312 390.81262 336.29062Q390.8595 336.5875 390.8595 337.32187L390.8595 341.15L389.81262 341.15L389.81262 337.36874Q389.81262 336.7125 389.68762 336.4Q389.56262 336.0875 389.25012 335.9Q388.93762 335.69687 388.51575 335.69687Q387.84387 335.69687 387.34387 336.13437Q386.8595 336.55624 386.8595 337.74374L386.8595 341.15L385.81262 341.15Z" fill-rule="nonzero"/><path fill="#000000" d="M330.87512 354.38437Q330.28137 354.88437 329.7345 355.0875Q329.20325 355.29062 328.57825 355.29062Q327.547 355.29062 327.00012 354.79062Q326.45325 354.29062 326.45325 353.50937Q326.45325 353.05624 326.65637 352.68124Q326.8595 352.29062 327.20325 352.07187Q327.547 351.8375 327.96887 351.72812Q328.26575 351.63437 328.90637 351.55624Q330.172 351.41562 330.78137 351.19687Q330.78137 350.97812 330.78137 350.93124Q330.78137 350.275 330.4845 350.00937Q330.07825 349.66562 329.28137 349.66562Q328.547 349.66562 328.18762 349.93124Q327.82825 350.18124 327.65637 350.8375L326.62512 350.69687Q326.76575 350.04062 327.09387 349.63437Q327.422 349.22812 328.03137 349.00937Q328.64075 348.79062 329.43762 348.79062Q330.2345 348.79062 330.7345 348.97812Q331.2345 349.16562 331.46887 349.44687Q331.70325 349.72812 331.797 350.16562Q331.84387 350.43124 331.84387 351.13437L331.84387 352.54062Q331.84387 354.00937 331.90637 354.4Q331.9845 354.79062 332.18762 355.15L331.07825 355.15Q330.922 354.82187 330.87512 354.38437ZM330.78137 352.025Q330.20325 352.25937 329.06262 352.43124Q328.40637 352.525 328.14075 352.65Q327.87512 352.75937 327.71887 352.97812Q327.57825 353.19687 327.57825 353.47812Q327.57825 353.9 327.89075 354.18124Q328.21887 354.4625 328.82825 354.4625Q329.43762 354.4625 329.90637 354.19687Q330.39075 353.93124 330.6095 353.4625Q330.78137 353.10312 330.78137 352.41562L330.78137 352.025ZM333.81262 357.54062L333.81262 348.93124L334.76575 348.93124L334.76575 349.72812Q335.1095 349.25937 335.53137 349.025Q335.96887 348.79062 336.57825 348.79062Q337.37512 348.79062 337.9845 349.19687Q338.59387 349.60312 338.89075 350.35312Q339.20325 351.10312 339.20325 351.99374Q339.20325 352.94687 338.8595 353.7125Q338.53137 354.47812 337.87512 354.88437Q337.21887 355.29062 336.50012 355.29062Q335.96887 355.29062 335.547 355.07187Q335.12512 354.8375 334.8595 354.50937L334.8595 357.54062L333.81262 357.54062ZM334.76575 352.07187Q334.76575 353.275 335.25012 353.85312Q335.7345 354.41562 336.422 354.41562Q337.12512 354.41562 337.62512 353.82187Q338.12512 353.22812 338.12512 351.97812Q338.12512 350.79062 337.64075 350.2125Q337.15637 349.61874 336.46887 349.61874Q335.797 349.61874 335.28137 350.24374Q334.76575 350.86874 334.76575 352.07187ZM340.81262 357.54062L340.81262 348.93124L341.76575 348.93124L341.76575 349.72812Q342.1095 349.25937 342.53137 349.025Q342.96887 348.79062 343.57825 348.79062Q344.37512 348.79062 344.9845 349.19687Q345.59387 349.60312 345.89075 350.35312Q346.20325 351.10312 346.20325 351.99374Q346.20325 352.94687 345.8595 353.7125Q345.53137 354.47812 344.87512 354.88437Q344.21887 355.29062 343.50012 355.29062Q342.96887 355.29062 342.547 355.07187Q342.12512 354.8375 341.8595 354.50937L341.8595 357.54062L340.81262 357.54062ZM341.76575 352.07187Q341.76575 353.275 342.25012 353.85312Q342.7345 354.41562 343.422 354.41562Q344.12512 354.41562 344.62512 353.82187Q345.12512 353.22812 345.12512 351.97812Q345.12512 350.79062 344.64075 350.2125Q344.15637 349.61874 343.46887 349.61874Q342.797 349.61874 342.28137 350.24374Q341.76575 350.86874 341.76575 352.07187ZM347.39075 353.29062L348.422 353.13437Q348.51575 353.75937 348.90637 354.0875Q349.31262 354.41562 350.047 354.41562Q350.76575 354.41562 351.1095 354.13437Q351.46887 353.8375 351.46887 353.43124Q351.46887 353.07187 351.15637 352.86874Q350.93762 352.72812 350.07825 352.50937Q348.922 352.2125 348.46887 352.00937Q348.03137 351.79062 347.797 351.41562Q347.56262 351.04062 347.56262 350.57187Q347.56262 350.16562 347.75012 349.80624Q347.93762 349.44687 348.26575 349.2125Q348.51575 349.04062 348.93762 348.91562Q349.3595 348.79062 349.8595 348.79062Q350.57825 348.79062 351.12512 349.00937Q351.68762 349.2125 351.95325 349.57187Q352.21887 349.93124 352.31262 350.525L351.28137 350.66562Q351.21887 350.19687 350.87512 349.93124Q350.547 349.65 349.922 349.65Q349.20325 349.65 348.89075 349.9Q348.57825 350.13437 348.57825 350.4625Q348.57825 350.66562 348.70325 350.82187Q348.84387 350.99374 349.1095 351.10312Q349.26575 351.16562 350.047 351.36874Q351.172 351.68124 351.6095 351.86874Q352.047 352.05624 352.297 352.41562Q352.547 352.775 352.547 353.32187Q352.547 353.85312 352.2345 354.32187Q351.93762 354.775 351.3595 355.04062Q350.78137 355.29062 350.047 355.29062Q348.82825 355.29062 348.18762 354.79062Q347.56262 354.275 347.39075 353.29062Z" fill-rule="nonzero"/><path fill="#000000" d="M427.59363 341.15L427.59363 333.57187L424.7655 333.57187L424.7655 332.55624L431.578 332.55624L431.578 333.57187L428.73425 333.57187L428.73425 341.15L427.59363 341.15ZM436.53113 339.15L437.62488 339.275Q437.37488 340.22812 436.67175 340.75937Q435.96863 341.29062 434.8905 341.29062Q433.53113 341.29062 432.71863 340.44687Q431.92175 339.60312 431.92175 338.0875Q431.92175 336.525 432.73425 335.66562Q433.54675 334.79062 434.828 334.79062Q436.078 334.79062 436.85925 335.63437Q437.65613 336.47812 437.65613 338.025Q437.65613 338.11874 437.65613 338.30624L433.0155 338.30624Q433.078 339.3375 433.59363 339.88437Q434.10925 340.41562 434.8905 340.41562Q435.46863 340.41562 435.87488 340.11874Q436.29675 339.80624 436.53113 339.15ZM433.078 337.44687L436.54675 337.44687Q436.48425 336.65 436.15613 336.25937Q435.6405 335.65 434.84363 335.65Q434.10925 335.65 433.60925 336.13437Q433.12488 336.61874 433.078 337.44687ZM443.34363 340.38437Q442.74988 340.88437 442.203 341.0875Q441.67175 341.29062 441.04675 341.29062Q440.0155 341.29062 439.46863 340.79062Q438.92175 340.29062 438.92175 339.50937Q438.92175 339.05624 439.12488 338.68124Q439.328 338.29062 439.67175 338.07187Q440.0155 337.8375 440.43738 337.72812Q440.73425 337.63437 441.37488 337.55624Q442.6405 337.41562 443.24988 337.19687Q443.24988 336.97812 443.24988 336.93124Q443.24988 336.275 442.953 336.00937Q442.54675 335.66562 441.74988 335.66562Q441.0155 335.66562 440.65613 335.93124Q440.29675 336.18124 440.12488 336.8375L439.09363 336.69687Q439.23425 336.04062 439.56238 335.63437Q439.8905 335.22812 440.49988 335.00937Q441.10925 334.79062 441.90613 334.79062Q442.703 334.79062 443.203 334.97812Q443.703 335.16562 443.93738 335.44687Q444.17175 335.72812 444.2655 336.16562Q444.31238 336.43124 444.31238 337.13437L444.31238 338.54062Q444.31238 340.00937 444.37488 340.4Q444.453 340.79062 444.65613 341.15L443.54675 341.15Q443.3905 340.82187 443.34363 340.38437ZM443.24988 338.025Q442.67175 338.25937 441.53113 338.43124Q440.87488 338.525 440.60925 338.65Q440.34363 338.75937 440.18738 338.97812Q440.04675 339.19687 440.04675 339.47812Q440.04675 339.9 440.35925 340.18124Q440.68738 340.4625 441.29675 340.4625Q441.90613 340.4625 442.37488 340.19687Q442.85925 339.93124 443.078 339.4625Q443.24988 339.10312 443.24988 338.41562L443.24988 338.025ZM450.34363 338.86874L451.37488 339.00937Q451.203 340.07187 450.49988 340.68124Q449.79675 341.29062 448.78113 341.29062Q447.49988 341.29062 446.71863 340.4625Q445.953 339.61874 445.953 338.05624Q445.953 337.05624 446.28113 336.30624Q446.62488 335.54062 447.29675 335.16562Q447.98425 334.79062 448.79675 334.79062Q449.79675 334.79062 450.43738 335.30624Q451.09363 335.80624 451.28113 336.75937L450.24988 336.91562Q450.10925 336.29062 449.73425 335.97812Q449.35925 335.65 448.828 335.65Q448.03113 335.65 447.53113 336.22812Q447.03113 336.79062 447.03113 338.025Q447.03113 339.29062 447.5155 339.85312Q447.99988 340.41562 448.7655 340.41562Q449.3905 340.41562 449.79675 340.04062Q450.21863 339.66562 450.34363 338.86874ZM452.28113 341.15L452.28113 332.55624L453.328 332.55624L453.328 335.63437Q454.06238 334.79062 455.18738 334.79062Q455.8905 334.79062 456.3905 335.07187Q456.90613 335.3375 457.12488 335.82187Q457.34363 336.29062 457.34363 337.2125L457.34363 341.15L456.29675 341.15L456.29675 337.2125Q456.29675 336.41562 455.953 336.05624Q455.60925 335.69687 454.98425 335.69687Q454.5155 335.69687 454.09363 335.94687Q453.68738 336.18124 453.49988 336.60312Q453.328 337.00937 453.328 337.74374L453.328 341.15L452.28113 341.15ZM459.28113 333.775L459.28113 332.55624L460.34363 332.55624L460.34363 333.775L459.28113 333.775ZM459.28113 341.15L459.28113 334.93124L460.34363 334.93124L460.34363 341.15L459.28113 341.15ZM462.28113 341.15L462.28113 334.93124L463.21863 334.93124L463.21863 335.80624Q463.90613 334.79062 465.203 334.79062Q465.7655 334.79062 466.23425 334.99374Q466.71863 335.19687 466.953 335.525Q467.18738 335.85312 467.28113 336.29062Q467.328 336.5875 467.328 337.32187L467.328 341.15L466.28113 341.15L466.28113 337.36874Q466.28113 336.7125 466.15613 336.4Q466.03113 336.0875 465.71863 335.9Q465.40613 335.69687 464.98425 335.69687Q464.31238 335.69687 463.81238 336.13437Q463.328 336.55624 463.328 337.74374L463.328 341.15L462.28113 341.15ZM469.078 341.66562L470.10925 341.82187Q470.17175 342.29062 470.46863 342.50937Q470.85925 342.80624 471.53113 342.80624Q472.2655 342.80624 472.65613 342.50937Q473.06238 342.2125 473.203 341.69687Q473.29675 341.36874 473.28113 340.3375Q472.59363 341.15 471.56238 341.15Q470.28113 341.15 469.578 340.22812Q468.87488 339.29062 468.87488 338.00937Q468.87488 337.11874 469.18738 336.36874Q469.5155 335.60312 470.12488 335.19687Q470.73425 334.79062 471.56238 334.79062Q472.67175 334.79062 473.3905 335.68124L473.3905 334.93124L474.35925 334.93124L474.35925 340.30624Q474.35925 341.75937 474.06238 342.36874Q473.7655 342.97812 473.12488 343.32187Q472.48425 343.68124 471.54675 343.68124Q470.43738 343.68124 469.74988 343.18124Q469.06238 342.68124 469.078 341.66562ZM469.953 337.93124Q469.953 339.15 470.43738 339.7125Q470.92175 340.275 471.65613 340.275Q472.3905 340.275 472.87488 339.7125Q473.37488 339.15 473.37488 337.9625Q473.37488 336.82187 472.85925 336.24374Q472.35925 335.66562 471.6405 335.66562Q470.93738 335.66562 470.43738 336.24374Q469.953 336.80624 469.953 337.93124Z" fill-rule="nonzero"/><path fill="#000000" d="M533.89026 340.22812Q534.68713 340.775 535.3434 341.025L535.01526 341.82187Q534.0934 341.47812 533.1715 340.75937Q532.2184 341.29062 531.06213 341.29062Q529.89026 341.29062 528.93713 340.72812Q527.99963 340.16562 527.484 339.15Q526.9684 338.13437 526.9684 336.85312Q526.9684 335.5875 527.484 334.54062Q527.99963 333.49374 528.95276 332.94687Q529.9059 332.4 531.07776 332.4Q532.26526 332.4 533.2184 332.97812Q534.18713 333.54062 534.68713 334.55624Q535.18713 335.57187 535.18713 336.85312Q535.18713 337.91562 534.859 338.75937Q534.5465 339.60312 533.89026 340.22812ZM531.39026 338.775Q532.37463 339.05624 533.01526 339.60312Q534.01526 338.68124 534.01526 336.85312Q534.01526 335.80624 533.6559 335.025Q533.2965 334.24374 532.609 333.82187Q531.93713 333.38437 531.0934 333.38437Q529.81213 333.38437 528.9684 334.25937Q528.14026 335.11874 528.14026 336.85312Q528.14026 338.525 528.9684 339.43124Q529.7965 340.32187 531.0934 340.32187Q531.70276 340.32187 532.234 340.0875Q531.70276 339.74374 531.109 339.60312L531.39026 338.775ZM535.43713 341.15L538.734 332.55624L539.95276 332.55624L543.4684 341.15L542.18713 341.15L541.1715 338.54062L537.5934 338.54062L536.64026 341.15L535.43713 341.15ZM537.9215 337.61874L540.82776 337.61874L539.93713 335.24374Q539.51526 334.16562 539.32776 333.4625Q539.1559 334.29062 538.859 335.10312L537.9215 337.61874ZM542.45276 341.29062L544.93713 332.41562L545.7809 332.41562L543.2965 341.29062L542.45276 341.29062ZM545.99963 338.38437L547.06213 338.29062Q547.14026 338.94687 547.4215 339.35312Q547.70276 339.75937 548.2809 340.025Q548.87463 340.275 549.609 340.275Q550.24963 340.275 550.74963 340.0875Q551.24963 339.88437 551.484 339.55624Q551.734 339.2125 551.734 338.82187Q551.734 338.41562 551.49963 338.11874Q551.26526 337.80624 550.734 337.60312Q550.37463 337.4625 549.18713 337.18124Q548.01526 336.9 547.5465 336.65Q546.9215 336.32187 546.62463 335.85312Q546.32776 335.36874 546.32776 334.775Q546.32776 334.13437 546.68713 333.57187Q547.06213 332.99374 547.76526 332.7125Q548.484 332.41562 549.3434 332.41562Q550.2965 332.41562 551.0309 332.72812Q551.76526 333.025 552.1559 333.63437Q552.5465 334.22812 552.57776 334.97812L551.484 335.05624Q551.39026 334.24374 550.87463 333.8375Q550.37463 333.41562 549.39026 333.41562Q548.359 333.41562 547.89026 333.79062Q547.4215 334.16562 547.4215 334.69687Q547.4215 335.16562 547.74963 335.4625Q548.07776 335.75937 549.45276 336.07187Q550.8434 336.38437 551.359 336.61874Q552.109 336.97812 552.4684 337.50937Q552.82776 338.025 552.82776 338.72812Q552.82776 339.41562 552.43713 340.025Q552.0465 340.61874 551.31213 340.9625Q550.57776 341.29062 549.6559 341.29062Q548.484 341.29062 547.68713 340.9625Q546.9059 340.61874 546.45276 339.93124Q546.01526 339.24374 545.99963 338.38437ZM553.859 338.04062Q553.859 336.30624 554.81213 335.47812Q555.609 334.79062 556.76526 334.79062Q558.0465 334.79062 558.859 335.63437Q559.68713 336.4625 559.68713 337.94687Q559.68713 339.15 559.32776 339.8375Q558.9684 340.525 558.26526 340.91562Q557.57776 341.29062 556.76526 341.29062Q555.4684 341.29062 554.6559 340.4625Q553.859 339.61874 553.859 338.04062ZM554.93713 338.04062Q554.93713 339.22812 555.45276 339.82187Q555.984 340.41562 556.76526 340.41562Q557.56213 340.41562 558.07776 339.82187Q558.5934 339.22812 558.5934 338.00937Q558.5934 336.85312 558.06213 336.25937Q557.5465 335.66562 556.76526 335.66562Q555.984 335.66562 555.45276 336.25937Q554.93713 336.8375 554.93713 338.04062ZM561.49963 341.15L561.49963 335.74374L560.56213 335.74374L560.56213 334.93124L561.49963 334.93124L561.49963 334.25937Q561.49963 333.63437 561.609 333.3375Q561.76526 332.91562 562.14026 332.66562Q562.5309 332.41562 563.2184 332.41562Q563.6715 332.41562 564.20276 332.525L564.0465 333.43124Q563.7184 333.38437 563.4215 333.38437Q562.93713 333.38437 562.734 333.5875Q562.5465 333.79062 562.5465 334.35312L562.5465 334.93124L563.76526 334.93124L563.76526 335.74374L562.5465 335.74374L562.5465 341.15L561.49963 341.15ZM566.5465 340.2125L566.70276 341.13437Q566.24963 341.22812 565.9059 341.22812Q565.32776 341.22812 565.01526 341.05624Q564.70276 340.86874 564.56213 340.57187Q564.43713 340.275 564.43713 339.32187L564.43713 335.74374L563.6715 335.74374L563.6715 334.93124L564.43713 334.93124L564.43713 333.38437L565.484 332.75937L565.484 334.93124L566.5465 334.93124L566.5465 335.74374L565.484 335.74374L565.484 339.38437Q565.484 339.8375 565.5309 339.9625Q565.5934 340.0875 565.7184 340.16562Q565.8434 340.24374 566.07776 340.24374Q566.26526 340.24374 566.5465 340.2125ZM568.39026 341.15L566.484 334.93124L567.57776 334.93124L568.56213 338.525L568.93713 339.85312Q568.9684 339.75937 569.26526 338.57187L570.24963 334.93124L571.32776 334.93124L572.26526 338.54062L572.57776 339.72812L572.93713 338.525L573.99963 334.93124L575.0309 334.93124L573.07776 341.15L571.984 341.15L570.99963 337.41562L570.74963 336.36874L569.49963 341.15L568.39026 341.15ZM580.31213 340.38437Q579.7184 340.88437 579.1715 341.0875Q578.64026 341.29062 578.01526 341.29062Q576.984 341.29062 576.43713 340.79062Q575.89026 340.29062 575.89026 339.50937Q575.89026 339.05624 576.0934 338.68124Q576.2965 338.29062 576.64026 338.07187Q576.984 337.8375 577.4059 337.72812Q577.70276 337.63437 578.3434 337.55624Q579.609 337.41562 580.2184 337.19687Q580.2184 336.97812 580.2184 336.93124Q580.2184 336.275 579.9215 336.00937Q579.51526 335.66562 578.7184 335.66562Q577.984 335.66562 577.62463 335.93124Q577.26526 336.18124 577.0934 336.8375L576.06213 336.69687Q576.20276 336.04062 576.5309 335.63437Q576.859 335.22812 577.4684 335.00937Q578.07776 334.79062 578.87463 334.79062Q579.6715 334.79062 580.1715 334.97812Q580.6715 335.16562 580.9059 335.44687Q581.14026 335.72812 581.234 336.16562Q581.2809 336.43124 581.2809 337.13437L581.2809 338.54062Q581.2809 340.00937 581.3434 340.4Q581.4215 340.79062 581.62463 341.15L580.51526 341.15Q580.359 340.82187 580.31213 340.38437ZM580.2184 338.025Q579.64026 338.25937 578.49963 338.43124Q577.8434 338.525 577.57776 338.65Q577.31213 338.75937 577.1559 338.97812Q577.01526 339.19687 577.01526 339.47812Q577.01526 339.9 577.32776 340.18124Q577.6559 340.4625 578.26526 340.4625Q578.87463 340.4625 579.3434 340.19687Q579.82776 339.93124 580.0465 339.4625Q580.2184 339.10312 580.2184 338.41562L580.2184 338.025ZM583.234 341.15L583.234 334.93124L584.18713 334.93124L584.18713 335.86874Q584.5465 335.2125 584.8434 335.00937Q585.1559 334.79062 585.5309 334.79062Q586.06213 334.79062 586.609 335.11874L586.24963 336.10312Q585.859 335.86874 585.484 335.86874Q585.12463 335.86874 584.8434 336.0875Q584.57776 336.29062 584.4684 336.66562Q584.2809 337.22812 584.2809 337.88437L584.2809 341.15L583.234 341.15ZM591.49963 339.15L592.5934 339.275Q592.3434 340.22812 591.64026 340.75937Q590.93713 341.29062 589.859 341.29062Q588.49963 341.29062 587.68713 340.44687Q586.89026 339.60312 586.89026 338.0875Q586.89026 336.525 587.70276 335.66562Q588.51526 334.79062 589.7965 334.79062Q591.0465 334.79062 591.82776 335.63437Q592.62463 336.47812 592.62463 338.025Q592.62463 338.11874 592.62463 338.30624L587.984 338.30624Q588.0465 339.3375 588.56213 339.88437Q589.07776 340.41562 589.859 340.41562Q590.43713 340.41562 590.8434 340.11874Q591.26526 339.80624 591.49963 339.15ZM588.0465 337.44687L591.51526 337.44687Q591.45276 336.65 591.12463 336.25937Q590.609 335.65 589.81213 335.65Q589.07776 335.65 588.57776 336.13437Q588.0934 336.61874 588.0465 337.44687Z" fill-rule="nonzero"/><path fill="#000000" d="M542.56213 355.15L542.56213 347.57187L539.734 347.57187L539.734 346.55624L546.5465 346.55624L546.5465 347.57187L543.70276 347.57187L543.70276 355.15L542.56213 355.15ZM551.49963 353.15L552.5934 353.275Q552.3434 354.22812 551.64026 354.75937Q550.93713 355.29062 549.859 355.29062Q548.49963 355.29062 547.68713 354.44687Q546.89026 353.60312 546.89026 352.0875Q546.89026 350.525 547.70276 349.66562Q548.51526 348.79062 549.7965 348.79062Q551.0465 348.79062 551.82776 349.63437Q552.62463 350.47812 552.62463 352.025Q552.62463 352.11874 552.62463 352.30624L547.984 352.30624Q548.0465 353.3375 548.56213 353.88437Q549.07776 354.41562 549.859 354.41562Q550.43713 354.41562 550.8434 354.11874Q551.26526 353.80624 551.49963 353.15ZM548.0465 351.44687L551.51526 351.44687Q551.45276 350.65 551.12463 350.25937Q550.609 349.65 549.81213 349.65Q549.07776 349.65 548.57776 350.13437Q548.0934 350.61874 548.0465 351.44687ZM553.82776 353.29062L554.859 353.13437Q554.95276 353.75937 555.3434 354.0875Q555.74963 354.41562 556.484 354.41562Q557.20276 354.41562 557.5465 354.13437Q557.9059 353.8375 557.9059 353.43124Q557.9059 353.07187 557.5934 352.86874Q557.37463 352.72812 556.51526 352.50937Q555.359 352.2125 554.9059 352.00937Q554.4684 351.79062 554.234 351.41562Q553.99963 351.04062 553.99963 350.57187Q553.99963 350.16562 554.18713 349.80624Q554.37463 349.44687 554.70276 349.2125Q554.95276 349.04062 555.37463 348.91562Q555.7965 348.79062 556.2965 348.79062Q557.01526 348.79062 557.56213 349.00937Q558.12463 349.2125 558.39026 349.57187Q558.6559 349.93124 558.74963 350.525L557.7184 350.66562Q557.6559 350.19687 557.31213 349.93124Q556.984 349.65 556.359 349.65Q555.64026 349.65 555.32776 349.9Q555.01526 350.13437 555.01526 350.4625Q555.01526 350.66562 555.14026 350.82187Q555.2809 350.99374 555.5465 351.10312Q555.70276 351.16562 556.484 351.36874Q557.609 351.68124 558.0465 351.86874Q558.484 352.05624 558.734 352.41562Q558.984 352.775 558.984 353.32187Q558.984 353.85312 558.6715 354.32187Q558.37463 354.775 557.7965 355.04062Q557.2184 355.29062 556.484 355.29062Q555.26526 355.29062 554.62463 354.79062Q553.99963 354.275 553.82776 353.29062ZM563.5465 354.2125L563.70276 355.13437Q563.24963 355.22812 562.9059 355.22812Q562.32776 355.22812 562.01526 355.05624Q561.70276 354.86874 561.56213 354.57187Q561.43713 354.275 561.43713 353.32187L561.43713 349.74374L560.6715 349.74374L560.6715 348.93124L561.43713 348.93124L561.43713 347.38437L562.484 346.75937L562.484 348.93124L563.5465 348.93124L563.5465 349.74374L562.484 349.74374L562.484 353.38437Q562.484 353.8375 562.5309 353.9625Q562.5934 354.0875 562.7184 354.16562Q562.8434 354.24374 563.07776 354.24374Q563.26526 354.24374 563.5465 354.2125ZM564.24963 347.775L564.24963 346.55624L565.31213 346.55624L565.31213 347.775L564.24963 347.775ZM564.24963 355.15L564.24963 348.93124L565.31213 348.93124L565.31213 355.15L564.24963 355.15ZM567.24963 355.15L567.24963 348.93124L568.18713 348.93124L568.18713 349.80624Q568.87463 348.79062 570.1715 348.79062Q570.734 348.79062 571.20276 348.99374Q571.68713 349.19687 571.9215 349.525Q572.1559 349.85312 572.24963 350.29062Q572.2965 350.5875 572.2965 351.32187L572.2965 355.15L571.24963 355.15L571.24963 351.36874Q571.24963 350.7125 571.12463 350.4Q570.99963 350.0875 570.68713 349.9Q570.37463 349.69687 569.95276 349.69687Q569.2809 349.69687 568.7809 350.13437Q568.2965 350.55624 568.2965 351.74374L568.2965 355.15L567.24963 355.15ZM574.0465 355.66562L575.07776 355.82187Q575.14026 356.29062 575.43713 356.50937Q575.82776 356.80624 576.49963 356.80624Q577.234 356.80624 577.62463 356.50937Q578.0309 356.2125 578.1715 355.69687Q578.26526 355.36874 578.24963 354.3375Q577.56213 355.15 576.5309 355.15Q575.24963 355.15 574.5465 354.22812Q573.8434 353.29062 573.8434 352.00937Q573.8434 351.11874 574.1559 350.36874Q574.484 349.60312 575.0934 349.19687Q575.70276 348.79062 576.5309 348.79062Q577.64026 348.79062 578.359 349.68124L578.359 348.93124L579.32776 348.93124L579.32776 354.30624Q579.32776 355.75937 579.0309 356.36874Q578.734 356.97812 578.0934 357.32187Q577.45276 357.68124 576.51526 357.68124Q575.4059 357.68124 574.7184 357.18124Q574.0309 356.68124 574.0465 355.66562ZM574.9215 351.93124Q574.9215 353.15 575.4059 353.7125Q575.89026 354.275 576.62463 354.275Q577.359 354.275 577.8434 353.7125Q578.3434 353.15 578.3434 351.9625Q578.3434 350.82187 577.82776 350.24374Q577.32776 349.66562 576.609 349.66562Q575.9059 349.66562 575.4059 350.24374Q574.9215 350.80624 574.9215 351.93124Z" fill-rule="nonzero"/><path fill="#000000" d="M631.54626 341.15L631.54626 332.55624L632.67126 332.55624L632.67126 341.15L631.54626 341.15ZM637.21814 341.15L637.21814 332.55624L638.265 332.55624L638.265 335.63437Q638.9994 334.79062 640.1244 334.79062Q640.8275 334.79062 641.3275 335.07187Q641.84314 335.3375 642.0619 335.82187Q642.28064 336.29062 642.28064 337.2125L642.28064 341.15L641.23376 341.15L641.23376 337.2125Q641.23376 336.41562 640.89 336.05624Q640.54626 335.69687 639.92126 335.69687Q639.4525 335.69687 639.03064 335.94687Q638.6244 336.18124 638.4369 336.60312Q638.265 337.00937 638.265 337.74374L638.265 341.15L637.21814 341.15ZM648.28064 340.38437Q647.6869 340.88437 647.14 341.0875Q646.60876 341.29062 645.98376 341.29062Q644.9525 341.29062 644.40564 340.79062Q643.85876 340.29062 643.85876 339.50937Q643.85876 339.05624 644.0619 338.68124Q644.265 338.29062 644.60876 338.07187Q644.9525 337.8375 645.3744 337.72812Q645.67126 337.63437 646.3119 337.55624Q647.5775 337.41562 648.1869 337.19687Q648.1869 336.97812 648.1869 336.93124Q648.1869 336.275 647.89 336.00937Q647.48376 335.66562 646.6869 335.66562Q645.9525 335.66562 645.59314 335.93124Q645.23376 336.18124 645.0619 336.8375L644.03064 336.69687Q644.17126 336.04062 644.4994 335.63437Q644.8275 335.22812 645.4369 335.00937Q646.04626 334.79062 646.84314 334.79062Q647.64 334.79062 648.14 334.97812Q648.64 335.16562 648.8744 335.44687Q649.10876 335.72812 649.2025 336.16562Q649.2494 336.43124 649.2494 337.13437L649.2494 338.54062Q649.2494 340.00937 649.3119 340.4Q649.39 340.79062 649.59314 341.15L648.48376 341.15Q648.3275 340.82187 648.28064 340.38437ZM648.1869 338.025Q647.60876 338.25937 646.46814 338.43124Q645.8119 338.525 645.54626 338.65Q645.28064 338.75937 645.1244 338.97812Q644.98376 339.19687 644.98376 339.47812Q644.98376 339.9 645.29626 340.18124Q645.6244 340.4625 646.23376 340.4625Q646.84314 340.4625 647.3119 340.19687Q647.79626 339.93124 648.015 339.4625Q648.1869 339.10312 648.1869 338.41562L648.1869 338.025ZM652.9369 341.15L650.5775 334.93124L651.6869 334.93124L653.03064 338.65Q653.23376 339.25937 653.42126 339.9Q653.5619 339.41562 653.8119 338.72812L655.2025 334.93124L656.28064 334.93124L653.92126 341.15L652.9369 341.15ZM660.46814 339.15L661.5619 339.275Q661.3119 340.22812 660.60876 340.75937Q659.90564 341.29062 658.8275 341.29062Q657.46814 341.29062 656.65564 340.44687Q655.85876 339.60312 655.85876 338.0875Q655.85876 336.525 656.67126 335.66562Q657.48376 334.79062 658.765 334.79062Q660.015 334.79062 660.79626 335.63437Q661.59314 336.47812 661.59314 338.025Q661.59314 338.11874 661.59314 338.30624L656.9525 338.30624Q657.015 339.3375 657.53064 339.88437Q658.04626 340.41562 658.8275 340.41562Q659.40564 340.41562 659.8119 340.11874Q660.23376 339.80624 660.46814 339.15ZM657.015 337.44687L660.48376 337.44687Q660.42126 336.65 660.09314 336.25937Q659.5775 335.65 658.78064 335.65Q658.04626 335.65 657.54626 336.13437Q657.0619 336.61874 657.015 337.44687ZM663.21814 341.15L663.21814 334.93124L664.15564 334.93124L664.15564 335.80624Q664.84314 334.79062 666.14 334.79062Q666.7025 334.79062 667.17126 334.99374Q667.65564 335.19687 667.89 335.525Q668.1244 335.85312 668.21814 336.29062Q668.265 336.5875 668.265 337.32187L668.265 341.15L667.21814 341.15L667.21814 337.36874Q667.21814 336.7125 667.09314 336.4Q666.96814 336.0875 666.65564 335.9Q666.34314 335.69687 665.92126 335.69687Q665.2494 335.69687 664.7494 336.13437Q664.265 336.55624 664.265 337.74374L664.265 341.15L663.21814 341.15ZM670.21814 335.60312L669.9525 333.99374L669.9525 332.55624L671.15564 332.55624L671.15564 333.99374L670.8744 335.60312L670.21814 335.60312ZM674.515 340.2125L674.67126 341.13437Q674.21814 341.22812 673.8744 341.22812Q673.29626 341.22812 672.98376 341.05624Q672.67126 340.86874 672.53064 340.57187Q672.40564 340.275 672.40564 339.32187L672.40564 335.74374L671.64 335.74374L671.64 334.93124L672.40564 334.93124L672.40564 333.38437L673.4525 332.75937L673.4525 334.93124L674.515 334.93124L674.515 335.74374L673.4525 335.74374L673.4525 339.38437Q673.4525 339.8375 673.4994 339.9625Q673.5619 340.0875 673.6869 340.16562Q673.8119 340.24374 674.04626 340.24374Q674.23376 340.24374 674.515 340.2125ZM678.21814 341.15L678.21814 334.93124L679.15564 334.93124L679.15564 335.80624Q679.4525 335.3375 679.9369 335.07187Q680.42126 334.79062 681.04626 334.79062Q681.73376 334.79062 682.17126 335.07187Q682.6244 335.35312 682.79626 335.86874Q683.54626 334.79062 684.71814 334.79062Q685.65564 334.79062 686.14 335.30624Q686.64 335.80624 686.64 336.88437L686.64 341.15L685.59314 341.15L685.59314 337.22812Q685.59314 336.60312 685.48376 336.32187Q685.39 336.04062 685.1244 335.86874Q684.85876 335.69687 684.48376 335.69687Q683.8275 335.69687 683.39 336.13437Q682.96814 336.57187 682.96814 337.54062L682.96814 341.15L681.90564 341.15L681.90564 337.10312Q681.90564 336.4 681.64 336.05624Q681.39 335.69687 680.8119 335.69687Q680.35876 335.69687 679.98376 335.93124Q679.60876 336.16562 679.4369 336.61874Q679.265 337.07187 679.265 337.91562L679.265 341.15L678.21814 341.15ZM693.28064 340.38437Q692.6869 340.88437 692.14 341.0875Q691.60876 341.29062 690.98376 341.29062Q689.9525 341.29062 689.40564 340.79062Q688.85876 340.29062 688.85876 339.50937Q688.85876 339.05624 689.0619 338.68124Q689.265 338.29062 689.60876 338.07187Q689.9525 337.8375 690.3744 337.72812Q690.67126 337.63437 691.3119 337.55624Q692.5775 337.41562 693.1869 337.19687Q693.1869 336.97812 693.1869 336.93124Q693.1869 336.275 692.89 336.00937Q692.48376 335.66562 691.6869 335.66562Q690.9525 335.66562 690.59314 335.93124Q690.23376 336.18124 690.0619 336.8375L689.03064 336.69687Q689.17126 336.04062 689.4994 335.63437Q689.8275 335.22812 690.4369 335.00937Q691.04626 334.79062 691.84314 334.79062Q692.64 334.79062 693.14 334.97812Q693.64 335.16562 693.8744 335.44687Q694.10876 335.72812 694.2025 336.16562Q694.2494 336.43124 694.2494 337.13437L694.2494 338.54062Q694.2494 340.00937 694.3119 340.4Q694.39 340.79062 694.59314 341.15L693.48376 341.15Q693.3275 340.82187 693.28064 340.38437ZM693.1869 338.025Q692.60876 338.25937 691.46814 338.43124Q690.8119 338.525 690.54626 338.65Q690.28064 338.75937 690.1244 338.97812Q689.98376 339.19687 689.98376 339.47812Q689.98376 339.9 690.29626 340.18124Q690.6244 340.4625 691.23376 340.4625Q691.84314 340.4625 692.3119 340.19687Q692.79626 339.93124 693.015 339.4625Q693.1869 339.10312 693.1869 338.41562L693.1869 338.025ZM700.2494 341.15L700.2494 340.36874Q699.65564 341.29062 698.515 341.29062Q697.765 341.29062 697.14 340.88437Q696.515 340.4625 696.17126 339.72812Q695.8275 338.99374 695.8275 338.04062Q695.8275 337.11874 696.14 336.35312Q696.4525 335.5875 697.0775 335.19687Q697.7025 334.79062 698.46814 334.79062Q699.03064 334.79062 699.46814 335.025Q699.90564 335.25937 700.1869 335.63437L700.1869 332.55624L701.23376 332.55624L701.23376 341.15L700.2494 341.15ZM696.92126 338.04062Q696.92126 339.24374 697.42126 339.8375Q697.92126 340.41562 698.60876 340.41562Q699.29626 340.41562 699.78064 339.85312Q700.265 339.29062 700.265 338.13437Q700.265 336.85312 699.765 336.25937Q699.28064 335.66562 698.5619 335.66562Q697.85876 335.66562 697.39 336.24374Q696.92126 336.80624 696.92126 338.04062ZM707.46814 339.15L708.5619 339.275Q708.3119 340.22812 707.60876 340.75937Q706.90564 341.29062 705.8275 341.29062Q704.46814 341.29062 703.65564 340.44687Q702.85876 339.60312 702.85876 338.0875Q702.85876 336.525 703.67126 335.66562Q704.48376 334.79062 705.765 334.79062Q707.015 334.79062 707.79626 335.63437Q708.59314 336.47812 708.59314 338.025Q708.59314 338.11874 708.59314 338.30624L703.9525 338.30624Q704.015 339.3375 704.53064 339.88437Q705.04626 340.41562 705.8275 340.41562Q706.40564 340.41562 706.8119 340.11874Q707.23376 339.80624 707.46814 339.15ZM704.015 337.44687L707.48376 337.44687Q707.42126 336.65 707.09314 336.25937Q706.5775 335.65 705.78064 335.65Q705.04626 335.65 704.54626 336.13437Q704.0619 336.61874 704.015 337.44687Z" fill-rule="nonzero"/><path fill="#000000" d="M643.21814 355.15L643.21814 348.93124L644.15564 348.93124L644.15564 349.80624Q644.4525 349.3375 644.9369 349.07187Q645.42126 348.79062 646.04626 348.79062Q646.73376 348.79062 647.17126 349.07187Q647.6244 349.35312 647.79626 349.86874Q648.54626 348.79062 649.71814 348.79062Q650.65564 348.79062 651.14 349.30624Q651.64 349.80624 651.64 350.88437L651.64 355.15L650.59314 355.15L650.59314 351.22812Q650.59314 350.60312 650.48376 350.32187Q650.39 350.04062 650.1244 349.86874Q649.85876 349.69687 649.48376 349.69687Q648.8275 349.69687 648.39 350.13437Q647.96814 350.57187 647.96814 351.54062L647.96814 355.15L646.90564 355.15L646.90564 351.10312Q646.90564 350.4 646.64 350.05624Q646.39 349.69687 645.8119 349.69687Q645.35876 349.69687 644.98376 349.93124Q644.60876 350.16562 644.4369 350.61874Q644.265 351.07187 644.265 351.91562L644.265 355.15L643.21814 355.15ZM653.8275 352.04062Q653.8275 350.30624 654.78064 349.47812Q655.5775 348.79062 656.73376 348.79062Q658.015 348.79062 658.8275 349.63437Q659.65564 350.4625 659.65564 351.94687Q659.65564 353.15 659.29626 353.8375Q658.9369 354.525 658.23376 354.91562Q657.54626 355.29062 656.73376 355.29062Q655.4369 355.29062 654.6244 354.4625Q653.8275 353.61874 653.8275 352.04062ZM654.90564 352.04062Q654.90564 353.22812 655.42126 353.82187Q655.9525 354.41562 656.73376 354.41562Q657.53064 354.41562 658.04626 353.82187Q658.5619 353.22812 658.5619 352.00937Q658.5619 350.85312 658.03064 350.25937Q657.515 349.66562 656.73376 349.66562Q655.9525 349.66562 655.42126 350.25937Q654.90564 350.8375 654.90564 352.04062ZM661.21814 355.15L661.21814 348.93124L662.15564 348.93124L662.15564 349.80624Q662.84314 348.79062 664.14 348.79062Q664.7025 348.79062 665.17126 348.99374Q665.65564 349.19687 665.89 349.525Q666.1244 349.85312 666.21814 350.29062Q666.265 350.5875 666.265 351.32187L666.265 355.15L665.21814 355.15L665.21814 351.36874Q665.21814 350.7125 665.09314 350.4Q664.96814 350.0875 664.65564 349.9Q664.34314 349.69687 663.92126 349.69687Q663.2494 349.69687 662.7494 350.13437Q662.265 350.55624 662.265 351.74374L662.265 355.15L661.21814 355.15ZM672.46814 353.15L673.5619 353.275Q673.3119 354.22812 672.60876 354.75937Q671.90564 355.29062 670.8275 355.29062Q669.46814 355.29062 668.65564 354.44687Q667.85876 353.60312 667.85876 352.0875Q667.85876 350.525 668.67126 349.66562Q669.48376 348.79062 670.765 348.79062Q672.015 348.79062 672.79626 349.63437Q673.59314 350.47812 673.59314 352.025Q673.59314 352.11874 673.59314 352.30624L668.9525 352.30624Q669.015 353.3375 669.53064 353.88437Q670.04626 354.41562 670.8275 354.41562Q671.40564 354.41562 671.8119 354.11874Q672.23376 353.80624 672.46814 353.15ZM669.015 351.44687L672.48376 351.44687Q672.42126 350.65 672.09314 350.25937Q671.5775 349.65 670.78064 349.65Q670.04626 349.65 669.54626 350.13437Q669.0619 350.61874 669.015 351.44687ZM675.17126 357.54062L675.04626 356.55624Q675.39 356.65 675.65564 356.65Q675.9994 356.65 676.2025 356.525Q676.42126 356.41562 676.5619 356.2125Q676.65564 356.04062 676.89 355.41562Q676.90564 355.3375 676.98376 355.16562L674.60876 348.93124L675.7494 348.93124L677.04626 352.525Q677.29626 353.2125 677.4994 353.97812Q677.6869 353.24374 677.9369 352.55624L679.265 348.93124L680.3119 348.93124L677.9525 355.25937Q677.5619 356.275 677.35876 356.66562Q677.0775 357.19687 676.7025 357.43124Q676.34314 357.68124 675.84314 357.68124Q675.54626 357.68124 675.17126 357.54062ZM683.17126 357.54062L683.04626 356.55624Q683.39 356.65 683.65564 356.65Q683.9994 356.65 684.2025 356.525Q684.42126 356.41562 684.5619 356.2125Q684.65564 356.04062 684.89 355.41562Q684.90564 355.3375 684.98376 355.16562L682.60876 348.93124L683.7494 348.93124L685.04626 352.525Q685.29626 353.2125 685.4994 353.97812Q685.6869 353.24374 685.9369 352.55624L687.265 348.93124L688.3119 348.93124L685.9525 355.25937Q685.5619 356.275 685.35876 356.66562Q685.0775 357.19687 684.7025 357.43124Q684.34314 357.68124 683.84314 357.68124Q683.54626 357.68124 683.17126 357.54062ZM692.46814 353.15L693.5619 353.275Q693.3119 354.22812 692.60876 354.75937Q691.90564 355.29062 690.8275 355.29062Q689.46814 355.29062 688.65564 354.44687Q687.85876 353.60312 687.85876 352.0875Q687.85876 350.525 688.67126 349.66562Q689.48376 348.79062 690.765 348.79062Q692.015 348.79062 692.79626 349.63437Q693.59314 350.47812 693.59314 352.025Q693.59314 352.11874 693.59314 352.30624L688.9525 352.30624Q689.015 353.3375 689.53064 353.88437Q690.04626 354.41562 690.8275 354.41562Q691.40564 354.41562 691.8119 354.11874Q692.23376 353.80624 692.46814 353.15ZM689.015 351.44687L692.48376 351.44687Q692.42126 350.65 692.09314 350.25937Q691.5775 349.65 690.78064 349.65Q690.04626 349.65 689.54626 350.13437Q689.0619 350.61874 689.015 351.44687ZM697.515 354.2125L697.67126 355.13437Q697.21814 355.22812 696.8744 355.22812Q696.29626 355.22812 695.98376 355.05624Q695.67126 354.86874 695.53064 354.57187Q695.40564 354.275 695.40564 353.32187L695.40564 349.74374L694.64 349.74374L694.64 348.93124L695.40564 348.93124L695.40564 347.38437L696.4525 346.75937L696.4525 348.93124L697.515 348.93124L697.515 349.74374L696.4525 349.74374L696.4525 353.38437Q696.4525 353.8375 696.4994 353.9625Q696.5619 354.0875 696.6869 354.16562Q696.8119 354.24374 697.04626 354.24374Q697.23376 354.24374 697.515 354.2125Z" fill-rule="nonzero"/></svg>