<svg version="1.1" viewBox="0.0 0.0 723.0 447.0" fill="none" stroke="none" stroke-linecap="square" stroke-miterlimit="10" width="723" height="447" xmlns:xlink="http://www.w3.org/1999/xlink" xmlns="http://www.w3.org/2000/svg"><path fill="#ffffff" d="M0 0L723.0 0L723.0 447.0L0 447.0L0 0Z" fill-rule="nonzero"/><path stroke="#333333" stroke-width="1.0" stroke-linecap="butt" d="M49.5 404.5L700.5 404.5" fill-rule="nonzero"/><path stroke="#cccccc" stroke-width="1.0" stroke-linecap="butt" d="M49.5 310.5L700.5 310.5" fill-rule="nonzero"/><path stroke="#cccccc" stroke-width="1.0" stroke-linecap="butt" d="M49.5 217.5L700.5 217.5" fill-rule="nonzero"/><path stroke="#cccccc" stroke-width="1.0" stroke-linecap="butt" d="M49.5 123.5L700.5 123.5" fill-rule="nonzero"/><path stroke="#cccccc" stroke-width="1.0" stroke-linecap="butt" d="M49.5 29.5L700.5 29.5" fill-rule="nonzero"/><clipPath id="id_0"><path d="M49.35 29.35L700.65 29.35L700.65 404.65L49.35 404.65L49.35 29.35Z" clip-rule="nonzero"/></clipPath><path stroke="#000000" stroke-width="2.0" stroke-linecap="butt" stroke-opacity="0.0" clip-path="url(#id_0)" d="M128.0 405.0L77.0 405.0L77.0 405.0L128.0 405.0Z" fill-rule="nonzero"/><path fill="#4285f4" clip-path="url(#id_0)" d="M128.0 405.0L77.0 405.0L77.0 405.0L128.0 405.0Z" fill-rule="nonzero"/><path stroke="#000000" stroke-width="2.0" stroke-linecap="butt" stroke-opacity="0.0" clip-path="url(#id_0)" d="M206.0 405.0L155.0 405.0L155.0 397.0C155.0 395.89542 155.89543 395.0 157.0 395.0L204.0 395.0C205.10457 395.0 206.0 395.89542 206.0 397.0Z" fill-rule="nonzero"/><path fill="#4285f4" clip-path="url(#id_0)" d="M206.0 405.0L155.0 405.0L155.0 397.0C155.0 395.89542 155.89543 395.0 157.0 395.0L204.0 395.0C205.10457 395.0 206.0 395.89542 206.0 397.0Z" fill-rule="nonzero"/><path stroke="#000000" stroke-width="2.0" stroke-linecap="butt" stroke-opacity="0.0" clip-path="url(#id_0)" d="M284.0 405.0L233.0 405.0L233.0 369.0C233.0 367.89542 233.89543 367.0 235.0 367.0L282.0 367.0C283.10458 367.0 284.0 367.89542 284.0 369.0Z" fill-rule="nonzero"/><path fill="#4285f4" clip-path="url(#id_0)" d="M284.0 405.0L233.0 405.0L233.0 369.0C233.0 367.89542 233.89543 367.0 235.0 367.0L282.0 367.0C283.10458 367.0 284.0 367.89542 284.0 369.0Z" fill-rule="nonzero"/><path stroke="#000000" stroke-width="2.0" stroke-linecap="butt" stroke-opacity="0.0" clip-path="url(#id_0)" d="M362.0 405.0L311.0 405.0L311.0 332.0C311.0 330.89542 311.89542 330.0 313.0 330.0L360.0 330.0C361.10458 330.0 362.0 330.89542 362.0 332.0Z" fill-rule="nonzero"/><path fill="#4285f4" clip-path="url(#id_0)" d="M362.0 405.0L311.0 405.0L311.0 332.0C311.0 330.89542 311.89542 330.0 313.0 330.0L360.0 330.0C361.10458 330.0 362.0 330.89542 362.0 332.0Z" fill-rule="nonzero"/><path stroke="#000000" stroke-width="2.0" stroke-linecap="butt" stroke-opacity="0.0" clip-path="url(#id_0)" d="M440.0 405.0L389.0 405.0L389.0 322.0C389.0 320.89542 389.89542 320.0 391.0 320.0L438.0 320.0C439.10458 320.0 440.0 320.89542 440.0 322.0Z" fill-rule="nonzero"/><path fill="#4285f4" clip-path="url(#id_0)" d="M440.0 405.0L389.0 405.0L389.0 322.0C389.0 320.89542 389.89542 320.0 391.0 320.0L438.0 320.0C439.10458 320.0 440.0 320.89542 440.0 322.0Z" fill-rule="nonzero"/><path stroke="#000000" stroke-width="2.0" stroke-linecap="butt" stroke-opacity="0.0" clip-path="url(#id_0)" d="M518.0 405.0L467.0 405.0L467.0 102.0C467.0 100.89543 467.89542 100.0 469.0 100.0L516.0 100.0C517.10455 100.0 518.0 100.89543 518.0 102.0Z" fill-rule="nonzero"/><path fill="#4285f4" clip-path="url(#id_0)" d="M518.0 405.0L467.0 405.0L467.0 102.0C467.0 100.89543 467.89542 100.0 469.0 100.0L516.0 100.0C517.10455 100.0 518.0 100.89543 518.0 102.0Z" fill-rule="nonzero"/><path stroke="#000000" stroke-width="2.0" stroke-linecap="butt" stroke-opacity="0.0" clip-path="url(#id_0)" d="M596.0 405.0L545.0 405.0L545.0 346.0C545.0 344.89542 545.89545 344.0 547.0 344.0L594.0 344.0C595.10455 344.0 596.0 344.89542 596.0 346.0Z" fill-rule="nonzero"/><path fill="#4285f4" clip-path="url(#id_0)" d="M596.0 405.0L545.0 405.0L545.0 346.0C545.0 344.89542 545.89545 344.0 547.0 344.0L594.0 344.0C595.10455 344.0 596.0 344.89542 596.0 346.0Z" fill-rule="nonzero"/><path stroke="#000000" stroke-width="2.0" stroke-linecap="butt" stroke-opacity="0.0" clip-path="url(#id_0)" d="M674.0 405.0L623.0 405.0L623.0 405.0L674.0 405.0Z" fill-rule="nonzero"/><path fill="#4285f4" clip-path="url(#id_0)" d="M674.0 405.0L623.0 405.0L623.0 405.0L674.0 405.0Z" fill-rule="nonzero"/><path stroke="#ffffff" stroke-width="3.0" stroke-linejoin="round" stroke-linecap="round" d="M104.5625 386.00937Q104.5625 387.91562 103.90625 388.85312Q103.265625 389.775 101.875 389.775Q100.515625 389.775 99.859375 388.86874Q99.203125 387.9625 99.171875 386.15L99.171875 384.7125Q99.171875 382.82187 99.8125 381.91562Q100.46875 380.99374 101.859375 380.99374Q103.234375 380.99374 103.890625 381.88437Q104.546875 382.75937 104.5625 384.60312L104.5625 386.00937ZM103.46875 384.525Q103.46875 383.15 103.078125 382.525Q102.703125 381.88437 101.859375 381.88437Q101.03125 381.88437 100.640625 382.525Q100.265625 383.15 100.265625 384.44687L100.265625 386.18124Q100.265625 387.55624 100.65625 388.22812Q101.0625 388.88437 101.875 388.88437Q102.671875 388.88437 103.0625 388.25937Q103.453125 387.63437 103.46875 386.30624L103.46875 384.525Z" fill-rule="nonzero"/><path fill="#4285f4" d="M104.5625 386.00937Q104.5625 387.91562 103.90625 388.85312Q103.265625 389.775 101.875 389.775Q100.515625 389.775 99.859375 388.86874Q99.203125 387.9625 99.171875 386.15L99.171875 384.7125Q99.171875 382.82187 99.8125 381.91562Q100.46875 380.99374 101.859375 380.99374Q103.234375 380.99374 103.890625 381.88437Q104.546875 382.75937 104.5625 384.60312L104.5625 386.00937ZM103.46875 384.525Q103.46875 383.15 103.078125 382.525Q102.703125 381.88437 101.859375 381.88437Q101.03125 381.88437 100.640625 382.525Q100.265625 383.15 100.265625 384.44687L100.265625 386.18124Q100.265625 387.55624 100.65625 388.22812Q101.0625 388.88437 101.875 388.88437Q102.671875 388.88437 103.0625 388.25937Q103.453125 387.63437 103.46875 386.30624L103.46875 384.525Z" fill-rule="nonzero"/><path stroke="#ffffff" stroke-width="3.0" stroke-linejoin="round" stroke-linecap="round" d="M182.79688 380.2675L177.20312 380.2675L177.20312 379.48624L180.15625 376.205Q180.8125 375.455 181.0625 375.00186Q181.3125 374.5331 181.3125 374.0331Q181.3125 373.36124 180.90625 372.93936Q180.51562 372.50186 179.82812 372.50186Q179.03125 372.50186 178.57812 372.9706Q178.125 373.42374 178.125 374.25186L177.04688 374.25186Q177.04688 373.06436 177.79688 372.3456Q178.5625 371.61124 179.82812 371.61124Q181.03125 371.61124 181.71875 372.23624Q182.40625 372.86124 182.40625 373.9081Q182.40625 375.1581 180.79688 376.9081L178.51562 379.37686L182.79688 379.37686L182.79688 380.2675Z" fill-rule="nonzero"/><path fill="#4285f4" d="M182.79688 380.2675L177.20312 380.2675L177.20312 379.48624L180.15625 376.205Q180.8125 375.455 181.0625 375.00186Q181.3125 374.5331 181.3125 374.0331Q181.3125 373.36124 180.90625 372.93936Q180.51562 372.50186 179.82812 372.50186Q179.03125 372.50186 178.57812 372.9706Q178.125 373.42374 178.125 374.25186L177.04688 374.25186Q177.04688 373.06436 177.79688 372.3456Q178.5625 371.61124 179.82812 371.61124Q181.03125 371.61124 181.71875 372.23624Q182.40625 372.86124 182.40625 373.9081Q182.40625 375.1581 180.79688 376.9081L178.51562 379.37686L182.79688 379.37686L182.79688 380.2675Z" fill-rule="nonzero"/><path stroke="#4285f4" stroke-width="3.0" stroke-linejoin="round" stroke-linecap="round" d="M260.39062 377.6075Q260.39062 378.24814 260.04688 378.74814Q259.70312 379.24814 259.14062 379.5294Q259.79688 379.81064 260.1875 380.37314Q260.57812 380.92 260.57812 381.62314Q260.57812 382.7169 259.82812 383.38876Q259.09375 384.045 257.875 384.045Q256.64062 384.045 255.89062 383.38876Q255.15625 382.7169 255.15625 381.62314Q255.15625 380.92 255.53125 380.37314Q255.90625 379.81064 256.57812 379.5294Q256.01562 379.24814 255.6875 378.74814Q255.35938 378.24814 255.35938 377.6075Q255.35938 376.5294 256.04688 375.9044Q256.73438 375.26376 257.875 375.26376Q259.0 375.26376 259.6875 375.9044Q260.39062 376.5294 260.39062 377.6075ZM259.5 381.5919Q259.5 380.87314 259.04688 380.43564Q258.59375 379.9825 257.85938 379.9825Q257.125 379.9825 256.67188 380.43564Q256.23438 380.87314 256.23438 381.6075Q256.23438 382.32626 256.67188 382.74814Q257.10938 383.1544 257.875 383.1544Q258.625 383.1544 259.0625 382.7325Q259.5 382.31064 259.5 381.5919ZM257.875 376.1544Q257.23438 376.1544 256.82812 376.56064Q256.4375 376.95126 256.4375 377.63876Q256.4375 378.2794 256.82812 378.68564Q257.21875 379.0919 257.85938 379.0919Q258.51562 379.0919 258.90625 378.68564Q259.29688 378.2794 259.29688 377.63876Q259.29688 376.9825 258.89062 376.57626Q258.48438 376.1544 257.875 376.1544Z" fill-rule="nonzero"/><path fill="#ffffff" d="M260.39062 377.6075Q260.39062 378.24814 260.04688 378.74814Q259.70312 379.24814 259.14062 379.5294Q259.79688 379.81064 260.1875 380.37314Q260.57812 380.92 260.57812 381.62314Q260.57812 382.7169 259.82812 383.38876Q259.09375 384.045 257.875 384.045Q256.64062 384.045 255.89062 383.38876Q255.15625 382.7169 255.15625 381.62314Q255.15625 380.92 255.53125 380.37314Q255.90625 379.81064 256.57812 379.5294Q256.01562 379.24814 255.6875 378.74814Q255.35938 378.24814 255.35938 377.6075Q255.35938 376.5294 256.04688 375.9044Q256.73438 375.26376 257.875 375.26376Q259.0 375.26376 259.6875 375.9044Q260.39062 376.5294 260.39062 377.6075ZM259.5 381.5919Q259.5 380.87314 259.04688 380.43564Q258.59375 379.9825 257.85938 379.9825Q257.125 379.9825 256.67188 380.43564Q256.23438 380.87314 256.23438 381.6075Q256.23438 382.32626 256.67188 382.74814Q257.10938 383.1544 257.875 383.1544Q258.625 383.1544 259.0625 382.7325Q259.5 382.31064 259.5 381.5919ZM257.875 376.1544Q257.23438 376.1544 256.82812 376.56064Q256.4375 376.95126 256.4375 377.63876Q256.4375 378.2794 256.82812 378.68564Q257.21875 379.0919 257.85938 379.0919Q258.51562 379.0919 258.90625 378.68564Q259.29688 378.2794 259.29688 377.63876Q259.29688 376.9825 258.89062 376.57626Q258.48438 376.1544 257.875 376.1544Z" fill-rule="nonzero"/><path stroke="#4285f4" stroke-width="3.0" stroke-linejoin="round" stroke-linecap="round" d="M333.26562 346.39L332.1875 346.39L332.1875 339.17126L330.0 339.96814L330.0 338.98376L333.10938 337.8119L333.26562 337.8119L333.26562 346.39ZM340.96875 337.85876L340.96875 338.765L340.76562 338.765Q339.5 338.79626 338.75 339.53064Q338.0 340.2494 337.875 341.5619Q338.5625 340.79626 339.71875 340.79626Q340.82812 340.79626 341.5 341.5775Q342.17188 342.35876 342.17188 343.60876Q342.17188 344.92126 341.45312 345.71814Q340.73438 346.515 339.51562 346.515Q338.29688 346.515 337.53125 345.5775Q336.78125 344.6244 336.78125 343.14L336.78125 342.73376Q336.78125 340.3744 337.78125 339.1244Q338.78125 337.8744 340.76562 337.85876L340.96875 337.85876ZM339.54688 341.7025Q338.98438 341.7025 338.51562 342.03064Q338.04688 342.35876 337.85938 342.8744L337.85938 343.265Q337.85938 344.3275 338.32812 344.96814Q338.8125 345.60876 339.51562 345.60876Q340.25 345.60876 340.67188 345.0775Q341.09375 344.53064 341.09375 343.65564Q341.09375 342.78064 340.67188 342.2494Q340.25 341.7025 339.54688 341.7025Z" fill-rule="nonzero"/><path fill="#ffffff" d="M333.26562 346.39L332.1875 346.39L332.1875 339.17126L330.0 339.96814L330.0 338.98376L333.10938 337.8119L333.26562 337.8119L333.26562 346.39ZM340.96875 337.85876L340.96875 338.765L340.76562 338.765Q339.5 338.79626 338.75 339.53064Q338.0 340.2494 337.875 341.5619Q338.5625 340.79626 339.71875 340.79626Q340.82812 340.79626 341.5 341.5775Q342.17188 342.35876 342.17188 343.60876Q342.17188 344.92126 341.45312 345.71814Q340.73438 346.515 339.51562 346.515Q338.29688 346.515 337.53125 345.5775Q336.78125 344.6244 336.78125 343.14L336.78125 342.73376Q336.78125 340.3744 337.78125 339.1244Q338.78125 337.8744 340.76562 337.85876L340.96875 337.85876ZM339.54688 341.7025Q338.98438 341.7025 338.51562 342.03064Q338.04688 342.35876 337.85938 342.8744L337.85938 343.265Q337.85938 344.3275 338.32812 344.96814Q338.8125 345.60876 339.51562 345.60876Q340.25 345.60876 340.67188 345.0775Q341.09375 344.53064 341.09375 343.65564Q341.09375 342.78064 340.67188 342.2494Q340.25 341.7025 339.54688 341.7025Z" fill-rule="nonzero"/><path stroke="#4285f4" stroke-width="3.0" stroke-linejoin="round" stroke-linecap="round" d="M411.26562 337.0075L410.1875 337.0075L410.1875 329.78876L408.0 330.58563L408.0 329.60126L411.10938 328.42938L411.26562 328.42938L411.26562 337.0075ZM419.89062 330.695Q419.89062 331.33563 419.54688 331.83563Q419.20312 332.33563 418.64062 332.61688Q419.29688 332.89813 419.6875 333.46063Q420.07812 334.0075 420.07812 334.71063Q420.07812 335.80438 419.32812 336.47626Q418.59375 337.1325 417.375 337.1325Q416.14062 337.1325 415.39062 336.47626Q414.65625 335.80438 414.65625 334.71063Q414.65625 334.0075 415.03125 333.46063Q415.40625 332.89813 416.07812 332.61688Q415.51562 332.33563 415.1875 331.83563Q414.85938 331.33563 414.85938 330.695Q414.85938 329.61688 415.54688 328.99188Q416.23438 328.35126 417.375 328.35126Q418.5 328.35126 419.1875 328.99188Q419.89062 329.61688 419.89062 330.695ZM419.0 334.67938Q419.0 333.96063 418.54688 333.52313Q418.09375 333.07 417.35938 333.07Q416.625 333.07 416.17188 333.52313Q415.73438 333.96063 415.73438 334.695Q415.73438 335.41376 416.17188 335.83563Q416.60938 336.24188 417.375 336.24188Q418.125 336.24188 418.5625 335.82Q419.0 335.39813 419.0 334.67938ZM417.375 329.24188Q416.73438 329.24188 416.32812 329.64813Q415.9375 330.03876 415.9375 330.72626Q415.9375 331.36688 416.32812 331.77313Q416.71875 332.17938 417.35938 332.17938Q418.01562 332.17938 418.40625 331.77313Q418.79688 331.36688 418.79688 330.72626Q418.79688 330.07 418.39062 329.66376Q417.98438 329.24188 417.375 329.24188Z" fill-rule="nonzero"/><path fill="#ffffff" d="M411.26562 337.0075L410.1875 337.0075L410.1875 329.78876L408.0 330.58563L408.0 329.60126L411.10938 328.42938L411.26562 328.42938L411.26562 337.0075ZM419.89062 330.695Q419.89062 331.33563 419.54688 331.83563Q419.20312 332.33563 418.64062 332.61688Q419.29688 332.89813 419.6875 333.46063Q420.07812 334.0075 420.07812 334.71063Q420.07812 335.80438 419.32812 336.47626Q418.59375 337.1325 417.375 337.1325Q416.14062 337.1325 415.39062 336.47626Q414.65625 335.80438 414.65625 334.71063Q414.65625 334.0075 415.03125 333.46063Q415.40625 332.89813 416.07812 332.61688Q415.51562 332.33563 415.1875 331.83563Q414.85938 331.33563 414.85938 330.695Q414.85938 329.61688 415.54688 328.99188Q416.23438 328.35126 417.375 328.35126Q418.5 328.35126 419.1875 328.99188Q419.89062 329.61688 419.89062 330.695ZM419.0 334.67938Q419.0 333.96063 418.54688 333.52313Q418.09375 333.07 417.35938 333.07Q416.625 333.07 416.17188 333.52313Q415.73438 333.96063 415.73438 334.695Q415.73438 335.41376 416.17188 335.83563Q416.60938 336.24188 417.375 336.24188Q418.125 336.24188 418.5625 335.82Q419.0 335.39813 419.0 334.67938ZM417.375 329.24188Q416.73438 329.24188 416.32812 329.64813Q415.9375 330.03876 415.9375 330.72626Q415.9375 331.36688 416.32812 331.77313Q416.71875 332.17938 417.35938 332.17938Q418.01562 332.17938 418.40625 331.77313Q418.79688 331.36688 418.79688 330.72626Q418.79688 330.07 418.39062 329.66376Q417.98438 329.24188 417.375 329.24188Z" fill-rule="nonzero"/><path stroke="#4285f4" stroke-width="3.0" stroke-linejoin="round" stroke-linecap="round" d="M489.96875 107.9875L489.96875 108.89375L489.76562 108.89375Q488.5 108.925 487.75 109.65938Q487.0 110.37813 486.875 111.69063Q487.5625 110.925 488.71875 110.925Q489.82812 110.925 490.5 111.70625Q491.17188 112.4875 491.17188 113.7375Q491.17188 115.05 490.45312 115.84688Q489.73438 116.64375 488.51562 116.64375Q487.29688 116.64375 486.53125 115.70625Q485.78125 114.75313 485.78125 113.26875L485.78125 112.8625Q485.78125 110.50313 486.78125 109.25313Q487.78125 108.00313 489.76562 107.9875L489.96875 107.9875ZM488.54688 111.83125Q487.98438 111.83125 487.51562 112.15938Q487.04688 112.4875 486.85938 113.00313L486.85938 113.39375Q486.85938 114.45625 487.32812 115.09688Q487.8125 115.7375 488.51562 115.7375Q489.25 115.7375 489.67188 115.20625Q490.09375 114.65938 490.09375 113.78438Q490.09375 112.90938 489.67188 112.37813Q489.25 111.83125 488.54688 111.83125ZM493.20312 112.2375L493.64062 107.9875L498.01562 107.9875L498.01562 108.9875L494.5625 108.9875L494.29688 111.31563Q494.9375 110.94063 495.73438 110.94063Q496.89062 110.94063 497.57812 111.72188Q498.26562 112.4875 498.26562 113.8Q498.26562 115.1125 497.54688 115.87813Q496.84375 116.64375 495.5625 116.64375Q494.4375 116.64375 493.71875 116.01875Q493.0 115.37813 492.90625 114.26875L493.92188 114.26875Q494.03125 115.00313 494.45312 115.37813Q494.875 115.75313 495.5625 115.75313Q496.3125 115.75313 496.75 115.2375Q497.1875 114.72188 497.1875 113.81563Q497.1875 112.95625 496.71875 112.44063Q496.25 111.925 495.46875 111.925Q494.76562 111.925 494.35938 112.22188L494.07812 112.45625L493.20312 112.2375Z" fill-rule="nonzero"/><path fill="#ffffff" d="M489.96875 107.9875L489.96875 108.89375L489.76562 108.89375Q488.5 108.925 487.75 109.65938Q487.0 110.37813 486.875 111.69063Q487.5625 110.925 488.71875 110.925Q489.82812 110.925 490.5 111.70625Q491.17188 112.4875 491.17188 113.7375Q491.17188 115.05 490.45312 115.84688Q489.73438 116.64375 488.51562 116.64375Q487.29688 116.64375 486.53125 115.70625Q485.78125 114.75313 485.78125 113.26875L485.78125 112.8625Q485.78125 110.50313 486.78125 109.25313Q487.78125 108.00313 489.76562 107.9875L489.96875 107.9875ZM488.54688 111.83125Q487.98438 111.83125 487.51562 112.15938Q487.04688 112.4875 486.85938 113.00313L486.85938 113.39375Q486.85938 114.45625 487.32812 115.09688Q487.8125 115.7375 488.51562 115.7375Q489.25 115.7375 489.67188 115.20625Q490.09375 114.65938 490.09375 113.78438Q490.09375 112.90938 489.67188 112.37813Q489.25 111.83125 488.54688 111.83125ZM493.20312 112.2375L493.64062 107.9875L498.01562 107.9875L498.01562 108.9875L494.5625 108.9875L494.29688 111.31563Q494.9375 110.94063 495.73438 110.94063Q496.89062 110.94063 497.57812 111.72188Q498.26562 112.4875 498.26562 113.8Q498.26562 115.1125 497.54688 115.87813Q496.84375 116.64375 495.5625 116.64375Q494.4375 116.64375 493.71875 116.01875Q493.0 115.37813 492.90625 114.26875L493.92188 114.26875Q494.03125 115.00313 494.45312 115.37813Q494.875 115.75313 495.5625 115.75313Q496.3125 115.75313 496.75 115.2375Q497.1875 114.72188 497.1875 113.81563Q497.1875 112.95625 496.71875 112.44063Q496.25 111.925 495.46875 111.925Q494.76562 111.925 494.35938 112.22188L494.07812 112.45625L493.20312 112.2375Z" fill-rule="nonzero"/><path stroke="#4285f4" stroke-width="3.0" stroke-linejoin="round" stroke-linecap="round" d="M567.2656 360.46375L566.1875 360.46375L566.1875 353.245L564.0 354.04187L564.0 353.0575L567.1094 351.88562L567.2656 351.88562L567.2656 360.46375ZM572.28125 355.66687L573.09375 355.66687Q573.875 355.65125 574.3125 355.26062Q574.75 354.87 574.75 354.19812Q574.75 352.69812 573.25 352.69812Q572.5469 352.69812 572.125 353.10437Q571.71875 353.51062 571.71875 354.16687L570.625 354.16687Q570.625 353.15125 571.3594 352.47937Q572.1094 351.8075 573.25 351.8075Q574.4531 351.8075 575.1406 352.44812Q575.8281 353.08875 575.8281 354.22937Q575.8281 354.79187 575.46875 355.3075Q575.1094 355.82312 574.4844 356.08875Q575.1875 356.3075 575.5625 356.82312Q575.9531 357.33875 575.9531 358.08875Q575.9531 359.22937 575.2031 359.91687Q574.4531 360.58875 573.25 360.58875Q572.0625 360.58875 571.2969 359.9325Q570.5469 359.27625 570.5469 358.21375L571.6406 358.21375Q571.6406 358.88562 572.0781 359.29187Q572.5156 359.69812 573.2656 359.69812Q574.0469 359.69812 574.4531 359.29187Q574.875 358.87 574.875 358.10437Q574.875 357.37 574.4219 356.97937Q573.96875 356.57312 573.09375 356.5575L572.28125 356.5575L572.28125 355.66687Z" fill-rule="nonzero"/><path fill="#ffffff" d="M567.2656 360.46375L566.1875 360.46375L566.1875 353.245L564.0 354.04187L564.0 353.0575L567.1094 351.88562L567.2656 351.88562L567.2656 360.46375ZM572.28125 355.66687L573.09375 355.66687Q573.875 355.65125 574.3125 355.26062Q574.75 354.87 574.75 354.19812Q574.75 352.69812 573.25 352.69812Q572.5469 352.69812 572.125 353.10437Q571.71875 353.51062 571.71875 354.16687L570.625 354.16687Q570.625 353.15125 571.3594 352.47937Q572.1094 351.8075 573.25 351.8075Q574.4531 351.8075 575.1406 352.44812Q575.8281 353.08875 575.8281 354.22937Q575.8281 354.79187 575.46875 355.3075Q575.1094 355.82312 574.4844 356.08875Q575.1875 356.3075 575.5625 356.82312Q575.9531 357.33875 575.9531 358.08875Q575.9531 359.22937 575.2031 359.91687Q574.4531 360.58875 573.25 360.58875Q572.0625 360.58875 571.2969 359.9325Q570.5469 359.27625 570.5469 358.21375L571.6406 358.21375Q571.6406 358.88562 572.0781 359.29187Q572.5156 359.69812 573.2656 359.69812Q574.0469 359.69812 574.4531 359.29187Q574.875 358.87 574.875 358.10437Q574.875 357.37 574.4219 356.97937Q573.96875 356.57312 573.09375 356.5575L572.28125 356.5575L572.28125 355.66687Z" fill-rule="nonzero"/><path stroke="#ffffff" stroke-width="3.0" stroke-linejoin="round" stroke-linecap="round" d="M650.5625 386.00937Q650.5625 387.91562 649.90625 388.85312Q649.2656 389.775 647.875 389.775Q646.5156 389.775 645.8594 388.86874Q645.2031 387.9625 645.1719 386.15L645.1719 384.7125Q645.1719 382.82187 645.8125 381.91562Q646.46875 380.99374 647.8594 380.99374Q649.2344 380.99374 649.8906 381.88437Q650.5469 382.75937 650.5625 384.60312L650.5625 386.00937ZM649.46875 384.525Q649.46875 383.15 649.0781 382.525Q648.7031 381.88437 647.8594 381.88437Q647.03125 381.88437 646.6406 382.525Q646.2656 383.15 646.2656 384.44687L646.2656 386.18124Q646.2656 387.55624 646.65625 388.22812Q647.0625 388.88437 647.875 388.88437Q648.6719 388.88437 649.0625 388.25937Q649.4531 387.63437 649.46875 386.30624L649.46875 384.525Z" fill-rule="nonzero"/><path fill="#4285f4" d="M650.5625 386.00937Q650.5625 387.91562 649.90625 388.85312Q649.2656 389.775 647.875 389.775Q646.5156 389.775 645.8594 388.86874Q645.2031 387.9625 645.1719 386.15L645.1719 384.7125Q645.1719 382.82187 645.8125 381.91562Q646.46875 380.99374 647.8594 380.99374Q649.2344 380.99374 649.8906 381.88437Q650.5469 382.75937 650.5625 384.60312L650.5625 386.00937ZM649.46875 384.525Q649.46875 383.15 649.0781 382.525Q648.7031 381.88437 647.8594 381.88437Q647.03125 381.88437 646.6406 382.525Q646.2656 383.15 646.2656 384.44687L646.2656 386.18124Q646.2656 387.55624 646.65625 388.22812Q647.0625 388.88437 647.875 388.88437Q648.6719 388.88437 649.0625 388.25937Q649.4531 387.63437 649.46875 386.30624L649.46875 384.525Z" fill-rule="nonzero"/><path fill="#000000" d="M36.85 404.41562Q36.85 402.88437 37.1625 401.9625Q37.475 401.025 38.084373 400.525Q38.709373 400.025 39.646873 400.025Q40.334373 400.025 40.85 400.30624Q41.38125 400.5875 41.725 401.11874Q42.06875 401.63437 42.25625 402.38437Q42.44375 403.13437 42.44375 404.41562Q42.44375 405.93124 42.13125 406.85312Q41.834373 407.775 41.209373 408.29062Q40.6 408.79062 39.646873 408.79062Q38.4125 408.79062 37.69375 407.9Q36.85 406.8375 36.85 404.41562ZM37.928123 404.41562Q37.928123 406.525 38.428123 407.22812Q38.928123 407.93124 39.646873 407.93124Q40.38125 407.93124 40.865623 407.22812Q41.365623 406.525 41.365623 404.41562Q41.365623 402.29062 40.865623 401.60312Q40.38125 400.9 39.63125 400.9Q38.9125 400.9 38.475 401.50937Q37.928123 402.29062 37.928123 404.41562Z" fill-rule="nonzero"/><path fill="#000000" d="M35.396873 313.8094L35.396873 314.825L29.709375 314.825Q29.709375 314.45 29.834375 314.09064Q30.053125 313.5125 30.521875 312.95Q31.00625 312.3875 31.9125 311.65314Q33.31875 310.4969 33.803123 309.825Q34.303123 309.15314 34.303123 308.5594Q34.303123 307.9344 33.85 307.5125Q33.396873 307.075 32.678123 307.075Q31.9125 307.075 31.459375 307.52814Q31.00625 307.98126 30.990625 308.79376L29.9125 308.6844Q30.021875 307.46564 30.740625 306.84064Q31.475 306.2 32.709373 306.2Q33.94375 306.2 34.6625 306.8875Q35.38125 307.575 35.38125 308.59064Q35.38125 309.10626 35.1625 309.60626Q34.959373 310.09064 34.459373 310.65314Q33.975 311.2 32.85 312.15314Q31.896875 312.95 31.615625 313.2469Q31.35 313.52814 31.178125 313.8094L35.396873 313.8094ZM36.85 310.59064Q36.85 309.0594 37.1625 308.1375Q37.475 307.2 38.084373 306.7Q38.709373 306.2 39.646873 306.2Q40.334373 306.2 40.85 306.48126Q41.38125 306.7625 41.725 307.29376Q42.06875 307.8094 42.25625 308.5594Q42.44375 309.3094 42.44375 310.59064Q42.44375 312.10626 42.13125 313.02814Q41.834373 313.95 41.209373 314.46564Q40.6 314.96564 39.646873 314.96564Q38.4125 314.96564 37.69375 314.075Q36.85 313.0125 36.85 310.59064ZM37.928123 310.59064Q37.928123 312.7 38.428123 313.40314Q38.928123 314.10626 39.646873 314.10626Q40.38125 314.10626 40.865623 313.40314Q41.365623 312.7 41.365623 310.59064Q41.365623 308.46564 40.865623 307.77814Q40.38125 307.075 39.63125 307.075Q38.9125 307.075 38.475 307.6844Q37.928123 308.46564 37.928123 310.59064Z" fill-rule="nonzero"/><path fill="#000000" d="M33.225 221.0L33.225 218.9375L29.50625 218.9375L29.50625 217.96875L33.428123 212.40625L34.2875 212.40625L34.2875 217.96875L35.44375 217.96875L35.44375 218.9375L34.2875 218.9375L34.2875 221.0L33.225 221.0ZM33.225 217.96875L33.225 214.10938L30.5375 217.96875L33.225 217.96875ZM36.85 216.76562Q36.85 215.23438 37.1625 214.3125Q37.475 213.375 38.084373 212.875Q38.709373 212.375 39.646873 212.375Q40.334373 212.375 40.85 212.65625Q41.38125 212.9375 41.725 213.46875Q42.06875 213.98438 42.25625 214.73438Q42.44375 215.48438 42.44375 216.76562Q42.44375 218.28125 42.13125 219.20312Q41.834373 220.125 41.209373 220.64062Q40.6 221.14062 39.646873 221.14062Q38.4125 221.14062 37.69375 220.25Q36.85 219.1875 36.85 216.76562ZM37.928123 216.76562Q37.928123 218.875 38.428123 219.57812Q38.928123 220.28125 39.646873 220.28125Q40.38125 220.28125 40.865623 219.57812Q41.365623 218.875 41.365623 216.76562Q41.365623 214.64062 40.865623 213.95312Q40.38125 213.25 39.63125 213.25Q38.9125 213.25 38.475 213.85938Q37.928123 214.64062 37.928123 216.76562Z" fill-rule="nonzero"/><path fill="#000000" d="M35.31875 120.69063L34.271873 120.76875Q34.13125 120.14375 33.88125 119.8625Q33.44375 119.40938 32.81875 119.40938Q32.31875 119.40938 31.928125 119.69063Q31.44375 120.06563 31.146875 120.76875Q30.865625 121.45625 30.85 122.7375Q31.225 122.15938 31.771875 121.87813Q32.334373 121.59688 32.94375 121.59688Q33.990623 121.59688 34.725 122.37813Q35.475 123.15938 35.475 124.37813Q35.475 125.19063 35.115623 125.89375Q34.771873 126.58125 34.1625 126.95625Q33.553123 127.31563 32.7875 127.31563Q31.459375 127.31563 30.63125 126.34688Q29.803125 125.37813 29.803125 123.15938Q29.803125 120.65938 30.725 119.53438Q31.521875 118.55 32.88125 118.55Q33.896873 118.55 34.5375 119.12813Q35.19375 119.69063 35.31875 120.69063ZM31.021875 124.39375Q31.021875 124.94063 31.240625 125.44063Q31.475 125.925 31.88125 126.19063Q32.303123 126.45625 32.771873 126.45625Q33.428123 126.45625 33.9125 125.925Q34.396873 125.37813 34.396873 124.45625Q34.396873 123.56563 33.9125 123.05Q33.44375 122.53438 32.725 122.53438Q32.00625 122.53438 31.50625 123.05Q31.021875 123.56563 31.021875 124.39375ZM36.85 122.94063Q36.85 121.40938 37.1625 120.4875Q37.475 119.55 38.084373 119.05Q38.709373 118.55 39.646873 118.55Q40.334373 118.55 40.85 118.83125Q41.38125 119.1125 41.725 119.64375Q42.06875 120.15938 42.25625 120.90938Q42.44375 121.65938 42.44375 122.94063Q42.44375 124.45625 42.13125 125.37813Q41.834373 126.3 41.209373 126.81563Q40.6 127.31563 39.646873 127.31563Q38.4125 127.31563 37.69375 126.425Q36.85 125.3625 36.85 122.94063ZM37.928123 122.94063Q37.928123 125.05 38.428123 125.75313Q38.928123 126.45625 39.646873 126.45625Q40.38125 126.45625 40.865623 125.75313Q41.365623 125.05 41.365623 122.94063Q41.365623 120.81563 40.865623 120.12813Q40.38125 119.425 39.63125 119.425Q38.9125 119.425 38.475 120.03438Q37.928123 120.81563 37.928123 122.94063Z" fill-rule="nonzero"/><path fill="#000000" d="M31.475 28.693748Q30.81875 28.443748 30.490625 28.006248Q30.178125 27.553123 30.178125 26.943748Q30.178125 26.006248 30.85 25.365623Q31.5375 24.724998 32.646873 24.724998Q33.771873 24.724998 34.459373 25.381248Q35.146873 26.037498 35.146873 26.974998Q35.146873 27.568748 34.834373 28.006248Q34.521873 28.443748 33.88125 28.693748Q34.678123 28.943748 35.084373 29.521873Q35.490623 30.099998 35.490623 30.896873Q35.490623 31.990623 34.709373 32.740623Q33.94375 33.490623 32.6625 33.490623Q31.396875 33.490623 30.615625 32.740623Q29.834375 31.990623 29.834375 30.865623Q29.834375 30.021873 30.25625 29.459373Q30.69375 28.896873 31.475 28.693748ZM31.25625 26.896873Q31.25625 27.506248 31.646875 27.896873Q32.053123 28.287498 32.678123 28.287498Q33.2875 28.287498 33.678123 27.912498Q34.06875 27.521873 34.06875 26.959373Q34.06875 26.381248 33.6625 25.990623Q33.25625 25.584373 32.6625 25.584373Q32.053123 25.584373 31.646875 25.974998Q31.25625 26.365623 31.25625 26.896873ZM30.928125 30.865623Q30.928125 31.318748 31.13125 31.740623Q31.35 32.1625 31.771875 32.396873Q32.19375 32.63125 32.678123 32.63125Q33.428123 32.63125 33.9125 32.146873Q34.4125 31.662498 34.4125 30.912498Q34.4125 30.146873 33.9125 29.646873Q33.4125 29.146873 32.646873 29.146873Q31.896875 29.146873 31.4125 29.646873Q30.928125 30.131248 30.928125 30.865623ZM36.85 29.115623Q36.85 27.584373 37.1625 26.662498Q37.475 25.724998 38.084373 25.224998Q38.709373 24.724998 39.646873 24.724998Q40.334373 24.724998 40.85 25.006248Q41.38125 25.287498 41.725 25.818748Q42.06875 26.334373 42.25625 27.084373Q42.44375 27.834373 42.44375 29.115623Q42.44375 30.631248 42.13125 31.553123Q41.834373 32.475 41.209373 32.990623Q40.6 33.490623 39.646873 33.490623Q38.4125 33.490623 37.69375 32.6Q36.85 31.537498 36.85 29.115623ZM37.928123 29.115623Q37.928123 31.224998 38.428123 31.928123Q38.928123 32.63125 39.646873 32.63125Q40.38125 32.63125 40.865623 31.928123Q41.365623 31.224998 41.365623 29.115623Q41.365623 26.990623 40.865623 26.303123Q40.38125 25.599998 39.63125 25.599998Q38.9125 25.599998 38.475 26.209373Q37.928123 26.990623 37.928123 29.115623Z" fill-rule="nonzero"/><path fill="#000000" d="M65.765625 421.65L65.765625 413.05624L66.828125 413.05624L66.828125 421.65L65.765625 421.65ZM73.046875 419.65L74.140625 419.775Q73.890625 420.72812 73.1875 421.25937Q72.484375 421.79062 71.40625 421.79062Q70.046875 421.79062 69.234375 420.94687Q68.4375 420.10312 68.4375 418.5875Q68.4375 417.025 69.25 416.16562Q70.0625 415.29062 71.34375 415.29062Q72.59375 415.29062 73.375 416.13437Q74.171875 416.97812 74.171875 418.525Q74.171875 418.61874 74.171875 418.80624L69.53125 418.80624Q69.59375 419.8375 70.109375 420.38437Q70.625 420.91562 71.40625 420.91562Q71.984375 420.91562 72.390625 420.61874Q72.8125 420.30624 73.046875 419.65ZM69.59375 417.94687L73.0625 417.94687Q73.0 417.15 72.671875 416.75937Q72.15625 416.15 71.359375 416.15Q70.625 416.15 70.125 416.63437Q69.640625 417.11874 69.59375 417.94687ZM75.375 419.79062L76.40625 419.63437Q76.5 420.25937 76.890625 420.5875Q77.296875 420.91562 78.03125 420.91562Q78.75 420.91562 79.09375 420.63437Q79.453125 420.3375 79.453125 419.93124Q79.453125 419.57187 79.140625 419.36874Q78.921875 419.22812 78.0625 419.00937Q76.90625 418.7125 76.453125 418.50937Q76.015625 418.29062 75.78125 417.91562Q75.546875 417.54062 75.546875 417.07187Q75.546875 416.66562 75.734375 416.30624Q75.921875 415.94687 76.25 415.7125Q76.5 415.54062 76.921875 415.41562Q77.34375 415.29062 77.84375 415.29062Q78.5625 415.29062 79.109375 415.50937Q79.671875 415.7125 79.9375 416.07187Q80.203125 416.43124 80.296875 417.025L79.265625 417.16562Q79.203125 416.69687 78.859375 416.43124Q78.53125 416.15 77.90625 416.15Q77.1875 416.15 76.875 416.4Q76.5625 416.63437 76.5625 416.9625Q76.5625 417.16562 76.6875 417.32187Q76.828125 417.49374 77.09375 417.60312Q77.25 417.66562 78.03125 417.86874Q79.15625 418.18124 79.59375 418.36874Q80.03125 418.55624 80.28125 418.91562Q80.53125 419.275 80.53125 419.82187Q80.53125 420.35312 80.21875 420.82187Q79.921875 421.275 79.34375 421.54062Q78.765625 421.79062 78.03125 421.79062Q76.8125 421.79062 76.171875 421.29062Q75.546875 420.775 75.375 419.79062ZM82.375 419.79062L83.40625 419.63437Q83.5 420.25937 83.890625 420.5875Q84.296875 420.91562 85.03125 420.91562Q85.75 420.91562 86.09375 420.63437Q86.453125 420.3375 86.453125 419.93124Q86.453125 419.57187 86.140625 419.36874Q85.921875 419.22812 85.0625 419.00937Q83.90625 418.7125 83.453125 418.50937Q83.015625 418.29062 82.78125 417.91562Q82.546875 417.54062 82.546875 417.07187Q82.546875 416.66562 82.734375 416.30624Q82.921875 415.94687 83.25 415.7125Q83.5 415.54062 83.921875 415.41562Q84.34375 415.29062 84.84375 415.29062Q85.5625 415.29062 86.109375 415.50937Q86.671875 415.7125 86.9375 416.07187Q87.203125 416.43124 87.296875 417.025L86.265625 417.16562Q86.203125 416.69687 85.859375 416.43124Q85.53125 416.15 84.90625 416.15Q84.1875 416.15 83.875 416.4Q83.5625 416.63437 83.5625 416.9625Q83.5625 417.16562 83.6875 417.32187Q83.828125 417.49374 84.09375 417.60312Q84.25 417.66562 85.03125 417.86874Q86.15625 418.18124 86.59375 418.36874Q87.03125 418.55624 87.28125 418.91562Q87.53125 419.275 87.53125 419.82187Q87.53125 420.35312 87.21875 420.82187Q86.921875 421.275 86.34375 421.54062Q85.765625 421.79062 85.03125 421.79062Q83.8125 421.79062 83.171875 421.29062Q82.546875 420.775 82.375 419.79062ZM95.09375 420.7125L95.25 421.63437Q94.796875 421.72812 94.453125 421.72812Q93.875 421.72812 93.5625 421.55624Q93.25 421.36874 93.109375 421.07187Q92.984375 420.775 92.984375 419.82187L92.984375 416.24374L92.21875 416.24374L92.21875 415.43124L92.984375 415.43124L92.984375 413.88437L94.03125 413.25937L94.03125 415.43124L95.09375 415.43124L95.09375 416.24374L94.03125 416.24374L94.03125 419.88437Q94.03125 420.3375 94.078125 420.4625Q94.140625 420.5875 94.265625 420.66562Q94.390625 420.74374 94.625 420.74374Q94.8125 420.74374 95.09375 420.7125ZM95.796875 421.65L95.796875 413.05624L96.84375 413.05624L96.84375 416.13437Q97.578125 415.29062 98.703125 415.29062Q99.40625 415.29062 99.90625 415.57187Q100.421875 415.8375 100.640625 416.32187Q100.859375 416.79062 100.859375 417.7125L100.859375 421.65L99.8125 421.65L99.8125 417.7125Q99.8125 416.91562 99.46875 416.55624Q99.125 416.19687 98.5 416.19687Q98.03125 416.19687 97.609375 416.44687Q97.203125 416.68124 97.015625 417.10312Q96.84375 417.50937 96.84375 418.24374L96.84375 421.65L95.796875 421.65ZM106.859375 420.88437Q106.265625 421.38437 105.71875 421.5875Q105.1875 421.79062 104.5625 421.79062Q103.53125 421.79062 102.984375 421.29062Q102.4375 420.79062 102.4375 420.00937Q102.4375 419.55624 102.640625 419.18124Q102.84375 418.79062 103.1875 418.57187Q103.53125 418.3375 103.953125 418.22812Q104.25 418.13437 104.890625 418.05624Q106.15625 417.91562 106.765625 417.69687Q106.765625 417.47812 106.765625 417.43124Q106.765625 416.775 106.46875 416.50937Q106.0625 416.16562 105.265625 416.16562Q104.53125 416.16562 104.171875 416.43124Q103.8125 416.68124 103.640625 417.3375L102.609375 417.19687Q102.75 416.54062 103.078125 416.13437Q103.40625 415.72812 104.015625 415.50937Q104.625 415.29062 105.421875 415.29062Q106.21875 415.29062 106.71875 415.47812Q107.21875 415.66562 107.453125 415.94687Q107.6875 416.22812 107.78125 416.66562Q107.828125 416.93124 107.828125 417.63437L107.828125 419.04062Q107.828125 420.50937 107.890625 420.9Q107.96875 421.29062 108.171875 421.65L107.0625 421.65Q106.90625 421.32187 106.859375 420.88437ZM106.765625 418.525Q106.1875 418.75937 105.046875 418.93124Q104.390625 419.025 104.125 419.15Q103.859375 419.25937 103.703125 419.47812Q103.5625 419.69687 103.5625 419.97812Q103.5625 420.4 103.875 420.68124Q104.203125 420.9625 104.8125 420.9625Q105.421875 420.9625 105.890625 420.69687Q106.375 420.43124 106.59375 419.9625Q106.765625 419.60312 106.765625 418.91562L106.765625 418.525ZM109.796875 421.65L109.796875 415.43124L110.734375 415.43124L110.734375 416.30624Q111.421875 415.29062 112.71875 415.29062Q113.28125 415.29062 113.75 415.49374Q114.234375 415.69687 114.46875 416.025Q114.703125 416.35312 114.796875 416.79062Q114.84375 417.0875 114.84375 417.82187L114.84375 421.65L113.796875 421.65L113.796875 417.86874Q113.796875 417.2125 113.671875 416.9Q113.546875 416.5875 113.234375 416.4Q112.921875 416.19687 112.5 416.19687Q111.828125 416.19687 111.328125 416.63437Q110.84375 417.05624 110.84375 418.24374L110.84375 421.65L109.796875 421.65ZM119.5 419.4L120.609375 419.30624Q120.734375 420.11874 121.171875 420.525Q121.625 420.93124 122.265625 420.93124Q123.015625 420.93124 123.546875 420.35312Q124.078125 419.775 124.078125 418.8375Q124.078125 417.93124 123.5625 417.41562Q123.0625 416.88437 122.234375 416.88437Q121.734375 416.88437 121.3125 417.11874Q120.90625 417.35312 120.671875 417.7125L119.6875 417.5875L120.515625 413.18124L124.796875 413.18124L124.796875 414.18124L121.359375 414.18124L120.90625 416.49374Q121.671875 415.94687 122.515625 415.94687Q123.640625 415.94687 124.40625 416.72812Q125.1875 417.50937 125.1875 418.74374Q125.1875 419.9 124.515625 420.75937Q123.6875 421.79062 122.265625 421.79062Q121.09375 421.79062 120.34375 421.13437Q119.609375 420.47812 119.5 419.4ZM126.5 417.41562Q126.5 415.88437 126.8125 414.9625Q127.125 414.025 127.734375 413.525Q128.35938 413.025 129.29688 413.025Q129.98438 413.025 130.5 413.30624Q131.03125 413.5875 131.375 414.11874Q131.71875 414.63437 131.90625 415.38437Q132.09375 416.13437 132.09375 417.41562Q132.09375 418.93124 131.78125 419.85312Q131.48438 420.775 130.85938 421.29062Q130.25 421.79062 129.29688 421.79062Q128.0625 421.79062 127.34375 420.9Q126.5 419.8375 126.5 417.41562ZM127.578125 417.41562Q127.578125 419.525 128.07812 420.22812Q128.57812 420.93124 129.29688 420.93124Q130.03125 420.93124 130.51562 420.22812Q131.01562 419.525 131.01562 417.41562Q131.01562 415.29062 130.51562 414.60312Q130.03125 413.9 129.28125 413.9Q128.5625 413.9 128.125 414.50937Q127.578125 415.29062 127.578125 417.41562ZM133.79688 421.65L133.79688 413.05624L134.85938 413.05624L134.85938 417.9625L137.34375 415.43124L138.71875 415.43124L136.32812 417.72812L138.95312 421.65L137.65625 421.65L135.59375 418.4625L134.85938 419.18124L134.85938 421.65L133.79688 421.65Z" fill-rule="nonzero"/><path fill="#000000" d="M155.5 419.4L156.60938 419.30624Q156.73438 420.11874 157.17188 420.525Q157.625 420.93124 158.26562 420.93124Q159.01562 420.93124 159.54688 420.35312Q160.07812 419.775 160.07812 418.8375Q160.07812 417.93124 159.5625 417.41562Q159.0625 416.88437 158.23438 416.88437Q157.73438 416.88437 157.3125 417.11874Q156.90625 417.35312 156.67188 417.7125L155.6875 417.5875L156.51562 413.18124L160.79688 413.18124L160.79688 414.18124L157.35938 414.18124L156.90625 416.49374Q157.67188 415.94687 158.51562 415.94687Q159.64062 415.94687 160.40625 416.72812Q161.1875 417.50937 161.1875 418.74374Q161.1875 419.9 160.51562 420.75937Q159.6875 421.79062 158.26562 421.79062Q157.09375 421.79062 156.34375 421.13437Q155.60938 420.47812 155.5 419.4ZM162.5 417.41562Q162.5 415.88437 162.8125 414.9625Q163.125 414.025 163.73438 413.525Q164.35938 413.025 165.29688 413.025Q165.98438 413.025 166.5 413.30624Q167.03125 413.5875 167.375 414.11874Q167.71875 414.63437 167.90625 415.38437Q168.09375 416.13437 168.09375 417.41562Q168.09375 418.93124 167.78125 419.85312Q167.48438 420.775 166.85938 421.29062Q166.25 421.79062 165.29688 421.79062Q164.0625 421.79062 163.34375 420.9Q162.5 419.8375 162.5 417.41562ZM163.57812 417.41562Q163.57812 419.525 164.07812 420.22812Q164.57812 420.93124 165.29688 420.93124Q166.03125 420.93124 166.51562 420.22812Q167.01562 419.525 167.01562 417.41562Q167.01562 415.29062 166.51562 414.60312Q166.03125 413.9 165.28125 413.9Q164.5625 413.9 164.125 414.50937Q163.57812 415.29062 163.57812 417.41562ZM169.79688 421.65L169.79688 413.05624L170.85938 413.05624L170.85938 417.9625L173.34375 415.43124L174.71875 415.43124L172.32812 417.72812L174.95312 421.65L173.65625 421.65L171.59375 418.4625L170.85938 419.18124L170.85938 421.65L169.79688 421.65ZM178.375 419.07187L178.375 418.00937L181.625 418.00937L181.625 419.07187L178.375 419.07187ZM185.5625 414.18124L185.5625 413.16562L191.125 413.16562L191.125 413.99374Q190.3125 414.86874 189.5 416.32187Q188.70312 417.75937 188.26562 419.29062Q187.9375 420.36874 187.85938 421.65L186.76562 421.65Q186.78125 420.63437 187.15625 419.19687Q187.54688 417.75937 188.25 416.43124Q188.96875 415.10312 189.78125 414.18124L185.5625 414.18124ZM192.5 419.4L193.60938 419.30624Q193.73438 420.11874 194.17188 420.525Q194.625 420.93124 195.26562 420.93124Q196.01562 420.93124 196.54688 420.35312Q197.07812 419.775 197.07812 418.8375Q197.07812 417.93124 196.5625 417.41562Q196.0625 416.88437 195.23438 416.88437Q194.73438 416.88437 194.3125 417.11874Q193.90625 417.35312 193.67188 417.7125L192.6875 417.5875L193.51562 413.18124L197.79688 413.18124L197.79688 414.18124L194.35938 414.18124L193.90625 416.49374Q194.67188 415.94687 195.51562 415.94687Q196.64062 415.94687 197.40625 416.72812Q198.1875 417.50937 198.1875 418.74374Q198.1875 419.9 197.51562 420.75937Q196.6875 421.79062 195.26562 421.79062Q194.09375 421.79062 193.34375 421.13437Q192.60938 420.47812 192.5 419.4ZM199.79688 421.65L199.79688 413.05624L200.85938 413.05624L200.85938 417.9625L203.34375 415.43124L204.71875 415.43124L202.32812 417.72812L204.95312 421.65L203.65625 421.65L201.59375 418.4625L200.85938 419.18124L200.85938 421.65L199.79688 421.65Z" fill-rule="nonzero"/><path fill="#000000" d="M233.0625 414.18124L233.0625 413.16562L238.625 413.16562L238.625 413.99374Q237.8125 414.86874 237.0 416.32187Q236.20312 417.75937 235.76562 419.29062Q235.4375 420.36874 235.35938 421.65L234.26562 421.65Q234.28125 420.63437 234.65625 419.19687Q235.04688 417.75937 235.75 416.43124Q236.46875 415.10312 237.28125 414.18124L233.0625 414.18124ZM240.0 419.4L241.10938 419.30624Q241.23438 420.11874 241.67188 420.525Q242.125 420.93124 242.76562 420.93124Q243.51562 420.93124 244.04688 420.35312Q244.57812 419.775 244.57812 418.8375Q244.57812 417.93124 244.0625 417.41562Q243.5625 416.88437 242.73438 416.88437Q242.23438 416.88437 241.8125 417.11874Q241.40625 417.35312 241.17188 417.7125L240.1875 417.5875L241.01562 413.18124L245.29688 413.18124L245.29688 414.18124L241.85938 414.18124L241.40625 416.49374Q242.17188 415.94687 243.01562 415.94687Q244.14062 415.94687 244.90625 416.72812Q245.6875 417.50937 245.6875 418.74374Q245.6875 419.9 245.01562 420.75937Q244.1875 421.79062 242.76562 421.79062Q241.59375 421.79062 240.84375 421.13437Q240.10938 420.47812 240.0 419.4ZM247.29688 421.65L247.29688 413.05624L248.35938 413.05624L248.35938 417.9625L250.84375 415.43124L252.21875 415.43124L249.82812 417.72812L252.45312 421.65L251.15625 421.65L249.09375 418.4625L248.35938 419.18124L248.35938 421.65L247.29688 421.65ZM252.875 419.07187L252.875 418.00937L256.125 418.00937L256.125 419.07187L252.875 419.07187ZM260.96875 421.65L259.92188 421.65L259.92188 414.93124Q259.53125 415.29062 258.90625 415.66562Q258.29688 416.025 257.8125 416.19687L257.8125 415.18124Q258.6875 414.75937 259.34375 414.18124Q260.01562 413.5875 260.29688 413.025L260.96875 413.025L260.96875 421.65ZM264.0 417.41562Q264.0 415.88437 264.3125 414.9625Q264.625 414.025 265.23438 413.525Q265.85938 413.025 266.79688 413.025Q267.48438 413.025 268.0 413.30624Q268.53125 413.5875 268.875 414.11874Q269.21875 414.63437 269.40625 415.38437Q269.59375 416.13437 269.59375 417.41562Q269.59375 418.93124 269.28125 419.85312Q268.98438 420.775 268.35938 421.29062Q267.75 421.79062 266.79688 421.79062Q265.5625 421.79062 264.84375 420.9Q264.0 419.8375 264.0 417.41562ZM265.07812 417.41562Q265.07812 419.525 265.57812 420.22812Q266.07812 420.93124 266.79688 420.93124Q267.53125 420.93124 268.01562 420.22812Q268.51562 419.525 268.51562 417.41562Q268.51562 415.29062 268.01562 414.60312Q267.53125 413.9 266.78125 413.9Q266.0625 413.9 265.625 414.50937Q265.07812 415.29062 265.07812 417.41562ZM271.0 417.41562Q271.0 415.88437 271.3125 414.9625Q271.625 414.025 272.23438 413.525Q272.85938 413.025 273.79688 413.025Q274.48438 413.025 275.0 413.30624Q275.53125 413.5875 275.875 414.11874Q276.21875 414.63437 276.40625 415.38437Q276.59375 416.13437 276.59375 417.41562Q276.59375 418.93124 276.28125 419.85312Q275.98438 420.775 275.35938 421.29062Q274.75 421.79062 273.79688 421.79062Q272.5625 421.79062 271.84375 420.9Q271.0 419.8375 271.0 417.41562ZM272.07812 417.41562Q272.07812 419.525 272.57812 420.22812Q273.07812 420.93124 273.79688 420.93124Q274.53125 420.93124 275.01562 420.22812Q275.51562 419.525 275.51562 417.41562Q275.51562 415.29062 275.01562 414.60312Q274.53125 413.9 273.78125 413.9Q273.0625 413.9 272.625 414.50937Q272.07812 415.29062 272.07812 417.41562ZM278.29688 421.65L278.29688 413.05624L279.35938 413.05624L279.35938 417.9625L281.84375 415.43124L283.21875 415.43124L280.82812 417.72812L283.45312 421.65L282.15625 421.65L280.09375 418.4625L279.35938 419.18124L279.35938 421.65L278.29688 421.65Z" fill-rule="nonzero"/><path fill="#000000" d="M311.46875 421.65L310.42188 421.65L310.42188 414.93124Q310.03125 415.29062 309.40625 415.66562Q308.79688 416.025 308.3125 416.19687L308.3125 415.18124Q309.1875 414.75937 309.84375 414.18124Q310.51562 413.5875 310.79688 413.025L311.46875 413.025L311.46875 421.65ZM314.5 417.41562Q314.5 415.88437 314.8125 414.9625Q315.125 414.025 315.73438 413.525Q316.35938 413.025 317.29688 413.025Q317.98438 413.025 318.5 413.30624Q319.03125 413.5875 319.375 414.11874Q319.71875 414.63437 319.90625 415.38437Q320.09375 416.13437 320.09375 417.41562Q320.09375 418.93124 319.78125 419.85312Q319.48438 420.775 318.85938 421.29062Q318.25 421.79062 317.29688 421.79062Q316.0625 421.79062 315.34375 420.9Q314.5 419.8375 314.5 417.41562ZM315.57812 417.41562Q315.57812 419.525 316.07812 420.22812Q316.57812 420.93124 317.29688 420.93124Q318.03125 420.93124 318.51562 420.22812Q319.01562 419.525 319.01562 417.41562Q319.01562 415.29062 318.51562 414.60312Q318.03125 413.9 317.28125 413.9Q316.5625 413.9 316.125 414.50937Q315.57812 415.29062 315.57812 417.41562ZM321.5 417.41562Q321.5 415.88437 321.8125 414.9625Q322.125 414.025 322.73438 413.525Q323.35938 413.025 324.29688 413.025Q324.98438 413.025 325.5 413.30624Q326.03125 413.5875 326.375 414.11874Q326.71875 414.63437 326.90625 415.38437Q327.09375 416.13437 327.09375 417.41562Q327.09375 418.93124 326.78125 419.85312Q326.48438 420.775 325.85938 421.29062Q325.25 421.79062 324.29688 421.79062Q323.0625 421.79062 322.34375 420.9Q321.5 419.8375 321.5 417.41562ZM322.57812 417.41562Q322.57812 419.525 323.07812 420.22812Q323.57812 420.93124 324.29688 420.93124Q325.03125 420.93124 325.51562 420.22812Q326.01562 419.525 326.01562 417.41562Q326.01562 415.29062 325.51562 414.60312Q325.03125 413.9 324.28125 413.9Q323.5625 413.9 323.125 414.50937Q322.57812 415.29062 322.57812 417.41562ZM328.79688 421.65L328.79688 413.05624L329.85938 413.05624L329.85938 417.9625L332.34375 415.43124L333.71875 415.43124L331.32812 417.72812L333.95312 421.65L332.65625 421.65L330.59375 418.4625L329.85938 419.18124L329.85938 421.65L328.79688 421.65ZM334.375 419.07187L334.375 418.00937L337.625 418.00937L337.625 419.07187L334.375 419.07187ZM342.46875 421.65L341.42188 421.65L341.42188 414.93124Q341.03125 415.29062 340.40625 415.66562Q339.79688 416.025 339.3125 416.19687L339.3125 415.18124Q340.1875 414.75937 340.84375 414.18124Q341.51562 413.5875 341.79688 413.025L342.46875 413.025L342.46875 421.65ZM351.04688 420.63437L351.04688 421.65L345.35938 421.65Q345.35938 421.275 345.48438 420.91562Q345.70312 420.3375 346.17188 419.775Q346.65625 419.2125 347.5625 418.47812Q348.96875 417.32187 349.45312 416.65Q349.95312 415.97812 349.95312 415.38437Q349.95312 414.75937 349.5 414.3375Q349.04688 413.9 348.32812 413.9Q347.5625 413.9 347.10938 414.35312Q346.65625 414.80624 346.64062 415.61874L345.5625 415.50937Q345.67188 414.29062 346.39062 413.66562Q347.125 413.025 348.35938 413.025Q349.59375 413.025 350.3125 413.7125Q351.03125 414.4 351.03125 415.41562Q351.03125 415.93124 350.8125 416.43124Q350.60938 416.91562 350.10938 417.47812Q349.625 418.025 348.5 418.97812Q347.54688 419.775 347.26562 420.07187Q347.0 420.35312 346.82812 420.63437L351.04688 420.63437ZM352.5 419.4L353.60938 419.30624Q353.73438 420.11874 354.17188 420.525Q354.625 420.93124 355.26562 420.93124Q356.01562 420.93124 356.54688 420.35312Q357.07812 419.775 357.07812 418.8375Q357.07812 417.93124 356.5625 417.41562Q356.0625 416.88437 355.23438 416.88437Q354.73438 416.88437 354.3125 417.11874Q353.90625 417.35312 353.67188 417.7125L352.6875 417.5875L353.51562 413.18124L357.79688 413.18124L357.79688 414.18124L354.35938 414.18124L353.90625 416.49374Q354.67188 415.94687 355.51562 415.94687Q356.64062 415.94687 357.40625 416.72812Q358.1875 417.50937 358.1875 418.74374Q358.1875 419.9 357.51562 420.75937Q356.6875 421.79062 355.26562 421.79062Q354.09375 421.79062 353.34375 421.13437Q352.60938 420.47812 352.5 419.4ZM359.79688 421.65L359.79688 413.05624L360.85938 413.05624L360.85938 417.9625L363.34375 415.43124L364.71875 415.43124L362.32812 417.72812L364.95312 421.65L363.65625 421.65L361.59375 418.4625L360.85938 419.18124L360.85938 421.65L359.79688 421.65Z" fill-rule="nonzero"/><path fill="#000000" d="M392.46875 421.65L391.42188 421.65L391.42188 414.93124Q391.03125 415.29062 390.40625 415.66562Q389.79688 416.025 389.3125 416.19687L389.3125 415.18124Q390.1875 414.75937 390.84375 414.18124Q391.51562 413.5875 391.79688 413.025L392.46875 413.025L392.46875 421.65ZM401.04688 420.63437L401.04688 421.65L395.35938 421.65Q395.35938 421.275 395.48438 420.91562Q395.70312 420.3375 396.17188 419.775Q396.65625 419.2125 397.5625 418.47812Q398.96875 417.32187 399.45312 416.65Q399.95312 415.97812 399.95312 415.38437Q399.95312 414.75937 399.5 414.3375Q399.04688 413.9 398.32812 413.9Q397.5625 413.9 397.10938 414.35312Q396.65625 414.80624 396.64062 415.61874L395.5625 415.50937Q395.67188 414.29062 396.39062 413.66562Q397.125 413.025 398.35938 413.025Q399.59375 413.025 400.3125 413.7125Q401.03125 414.4 401.03125 415.41562Q401.03125 415.93124 400.8125 416.43124Q400.60938 416.91562 400.10938 417.47812Q399.625 418.025 398.5 418.97812Q397.54688 419.775 397.26562 420.07187Q397.0 420.35312 396.82812 420.63437L401.04688 420.63437ZM402.5 419.4L403.60938 419.30624Q403.73438 420.11874 404.17188 420.525Q404.625 420.93124 405.26562 420.93124Q406.01562 420.93124 406.54688 420.35312Q407.07812 419.775 407.07812 418.8375Q407.07812 417.93124 406.5625 417.41562Q406.0625 416.88437 405.23438 416.88437Q404.73438 416.88437 404.3125 417.11874Q403.90625 417.35312 403.67188 417.7125L402.6875 417.5875L403.51562 413.18124L407.79688 413.18124L407.79688 414.18124L404.35938 414.18124L403.90625 416.49374Q404.67188 415.94687 405.51562 415.94687Q406.64062 415.94687 407.40625 416.72812Q408.1875 417.50937 408.1875 418.74374Q408.1875 419.9 407.51562 420.75937Q406.6875 421.79062 405.26562 421.79062Q404.09375 421.79062 403.34375 421.13437Q402.60938 420.47812 402.5 419.4ZM409.375 419.07187L409.375 418.00937L412.625 418.00937L412.625 419.07187L409.375 419.07187ZM417.46875 421.65L416.42188 421.65L416.42188 414.93124Q416.03125 415.29062 415.40625 415.66562Q414.79688 416.025 414.3125 416.19687L414.3125 415.18124Q415.1875 414.75937 415.84375 414.18124Q416.51562 413.5875 416.79688 413.025L417.46875 413.025L417.46875 421.65ZM420.5 419.4L421.60938 419.30624Q421.73438 420.11874 422.17188 420.525Q422.625 420.93124 423.26562 420.93124Q424.01562 420.93124 424.54688 420.35312Q425.07812 419.775 425.07812 418.8375Q425.07812 417.93124 424.5625 417.41562Q424.0625 416.88437 423.23438 416.88437Q422.73438 416.88437 422.3125 417.11874Q421.90625 417.35312 421.67188 417.7125L420.6875 417.5875L421.51562 413.18124L425.79688 413.18124L425.79688 414.18124L422.35938 414.18124L421.90625 416.49374Q422.67188 415.94687 423.51562 415.94687Q424.64062 415.94687 425.40625 416.72812Q426.1875 417.50937 426.1875 418.74374Q426.1875 419.9 425.51562 420.75937Q424.6875 421.79062 423.26562 421.79062Q422.09375 421.79062 421.34375 421.13437Q420.60938 420.47812 420.5 419.4ZM427.5 417.41562Q427.5 415.88437 427.8125 414.9625Q428.125 414.025 428.73438 413.525Q429.35938 413.025 430.29688 413.025Q430.98438 413.025 431.5 413.30624Q432.03125 413.5875 432.375 414.11874Q432.71875 414.63437 432.90625 415.38437Q433.09375 416.13437 433.09375 417.41562Q433.09375 418.93124 432.78125 419.85312Q432.48438 420.775 431.85938 421.29062Q431.25 421.79062 430.29688 421.79062Q429.0625 421.79062 428.34375 420.9Q427.5 419.8375 427.5 417.41562ZM428.57812 417.41562Q428.57812 419.525 429.07812 420.22812Q429.57812 420.93124 430.29688 420.93124Q431.03125 420.93124 431.51562 420.22812Q432.01562 419.525 432.01562 417.41562Q432.01562 415.29062 431.51562 414.60312Q431.03125 413.9 430.28125 413.9Q429.5625 413.9 429.125 414.50937Q428.57812 415.29062 428.57812 417.41562ZM434.79688 421.65L434.79688 413.05624L435.85938 413.05624L435.85938 417.9625L438.34375 415.43124L439.71875 415.43124L437.32812 417.72812L439.95312 421.65L438.65625 421.65L436.59375 418.4625L435.85938 419.18124L435.85938 421.65L434.79688 421.65Z" fill-rule="nonzero"/><path fill="#000000" d="M470.46875 421.65L469.42188 421.65L469.42188 414.93124Q469.03125 415.29062 468.40625 415.66562Q467.79688 416.025 467.3125 416.19687L467.3125 415.18124Q468.1875 414.75937 468.84375 414.18124Q469.51562 413.5875 469.79688 413.025L470.46875 413.025L470.46875 421.65ZM473.5 419.4L474.60938 419.30624Q474.73438 420.11874 475.17188 420.525Q475.625 420.93124 476.26562 420.93124Q477.01562 420.93124 477.54688 420.35312Q478.07812 419.775 478.07812 418.8375Q478.07812 417.93124 477.5625 417.41562Q477.0625 416.88437 476.23438 416.88437Q475.73438 416.88437 475.3125 417.11874Q474.90625 417.35312 474.67188 417.7125L473.6875 417.5875L474.51562 413.18124L478.79688 413.18124L478.79688 414.18124L475.35938 414.18124L474.90625 416.49374Q475.67188 415.94687 476.51562 415.94687Q477.64062 415.94687 478.40625 416.72812Q479.1875 417.50937 479.1875 418.74374Q479.1875 419.9 478.51562 420.75937Q477.6875 421.79062 476.26562 421.79062Q475.09375 421.79062 474.34375 421.13437Q473.60938 420.47812 473.5 419.4ZM480.5 417.41562Q480.5 415.88437 480.8125 414.9625Q481.125 414.025 481.73438 413.525Q482.35938 413.025 483.29688 413.025Q483.98438 413.025 484.5 413.30624Q485.03125 413.5875 485.375 414.11874Q485.71875 414.63437 485.90625 415.38437Q486.09375 416.13437 486.09375 417.41562Q486.09375 418.93124 485.78125 419.85312Q485.48438 420.775 484.85938 421.29062Q484.25 421.79062 483.29688 421.79062Q482.0625 421.79062 481.34375 420.9Q480.5 419.8375 480.5 417.41562ZM481.57812 417.41562Q481.57812 419.525 482.07812 420.22812Q482.57812 420.93124 483.29688 420.93124Q484.03125 420.93124 484.51562 420.22812Q485.01562 419.525 485.01562 417.41562Q485.01562 415.29062 484.51562 414.60312Q484.03125 413.9 483.28125 413.9Q482.5625 413.9 482.125 414.50937Q481.57812 415.29062 481.57812 417.41562ZM487.375 419.07187L487.375 418.00937L490.625 418.00937L490.625 419.07187L487.375 419.07187ZM497.04688 420.63437L497.04688 421.65L491.35938 421.65Q491.35938 421.275 491.48438 420.91562Q491.70312 420.3375 492.17188 419.775Q492.65625 419.2125 493.5625 418.47812Q494.96875 417.32187 495.45312 416.65Q495.95312 415.97812 495.95312 415.38437Q495.95312 414.75937 495.5 414.3375Q495.04688 413.9 494.32812 413.9Q493.5625 413.9 493.10938 414.35312Q492.65625 414.80624 492.64062 415.61874L491.5625 415.50937Q491.67188 414.29062 492.39062 413.66562Q493.125 413.025 494.35938 413.025Q495.59375 413.025 496.3125 413.7125Q497.03125 414.4 497.03125 415.41562Q497.03125 415.93124 496.8125 416.43124Q496.60938 416.91562 496.10938 417.47812Q495.625 418.025 494.5 418.97812Q493.54688 419.775 493.26562 420.07187Q493.0 420.35312 492.82812 420.63437L497.04688 420.63437ZM498.5 417.41562Q498.5 415.88437 498.8125 414.9625Q499.125 414.025 499.73438 413.525Q500.35938 413.025 501.29688 413.025Q501.98438 413.025 502.5 413.30624Q503.03125 413.5875 503.375 414.11874Q503.71875 414.63437 503.90625 415.38437Q504.09375 416.13437 504.09375 417.41562Q504.09375 418.93124 503.78125 419.85312Q503.48438 420.775 502.85938 421.29062Q502.25 421.79062 501.29688 421.79062Q500.0625 421.79062 499.34375 420.9Q498.5 419.8375 498.5 417.41562ZM499.57812 417.41562Q499.57812 419.525 500.07812 420.22812Q500.57812 420.93124 501.29688 420.93124Q502.03125 420.93124 502.51562 420.22812Q503.01562 419.525 503.01562 417.41562Q503.01562 415.29062 502.51562 414.60312Q502.03125 413.9 501.28125 413.9Q500.5625 413.9 500.125 414.50937Q499.57812 415.29062 499.57812 417.41562ZM505.5 417.41562Q505.5 415.88437 505.8125 414.9625Q506.125 414.025 506.73438 413.525Q507.35938 413.025 508.29688 413.025Q508.98438 413.025 509.5 413.30624Q510.03125 413.5875 510.375 414.11874Q510.71875 414.63437 510.90625 415.38437Q511.09375 416.13437 511.09375 417.41562Q511.09375 418.93124 510.78125 419.85312Q510.48438 420.775 509.85938 421.29062Q509.25 421.79062 508.29688 421.79062Q507.0625 421.79062 506.34375 420.9Q505.5 419.8375 505.5 417.41562ZM506.57812 417.41562Q506.57812 419.525 507.07812 420.22812Q507.57812 420.93124 508.29688 420.93124Q509.03125 420.93124 509.51562 420.22812Q510.01562 419.525 510.01562 417.41562Q510.01562 415.29062 509.51562 414.60312Q509.03125 413.9 508.28125 413.9Q507.5625 413.9 507.125 414.50937Q506.57812 415.29062 506.57812 417.41562ZM512.7969 421.65L512.7969 413.05624L513.8594 413.05624L513.8594 417.9625L516.34375 415.43124L517.71875 415.43124L515.3281 417.72812L517.9531 421.65L516.65625 421.65L514.59375 418.4625L513.8594 419.18124L513.8594 421.65L512.7969 421.65Z" fill-rule="nonzero"/><path fill="#000000" d="M547.0469 420.63437L547.0469 421.65L541.3594 421.65Q541.3594 421.275 541.4844 420.91562Q541.7031 420.3375 542.1719 419.775Q542.65625 419.2125 543.5625 418.47812Q544.96875 417.32187 545.4531 416.65Q545.9531 415.97812 545.9531 415.38437Q545.9531 414.75937 545.5 414.3375Q545.0469 413.9 544.3281 413.9Q543.5625 413.9 543.1094 414.35312Q542.65625 414.80624 542.6406 415.61874L541.5625 415.50937Q541.6719 414.29062 542.3906 413.66562Q543.125 413.025 544.3594 413.025Q545.59375 413.025 546.3125 413.7125Q547.03125 414.4 547.03125 415.41562Q547.03125 415.93124 546.8125 416.43124Q546.6094 416.91562 546.1094 417.47812Q545.625 418.025 544.5 418.97812Q543.5469 419.775 543.2656 420.07187Q543.0 420.35312 542.8281 420.63437L547.0469 420.63437ZM548.5 417.41562Q548.5 415.88437 548.8125 414.9625Q549.125 414.025 549.7344 413.525Q550.3594 413.025 551.2969 413.025Q551.9844 413.025 552.5 413.30624Q553.03125 413.5875 553.375 414.11874Q553.71875 414.63437 553.90625 415.38437Q554.09375 416.13437 554.09375 417.41562Q554.09375 418.93124 553.78125 419.85312Q553.4844 420.775 552.8594 421.29062Q552.25 421.79062 551.2969 421.79062Q550.0625 421.79062 549.34375 420.9Q548.5 419.8375 548.5 417.41562ZM549.5781 417.41562Q549.5781 419.525 550.0781 420.22812Q550.5781 420.93124 551.2969 420.93124Q552.03125 420.93124 552.5156 420.22812Q553.0156 419.525 553.0156 417.41562Q553.0156 415.29062 552.5156 414.60312Q552.03125 413.9 551.28125 413.9Q550.5625 413.9 550.125 414.50937Q549.5781 415.29062 549.5781 417.41562ZM555.5 417.41562Q555.5 415.88437 555.8125 414.9625Q556.125 414.025 556.7344 413.525Q557.3594 413.025 558.2969 413.025Q558.9844 413.025 559.5 413.30624Q560.03125 413.5875 560.375 414.11874Q560.71875 414.63437 560.90625 415.38437Q561.09375 416.13437 561.09375 417.41562Q561.09375 418.93124 560.78125 419.85312Q560.4844 420.775 559.8594 421.29062Q559.25 421.79062 558.2969 421.79062Q557.0625 421.79062 556.34375 420.9Q555.5 419.8375 555.5 417.41562ZM556.5781 417.41562Q556.5781 419.525 557.0781 420.22812Q557.5781 420.93124 558.2969 420.93124Q559.03125 420.93124 559.5156 420.22812Q560.0156 419.525 560.0156 417.41562Q560.0156 415.29062 559.5156 414.60312Q559.03125 413.9 558.28125 413.9Q557.5625 413.9 557.125 414.50937Q556.5781 415.29062 556.5781 417.41562ZM562.7969 421.65L562.7969 413.05624L563.8594 413.05624L563.8594 417.9625L566.34375 415.43124L567.71875 415.43124L565.3281 417.72812L567.9531 421.65L566.65625 421.65L564.59375 418.4625L563.8594 419.18124L563.8594 421.65L562.7969 421.65ZM568.375 419.07187L568.375 418.00937L571.625 418.00937L571.625 419.07187L568.375 419.07187ZM578.0469 420.63437L578.0469 421.65L572.3594 421.65Q572.3594 421.275 572.4844 420.91562Q572.7031 420.3375 573.1719 419.775Q573.65625 419.2125 574.5625 418.47812Q575.96875 417.32187 576.4531 416.65Q576.9531 415.97812 576.9531 415.38437Q576.9531 414.75937 576.5 414.3375Q576.0469 413.9 575.3281 413.9Q574.5625 413.9 574.1094 414.35312Q573.65625 414.80624 573.6406 415.61874L572.5625 415.50937Q572.6719 414.29062 573.3906 413.66562Q574.125 413.025 575.3594 413.025Q576.59375 413.025 577.3125 413.7125Q578.03125 414.4 578.03125 415.41562Q578.03125 415.93124 577.8125 416.43124Q577.6094 416.91562 577.1094 417.47812Q576.625 418.025 575.5 418.97812Q574.5469 419.775 574.2656 420.07187Q574.0 420.35312 573.8281 420.63437L578.0469 420.63437ZM579.5 419.4L580.6094 419.30624Q580.7344 420.11874 581.1719 420.525Q581.625 420.93124 582.2656 420.93124Q583.0156 420.93124 583.5469 420.35312Q584.0781 419.775 584.0781 418.8375Q584.0781 417.93124 583.5625 417.41562Q583.0625 416.88437 582.2344 416.88437Q581.7344 416.88437 581.3125 417.11874Q580.90625 417.35312 580.6719 417.7125L579.6875 417.5875L580.5156 413.18124L584.7969 413.18124L584.7969 414.18124L581.3594 414.18124L580.90625 416.49374Q581.6719 415.94687 582.5156 415.94687Q583.6406 415.94687 584.40625 416.72812Q585.1875 417.50937 585.1875 418.74374Q585.1875 419.9 584.5156 420.75937Q583.6875 421.79062 582.2656 421.79062Q581.09375 421.79062 580.34375 421.13437Q579.6094 420.47812 579.5 419.4ZM586.5 417.41562Q586.5 415.88437 586.8125 414.9625Q587.125 414.025 587.7344 413.525Q588.3594 413.025 589.2969 413.025Q589.9844 413.025 590.5 413.30624Q591.03125 413.5875 591.375 414.11874Q591.71875 414.63437 591.90625 415.38437Q592.09375 416.13437 592.09375 417.41562Q592.09375 418.93124 591.78125 419.85312Q591.4844 420.775 590.8594 421.29062Q590.25 421.79062 589.2969 421.79062Q588.0625 421.79062 587.34375 420.9Q586.5 419.8375 586.5 417.41562ZM587.5781 417.41562Q587.5781 419.525 588.0781 420.22812Q588.5781 420.93124 589.2969 420.93124Q590.03125 420.93124 590.5156 420.22812Q591.0156 419.525 591.0156 417.41562Q591.0156 415.29062 590.5156 414.60312Q590.03125 413.9 589.28125 413.9Q588.5625 413.9 588.125 414.50937Q587.5781 415.29062 587.5781 417.41562ZM593.7969 421.65L593.7969 413.05624L594.8594 413.05624L594.8594 417.9625L597.34375 415.43124L598.71875 415.43124L596.3281 417.72812L598.9531 421.65L597.65625 421.65L595.59375 418.4625L594.8594 419.18124L594.8594 421.65L593.7969 421.65Z" fill-rule="nonzero"/><path fill="#000000" d="M637.0469 420.63437L637.0469 421.65L631.3594 421.65Q631.3594 421.275 631.4844 420.91562Q631.7031 420.3375 632.1719 419.775Q632.65625 419.2125 633.5625 418.47812Q634.96875 417.32187 635.4531 416.65Q635.9531 415.97812 635.9531 415.38437Q635.9531 414.75937 635.5 414.3375Q635.0469 413.9 634.3281 413.9Q633.5625 413.9 633.1094 414.35312Q632.65625 414.80624 632.6406 415.61874L631.5625 415.50937Q631.6719 414.29062 632.3906 413.66562Q633.125 413.025 634.3594 413.025Q635.59375 413.025 636.3125 413.7125Q637.03125 414.4 637.03125 415.41562Q637.03125 415.93124 636.8125 416.43124Q636.6094 416.91562 636.1094 417.47812Q635.625 418.025 634.5 418.97812Q633.5469 419.775 633.2656 420.07187Q633.0 420.35312 632.8281 420.63437L637.0469 420.63437ZM638.5 419.4L639.6094 419.30624Q639.7344 420.11874 640.1719 420.525Q640.625 420.93124 641.2656 420.93124Q642.0156 420.93124 642.5469 420.35312Q643.0781 419.775 643.0781 418.8375Q643.0781 417.93124 642.5625 417.41562Q642.0625 416.88437 641.2344 416.88437Q640.7344 416.88437 640.3125 417.11874Q639.90625 417.35312 639.6719 417.7125L638.6875 417.5875L639.5156 413.18124L643.7969 413.18124L643.7969 414.18124L640.3594 414.18124L639.90625 416.49374Q640.6719 415.94687 641.5156 415.94687Q642.6406 415.94687 643.40625 416.72812Q644.1875 417.50937 644.1875 418.74374Q644.1875 419.9 643.5156 420.75937Q642.6875 421.79062 641.2656 421.79062Q640.09375 421.79062 639.34375 421.13437Q638.6094 420.47812 638.5 419.4ZM645.5 417.41562Q645.5 415.88437 645.8125 414.9625Q646.125 414.025 646.7344 413.525Q647.3594 413.025 648.2969 413.025Q648.9844 413.025 649.5 413.30624Q650.03125 413.5875 650.375 414.11874Q650.71875 414.63437 650.90625 415.38437Q651.09375 416.13437 651.09375 417.41562Q651.09375 418.93124 650.78125 419.85312Q650.4844 420.775 649.8594 421.29062Q649.25 421.79062 648.2969 421.79062Q647.0625 421.79062 646.34375 420.9Q645.5 419.8375 645.5 417.41562ZM646.5781 417.41562Q646.5781 419.525 647.0781 420.22812Q647.5781 420.93124 648.2969 420.93124Q649.03125 420.93124 649.5156 420.22812Q650.0156 419.525 650.0156 417.41562Q650.0156 415.29062 649.5156 414.60312Q649.03125 413.9 648.28125 413.9Q647.5625 413.9 647.125 414.50937Q646.5781 415.29062 646.5781 417.41562ZM652.7969 421.65L652.7969 413.05624L653.8594 413.05624L653.8594 417.9625L656.34375 415.43124L657.71875 415.43124L655.3281 417.72812L657.9531 421.65L656.65625 421.65L654.59375 418.4625L653.8594 419.18124L653.8594 421.65L652.7969 421.65ZM661.0 420.25937L661.0 417.9L658.6719 417.9L658.6719 416.91562L661.0 416.91562L661.0 414.5875L662.0 414.5875L662.0 416.91562L664.34375 416.91562L664.34375 417.9L662.0 417.9L662.0 420.25937L661.0 420.25937Z" fill-rule="nonzero"/></svg>