<svg version="1.1" viewBox="0.0 0.0 733.0 371.0" fill="none" stroke="none" stroke-linecap="square" stroke-miterlimit="10" width="733" height="371" xmlns:xlink="http://www.w3.org/1999/xlink" xmlns="http://www.w3.org/2000/svg"><path fill="#ffffff" d="M0 0L733.0 0L733.0 371.0L0 371.0L0 0Z" fill-rule="nonzero"/><path stroke="#333333" stroke-width="1.0" stroke-linecap="butt" d="M45.5 289.5L714.5 289.5" fill-rule="nonzero"/><path stroke="#cccccc" stroke-width="1.0" stroke-linecap="butt" d="M45.5 236.5L714.5 236.5" fill-rule="nonzero"/><path stroke="#cccccc" stroke-width="1.0" stroke-linecap="butt" d="M45.5 183.5L714.5 183.5" fill-rule="nonzero"/><path stroke="#cccccc" stroke-width="1.0" stroke-linecap="butt" d="M45.5 130.5L714.5 130.5" fill-rule="nonzero"/><path stroke="#cccccc" stroke-width="1.0" stroke-linecap="butt" d="M45.5 78.5L714.5 78.5" fill-rule="nonzero"/><path stroke="#cccccc" stroke-width="1.0" stroke-linecap="butt" d="M45.5 25.5L714.5 25.5" fill-rule="nonzero"/><clipPath id="id_0"><path d="M45.55 25.55L714.45 25.55L714.45 289.17435L45.55 289.17435L45.55 25.55Z" clip-rule="nonzero"/></clipPath><path stroke="#000000" stroke-width="2.0" stroke-linecap="butt" stroke-opacity="0.0" clip-path="url(#id_0)" d="M104.0 289.0L66.0 289.0L66.0 289.0L104.0 289.0Z" fill-rule="nonzero"/><path fill="#4285f4" clip-path="url(#id_0)" d="M104.0 289.0L66.0 289.0L66.0 289.0L104.0 289.0Z" fill-rule="nonzero"/><path stroke="#000000" stroke-width="2.0" stroke-linecap="butt" stroke-opacity="0.0" clip-path="url(#id_0)" d="M163.0 289.0L125.0 289.0L125.0 286.0C125.0 284.89542 125.89543 284.0 127.0 284.0L161.0 284.0C162.10457 284.0 163.0 284.89542 163.0 286.0Z" fill-rule="nonzero"/><path fill="#4285f4" clip-path="url(#id_0)" d="M163.0 289.0L125.0 289.0L125.0 286.0C125.0 284.89542 125.89543 284.0 127.0 284.0L161.0 284.0C162.10457 284.0 163.0 284.89542 163.0 286.0Z" fill-rule="nonzero"/><path stroke="#000000" stroke-width="2.0" stroke-linecap="butt" stroke-opacity="0.0" clip-path="url(#id_0)" d="M222.0 289.0L184.0 289.0L184.0 270.0C184.0 268.89542 184.89543 268.0 186.0 268.0L220.0 268.0C221.10457 268.0 222.0 268.89542 222.0 270.0Z" fill-rule="nonzero"/><path fill="#4285f4" clip-path="url(#id_0)" d="M222.0 289.0L184.0 289.0L184.0 270.0C184.0 268.89542 184.89543 268.0 186.0 268.0L220.0 268.0C221.10457 268.0 222.0 268.89542 222.0 270.0Z" fill-rule="nonzero"/><path stroke="#000000" stroke-width="2.0" stroke-linecap="butt" stroke-opacity="0.0" clip-path="url(#id_0)" d="M281.0 289.0L243.0 289.0L243.0 223.0C243.0 221.89543 243.89543 221.0 245.0 221.0L279.0 221.0C280.10458 221.0 281.0 221.89543 281.0 223.0Z" fill-rule="nonzero"/><path fill="#4285f4" clip-path="url(#id_0)" d="M281.0 289.0L243.0 289.0L243.0 223.0C243.0 221.89543 243.89543 221.0 245.0 221.0L279.0 221.0C280.10458 221.0 281.0 221.89543 281.0 223.0Z" fill-rule="nonzero"/><path stroke="#000000" stroke-width="2.0" stroke-linecap="butt" stroke-opacity="0.0" clip-path="url(#id_0)" d="M340.0 289.0L302.0 289.0L302.0 228.0C302.0 226.89543 302.89542 226.0 304.0 226.0L338.0 226.0C339.10458 226.0 340.0 226.89543 340.0 228.0Z" fill-rule="nonzero"/><path fill="#4285f4" clip-path="url(#id_0)" d="M340.0 289.0L302.0 289.0L302.0 228.0C302.0 226.89543 302.89542 226.0 304.0 226.0L338.0 226.0C339.10458 226.0 340.0 226.89543 340.0 228.0Z" fill-rule="nonzero"/><path stroke="#000000" stroke-width="2.0" stroke-linecap="butt" stroke-opacity="0.0" clip-path="url(#id_0)" d="M399.0 289.0L361.0 289.0L361.0 64.0C361.0 62.89543 361.89542 62.0 363.0 62.0L397.0 62.0C398.10458 62.0 399.0 62.89543 399.0 64.0Z" fill-rule="nonzero"/><path fill="#4285f4" clip-path="url(#id_0)" d="M399.0 289.0L361.0 289.0L361.0 64.0C361.0 62.89543 361.89542 62.0 363.0 62.0L397.0 62.0C398.10458 62.0 399.0 62.89543 399.0 64.0Z" fill-rule="nonzero"/><path stroke="#000000" stroke-width="2.0" stroke-linecap="butt" stroke-opacity="0.0" clip-path="url(#id_0)" d="M458.0 289.0L420.0 289.0L420.0 202.0C420.0 200.89543 420.89542 200.0 422.0 200.0L456.0 200.0C457.10458 200.0 458.0 200.89543 458.0 202.0Z" fill-rule="nonzero"/><path fill="#4285f4" clip-path="url(#id_0)" d="M458.0 289.0L420.0 289.0L420.0 202.0C420.0 200.89543 420.89542 200.0 422.0 200.0L456.0 200.0C457.10458 200.0 458.0 200.89543 458.0 202.0Z" fill-rule="nonzero"/><path stroke="#000000" stroke-width="2.0" stroke-linecap="butt" stroke-opacity="0.0" clip-path="url(#id_0)" d="M517.0 289.0L479.0 289.0L479.0 260.0C479.0 258.89542 479.89542 258.0 481.0 258.0L515.0 258.0C516.10455 258.0 517.0 258.89542 517.0 260.0Z" fill-rule="nonzero"/><path fill="#4285f4" clip-path="url(#id_0)" d="M517.0 289.0L479.0 289.0L479.0 260.0C479.0 258.89542 479.89542 258.0 481.0 258.0L515.0 258.0C516.10455 258.0 517.0 258.89542 517.0 260.0Z" fill-rule="nonzero"/><path stroke="#000000" stroke-width="2.0" stroke-linecap="butt" stroke-opacity="0.0" clip-path="url(#id_0)" d="M576.0 289.0L538.0 289.0L538.0 275.0C538.0 273.89542 538.89545 273.0 540.0 273.0L574.0 273.0C575.10455 273.0 576.0 273.89542 576.0 275.0Z" fill-rule="nonzero"/><path fill="#4285f4" clip-path="url(#id_0)" d="M576.0 289.0L538.0 289.0L538.0 275.0C538.0 273.89542 538.89545 273.0 540.0 273.0L574.0 273.0C575.10455 273.0 576.0 273.89542 576.0 275.0Z" fill-rule="nonzero"/><path stroke="#000000" stroke-width="2.0" stroke-linecap="butt" stroke-opacity="0.0" clip-path="url(#id_0)" d="M635.0 289.0L597.0 289.0L597.0 281.0C597.0 279.89542 597.89545 279.0 599.0 279.0L633.0 279.0C634.10455 279.0 635.0 279.89542 635.0 281.0Z" fill-rule="nonzero"/><path fill="#4285f4" clip-path="url(#id_0)" d="M635.0 289.0L597.0 289.0L597.0 281.0C597.0 279.89542 597.89545 279.0 599.0 279.0L633.0 279.0C634.10455 279.0 635.0 279.89542 635.0 281.0Z" fill-rule="nonzero"/><path stroke="#000000" stroke-width="2.0" stroke-linecap="butt" stroke-opacity="0.0" clip-path="url(#id_0)" d="M694.0 289.0L656.0 289.0L656.0 275.0C656.0 273.89542 656.89545 273.0 658.0 273.0L692.0 273.0C693.10455 273.0 694.0 273.89542 694.0 275.0Z" fill-rule="nonzero"/><path fill="#4285f4" clip-path="url(#id_0)" d="M694.0 289.0L656.0 289.0L656.0 275.0C656.0 273.89542 656.89545 273.0 658.0 273.0L692.0 273.0C693.10455 273.0 694.0 273.89542 694.0 275.0Z" fill-rule="nonzero"/><path stroke="#ffffff" stroke-width="3.0" stroke-linejoin="round" stroke-linecap="round" d="M87.5625 270.53372Q87.5625 272.43997 86.90625 273.37747Q86.265625 274.29935 84.875 274.29935Q83.515625 274.29935 82.859375 273.3931Q82.203125 272.48685 82.171875 270.67435L82.171875 269.23685Q82.171875 267.34622 82.8125 266.43997Q83.46875 265.5181 84.859375 265.5181Q86.234375 265.5181 86.890625 266.40872Q87.546875 267.28372 87.5625 269.12747L87.5625 270.53372ZM86.46875 269.04935Q86.46875 267.67435 86.078125 267.04935Q85.703125 266.40872 84.859375 266.40872Q84.03125 266.40872 83.640625 267.04935Q83.265625 267.67435 83.265625 268.97122L83.265625 270.7056Q83.265625 272.0806 83.65625 272.75247Q84.0625 273.40872 84.875 273.40872Q85.671875 273.40872 86.0625 272.78372Q86.453125 272.15872 86.46875 270.8306L86.46875 269.04935Z" fill-rule="nonzero"/><path fill="#4285f4" d="M87.5625 270.53372Q87.5625 272.43997 86.90625 273.37747Q86.265625 274.29935 84.875 274.29935Q83.515625 274.29935 82.859375 273.3931Q82.203125 272.48685 82.171875 270.67435L82.171875 269.23685Q82.171875 267.34622 82.8125 266.43997Q83.46875 265.5181 84.859375 265.5181Q86.234375 265.5181 86.890625 266.40872Q87.546875 267.28372 87.5625 269.12747L87.5625 270.53372ZM86.46875 269.04935Q86.46875 267.67435 86.078125 267.04935Q85.703125 266.40872 84.859375 266.40872Q84.03125 266.40872 83.640625 267.04935Q83.265625 267.67435 83.265625 268.97122L83.265625 270.7056Q83.265625 272.0806 83.65625 272.75247Q84.0625 273.40872 84.875 273.40872Q85.671875 273.40872 86.0625 272.78372Q86.453125 272.15872 86.46875 270.8306L86.46875 269.04935Z" fill-rule="nonzero"/><path stroke="#ffffff" stroke-width="3.0" stroke-linejoin="round" stroke-linecap="round" d="M144.76562 268.90186L143.6875 268.90186L143.6875 261.6831L141.5 262.47998L141.5 261.4956L144.60938 260.32373L144.76562 260.32373L144.76562 268.90186Z" fill-rule="nonzero"/><path fill="#4285f4" d="M144.76562 268.90186L143.6875 268.90186L143.6875 261.6831L141.5 262.47998L141.5 261.4956L144.60938 260.32373L144.76562 260.32373L144.76562 268.90186Z" fill-rule="nonzero"/><path stroke="#4285f4" stroke-width="3.0" stroke-linejoin="round" stroke-linecap="round" d="M204.78125 280.27L205.96875 280.27L205.96875 281.145L204.78125 281.145L204.78125 283.12936L203.70312 283.12936L203.70312 281.145L199.8125 281.145L199.8125 280.50436L203.625 274.5981L204.78125 274.5981L204.78125 280.27ZM201.04688 280.27L203.70312 280.27L203.70312 276.0825L203.5625 276.31686L201.04688 280.27Z" fill-rule="nonzero"/><path fill="#ffffff" d="M204.78125 280.27L205.96875 280.27L205.96875 281.145L204.78125 281.145L204.78125 283.12936L203.70312 283.12936L203.70312 281.145L199.8125 281.145L199.8125 280.50436L203.625 274.5981L204.78125 274.5981L204.78125 280.27ZM201.04688 280.27L203.70312 280.27L203.70312 276.0825L203.5625 276.31686L201.04688 280.27Z" fill-rule="nonzero"/><path stroke="#4285f4" stroke-width="3.0" stroke-linejoin="round" stroke-linecap="round" d="M259.26562 237.43202L258.1875 237.43202L258.1875 230.21327L256.0 231.01015L256.0 230.02577L259.10938 228.8539L259.26562 228.8539L259.26562 237.43202ZM264.28125 232.63515L265.09375 232.63515Q265.875 232.61952 266.3125 232.2289Q266.75 231.83827 266.75 231.1664Q266.75 229.6664 265.25 229.6664Q264.54688 229.6664 264.125 230.07265Q263.71875 230.4789 263.71875 231.13515L262.625 231.13515Q262.625 230.11952 263.35938 229.44765Q264.10938 228.77577 265.25 228.77577Q266.45312 228.77577 267.14062 229.4164Q267.82812 230.05702 267.82812 231.19765Q267.82812 231.76015 267.46875 232.27577Q267.10938 232.7914 266.48438 233.05702Q267.1875 233.27577 267.5625 233.7914Q267.95312 234.30702 267.95312 235.05702Q267.95312 236.19765 267.20312 236.88515Q266.45312 237.55702 265.25 237.55702Q264.0625 237.55702 263.29688 236.90077Q262.54688 236.24452 262.54688 235.18202L263.64062 235.18202Q263.64062 235.8539 264.07812 236.26015Q264.51562 236.6664 265.26562 236.6664Q266.04688 236.6664 266.45312 236.26015Q266.875 235.83827 266.875 235.07265Q266.875 234.33827 266.42188 233.94765Q265.96875 233.5414 265.09375 233.52577L264.28125 233.52577L264.28125 232.63515Z" fill-rule="nonzero"/><path fill="#ffffff" d="M259.26562 237.43202L258.1875 237.43202L258.1875 230.21327L256.0 231.01015L256.0 230.02577L259.10938 228.8539L259.26562 228.8539L259.26562 237.43202ZM264.28125 232.63515L265.09375 232.63515Q265.875 232.61952 266.3125 232.2289Q266.75 231.83827 266.75 231.1664Q266.75 229.6664 265.25 229.6664Q264.54688 229.6664 264.125 230.07265Q263.71875 230.4789 263.71875 231.13515L262.625 231.13515Q262.625 230.11952 263.35938 229.44765Q264.10938 228.77577 265.25 228.77577Q266.45312 228.77577 267.14062 229.4164Q267.82812 230.05702 267.82812 231.19765Q267.82812 231.76015 267.46875 232.27577Q267.10938 232.7914 266.48438 233.05702Q267.1875 233.27577 267.5625 233.7914Q267.95312 234.30702 267.95312 235.05702Q267.95312 236.19765 267.20312 236.88515Q266.45312 237.55702 265.25 237.55702Q264.0625 237.55702 263.29688 236.90077Q262.54688 236.24452 262.54688 235.18202L263.64062 235.18202Q263.64062 235.8539 264.07812 236.26015Q264.51562 236.6664 265.26562 236.6664Q266.04688 236.6664 266.45312 236.26015Q266.875 235.83827 266.875 235.07265Q266.875 234.33827 266.42188 233.94765Q265.96875 233.5414 265.09375 233.52577L264.28125 233.52577L264.28125 232.63515Z" fill-rule="nonzero"/><path stroke="#4285f4" stroke-width="3.0" stroke-linejoin="round" stroke-linecap="round" d="M318.26562 242.70451L317.1875 242.70451L317.1875 235.48576L315.0 236.28264L315.0 235.29826L318.10938 234.12639L318.26562 234.12639L318.26562 242.70451ZM327.29688 242.70451L321.70312 242.70451L321.70312 241.92326L324.65625 238.64201Q325.3125 237.89201 325.5625 237.43889Q325.8125 236.97014 325.8125 236.47014Q325.8125 235.79826 325.40625 235.37639Q325.01562 234.93889 324.32812 234.93889Q323.53125 234.93889 323.07812 235.40764Q322.625 235.86076 322.625 236.68889L321.54688 236.68889Q321.54688 235.50139 322.29688 234.78264Q323.0625 234.04826 324.32812 234.04826Q325.53125 234.04826 326.21875 234.67326Q326.90625 235.29826 326.90625 236.34514Q326.90625 237.59514 325.29688 239.34514L323.01562 241.81389L327.29688 241.81389L327.29688 242.70451Z" fill-rule="nonzero"/><path fill="#ffffff" d="M318.26562 242.70451L317.1875 242.70451L317.1875 235.48576L315.0 236.28264L315.0 235.29826L318.10938 234.12639L318.26562 234.12639L318.26562 242.70451ZM327.29688 242.70451L321.70312 242.70451L321.70312 241.92326L324.65625 238.64201Q325.3125 237.89201 325.5625 237.43889Q325.8125 236.97014 325.8125 236.47014Q325.8125 235.79826 325.40625 235.37639Q325.01562 234.93889 324.32812 234.93889Q323.53125 234.93889 323.07812 235.40764Q322.625 235.86076 322.625 236.68889L321.54688 236.68889Q321.54688 235.50139 322.29688 234.78264Q323.0625 234.04826 324.32812 234.04826Q325.53125 234.04826 326.21875 234.67326Q326.90625 235.29826 326.90625 236.34514Q326.90625 237.59514 325.29688 239.34514L323.01562 241.81389L327.29688 241.81389L327.29688 242.70451Z" fill-rule="nonzero"/><path stroke="#4285f4" stroke-width="3.0" stroke-linejoin="round" stroke-linecap="round" d="M378.28125 76.39803L379.46875 76.39803L379.46875 77.27303L378.28125 77.27303L378.28125 79.25741L377.20312 79.25741L377.20312 77.27303L373.3125 77.27303L373.3125 76.63241L377.125 70.72616L378.28125 70.72616L378.28125 76.39803ZM374.54688 76.39803L377.20312 76.39803L377.20312 72.21053L377.0625 72.44491L374.54688 76.39803ZM382.28125 74.46053L383.09375 74.46053Q383.875 74.44491 384.3125 74.05428Q384.75 73.66366 384.75 72.99178Q384.75 71.49178 383.25 71.49178Q382.54688 71.49178 382.125 71.89803Q381.71875 72.30428 381.71875 72.96053L380.625 72.96053Q380.625 71.94491 381.35938 71.27303Q382.10938 70.60116 383.25 70.60116Q384.45312 70.60116 385.14062 71.24178Q385.82812 71.88241 385.82812 73.02303Q385.82812 73.58553 385.46875 74.10116Q385.10938 74.61678 384.48438 74.88241Q385.1875 75.10116 385.5625 75.61678Q385.95312 76.13241 385.95312 76.88241Q385.95312 78.02303 385.20312 78.71053Q384.45312 79.38241 383.25 79.38241Q382.0625 79.38241 381.29688 78.72616Q380.54688 78.06991 380.54688 77.00741L381.64062 77.00741Q381.64062 77.67928 382.07812 78.08553Q382.51562 78.49178 383.26562 78.49178Q384.04688 78.49178 384.45312 78.08553Q384.875 77.66366 384.875 76.89803Q384.875 76.16366 384.42188 75.77303Q383.96875 75.36678 383.09375 75.35116L382.28125 75.35116L382.28125 74.46053Z" fill-rule="nonzero"/><path fill="#ffffff" d="M378.28125 76.39803L379.46875 76.39803L379.46875 77.27303L378.28125 77.27303L378.28125 79.25741L377.20312 79.25741L377.20312 77.27303L373.3125 77.27303L373.3125 76.63241L377.125 70.72616L378.28125 70.72616L378.28125 76.39803ZM374.54688 76.39803L377.20312 76.39803L377.20312 72.21053L377.0625 72.44491L374.54688 76.39803ZM382.28125 74.46053L383.09375 74.46053Q383.875 74.44491 384.3125 74.05428Q384.75 73.66366 384.75 72.99178Q384.75 71.49178 383.25 71.49178Q382.54688 71.49178 382.125 71.89803Q381.71875 72.30428 381.71875 72.96053L380.625 72.96053Q380.625 71.94491 381.35938 71.27303Q382.10938 70.60116 383.25 70.60116Q384.45312 70.60116 385.14062 71.24178Q385.82812 71.88241 385.82812 73.02303Q385.82812 73.58553 385.46875 74.10116Q385.10938 74.61678 384.48438 74.88241Q385.1875 75.10116 385.5625 75.61678Q385.95312 76.13241 385.95312 76.88241Q385.95312 78.02303 385.20312 78.71053Q384.45312 79.38241 383.25 79.38241Q382.0625 79.38241 381.29688 78.72616Q380.54688 78.06991 380.54688 77.00741L381.64062 77.00741Q381.64062 77.67928 382.07812 78.08553Q382.51562 78.49178 383.26562 78.49178Q384.04688 78.49178 384.45312 78.08553Q384.875 77.66366 384.875 76.89803Q384.875 76.16366 384.42188 75.77303Q383.96875 75.36678 383.09375 75.35116L382.28125 75.35116L382.28125 74.46053Z" fill-rule="nonzero"/><path stroke="#4285f4" stroke-width="3.0" stroke-linejoin="round" stroke-linecap="round" d="M436.26562 216.34207L435.1875 216.34207L435.1875 209.12332L433.0 209.9202L433.0 208.93582L436.10938 207.76395L436.26562 207.76395L436.26562 216.34207ZM445.21875 208.4202L441.6875 216.34207L440.54688 216.34207L444.0625 208.70145L439.45312 208.70145L439.45312 207.81082L445.21875 207.81082L445.21875 208.4202Z" fill-rule="nonzero"/><path fill="#ffffff" d="M436.26562 216.34207L435.1875 216.34207L435.1875 209.12332L433.0 209.9202L433.0 208.93582L436.10938 207.76395L436.26562 207.76395L436.26562 216.34207ZM445.21875 208.4202L441.6875 216.34207L440.54688 216.34207L444.0625 208.70145L439.45312 208.70145L439.45312 207.81082L445.21875 207.81082L445.21875 208.4202Z" fill-rule="nonzero"/><path stroke="#4285f4" stroke-width="3.0" stroke-linejoin="round" stroke-linecap="round" d="M499.46875 265.80817L499.46875 266.71442L499.26562 266.71442Q498.0 266.74567 497.25 267.48004Q496.5 268.1988 496.375 269.5113Q497.0625 268.74567 498.21875 268.74567Q499.32812 268.74567 500.0 269.52692Q500.67188 270.30817 500.67188 271.55817Q500.67188 272.87067 499.95312 273.66754Q499.23438 274.46442 498.01562 274.46442Q496.79688 274.46442 496.03125 273.52692Q495.28125 272.5738 495.28125 271.08942L495.28125 270.68317Q495.28125 268.3238 496.28125 267.0738Q497.28125 265.8238 499.26562 265.80817L499.46875 265.80817ZM498.04688 269.65192Q497.48438 269.65192 497.01562 269.98004Q496.54688 270.30817 496.35938 270.8238L496.35938 271.21442Q496.35938 272.27692 496.82812 272.91754Q497.3125 273.55817 498.01562 273.55817Q498.75 273.55817 499.17188 273.02692Q499.59375 272.48004 499.59375 271.60504Q499.59375 270.73004 499.17188 270.1988Q498.75 269.65192 498.04688 269.65192Z" fill-rule="nonzero"/><path fill="#ffffff" d="M499.46875 265.80817L499.46875 266.71442L499.26562 266.71442Q498.0 266.74567 497.25 267.48004Q496.5 268.1988 496.375 269.5113Q497.0625 268.74567 498.21875 268.74567Q499.32812 268.74567 500.0 269.52692Q500.67188 270.30817 500.67188 271.55817Q500.67188 272.87067 499.95312 273.66754Q499.23438 274.46442 498.01562 274.46442Q496.79688 274.46442 496.03125 273.52692Q495.28125 272.5738 495.28125 271.08942L495.28125 270.68317Q495.28125 268.3238 496.28125 267.0738Q497.28125 265.8238 499.26562 265.80817L499.46875 265.80817ZM498.04688 269.65192Q497.48438 269.65192 497.01562 269.98004Q496.54688 270.30817 496.35938 270.8238L496.35938 271.21442Q496.35938 272.27692 496.82812 272.91754Q497.3125 273.55817 498.01562 273.55817Q498.75 273.55817 499.17188 273.02692Q499.59375 272.48004 499.59375 271.60504Q499.59375 270.73004 499.17188 270.1988Q498.75 269.65192 498.04688 269.65192Z" fill-rule="nonzero"/><path stroke="#ffffff" stroke-width="3.0" stroke-linejoin="round" stroke-linecap="round" d="M555.78125 253.56001L556.59375 253.56001Q557.375 253.54439 557.8125 253.15376Q558.25 252.76314 558.25 252.09126Q558.25 250.59126 556.75 250.59126Q556.0469 250.59126 555.625 250.99751Q555.21875 251.40376 555.21875 252.06001L554.125 252.06001Q554.125 251.04439 554.8594 250.37251Q555.6094 249.70064 556.75 249.70064Q557.9531 249.70064 558.6406 250.34126Q559.3281 250.98189 559.3281 252.12251Q559.3281 252.68501 558.96875 253.20064Q558.6094 253.71626 557.9844 253.98189Q558.6875 254.20064 559.0625 254.71626Q559.4531 255.23189 559.4531 255.98189Q559.4531 257.12253 558.7031 257.81003Q557.9531 258.4819 556.75 258.4819Q555.5625 258.4819 554.7969 257.82565Q554.0469 257.1694 554.0469 256.1069L555.1406 256.1069Q555.1406 256.77878 555.5781 257.18503Q556.0156 257.59128 556.7656 257.59128Q557.5469 257.59128 557.9531 257.18503Q558.375 256.76315 558.375 255.99751Q558.375 255.26314 557.9219 254.87251Q557.46875 254.46626 556.59375 254.45064L555.78125 254.45064L555.78125 253.56001Z" fill-rule="nonzero"/><path fill="#4285f4" d="M555.78125 253.56003L556.59375 253.56003Q557.375 253.5444 557.8125 253.15378Q558.25 252.76315 558.25 252.09128Q558.25 250.59128 556.75 250.59128Q556.0469 250.59128 555.625 250.99753Q555.21875 251.40378 555.21875 252.06003L554.125 252.06003Q554.125 251.0444 554.8594 250.37253Q555.6094 249.70065 556.75 249.70065Q557.9531 249.70065 558.6406 250.34128Q559.3281 250.9819 559.3281 252.12253Q559.3281 252.68503 558.96875 253.20065Q558.6094 253.71628 557.9844 253.9819Q558.6875 254.20065 559.0625 254.71628Q559.4531 255.2319 559.4531 255.9819Q559.4531 257.12253 558.7031 257.81003Q557.9531 258.4819 556.75 258.4819Q555.5625 258.4819 554.7969 257.82565Q554.0469 257.1694 554.0469 256.1069L555.1406 256.1069Q555.1406 256.77878 555.5781 257.18503Q556.0156 257.59128 556.7656 257.59128Q557.5469 257.59128 557.9531 257.18503Q558.375 256.76315 558.375 255.99753Q558.375 255.26315 557.9219 254.87253Q557.46875 254.46628 556.59375 254.45065L555.78125 254.45065L555.78125 253.56003Z" fill-rule="nonzero"/><path stroke="#ffffff" stroke-width="3.0" stroke-linejoin="round" stroke-linecap="round" d="M618.7969 263.62936L613.2031 263.62936L613.2031 262.8481L616.15625 259.56686Q616.8125 258.81686 617.0625 258.36374Q617.3125 257.895 617.3125 257.395Q617.3125 256.7231 616.90625 256.30124Q616.5156 255.86375 615.8281 255.86375Q615.03125 255.86375 614.5781 256.3325Q614.125 256.7856 614.125 257.61374L613.0469 257.61374Q613.0469 256.42624 613.7969 255.7075Q614.5625 254.97313 615.8281 254.97313Q617.03125 254.97313 617.71875 255.59813Q618.40625 256.2231 618.40625 257.27Q618.40625 258.52 616.7969 260.27L614.5156 262.73874L618.7969 262.73874L618.7969 263.62936Z" fill-rule="nonzero"/><path fill="#4285f4" d="M618.7969 263.62936L613.2031 263.62936L613.2031 262.8481L616.15625 259.56686Q616.8125 258.81686 617.0625 258.36374Q617.3125 257.895 617.3125 257.395Q617.3125 256.7231 616.90625 256.30124Q616.5156 255.86374 615.8281 255.86374Q615.03125 255.86374 614.5781 256.3325Q614.125 256.7856 614.125 257.61374L613.0469 257.61374Q613.0469 256.42624 613.7969 255.70749Q614.5625 254.97311 615.8281 254.97311Q617.03125 254.97311 617.71875 255.59811Q618.40625 256.2231 618.40625 257.27Q618.40625 258.52 616.7969 260.27L614.5156 262.73874L618.7969 262.73874L618.7969 263.62936Z" fill-rule="nonzero"/><path stroke="#ffffff" stroke-width="3.0" stroke-linejoin="round" stroke-linecap="round" d="M673.78125 253.56001L674.59375 253.56001Q675.375 253.54439 675.8125 253.15376Q676.25 252.76314 676.25 252.09126Q676.25 250.59126 674.75 250.59126Q674.0469 250.59126 673.625 250.99751Q673.21875 251.40376 673.21875 252.06001L672.125 252.06001Q672.125 251.04439 672.8594 250.37251Q673.6094 249.70064 674.75 249.70064Q675.9531 249.70064 676.6406 250.34126Q677.3281 250.98189 677.3281 252.12251Q677.3281 252.68501 676.96875 253.20064Q676.6094 253.71626 675.9844 253.98189Q676.6875 254.20064 677.0625 254.71626Q677.4531 255.23189 677.4531 255.98189Q677.4531 257.12253 676.7031 257.81003Q675.9531 258.4819 674.75 258.4819Q673.5625 258.4819 672.7969 257.82565Q672.0469 257.1694 672.0469 256.1069L673.1406 256.1069Q673.1406 256.77878 673.5781 257.18503Q674.0156 257.59128 674.7656 257.59128Q675.5469 257.59128 675.9531 257.18503Q676.375 256.76315 676.375 255.99751Q676.375 255.26314 675.9219 254.87251Q675.46875 254.46626 674.59375 254.45064L673.78125 254.45064L673.78125 253.56001Z" fill-rule="nonzero"/><path fill="#4285f4" d="M673.78125 253.56003L674.59375 253.56003Q675.375 253.5444 675.8125 253.15378Q676.25 252.76315 676.25 252.09128Q676.25 250.59128 674.75 250.59128Q674.0469 250.59128 673.625 250.99753Q673.21875 251.40378 673.21875 252.06003L672.125 252.06003Q672.125 251.0444 672.8594 250.37253Q673.6094 249.70065 674.75 249.70065Q675.9531 249.70065 676.6406 250.34128Q677.3281 250.9819 677.3281 252.12253Q677.3281 252.68503 676.96875 253.20065Q676.6094 253.71628 675.9844 253.9819Q676.6875 254.20065 677.0625 254.71628Q677.4531 255.2319 677.4531 255.9819Q677.4531 257.12253 676.7031 257.81003Q675.9531 258.4819 674.75 258.4819Q673.5625 258.4819 672.7969 257.82565Q672.0469 257.1694 672.0469 256.1069L673.1406 256.1069Q673.1406 256.77878 673.5781 257.18503Q674.0156 257.59128 674.7656 257.59128Q675.5469 257.59128 675.9531 257.18503Q676.375 256.76315 676.375 255.99753Q676.375 255.26315 675.9219 254.87253Q675.46875 254.46628 674.59375 254.45065L673.78125 254.45065L673.78125 253.56003Z" fill-rule="nonzero"/><path fill="#000000" d="M33.05 288.93997Q33.05 287.40872 33.3625 286.48685Q33.675 285.54935 34.284374 285.04935Q34.909374 284.54935 35.846874 284.54935Q36.534374 284.54935 37.05 284.8306Q37.58125 285.11185 37.925 285.6431Q38.26875 286.15872 38.45625 286.90872Q38.64375 287.65872 38.64375 288.93997Q38.64375 290.4556 38.33125 291.37747Q38.034374 292.29935 37.409374 292.81497Q36.8 293.31497 35.846874 293.31497Q34.6125 293.31497 33.89375 292.42435Q33.05 291.36185 33.05 288.93997ZM34.128124 288.93997Q34.128124 291.04935 34.628124 291.75247Q35.128124 292.4556 35.846874 292.4556Q36.58125 292.4556 37.065624 291.75247Q37.565624 291.04935 37.565624 288.93997Q37.565624 286.81497 37.065624 286.12747Q36.58125 285.42435 35.83125 285.42435Q35.1125 285.42435 34.675 286.03372Q34.128124 286.81497 34.128124 288.93997Z" fill-rule="nonzero"/><path fill="#000000" d="M30.01875 240.44948L28.971874 240.44948L28.971874 233.73073Q28.58125 234.0901 27.95625 234.4651Q27.346874 234.82448 26.8625 234.99635L26.8625 233.98073Q27.7375 233.55885 28.39375 232.98073Q29.065624 232.38698 29.346874 231.82448L30.01875 231.82448L30.01875 240.44948ZM33.05 236.2151Q33.05 234.68385 33.3625 233.76198Q33.675 232.82448 34.284374 232.32448Q34.909374 231.82448 35.846874 231.82448Q36.534374 231.82448 37.05 232.10573Q37.58125 232.38698 37.925 232.91823Q38.26875 233.43385 38.45625 234.18385Q38.64375 234.93385 38.64375 236.2151Q38.64375 237.73073 38.33125 238.6526Q38.034374 239.57448 37.409374 240.0901Q36.8 240.5901 35.846874 240.5901Q34.6125 240.5901 33.89375 239.69948Q33.05 238.63698 33.05 236.2151ZM34.128124 236.2151Q34.128124 238.32448 34.628124 239.0276Q35.128124 239.73073 35.846874 239.73073Q36.58125 239.73073 37.065624 239.0276Q37.565624 238.32448 37.565624 236.2151Q37.565624 234.0901 37.065624 233.4026Q36.58125 232.69948 35.83125 232.69948Q35.1125 232.69948 34.675 233.30885Q34.128124 234.0901 34.128124 236.2151Z" fill-rule="nonzero"/><path fill="#000000" d="M31.596874 186.70898L31.596874 187.72461L25.909374 187.72461Q25.909374 187.34961 26.034374 186.99023Q26.253124 186.41211 26.721874 185.84961Q27.20625 185.28711 28.1125 184.55273Q29.51875 183.39648 30.003124 182.72461Q30.503124 182.05273 30.503124 181.45898Q30.503124 180.83398 30.05 180.41211Q29.596874 179.97461 28.878124 179.97461Q28.1125 179.97461 27.659374 180.42773Q27.20625 180.88086 27.190624 181.69336L26.1125 181.58398Q26.221874 180.36523 26.940624 179.74023Q27.675 179.09961 28.909374 179.09961Q30.14375 179.09961 30.8625 179.78711Q31.58125 180.47461 31.58125 181.49023Q31.58125 182.00586 31.3625 182.50586Q31.159374 182.99023 30.659374 183.55273Q30.175 184.09961 29.05 185.05273Q28.096874 185.84961 27.815624 186.14648Q27.55 186.42773 27.378124 186.70898L31.596874 186.70898ZM33.05 183.49023Q33.05 181.95898 33.3625 181.03711Q33.675 180.09961 34.284374 179.59961Q34.909374 179.09961 35.846874 179.09961Q36.534374 179.09961 37.05 179.38086Q37.58125 179.66211 37.925 180.19336Q38.26875 180.70898 38.45625 181.45898Q38.64375 182.20898 38.64375 183.49023Q38.64375 185.00586 38.33125 185.92773Q38.034374 186.84961 37.409374 187.36523Q36.8 187.86523 35.846874 187.86523Q34.6125 187.86523 33.89375 186.97461Q33.05 185.91211 33.05 183.49023ZM34.128124 183.49023Q34.128124 185.59961 34.628124 186.30273Q35.128124 187.00586 35.846874 187.00586Q36.58125 187.00586 37.065624 186.30273Q37.565624 185.59961 37.565624 183.49023Q37.565624 181.36523 37.065624 180.67773Q36.58125 179.97461 35.83125 179.97461Q35.1125 179.97461 34.675 180.58398Q34.128124 181.36523 34.128124 183.49023Z" fill-rule="nonzero"/><path fill="#000000" d="M26.05 132.73412L27.1125 132.59349Q27.284374 133.48412 27.721874 133.89037Q28.159374 134.28099 28.784374 134.28099Q29.534374 134.28099 30.05 133.76537Q30.565624 133.24974 30.565624 132.48412Q30.565624 131.76537 30.08125 131.29662Q29.6125 130.81224 28.878124 130.81224Q28.58125 130.81224 28.128124 130.93724L28.253124 129.99974Q28.3625 130.01537 28.425 130.01537Q29.096874 130.01537 29.628124 129.67162Q30.175 129.31224 30.175 128.57787Q30.175 127.99974 29.784374 127.62474Q29.39375 127.234116 28.76875 127.234116Q28.159374 127.234116 27.7375 127.62474Q27.33125 128.01537 27.221874 128.78099L26.159374 128.59349Q26.346874 127.546616 27.034374 126.96849Q27.721874 126.37474 28.7375 126.37474Q29.440624 126.37474 30.034374 126.68724Q30.628124 126.984116 30.940624 127.49974Q31.253124 128.01537 31.253124 128.60912Q31.253124 129.15599 30.95625 129.62474Q30.659374 130.07787 30.08125 130.34349Q30.83125 130.51537 31.253124 131.07787Q31.675 131.62474 31.675 132.46849Q31.675 133.59349 30.846874 134.37474Q30.034374 135.15599 28.784374 135.15599Q27.659374 135.15599 26.909374 134.48412Q26.159374 133.79662 26.05 132.73412ZM33.05 130.76537Q33.05 129.23412 33.3625 128.31224Q33.675 127.37474 34.284374 126.87474Q34.909374 126.37474 35.846874 126.37474Q36.534374 126.37474 37.05 126.65599Q37.58125 126.93724 37.925 127.46849Q38.26875 127.984116 38.45625 128.73412Q38.64375 129.48412 38.64375 130.76537Q38.64375 132.28099 38.33125 133.20287Q38.034374 134.12474 37.409374 134.64037Q36.8 135.14037 35.846874 135.14037Q34.6125 135.14037 33.89375 134.24974Q33.05 133.18724 33.05 130.76537ZM34.128124 130.76537Q34.128124 132.87474 34.628124 133.57787Q35.128124 134.28099 35.846874 134.28099Q36.58125 134.28099 37.065624 133.57787Q37.565624 132.87474 37.565624 130.76537Q37.565624 128.64037 37.065624 127.952866Q36.58125 127.24974 35.83125 127.24974Q35.1125 127.24974 34.675 127.859116Q34.128124 128.64037 34.128124 130.76537Z" fill-rule="nonzero"/><path fill="#000000" d="M29.425 82.27487L29.425 80.21237L25.70625 80.21237L25.70625 79.24362L29.628124 73.68112L30.4875 73.68112L30.4875 79.24362L31.64375 79.24362L31.64375 80.21237L30.4875 80.21237L30.4875 82.27487L29.425 82.27487ZM29.425 79.24362L29.425 75.38425L26.7375 79.24362L29.425 79.24362ZM33.05 78.0405Q33.05 76.50925 33.3625 75.58737Q33.675 74.64987 34.284374 74.14987Q34.909374 73.64987 35.846874 73.64987Q36.534374 73.64987 37.05 73.93112Q37.58125 74.21237 37.925 74.74362Q38.26875 75.25925 38.45625 76.00925Q38.64375 76.75925 38.64375 78.0405Q38.64375 79.55612 38.33125 80.478Q38.034374 81.39987 37.409374 81.9155Q36.8 82.4155 35.846874 82.4155Q34.6125 82.4155 33.89375 81.52487Q33.05 80.46237 33.05 78.0405ZM34.128124 78.0405Q34.128124 80.14987 34.628124 80.853Q35.128124 81.55612 35.846874 81.55612Q36.58125 81.55612 37.065624 80.853Q37.565624 80.14987 37.565624 78.0405Q37.565624 75.9155 37.065624 75.228Q36.58125 74.52487 35.83125 74.52487Q35.1125 74.52487 34.675 75.13425Q34.128124 75.9155 34.128124 78.0405Z" fill-rule="nonzero"/><path fill="#000000" d="M26.05 27.3L27.159374 27.20625Q27.284374 28.01875 27.721874 28.425Q28.175 28.83125 28.815624 28.83125Q29.565624 28.83125 30.096874 28.253124Q30.628124 27.675 30.628124 26.7375Q30.628124 25.83125 30.1125 25.315624Q29.6125 24.784374 28.784374 24.784374Q28.284374 24.784374 27.8625 25.01875Q27.45625 25.253124 27.221874 25.6125L26.2375 25.4875L27.065624 21.08125L31.346874 21.08125L31.346874 22.08125L27.909374 22.08125L27.45625 24.39375Q28.221874 23.846874 29.065624 23.846874Q30.190624 23.846874 30.95625 24.628124Q31.7375 25.409374 31.7375 26.64375Q31.7375 27.8 31.065624 28.659374Q30.2375 29.690624 28.815624 29.690624Q27.64375 29.690624 26.89375 29.034374Q26.159374 28.378124 26.05 27.3ZM33.05 25.315624Q33.05 23.784374 33.3625 22.8625Q33.675 21.925 34.284374 21.425Q34.909374 20.925 35.846874 20.925Q36.534374 20.925 37.05 21.20625Q37.58125 21.4875 37.925 22.01875Q38.26875 22.534374 38.45625 23.284374Q38.64375 24.034374 38.64375 25.315624Q38.64375 26.83125 38.33125 27.753124Q38.034374 28.675 37.409374 29.190624Q36.8 29.690624 35.846874 29.690624Q34.6125 29.690624 33.89375 28.8Q33.05 27.7375 33.05 25.315624ZM34.128124 25.315624Q34.128124 27.425 34.628124 28.128124Q35.128124 28.83125 35.846874 28.83125Q36.58125 28.83125 37.065624 28.128124Q37.565624 27.425 37.565624 25.315624Q37.565624 23.190624 37.065624 22.503124Q36.58125 21.8 35.83125 21.8Q35.1125 21.8 34.675 22.409374Q34.128124 23.190624 34.128124 25.315624Z" fill-rule="nonzero"/><path fill="#000000" d="M41.324055 354.73706L35.247356 348.66037L35.998657 347.90906L42.075356 353.98575L41.324055 354.73706ZM45.058464 348.17422L45.92025 347.48923Q46.417435 348.33997 46.295902 349.2128Q46.174366 350.08563 45.412018 350.84796Q44.450794 351.8092 43.279648 351.7871Q42.119553 351.75394 41.047844 350.68225Q39.94299 349.5774 39.909843 348.3952Q39.86565 347.20197 40.77163 346.29596Q41.655514 345.41208 42.80456 345.45627Q43.964657 345.48944 45.058464 346.58322Q45.124756 346.64954 45.25734 346.7821L41.97592 350.06354Q42.749317 350.74854 43.500618 350.77063Q44.24087 350.78168 44.7933 350.22925Q45.202095 349.82047 45.279434 349.32327Q45.356773 348.804 45.058464 348.17422ZM41.412445 349.41165L43.865223 346.9589Q43.257553 346.4396 42.749317 346.39542Q41.953823 346.3291 41.390347 346.89258Q40.871067 347.41187 40.860016 348.10794Q40.860016 348.79294 41.412445 349.41165ZM46.804134 346.62744L47.42285 345.78775Q47.931084 346.1634 48.43932 346.1192Q48.9586 346.06396 49.477882 345.54468Q49.986115 345.03644 50.030308 344.59448Q50.0745 344.13046 49.78724 343.8432Q49.533123 343.58908 49.16852 343.6664Q48.914406 343.72165 48.152058 344.17465Q47.124542 344.78232 46.660503 344.9591Q46.196465 345.11377 45.76557 345.01434Q45.33468 344.91492 45.00322 344.58344Q44.715958 344.29617 44.594425 343.9095Q44.472893 343.5228 44.53918 343.12503Q44.594425 342.82672 44.804348 342.44003Q45.01427 342.0533 45.367825 341.69977Q45.876057 341.19153 46.417435 340.95953Q46.958813 340.7054 47.400757 340.7717Q47.842697 340.83798 48.328835 341.19153L47.699066 342.02017Q47.323414 341.7329 46.89252 341.78818Q46.461628 341.82132 46.019688 342.26324Q45.511456 342.77148 45.46726 343.16922Q45.412018 343.55594 45.644035 343.78796Q45.787666 343.93158 45.98654 343.95367Q46.20751 343.97577 46.47268 343.8653Q46.627357 343.799 47.323414 343.3902Q48.33988 342.81567 48.781822 342.63892Q49.223766 342.46213 49.65466 342.53946Q50.085552 342.6168 50.47225 343.0035Q50.8479 343.37915 50.958385 343.93158Q51.06887 344.4619 50.8479 345.05853Q50.615883 345.6441 50.0966 346.1634Q49.234814 347.02518 48.42827 347.1246Q47.621727 347.20197 46.804134 346.62744ZM51.75388 341.67767L52.3726 340.83798Q52.880833 341.21365 53.389065 341.16943Q53.908348 341.1142 54.427628 340.5949Q54.935863 340.0867 54.980057 339.64474Q55.02425 339.1807 54.736988 338.89343Q54.482872 338.63934 54.11827 338.71667Q53.864155 338.7719 53.101803 339.2249Q52.074287 339.83258 51.61025 340.00934Q51.14621 340.16403 50.715317 340.0646Q50.284424 339.96515 49.95297 339.6337Q49.665707 339.34644 49.544174 338.95975Q49.422638 338.57303 49.48893 338.1753Q49.544174 337.87698 49.754093 337.4903Q49.964016 337.10358 50.31757 336.75003Q50.8258 336.2418 51.367184 336.00977Q51.90856 335.75565 52.350502 335.82196Q52.792446 335.88824 53.27858 336.2418L52.648815 337.07043Q52.273163 336.78317 51.84227 336.8384Q51.411377 336.87155 50.969437 337.3135Q50.4612 337.82175 50.417007 338.21948Q50.361763 338.60617 50.593784 338.8382Q50.737415 338.98184 50.93629 339.00394Q51.15726 339.02603 51.422424 338.91556Q51.577106 338.84924 52.273163 338.44046Q53.289627 337.86594 53.73157 337.68915Q54.17351 337.5124 54.604404 337.58972Q55.035297 337.66705 55.421997 338.05377Q55.79765 338.4294 55.908134 338.98184Q56.01862 339.51218 55.79765 340.1088Q55.565628 340.69437 55.04635 341.21365Q54.184563 342.07544 53.378017 342.17487Q52.571472 342.2522 51.75388 341.67767ZM61.39926 333.33603L62.16161 333.8774Q61.907494 334.2641 61.664425 334.50717Q61.25563 334.916 60.913124 335.0154Q60.55957 335.1038 60.25021 334.99332Q59.9519 334.87177 59.27794 334.1978L56.74782 331.6677L56.206444 332.20908L55.63192 331.63455L56.173298 331.09317L55.079494 329.99936L55.377804 328.81717L56.91355 330.35294L57.664852 329.60162L58.239376 330.17615L57.488075 330.92746L60.062386 333.50177Q60.382793 333.82217 60.50433 333.8774Q60.63691 333.9216 60.78054 333.88846Q60.92417 333.85532 61.0899 333.68958Q61.222485 333.557 61.39926 333.33603ZM62.559357 333.50177L56.48266 327.42505L57.22291 326.6848L59.399475 328.86136Q59.322132 327.74545 60.11763 326.94998Q60.614815 326.4528 61.16724 326.2981Q61.71967 326.12134 62.21685 326.30914Q62.702988 326.48593 63.35485 327.1378L66.139084 329.92203L65.398834 330.6623L62.6146 327.87805Q62.051125 327.31458 61.55394 327.30353Q61.056755 327.29248 60.614815 327.7344Q60.283356 328.0659 60.161823 328.54095Q60.04029 328.99396 60.206017 329.42484Q60.371746 329.83365 60.891026 330.35294L63.29961 332.7615L62.559357 333.50177ZM69.84035 325.138Q69.774055 325.9114 69.53099 326.44174Q69.298965 326.96103 68.857025 327.40295Q68.12782 328.13217 67.38757 328.1653Q66.647316 328.19846 66.094894 327.64603Q65.77448 327.32562 65.65295 326.91684Q65.52036 326.49698 65.60876 326.09924Q65.6861 325.69043 65.90707 325.3148Q66.0507 325.03857 66.44844 324.53033Q67.24394 323.53598 67.52015 322.9504Q67.36547 322.79572 67.33233 322.76257Q66.868286 322.29852 66.47054 322.32062Q65.94021 322.36484 65.37673 322.9283Q64.85745 323.44757 64.79116 323.88953Q64.71382 324.3204 65.05633 324.90598L64.227684 325.53577Q63.863087 324.9723 63.807842 324.453Q63.752598 323.93372 64.02882 323.34814Q64.30502 322.76257 64.8685 322.1991Q65.43198 321.63562 65.91811 321.41464Q66.40425 321.19366 66.76885 321.22684Q67.13345 321.25998 67.5091 321.50305Q67.73007 321.6577 68.22726 322.1549L69.22163 323.14926Q70.26019 324.18784 70.5806 324.41986Q70.912056 324.64084 71.30981 324.7513L70.52536 325.53577Q70.18285 325.4142 69.84035 325.138ZM68.10573 323.53598Q67.862656 324.1105 67.17765 325.03857Q66.7799 325.5689 66.680466 325.84512Q66.56998 326.1103 66.614174 326.37546Q66.66942 326.62958 66.868286 326.82843Q67.1666 327.12674 67.58644 327.10464Q68.017334 327.0715 68.44823 326.64062Q68.87913 326.20972 69.02276 325.69043Q69.17744 325.1601 69.000656 324.67398Q68.86807 324.2983 68.38194 323.8122L68.10573 323.53598ZM72.458855 323.60226L68.06153 319.20496L68.72444 318.54202L69.34316 319.16074Q69.111145 317.95645 70.028175 317.03943Q70.42592 316.6417 70.90101 316.45386Q71.387146 316.25497 71.78489 316.32126Q72.18264 316.38757 72.55829 316.63065Q72.80135 316.8074 73.32064 317.3267L76.027534 320.03357L75.28728 320.77383L72.61353 318.1001Q72.14949 317.63605 71.84013 317.50348Q71.53078 317.37088 71.17722 317.45926Q70.81262 317.53662 70.514305 317.83493Q70.03922 318.31 69.995026 318.97293Q69.950836 319.61374 70.79052 320.45343L73.199104 322.862L72.458855 323.60226ZM77.729004 315.15012L78.44716 314.29938Q79.11008 314.78552 79.706696 314.76343Q80.31437 314.7303 80.76736 314.27728Q81.29768 313.74695 81.26454 312.96252Q81.23139 312.17807 80.56848 311.51517Q79.927666 310.87433 79.19846 310.87433Q78.46926 310.85223 77.88369 311.4378Q77.530136 311.79138 77.39755 312.2554Q77.27602 312.7084 77.3644 313.12823L76.579956 313.7359L74.04984 310.03464L77.07714 307.00735L77.78425 307.71445L75.35357 310.14514L76.66835 312.10074Q76.82303 311.17264 77.41965 310.57602Q78.21514 309.78055 79.30895 309.7916Q80.4138 309.7916 81.28664 310.66443Q82.10423 311.482 82.23682 312.56476Q82.38045 313.87955 81.37502 314.88495Q80.54639 315.7136 79.55202 315.7799Q78.568695 315.83514 77.729004 315.15012ZM81.27559 308.7972Q80.19283 307.71445 79.76194 306.8416Q79.32 305.95773 79.39734 305.17328Q79.485725 304.3778 80.148636 303.71487Q80.63477 303.22876 81.19825 303.06302Q81.77277 302.88623 82.391495 303.01883Q82.99916 303.14035 83.66207 303.53812Q84.32499 303.93585 85.230965 304.84183Q86.30267 305.91354 86.73357 306.78638Q87.175514 307.64816 87.098175 308.4547Q87.020836 309.23917 86.34687 309.91312Q85.47404 310.78595 84.33604 310.66443Q82.98811 310.50974 81.27559 308.7972ZM82.03794 308.03485Q83.529495 309.52643 84.38023 309.67004Q85.230965 309.8137 85.739204 309.30545Q86.258484 308.78616 86.103806 307.94647Q85.960175 307.09573 84.46862 305.6042Q82.96602 304.1016 82.12633 303.969Q81.28664 303.81433 80.75631 304.34467Q80.24808 304.85287 80.369606 305.59314Q80.53534 306.53226 82.03794 308.03485ZM89.42941 306.6317L83.352715 300.555L84.10402 299.8037L87.57326 303.27295L87.540115 299.72635L88.51238 298.7541L88.44609 302.06866L93.07543 302.9857L92.1584 303.9027L88.44609 303.1072L88.43504 304.13474L90.18072 305.8804L89.42941 306.6317Z" fill-rule="nonzero"/><path fill="#000000" d="M115.44972 336.36334L116.16788 335.5126Q116.830795 335.99872 117.427414 335.97662Q118.03509 335.94348 118.488075 335.4905Q119.0184 334.96017 118.98526 334.17572Q118.95211 333.39127 118.2892 332.72836Q117.648384 332.08755 116.91918 332.08755Q116.18998 332.06546 115.60441 332.65103Q115.250854 333.00458 115.11827 333.4686Q114.996735 333.9216 115.08512 334.34143L114.300674 334.94913L111.77056 331.24786L114.79786 328.22055L115.50497 328.92767L113.07429 331.35834L114.38907 333.31393Q114.54375 332.38586 115.140366 331.78925Q115.93586 330.99374 117.02966 331.0048Q118.13452 331.0048 119.007355 331.87762Q119.82495 332.69522 119.95753 333.77798Q120.10116 335.09274 119.09574 336.09818Q118.267105 336.92682 117.272736 336.9931Q116.28941 337.04834 115.44972 336.36334ZM118.99631 330.0104Q117.91355 328.92767 117.48266 328.0548Q117.04072 327.17093 117.11806 326.3865Q117.20644 325.591 117.869354 324.9281Q118.35549 324.44196 118.91897 324.2762Q119.49349 324.09946 120.11221 324.23203Q120.71988 324.35358 121.38279 324.7513Q122.04571 325.14905 122.95168 326.05502Q124.02339 327.12674 124.454285 327.99957Q124.89623 328.86136 124.81889 329.6679Q124.74155 330.45236 124.06759 331.1263Q123.194756 331.99915 122.056755 331.87762Q120.70883 331.72293 118.99631 330.0104ZM119.75866 329.24808Q121.25021 330.73962 122.100945 330.88324Q122.95168 331.0269 123.45992 330.51865Q123.9792 329.99936 123.824524 329.15967Q123.68089 328.30893 122.18934 326.81738Q120.68674 325.3148 119.847046 325.1822Q119.007355 325.02753 118.47703 325.55786Q117.968796 326.0661 118.090324 326.80634Q118.25606 327.74545 119.75866 329.24808ZM127.15013 327.8449L121.07343 321.7682L121.82474 321.0169L125.293976 324.48615L125.26083 320.93958L126.2331 319.9673L126.16681 323.28186L130.79616 324.19888L129.87912 325.1159L126.16681 324.3204L126.15576 325.34793L127.901436 327.0936L127.15013 327.8449ZM131.39278 319.95624L130.64148 319.20493L132.93958 316.90683L133.69087 317.65814L131.39278 319.95624ZM133.0169 311.4157L132.29875 310.69757L136.23204 306.76428L136.81761 307.34985Q136.8618 308.5431 137.31479 310.14514Q137.76778 311.72507 138.54118 313.1172Q139.07152 314.11157 139.92224 315.07278L139.14885 315.8462Q138.44174 315.11697 137.69044 313.83536Q136.9502 312.54266 136.50826 311.10635Q136.07736 309.659 136.00002 308.43262L133.0169 311.4157ZM141.61267 310.20038L142.33083 309.34964Q142.99374 309.8358 143.59036 309.8137Q144.19803 309.78055 144.65103 309.32755Q145.18135 308.7972 145.14821 308.01276Q145.11507 307.22833 144.45215 306.5654Q143.81134 305.9246 143.08214 305.9246Q142.35294 305.9025 141.76735 306.48807Q141.4138 306.8416 141.28122 307.30566Q141.15968 307.75864 141.24808 308.1785L140.46362 308.78616L137.93352 305.0849L140.96082 302.0576L141.66792 302.7647L139.23724 305.19537L140.55202 307.15097Q140.7067 306.2229 141.30331 305.62628Q142.09882 304.83078 143.19261 304.84183Q144.29747 304.84183 145.1703 305.71466Q145.9879 306.53226 146.12048 307.61502Q146.26411 308.9298 145.2587 309.9352Q144.43005 310.76385 143.43568 310.83014Q142.45236 310.88538 141.61267 310.20038ZM148.36334 306.63168L142.28664 300.555L143.03793 299.8037L146.50719 303.27295L146.47403 299.72635L147.4463 298.7541L147.38002 302.06866L152.00935 302.9857L151.09233 303.9027L147.38002 303.1072L147.36897 304.13474L149.11464 305.8804L148.36334 306.63168Z" fill-rule="nonzero"/><path fill="#000000" d="M170.03052 333.33603L169.31236 332.6179L173.24564 328.6846L173.8312 329.27017Q173.87541 330.4634 174.3284 332.06546Q174.78139 333.6454 175.5548 335.0375Q176.08511 336.0319 176.93585 336.9931L176.16246 337.7665Q175.45535 337.0373 174.70406 335.75568Q173.96379 334.46298 173.52185 333.02667Q173.09096 331.5793 173.01363 330.35294L170.03052 333.33603ZM178.62628 332.1207L179.34444 331.26996Q180.00735 331.7561 180.60397 331.734Q181.21164 331.70084 181.66463 331.24786Q182.19496 330.71753 182.16182 329.93307Q182.12868 329.14862 181.46576 328.48572Q180.82494 327.8449 180.09573 327.8449Q179.36653 327.8228 178.78096 328.4084Q178.42741 328.76193 178.29483 329.22598Q178.1733 329.67896 178.26167 330.09882L177.47723 330.70648L174.94711 327.00522L177.97441 323.9779L178.68152 324.68503L176.25084 327.1157L177.56563 329.0713Q177.7203 328.14322 178.31693 327.5466Q179.11241 326.7511 180.20622 326.76215Q181.31108 326.76215 182.18391 327.63498Q183.00151 328.45258 183.1341 329.53534Q183.27773 330.8501 182.27231 331.85553Q181.44366 332.68417 180.4493 332.75046Q179.46597 332.8057 178.62628 332.1207ZM185.37694 328.552L179.30025 322.4753L180.05154 321.724L183.52078 325.19327L183.48764 321.64667L184.45992 320.6744L184.39362 323.98895L189.02296 324.906L188.10593 325.82303L184.39362 325.02753L184.38257 326.05505L186.12825 327.80072L185.37694 328.552ZM187.49826 322.78467L186.74696 322.0334L189.04506 319.7353L189.79636 320.48657L187.49826 322.78467ZM195.04442 318.88455L194.30417 319.6248L189.5533 314.8739Q189.53119 315.40424 189.35442 316.11136Q189.17764 316.79636 188.95667 317.2604L188.23851 316.54224Q188.55893 315.6252 188.61417 314.75238Q188.6694 313.85745 188.47054 313.26083L188.94562 312.78574L195.04442 318.88455ZM194.19368 313.74698Q193.11092 312.6642 192.68002 311.79138Q192.23808 310.9075 192.31543 310.12305Q192.40381 309.32755 193.06673 308.66464Q193.55286 308.1785 194.11633 308.01276Q194.69086 307.836 195.30959 307.96857Q195.91725 308.09012 196.58017 308.48785Q197.24307 308.88562 198.14906 309.7916Q199.22076 310.86328 199.65166 311.73615Q200.0936 312.59793 200.01627 313.40445Q199.93892 314.1889 199.26495 314.86285Q198.39212 315.73572 197.25412 315.61417Q195.9062 315.4595 194.19368 313.74698ZM194.95602 312.98462Q196.44759 314.47617 197.29832 314.6198Q198.14906 314.76343 198.65729 314.2552Q199.17657 313.73593 199.0219 312.89624Q198.87827 312.0455 197.3867 310.55392Q195.88411 309.05133 195.04442 308.91876Q194.20473 308.76407 193.6744 309.2944Q193.16617 309.80264 193.2877 310.54288Q193.45343 311.48203 194.95602 312.98462ZM199.14343 308.7972Q198.06067 307.71445 197.62978 306.8416Q197.18784 305.95773 197.26517 305.1733Q197.35356 304.3778 198.01648 303.71487Q198.50261 303.22876 199.06609 303.06302Q199.64061 302.88626 200.25932 303.01883Q200.867 303.14035 201.5299 303.53812Q202.19283 303.93585 203.0988 304.84183Q204.17052 305.91354 204.60141 306.78638Q205.04335 307.64816 204.966 308.4547Q204.88867 309.23917 204.2147 309.91312Q203.34187 310.78595 202.20387 310.66443Q200.85596 310.50974 199.14343 308.7972ZM199.90578 308.03488Q201.39732 309.52643 202.24806 309.67004Q203.0988 309.8137 203.60704 309.30545Q204.12633 308.78616 203.97163 307.94647Q203.828 307.09573 202.33646 305.6042Q200.83385 304.1016 199.99417 303.969Q199.15448 303.81433 198.62415 304.34467Q198.1159 304.85287 198.23744 305.59314Q198.40317 306.53226 199.90578 308.03488ZM207.29726 306.6317L201.22055 300.555L201.97185 299.8037L205.4411 303.27295L205.40794 299.72635L206.38022 298.7541L206.31393 302.06866L210.94327 302.9857L210.02625 303.9027L206.31393 303.1072L206.30289 304.13474L208.04855 305.8804L207.29726 306.6317Z" fill-rule="nonzero"/><path fill="#000000" d="M232.05803 340.80484L231.31778 341.5451L226.56691 336.79422Q226.54482 337.32455 226.36803 338.03165Q226.19125 338.71667 225.97029 339.1807L225.25214 338.46255Q225.57254 337.54553 225.62778 336.6727Q225.68303 335.77774 225.48415 335.18112L225.95924 334.70605L232.05803 340.80484ZM231.20729 335.66727Q230.12454 334.5845 229.69365 333.71167Q229.25171 332.8278 229.32904 332.04333Q229.41743 331.24786 230.08034 330.58493Q230.56648 330.09882 231.12996 329.93307Q231.70448 329.7563 232.3232 329.8889Q232.93086 330.0104 233.59378 330.40817Q234.2567 330.8059 235.16267 331.71188Q236.23439 332.7836 236.66528 333.65643Q237.10722 334.51822 237.02988 335.32477Q236.95255 336.10922 236.27858 336.78317Q235.40575 337.656 234.26775 337.5345Q232.91982 337.3798 231.20729 335.66727ZM231.96965 334.9049Q233.4612 336.39648 234.31194 336.5401Q235.16267 336.68375 235.67091 336.1755Q236.19019 335.65622 236.0355 334.81653Q235.89188 333.9658 234.40033 332.47424Q232.89772 330.97165 232.05803 330.83905Q231.21834 330.6844 230.68802 331.2147Q230.17978 331.72293 230.30132 332.4632Q230.46704 333.4023 231.96965 334.9049ZM236.15704 330.71753Q235.07428 329.63477 234.64339 328.76193Q234.20145 327.87805 234.2788 327.0936Q234.36717 326.2981 235.03009 325.6352Q235.51624 325.14905 236.0797 324.98334Q236.65422 324.80655 237.27295 324.93915Q237.88062 325.06067 238.54353 325.4584Q239.20644 325.85617 240.11243 326.76215Q241.18413 327.83386 241.61502 328.7067Q242.05696 329.56848 241.97963 330.37503Q241.90228 331.15945 241.22833 331.83344Q240.35548 332.70627 239.21748 332.58472Q237.86957 332.43005 236.15704 330.71753ZM236.91939 329.95517Q238.41095 331.44672 239.26169 331.59036Q240.11243 331.73398 240.62065 331.22577Q241.13994 330.70648 240.98526 329.8668Q240.84163 329.01605 239.35007 327.5245Q237.84747 326.02188 237.00778 325.8893Q236.16809 325.73462 235.63776 326.26495Q235.12953 326.7732 235.25107 327.51346Q235.4168 328.45258 236.91939 329.95517ZM244.31087 328.552L238.23418 322.4753L238.98547 321.724L242.45471 325.19324L242.42157 321.64667L243.39384 320.6744L243.32755 323.98895L247.9569 324.90598L247.03986 325.82303L243.32755 325.02753L243.3165 326.05502L245.06216 327.80072L244.31087 328.552ZM246.43219 322.78467L245.6809 322.03336L247.97899 319.73526L248.73029 320.48657L246.43219 322.78467ZM253.97835 318.88452L253.2381 319.6248L248.48721 314.8739Q248.46512 315.40424 248.28835 316.11136Q248.11157 316.79636 247.8906 317.2604L247.17244 316.54224Q247.49284 315.6252 247.5481 314.75238Q247.60333 313.85745 247.40446 313.26083L247.87955 312.78574L253.97835 318.88452ZM259.32584 312.10074L260.044 312.81888L256.02234 316.84055Q255.75716 316.57538 255.59143 316.23288Q255.33731 315.6694 255.27103 314.94022Q255.21577 314.19995 255.33731 313.03986Q255.5141 311.2279 255.38152 310.4103Q255.25998 309.58167 254.84013 309.1618Q254.3982 308.71988 253.77946 308.74197Q253.1497 308.75302 252.64146 309.26126Q252.1001 309.80264 252.1001 310.44345Q252.1001 311.08426 252.66357 311.66983L251.82388 312.35483Q251.03943 311.4157 251.10573 310.46555Q251.17201 309.49326 252.04485 308.62042Q252.91768 307.7476 253.91205 307.7255Q254.90642 307.7034 255.62457 308.42157Q255.98918 308.78616 256.18805 309.2944Q256.38693 309.78052 256.43112 310.53183Q256.4753 311.26105 256.3538 312.7305Q256.2433 313.96793 256.25433 314.37674Q256.26538 314.76343 256.34274 315.08383L259.32584 312.10074ZM259.48053 310.20038L260.19867 309.34964Q260.86157 309.8358 261.45822 309.8137Q262.0659 309.78052 262.51886 309.32755Q263.0492 308.7972 263.01605 308.01276Q262.9829 307.22833 262.32 306.5654Q261.67917 305.9246 260.94998 305.9246Q260.22076 305.9025 259.6352 306.48807Q259.28165 306.8416 259.14905 307.30566Q259.02753 307.75864 259.1159 308.1785L258.33148 308.78616L255.80136 305.0849L258.82864 302.0576L259.53577 302.7647L257.10507 305.19537L258.41986 307.15097Q258.57452 306.2229 259.17117 305.62628Q259.96664 304.83078 261.06046 304.84183Q262.1653 304.84183 263.03815 305.71466Q263.85574 306.53226 263.9883 307.61502Q264.13196 308.92978 263.12653 309.9352Q262.2979 310.76385 261.30353 310.83014Q260.32022 310.88538 259.48053 310.20038ZM266.23117 306.63168L260.15448 300.555L260.9058 299.8037L264.37503 303.27295L264.3419 299.72635L265.31415 298.7541L265.24786 302.06863L269.8772 302.9857L268.96017 303.9027L265.24786 303.1072L265.23682 304.13474L266.98248 305.8804L266.23117 306.63168Z" fill-rule="nonzero"/><path fill="#000000" d="M295.2346 336.5622L294.49435 337.30246L289.74347 332.55157Q289.72137 333.0819 289.54462 333.789Q289.36783 334.47403 289.14685 334.93805L288.4287 334.2199Q288.7491 333.3029 288.80435 332.43005Q288.8596 331.5351 288.6607 330.93848L289.1358 330.4634L295.2346 336.5622ZM300.5821 329.77838L301.30026 330.49655L297.2786 334.51822Q297.01343 334.25305 296.8477 333.91055Q296.59357 333.34708 296.52728 332.61786Q296.47205 331.87762 296.59357 330.71753Q296.77036 328.90555 296.63776 328.08795Q296.51624 327.2593 296.09637 326.83948Q295.65445 326.39752 295.03574 326.41962Q294.40598 326.4307 293.89774 326.9389Q293.35635 327.4803 293.35635 328.1211Q293.35635 328.76193 293.91983 329.3475L293.08014 330.0325Q292.2957 329.09338 292.36197 328.14322Q292.42828 327.17093 293.30112 326.2981Q294.17395 325.42526 295.1683 325.40317Q296.1627 325.38107 296.88083 326.0992Q297.24542 326.46384 297.4443 326.97205Q297.6432 327.4582 297.68738 328.2095Q297.73157 328.9387 297.61005 330.40814Q297.49954 331.6456 297.5106 332.05438Q297.52164 332.4411 297.599 332.7615L300.5821 329.77838ZM300.7368 327.87805L301.45493 327.0273Q302.11786 327.51343 302.71448 327.49133Q303.32214 327.4582 303.77512 327.00522Q304.30545 326.47488 304.2723 325.69043Q304.23917 324.90598 303.57626 324.24307Q302.93542 323.60226 302.20624 323.60226Q301.47702 323.58017 300.89145 324.16574Q300.5379 324.5193 300.40533 324.9833Q300.28378 325.4363 300.37216 325.85617L299.58774 326.46384L297.05762 322.76257L300.0849 319.73526L300.79202 320.44238L298.36133 322.87305L299.67612 324.82864Q299.8308 323.90057 300.42743 323.30396Q301.2229 322.50845 302.3167 322.5195Q303.42157 322.5195 304.2944 323.39233Q305.112 324.20993 305.24457 325.2927Q305.3882 326.60745 304.38278 327.61288Q303.55417 328.44153 302.55978 328.5078Q301.57648 328.56305 300.7368 327.87805ZM305.36612 322.78467L304.6148 322.03336L306.9129 319.73526L307.6642 320.48657L305.36612 322.78467ZM312.91226 318.88452L312.17203 319.6248L307.42114 314.8739Q307.39905 315.40424 307.22226 316.11133Q307.0455 316.79636 306.82452 317.26038L306.10635 316.54224Q306.4268 315.6252 306.48203 314.75238Q306.53726 313.85745 306.33838 313.2608L306.81348 312.78574L312.91226 318.88452ZM313.4647 315.15012L314.18286 314.29938Q314.84576 314.78552 315.44238 314.76343Q316.05005 314.7303 316.50305 314.27728Q317.0334 313.74695 317.00024 312.9625Q316.96707 312.17807 316.30417 311.51514Q315.66336 310.87433 314.93414 310.87433Q314.20496 310.85223 313.6194 311.4378Q313.26584 311.79135 313.13324 312.2554Q313.01172 312.7084 313.1001 313.12823L312.31564 313.7359L309.78552 310.03464L312.81284 307.00735L313.51993 307.71445L311.08926 310.14514L312.40405 312.1007Q312.55872 311.17264 313.15533 310.57602Q313.95084 309.78052 315.04465 309.79156Q316.1495 309.79156 317.02234 310.6644Q317.83994 311.482 317.9725 312.56476Q318.11615 313.87955 317.11072 314.88495Q316.28207 315.7136 315.28772 315.77988Q314.30438 315.8351 313.4647 315.15012ZM317.0113 308.7972Q315.92853 307.71445 315.49762 306.8416Q315.0557 305.95773 315.13303 305.17328Q315.2214 304.37778 315.88434 303.71487Q316.37045 303.22873 316.93393 303.06302Q317.50845 302.88623 318.1272 303.01883Q318.73486 303.14035 319.39777 303.5381Q320.06067 303.93585 320.96664 304.84183Q322.03836 305.91354 322.46927 306.78638Q322.9112 307.64816 322.83386 308.4547Q322.75653 309.23914 322.08255 309.91312Q321.20972 310.78595 320.07172 310.6644Q318.72382 310.50974 317.0113 308.7972ZM317.77362 308.03485Q319.2652 309.5264 320.11594 309.67004Q320.96664 309.81366 321.47488 309.30545Q321.99417 308.78616 321.8395 307.94647Q321.69586 307.09573 320.2043 305.6042Q318.70172 304.10156 317.86203 303.969Q317.02234 303.8143 316.492 304.34464Q315.98376 304.85287 316.1053 305.59314Q316.27103 306.53226 317.77362 308.03485ZM325.1651 306.63168L319.0884 300.555L319.83972 299.80368L323.30896 303.27292L323.27582 299.72635L324.24808 298.7541L324.1818 302.06863L328.81113 302.98566L327.8941 303.9027L324.1818 303.1072L324.17075 304.1347L325.9164 305.8804L325.1651 306.63168Z" fill-rule="nonzero"/><path fill="#000000" d="M354.16852 336.56223L353.42825 337.30246L348.67737 332.55157Q348.65527 333.0819 348.47852 333.78903Q348.30173 334.47403 348.08075 334.93808L347.3626 334.2199Q347.683 333.3029 347.73825 332.43005Q347.7935 331.53513 347.59464 330.9385L348.0697 330.4634L354.16852 336.56223ZM354.72095 332.8278L355.4391 331.97705Q356.102 332.4632 356.6986 332.4411Q357.3063 332.40796 357.75928 331.95496Q358.2896 331.42465 358.25647 330.6402Q358.22333 329.85574 357.56042 329.19284Q356.9196 328.552 356.1904 328.552Q355.46118 328.5299 354.8756 329.11548Q354.52206 329.46906 354.38947 329.93307Q354.26794 330.38608 354.35632 330.8059L353.5719 331.41357L351.04178 327.71234L354.06906 324.68503L354.77618 325.39212L352.3455 327.8228L353.66028 329.7784Q353.81494 328.85034 354.41156 328.2537Q355.20706 327.45822 356.30087 327.46927Q357.40573 327.46927 358.27856 328.3421Q359.09616 329.1597 359.22873 330.24243Q359.37238 331.55722 358.36694 332.56265Q357.5383 333.39127 356.54395 333.45758Q355.56064 333.51282 354.72095 332.8278ZM358.26752 326.47488Q357.18475 325.39212 356.75388 324.5193Q356.31192 323.6354 356.38925 322.85098Q356.47766 322.05548 357.14056 321.39255Q357.6267 320.90643 358.1902 320.7407Q358.7647 320.56393 359.38342 320.6965Q359.9911 320.81802 360.654 321.2158Q361.31693 321.61353 362.2229 322.5195Q363.29462 323.59122 363.7255 324.46405Q364.16745 325.32584 364.0901 326.1324Q364.01276 326.91684 363.3388 327.5908Q362.46597 328.46362 361.32797 328.3421Q359.98004 328.1874 358.26752 326.47488ZM359.02988 325.71255Q360.52142 327.2041 361.37216 327.34772Q362.2229 327.49136 362.73114 326.98312Q363.2504 326.46384 363.09573 325.62415Q362.9521 324.7734 361.46054 323.28186Q359.95795 321.77927 359.11826 321.64667Q358.27856 321.492 357.74823 322.02234Q357.24 322.53055 357.36154 323.2708Q357.52725 324.20993 359.02988 325.71255ZM364.30002 322.78467L363.5487 322.0334L365.84683 319.7353L366.5981 320.48657L364.30002 322.78467ZM372.24393 317.05048L372.96207 317.76865L368.9404 321.7903Q368.67523 321.52515 368.50952 321.18265Q368.2554 320.61917 368.18912 319.88995Q368.13388 319.14972 368.2554 317.9896Q368.4322 316.17764 368.2996 315.36005Q368.17807 314.5314 367.7582 314.11157Q367.31628 313.66962 366.69754 313.6917Q366.06778 313.70276 365.55957 314.211Q365.0182 314.75238 365.0182 315.3932Q365.0182 316.03403 365.58167 316.6196L364.74197 317.3046Q363.95752 316.36548 364.0238 315.41528Q364.0901 314.44302 364.96292 313.5702Q365.83575 312.69736 366.83014 312.67526Q367.8245 312.65317 368.54266 313.3713Q368.90726 313.73593 369.10614 314.24414Q369.30502 314.7303 369.3492 315.4816Q369.3934 316.2108 369.27188 317.68024Q369.16138 318.9177 369.17242 319.32648Q369.18347 319.7132 369.2608 320.0336L372.24393 317.05048ZM370.99545 313.74698Q369.9127 312.6642 369.48178 311.79138Q369.03986 310.9075 369.1172 310.12305Q369.20557 309.32755 369.8685 308.66464Q370.3546 308.1785 370.9181 308.0128Q371.4926 307.836 372.11133 307.96857Q372.71902 308.09012 373.38193 308.48785Q374.04483 308.88562 374.9508 309.7916Q376.02252 310.8633 376.45343 311.73615Q376.89536 312.59793 376.81802 313.40445Q376.7407 314.1889 376.0667 314.86288Q375.19388 315.73572 374.05588 315.61417Q372.70798 315.4595 370.99545 313.74698ZM371.75778 312.98462Q373.24933 314.47617 374.10007 314.6198Q374.9508 314.76343 375.45905 314.2552Q375.97833 313.73593 375.82364 312.89624Q375.68002 312.0455 374.18848 310.55392Q372.68585 309.05133 371.8462 308.91876Q371.0065 308.76407 370.47617 309.2944Q369.96793 309.80264 370.08945 310.54288Q370.2552 311.48203 371.75778 312.98462ZM375.9452 308.7972Q374.86243 307.71448 374.43155 306.8416Q373.9896 305.95773 374.06693 305.1733Q374.15533 304.3778 374.81824 303.7149Q375.30438 303.22876 375.86786 303.06302Q376.44238 302.88626 377.0611 303.01883Q377.66876 303.14038 378.33167 303.53812Q378.9946 303.93585 379.90057 304.84183Q380.97226 305.91354 381.40317 306.78638Q381.84512 307.64816 381.76776 308.4547Q381.69043 309.23917 381.01648 309.91312Q380.14365 310.78595 379.00565 310.66443Q377.6577 310.50974 375.9452 308.7972ZM376.70755 308.03488Q378.1991 309.52643 379.04984 309.67004Q379.90057 309.8137 380.40878 309.30545Q380.92807 308.78616 380.7734 307.94647Q380.62976 307.09573 379.1382 305.6042Q377.63562 304.1016 376.79593 303.969Q375.95624 303.81433 375.4259 304.34467Q374.91766 304.8529 375.0392 305.59314Q375.20493 306.53226 376.70755 308.03488ZM384.099 306.6317L378.0223 300.555L378.77362 299.8037L382.24286 303.27295L382.20972 299.72638L383.18198 298.7541L383.1157 302.06866L387.74503 302.9857L386.828 303.9027L383.1157 303.1072L383.10464 304.13474L384.8503 305.8804L384.099 306.6317Z" fill-rule="nonzero"/><path fill="#000000" d="M409.25754 338.9708L409.9757 339.68893L405.95404 343.7106Q405.68887 343.44543 405.52313 343.10294Q405.269 342.53946 405.20273 341.81027Q405.1475 341.07 405.269 339.9099Q405.4458 338.09796 405.3132 337.28036Q405.19168 336.45172 404.77182 336.03186Q404.3299 335.58994 403.71118 335.61203Q403.0814 335.62308 402.57318 336.13132Q402.0318 336.6727 402.0318 337.3135Q402.0318 337.9543 402.59528 338.5399L401.75558 339.2249Q400.97113 338.28577 401.0374 337.3356Q401.10373 336.36334 401.97656 335.4905Q402.8494 334.61765 403.84375 334.59555Q404.83813 334.57346 405.55627 335.29163Q405.92087 335.65622 406.11975 336.16446Q406.31863 336.6506 406.36282 337.4019Q406.407 338.1311 406.2855 339.60056Q406.175 340.83798 406.18604 341.2468Q406.19708 341.63348 406.27444 341.9539L409.25754 338.9708ZM408.00906 335.66727Q406.9263 334.5845 406.4954 333.71167Q406.05347 332.8278 406.1308 332.04333Q406.21918 331.24786 406.8821 330.58493Q407.36823 330.09882 407.9317 329.93307Q408.50623 329.7563 409.12497 329.8889Q409.73264 330.0104 410.39554 330.40817Q411.05844 330.8059 411.96445 331.71188Q413.03613 332.7836 413.46704 333.65643Q413.90897 334.51822 413.83163 335.32477Q413.7543 336.10922 413.08032 336.78317Q412.2075 337.656 411.0695 337.5345Q409.7216 337.3798 408.00906 335.66727ZM408.7714 334.90494Q410.26297 336.39648 411.1137 336.5401Q411.96445 336.68375 412.47266 336.1755Q412.99194 335.65622 412.83728 334.81653Q412.69363 333.9658 411.2021 332.47424Q409.6995 330.97165 408.8598 330.83905Q408.0201 330.6844 407.48978 331.21472Q406.98154 331.72293 407.1031 332.4632Q407.2688 333.4023 408.7714 334.90494ZM412.9588 330.71753Q411.87604 329.63477 411.44516 328.76193Q411.0032 327.87805 411.08054 327.0936Q411.16895 326.2981 411.83185 325.6352Q412.318 325.14905 412.88147 324.98334Q413.456 324.80655 414.0747 324.93915Q414.68237 325.06067 415.34528 325.4584Q416.0082 325.85617 416.91418 326.76215Q417.9859 327.83386 418.41678 328.7067Q418.85873 329.56848 418.78137 330.37503Q418.70404 331.15945 418.0301 331.83344Q417.15726 332.70627 416.01926 332.58472Q414.67133 332.43005 412.9588 330.71753ZM413.72116 329.95517Q415.2127 331.44672 416.06345 331.59036Q416.91418 331.73398 417.42242 331.22577Q417.94168 330.70648 417.78702 329.8668Q417.64337 329.01605 416.15182 327.5245Q414.64923 326.02188 413.80954 325.8893Q412.96985 325.73462 412.4395 326.26495Q411.93127 326.7732 412.05283 327.51346Q412.21854 328.45258 413.72116 329.95517ZM421.11264 328.552L415.03592 322.4753L415.78723 321.724L419.25647 325.19327L419.22333 321.64667L420.1956 320.6744L420.1293 323.98895L424.75864 324.906L423.8416 325.82303L420.1293 325.02753L420.11826 326.05505L421.86392 327.80072L421.11264 328.552ZM423.23395 322.78467L422.48264 322.03336L424.78073 319.73526L425.53204 320.48657L423.23395 322.78467ZM431.17786 317.05048L431.896 317.76865L427.87433 321.7903Q427.60916 321.52515 427.44345 321.18262Q427.18933 320.61914 427.12305 319.88995Q427.06778 319.1497 427.18933 317.9896Q427.3661 316.17764 427.23352 315.36005Q427.112 314.5314 426.69214 314.11157Q426.2502 313.66962 425.63147 313.6917Q425.0017 313.70276 424.49347 314.211Q423.95212 314.75238 423.95212 315.3932Q423.95212 316.034 424.5156 316.61957L423.6759 317.3046Q422.89145 316.36548 422.95773 315.41528Q423.02402 314.44302 423.89685 313.5702Q424.76968 312.69736 425.76407 312.67526Q426.75842 312.65317 427.4766 313.3713Q427.8412 313.7359 428.04007 314.24414Q428.23895 314.7303 428.28314 315.4816Q428.32733 316.2108 428.20578 317.68024Q428.0953 318.9177 428.10635 319.32648Q428.1174 319.71317 428.19473 320.03357L431.17786 317.05048ZM431.33252 315.15012L432.0507 314.29938Q432.7136 314.78552 433.3102 314.76343Q433.91788 314.7303 434.37088 314.27728Q434.9012 313.74695 434.86807 312.96252Q434.83493 312.17807 434.172 311.51517Q433.5312 310.87433 432.802 310.87433Q432.07278 310.85223 431.4872 311.4378Q431.13367 311.79138 431.00107 312.2554Q430.87955 312.7084 430.96793 313.12823L430.18347 313.7359L427.65335 310.03464L430.68066 307.00735L431.3878 307.71445L428.9571 310.14514L430.27188 312.10074Q430.42654 311.17264 431.02316 310.57602Q431.81866 309.78055 432.91248 309.7916Q434.01733 309.7916 434.89017 310.66443Q435.70776 311.48203 435.84033 312.56476Q435.98398 313.87955 434.97855 314.88495Q434.1499 315.7136 433.15555 315.7799Q432.1722 315.83514 431.33252 315.15012ZM434.87912 308.7972Q433.79636 307.71445 433.36545 306.8416Q432.92352 305.95773 433.00085 305.17328Q433.08926 304.3778 433.75217 303.71487Q434.2383 303.22876 434.8018 303.06302Q435.3763 302.88623 435.99503 303.01883Q436.6027 303.14035 437.2656 303.53812Q437.9285 303.93585 438.8345 304.84183Q439.9062 305.91354 440.3371 306.78638Q440.77902 307.64816 440.7017 308.4547Q440.62436 309.23917 439.9504 309.91312Q439.07755 310.78595 437.93954 310.66443Q436.59164 310.50974 434.87912 308.7972ZM435.64145 308.03485Q437.13303 309.52643 437.98376 309.67004Q438.8345 309.8137 439.3427 309.30545Q439.862 308.78616 439.70734 307.94647Q439.5637 307.09573 438.07214 305.6042Q436.56955 304.1016 435.72986 303.969Q434.89017 303.81433 434.35983 304.34467Q433.8516 304.85287 433.97314 305.59314Q434.13885 306.53226 435.64145 308.03485ZM443.03293 306.6317L436.95624 300.555L437.70755 299.8037L441.1768 303.27295L441.14365 299.72635L442.1159 298.7541L442.04962 302.06866L446.67896 302.9857L445.76193 303.9027L442.04962 303.1072L442.03857 304.13474L443.78424 305.8804L443.03293 306.6317Z" fill-rule="nonzero"/><path fill="#000000" d="M468.19147 338.9708L468.90964 339.68893L464.88794 343.7106Q464.6228 343.44543 464.45706 343.10294Q464.20294 342.53946 464.13666 341.81024Q464.08142 341.07 464.20294 339.9099Q464.37973 338.09793 464.24713 337.28036Q464.1256 336.45172 463.70575 336.03186Q463.26382 335.58994 462.6451 335.61203Q462.01532 335.62308 461.5071 336.13132Q460.96573 336.67267 460.96573 337.3135Q460.96573 337.9543 461.5292 338.5399L460.6895 339.22488Q459.90506 338.28577 459.97134 337.3356Q460.03763 336.3633 460.9105 335.49048Q461.78333 334.61765 462.77768 334.59555Q463.77206 334.57346 464.4902 335.29163Q464.8548 335.65622 465.05368 336.16446Q465.25256 336.65057 465.29675 337.4019Q465.34094 338.1311 465.21942 339.60056Q465.10892 340.83798 465.11996 341.24677Q465.131 341.63348 465.20837 341.9539L468.19147 338.9708ZM468.34616 337.07043L469.0643 336.2197Q469.7272 336.70584 470.32382 336.68375Q470.93152 336.65057 471.3845 336.1976Q471.91483 335.66727 471.88168 334.8828Q471.84854 334.09836 471.1856 333.43546Q470.5448 332.79465 469.8156 332.79465Q469.0864 332.77255 468.50082 333.35812Q468.14728 333.71167 468.01468 334.17572Q467.89316 334.6287 467.98154 335.04855L467.1971 335.65622L464.667 331.95496L467.69427 328.92764L468.4014 329.63477L465.9707 332.06543L467.2855 334.02103Q467.44016 333.09296 468.03677 332.49634Q468.83228 331.70084 469.9261 331.71188Q471.03094 331.71188 471.90378 332.58472Q472.72137 333.4023 472.85394 334.48508Q472.9976 335.79984 471.99216 336.80527Q471.1635 337.6339 470.16916 337.7002Q469.18582 337.75543 468.34616 337.07043ZM471.89273 330.71753Q470.80997 329.63477 470.3791 328.76193Q469.93713 327.87805 470.01447 327.0936Q470.10287 326.2981 470.76578 325.6352Q471.25192 325.14905 471.8154 324.98334Q472.38992 324.80655 473.00864 324.93912Q473.6163 325.06067 474.2792 325.4584Q474.94214 325.85617 475.8481 326.76215Q476.91983 327.83386 477.3507 328.7067Q477.79266 329.56848 477.7153 330.375Q477.63797 331.15945 476.96402 331.83344Q476.0912 332.70627 474.9532 332.58472Q473.60526 332.43005 471.89273 330.71753ZM472.6551 329.95517Q474.14664 331.44672 474.99738 331.59036Q475.8481 331.73398 476.35635 331.22574Q476.8756 330.70648 476.72095 329.8668Q476.5773 329.01605 475.08575 327.52448Q473.58316 326.02188 472.74347 325.8893Q471.90378 325.73462 471.37344 326.26495Q470.8652 326.7732 470.98676 327.51343Q471.15247 328.45258 472.6551 329.95517ZM480.04657 328.552L473.96985 322.4753L474.72116 321.724L478.1904 325.19324L478.15726 321.64667L479.12952 320.67438L479.06323 323.98895L483.69257 324.90598L482.77554 325.82303L479.06323 325.02753L479.0522 326.05502L480.79785 327.8007L480.04657 328.552ZM482.16788 322.78467L481.41656 322.03336L483.71466 319.73526L484.46597 320.48657L482.16788 322.78467ZM485.30566 320.0888L485.95752 319.23807Q486.70883 319.7463 487.30545 319.7242Q487.89102 319.69107 488.33298 319.24915Q488.86328 318.7188 488.86328 317.9896Q488.86328 317.2604 488.3219 316.71902Q487.8137 316.2108 487.1397 316.22183Q486.46576 316.2108 485.94647 316.73007Q485.73654 316.93997 485.50455 317.3488L484.93002 316.59747Q485.0184 316.5312 485.0626 316.487Q485.5377 316.0119 485.67026 315.3932Q485.80286 314.75238 485.28357 314.2331Q484.87476 313.8243 484.3334 313.83536Q483.78098 313.83536 483.33902 314.27728Q482.90814 314.7082 482.88602 315.2827Q482.87497 315.8462 483.33902 316.4649L482.45514 317.08362Q481.84747 316.2108 481.9248 315.31586Q481.9911 314.40988 482.70926 313.6917Q483.20645 313.19452 483.84726 312.99567Q484.47702 312.78574 485.0626 312.92935Q485.64816 313.073 486.06802 313.49283Q486.4547 313.87955 486.57623 314.42093Q486.68674 314.95123 486.46576 315.54788Q487.1176 315.13907 487.8137 315.2385Q488.4987 315.3269 489.0953 315.92352Q489.8908 316.71902 489.85767 317.85703Q489.83557 318.98398 488.9517 319.86786Q488.1562 320.66333 487.15076 320.7186Q486.1343 320.7628 485.30566 320.0888ZM488.86328 313.74695Q487.78055 312.66418 487.34964 311.79135Q486.9077 310.90747 486.98502 310.12305Q487.0734 309.32755 487.73633 308.66464Q488.22244 308.1785 488.78592 308.0128Q489.36044 307.836 489.9792 307.9686Q490.58685 308.09012 491.24976 308.48788Q491.91266 308.88562 492.81866 309.7916Q493.89035 310.8633 494.32126 311.73615Q494.76318 312.59793 494.68585 313.40448Q494.60852 314.1889 493.93454 314.86288Q493.0617 315.73572 491.92374 315.61417Q490.5758 315.45947 488.86328 313.74695ZM489.62564 312.98462Q491.1172 314.47617 491.96793 314.6198Q492.81866 314.76346 493.32687 314.25522Q493.84616 313.73593 493.6915 312.89624Q493.54785 312.0455 492.0563 310.55396Q490.5537 309.05136 489.71402 308.91876Q488.87433 308.7641 488.344 309.2944Q487.83575 309.80264 487.95728 310.5429Q488.12305 311.482 489.62564 312.98462ZM493.81302 308.79724Q492.73026 307.71448 492.29938 306.84164Q491.85742 305.95776 491.93475 305.1733Q492.02316 304.3778 492.68607 303.7149Q493.1722 303.22876 493.7357 303.06305Q494.3102 302.88626 494.92892 303.01883Q495.5366 303.14038 496.1995 303.53812Q496.86243 303.93588 497.7684 304.84186Q498.84012 305.91357 499.271 306.7864Q499.71295 307.6482 499.6356 308.4547Q499.55826 309.23917 498.8843 309.91315Q498.01147 310.78598 496.87347 310.66443Q495.52554 310.50977 493.81302 308.79724ZM494.57538 308.03488Q496.06693 309.52643 496.91766 309.67007Q497.7684 309.8137 498.27664 309.30545Q498.7959 308.7862 498.64124 307.9465Q498.4976 307.09576 497.00604 305.6042Q495.50345 304.1016 494.66376 303.96902Q493.82407 303.81433 493.29373 304.34467Q492.7855 304.8529 492.90704 305.59314Q493.07275 306.5323 494.57538 308.03488ZM501.96686 306.6317L495.89014 300.55502L496.64145 299.8037L500.1107 303.27295L500.07755 299.72638L501.0498 298.7541L500.98352 302.06866L505.61285 302.9857L504.69583 303.9027L500.98352 303.10724L500.97247 304.13474L502.71814 305.8804L501.96686 306.6317Z" fill-rule="nonzero"/><path fill="#000000" d="M522.3193 342.00912L522.9711 341.1584Q523.7225 341.66663 524.3191 341.64453Q524.90466 341.6114 525.34656 341.16943Q525.8769 340.6391 525.8769 339.9099Q525.8769 339.1807 525.3355 338.6393Q524.8273 338.13107 524.1533 338.14212Q523.4794 338.13107 522.9601 338.65036Q522.7502 338.8603 522.5181 339.26907L521.9436 338.5178Q522.03204 338.4515 522.07623 338.4073Q522.5513 337.93222 522.6839 337.3135Q522.81647 336.67267 522.2972 336.15338Q521.88837 335.7446 521.347 335.75565Q520.79456 335.75565 520.35266 336.1976Q519.92175 336.62848 519.89966 337.203Q519.8886 337.76648 520.35266 338.3852L519.46875 339.0039Q518.8611 338.13107 518.9384 337.23615Q519.0047 336.33017 519.7229 335.61203Q520.22003 335.11484 520.8609 334.91595Q521.49066 334.70602 522.07623 334.84967Q522.6618 334.9933 523.0816 335.41315Q523.4683 335.79984 523.58984 336.34122Q523.7003 336.87155 523.4794 337.46817Q524.1312 337.0594 524.8273 337.1588Q525.5123 337.2472 526.10895 337.8438Q526.9044 338.6393 526.8713 339.7773Q526.8492 340.90427 525.9653 341.78815Q525.1698 342.58365 524.16437 342.6389Q523.14795 342.68307 522.3193 342.00912ZM525.8769 335.66727Q524.7941 334.5845 524.3633 333.71167Q523.9213 332.8278 523.99866 332.04333Q524.08704 331.24783 524.74994 330.58493Q525.2361 330.0988 525.79956 329.93307Q526.3741 329.7563 526.9928 329.8889Q527.60046 330.0104 528.26337 330.40814Q528.92633 330.8059 529.8323 331.71188Q530.904 332.7836 531.3349 333.65643Q531.77686 334.51822 531.69946 335.32477Q531.62213 336.1092 530.9482 336.78317Q530.0754 337.656 528.9374 337.53445Q527.5894 337.3798 525.8769 335.66727ZM526.6393 334.9049Q528.1308 336.39645 528.98157 336.5401Q529.8323 336.68372 530.3405 336.1755Q530.8598 335.65622 530.70514 334.81653Q530.56146 333.9658 529.06995 332.47424Q527.5673 330.97162 526.72766 330.83905Q525.88794 330.68436 525.3576 331.2147Q524.84937 331.72293 524.97095 332.4632Q525.13666 333.4023 526.6393 334.9049ZM530.82666 330.7175Q529.7439 329.63477 529.313 328.76193Q528.8711 327.87805 528.9484 327.0936Q529.0368 326.2981 529.6997 325.6352Q530.18585 325.14905 530.7493 324.9833Q531.32385 324.80655 531.94257 324.93912Q532.55023 325.06067 533.21313 325.4584Q533.87604 325.85614 534.78204 326.76215Q535.85376 327.83383 536.2846 328.70667Q536.72656 329.56845 536.64923 330.375Q536.5719 331.15945 535.89795 331.8334Q535.0251 332.70624 533.8871 332.58472Q532.5392 332.43002 530.82666 330.7175ZM531.589 329.95517Q533.08057 331.44672 533.9313 331.59033Q534.78204 331.73398 535.2903 331.22574Q535.8096 330.70645 535.65485 329.86676Q535.5112 329.01602 534.0197 327.52448Q532.5171 326.02188 531.67737 325.8893Q530.8377 325.73462 530.3074 326.26495Q529.79913 326.7732 529.92065 327.51343Q530.0864 328.45258 531.589 329.95517ZM538.98047 328.552L532.9038 322.4753L533.6551 321.724L537.1243 325.19324L537.0912 321.64667L538.0635 320.67438L537.99713 323.98895L542.6265 324.90598L541.7095 325.823L537.99713 325.02753L537.9861 326.05502L539.7318 327.8007L538.98047 328.552ZM541.1018 322.78467L540.3505 322.03336L542.6486 319.73526L543.3999 320.48657L541.1018 322.78467ZM548.2281 319.30435L546.7697 317.84595L544.14014 320.47552L543.45514 319.7905L542.29504 313.08405L542.9027 312.47638L546.836 316.40964L547.65356 315.59204L548.3386 316.27707L547.521 317.09467L548.97943 318.55307L548.2281 319.30435ZM546.0847 317.16095L543.3557 314.43195L544.1843 319.0613L546.0847 317.16095ZM547.79724 313.74695Q546.7145 312.66418 546.28357 311.79135Q545.8416 310.90747 545.91895 310.12302Q546.0074 309.32755 546.6703 308.6646Q547.15643 308.1785 547.7199 308.01276Q548.29443 307.83597 548.91315 307.96857Q549.5208 308.0901 550.1837 308.48785Q550.8466 308.8856 551.7526 309.79156Q552.8243 310.86328 553.2552 311.7361Q553.69714 312.5979 553.6198 313.40445Q553.5425 314.1889 552.8685 314.86285Q551.99567 315.7357 550.85767 315.61417Q549.50977 315.45947 547.79724 313.74695ZM548.5596 312.9846Q550.05115 314.47617 550.90186 314.61978Q551.7526 314.76343 552.2608 314.2552Q552.7801 313.7359 552.6254 312.8962Q552.4818 312.04547 550.99023 310.55392Q549.4877 309.05133 548.64795 308.91873Q547.8083 308.76407 547.27795 309.29437Q546.7697 309.8026 546.89124 310.54288Q547.05695 311.482 548.5596 312.9846ZM552.74695 308.7972Q551.6642 307.71445 551.23334 306.8416Q550.7914 305.95773 550.8687 305.17328Q550.9571 304.37778 551.62 303.71487Q552.10614 303.22873 552.6696 303.06302Q553.24414 302.88623 553.86285 303.0188Q554.4705 303.14035 555.1334 303.5381Q555.7964 303.93585 556.70233 304.84183Q557.77405 305.91354 558.20496 306.78638Q558.6469 307.64816 558.5695 308.4547Q558.4922 309.23914 557.81824 309.91312Q556.94543 310.78595 555.80743 310.6644Q554.4595 310.50974 552.74695 308.7972ZM553.50934 308.03485Q555.00085 309.5264 555.8516 309.67004Q556.70233 309.81366 557.2106 309.30542Q557.72986 308.78616 557.5752 307.94647Q557.4316 307.09573 555.94 305.6042Q554.4374 304.10156 553.5977 303.969Q552.758 303.8143 552.22766 304.34464Q551.7195 304.85287 551.841 305.5931Q552.0067 306.53226 553.50934 308.03485ZM560.9008 306.63168L554.8241 300.555L555.5754 299.80368L559.0446 303.27292L559.0115 299.72635L559.98376 298.7541L559.9175 302.06863L564.5468 302.98566L563.62976 303.9027L559.9175 303.1072L559.90643 304.1347L561.6521 305.8804L560.9008 306.63168Z" fill-rule="nonzero"/><path fill="#000000" d="M585.2417 341.2247L583.7833 339.7663L581.15375 342.39584L580.46875 341.71082L579.30865 335.00436L579.9163 334.3967L583.8496 338.33L584.6672 337.5124L585.3522 338.1974L584.5346 339.01498L585.993 340.4734L585.2417 341.2247ZM583.09827 339.08127L580.3693 336.3523L581.19794 340.98163L583.09827 339.08127ZM584.8108 335.66727Q583.728 334.5845 583.2972 333.71167Q582.8552 332.8278 582.93256 332.04337Q583.02094 331.24786 583.68384 330.58493Q584.17 330.09882 584.73346 329.93307Q585.308 329.75632 585.9267 329.8889Q586.53436 330.0104 587.1973 330.40817Q587.8602 330.8059 588.7662 331.71188Q589.8379 332.7836 590.2688 333.65643Q590.71075 334.51822 590.6334 335.32477Q590.556 336.10922 589.8821 336.78317Q589.0093 337.656 587.8713 337.5345Q586.5233 337.3798 584.8108 335.66727ZM585.5732 334.90494Q587.0647 336.39648 587.91547 336.5401Q588.7662 336.68375 589.2744 336.1755Q589.7937 335.65622 589.63904 334.81653Q589.4954 333.9658 588.00385 332.47424Q586.5012 330.97165 585.66156 330.83905Q584.82184 330.6844 584.2915 331.21472Q583.7833 331.72293 583.90485 332.4632Q584.07056 333.4023 585.5732 334.90494ZM589.76056 330.71753Q588.6778 329.63477 588.2469 328.76193Q587.805 327.87805 587.8823 327.0936Q587.9707 326.2981 588.6336 325.6352Q589.11975 325.14905 589.6832 324.98334Q590.25775 324.80655 590.87646 324.93915Q591.48413 325.06067 592.14703 325.45844Q592.80994 325.85617 593.71594 326.76215Q594.78766 327.83386 595.21857 328.7067Q595.66046 329.56848 595.5831 330.37503Q595.5058 331.15945 594.83185 331.83344Q593.959 332.70627 592.821 332.58472Q591.4731 332.43005 589.76056 330.71753ZM590.5229 329.95517Q592.01447 331.44672 592.8652 331.59036Q593.71594 331.734 594.2242 331.22577Q594.74347 330.70648 594.58875 329.8668Q594.4451 329.01605 592.9536 327.5245Q591.451 326.0219 590.6113 325.8893Q589.7716 325.73465 589.2413 326.26495Q588.73303 326.7732 588.85455 327.51346Q589.0203 328.45258 590.5229 329.95517ZM597.91437 328.552L591.8377 322.4753L592.589 321.724L596.0582 325.19327L596.0251 321.64667L596.9974 320.6744L596.9311 323.98895L601.5604 324.906L600.6434 325.82303L596.9311 325.02753L596.92004 326.05505L598.6657 327.80072L597.91437 328.552ZM600.0357 322.78467L599.2844 322.0334L601.5825 319.7353L602.3338 320.48657L600.0357 322.78467ZM603.1846 320.09988L603.9027 319.24915Q604.5656 319.7353 605.16223 319.71317Q605.7699 319.68002 606.2229 319.22705Q606.75323 318.69672 606.7201 317.91226Q606.68695 317.1278 606.02405 316.4649Q605.3832 315.8241 604.654 315.8241Q603.9248 315.802 603.33923 316.38757Q602.98566 316.74112 602.8531 317.20517Q602.73157 317.65814 602.81995 318.078L602.0355 318.68567L599.5054 314.9844L602.53265 311.9571L603.2398 312.6642L600.8091 315.09488L602.1239 317.05048Q602.27856 316.1224 602.8752 315.5258Q603.67065 314.7303 604.76447 314.74133Q605.8693 314.74133 606.7422 315.61417Q607.55975 316.43176 607.6923 317.51453Q607.836 318.82928 606.83057 319.83472Q606.0019 320.66336 605.00757 320.72964Q604.02423 320.78488 603.1846 320.09988ZM606.73114 313.74698Q605.6484 312.6642 605.21747 311.79138Q604.7755 310.9075 604.85284 310.12305Q604.9413 309.32755 605.6042 308.66464Q606.09033 308.1785 606.6538 308.01276Q607.22833 307.836 607.84705 307.96857Q608.4547 308.09012 609.1176 308.48785Q609.7805 308.88562 610.6865 309.7916Q611.75824 310.86328 612.1891 311.73615Q612.63104 312.59793 612.5537 313.40445Q612.4764 314.1889 611.8024 314.86285Q610.92957 315.73572 609.79156 315.61417Q608.44366 315.4595 606.73114 313.74698ZM607.49347 312.98462Q608.98505 314.47617 609.83575 314.6198Q610.6865 314.76343 611.19476 314.2552Q611.714 313.73593 611.5593 312.89624Q611.4157 312.0455 609.92413 310.55392Q608.4216 309.05133 607.58185 308.91876Q606.7422 308.76407 606.21185 309.2944Q605.7036 309.80264 605.82513 310.54288Q605.99084 311.48203 607.49347 312.98462ZM611.68085 308.7972Q610.59814 307.71445 610.16724 306.8416Q609.7253 305.95773 609.8026 305.1733Q609.891 304.3778 610.5539 303.71487Q611.04004 303.22876 611.6035 303.06302Q612.17804 302.88626 612.79675 303.01883Q613.4044 303.14035 614.0674 303.53812Q614.7303 303.93585 615.6362 304.84183Q616.70795 305.91354 617.13885 306.78638Q617.5808 307.64816 617.5035 308.4547Q617.4261 309.23917 616.75214 309.91312Q615.87933 310.78595 614.74133 310.66443Q613.3934 310.50974 611.68085 308.7972ZM612.44324 308.03488Q613.93475 309.52643 614.7855 309.67004Q615.6362 309.8137 616.1445 309.30545Q616.66376 308.78616 616.5091 307.94647Q616.3655 307.09573 614.8739 305.6042Q613.3713 304.1016 612.5316 303.969Q611.6919 303.81433 611.16156 304.34467Q610.6534 304.85287 610.7749 305.59314Q610.9406 306.53226 612.44324 308.03488ZM619.8347 306.6317L613.758 300.555L614.5093 299.8037L617.9785 303.27295L617.9454 299.72635L618.91766 298.7541L618.8514 302.06866L623.4807 302.9857L622.56366 303.9027L618.8514 303.1072L618.84033 304.13474L620.586 305.8804L619.8347 306.6317Z" fill-rule="nonzero"/><path fill="#000000" d="M657.1687 325.04965L657.88684 324.1989Q658.54974 324.68503 659.14636 324.66293Q659.7541 324.6298 660.20703 324.17682Q660.73737 323.64648 660.7042 322.86203Q660.6711 322.07758 660.0082 321.41467Q659.3674 320.77386 658.6382 320.77386Q657.90894 320.75177 657.32336 321.33734Q656.96985 321.6909 656.8372 322.1549Q656.7157 322.6079 656.8041 323.02777L656.01965 323.63544L653.48956 319.93417L656.51685 316.90686L657.22394 317.61398L654.7933 320.04465L656.10803 322.00024Q656.2627 321.07217 656.8593 320.47556Q657.65485 319.68005 658.74866 319.6911Q659.8535 319.6911 660.7263 320.56393Q661.54395 321.38153 661.6765 322.4643Q661.8201 323.77905 660.8147 324.7845Q659.9861 325.61313 658.9917 325.6794Q658.00836 325.73465 657.1687 325.04965ZM660.7153 318.69672Q659.6325 317.61398 659.20166 316.74115Q658.7597 315.85724 658.83704 315.0728Q658.9254 314.2773 659.5883 313.6144Q660.07446 313.12827 660.63794 312.96252Q661.21246 312.78577 661.8312 312.91833Q662.43884 313.0399 663.10175 313.43762Q663.7647 313.83536 664.67065 314.74136Q665.7424 315.81305 666.1733 316.68588Q666.61523 317.54767 666.53784 318.35422Q666.4605 319.13867 665.78656 319.81262Q664.91376 320.68546 663.77576 320.56393Q662.4278 320.40924 660.7153 318.69672ZM661.47766 317.9344Q662.9692 319.42593 663.81995 319.56955Q664.67065 319.7132 665.1789 319.20496Q665.6982 318.68567 665.5435 317.84598Q665.39984 316.99524 663.9083 315.5037Q662.4057 314.0011 661.56604 313.8685Q660.7263 313.71384 660.196 314.24417Q659.68774 314.7524 659.8093 315.49265Q659.97504 316.43176 661.47766 317.9344ZM665.66504 313.74698Q664.5823 312.6642 664.15137 311.79138Q663.7094 310.9075 663.7868 310.12305Q663.8752 309.32758 664.5381 308.66464Q665.02423 308.17853 665.5877 308.0128Q666.16223 307.836 666.78094 307.9686Q667.3886 308.09012 668.0515 308.48788Q668.7144 308.88562 669.6204 309.7916Q670.69214 310.8633 671.123 311.73615Q671.56494 312.59793 671.4876 313.40448Q671.4103 314.18893 670.7363 314.86288Q669.86346 315.73572 668.72546 315.6142Q667.37756 315.4595 665.66504 313.74698ZM666.42737 312.98462Q667.91895 314.4762 668.76965 314.6198Q669.6204 314.76346 670.12866 314.25522Q670.64795 313.73593 670.4932 312.89624Q670.3496 312.0455 668.85803 310.55396Q667.35547 309.05136 666.51575 308.91876Q665.6761 308.7641 665.14575 309.2944Q664.6375 309.80264 664.75903 310.5429Q664.9248 311.48203 666.42737 312.98462ZM673.81885 311.58145L667.7421 305.50476L668.49347 304.75348L671.9627 308.22272L671.92957 304.67612L672.90186 303.70386L672.8355 307.0184L677.4649 307.93546L676.54785 308.85248L672.8355 308.05698L672.82446 309.0845L674.5701 310.83017L673.81885 311.58145ZM678.63605 304.79767L676.9677 303.12933L675.3215 304.77557L674.6254 304.0795L676.2716 302.43326L674.6254 300.78705L675.3325 300.07993L676.97876 301.72617L678.63605 300.06888L679.3321 300.76495L677.6748 302.4222L679.34314 304.09055L678.63605 304.79767Z" fill-rule="nonzero"/></svg>