<svg version="1.1" viewBox="0.0 0.0 733.0 371.0" fill="none" stroke="none" stroke-linecap="square" stroke-miterlimit="10" width="733" height="371" xmlns:xlink="http://www.w3.org/1999/xlink" xmlns="http://www.w3.org/2000/svg"><path fill="#ffffff" d="M0 0L733.0 0L733.0 371.0L0 371.0L0 0Z" fill-rule="nonzero"/><path stroke="#333333" stroke-width="1.0" stroke-linecap="butt" d="M45.5 332.5L714.5 332.5" fill-rule="nonzero"/><path stroke="#cccccc" stroke-width="1.0" stroke-linecap="butt" d="M45.5 271.5L714.5 271.5" fill-rule="nonzero"/><path stroke="#cccccc" stroke-width="1.0" stroke-linecap="butt" d="M45.5 209.5L714.5 209.5" fill-rule="nonzero"/><path stroke="#cccccc" stroke-width="1.0" stroke-linecap="butt" d="M45.5 148.5L714.5 148.5" fill-rule="nonzero"/><path stroke="#cccccc" stroke-width="1.0" stroke-linecap="butt" d="M45.5 86.5L714.5 86.5" fill-rule="nonzero"/><path stroke="#cccccc" stroke-width="1.0" stroke-linecap="butt" d="M45.5 25.5L714.5 25.5" fill-rule="nonzero"/><clipPath id="id_0"><path d="M45.55 25.55L714.45 25.55L714.45 332.45L45.55 332.45L45.55 25.55Z" clip-rule="nonzero"/></clipPath><path stroke="#000000" stroke-width="2.0" stroke-linecap="butt" stroke-opacity="0.0" clip-path="url(#id_0)" d="M126.0 332.0L74.0 332.0L74.0 332.0L126.0 332.0Z" fill-rule="nonzero"/><path fill="#4285f4" clip-path="url(#id_0)" d="M126.0 332.0L74.0 332.0L74.0 332.0L126.0 332.0Z" fill-rule="nonzero"/><path stroke="#000000" stroke-width="2.0" stroke-linecap="butt" stroke-opacity="0.0" clip-path="url(#id_0)" d="M206.0 332.0L154.0 332.0L154.0 328.0C154.0 326.89542 154.89543 326.0 156.0 326.0L204.0 326.0C205.10457 326.0 206.0 326.89542 206.0 328.0Z" fill-rule="nonzero"/><path fill="#4285f4" clip-path="url(#id_0)" d="M206.0 332.0L154.0 332.0L154.0 328.0C154.0 326.89542 154.89543 326.0 156.0 326.0L204.0 326.0C205.10457 326.0 206.0 326.89542 206.0 328.0Z" fill-rule="nonzero"/><path stroke="#000000" stroke-width="2.0" stroke-linecap="butt" stroke-opacity="0.0" clip-path="url(#id_0)" d="M286.0 332.0L234.0 332.0L234.0 310.0C234.0 308.89542 234.89543 308.0 236.0 308.0L284.0 308.0C285.10458 308.0 286.0 308.89542 286.0 310.0Z" fill-rule="nonzero"/><path fill="#4285f4" clip-path="url(#id_0)" d="M286.0 332.0L234.0 332.0L234.0 310.0C234.0 308.89542 234.89543 308.0 236.0 308.0L284.0 308.0C285.10458 308.0 286.0 308.89542 286.0 310.0Z" fill-rule="nonzero"/><path stroke="#000000" stroke-width="2.0" stroke-linecap="butt" stroke-opacity="0.0" clip-path="url(#id_0)" d="M366.0 332.0L314.0 332.0L314.0 255.0C314.0 253.89543 314.89542 253.0 316.0 253.0L364.0 253.0C365.10458 253.0 366.0 253.89543 366.0 255.0Z" fill-rule="nonzero"/><path fill="#4285f4" clip-path="url(#id_0)" d="M366.0 332.0L314.0 332.0L314.0 255.0C314.0 253.89543 314.89542 253.0 316.0 253.0L364.0 253.0C365.10458 253.0 366.0 253.89543 366.0 255.0Z" fill-rule="nonzero"/><path stroke="#000000" stroke-width="2.0" stroke-linecap="butt" stroke-opacity="0.0" clip-path="url(#id_0)" d="M446.0 332.0L394.0 332.0L394.0 261.0C394.0 259.89542 394.89542 259.0 396.0 259.0L444.0 259.0C445.10458 259.0 446.0 259.89542 446.0 261.0Z" fill-rule="nonzero"/><path fill="#4285f4" clip-path="url(#id_0)" d="M446.0 332.0L394.0 332.0L394.0 261.0C394.0 259.89542 394.89542 259.0 396.0 259.0L444.0 259.0C445.10458 259.0 446.0 259.89542 446.0 261.0Z" fill-rule="nonzero"/><path stroke="#000000" stroke-width="2.0" stroke-linecap="butt" stroke-opacity="0.0" clip-path="url(#id_0)" d="M526.0 332.0L474.0 332.0L474.0 71.0C474.0 69.89543 474.89542 69.0 476.0 69.0L524.0 69.0C525.10455 69.0 526.0 69.89543 526.0 71.0Z" fill-rule="nonzero"/><path fill="#4285f4" clip-path="url(#id_0)" d="M526.0 332.0L474.0 332.0L474.0 71.0C474.0 69.89543 474.89542 69.0 476.0 69.0L524.0 69.0C525.10455 69.0 526.0 69.89543 526.0 71.0Z" fill-rule="nonzero"/><path stroke="#000000" stroke-width="2.0" stroke-linecap="butt" stroke-opacity="0.0" clip-path="url(#id_0)" d="M606.0 332.0L554.0 332.0L554.0 230.0C554.0 228.89543 554.89545 228.0 556.0 228.0L604.0 228.0C605.10455 228.0 606.0 228.89543 606.0 230.0Z" fill-rule="nonzero"/><path fill="#4285f4" clip-path="url(#id_0)" d="M606.0 332.0L554.0 332.0L554.0 230.0C554.0 228.89543 554.89545 228.0 556.0 228.0L604.0 228.0C605.10455 228.0 606.0 228.89543 606.0 230.0Z" fill-rule="nonzero"/><path stroke="#000000" stroke-width="2.0" stroke-linecap="butt" stroke-opacity="0.0" clip-path="url(#id_0)" d="M686.0 332.0L634.0 332.0L634.0 212.0C634.0 210.89543 634.89545 210.0 636.0 210.0L684.0 210.0C685.10455 210.0 686.0 210.89543 686.0 212.0Z" fill-rule="nonzero"/><path fill="#4285f4" clip-path="url(#id_0)" d="M686.0 332.0L634.0 332.0L634.0 212.0C634.0 210.89543 634.89545 210.0 636.0 210.0L684.0 210.0C685.10455 210.0 686.0 210.89543 686.0 212.0Z" fill-rule="nonzero"/><path stroke="#ffffff" stroke-width="3.0" stroke-linejoin="round" stroke-linecap="round" d="M102.5625 313.8094Q102.5625 315.71564 101.90625 316.65314Q101.265625 317.575 99.875 317.575Q98.515625 317.575 97.859375 316.66876Q97.203125 315.7625 97.171875 313.95L97.171875 312.5125Q97.171875 310.6219 97.8125 309.71564Q98.46875 308.79376 99.859375 308.79376Q101.234375 308.79376 101.890625 309.6844Q102.546875 310.5594 102.5625 312.40314L102.5625 313.8094ZM101.46875 312.325Q101.46875 310.95 101.078125 310.325Q100.703125 309.6844 99.859375 309.6844Q99.03125 309.6844 98.640625 310.325Q98.265625 310.95 98.265625 312.2469L98.265625 313.98126Q98.265625 315.35626 98.65625 316.02814Q99.0625 316.6844 99.875 316.6844Q100.671875 316.6844 101.0625 316.0594Q101.453125 315.4344 101.46875 314.10626L101.46875 312.325Z" fill-rule="nonzero"/><path fill="#4285f4" d="M102.5625 313.8094Q102.5625 315.71564 101.90625 316.65314Q101.265625 317.575 99.875 317.575Q98.515625 317.575 97.859375 316.66876Q97.203125 315.7625 97.171875 313.95L97.171875 312.5125Q97.171875 310.6219 97.8125 309.71564Q98.46875 308.79376 99.859375 308.79376Q101.234375 308.79376 101.890625 309.6844Q102.546875 310.5594 102.5625 312.40314L102.5625 313.8094ZM101.46875 312.325Q101.46875 310.95 101.078125 310.325Q100.703125 309.6844 99.859375 309.6844Q99.03125 309.6844 98.640625 310.325Q98.265625 310.95 98.265625 312.2469L98.265625 313.98126Q98.265625 315.35626 98.65625 316.02814Q99.0625 316.6844 99.875 316.6844Q100.671875 316.6844 101.0625 316.0594Q101.453125 315.4344 101.46875 314.10626L101.46875 312.325Z" fill-rule="nonzero"/><path stroke="#ffffff" stroke-width="3.0" stroke-linejoin="round" stroke-linecap="round" d="M180.76562 311.312L179.6875 311.312L179.6875 304.09326L177.5 304.89014L177.5 303.90576L180.60938 302.7339L180.76562 302.7339L180.76562 311.312Z" fill-rule="nonzero"/><path fill="#4285f4" d="M180.76562 311.312L179.6875 311.312L179.6875 304.09326L177.5 304.89014L177.5 303.90576L180.60938 302.7339L180.76562 302.7339L180.76562 311.312Z" fill-rule="nonzero"/><path stroke="#4285f4" stroke-width="3.0" stroke-linejoin="round" stroke-linecap="round" d="M261.78125 321.81464L262.96875 321.81464L262.96875 322.68964L261.78125 322.68964L261.78125 324.674L260.70312 324.674L260.70312 322.68964L256.8125 322.68964L256.8125 322.049L260.625 316.14276L261.78125 316.14276L261.78125 321.81464ZM258.04688 321.81464L260.70312 321.81464L260.70312 317.62714L260.5625 317.8615L258.04688 321.81464Z" fill-rule="nonzero"/><path fill="#ffffff" d="M261.78125 321.81464L262.96875 321.81464L262.96875 322.68964L261.78125 322.68964L261.78125 324.674L260.70312 324.674L260.70312 322.68964L256.8125 322.68964L256.8125 322.049L260.625 316.14276L261.78125 316.14276L261.78125 321.81464ZM258.04688 321.81464L260.70312 321.81464L260.70312 317.62714L260.5625 317.8615L258.04688 321.81464Z" fill-rule="nonzero"/><path stroke="#4285f4" stroke-width="3.0" stroke-linejoin="round" stroke-linecap="round" d="M337.26562 269.456L336.1875 269.456L336.1875 262.23724L334.0 263.03412L334.0 262.04974L337.10938 260.87787L337.26562 260.87787L337.26562 269.456ZM342.28125 264.65912L343.09375 264.65912Q343.875 264.6435 344.3125 264.25287Q344.75 263.86224 344.75 263.19037Q344.75 261.69037 343.25 261.69037Q342.54688 261.69037 342.125 262.09662Q341.71875 262.50287 341.71875 263.15912L340.625 263.15912Q340.625 262.1435 341.35938 261.47162Q342.10938 260.79974 343.25 260.79974Q344.45312 260.79974 345.14062 261.44037Q345.82812 262.081 345.82812 263.22162Q345.82812 263.78412 345.46875 264.29974Q345.10938 264.81537 344.48438 265.081Q345.1875 265.29974 345.5625 265.81537Q345.95312 266.331 345.95312 267.081Q345.95312 268.22162 345.20312 268.90912Q344.45312 269.581 343.25 269.581Q342.0625 269.581 341.29688 268.92474Q340.54688 268.2685 340.54688 267.206L341.64062 267.206Q341.64062 267.87787 342.07812 268.28412Q342.51562 268.69037 343.26562 268.69037Q344.04688 268.69037 344.45312 268.28412Q344.875 267.86224 344.875 267.09662Q344.875 266.36224 344.42188 265.97162Q343.96875 265.56537 343.09375 265.54974L342.28125 265.54974L342.28125 264.65912Z" fill-rule="nonzero"/><path fill="#ffffff" d="M337.26562 269.456L336.1875 269.456L336.1875 262.23724L334.0 263.03412L334.0 262.04974L337.10938 260.87787L337.26562 260.87787L337.26562 269.456ZM342.28125 264.65912L343.09375 264.65912Q343.875 264.6435 344.3125 264.25287Q344.75 263.86224 344.75 263.19037Q344.75 261.69037 343.25 261.69037Q342.54688 261.69037 342.125 262.09662Q341.71875 262.50287 341.71875 263.15912L340.625 263.15912Q340.625 262.1435 341.35938 261.47162Q342.10938 260.79974 343.25 260.79974Q344.45312 260.79974 345.14062 261.44037Q345.82812 262.081 345.82812 263.22162Q345.82812 263.78412 345.46875 264.29974Q345.10938 264.81537 344.48438 265.081Q345.1875 265.29974 345.5625 265.81537Q345.95312 266.331 345.95312 267.081Q345.95312 268.22162 345.20312 268.90912Q344.45312 269.581 343.25 269.581Q342.0625 269.581 341.29688 268.92474Q340.54688 268.2685 340.54688 267.206L341.64062 267.206Q341.64062 267.87787 342.07812 268.28412Q342.51562 268.69037 343.26562 268.69037Q344.04688 268.69037 344.45312 268.28412Q344.875 267.86224 344.875 267.09662Q344.875 266.36224 344.42188 265.97162Q343.96875 265.56537 343.09375 265.54974L342.28125 265.54974L342.28125 264.65912Z" fill-rule="nonzero"/><path stroke="#4285f4" stroke-width="3.0" stroke-linejoin="round" stroke-linecap="round" d="M417.26562 275.594L416.1875 275.594L416.1875 268.37524L414.0 269.17212L414.0 268.18774L417.10938 267.01587L417.26562 267.01587L417.26562 275.594ZM426.29688 275.594L420.70312 275.594L420.70312 274.81274L423.65625 271.5315Q424.3125 270.7815 424.5625 270.32837Q424.8125 269.85962 424.8125 269.35962Q424.8125 268.68774 424.40625 268.26587Q424.01562 267.82837 423.32812 267.82837Q422.53125 267.82837 422.07812 268.29712Q421.625 268.75024 421.625 269.57837L420.54688 269.57837Q420.54688 268.39087 421.29688 267.67212Q422.0625 266.93774 423.32812 266.93774Q424.53125 266.93774 425.21875 267.56274Q425.90625 268.18774 425.90625 269.23462Q425.90625 270.48462 424.29688 272.23462L422.01562 274.70337L426.29688 274.70337L426.29688 275.594Z" fill-rule="nonzero"/><path fill="#ffffff" d="M417.26562 275.594L416.1875 275.594L416.1875 268.37524L414.0 269.17212L414.0 268.18774L417.10938 267.01587L417.26562 267.01587L417.26562 275.594ZM426.29688 275.594L420.70312 275.594L420.70312 274.81274L423.65625 271.5315Q424.3125 270.7815 424.5625 270.32837Q424.8125 269.85962 424.8125 269.35962Q424.8125 268.68774 424.40625 268.26587Q424.01562 267.82837 423.32812 267.82837Q422.53125 267.82837 422.07812 268.29712Q421.625 268.75024 421.625 269.57837L420.54688 269.57837Q420.54688 268.39087 421.29688 267.67212Q422.0625 266.93774 423.32812 266.93774Q424.53125 266.93774 425.21875 267.56274Q425.90625 268.18774 425.90625 269.23462Q425.90625 270.48462 424.29688 272.23462L422.01562 274.70337L426.29688 274.70337L426.29688 275.594Z" fill-rule="nonzero"/><path stroke="#4285f4" stroke-width="3.0" stroke-linejoin="round" stroke-linecap="round" d="M498.28125 82.45663L499.46875 82.45663L499.46875 83.33163L498.28125 83.33163L498.28125 85.316L497.20312 85.316L497.20312 83.33163L493.3125 83.33163L493.3125 82.691L497.125 76.78475L498.28125 76.78475L498.28125 82.45663ZM494.54688 82.45663L497.20312 82.45663L497.20312 78.26913L497.0625 78.5035L494.54688 82.45663ZM502.28125 80.51913L503.09375 80.51913Q503.875 80.5035 504.3125 80.11288Q504.75 79.72225 504.75 79.05038Q504.75 77.55038 503.25 77.55038Q502.54688 77.55038 502.125 77.95663Q501.71875 78.36288 501.71875 79.01913L500.625 79.01913Q500.625 78.0035 501.35938 77.33163Q502.10938 76.65975 503.25 76.65975Q504.45312 76.65975 505.14062 77.30038Q505.82812 77.941 505.82812 79.08163Q505.82812 79.64413 505.46875 80.15975Q505.10938 80.67538 504.48438 80.941Q505.1875 81.15975 505.5625 81.67538Q505.95312 82.191 505.95312 82.941Q505.95312 84.08163 505.20312 84.76913Q504.45312 85.441 503.25 85.441Q502.0625 85.441 501.29688 84.78475Q500.54688 84.1285 500.54688 83.066L501.64062 83.066Q501.64062 83.73788 502.07812 84.14413Q502.51562 84.55038 503.26562 84.55038Q504.04688 84.55038 504.45312 84.14413Q504.875 83.72225 504.875 82.95663Q504.875 82.22225 504.42188 81.83163Q503.96875 81.42538 503.09375 81.40975L502.28125 81.40975L502.28125 80.51913Z" fill-rule="nonzero"/><path fill="#ffffff" d="M498.28125 82.45663L499.46875 82.45663L499.46875 83.33163L498.28125 83.33163L498.28125 85.316L497.20312 85.316L497.20312 83.33163L493.3125 83.33163L493.3125 82.691L497.125 76.78475L498.28125 76.78475L498.28125 82.45663ZM494.54688 82.45663L497.20312 82.45663L497.20312 78.26913L497.0625 78.5035L494.54688 82.45663ZM502.28125 80.51913L503.09375 80.51913Q503.875 80.5035 504.3125 80.11288Q504.75 79.72225 504.75 79.05038Q504.75 77.55038 503.25 77.55038Q502.54688 77.55038 502.125 77.95663Q501.71875 78.36288 501.71875 79.01913L500.625 79.01913Q500.625 78.0035 501.35938 77.33163Q502.10938 76.65975 503.25 76.65975Q504.45312 76.65975 505.14062 77.30038Q505.82812 77.941 505.82812 79.08163Q505.82812 79.64413 505.46875 80.15975Q505.10938 80.67538 504.48438 80.941Q505.1875 81.15975 505.5625 81.67538Q505.95312 82.191 505.95312 82.941Q505.95312 84.08163 505.20312 84.76913Q504.45312 85.441 503.25 85.441Q502.0625 85.441 501.29688 84.78475Q500.54688 84.1285 500.54688 83.066L501.64062 83.066Q501.64062 83.73788 502.07812 84.14413Q502.51562 84.55038 503.26562 84.55038Q504.04688 84.55038 504.45312 84.14413Q504.875 83.72225 504.875 82.95663Q504.875 82.22225 504.42188 81.83163Q503.96875 81.42538 503.09375 81.40975L502.28125 81.40975L502.28125 80.51913Z" fill-rule="nonzero"/><path stroke="#4285f4" stroke-width="3.0" stroke-linejoin="round" stroke-linecap="round" d="M577.2656 244.904L576.1875 244.904L576.1875 237.68526L574.0 238.48213L574.0 237.49776L577.1094 236.32588L577.2656 236.32588L577.2656 244.904ZM586.21875 236.98213L582.6875 244.904L581.5469 244.904L585.0625 237.26338L580.4531 237.26338L580.4531 236.37276L586.21875 236.37276L586.21875 236.98213Z" fill-rule="nonzero"/><path fill="#ffffff" d="M577.2656 244.904L576.1875 244.904L576.1875 237.68526L574.0 238.48213L574.0 237.49776L577.1094 236.32588L577.2656 236.32588L577.2656 244.904ZM586.21875 236.98213L582.6875 244.904L581.5469 244.904L585.0625 237.26338L580.4531 237.26338L580.4531 236.37276L586.21875 236.37276L586.21875 236.98213Z" fill-rule="nonzero"/><path stroke="#4285f4" stroke-width="3.0" stroke-linejoin="round" stroke-linecap="round" d="M659.2969 226.49L653.7031 226.49L653.7031 225.70876L656.65625 222.4275Q657.3125 221.6775 657.5625 221.22438Q657.8125 220.75563 657.8125 220.25563Q657.8125 219.58376 657.40625 219.16188Q657.0156 218.72438 656.3281 218.72438Q655.53125 218.72438 655.0781 219.19313Q654.625 219.64626 654.625 220.47438L653.5469 220.47438Q653.5469 219.28688 654.2969 218.56813Q655.0625 217.83376 656.3281 217.83376Q657.53125 217.83376 658.21875 218.45876Q658.90625 219.08376 658.90625 220.13063Q658.90625 221.38063 657.2969 223.13063L655.0156 225.59938L659.2969 225.59938L659.2969 226.49ZM666.0625 222.84938Q666.0625 224.75563 665.40625 225.69313Q664.7656 226.615 663.375 226.615Q662.0156 226.615 661.3594 225.70876Q660.7031 224.8025 660.6719 222.99L660.6719 221.5525Q660.6719 219.66188 661.3125 218.75563Q661.96875 217.83376 663.3594 217.83376Q664.7344 217.83376 665.3906 218.72438Q666.0469 219.59938 666.0625 221.44313L666.0625 222.84938ZM664.96875 221.365Q664.96875 219.99 664.5781 219.365Q664.2031 218.72438 663.3594 218.72438Q662.53125 218.72438 662.1406 219.365Q661.7656 219.99 661.7656 221.28688L661.7656 223.02126Q661.7656 224.39626 662.15625 225.06813Q662.5625 225.72438 663.375 225.72438Q664.1719 225.72438 664.5625 225.09938Q664.9531 224.47438 664.96875 223.14626L664.96875 221.365Z" fill-rule="nonzero"/><path fill="#ffffff" d="M659.2969 226.49L653.7031 226.49L653.7031 225.70876L656.65625 222.4275Q657.3125 221.6775 657.5625 221.22438Q657.8125 220.75563 657.8125 220.25563Q657.8125 219.58376 657.40625 219.16188Q657.0156 218.72438 656.3281 218.72438Q655.53125 218.72438 655.0781 219.19313Q654.625 219.64626 654.625 220.47438L653.5469 220.47438Q653.5469 219.28688 654.2969 218.56813Q655.0625 217.83376 656.3281 217.83376Q657.53125 217.83376 658.21875 218.45876Q658.90625 219.08376 658.90625 220.13063Q658.90625 221.38063 657.2969 223.13063L655.0156 225.59938L659.2969 225.59938L659.2969 226.49ZM666.0625 222.84938Q666.0625 224.75563 665.40625 225.69313Q664.7656 226.615 663.375 226.615Q662.0156 226.615 661.3594 225.70876Q660.7031 224.8025 660.6719 222.99L660.6719 221.5525Q660.6719 219.66188 661.3125 218.75563Q661.96875 217.83376 663.3594 217.83376Q664.7344 217.83376 665.3906 218.72438Q666.0469 219.59938 666.0625 221.44313L666.0625 222.84938ZM664.96875 221.365Q664.96875 219.99 664.5781 219.365Q664.2031 218.72438 663.3594 218.72438Q662.53125 218.72438 662.1406 219.365Q661.7656 219.99 661.7656 221.28688L661.7656 223.02126Q661.7656 224.39626 662.15625 225.06813Q662.5625 225.72438 663.375 225.72438Q664.1719 225.72438 664.5625 225.09938Q664.9531 224.47438 664.96875 223.14626L664.96875 221.365Z" fill-rule="nonzero"/><path fill="#000000" d="M33.05 332.21564Q33.05 330.6844 33.3625 329.7625Q33.675 328.825 34.284374 328.325Q34.909374 327.825 35.846874 327.825Q36.534374 327.825 37.05 328.10626Q37.58125 328.3875 37.925 328.91876Q38.26875 329.4344 38.45625 330.1844Q38.64375 330.9344 38.64375 332.21564Q38.64375 333.73126 38.33125 334.65314Q38.034374 335.575 37.409374 336.09064Q36.8 336.59064 35.846874 336.59064Q34.6125 336.59064 33.89375 335.7Q33.05 334.6375 33.05 332.21564ZM34.128124 332.21564Q34.128124 334.325 34.628124 335.02814Q35.128124 335.73126 35.846874 335.73126Q36.58125 335.73126 37.065624 335.02814Q37.565624 334.325 37.565624 332.21564Q37.565624 330.09064 37.065624 329.40314Q36.58125 328.7 35.83125 328.7Q35.1125 328.7 34.675 329.3094Q34.128124 330.09064 34.128124 332.21564Z" fill-rule="nonzero"/><path fill="#000000" d="M30.01875 275.07L28.971874 275.07L28.971874 268.35126Q28.58125 268.71063 27.95625 269.08563Q27.346874 269.445 26.8625 269.61688L26.8625 268.60126Q27.7375 268.17938 28.39375 267.60126Q29.065624 267.0075 29.346874 266.445L30.01875 266.445L30.01875 275.07ZM33.05 270.83563Q33.05 269.30438 33.3625 268.3825Q33.675 267.445 34.284374 266.945Q34.909374 266.445 35.846874 266.445Q36.534374 266.445 37.05 266.72626Q37.58125 267.0075 37.925 267.53876Q38.26875 268.05438 38.45625 268.80438Q38.64375 269.55438 38.64375 270.83563Q38.64375 272.35126 38.33125 273.27313Q38.034374 274.195 37.409374 274.71063Q36.8 275.21063 35.846874 275.21063Q34.6125 275.21063 33.89375 274.32Q33.05 273.2575 33.05 270.83563ZM34.128124 270.83563Q34.128124 272.945 34.628124 273.64813Q35.128124 274.35126 35.846874 274.35126Q36.58125 274.35126 37.065624 273.64813Q37.565624 272.945 37.565624 270.83563Q37.565624 268.71063 37.065624 268.02313Q36.58125 267.32 35.83125 267.32Q35.1125 267.32 34.675 267.92938Q34.128124 268.71063 34.128124 270.83563Z" fill-rule="nonzero"/><path fill="#000000" d="M31.596874 212.67438L31.596874 213.69L25.909374 213.69Q25.909374 213.315 26.034374 212.95563Q26.253124 212.3775 26.721874 211.815Q27.20625 211.2525 28.1125 210.51813Q29.51875 209.36188 30.003124 208.69Q30.503124 208.01813 30.503124 207.42438Q30.503124 206.79938 30.05 206.3775Q29.596874 205.94 28.878124 205.94Q28.1125 205.94 27.659374 206.39313Q27.20625 206.84625 27.190624 207.65875L26.1125 207.54938Q26.221874 206.33063 26.940624 205.70563Q27.675 205.065 28.909374 205.065Q30.14375 205.065 30.8625 205.7525Q31.58125 206.44 31.58125 207.45563Q31.58125 207.97125 31.3625 208.47125Q31.159374 208.95563 30.659374 209.51813Q30.175 210.065 29.05 211.01813Q28.096874 211.815 27.815624 212.11188Q27.55 212.39313 27.378124 212.67438L31.596874 212.67438ZM33.05 209.45563Q33.05 207.92438 33.3625 207.0025Q33.675 206.065 34.284374 205.565Q34.909374 205.065 35.846874 205.065Q36.534374 205.065 37.05 205.34625Q37.58125 205.6275 37.925 206.15875Q38.26875 206.67438 38.45625 207.42438Q38.64375 208.17438 38.64375 209.45563Q38.64375 210.97125 38.33125 211.89313Q38.034374 212.815 37.409374 213.33063Q36.8 213.83063 35.846874 213.83063Q34.6125 213.83063 33.89375 212.94Q33.05 211.8775 33.05 209.45563ZM34.128124 209.45563Q34.128124 211.565 34.628124 212.26813Q35.128124 212.97125 35.846874 212.97125Q36.58125 212.97125 37.065624 212.26813Q37.565624 211.565 37.565624 209.45563Q37.565624 207.33063 37.065624 206.64313Q36.58125 205.94 35.83125 205.94Q35.1125 205.94 34.675 206.54938Q34.128124 207.33063 34.128124 209.45563Z" fill-rule="nonzero"/><path fill="#000000" d="M26.05 150.04437L27.1125 149.90375Q27.284374 150.79437 27.721874 151.20062Q28.159374 151.59125 28.784374 151.59125Q29.534374 151.59125 30.05 151.07562Q30.565624 150.56 30.565624 149.79437Q30.565624 149.07562 30.08125 148.60687Q29.6125 148.1225 28.878124 148.1225Q28.58125 148.1225 28.128124 148.2475L28.253124 147.31Q28.3625 147.32562 28.425 147.32562Q29.096874 147.32562 29.628124 146.98187Q30.175 146.6225 30.175 145.88812Q30.175 145.31 29.784374 144.935Q29.39375 144.54437 28.76875 144.54437Q28.159374 144.54437 27.7375 144.935Q27.33125 145.32562 27.221874 146.09125L26.159374 145.90375Q26.346874 144.85687 27.034374 144.27875Q27.721874 143.685 28.7375 143.685Q29.440624 143.685 30.034374 143.9975Q30.628124 144.29437 30.940624 144.81Q31.253124 145.32562 31.253124 145.91937Q31.253124 146.46625 30.95625 146.935Q30.659374 147.38812 30.08125 147.65375Q30.83125 147.82562 31.253124 148.38812Q31.675 148.935 31.675 149.77875Q31.675 150.90375 30.846874 151.685Q30.034374 152.46625 28.784374 152.46625Q27.659374 152.46625 26.909374 151.79437Q26.159374 151.10687 26.05 150.04437ZM33.05 148.07562Q33.05 146.54437 33.3625 145.6225Q33.675 144.685 34.284374 144.185Q34.909374 143.685 35.846874 143.685Q36.534374 143.685 37.05 143.96625Q37.58125 144.2475 37.925 144.77875Q38.26875 145.29437 38.45625 146.04437Q38.64375 146.79437 38.64375 148.07562Q38.64375 149.59125 38.33125 150.51312Q38.034374 151.435 37.409374 151.95062Q36.8 152.45062 35.846874 152.45062Q34.6125 152.45062 33.89375 151.56Q33.05 150.4975 33.05 148.07562ZM34.128124 148.07562Q34.128124 150.185 34.628124 150.88812Q35.128124 151.59125 35.846874 151.59125Q36.58125 151.59125 37.065624 150.88812Q37.565624 150.185 37.565624 148.07562Q37.565624 145.95062 37.065624 145.26312Q36.58125 144.56 35.83125 144.56Q35.1125 144.56 34.675 145.16937Q34.128124 145.95062 34.128124 148.07562Z" fill-rule="nonzero"/><path fill="#000000" d="M29.425 90.93L29.425 88.8675L25.70625 88.8675L25.70625 87.89875L29.628124 82.33625L30.4875 82.33625L30.4875 87.89875L31.64375 87.89875L31.64375 88.8675L30.4875 88.8675L30.4875 90.93L29.425 90.93ZM29.425 87.89875L29.425 84.039375L26.7375 87.89875L29.425 87.89875ZM33.05 86.695625Q33.05 85.164375 33.3625 84.2425Q33.675 83.305 34.284374 82.805Q34.909374 82.305 35.846874 82.305Q36.534374 82.305 37.05 82.58625Q37.58125 82.8675 37.925 83.39875Q38.26875 83.914375 38.45625 84.664375Q38.64375 85.414375 38.64375 86.695625Q38.64375 88.21125 38.33125 89.133125Q38.034374 90.055 37.409374 90.570625Q36.8 91.070625 35.846874 91.070625Q34.6125 91.070625 33.89375 90.18Q33.05 89.1175 33.05 86.695625ZM34.128124 86.695625Q34.128124 88.805 34.628124 89.508125Q35.128124 90.21125 35.846874 90.21125Q36.58125 90.21125 37.065624 89.508125Q37.565624 88.805 37.565624 86.695625Q37.565624 84.570625 37.065624 83.883125Q36.58125 83.18 35.83125 83.18Q35.1125 83.18 34.675 83.789375Q34.128124 84.570625 34.128124 86.695625Z" fill-rule="nonzero"/><path fill="#000000" d="M26.05 27.3L27.159374 27.20625Q27.284374 28.01875 27.721874 28.425Q28.175 28.83125 28.815624 28.83125Q29.565624 28.83125 30.096874 28.253124Q30.628124 27.675 30.628124 26.7375Q30.628124 25.83125 30.1125 25.315624Q29.6125 24.784374 28.784374 24.784374Q28.284374 24.784374 27.8625 25.01875Q27.45625 25.253124 27.221874 25.6125L26.2375 25.4875L27.065624 21.08125L31.346874 21.08125L31.346874 22.08125L27.909374 22.08125L27.45625 24.39375Q28.221874 23.846874 29.065624 23.846874Q30.190624 23.846874 30.95625 24.628124Q31.7375 25.409374 31.7375 26.64375Q31.7375 27.8 31.065624 28.659374Q30.2375 29.690624 28.815624 29.690624Q27.64375 29.690624 26.89375 29.034374Q26.159374 28.378124 26.05 27.3ZM33.05 25.315624Q33.05 23.784374 33.3625 22.8625Q33.675 21.925 34.284374 21.425Q34.909374 20.925 35.846874 20.925Q36.534374 20.925 37.05 21.20625Q37.58125 21.4875 37.925 22.01875Q38.26875 22.534374 38.45625 23.284374Q38.64375 24.034374 38.64375 25.315624Q38.64375 26.83125 38.33125 27.753124Q38.034374 28.675 37.409374 29.190624Q36.8 29.690624 35.846874 29.690624Q34.6125 29.690624 33.89375 28.8Q33.05 27.7375 33.05 25.315624ZM34.128124 25.315624Q34.128124 27.425 34.628124 28.128124Q35.128124 28.83125 35.846874 28.83125Q36.58125 28.83125 37.065624 28.128124Q37.565624 27.425 37.565624 25.315624Q37.565624 23.190624 37.065624 22.503124Q36.58125 21.8 35.83125 21.8Q35.1125 21.8 34.675 22.409374Q34.128124 23.190624 34.128124 25.315624Z" fill-rule="nonzero"/><path fill="#000000" d="M63.38838 349.45L63.38838 340.85626L64.45088 340.85626L64.45088 349.45L63.38838 349.45ZM70.66963 347.45L71.76338 347.575Q71.51338 348.52814 70.81026 349.0594Q70.10713 349.59064 69.02901 349.59064Q67.66963 349.59064 66.85713 348.7469Q66.06026 347.90314 66.06026 346.3875Q66.06026 344.825 66.87276 343.96564Q67.68526 343.09064 68.96651 343.09064Q70.21651 343.09064 70.99776 343.9344Q71.79463 344.77814 71.79463 346.325Q71.79463 346.41876 71.79463 346.60626L67.15401 346.60626Q67.21651 347.6375 67.73213 348.1844Q68.24776 348.71564 69.02901 348.71564Q69.60713 348.71564 70.01338 348.41876Q70.43526 348.10626 70.66963 347.45ZM67.21651 345.7469L70.68526 345.7469Q70.62276 344.95 70.29463 344.5594Q69.77901 343.95 68.98213 343.95Q68.24776 343.95 67.74776 344.4344Q67.26338 344.91876 67.21651 345.7469ZM72.99776 347.59064L74.02901 347.4344Q74.12276 348.0594 74.51338 348.3875Q74.91963 348.71564 75.65401 348.71564Q76.37276 348.71564 76.71651 348.4344Q77.07588 348.1375 77.07588 347.73126Q77.07588 347.3719 76.76338 347.16876Q76.54463 347.02814 75.68526 346.8094Q74.52901 346.5125 74.07588 346.3094Q73.63838 346.09064 73.40401 345.71564Q73.16963 345.34064 73.16963 344.8719Q73.16963 344.46564 73.35713 344.10626Q73.54463 343.7469 73.87276 343.5125Q74.12276 343.34064 74.54463 343.21564Q74.96651 343.09064 75.46651 343.09064Q76.18526 343.09064 76.73213 343.3094Q77.29463 343.5125 77.56026 343.8719Q77.82588 344.23126 77.91963 344.825L76.88838 344.96564Q76.82588 344.4969 76.48213 344.23126Q76.15401 343.95 75.52901 343.95Q74.81026 343.95 74.49776 344.2Q74.18526 344.4344 74.18526 344.7625Q74.18526 344.96564 74.31026 345.1219Q74.45088 345.29376 74.71651 345.40314Q74.87276 345.46564 75.65401 345.66876Q76.77901 345.98126 77.21651 346.16876Q77.65401 346.35626 77.90401 346.71564Q78.15401 347.075 78.15401 347.6219Q78.15401 348.15314 77.84151 348.6219Q77.54463 349.075 76.96651 349.34064Q76.38838 349.59064 75.65401 349.59064Q74.43526 349.59064 73.79463 349.09064Q73.16963 348.575 72.99776 347.59064ZM79.99776 347.59064L81.02901 347.4344Q81.12276 348.0594 81.51338 348.3875Q81.91963 348.71564 82.65401 348.71564Q83.37276 348.71564 83.71651 348.4344Q84.07588 348.1375 84.07588 347.73126Q84.07588 347.3719 83.76338 347.16876Q83.54463 347.02814 82.68526 346.8094Q81.52901 346.5125 81.07588 346.3094Q80.63838 346.09064 80.40401 345.71564Q80.16963 345.34064 80.16963 344.8719Q80.16963 344.46564 80.35713 344.10626Q80.54463 343.7469 80.87276 343.5125Q81.12276 343.34064 81.54463 343.21564Q81.96651 343.09064 82.46651 343.09064Q83.18526 343.09064 83.73213 343.3094Q84.29463 343.5125 84.56026 343.8719Q84.82588 344.23126 84.91963 344.825L83.88838 344.96564Q83.82588 344.4969 83.48213 344.23126Q83.15401 343.95 82.52901 343.95Q81.81026 343.95 81.49776 344.2Q81.18526 344.4344 81.18526 344.7625Q81.18526 344.96564 81.31026 345.1219Q81.45088 345.29376 81.71651 345.40314Q81.87276 345.46564 82.65401 345.66876Q83.77901 345.98126 84.21651 346.16876Q84.65401 346.35626 84.90401 346.71564Q85.15401 347.075 85.15401 347.6219Q85.15401 348.15314 84.84151 348.6219Q84.54463 349.075 83.96651 349.34064Q83.38838 349.59064 82.65401 349.59064Q81.43526 349.59064 80.79463 349.09064Q80.16963 348.575 79.99776 347.59064ZM92.71651 348.5125L92.87276 349.4344Q92.41963 349.52814 92.07588 349.52814Q91.49776 349.52814 91.18526 349.35626Q90.87276 349.16876 90.73213 348.8719Q90.60713 348.575 90.60713 347.6219L90.60713 344.04376L89.84151 344.04376L89.84151 343.23126L90.60713 343.23126L90.60713 341.6844L91.65401 341.0594L91.65401 343.23126L92.71651 343.23126L92.71651 344.04376L91.65401 344.04376L91.65401 347.6844Q91.65401 348.1375 91.70088 348.2625Q91.76338 348.3875 91.88838 348.46564Q92.01338 348.54376 92.24776 348.54376Q92.43526 348.54376 92.71651 348.5125ZM93.41963 349.45L93.41963 340.85626L94.46651 340.85626L94.46651 343.9344Q95.20088 343.09064 96.32588 343.09064Q97.02901 343.09064 97.52901 343.3719Q98.04463 343.6375 98.26338 344.1219Q98.48213 344.59064 98.48213 345.5125L98.48213 349.45L97.43526 349.45L97.43526 345.5125Q97.43526 344.71564 97.09151 344.35626Q96.74776 343.9969 96.12276 343.9969Q95.65401 343.9969 95.23213 344.2469Q94.82588 344.48126 94.63838 344.90314Q94.46651 345.3094 94.46651 346.04376L94.46651 349.45L93.41963 349.45ZM104.48213 348.6844Q103.88838 349.1844 103.34151 349.3875Q102.81026 349.59064 102.18526 349.59064Q101.15401 349.59064 100.60713 349.09064Q100.06026 348.59064 100.06026 347.8094Q100.06026 347.35626 100.26338 346.98126Q100.46651 346.59064 100.81026 346.3719Q101.15401 346.1375 101.57588 346.02814Q101.87276 345.9344 102.51338 345.85626Q103.77901 345.71564 104.38838 345.4969Q104.38838 345.27814 104.38838 345.23126Q104.38838 344.575 104.09151 344.3094Q103.68526 343.96564 102.88838 343.96564Q102.15401 343.96564 101.79463 344.23126Q101.43526 344.48126 101.26338 345.1375L100.23213 344.9969Q100.37276 344.34064 100.70088 343.9344Q101.02901 343.52814 101.63838 343.3094Q102.24776 343.09064 103.04463 343.09064Q103.84151 343.09064 104.34151 343.27814Q104.84151 343.46564 105.07588 343.7469Q105.31026 344.02814 105.40401 344.46564Q105.45088 344.73126 105.45088 345.4344L105.45088 346.84064Q105.45088 348.3094 105.51338 348.7Q105.59151 349.09064 105.79463 349.45L104.68526 349.45Q104.52901 349.1219 104.48213 348.6844ZM104.38838 346.325Q103.81026 346.5594 102.66963 346.73126Q102.01338 346.825 101.74776 346.95Q101.48213 347.0594 101.32588 347.27814Q101.18526 347.4969 101.18526 347.77814Q101.18526 348.2 101.49776 348.48126Q101.82588 348.7625 102.43526 348.7625Q103.04463 348.7625 103.51338 348.4969Q103.99776 348.23126 104.21651 347.7625Q104.38838 347.40314 104.38838 346.71564L104.38838 346.325ZM107.41963 349.45L107.41963 343.23126L108.35713 343.23126L108.35713 344.10626Q109.04463 343.09064 110.34151 343.09064Q110.90401 343.09064 111.37276 343.29376Q111.85713 343.4969 112.09151 343.825Q112.32588 344.15314 112.41963 344.59064Q112.46651 344.8875 112.46651 345.6219L112.46651 349.45L111.41963 349.45L111.41963 345.66876Q111.41963 345.0125 111.29463 344.7Q111.16963 344.3875 110.85713 344.2Q110.54463 343.9969 110.12276 343.9969Q109.45088 343.9969 108.95088 344.4344Q108.46651 344.85626 108.46651 346.04376L108.46651 349.45L107.41963 349.45ZM117.12276 347.2L118.23213 347.10626Q118.35713 347.91876 118.79463 348.325Q119.24776 348.73126 119.88838 348.73126Q120.63838 348.73126 121.16963 348.15314Q121.70088 347.575 121.70088 346.6375Q121.70088 345.73126 121.18526 345.21564Q120.68526 344.6844 119.85713 344.6844Q119.35713 344.6844 118.93526 344.91876Q118.52901 345.15314 118.29463 345.5125L117.31026 345.3875L118.13838 340.98126L122.41963 340.98126L122.41963 341.98126L118.98213 341.98126L118.52901 344.29376Q119.29463 343.7469 120.13838 343.7469Q121.26338 343.7469 122.02901 344.52814Q122.81026 345.3094 122.81026 346.54376Q122.81026 347.7 122.13838 348.5594Q121.31026 349.59064 119.88838 349.59064Q118.71651 349.59064 117.96651 348.9344Q117.23213 348.27814 117.12276 347.2ZM124.12276 345.21564Q124.12276 343.6844 124.43526 342.7625Q124.74776 341.825 125.35713 341.325Q125.98213 340.825 126.91963 340.825Q127.60713 340.825 128.12276 341.10626Q128.654 341.3875 128.99776 341.91876Q129.3415 342.4344 129.529 343.1844Q129.7165 343.9344 129.7165 345.21564Q129.7165 346.73126 129.404 347.65314Q129.10713 348.575 128.48213 349.09064Q127.87276 349.59064 126.91963 349.59064Q125.68526 349.59064 124.96651 348.7Q124.12276 347.6375 124.12276 345.21564ZM125.20088 345.21564Q125.20088 347.325 125.70088 348.02814Q126.20088 348.73126 126.91963 348.73126Q127.65401 348.73126 128.13838 348.02814Q128.63838 347.325 128.63838 345.21564Q128.63838 343.09064 128.13838 342.40314Q127.65401 341.7 126.90401 341.7Q126.18526 341.7 125.74776 342.3094Q125.20088 343.09064 125.20088 345.21564ZM131.41963 349.45L131.41963 340.85626L132.48213 340.85626L132.48213 345.7625L134.9665 343.23126L136.3415 343.23126L133.95088 345.52814L136.57588 349.45L135.279 349.45L133.2165 346.2625L132.48213 346.98126L132.48213 349.45L131.41963 349.45Z" fill-rule="nonzero"/><path fill="#000000" d="M155.23055 347.2L156.33992 347.10626Q156.46492 347.91876 156.90242 348.325Q157.35555 348.73126 157.99617 348.73126Q158.74617 348.73126 159.27742 348.15314Q159.80867 347.575 159.80867 346.6375Q159.80867 345.73126 159.29305 345.21564Q158.79305 344.6844 157.96492 344.6844Q157.46492 344.6844 157.04305 344.91876Q156.6368 345.15314 156.40242 345.5125L155.41805 345.3875L156.24617 340.98126L160.52742 340.98126L160.52742 341.98126L157.08992 341.98126L156.6368 344.29376Q157.40242 343.7469 158.24617 343.7469Q159.37117 343.7469 160.1368 344.52814Q160.91805 345.3094 160.91805 346.54376Q160.91805 347.7 160.24617 348.5594Q159.41805 349.59064 157.99617 349.59064Q156.8243 349.59064 156.0743 348.9344Q155.33992 348.27814 155.23055 347.2ZM162.23055 345.21564Q162.23055 343.6844 162.54305 342.7625Q162.85555 341.825 163.46492 341.325Q164.08992 340.825 165.02742 340.825Q165.71492 340.825 166.23055 341.10626Q166.7618 341.3875 167.10555 341.91876Q167.4493 342.4344 167.6368 343.1844Q167.8243 343.9344 167.8243 345.21564Q167.8243 346.73126 167.5118 347.65314Q167.21492 348.575 166.58992 349.09064Q165.98055 349.59064 165.02742 349.59064Q163.79305 349.59064 163.0743 348.7Q162.23055 347.6375 162.23055 345.21564ZM163.30867 345.21564Q163.30867 347.325 163.80867 348.02814Q164.30867 348.73126 165.02742 348.73126Q165.7618 348.73126 166.24617 348.02814Q166.74617 347.325 166.74617 345.21564Q166.74617 343.09064 166.24617 342.40314Q165.7618 341.7 165.0118 341.7Q164.29305 341.7 163.85555 342.3094Q163.30867 343.09064 163.30867 345.21564ZM169.52742 349.45L169.52742 340.85626L170.58992 340.85626L170.58992 345.7625L173.0743 343.23126L174.4493 343.23126L172.05867 345.52814L174.68367 349.45L173.3868 349.45L171.3243 346.2625L170.58992 346.98126L170.58992 349.45L169.52742 349.45ZM178.10555 346.8719L178.10555 345.8094L181.35555 345.8094L181.35555 346.8719L178.10555 346.8719ZM185.29305 341.98126L185.29305 340.96564L190.85555 340.96564L190.85555 341.79376Q190.04305 342.66876 189.23055 344.1219Q188.43367 345.5594 187.99617 347.09064Q187.66805 348.16876 187.58992 349.45L186.49617 349.45Q186.5118 348.4344 186.8868 346.9969Q187.27742 345.5594 187.98055 344.23126Q188.6993 342.90314 189.5118 341.98126L185.29305 341.98126ZM192.23055 347.2L193.33992 347.10626Q193.46492 347.91876 193.90242 348.325Q194.35555 348.73126 194.99617 348.73126Q195.74617 348.73126 196.27742 348.15314Q196.80867 347.575 196.80867 346.6375Q196.80867 345.73126 196.29305 345.21564Q195.79305 344.6844 194.96492 344.6844Q194.46492 344.6844 194.04305 344.91876Q193.6368 345.15314 193.40242 345.5125L192.41805 345.3875L193.24617 340.98126L197.52742 340.98126L197.52742 341.98126L194.08992 341.98126L193.6368 344.29376Q194.40242 343.7469 195.24617 343.7469Q196.37117 343.7469 197.1368 344.52814Q197.91805 345.3094 197.91805 346.54376Q197.91805 347.7 197.24617 348.5594Q196.41805 349.59064 194.99617 349.59064Q193.8243 349.59064 193.0743 348.9344Q192.33992 348.27814 192.23055 347.2ZM199.52742 349.45L199.52742 340.85626L200.58992 340.85626L200.58992 345.7625L203.0743 343.23126L204.4493 343.23126L202.05867 345.52814L204.68367 349.45L203.3868 349.45L201.3243 346.2625L200.58992 346.98126L200.58992 349.45L199.52742 349.45Z" fill-rule="nonzero"/><path fill="#000000" d="M234.90082 341.98126L234.90082 340.96564L240.46332 340.96564L240.46332 341.79376Q239.65082 342.66876 238.83832 344.1219Q238.04144 345.5594 237.60394 347.09064Q237.27582 348.16876 237.1977 349.45L236.10394 349.45Q236.11957 348.4344 236.49457 346.9969Q236.8852 345.5594 237.58832 344.23126Q238.30707 342.90314 239.11957 341.98126L234.90082 341.98126ZM241.83832 347.2L242.9477 347.10626Q243.0727 347.91876 243.5102 348.325Q243.96332 348.73126 244.60394 348.73126Q245.35394 348.73126 245.8852 348.15314Q246.41644 347.575 246.41644 346.6375Q246.41644 345.73126 245.90082 345.21564Q245.40082 344.6844 244.5727 344.6844Q244.0727 344.6844 243.65082 344.91876Q243.24457 345.15314 243.0102 345.5125L242.02582 345.3875L242.85394 340.98126L247.1352 340.98126L247.1352 341.98126L243.6977 341.98126L243.24457 344.29376Q244.0102 343.7469 244.85394 343.7469Q245.97894 343.7469 246.74457 344.52814Q247.52582 345.3094 247.52582 346.54376Q247.52582 347.7 246.85394 348.5594Q246.02582 349.59064 244.60394 349.59064Q243.43207 349.59064 242.68207 348.9344Q241.9477 348.27814 241.83832 347.2ZM249.1352 349.45L249.1352 340.85626L250.1977 340.85626L250.1977 345.7625L252.68207 343.23126L254.05707 343.23126L251.66644 345.52814L254.29144 349.45L252.99457 349.45L250.93207 346.2625L250.1977 346.98126L250.1977 349.45L249.1352 349.45ZM254.71332 346.8719L254.71332 345.8094L257.96332 345.8094L257.96332 346.8719L254.71332 346.8719ZM262.80707 349.45L261.7602 349.45L261.7602 342.73126Q261.36957 343.09064 260.74457 343.46564Q260.1352 343.825 259.65082 343.9969L259.65082 342.98126Q260.52582 342.5594 261.18207 341.98126Q261.85394 341.3875 262.1352 340.825L262.80707 340.825L262.80707 349.45ZM265.83832 345.21564Q265.83832 343.6844 266.15082 342.7625Q266.46332 341.825 267.0727 341.325Q267.6977 340.825 268.6352 340.825Q269.3227 340.825 269.83832 341.10626Q270.36957 341.3875 270.71332 341.91876Q271.05707 342.4344 271.24457 343.1844Q271.43207 343.9344 271.43207 345.21564Q271.43207 346.73126 271.11957 347.65314Q270.8227 348.575 270.1977 349.09064Q269.58832 349.59064 268.6352 349.59064Q267.40082 349.59064 266.68207 348.7Q265.83832 347.6375 265.83832 345.21564ZM266.91644 345.21564Q266.91644 347.325 267.41644 348.02814Q267.91644 348.73126 268.6352 348.73126Q269.36957 348.73126 269.85394 348.02814Q270.35394 347.325 270.35394 345.21564Q270.35394 343.09064 269.85394 342.40314Q269.36957 341.7 268.61957 341.7Q267.90082 341.7 267.46332 342.3094Q266.91644 343.09064 266.91644 345.21564ZM272.83832 345.21564Q272.83832 343.6844 273.15082 342.7625Q273.46332 341.825 274.0727 341.325Q274.6977 340.825 275.6352 340.825Q276.3227 340.825 276.83832 341.10626Q277.36957 341.3875 277.71332 341.91876Q278.05707 342.4344 278.24457 343.1844Q278.43207 343.9344 278.43207 345.21564Q278.43207 346.73126 278.11957 347.65314Q277.8227 348.575 277.1977 349.09064Q276.58832 349.59064 275.6352 349.59064Q274.40082 349.59064 273.68207 348.7Q272.83832 347.6375 272.83832 345.21564ZM273.91644 345.21564Q273.91644 347.325 274.41644 348.02814Q274.91644 348.73126 275.6352 348.73126Q276.36957 348.73126 276.85394 348.02814Q277.35394 347.325 277.35394 345.21564Q277.35394 343.09064 276.85394 342.40314Q276.36957 341.7 275.61957 341.7Q274.90082 341.7 274.46332 342.3094Q273.91644 343.09064 273.91644 345.21564ZM280.1352 349.45L280.1352 340.85626L281.1977 340.85626L281.1977 345.7625L283.68207 343.23126L285.05707 343.23126L282.66644 345.52814L285.29144 349.45L283.99457 349.45L281.93207 346.2625L281.1977 346.98126L281.1977 349.45L280.1352 349.45Z" fill-rule="nonzero"/><path fill="#000000" d="M315.41486 349.45L314.36798 349.45L314.36798 342.73126Q313.97736 343.09064 313.35236 343.46564Q312.74298 343.825 312.2586 343.9969L312.2586 342.98126Q313.1336 342.5594 313.78986 341.98126Q314.46173 341.3875 314.74298 340.825L315.41486 340.825L315.41486 349.45ZM318.4461 345.21564Q318.4461 343.6844 318.7586 342.7625Q319.0711 341.825 319.68048 341.325Q320.30548 340.825 321.24298 340.825Q321.93048 340.825 322.4461 341.10626Q322.97736 341.3875 323.3211 341.91876Q323.66486 342.4344 323.85236 343.1844Q324.03986 343.9344 324.03986 345.21564Q324.03986 346.73126 323.72736 347.65314Q323.43048 348.575 322.80548 349.09064Q322.1961 349.59064 321.24298 349.59064Q320.0086 349.59064 319.28986 348.7Q318.4461 347.6375 318.4461 345.21564ZM319.52423 345.21564Q319.52423 347.325 320.02423 348.02814Q320.52423 348.73126 321.24298 348.73126Q321.97736 348.73126 322.46173 348.02814Q322.96173 347.325 322.96173 345.21564Q322.96173 343.09064 322.46173 342.40314Q321.97736 341.7 321.22736 341.7Q320.5086 341.7 320.0711 342.3094Q319.52423 343.09064 319.52423 345.21564ZM325.4461 345.21564Q325.4461 343.6844 325.7586 342.7625Q326.0711 341.825 326.68048 341.325Q327.30548 340.825 328.24298 340.825Q328.93048 340.825 329.4461 341.10626Q329.97736 341.3875 330.3211 341.91876Q330.66486 342.4344 330.85236 343.1844Q331.03986 343.9344 331.03986 345.21564Q331.03986 346.73126 330.72736 347.65314Q330.43048 348.575 329.80548 349.09064Q329.1961 349.59064 328.24298 349.59064Q327.0086 349.59064 326.28986 348.7Q325.4461 347.6375 325.4461 345.21564ZM326.52423 345.21564Q326.52423 347.325 327.02423 348.02814Q327.52423 348.73126 328.24298 348.73126Q328.97736 348.73126 329.46173 348.02814Q329.96173 347.325 329.96173 345.21564Q329.96173 343.09064 329.46173 342.40314Q328.97736 341.7 328.22736 341.7Q327.5086 341.7 327.0711 342.3094Q326.52423 343.09064 326.52423 345.21564ZM332.74298 349.45L332.74298 340.85626L333.80548 340.85626L333.80548 345.7625L336.28986 343.23126L337.66486 343.23126L335.27423 345.52814L337.89923 349.45L336.60236 349.45L334.53986 346.2625L333.80548 346.98126L333.80548 349.45L332.74298 349.45ZM338.3211 346.8719L338.3211 345.8094L341.5711 345.8094L341.5711 346.8719L338.3211 346.8719ZM346.41486 349.45L345.36798 349.45L345.36798 342.73126Q344.97736 343.09064 344.35236 343.46564Q343.74298 343.825 343.2586 343.9969L343.2586 342.98126Q344.1336 342.5594 344.78986 341.98126Q345.46173 341.3875 345.74298 340.825L346.41486 340.825L346.41486 349.45ZM354.99298 348.4344L354.99298 349.45L349.30548 349.45Q349.30548 349.075 349.43048 348.71564Q349.64923 348.1375 350.11798 347.575Q350.60236 347.0125 351.5086 346.27814Q352.91486 345.1219 353.39923 344.45Q353.89923 343.77814 353.89923 343.1844Q353.89923 342.5594 353.4461 342.1375Q352.99298 341.7 352.27423 341.7Q351.5086 341.7 351.05548 342.15314Q350.60236 342.60626 350.58673 343.41876L349.5086 343.3094Q349.61798 342.09064 350.33673 341.46564Q351.0711 340.825 352.30548 340.825Q353.53986 340.825 354.2586 341.5125Q354.97736 342.2 354.97736 343.21564Q354.97736 343.73126 354.7586 344.23126Q354.55548 344.71564 354.05548 345.27814Q353.5711 345.825 352.4461 346.77814Q351.49298 347.575 351.21173 347.8719Q350.9461 348.15314 350.77423 348.4344L354.99298 348.4344ZM356.4461 347.2L357.55548 347.10626Q357.68048 347.91876 358.11798 348.325Q358.5711 348.73126 359.21173 348.73126Q359.96173 348.73126 360.49298 348.15314Q361.02423 347.575 361.02423 346.6375Q361.02423 345.73126 360.5086 345.21564Q360.0086 344.6844 359.18048 344.6844Q358.68048 344.6844 358.2586 344.91876Q357.85236 345.15314 357.61798 345.5125L356.6336 345.3875L357.46173 340.98126L361.74298 340.98126L361.74298 341.98126L358.30548 341.98126L357.85236 344.29376Q358.61798 343.7469 359.46173 343.7469Q360.58673 343.7469 361.35236 344.52814Q362.1336 345.3094 362.1336 346.54376Q362.1336 347.7 361.46173 348.5594Q360.6336 349.59064 359.21173 349.59064Q358.03986 349.59064 357.28986 348.9344Q356.55548 348.27814 356.4461 347.2ZM363.74298 349.45L363.74298 340.85626L364.80548 340.85626L364.80548 345.7625L367.28986 343.23126L368.66486 343.23126L366.27423 345.52814L368.89923 349.45L367.60236 349.45L365.53986 346.2625L364.80548 346.98126L364.80548 349.45L363.74298 349.45Z" fill-rule="nonzero"/><path fill="#000000" d="M398.52264 349.45L397.47577 349.45L397.47577 342.73126Q397.08514 343.09064 396.46014 343.46564Q395.85077 343.825 395.3664 343.9969L395.3664 342.98126Q396.2414 342.5594 396.89764 341.98126Q397.56952 341.3875 397.85077 340.825L398.52264 340.825L398.52264 349.45ZM407.10077 348.4344L407.10077 349.45L401.41327 349.45Q401.41327 349.075 401.53827 348.71564Q401.75702 348.1375 402.22577 347.575Q402.71014 347.0125 403.6164 346.27814Q405.02264 345.1219 405.50702 344.45Q406.00702 343.77814 406.00702 343.1844Q406.00702 342.5594 405.5539 342.1375Q405.10077 341.7 404.38202 341.7Q403.6164 341.7 403.16327 342.15314Q402.71014 342.60626 402.69452 343.41876L401.6164 343.3094Q401.72577 342.09064 402.44452 341.46564Q403.1789 340.825 404.41327 340.825Q405.64764 340.825 406.3664 341.5125Q407.08514 342.2 407.08514 343.21564Q407.08514 343.73126 406.8664 344.23126Q406.66327 344.71564 406.16327 345.27814Q405.6789 345.825 404.5539 346.77814Q403.60077 347.575 403.31952 347.8719Q403.0539 348.15314 402.88202 348.4344L407.10077 348.4344ZM408.5539 347.2L409.66327 347.10626Q409.78827 347.91876 410.22577 348.325Q410.6789 348.73126 411.31952 348.73126Q412.06952 348.73126 412.60077 348.15314Q413.13202 347.575 413.13202 346.6375Q413.13202 345.73126 412.6164 345.21564Q412.1164 344.6844 411.28827 344.6844Q410.78827 344.6844 410.3664 344.91876Q409.96014 345.15314 409.72577 345.5125L408.7414 345.3875L409.56952 340.98126L413.85077 340.98126L413.85077 341.98126L410.41327 341.98126L409.96014 344.29376Q410.72577 343.7469 411.56952 343.7469Q412.69452 343.7469 413.46014 344.52814Q414.2414 345.3094 414.2414 346.54376Q414.2414 347.7 413.56952 348.5594Q412.7414 349.59064 411.31952 349.59064Q410.14764 349.59064 409.39764 348.9344Q408.66327 348.27814 408.5539 347.2ZM415.4289 346.8719L415.4289 345.8094L418.6789 345.8094L418.6789 346.8719L415.4289 346.8719ZM423.52264 349.45L422.47577 349.45L422.47577 342.73126Q422.08514 343.09064 421.46014 343.46564Q420.85077 343.825 420.3664 343.9969L420.3664 342.98126Q421.2414 342.5594 421.89764 341.98126Q422.56952 341.3875 422.85077 340.825L423.52264 340.825L423.52264 349.45ZM426.5539 347.2L427.66327 347.10626Q427.78827 347.91876 428.22577 348.325Q428.6789 348.73126 429.31952 348.73126Q430.06952 348.73126 430.60077 348.15314Q431.13202 347.575 431.13202 346.6375Q431.13202 345.73126 430.6164 345.21564Q430.1164 344.6844 429.28827 344.6844Q428.78827 344.6844 428.3664 344.91876Q427.96014 345.15314 427.72577 345.5125L426.7414 345.3875L427.56952 340.98126L431.85077 340.98126L431.85077 341.98126L428.41327 341.98126L427.96014 344.29376Q428.72577 343.7469 429.56952 343.7469Q430.69452 343.7469 431.46014 344.52814Q432.2414 345.3094 432.2414 346.54376Q432.2414 347.7 431.56952 348.5594Q430.7414 349.59064 429.31952 349.59064Q428.14764 349.59064 427.39764 348.9344Q426.66327 348.27814 426.5539 347.2ZM433.5539 345.21564Q433.5539 343.6844 433.8664 342.7625Q434.1789 341.825 434.78827 341.325Q435.41327 340.825 436.35077 340.825Q437.03827 340.825 437.5539 341.10626Q438.08514 341.3875 438.4289 341.91876Q438.77264 342.4344 438.96014 343.1844Q439.14764 343.9344 439.14764 345.21564Q439.14764 346.73126 438.83514 347.65314Q438.53827 348.575 437.91327 349.09064Q437.3039 349.59064 436.35077 349.59064Q435.1164 349.59064 434.39764 348.7Q433.5539 347.6375 433.5539 345.21564ZM434.63202 345.21564Q434.63202 347.325 435.13202 348.02814Q435.63202 348.73126 436.35077 348.73126Q437.08514 348.73126 437.56952 348.02814Q438.06952 347.325 438.06952 345.21564Q438.06952 343.09064 437.56952 342.40314Q437.08514 341.7 436.33514 341.7Q435.6164 341.7 435.1789 342.3094Q434.63202 343.09064 434.63202 345.21564ZM440.85077 349.45L440.85077 340.85626L441.91327 340.85626L441.91327 345.7625L444.39764 343.23126L445.77264 343.23126L443.38202 345.52814L446.00702 349.45L444.71014 349.45L442.64764 346.2625L441.91327 346.98126L441.91327 349.45L440.85077 349.45Z" fill-rule="nonzero"/><path fill="#000000" d="M478.63043 349.45L477.58356 349.45L477.58356 342.73126Q477.19293 343.09064 476.56793 343.46564Q475.95856 343.825 475.47418 343.9969L475.47418 342.98126Q476.34918 342.5594 477.00543 341.98126Q477.6773 341.3875 477.95856 340.825L478.63043 340.825L478.63043 349.45ZM481.66168 347.2L482.77106 347.10626Q482.89606 347.91876 483.33356 348.325Q483.78668 348.73126 484.4273 348.73126Q485.1773 348.73126 485.70856 348.15314Q486.2398 347.575 486.2398 346.6375Q486.2398 345.73126 485.72418 345.21564Q485.22418 344.6844 484.39606 344.6844Q483.89606 344.6844 483.47418 344.91876Q483.06793 345.15314 482.83356 345.5125L481.84918 345.3875L482.6773 340.98126L486.95856 340.98126L486.95856 341.98126L483.52106 341.98126L483.06793 344.29376Q483.83356 343.7469 484.6773 343.7469Q485.8023 343.7469 486.56793 344.52814Q487.34918 345.3094 487.34918 346.54376Q487.34918 347.7 486.6773 348.5594Q485.84918 349.59064 484.4273 349.59064Q483.25543 349.59064 482.50543 348.9344Q481.77106 348.27814 481.66168 347.2ZM488.66168 345.21564Q488.66168 343.6844 488.97418 342.7625Q489.28668 341.825 489.89606 341.325Q490.52106 340.825 491.45856 340.825Q492.14606 340.825 492.66168 341.10626Q493.19293 341.3875 493.53668 341.91876Q493.88043 342.4344 494.06793 343.1844Q494.25543 343.9344 494.25543 345.21564Q494.25543 346.73126 493.94293 347.65314Q493.64606 348.575 493.02106 349.09064Q492.41168 349.59064 491.45856 349.59064Q490.22418 349.59064 489.50543 348.7Q488.66168 347.6375 488.66168 345.21564ZM489.7398 345.21564Q489.7398 347.325 490.2398 348.02814Q490.7398 348.73126 491.45856 348.73126Q492.19293 348.73126 492.6773 348.02814Q493.1773 347.325 493.1773 345.21564Q493.1773 343.09064 492.6773 342.40314Q492.19293 341.7 491.44293 341.7Q490.72418 341.7 490.28668 342.3094Q489.7398 343.09064 489.7398 345.21564ZM495.53668 346.8719L495.53668 345.8094L498.78668 345.8094L498.78668 346.8719L495.53668 346.8719ZM505.20856 348.4344L505.20856 349.45L499.52106 349.45Q499.52106 349.075 499.64606 348.71564Q499.8648 348.1375 500.33356 347.575Q500.81793 347.0125 501.72418 346.27814Q503.13043 345.1219 503.6148 344.45Q504.1148 343.77814 504.1148 343.1844Q504.1148 342.5594 503.66168 342.1375Q503.20856 341.7 502.4898 341.7Q501.72418 341.7 501.27106 342.15314Q500.81793 342.60626 500.8023 343.41876L499.72418 343.3094Q499.83356 342.09064 500.5523 341.46564Q501.28668 340.825 502.52106 340.825Q503.75543 340.825 504.47418 341.5125Q505.19293 342.2 505.19293 343.21564Q505.19293 343.73126 504.97418 344.23126Q504.77106 344.71564 504.27106 345.27814Q503.78668 345.825 502.66168 346.77814Q501.70856 347.575 501.4273 347.8719Q501.16168 348.15314 500.9898 348.4344L505.20856 348.4344ZM506.66168 345.21564Q506.66168 343.6844 506.97418 342.7625Q507.28668 341.825 507.89606 341.325Q508.52106 340.825 509.45856 340.825Q510.14606 340.825 510.66168 341.10626Q511.19293 341.3875 511.53668 341.91876Q511.88043 342.4344 512.06793 343.1844Q512.25543 343.9344 512.25543 345.21564Q512.25543 346.73126 511.94293 347.65314Q511.64606 348.575 511.02106 349.09064Q510.41168 349.59064 509.45856 349.59064Q508.22418 349.59064 507.50543 348.7Q506.66168 347.6375 506.66168 345.21564ZM507.7398 345.21564Q507.7398 347.325 508.2398 348.02814Q508.7398 348.73126 509.45856 348.73126Q510.19293 348.73126 510.6773 348.02814Q511.1773 347.325 511.1773 345.21564Q511.1773 343.09064 510.6773 342.40314Q510.19293 341.7 509.44293 341.7Q508.72418 341.7 508.28668 342.3094Q507.7398 343.09064 507.7398 345.21564ZM513.6617 345.21564Q513.6617 343.6844 513.9742 342.7625Q514.2867 341.825 514.89606 341.325Q515.52106 340.825 516.45856 340.825Q517.14606 340.825 517.6617 341.10626Q518.19293 341.3875 518.5367 341.91876Q518.88043 342.4344 519.06793 343.1844Q519.25543 343.9344 519.25543 345.21564Q519.25543 346.73126 518.94293 347.65314Q518.64606 348.575 518.02106 349.09064Q517.4117 349.59064 516.45856 349.59064Q515.2242 349.59064 514.50543 348.7Q513.6617 347.6375 513.6617 345.21564ZM514.7398 345.21564Q514.7398 347.325 515.2398 348.02814Q515.7398 348.73126 516.45856 348.73126Q517.19293 348.73126 517.6773 348.02814Q518.1773 347.325 518.1773 345.21564Q518.1773 343.09064 517.6773 342.40314Q517.19293 341.7 516.44293 341.7Q515.7242 341.7 515.2867 342.3094Q514.7398 343.09064 514.7398 345.21564ZM520.95856 349.45L520.95856 340.85626L522.02106 340.85626L522.02106 345.7625L524.50543 343.23126L525.88043 343.23126L523.4898 345.52814L526.1148 349.45L524.81793 349.45L522.75543 346.2625L522.02106 346.98126L522.02106 349.45L520.95856 349.45Z" fill-rule="nonzero"/><path fill="#000000" d="M557.31635 348.4344L557.31635 349.45L551.62885 349.45Q551.62885 349.075 551.75385 348.71564Q551.9726 348.1375 552.44135 347.575Q552.9257 347.0125 553.832 346.27814Q555.2382 345.1219 555.7226 344.45Q556.2226 343.77814 556.2226 343.1844Q556.2226 342.5594 555.7695 342.1375Q555.31635 341.7 554.5976 341.7Q553.832 341.7 553.37885 342.15314Q552.9257 342.60626 552.9101 343.41876L551.832 343.3094Q551.94135 342.09064 552.6601 341.46564Q553.3945 340.825 554.62885 340.825Q555.8632 340.825 556.582 341.5125Q557.3007 342.2 557.3007 343.21564Q557.3007 343.73126 557.082 344.23126Q556.87885 344.71564 556.37885 345.27814Q555.8945 345.825 554.7695 346.77814Q553.81635 347.575 553.5351 347.8719Q553.2695 348.15314 553.0976 348.4344L557.31635 348.4344ZM558.7695 345.21564Q558.7695 343.6844 559.082 342.7625Q559.3945 341.825 560.00385 341.325Q560.62885 340.825 561.56635 340.825Q562.25385 340.825 562.7695 341.10626Q563.3007 341.3875 563.6445 341.91876Q563.9882 342.4344 564.1757 343.1844Q564.3632 343.9344 564.3632 345.21564Q564.3632 346.73126 564.0507 347.65314Q563.75385 348.575 563.12885 349.09064Q562.5195 349.59064 561.56635 349.59064Q560.332 349.59064 559.6132 348.7Q558.7695 347.6375 558.7695 345.21564ZM559.8476 345.21564Q559.8476 347.325 560.3476 348.02814Q560.8476 348.73126 561.56635 348.73126Q562.3007 348.73126 562.7851 348.02814Q563.2851 347.325 563.2851 345.21564Q563.2851 343.09064 562.7851 342.40314Q562.3007 341.7 561.5507 341.7Q560.832 341.7 560.3945 342.3094Q559.8476 343.09064 559.8476 345.21564ZM565.7695 345.21564Q565.7695 343.6844 566.082 342.7625Q566.3945 341.825 567.00385 341.325Q567.62885 340.825 568.56635 340.825Q569.25385 340.825 569.7695 341.10626Q570.3007 341.3875 570.6445 341.91876Q570.9882 342.4344 571.1757 343.1844Q571.3632 343.9344 571.3632 345.21564Q571.3632 346.73126 571.0507 347.65314Q570.75385 348.575 570.12885 349.09064Q569.5195 349.59064 568.56635 349.59064Q567.332 349.59064 566.6132 348.7Q565.7695 347.6375 565.7695 345.21564ZM566.8476 345.21564Q566.8476 347.325 567.3476 348.02814Q567.8476 348.73126 568.56635 348.73126Q569.3007 348.73126 569.7851 348.02814Q570.2851 347.325 570.2851 345.21564Q570.2851 343.09064 569.7851 342.40314Q569.3007 341.7 568.5507 341.7Q567.832 341.7 567.3945 342.3094Q566.8476 343.09064 566.8476 345.21564ZM573.06635 349.45L573.06635 340.85626L574.12885 340.85626L574.12885 345.7625L576.6132 343.23126L577.9882 343.23126L575.5976 345.52814L578.2226 349.45L576.9257 349.45L574.8632 346.2625L574.12885 346.98126L574.12885 349.45L573.06635 349.45ZM578.6445 346.8719L578.6445 345.8094L581.8945 345.8094L581.8945 346.8719L578.6445 346.8719ZM588.31635 348.4344L588.31635 349.45L582.62885 349.45Q582.62885 349.075 582.75385 348.71564Q582.9726 348.1375 583.44135 347.575Q583.9257 347.0125 584.832 346.27814Q586.2382 345.1219 586.7226 344.45Q587.2226 343.77814 587.2226 343.1844Q587.2226 342.5594 586.7695 342.1375Q586.31635 341.7 585.5976 341.7Q584.832 341.7 584.37885 342.15314Q583.9257 342.60626 583.9101 343.41876L582.832 343.3094Q582.94135 342.09064 583.6601 341.46564Q584.3945 340.825 585.62885 340.825Q586.8632 340.825 587.582 341.5125Q588.3007 342.2 588.3007 343.21564Q588.3007 343.73126 588.082 344.23126Q587.87885 344.71564 587.37885 345.27814Q586.8945 345.825 585.7695 346.77814Q584.81635 347.575 584.5351 347.8719Q584.2695 348.15314 584.0976 348.4344L588.31635 348.4344ZM589.7695 347.2L590.87885 347.10626Q591.00385 347.91876 591.44135 348.325Q591.8945 348.73126 592.5351 348.73126Q593.2851 348.73126 593.81635 348.15314Q594.3476 347.575 594.3476 346.6375Q594.3476 345.73126 593.832 345.21564Q593.332 344.6844 592.50385 344.6844Q592.00385 344.6844 591.582 344.91876Q591.1757 345.15314 590.94135 345.5125L589.957 345.3875L590.7851 340.98126L595.06635 340.98126L595.06635 341.98126L591.62885 341.98126L591.1757 344.29376Q591.94135 343.7469 592.7851 343.7469Q593.9101 343.7469 594.6757 344.52814Q595.457 345.3094 595.457 346.54376Q595.457 347.7 594.7851 348.5594Q593.957 349.59064 592.5351 349.59064Q591.3632 349.59064 590.6132 348.9344Q589.87885 348.27814 589.7695 347.2ZM596.7695 345.21564Q596.7695 343.6844 597.082 342.7625Q597.3945 341.825 598.00385 341.325Q598.62885 340.825 599.56635 340.825Q600.25385 340.825 600.7695 341.10626Q601.3007 341.3875 601.6445 341.91876Q601.9882 342.4344 602.1757 343.1844Q602.3632 343.9344 602.3632 345.21564Q602.3632 346.73126 602.0507 347.65314Q601.75385 348.575 601.12885 349.09064Q600.5195 349.59064 599.56635 349.59064Q598.332 349.59064 597.6132 348.7Q596.7695 347.6375 596.7695 345.21564ZM597.8476 345.21564Q597.8476 347.325 598.3476 348.02814Q598.8476 348.73126 599.56635 348.73126Q600.3007 348.73126 600.7851 348.02814Q601.2851 347.325 601.2851 345.21564Q601.2851 343.09064 600.7851 342.40314Q600.3007 341.7 599.5507 341.7Q598.832 341.7 598.3945 342.3094Q597.8476 343.09064 597.8476 345.21564ZM604.06635 349.45L604.06635 340.85626L605.12885 340.85626L605.12885 345.7625L607.6132 343.23126L608.9882 343.23126L606.5976 345.52814L609.2226 349.45L607.9257 349.45L605.8632 346.2625L605.12885 346.98126L605.12885 349.45L604.06635 349.45Z" fill-rule="nonzero"/><path fill="#000000" d="M649.42413 348.4344L649.42413 349.45L643.73663 349.45Q643.73663 349.075 643.86163 348.71564Q644.0804 348.1375 644.54913 347.575Q645.0335 347.0125 645.93976 346.27814Q647.346 345.1219 647.8304 344.45Q648.3304 343.77814 648.3304 343.1844Q648.3304 342.5594 647.87726 342.1375Q647.42413 341.7 646.7054 341.7Q645.93976 341.7 645.48663 342.15314Q645.0335 342.60626 645.0179 343.41876L643.93976 343.3094Q644.04913 342.09064 644.7679 341.46564Q645.50226 340.825 646.73663 340.825Q647.971 340.825 648.68976 341.5125Q649.4085 342.2 649.4085 343.21564Q649.4085 343.73126 649.18976 344.23126Q648.98663 344.71564 648.48663 345.27814Q648.00226 345.825 646.87726 346.77814Q645.92413 347.575 645.6429 347.8719Q645.37726 348.15314 645.2054 348.4344L649.42413 348.4344ZM650.87726 347.2L651.98663 347.10626Q652.11163 347.91876 652.54913 348.325Q653.00226 348.73126 653.6429 348.73126Q654.3929 348.73126 654.92413 348.15314Q655.4554 347.575 655.4554 346.6375Q655.4554 345.73126 654.93976 345.21564Q654.43976 344.6844 653.61163 344.6844Q653.11163 344.6844 652.68976 344.91876Q652.2835 345.15314 652.04913 345.5125L651.06476 345.3875L651.8929 340.98126L656.17413 340.98126L656.17413 341.98126L652.73663 341.98126L652.2835 344.29376Q653.04913 343.7469 653.8929 343.7469Q655.0179 343.7469 655.7835 344.52814Q656.56476 345.3094 656.56476 346.54376Q656.56476 347.7 655.8929 348.5594Q655.06476 349.59064 653.6429 349.59064Q652.471 349.59064 651.721 348.9344Q650.98663 348.27814 650.87726 347.2ZM657.87726 345.21564Q657.87726 343.6844 658.18976 342.7625Q658.50226 341.825 659.11163 341.325Q659.73663 340.825 660.67413 340.825Q661.36163 340.825 661.87726 341.10626Q662.4085 341.3875 662.75226 341.91876Q663.096 342.4344 663.2835 343.1844Q663.471 343.9344 663.471 345.21564Q663.471 346.73126 663.1585 347.65314Q662.86163 348.575 662.23663 349.09064Q661.62726 349.59064 660.67413 349.59064Q659.43976 349.59064 658.721 348.7Q657.87726 347.6375 657.87726 345.21564ZM658.9554 345.21564Q658.9554 347.325 659.4554 348.02814Q659.9554 348.73126 660.67413 348.73126Q661.4085 348.73126 661.8929 348.02814Q662.3929 347.325 662.3929 345.21564Q662.3929 343.09064 661.8929 342.40314Q661.4085 341.7 660.6585 341.7Q659.93976 341.7 659.50226 342.3094Q658.9554 343.09064 658.9554 345.21564ZM665.17413 349.45L665.17413 340.85626L666.23663 340.85626L666.23663 345.7625L668.721 343.23126L670.096 343.23126L667.7054 345.52814L670.3304 349.45L669.0335 349.45L666.971 346.2625L666.23663 346.98126L666.23663 349.45L665.17413 349.45ZM673.37726 348.0594L673.37726 345.7L671.04913 345.7L671.04913 344.71564L673.37726 344.71564L673.37726 342.3875L674.37726 342.3875L674.37726 344.71564L676.721 344.71564L676.721 345.7L674.37726 345.7L674.37726 348.0594L673.37726 348.0594Z" fill-rule="nonzero"/></svg>