<svg version="1.1" viewBox="0.0 0.0 866.0 535.0" fill="none" stroke="none" stroke-linecap="square" stroke-miterlimit="10" width="866" height="535" xmlns:xlink="http://www.w3.org/1999/xlink" xmlns="http://www.w3.org/2000/svg"><path fill="#ffffff" d="M0 0L866.0 0L866.0 535.0L0 535.0L0 0Z" fill-rule="nonzero"/><path fill="#4285f4" d="M433.0 26.75C469.69672 26.75 505.9078 35.13894 538.86615 51.275757L433.0 267.5Z" fill-rule="nonzero"/><path fill="#ea4335" d="M538.86615 51.275757C545.4304 54.489723 551.845 58.00095 558.08984 61.798527L433.0 267.5Z" fill-rule="nonzero"/><path fill="#fbbc04" d="M558.08984 61.798527C655.56494 121.07445 698.0535 240.62592 659.8493 348.12225L433.0 267.5Z" fill-rule="nonzero"/><path fill="#34a853" d="M659.8493 348.12225C641.31506 400.27264 605.37854 444.44458 558.08984 473.20148L433.0 267.5Z" fill-rule="nonzero"/><path fill="#71c287" d="M422.04236 26.999496C425.69254 26.833187 429.34604 26.75 433.0 26.75L433.0 267.5Z" fill-rule="nonzero"/><path fill="#fcd04f" d="M307.91016 61.798527C342.4315 40.805645 381.68097 28.838434 422.04236 26.999496L433.0 267.5Z" fill-rule="nonzero"/><path fill="#f07b72" d="M236.3145 128.66422C255.34483 101.70437 279.7145 78.944695 307.91016 61.798527L433.0 267.5Z" fill-rule="nonzero"/><path fill="#7baaf7" d="M193.80794 240.15556C198.39694 200.01378 213.01474 161.67245 236.3145 128.66422L433.0 267.5Z" fill-rule="nonzero"/><path fill="#46bdc6" d="M281.06558 454.2525C217.37402 402.43558 184.48218 321.73154 193.80794 240.15556L433.0 267.5Z" fill-rule="nonzero"/><path fill="#ff6d01" d="M558.08984 473.20148C471.0409 526.1371 360.09567 518.5483 281.06558 454.2525L433.0 267.5Z" fill-rule="nonzero"/><path fill="#1a1a1a" d="M27.25 35.5L28.359375 35.40625Q28.484375 36.21875 28.921875 36.625Q29.375 37.03125 30.015625 37.03125Q30.765625 37.03125 31.296875 36.453125Q31.828125 35.875 31.828125 34.9375Q31.828125 34.03125 31.3125 33.515625Q30.8125 32.984375 29.984375 32.984375Q29.484375 32.984375 29.0625 33.21875Q28.65625 33.453125 28.421875 33.8125L27.4375 33.6875L28.265625 29.28125L32.546875 29.28125L32.546875 30.28125L29.109375 30.28125L28.65625 32.59375Q29.421875 32.046875 30.265625 32.046875Q31.390625 32.046875 32.15625 32.828125Q32.9375 33.609375 32.9375 34.84375Q32.9375 36.0 32.265625 36.859375Q31.4375 37.890625 30.015625 37.890625Q28.84375 37.890625 28.09375 37.234375Q27.359375 36.578125 27.25 35.5ZM34.25 33.515625Q34.25 31.984375 34.5625 31.0625Q34.875 30.125 35.484375 29.625Q36.109375 29.125 37.046875 29.125Q37.734375 29.125 38.25 29.40625Q38.78125 29.6875 39.125 30.21875Q39.46875 30.734375 39.65625 31.484375Q39.84375 32.234375 39.84375 33.515625Q39.84375 35.03125 39.53125 35.953125Q39.234375 36.875 38.609375 37.390625Q38.0 37.890625 37.046875 37.890625Q35.8125 37.890625 35.09375 37.0Q34.25 35.9375 34.25 33.515625ZM35.328125 33.515625Q35.328125 35.625 35.828125 36.328125Q36.328125 37.03125 37.046875 37.03125Q37.78125 37.03125 38.265625 36.328125Q38.765625 35.625 38.765625 33.515625Q38.765625 31.390625 38.265625 30.703125Q37.78125 30.0 37.03125 30.0Q36.3125 30.0 35.875 30.609375Q35.328125 31.390625 35.328125 33.515625ZM41.25 33.515625Q41.25 31.984375 41.5625 31.0625Q41.875 30.125 42.484375 29.625Q43.109375 29.125 44.046875 29.125Q44.734375 29.125 45.25 29.40625Q45.78125 29.6875 46.125 30.21875Q46.46875 30.734375 46.65625 31.484375Q46.84375 32.234375 46.84375 33.515625Q46.84375 35.03125 46.53125 35.953125Q46.234375 36.875 45.609375 37.390625Q45.0 37.890625 44.046875 37.890625Q42.8125 37.890625 42.09375 37.0Q41.25 35.9375 41.25 33.515625ZM42.328125 33.515625Q42.328125 35.625 42.828125 36.328125Q43.328125 37.03125 44.046875 37.03125Q44.78125 37.03125 45.265625 36.328125Q45.765625 35.625 45.765625 33.515625Q45.765625 31.390625 45.265625 30.703125Q44.78125 30.0 44.03125 30.0Q43.3125 30.0 42.875 30.609375Q42.328125 31.390625 42.328125 33.515625ZM48.125 35.171875L48.125 34.109375L51.375 34.109375L51.375 35.171875L48.125 35.171875ZM52.40625 35.765625L53.421875 35.671875Q53.546875 36.390625 53.90625 36.71875Q54.28125 37.03125 54.84375 37.03125Q55.328125 37.03125 55.6875 36.8125Q56.0625 36.578125 56.296875 36.21875Q56.53125 35.84375 56.6875 35.21875Q56.84375 34.578125 56.84375 33.921875Q56.84375 33.84375 56.84375 33.703125Q56.53125 34.203125 55.984375 34.53125Q55.4375 34.84375 54.796875 34.84375Q53.71875 34.84375 52.984375 34.078125Q52.25 33.296875 52.25 32.03125Q52.25 30.71875 53.015625 29.921875Q53.796875 29.125 54.953125 29.125Q55.78125 29.125 56.46875 29.578125Q57.171875 30.03125 57.53125 30.875Q57.890625 31.703125 57.890625 33.28125Q57.890625 34.921875 57.53125 35.90625Q57.1875 36.875 56.46875 37.390625Q55.765625 37.890625 54.828125 37.890625Q53.8125 37.890625 53.171875 37.34375Q52.53125 36.78125 52.40625 35.765625ZM56.71875 31.96875Q56.71875 31.0625 56.234375 30.53125Q55.765625 30.0 55.078125 30.0Q54.375 30.0 53.84375 30.578125Q53.328125 31.140625 53.328125 32.0625Q53.328125 32.875 53.828125 33.390625Q54.328125 33.90625 55.046875 33.90625Q55.78125 33.90625 56.25 33.390625Q56.71875 32.875 56.71875 31.96875ZM59.40625 35.765625L60.421875 35.671875Q60.546875 36.390625 60.90625 36.71875Q61.28125 37.03125 61.84375 37.03125Q62.328125 37.03125 62.6875 36.8125Q63.0625 36.578125 63.296875 36.21875Q63.53125 35.84375 63.6875 35.21875Q63.84375 34.578125 63.84375 33.921875Q63.84375 33.84375 63.84375 33.703125Q63.53125 34.203125 62.984375 34.53125Q62.4375 34.84375 61.796875 34.84375Q60.71875 34.84375 59.984375 34.078125Q59.25 33.296875 59.25 32.03125Q59.25 30.71875 60.015625 29.921875Q60.796875 29.125 61.953125 29.125Q62.78125 29.125 63.46875 29.578125Q64.171875 30.03125 64.53125 30.875Q64.890625 31.703125 64.890625 33.28125Q64.890625 34.921875 64.53125 35.90625Q64.1875 36.875 63.46875 37.390625Q62.765625 37.890625 61.828125 37.890625Q60.8125 37.890625 60.171875 37.34375Q59.53125 36.78125 59.40625 35.765625ZM63.71875 31.96875Q63.71875 31.0625 63.234375 30.53125Q62.765625 30.0 62.078125 30.0Q61.375 30.0 60.84375 30.578125Q60.328125 31.140625 60.328125 32.0625Q60.328125 32.875 60.828125 33.390625Q61.328125 33.90625 62.046875 33.90625Q62.78125 33.90625 63.25 33.390625Q63.71875 32.875 63.71875 31.96875ZM66.40625 35.765625L67.421875 35.671875Q67.546875 36.390625 67.90625 36.71875Q68.28125 37.03125 68.84375 37.03125Q69.328125 37.03125 69.6875 36.8125Q70.0625 36.578125 70.296875 36.21875Q70.53125 35.84375 70.6875 35.21875Q70.84375 34.578125 70.84375 33.921875Q70.84375 33.84375 70.84375 33.703125Q70.53125 34.203125 69.984375 34.53125Q69.4375 34.84375 68.796875 34.84375Q67.71875 34.84375 66.984375 34.078125Q66.25 33.296875 66.25 32.03125Q66.25 30.71875 67.015625 29.921875Q67.796875 29.125 68.953125 29.125Q69.78125 29.125 70.46875 29.578125Q71.171875 30.03125 71.53125 30.875Q71.890625 31.703125 71.890625 33.28125Q71.890625 34.921875 71.53125 35.90625Q71.1875 36.875 70.46875 37.390625Q69.765625 37.890625 68.828125 37.890625Q67.8125 37.890625 67.171875 37.34375Q66.53125 36.78125 66.40625 35.765625ZM70.71875 31.96875Q70.71875 31.0625 70.234375 30.53125Q69.765625 30.0 69.078125 30.0Q68.375 30.0 67.84375 30.578125Q67.328125 31.140625 67.328125 32.0625Q67.328125 32.875 67.828125 33.390625Q68.328125 33.90625 69.046875 33.90625Q69.78125 33.90625 70.25 33.390625Q70.71875 32.875 70.71875 31.96875Z" fill-rule="nonzero"/><path fill="#9e9e9e" d="M27.25 50.515625Q27.25 48.984375 27.5625 48.0625Q27.875 47.125 28.484375 46.625Q29.109375 46.125 30.046875 46.125Q30.734375 46.125 31.25 46.40625Q31.78125 46.6875 32.125 47.21875Q32.46875 47.734375 32.65625 48.484375Q32.84375 49.234375 32.84375 50.515625Q32.84375 52.03125 32.53125 52.953125Q32.234375 53.875 31.609375 54.390625Q31.0 54.890625 30.046875 54.890625Q28.8125 54.890625 28.09375 54.0Q27.25 52.9375 27.25 50.515625ZM28.328125 50.515625Q28.328125 52.625 28.828125 53.328125Q29.328125 54.03125 30.046875 54.03125Q30.78125 54.03125 31.265625 53.328125Q31.765625 52.625 31.765625 50.515625Q31.765625 48.390625 31.265625 47.703125Q30.78125 47.0 30.03125 47.0Q29.3125 47.0 28.875 47.609375Q28.328125 48.390625 28.328125 50.515625ZM34.84375 54.75L34.84375 53.546875L36.046875 53.546875L36.046875 54.75L34.84375 54.75ZM37.3125 47.28125L37.3125 46.265625L42.875 46.265625L42.875 47.09375Q42.0625 47.96875 41.25 49.421875Q40.453125 50.859375 40.015625 52.390625Q39.6875 53.46875 39.609375 54.75L38.515625 54.75Q38.53125 53.734375 38.90625 52.296875Q39.296875 50.859375 40.0 49.53125Q40.71875 48.203125 41.53125 47.28125L37.3125 47.28125ZM44.453125 48.21875Q44.453125 47.296875 44.90625 46.65625Q45.375 46.015625 46.25 46.015625Q47.0625 46.015625 47.59375 46.59375Q48.125 47.171875 48.125 48.28125Q48.125 49.375 47.578125 49.96875Q47.046875 50.546875 46.265625 50.546875Q45.484375 50.546875 44.96875 49.96875Q44.453125 49.390625 44.453125 48.21875ZM46.28125 46.734375Q45.890625 46.734375 45.625 47.078125Q45.375 47.421875 45.375 48.328125Q45.375 49.15625 45.625 49.5Q45.890625 49.828125 46.28125 49.828125Q46.6875 49.828125 46.9375 49.484375Q47.203125 49.140625 47.203125 48.25Q47.203125 47.40625 46.9375 47.078125Q46.671875 46.734375 46.28125 46.734375ZM46.28125 55.0625L50.984375 46.015625L51.84375 46.015625L47.15625 55.0625L46.28125 55.0625ZM50.0 52.734375Q50.0 51.8125 50.453125 51.171875Q50.921875 50.53125 51.8125 50.53125Q52.625 50.53125 53.15625 51.109375Q53.6875 51.671875 53.6875 52.796875Q53.6875 53.890625 53.140625 54.484375Q52.609375 55.0625 51.8125 55.0625Q51.046875 55.0625 50.515625 54.484375Q50.0 53.90625 50.0 52.734375ZM51.84375 51.25Q51.4375 51.25 51.171875 51.59375Q50.921875 51.9375 50.921875 52.84375Q50.921875 53.65625 51.1875 54.0Q51.453125 54.34375 51.84375 54.34375Q52.234375 54.34375 52.5 54.0Q52.765625 53.65625 52.765625 52.75Q52.765625 51.921875 52.5 51.59375Q52.234375 51.25 51.84375 51.25Z" fill-rule="nonzero"/><path stroke="#757575" stroke-width="1.0" stroke-linecap="butt" d="M26.75 42.25L186.25 42.25L427.79376 38.846764" fill-rule="nonzero"/><path fill="#9e9e9e" d="M429.79376 38.846764C429.79376 37.742195 428.89835 36.846764 427.79376 36.846764C426.6892 36.846764 425.79376 37.742195 425.79376 38.846764C425.79376 39.951332 426.6892 40.846764 427.79376 40.846764C428.89835 40.846764 429.79376 39.951332 429.79376 38.846764" fill-rule="nonzero"/><path fill="#1a1a1a" d="M31.21875 68.75L30.171875 68.75L30.171875 62.03125Q29.78125 62.390625 29.15625 62.765625Q28.546875 63.125 28.0625 63.296875L28.0625 62.28125Q28.9375 61.859375 29.59375 61.28125Q30.265625 60.6875 30.546875 60.125L31.21875 60.125L31.21875 68.75ZM38.21875 68.75L37.171875 68.75L37.171875 62.03125Q36.78125 62.390625 36.15625 62.765625Q35.546875 63.125 35.0625 63.296875L35.0625 62.28125Q35.9375 61.859375 36.59375 61.28125Q37.265625 60.6875 37.546875 60.125L38.21875 60.125L38.21875 68.75ZM41.125 66.171875L41.125 65.109375L44.375 65.109375L44.375 66.171875L41.125 66.171875ZM49.21875 68.75L48.171875 68.75L48.171875 62.03125Q47.78125 62.390625 47.15625 62.765625Q46.546875 63.125 46.0625 63.296875L46.0625 62.28125Q46.9375 61.859375 47.59375 61.28125Q48.265625 60.6875 48.546875 60.125L49.21875 60.125L49.21875 68.75ZM52.40625 66.765625L53.421875 66.671875Q53.546875 67.390625 53.90625 67.71875Q54.28125 68.03125 54.84375 68.03125Q55.328125 68.03125 55.6875 67.8125Q56.0625 67.578125 56.296875 67.21875Q56.53125 66.84375 56.6875 66.21875Q56.84375 65.578125 56.84375 64.921875Q56.84375 64.84375 56.84375 64.703125Q56.53125 65.203125 55.984375 65.53125Q55.4375 65.84375 54.796875 65.84375Q53.71875 65.84375 52.984375 65.078125Q52.25 64.296875 52.25 63.03125Q52.25 61.71875 53.015625 60.921875Q53.796875 60.125 54.953125 60.125Q55.78125 60.125 56.46875 60.578125Q57.171875 61.03125 57.53125 61.875Q57.890625 62.703125 57.890625 64.28125Q57.890625 65.921875 57.53125 66.90625Q57.1875 67.875 56.46875 68.390625Q55.765625 68.890625 54.828125 68.890625Q53.8125 68.890625 53.171875 68.34375Q52.53125 67.78125 52.40625 66.765625ZM56.71875 62.96875Q56.71875 62.0625 56.234375 61.53125Q55.765625 61.0 55.078125 61.0Q54.375 61.0 53.84375 61.578125Q53.328125 62.140625 53.328125 63.0625Q53.328125 63.875 53.828125 64.390625Q54.328125 64.90625 55.046875 64.90625Q55.78125 64.90625 56.25 64.390625Q56.71875 63.875 56.71875 62.96875Z" fill-rule="nonzero"/><path fill="#9e9e9e" d="M28.875 81.09375Q28.21875 80.84375 27.890625 80.40625Q27.578125 79.953125 27.578125 79.34375Q27.578125 78.40625 28.25 77.765625Q28.9375 77.125 30.046875 77.125Q31.171875 77.125 31.859375 77.78125Q32.546875 78.4375 32.546875 79.375Q32.546875 79.96875 32.234375 80.40625Q31.921875 80.84375 31.28125 81.09375Q32.078125 81.34375 32.484375 81.921875Q32.890625 82.5 32.890625 83.296875Q32.890625 84.390625 32.109375 85.140625Q31.34375 85.890625 30.0625 85.890625Q28.796875 85.890625 28.015625 85.140625Q27.234375 84.390625 27.234375 83.265625Q27.234375 82.421875 27.65625 81.859375Q28.09375 81.296875 28.875 81.09375ZM28.65625 79.296875Q28.65625 79.90625 29.046875 80.296875Q29.453125 80.6875 30.078125 80.6875Q30.6875 80.6875 31.078125 80.3125Q31.46875 79.921875 31.46875 79.359375Q31.46875 78.78125 31.0625 78.390625Q30.65625 77.984375 30.0625 77.984375Q29.453125 77.984375 29.046875 78.375Q28.65625 78.765625 28.65625 79.296875ZM28.328125 83.265625Q28.328125 83.71875 28.53125 84.140625Q28.75 84.5625 29.171875 84.796875Q29.59375 85.03125 30.078125 85.03125Q30.828125 85.03125 31.3125 84.546875Q31.8125 84.0625 31.8125 83.3125Q31.8125 82.546875 31.3125 82.046875Q30.8125 81.546875 30.046875 81.546875Q29.296875 81.546875 28.8125 82.046875Q28.328125 82.53125 28.328125 83.265625ZM34.84375 85.75L34.84375 84.546875L36.046875 84.546875L36.046875 85.75L34.84375 85.75ZM37.25 81.515625Q37.25 79.984375 37.5625 79.0625Q37.875 78.125 38.484375 77.625Q39.109375 77.125 40.046875 77.125Q40.734375 77.125 41.25 77.40625Q41.78125 77.6875 42.125 78.21875Q42.46875 78.734375 42.65625 79.484375Q42.84375 80.234375 42.84375 81.515625Q42.84375 83.03125 42.53125 83.953125Q42.234375 84.875 41.609375 85.390625Q41.0 85.890625 40.046875 85.890625Q38.8125 85.890625 38.09375 85.0Q37.25 83.9375 37.25 81.515625ZM38.328125 81.515625Q38.328125 83.625 38.828125 84.328125Q39.328125 85.03125 40.046875 85.03125Q40.78125 85.03125 41.265625 84.328125Q41.765625 83.625 41.765625 81.515625Q41.765625 79.390625 41.265625 78.703125Q40.78125 78.0 40.03125 78.0Q39.3125 78.0 38.875 78.609375Q38.328125 79.390625 38.328125 81.515625ZM44.453125 79.21875Q44.453125 78.296875 44.90625 77.65625Q45.375 77.015625 46.25 77.015625Q47.0625 77.015625 47.59375 77.59375Q48.125 78.171875 48.125 79.28125Q48.125 80.375 47.578125 80.96875Q47.046875 81.546875 46.265625 81.546875Q45.484375 81.546875 44.96875 80.96875Q44.453125 80.390625 44.453125 79.21875ZM46.28125 77.734375Q45.890625 77.734375 45.625 78.078125Q45.375 78.421875 45.375 79.328125Q45.375 80.15625 45.625 80.5Q45.890625 80.828125 46.28125 80.828125Q46.6875 80.828125 46.9375 80.484375Q47.203125 80.140625 47.203125 79.25Q47.203125 78.40625 46.9375 78.078125Q46.671875 77.734375 46.28125 77.734375ZM46.28125 86.0625L50.984375 77.015625L51.84375 77.015625L47.15625 86.0625L46.28125 86.0625ZM50.0 83.734375Q50.0 82.8125 50.453125 82.171875Q50.921875 81.53125 51.8125 81.53125Q52.625 81.53125 53.15625 82.109375Q53.6875 82.671875 53.6875 83.796875Q53.6875 84.890625 53.140625 85.484375Q52.609375 86.0625 51.8125 86.0625Q51.046875 86.0625 50.515625 85.484375Q50.0 84.90625 50.0 83.734375ZM51.84375 82.25Q51.4375 82.25 51.171875 82.59375Q50.921875 82.9375 50.921875 83.84375Q50.921875 84.65625 51.1875 85.0Q51.453125 85.34375 51.84375 85.34375Q52.234375 85.34375 52.5 85.0Q52.765625 84.65625 52.765625 83.75Q52.765625 82.921875 52.5 82.59375Q52.234375 82.25 51.84375 82.25Z" fill-rule="nonzero"/><path stroke="#757575" stroke-width="1.0" stroke-linecap="butt" d="M26.75 73.25L186.25 73.25L366.29694 48.73047" fill-rule="nonzero"/><path fill="#9e9e9e" d="M368.29694 48.73047C368.29694 47.6259 367.4015 46.73047 366.29694 46.73047C365.19235 46.73047 364.29694 47.6259 364.29694 48.73047C364.29694 49.835037 365.19235 50.73047 366.29694 50.73047C367.4015 50.73047 368.29694 49.835037 368.29694 48.73047" fill-rule="nonzero"/><path fill="#1a1a1a" d="M31.21875 99.75L30.171875 99.75L30.171875 93.03125Q29.78125 93.390625 29.15625 93.765625Q28.546875 94.125 28.0625 94.296875L28.0625 93.28125Q28.9375 92.859375 29.59375 92.28125Q30.265625 91.6875 30.546875 91.125L31.21875 91.125L31.21875 99.75ZM34.25 95.515625Q34.25 93.984375 34.5625 93.0625Q34.875 92.125 35.484375 91.625Q36.109375 91.125 37.046875 91.125Q37.734375 91.125 38.25 91.40625Q38.78125 91.6875 39.125 92.21875Q39.46875 92.734375 39.65625 93.484375Q39.84375 94.234375 39.84375 95.515625Q39.84375 97.03125 39.53125 97.953125Q39.234375 98.875 38.609375 99.390625Q38.0 99.890625 37.046875 99.890625Q35.8125 99.890625 35.09375 99.0Q34.25 97.9375 34.25 95.515625ZM35.328125 95.515625Q35.328125 97.625 35.828125 98.328125Q36.328125 99.03125 37.046875 99.03125Q37.78125 99.03125 38.265625 98.328125Q38.765625 97.625 38.765625 95.515625Q38.765625 93.390625 38.265625 92.703125Q37.78125 92.0 37.03125 92.0Q36.3125 92.0 35.875 92.609375Q35.328125 93.390625 35.328125 95.515625ZM41.25 95.515625Q41.25 93.984375 41.5625 93.0625Q41.875 92.125 42.484375 91.625Q43.109375 91.125 44.046875 91.125Q44.734375 91.125 45.25 91.40625Q45.78125 91.6875 46.125 92.21875Q46.46875 92.734375 46.65625 93.484375Q46.84375 94.234375 46.84375 95.515625Q46.84375 97.03125 46.53125 97.953125Q46.234375 98.875 45.609375 99.390625Q45.0 99.890625 44.046875 99.890625Q42.8125 99.890625 42.09375 99.0Q41.25 97.9375 41.25 95.515625ZM42.328125 95.515625Q42.328125 97.625 42.828125 98.328125Q43.328125 99.03125 44.046875 99.03125Q44.78125 99.03125 45.265625 98.328125Q45.765625 97.625 45.765625 95.515625Q45.765625 93.390625 45.265625 92.703125Q44.78125 92.0 44.03125 92.0Q43.3125 92.0 42.875 92.609375Q42.328125 93.390625 42.328125 95.515625ZM48.25 95.515625Q48.25 93.984375 48.5625 93.0625Q48.875 92.125 49.484375 91.625Q50.109375 91.125 51.046875 91.125Q51.734375 91.125 52.25 91.40625Q52.78125 91.6875 53.125 92.21875Q53.46875 92.734375 53.65625 93.484375Q53.84375 94.234375 53.84375 95.515625Q53.84375 97.03125 53.53125 97.953125Q53.234375 98.875 52.609375 99.390625Q52.0 99.890625 51.046875 99.890625Q49.8125 99.890625 49.09375 99.0Q48.25 97.9375 48.25 95.515625ZM49.328125 95.515625Q49.328125 97.625 49.828125 98.328125Q50.328125 99.03125 51.046875 99.03125Q51.78125 99.03125 52.265625 98.328125Q52.765625 97.625 52.765625 95.515625Q52.765625 93.390625 52.265625 92.703125Q51.78125 92.0 51.03125 92.0Q50.3125 92.0 49.875 92.609375Q49.328125 93.390625 49.328125 95.515625ZM57.75 98.359375L57.75 96.0L55.421875 96.0L55.421875 95.015625L57.75 95.015625L57.75 92.6875L58.75 92.6875L58.75 95.015625L61.09375 95.015625L61.09375 96.0L58.75 96.0L58.75 98.359375L57.75 98.359375Z" fill-rule="nonzero"/><path fill="#9e9e9e" d="M32.71875 110.265625L31.671875 110.34375Q31.53125 109.71875 31.28125 109.4375Q30.84375 108.984375 30.21875 108.984375Q29.71875 108.984375 29.328125 109.265625Q28.84375 109.640625 28.546875 110.34375Q28.265625 111.03125 28.25 112.3125Q28.625 111.734375 29.171875 111.453125Q29.734375 111.171875 30.34375 111.171875Q31.390625 111.171875 32.125 111.953125Q32.875 112.734375 32.875 113.953125Q32.875 114.765625 32.515625 115.46875Q32.171875 116.15625 31.5625 116.53125Q30.953125 116.890625 30.1875 116.890625Q28.859375 116.890625 28.03125 115.921875Q27.203125 114.953125 27.203125 112.734375Q27.203125 110.234375 28.125 109.109375Q28.921875 108.125 30.28125 108.125Q31.296875 108.125 31.9375 108.703125Q32.59375 109.265625 32.71875 110.265625ZM28.421875 113.96875Q28.421875 114.515625 28.640625 115.015625Q28.875 115.5 29.28125 115.765625Q29.703125 116.03125 30.171875 116.03125Q30.828125 116.03125 31.3125 115.5Q31.796875 114.953125 31.796875 114.03125Q31.796875 113.140625 31.3125 112.625Q30.84375 112.109375 30.125 112.109375Q29.40625 112.109375 28.90625 112.625Q28.421875 113.140625 28.421875 113.96875ZM34.84375 116.75L34.84375 115.546875L36.046875 115.546875L36.046875 116.75L34.84375 116.75ZM37.25 114.5L38.359375 114.40625Q38.484375 115.21875 38.921875 115.625Q39.375 116.03125 40.015625 116.03125Q40.765625 116.03125 41.296875 115.453125Q41.828125 114.875 41.828125 113.9375Q41.828125 113.03125 41.3125 112.515625Q40.8125 111.984375 39.984375 111.984375Q39.484375 111.984375 39.0625 112.21875Q38.65625 112.453125 38.421875 112.8125L37.4375 112.6875L38.265625 108.28125L42.546875 108.28125L42.546875 109.28125L39.109375 109.28125L38.65625 111.59375Q39.421875 111.046875 40.265625 111.046875Q41.390625 111.046875 42.15625 111.828125Q42.9375 112.609375 42.9375 113.84375Q42.9375 115.0 42.265625 115.859375Q41.4375 116.890625 40.015625 116.890625Q38.84375 116.890625 38.09375 116.234375Q37.359375 115.578125 37.25 114.5ZM44.453125 110.21875Q44.453125 109.296875 44.90625 108.65625Q45.375 108.015625 46.25 108.015625Q47.0625 108.015625 47.59375 108.59375Q48.125 109.171875 48.125 110.28125Q48.125 111.375 47.578125 111.96875Q47.046875 112.546875 46.265625 112.546875Q45.484375 112.546875 44.96875 111.96875Q44.453125 111.390625 44.453125 110.21875ZM46.28125 108.734375Q45.890625 108.734375 45.625 109.078125Q45.375 109.421875 45.375 110.328125Q45.375 111.15625 45.625 111.5Q45.890625 111.828125 46.28125 111.828125Q46.6875 111.828125 46.9375 111.484375Q47.203125 111.140625 47.203125 110.25Q47.203125 109.40625 46.9375 109.078125Q46.671875 108.734375 46.28125 108.734375ZM46.28125 117.0625L50.984375 108.015625L51.84375 108.015625L47.15625 117.0625L46.28125 117.0625ZM50.0 114.734375Q50.0 113.8125 50.453125 113.171875Q50.921875 112.53125 51.8125 112.53125Q52.625 112.53125 53.15625 113.109375Q53.6875 113.671875 53.6875 114.796875Q53.6875 115.890625 53.140625 116.484375Q52.609375 117.0625 51.8125 117.0625Q51.046875 117.0625 50.515625 116.484375Q50.0 115.90625 50.0 114.734375ZM51.84375 113.25Q51.4375 113.25 51.171875 113.59375Q50.921875 113.9375 50.921875 114.84375Q50.921875 115.65625 51.1875 116.0Q51.453125 116.34375 51.84375 116.34375Q52.234375 116.34375 52.5 116.0Q52.765625 115.65625 52.765625 114.75Q52.765625 113.921875 52.5 113.59375Q52.234375 113.25 51.84375 113.25Z" fill-rule="nonzero"/><path stroke="#757575" stroke-width="1.0" stroke-linecap="butt" d="M26.75 104.25L186.25 104.25L276.89157 100.34868" fill-rule="nonzero"/><path fill="#9e9e9e" d="M278.89157 100.34868C278.89157 99.24411 277.99612 98.34868 276.89157 98.34868C275.787 98.34868 274.89157 99.24411 274.89157 100.34868C274.89157 101.45325 275.787 102.34868 276.89157 102.34868C277.99612 102.34868 278.89157 101.45325 278.89157 100.34868" fill-rule="nonzero"/><path fill="#1a1a1a" d="M27.25 179.27307L28.359375 179.17932Q28.484375 179.99182 28.921875 180.39807Q29.375 180.80432 30.015625 180.80432Q30.765625 180.80432 31.296875 180.2262Q31.828125 179.64807 31.828125 178.71057Q31.828125 177.80432 31.3125 177.2887Q30.8125 176.75745 29.984375 176.75745Q29.484375 176.75745 29.0625 176.99182Q28.65625 177.2262 28.421875 177.58557L27.4375 177.46057L28.265625 173.05432L32.546875 173.05432L32.546875 174.05432L29.109375 174.05432L28.65625 176.36682Q29.421875 175.81995 30.265625 175.81995Q31.390625 175.81995 32.15625 176.6012Q32.9375 177.38245 32.9375 178.61682Q32.9375 179.77307 32.265625 180.63245Q31.4375 181.6637 30.015625 181.6637Q28.84375 181.6637 28.09375 181.00745Q27.359375 180.3512 27.25 179.27307ZM34.25 177.2887Q34.25 175.75745 34.5625 174.83557Q34.875 173.89807 35.484375 173.39807Q36.109375 172.89807 37.046875 172.89807Q37.734375 172.89807 38.25 173.17932Q38.78125 173.46057 39.125 173.99182Q39.46875 174.50745 39.65625 175.25745Q39.84375 176.00745 39.84375 177.2887Q39.84375 178.80432 39.53125 179.7262Q39.234375 180.64807 38.609375 181.1637Q38.0 181.6637 37.046875 181.6637Q35.8125 181.6637 35.09375 180.77307Q34.25 179.71057 34.25 177.2887ZM35.328125 177.2887Q35.328125 179.39807 35.828125 180.1012Q36.328125 180.80432 37.046875 180.80432Q37.78125 180.80432 38.265625 180.1012Q38.765625 179.39807 38.765625 177.2887Q38.765625 175.1637 38.265625 174.4762Q37.78125 173.77307 37.03125 173.77307Q36.3125 173.77307 35.875 174.38245Q35.328125 175.1637 35.328125 177.2887ZM41.125 178.94495L41.125 177.88245L44.375 177.88245L44.375 178.94495L41.125 178.94495ZM45.40625 179.5387L46.421875 179.44495Q46.546875 180.1637 46.90625 180.49182Q47.28125 180.80432 47.84375 180.80432Q48.328125 180.80432 48.6875 180.58557Q49.0625 180.3512 49.296875 179.99182Q49.53125 179.61682 49.6875 178.99182Q49.84375 178.3512 49.84375 177.69495Q49.84375 177.61682 49.84375 177.4762Q49.53125 177.9762 48.984375 178.30432Q48.4375 178.61682 47.796875 178.61682Q46.71875 178.61682 45.984375 177.8512Q45.25 177.06995 45.25 175.80432Q45.25 174.49182 46.015625 173.69495Q46.796875 172.89807 47.953125 172.89807Q48.78125 172.89807 49.46875 173.3512Q50.171875 173.80432 50.53125 174.64807Q50.890625 175.4762 50.890625 177.05432Q50.890625 178.69495 50.53125 179.67932Q50.1875 180.64807 49.46875 181.1637Q48.765625 181.6637 47.828125 181.6637Q46.8125 181.6637 46.171875 181.11682Q45.53125 180.55432 45.40625 179.5387ZM49.71875 175.74182Q49.71875 174.83557 49.234375 174.30432Q48.765625 173.77307 48.078125 173.77307Q47.375 173.77307 46.84375 174.3512Q46.328125 174.9137 46.328125 175.83557Q46.328125 176.64807 46.828125 177.1637Q47.328125 177.67932 48.046875 177.67932Q48.78125 177.67932 49.25 177.1637Q49.71875 176.64807 49.71875 175.74182ZM52.40625 179.5387L53.421875 179.44495Q53.546875 180.1637 53.90625 180.49182Q54.28125 180.80432 54.84375 180.80432Q55.328125 180.80432 55.6875 180.58557Q56.0625 180.3512 56.296875 179.99182Q56.53125 179.61682 56.6875 178.99182Q56.84375 178.3512 56.84375 177.69495Q56.84375 177.61682 56.84375 177.4762Q56.53125 177.9762 55.984375 178.30432Q55.4375 178.61682 54.796875 178.61682Q53.71875 178.61682 52.984375 177.8512Q52.25 177.06995 52.25 175.80432Q52.25 174.49182 53.015625 173.69495Q53.796875 172.89807 54.953125 172.89807Q55.78125 172.89807 56.46875 173.3512Q57.171875 173.80432 57.53125 174.64807Q57.890625 175.4762 57.890625 177.05432Q57.890625 178.69495 57.53125 179.67932Q57.1875 180.64807 56.46875 181.1637Q55.765625 181.6637 54.828125 181.6637Q53.8125 181.6637 53.171875 181.11682Q52.53125 180.55432 52.40625 179.5387ZM56.71875 175.74182Q56.71875 174.83557 56.234375 174.30432Q55.765625 173.77307 55.078125 173.77307Q54.375 173.77307 53.84375 174.3512Q53.328125 174.9137 53.328125 175.83557Q53.328125 176.64807 53.828125 177.1637Q54.328125 177.67932 55.046875 177.67932Q55.78125 177.67932 56.25 177.1637Q56.71875 176.64807 56.71875 175.74182Z" fill-rule="nonzero"/><path fill="#9e9e9e" d="M28.875 193.86682Q28.21875 193.61682 27.890625 193.17932Q27.578125 192.7262 27.578125 192.11682Q27.578125 191.17932 28.25 190.5387Q28.9375 189.89807 30.046875 189.89807Q31.171875 189.89807 31.859375 190.55432Q32.546875 191.21057 32.546875 192.14807Q32.546875 192.74182 32.234375 193.17932Q31.921875 193.61682 31.28125 193.86682Q32.078125 194.11682 32.484375 194.69495Q32.890625 195.27307 32.890625 196.06995Q32.890625 197.1637 32.109375 197.9137Q31.34375 198.6637 30.0625 198.6637Q28.796875 198.6637 28.015625 197.9137Q27.234375 197.1637 27.234375 196.0387Q27.234375 195.19495 27.65625 194.63245Q28.09375 194.06995 28.875 193.86682ZM28.65625 192.06995Q28.65625 192.67932 29.046875 193.06995Q29.453125 193.46057 30.078125 193.46057Q30.6875 193.46057 31.078125 193.08557Q31.46875 192.69495 31.46875 192.13245Q31.46875 191.55432 31.0625 191.1637Q30.65625 190.75745 30.0625 190.75745Q29.453125 190.75745 29.046875 191.14807Q28.65625 191.5387 28.65625 192.06995ZM28.328125 196.0387Q28.328125 196.49182 28.53125 196.9137Q28.75 197.33557 29.171875 197.56995Q29.59375 197.80432 30.078125 197.80432Q30.828125 197.80432 31.3125 197.31995Q31.8125 196.83557 31.8125 196.08557Q31.8125 195.31995 31.3125 194.81995Q30.8125 194.31995 30.046875 194.31995Q29.296875 194.31995 28.8125 194.81995Q28.328125 195.30432 28.328125 196.0387ZM34.84375 198.52307L34.84375 197.31995L36.046875 197.31995L36.046875 198.52307L34.84375 198.52307ZM37.25 194.2887Q37.25 192.75745 37.5625 191.83557Q37.875 190.89807 38.484375 190.39807Q39.109375 189.89807 40.046875 189.89807Q40.734375 189.89807 41.25 190.17932Q41.78125 190.46057 42.125 190.99182Q42.46875 191.50745 42.65625 192.25745Q42.84375 193.00745 42.84375 194.2887Q42.84375 195.80432 42.53125 196.7262Q42.234375 197.64807 41.609375 198.1637Q41.0 198.6637 40.046875 198.6637Q38.8125 198.6637 38.09375 197.77307Q37.25 196.71057 37.25 194.2887ZM38.328125 194.2887Q38.328125 196.39807 38.828125 197.1012Q39.328125 197.80432 40.046875 197.80432Q40.78125 197.80432 41.265625 197.1012Q41.765625 196.39807 41.765625 194.2887Q41.765625 192.1637 41.265625 191.4762Q40.78125 190.77307 40.03125 190.77307Q39.3125 190.77307 38.875 191.38245Q38.328125 192.1637 38.328125 194.2887ZM44.453125 191.99182Q44.453125 191.06995 44.90625 190.42932Q45.375 189.7887 46.25 189.7887Q47.0625 189.7887 47.59375 190.36682Q48.125 190.94495 48.125 192.05432Q48.125 193.14807 47.578125 193.74182Q47.046875 194.31995 46.265625 194.31995Q45.484375 194.31995 44.96875 193.74182Q44.453125 193.1637 44.453125 191.99182ZM46.28125 190.50745Q45.890625 190.50745 45.625 190.8512Q45.375 191.19495 45.375 192.1012Q45.375 192.92932 45.625 193.27307Q45.890625 193.6012 46.28125 193.6012Q46.6875 193.6012 46.9375 193.25745Q47.203125 192.9137 47.203125 192.02307Q47.203125 191.17932 46.9375 190.8512Q46.671875 190.50745 46.28125 190.50745ZM46.28125 198.83557L50.984375 189.7887L51.84375 189.7887L47.15625 198.83557L46.28125 198.83557ZM50.0 196.50745Q50.0 195.58557 50.453125 194.94495Q50.921875 194.30432 51.8125 194.30432Q52.625 194.30432 53.15625 194.88245Q53.6875 195.44495 53.6875 196.56995Q53.6875 197.6637 53.140625 198.25745Q52.609375 198.83557 51.8125 198.83557Q51.046875 198.83557 50.515625 198.25745Q50.0 197.67932 50.0 196.50745ZM51.84375 195.02307Q51.4375 195.02307 51.171875 195.36682Q50.921875 195.71057 50.921875 196.61682Q50.921875 197.42932 51.1875 197.77307Q51.453125 198.11682 51.84375 198.11682Q52.234375 198.11682 52.5 197.77307Q52.765625 197.42932 52.765625 196.52307Q52.765625 195.69495 52.5 195.36682Q52.234375 195.02307 51.84375 195.02307Z" fill-rule="nonzero"/><path stroke="#757575" stroke-width="1.0" stroke-linecap="butt" d="M26.75 186.02307L186.25 186.02307L219.29245 186.02307" fill-rule="nonzero"/><path fill="#9e9e9e" d="M221.29245 186.02307C221.29245 184.9185 220.39702 184.02307 219.29245 184.02307C218.18788 184.02307 217.29245 184.9185 217.29245 186.02307C217.29245 187.12764 218.18788 188.02307 219.29245 188.02307C220.39702 188.02307 221.29245 187.12764 221.29245 186.02307" fill-rule="nonzero"/><path fill="#1a1a1a" d="M32.796875 348.30487L32.796875 349.3205L27.109375 349.3205Q27.109375 348.9455 27.234375 348.58612Q27.453125 348.008 27.921875 347.4455Q28.40625 346.883 29.3125 346.14862Q30.71875 344.99237 31.203125 344.3205Q31.703125 343.64862 31.703125 343.05487Q31.703125 342.42987 31.25 342.008Q30.796875 341.5705 30.078125 341.5705Q29.3125 341.5705 28.859375 342.02362Q28.40625 342.47675 28.390625 343.28925L27.3125 343.17987Q27.421875 341.96112 28.140625 341.33612Q28.875 340.6955 30.109375 340.6955Q31.34375 340.6955 32.0625 341.383Q32.78125 342.0705 32.78125 343.08612Q32.78125 343.60175 32.5625 344.10175Q32.359375 344.58612 31.859375 345.14862Q31.375 345.6955 30.25 346.64862Q29.296875 347.4455 29.015625 347.74237Q28.75 348.02362 28.578125 348.30487L32.796875 348.30487ZM34.25 345.08612Q34.25 343.55487 34.5625 342.633Q34.875 341.6955 35.484375 341.1955Q36.109375 340.6955 37.046875 340.6955Q37.734375 340.6955 38.25 340.97675Q38.78125 341.258 39.125 341.78925Q39.46875 342.30487 39.65625 343.05487Q39.84375 343.80487 39.84375 345.08612Q39.84375 346.60175 39.53125 347.52362Q39.234375 348.4455 38.609375 348.96112Q38.0 349.46112 37.046875 349.46112Q35.8125 349.46112 35.09375 348.5705Q34.25 347.508 34.25 345.08612ZM35.328125 345.08612Q35.328125 347.1955 35.828125 347.89862Q36.328125 348.60175 37.046875 348.60175Q37.78125 348.60175 38.265625 347.89862Q38.765625 347.1955 38.765625 345.08612Q38.765625 342.96112 38.265625 342.27362Q37.78125 341.5705 37.03125 341.5705Q36.3125 341.5705 35.875 342.17987Q35.328125 342.96112 35.328125 345.08612ZM41.125 346.74237L41.125 345.67987L44.375 345.67987L44.375 346.74237L41.125 346.74237ZM48.625 349.3205L48.625 347.258L44.90625 347.258L44.90625 346.28925L48.828125 340.72675L49.6875 340.72675L49.6875 346.28925L50.84375 346.28925L50.84375 347.258L49.6875 347.258L49.6875 349.3205L48.625 349.3205ZM48.625 346.28925L48.625 342.42987L45.9375 346.28925L48.625 346.28925ZM52.40625 347.33612L53.421875 347.24237Q53.546875 347.96112 53.90625 348.28925Q54.28125 348.60175 54.84375 348.60175Q55.328125 348.60175 55.6875 348.383Q56.0625 348.14862 56.296875 347.78925Q56.53125 347.41425 56.6875 346.78925Q56.84375 346.14862 56.84375 345.49237Q56.84375 345.41425 56.84375 345.27362Q56.53125 345.77362 55.984375 346.10175Q55.4375 346.41425 54.796875 346.41425Q53.71875 346.41425 52.984375 345.64862Q52.25 344.86737 52.25 343.60175Q52.25 342.28925 53.015625 341.49237Q53.796875 340.6955 54.953125 340.6955Q55.78125 340.6955 56.46875 341.14862Q57.171875 341.60175 57.53125 342.4455Q57.890625 343.27362 57.890625 344.85175Q57.890625 346.49237 57.53125 347.47675Q57.1875 348.4455 56.46875 348.96112Q55.765625 349.46112 54.828125 349.46112Q53.8125 349.46112 53.171875 348.91425Q52.53125 348.35175 52.40625 347.33612ZM56.71875 343.53925Q56.71875 342.633 56.234375 342.10175Q55.765625 341.5705 55.078125 341.5705Q54.375 341.5705 53.84375 342.14862Q53.328125 342.71112 53.328125 343.633Q53.328125 344.4455 53.828125 344.96112Q54.328125 345.47675 55.046875 345.47675Q55.78125 345.47675 56.25 344.96112Q56.71875 344.4455 56.71875 343.53925Z" fill-rule="nonzero"/><path fill="#9e9e9e" d="M31.21875 366.3205L30.171875 366.3205L30.171875 359.60175Q29.78125 359.96112 29.15625 360.33612Q28.546875 360.6955 28.0625 360.86737L28.0625 359.85175Q28.9375 359.42987 29.59375 358.85175Q30.265625 358.258 30.546875 357.6955L31.21875 357.6955L31.21875 366.3205ZM34.25 364.0705L35.359375 363.97675Q35.484375 364.78925 35.921875 365.1955Q36.375 365.60175 37.015625 365.60175Q37.765625 365.60175 38.296875 365.02362Q38.828125 364.4455 38.828125 363.508Q38.828125 362.60175 38.3125 362.08612Q37.8125 361.55487 36.984375 361.55487Q36.484375 361.55487 36.0625 361.78925Q35.65625 362.02362 35.421875 362.383L34.4375 362.258L35.265625 357.85175L39.546875 357.85175L39.546875 358.85175L36.109375 358.85175L35.65625 361.16425Q36.421875 360.61737 37.265625 360.61737Q38.390625 360.61737 39.15625 361.39862Q39.9375 362.17987 39.9375 363.41425Q39.9375 364.5705 39.265625 365.42987Q38.4375 366.46112 37.015625 366.46112Q35.84375 366.46112 35.09375 365.80487Q34.359375 365.14862 34.25 364.0705ZM41.84375 366.3205L41.84375 365.11737L43.046875 365.11737L43.046875 366.3205L41.84375 366.3205ZM44.40625 364.33612L45.421875 364.24237Q45.546875 364.96112 45.90625 365.28925Q46.28125 365.60175 46.84375 365.60175Q47.328125 365.60175 47.6875 365.383Q48.0625 365.14862 48.296875 364.78925Q48.53125 364.41425 48.6875 363.78925Q48.84375 363.14862 48.84375 362.49237Q48.84375 362.41425 48.84375 362.27362Q48.53125 362.77362 47.984375 363.10175Q47.4375 363.41425 46.796875 363.41425Q45.71875 363.41425 44.984375 362.64862Q44.25 361.86737 44.25 360.60175Q44.25 359.28925 45.015625 358.49237Q45.796875 357.6955 46.953125 357.6955Q47.78125 357.6955 48.46875 358.14862Q49.171875 358.60175 49.53125 359.4455Q49.890625 360.27362 49.890625 361.85175Q49.890625 363.49237 49.53125 364.47675Q49.1875 365.4455 48.46875 365.96112Q47.765625 366.46112 46.828125 366.46112Q45.8125 366.46112 45.171875 365.91425Q44.53125 365.35175 44.40625 364.33612ZM48.71875 360.53925Q48.71875 359.633 48.234375 359.10175Q47.765625 358.5705 47.078125 358.5705Q46.375 358.5705 45.84375 359.14862Q45.328125 359.71112 45.328125 360.633Q45.328125 361.4455 45.828125 361.96112Q46.328125 362.47675 47.046875 362.47675Q47.78125 362.47675 48.25 361.96112Q48.71875 361.4455 48.71875 360.53925ZM51.453125 359.78925Q51.453125 358.86737 51.90625 358.22675Q52.375 357.58612 53.25 357.58612Q54.0625 357.58612 54.59375 358.16425Q55.125 358.74237 55.125 359.85175Q55.125 360.9455 54.578125 361.53925Q54.046875 362.11737 53.265625 362.11737Q52.484375 362.11737 51.96875 361.53925Q51.453125 360.96112 51.453125 359.78925ZM53.28125 358.30487Q52.890625 358.30487 52.625 358.64862Q52.375 358.99237 52.375 359.89862Q52.375 360.72675 52.625 361.0705Q52.890625 361.39862 53.28125 361.39862Q53.6875 361.39862 53.9375 361.05487Q54.203125 360.71112 54.203125 359.8205Q54.203125 358.97675 53.9375 358.64862Q53.671875 358.30487 53.28125 358.30487ZM53.28125 366.633L57.984375 357.58612L58.84375 357.58612L54.15625 366.633L53.28125 366.633ZM57.0 364.30487Q57.0 363.383 57.453125 362.74237Q57.921875 362.10175 58.8125 362.10175Q59.625 362.10175 60.15625 362.67987Q60.6875 363.24237 60.6875 364.36737Q60.6875 365.46112 60.140625 366.05487Q59.609375 366.633 58.8125 366.633Q58.046875 366.633 57.515625 366.05487Q57.0 365.47675 57.0 364.30487ZM58.84375 362.8205Q58.4375 362.8205 58.171875 363.16425Q57.921875 363.508 57.921875 364.41425Q57.921875 365.22675 58.1875 365.5705Q58.453125 365.91425 58.84375 365.91425Q59.234375 365.91425 59.5 365.5705Q59.765625 365.22675 59.765625 364.3205Q59.765625 363.49237 59.5 363.16425Q59.234375 362.8205 58.84375 362.8205Z" fill-rule="nonzero"/><path stroke="#757575" stroke-width="1.0" stroke-linecap="butt" d="M26.75 353.8205L186.25 353.8205L221.2025 353.8205" fill-rule="nonzero"/><path fill="#9e9e9e" d="M223.2025 353.8205C223.2025 352.7159 222.30707 351.8205 221.2025 351.8205C220.09793 351.8205 219.2025 352.7159 219.2025 353.8205C219.2025 354.92505 220.09793 355.8205 221.2025 355.8205C222.30707 355.8205 223.2025 354.92505 223.2025 353.8205" fill-rule="nonzero"/><path fill="#1a1a1a" d="M32.71875 481.76562L31.671875 481.84375Q31.53125 481.21875 31.28125 480.9375Q30.84375 480.48438 30.21875 480.48438Q29.71875 480.48438 29.328125 480.76562Q28.84375 481.14062 28.546875 481.84375Q28.265625 482.53125 28.25 483.8125Q28.625 483.23438 29.171875 482.95312Q29.734375 482.67188 30.34375 482.67188Q31.390625 482.67188 32.125 483.45312Q32.875 484.23438 32.875 485.45312Q32.875 486.26562 32.515625 486.96875Q32.171875 487.65625 31.5625 488.03125Q30.953125 488.39062 30.1875 488.39062Q28.859375 488.39062 28.03125 487.42188Q27.203125 486.45312 27.203125 484.23438Q27.203125 481.73438 28.125 480.60938Q28.921875 479.625 30.28125 479.625Q31.296875 479.625 31.9375 480.20312Q32.59375 480.76562 32.71875 481.76562ZM28.421875 485.46875Q28.421875 486.01562 28.640625 486.51562Q28.875 487.0 29.28125 487.26562Q29.703125 487.53125 30.171875 487.53125Q30.828125 487.53125 31.3125 487.0Q31.796875 486.45312 31.796875 485.53125Q31.796875 484.64062 31.3125 484.125Q30.84375 483.60938 30.125 483.60938Q29.40625 483.60938 28.90625 484.125Q28.421875 484.64062 28.421875 485.46875ZM34.125 485.67188L34.125 484.60938L37.375 484.60938L37.375 485.67188L34.125 485.67188ZM42.21875 488.25L41.171875 488.25L41.171875 481.53125Q40.78125 481.89062 40.15625 482.26562Q39.546875 482.625 39.0625 482.79688L39.0625 481.78125Q39.9375 481.35938 40.59375 480.78125Q41.265625 480.1875 41.546875 479.625L42.21875 479.625L42.21875 488.25ZM45.25 484.01562Q45.25 482.48438 45.5625 481.5625Q45.875 480.625 46.484375 480.125Q47.109375 479.625 48.046875 479.625Q48.734375 479.625 49.25 479.90625Q49.78125 480.1875 50.125 480.71875Q50.46875 481.23438 50.65625 481.98438Q50.84375 482.73438 50.84375 484.01562Q50.84375 485.53125 50.53125 486.45312Q50.234375 487.375 49.609375 487.89062Q49.0 488.39062 48.046875 488.39062Q46.8125 488.39062 46.09375 487.5Q45.25 486.4375 45.25 484.01562ZM46.328125 484.01562Q46.328125 486.125 46.828125 486.82812Q47.328125 487.53125 48.046875 487.53125Q48.78125 487.53125 49.265625 486.82812Q49.765625 486.125 49.765625 484.01562Q49.765625 481.89062 49.265625 481.20312Q48.78125 480.5 48.03125 480.5Q47.3125 480.5 46.875 481.10938Q46.328125 481.89062 46.328125 484.01562ZM59.578125 488.25L59.578125 487.46875Q58.984375 488.39062 57.84375 488.39062Q57.09375 488.39062 56.46875 487.98438Q55.84375 487.5625 55.5 486.82812Q55.15625 486.09375 55.15625 485.14062Q55.15625 484.21875 55.46875 483.45312Q55.78125 482.6875 56.40625 482.29688Q57.03125 481.89062 57.796875 481.89062Q58.359375 481.89062 58.796875 482.125Q59.234375 482.35938 59.515625 482.73438L59.515625 479.65625L60.5625 479.65625L60.5625 488.25L59.578125 488.25ZM56.25 485.14062Q56.25 486.34375 56.75 486.9375Q57.25 487.51562 57.9375 487.51562Q58.625 487.51562 59.109375 486.95312Q59.59375 486.39062 59.59375 485.23438Q59.59375 483.95312 59.09375 483.35938Q58.609375 482.76562 57.890625 482.76562Q57.1875 482.76562 56.71875 483.34375Q56.25 483.90625 56.25 485.14062ZM66.796875 486.25L67.890625 486.375Q67.640625 487.32812 66.9375 487.85938Q66.234375 488.39062 65.15625 488.39062Q63.796875 488.39062 62.984375 487.54688Q62.1875 486.70312 62.1875 485.1875Q62.1875 483.625 63.0 482.76562Q63.8125 481.89062 65.09375 481.89062Q66.34375 481.89062 67.125 482.73438Q67.921875 483.57812 67.921875 485.125Q67.921875 485.21875 67.921875 485.40625L63.28125 485.40625Q63.34375 486.4375 63.859375 486.98438Q64.375 487.51562 65.15625 487.51562Q65.734375 487.51562 66.140625 487.21875Q66.5625 486.90625 66.796875 486.25ZM63.34375 484.54688L66.8125 484.54688Q66.75 483.75 66.421875 483.35938Q65.90625 482.75 65.109375 482.75Q64.375 482.75 63.875 483.23438Q63.390625 483.71875 63.34375 484.54688ZM71.265625 488.25L68.90625 482.03125L70.015625 482.03125L71.359375 485.75Q71.5625 486.35938 71.75 487.0Q71.890625 486.51562 72.140625 485.82812L73.53125 482.03125L74.609375 482.03125L72.25 488.25L71.265625 488.25ZM78.796875 486.25L79.890625 486.375Q79.640625 487.32812 78.9375 487.85938Q78.234375 488.39062 77.15625 488.39062Q75.796875 488.39062 74.984375 487.54688Q74.1875 486.70312 74.1875 485.1875Q74.1875 483.625 75.0 482.76562Q75.8125 481.89062 77.09375 481.89062Q78.34375 481.89062 79.125 482.73438Q79.921875 483.57812 79.921875 485.125Q79.921875 485.21875 79.921875 485.40625L75.28125 485.40625Q75.34375 486.4375 75.859375 486.98438Q76.375 487.51562 77.15625 487.51562Q77.734375 487.51562 78.140625 487.21875Q78.5625 486.90625 78.796875 486.25ZM75.34375 484.54688L78.8125 484.54688Q78.75 483.75 78.421875 483.35938Q77.90625 482.75 77.109375 482.75Q76.375 482.75 75.875 483.23438Q75.390625 483.71875 75.34375 484.54688ZM81.515625 488.25L81.515625 479.65625L82.578125 479.65625L82.578125 488.25L81.515625 488.25ZM84.15625 485.14062Q84.15625 483.40625 85.109375 482.57812Q85.90625 481.89062 87.0625 481.89062Q88.34375 481.89062 89.15625 482.73438Q89.984375 483.5625 89.984375 485.04688Q89.984375 486.25 89.625 486.9375Q89.265625 487.625 88.5625 488.01562Q87.875 488.39062 87.0625 488.39062Q85.765625 488.39062 84.953125 487.5625Q84.15625 486.71875 84.15625 485.14062ZM85.234375 485.14062Q85.234375 486.32812 85.75 486.92188Q86.28125 487.51562 87.0625 487.51562Q87.859375 487.51562 88.375 486.92188Q88.890625 486.32812 88.890625 485.10938Q88.890625 483.95312 88.359375 483.35938Q87.84375 482.76562 87.0625 482.76562Q86.28125 482.76562 85.75 483.35938Q85.234375 483.9375 85.234375 485.14062ZM91.546875 490.64062L91.546875 482.03125L92.5 482.03125L92.5 482.82812Q92.84375 482.35938 93.265625 482.125Q93.703125 481.89062 94.3125 481.89062Q95.109375 481.89062 95.71875 482.29688Q96.328125 482.70312 96.625 483.45312Q96.9375 484.20312 96.9375 485.09375Q96.9375 486.04688 96.59375 486.8125Q96.265625 487.57812 95.609375 487.98438Q94.953125 488.39062 94.234375 488.39062Q93.703125 488.39062 93.28125 488.17188Q92.859375 487.9375 92.59375 487.60938L92.59375 490.64062L91.546875 490.64062ZM92.5 485.17188Q92.5 486.375 92.984375 486.95312Q93.46875 487.51562 94.15625 487.51562Q94.859375 487.51562 95.359375 486.92188Q95.859375 486.32812 95.859375 485.07812Q95.859375 483.89062 95.375 483.3125Q94.890625 482.71875 94.203125 482.71875Q93.53125 482.71875 93.015625 483.34375Q92.5 483.96875 92.5 485.17188ZM102.796875 486.25L103.890625 486.375Q103.640625 487.32812 102.9375 487.85938Q102.234375 488.39062 101.15625 488.39062Q99.796875 488.39062 98.984375 487.54688Q98.1875 486.70312 98.1875 485.1875Q98.1875 483.625 99.0 482.76562Q99.8125 481.89062 101.09375 481.89062Q102.34375 481.89062 103.125 482.73438Q103.921875 483.57812 103.921875 485.125Q103.921875 485.21875 103.921875 485.40625L99.28125 485.40625Q99.34375 486.4375 99.859375 486.98438Q100.375 487.51562 101.15625 487.51562Q101.734375 487.51562 102.140625 487.21875Q102.5625 486.90625 102.796875 486.25ZM99.34375 484.54688L102.8125 484.54688Q102.75 483.75 102.421875 483.35938Q101.90625 482.75 101.109375 482.75Q100.375 482.75 99.875 483.23438Q99.390625 483.71875 99.34375 484.54688ZM105.53125 488.25L105.53125 482.03125L106.484375 482.03125L106.484375 482.96875Q106.84375 482.3125 107.140625 482.10938Q107.453125 481.89062 107.828125 481.89062Q108.359375 481.89062 108.90625 482.21875L108.546875 483.20312Q108.15625 482.96875 107.78125 482.96875Q107.421875 482.96875 107.140625 483.1875Q106.875 483.39062 106.765625 483.76562Q106.578125 484.32812 106.578125 484.98438L106.578125 488.25L105.53125 488.25ZM109.125 486.39062L110.15625 486.23438Q110.25 486.85938 110.640625 487.1875Q111.046875 487.51562 111.78125 487.51562Q112.5 487.51562 112.84375 487.23438Q113.203125 486.9375 113.203125 486.53125Q113.203125 486.17188 112.890625 485.96875Q112.671875 485.82812 111.8125 485.60938Q110.65625 485.3125 110.203125 485.10938Q109.765625 484.89062 109.53125 484.51562Q109.296875 484.14062 109.296875 483.67188Q109.296875 483.26562 109.484375 482.90625Q109.671875 482.54688 110.0 482.3125Q110.25 482.14062 110.671875 482.01562Q111.09375 481.89062 111.59375 481.89062Q112.3125 481.89062 112.859375 482.10938Q113.421875 482.3125 113.6875 482.67188Q113.953125 483.03125 114.046875 483.625L113.015625 483.76562Q112.953125 483.29688 112.609375 483.03125Q112.28125 482.75 111.65625 482.75Q110.9375 482.75 110.625 483.0Q110.3125 483.23438 110.3125 483.5625Q110.3125 483.76562 110.4375 483.92188Q110.578125 484.09375 110.84375 484.20312Q111.0 484.26562 111.78125 484.46875Q112.90625 484.78125 113.34375 484.96875Q113.78125 485.15625 114.03125 485.51562Q114.28125 485.875 114.28125 486.42188Q114.28125 486.95312 113.96875 487.42188Q113.671875 487.875 113.09375 488.14062Q112.515625 488.39062 111.78125 488.39062Q110.5625 488.39062 109.921875 487.89062Q109.296875 487.375 109.125 486.39062Z" fill-rule="nonzero"/><path fill="#9e9e9e" d="M31.21875 505.25L30.171875 505.25L30.171875 498.53125Q29.78125 498.89062 29.15625 499.26562Q28.546875 499.625 28.0625 499.79688L28.0625 498.78125Q28.9375 498.35938 29.59375 497.78125Q30.265625 497.1875 30.546875 496.625L31.21875 496.625L31.21875 505.25ZM34.40625 503.26562L35.421875 503.17188Q35.546875 503.89062 35.90625 504.21875Q36.28125 504.53125 36.84375 504.53125Q37.328125 504.53125 37.6875 504.3125Q38.0625 504.07812 38.296875 503.71875Q38.53125 503.34375 38.6875 502.71875Q38.84375 502.07812 38.84375 501.42188Q38.84375 501.34375 38.84375 501.20312Q38.53125 501.70312 37.984375 502.03125Q37.4375 502.34375 36.796875 502.34375Q35.71875 502.34375 34.984375 501.57812Q34.25 500.79688 34.25 499.53125Q34.25 498.21875 35.015625 497.42188Q35.796875 496.625 36.953125 496.625Q37.78125 496.625 38.46875 497.07812Q39.171875 497.53125 39.53125 498.375Q39.890625 499.20312 39.890625 500.78125Q39.890625 502.42188 39.53125 503.40625Q39.1875 504.375 38.46875 504.89062Q37.765625 505.39062 36.828125 505.39062Q35.8125 505.39062 35.171875 504.84375Q34.53125 504.28125 34.40625 503.26562ZM38.71875 499.46875Q38.71875 498.5625 38.234375 498.03125Q37.765625 497.5 37.078125 497.5Q36.375 497.5 35.84375 498.07812Q35.328125 498.64062 35.328125 499.5625Q35.328125 500.375 35.828125 500.89062Q36.328125 501.40625 37.046875 501.40625Q37.78125 501.40625 38.25 500.89062Q38.71875 500.375 38.71875 499.46875ZM41.84375 505.25L41.84375 504.04688L43.046875 504.04688L43.046875 505.25L41.84375 505.25ZM49.71875 498.76562L48.671875 498.84375Q48.53125 498.21875 48.28125 497.9375Q47.84375 497.48438 47.21875 497.48438Q46.71875 497.48438 46.328125 497.76562Q45.84375 498.14062 45.546875 498.84375Q45.265625 499.53125 45.25 500.8125Q45.625 500.23438 46.171875 499.95312Q46.734375 499.67188 47.34375 499.67188Q48.390625 499.67188 49.125 500.45312Q49.875 501.23438 49.875 502.45312Q49.875 503.26562 49.515625 503.96875Q49.171875 504.65625 48.5625 505.03125Q47.953125 505.39062 47.1875 505.39062Q45.859375 505.39062 45.03125 504.42188Q44.203125 503.45312 44.203125 501.23438Q44.203125 498.73438 45.125 497.60938Q45.921875 496.625 47.28125 496.625Q48.296875 496.625 48.9375 497.20312Q49.59375 497.76562 49.71875 498.76562ZM45.421875 502.46875Q45.421875 503.01562 45.640625 503.51562Q45.875 504.0 46.28125 504.26562Q46.703125 504.53125 47.171875 504.53125Q47.828125 504.53125 48.3125 504.0Q48.796875 503.45312 48.796875 502.53125Q48.796875 501.64062 48.3125 501.125Q47.84375 500.60938 47.125 500.60938Q46.40625 500.60938 45.90625 501.125Q45.421875 501.64062 45.421875 502.46875ZM51.453125 498.71875Q51.453125 497.79688 51.90625 497.15625Q52.375 496.51562 53.25 496.51562Q54.0625 496.51562 54.59375 497.09375Q55.125 497.67188 55.125 498.78125Q55.125 499.875 54.578125 500.46875Q54.046875 501.04688 53.265625 501.04688Q52.484375 501.04688 51.96875 500.46875Q51.453125 499.89062 51.453125 498.71875ZM53.28125 497.23438Q52.890625 497.23438 52.625 497.57812Q52.375 497.92188 52.375 498.82812Q52.375 499.65625 52.625 500.0Q52.890625 500.32812 53.28125 500.32812Q53.6875 500.32812 53.9375 499.98438Q54.203125 499.64062 54.203125 498.75Q54.203125 497.90625 53.9375 497.57812Q53.671875 497.23438 53.28125 497.23438ZM53.28125 505.5625L57.984375 496.51562L58.84375 496.51562L54.15625 505.5625L53.28125 505.5625ZM57.0 503.23438Q57.0 502.3125 57.453125 501.67188Q57.921875 501.03125 58.8125 501.03125Q59.625 501.03125 60.15625 501.60938Q60.6875 502.17188 60.6875 503.29688Q60.6875 504.39062 60.140625 504.98438Q59.609375 505.5625 58.8125 505.5625Q58.046875 505.5625 57.515625 504.98438Q57.0 504.40625 57.0 503.23438ZM58.84375 501.75Q58.4375 501.75 58.171875 502.09375Q57.921875 502.4375 57.921875 503.34375Q57.921875 504.15625 58.1875 504.5Q58.453125 504.84375 58.84375 504.84375Q59.234375 504.84375 59.5 504.5Q59.765625 504.15625 59.765625 503.25Q59.765625 502.42188 59.5 502.09375Q59.234375 501.75 58.84375 501.75Z" fill-rule="nonzero"/><path stroke="#757575" stroke-width="1.0" stroke-linecap="butt" d="M26.75 492.75L186.25 492.75L417.39212 495.67932" fill-rule="nonzero"/><path fill="#9e9e9e" d="M419.39212 495.67932C419.39212 494.57474 418.49667 493.67932 417.39212 493.67932C416.28754 493.67932 415.39212 494.57474 415.39212 495.67932C415.39212 496.78387 416.28754 497.67932 417.39212 497.67932C418.49667 497.67932 419.39212 496.78387 419.39212 495.67932" fill-rule="nonzero"/><path fill="#1a1a1a" d="M795.59375 35.3125L796.625 35.171875Q796.65625 36.15625 796.9844 36.515625Q797.3125 36.875 797.90625 36.875Q798.3281 36.875 798.6406 36.6875Q798.9531 36.484375 799.0625 36.15625Q799.1875 35.8125 799.1875 35.078125L799.1875 29.15625L800.3125 29.15625L800.3125 35.015625Q800.3125 36.09375 800.0469 36.6875Q799.7969 37.28125 799.2344 37.59375Q798.6719 37.890625 797.90625 37.890625Q796.78125 37.890625 796.1719 37.25Q795.5781 36.59375 795.59375 35.3125ZM806.125 37.75L806.125 36.828125Q805.3906 37.890625 804.1406 37.890625Q803.59375 37.890625 803.1094 37.6875Q802.6406 37.46875 802.40625 37.15625Q802.1719 36.828125 802.0781 36.359375Q802.0156 36.0625 802.0156 35.375L802.0156 31.53125L803.0781 31.53125L803.0781 34.984375Q803.0781 35.796875 803.1406 36.09375Q803.2344 36.5 803.5469 36.75Q803.875 36.984375 804.3594 36.984375Q804.8281 36.984375 805.2344 36.75Q805.65625 36.5 805.8281 36.078125Q806.0156 35.65625 806.0156 34.859375L806.0156 31.53125L807.0625 31.53125L807.0625 37.75L806.125 37.75ZM808.625 35.890625L809.65625 35.734375Q809.75 36.359375 810.1406 36.6875Q810.5469 37.015625 811.28125 37.015625Q812.0 37.015625 812.34375 36.734375Q812.7031 36.4375 812.7031 36.03125Q812.7031 35.671875 812.3906 35.46875Q812.1719 35.328125 811.3125 35.109375Q810.15625 34.8125 809.7031 34.609375Q809.2656 34.390625 809.03125 34.015625Q808.7969 33.640625 808.7969 33.171875Q808.7969 32.765625 808.9844 32.40625Q809.1719 32.046875 809.5 31.8125Q809.75 31.640625 810.1719 31.515625Q810.59375 31.390625 811.09375 31.390625Q811.8125 31.390625 812.3594 31.609375Q812.9219 31.8125 813.1875 32.171875Q813.4531 32.53125 813.5469 33.125L812.5156 33.265625Q812.4531 32.796875 812.1094 32.53125Q811.78125 32.25 811.15625 32.25Q810.4375 32.25 810.125 32.5Q809.8125 32.734375 809.8125 33.0625Q809.8125 33.265625 809.9375 33.421875Q810.0781 33.59375 810.34375 33.703125Q810.5 33.765625 811.28125 33.96875Q812.40625 34.28125 812.84375 34.46875Q813.28125 34.65625 813.53125 35.015625Q813.78125 35.375 813.78125 35.921875Q813.78125 36.453125 813.46875 36.921875Q813.1719 37.375 812.59375 37.640625Q812.0156 37.890625 811.28125 37.890625Q810.0625 37.890625 809.4219 37.390625Q808.7969 36.875 808.625 35.890625ZM818.34375 36.8125L818.5 37.734375Q818.0469 37.828125 817.7031 37.828125Q817.125 37.828125 816.8125 37.65625Q816.5 37.46875 816.3594 37.171875Q816.2344 36.875 816.2344 35.921875L816.2344 32.34375L815.46875 32.34375L815.46875 31.53125L816.2344 31.53125L816.2344 29.984375L817.28125 29.359375L817.28125 31.53125L818.34375 31.53125L818.34375 32.34375L817.28125 32.34375L817.28125 35.984375Q817.28125 36.4375 817.3281 36.5625Q817.3906 36.6875 817.5156 36.765625Q817.6406 36.84375 817.875 36.84375Q818.0625 36.84375 818.34375 36.8125ZM822.0469 37.75L822.0469 31.53125L822.9844 31.53125L822.9844 32.40625Q823.28125 31.9375 823.7656 31.671875Q824.25 31.390625 824.875 31.390625Q825.5625 31.390625 826.0 31.671875Q826.4531 31.953125 826.625 32.46875Q827.375 31.390625 828.5469 31.390625Q829.4844 31.390625 829.96875 31.90625Q830.46875 32.40625 830.46875 33.484375L830.46875 37.75L829.4219 37.75L829.4219 33.828125Q829.4219 33.203125 829.3125 32.921875Q829.21875 32.640625 828.9531 32.46875Q828.6875 32.296875 828.3125 32.296875Q827.65625 32.296875 827.21875 32.734375Q826.7969 33.171875 826.7969 34.140625L826.7969 37.75L825.7344 37.75L825.7344 33.703125Q825.7344 33.0 825.46875 32.65625Q825.21875 32.296875 824.6406 32.296875Q824.1875 32.296875 823.8125 32.53125Q823.4375 32.765625 823.2656 33.21875Q823.09375 33.671875 823.09375 34.515625L823.09375 37.75L822.0469 37.75ZM837.2969 35.75L838.3906 35.875Q838.1406 36.828125 837.4375 37.359375Q836.7344 37.890625 835.65625 37.890625Q834.2969 37.890625 833.4844 37.046875Q832.6875 36.203125 832.6875 34.6875Q832.6875 33.125 833.5 32.265625Q834.3125 31.390625 835.59375 31.390625Q836.84375 31.390625 837.625 32.234375Q838.4219 33.078125 838.4219 34.625Q838.4219 34.71875 838.4219 34.90625L833.78125 34.90625Q833.84375 35.9375 834.3594 36.484375Q834.875 37.015625 835.65625 37.015625Q836.2344 37.015625 836.6406 36.71875Q837.0625 36.40625 837.2969 35.75ZM833.84375 34.046875L837.3125 34.046875Q837.25 33.25 836.9219 32.859375Q836.40625 32.25 835.6094 32.25Q834.875 32.25 834.375 32.734375Q833.8906 33.21875 833.84375 34.046875Z" fill-rule="nonzero"/><path fill="#9e9e9e" d="M811.8125 47.28125L811.8125 46.265625L817.375 46.265625L817.375 47.09375Q816.5625 47.96875 815.75 49.421875Q814.9531 50.859375 814.5156 52.390625Q814.1875 53.46875 814.1094 54.75L813.0156 54.75Q813.03125 53.734375 813.40625 52.296875Q813.7969 50.859375 814.5 49.53125Q815.21875 48.203125 816.03125 47.28125L811.8125 47.28125ZM819.34375 54.75L819.34375 53.546875L820.5469 53.546875L820.5469 54.75L819.34375 54.75ZM827.2969 53.734375L827.2969 54.75L821.6094 54.75Q821.6094 54.375 821.7344 54.015625Q821.9531 53.4375 822.4219 52.875Q822.90625 52.3125 823.8125 51.578125Q825.21875 50.421875 825.7031 49.75Q826.2031 49.078125 826.2031 48.484375Q826.2031 47.859375 825.75 47.4375Q825.2969 47.0 824.5781 47.0Q823.8125 47.0 823.3594 47.453125Q822.90625 47.90625 822.8906 48.71875L821.8125 48.609375Q821.9219 47.390625 822.6406 46.765625Q823.375 46.125 824.6094 46.125Q825.84375 46.125 826.5625 46.8125Q827.28125 47.5 827.28125 48.515625Q827.28125 49.03125 827.0625 49.53125Q826.8594 50.015625 826.3594 50.578125Q825.875 51.125 824.75 52.078125Q823.7969 52.875 823.5156 53.171875Q823.25 53.453125 823.0781 53.734375L827.2969 53.734375ZM828.9531 48.21875Q828.9531 47.296875 829.40625 46.65625Q829.875 46.015625 830.75 46.015625Q831.5625 46.015625 832.09375 46.59375Q832.625 47.171875 832.625 48.28125Q832.625 49.375 832.0781 49.96875Q831.5469 50.546875 830.7656 50.546875Q829.9844 50.546875 829.46875 49.96875Q828.9531 49.390625 828.9531 48.21875ZM830.78125 46.734375Q830.3906 46.734375 830.125 47.078125Q829.875 47.421875 829.875 48.328125Q829.875 49.15625 830.125 49.5Q830.3906 49.828125 830.78125 49.828125Q831.1875 49.828125 831.4375 49.484375Q831.7031 49.140625 831.7031 48.25Q831.7031 47.40625 831.4375 47.078125Q831.1719 46.734375 830.78125 46.734375ZM830.78125 55.0625L835.4844 46.015625L836.34375 46.015625L831.65625 55.0625L830.78125 55.0625ZM834.5 52.734375Q834.5 51.8125 834.9531 51.171875Q835.4219 50.53125 836.3125 50.53125Q837.125 50.53125 837.65625 51.109375Q838.1875 51.671875 838.1875 52.796875Q838.1875 53.890625 837.6406 54.484375Q837.1094 55.0625 836.3125 55.0625Q835.5469 55.0625 835.0156 54.484375Q834.5 53.90625 834.5 52.734375ZM836.34375 51.25Q835.9375 51.25 835.6719 51.59375Q835.4219 51.9375 835.4219 52.84375Q835.4219 53.65625 835.6875 54.0Q835.9531 54.34375 836.34375 54.34375Q836.7344 54.34375 837.0 54.0Q837.2656 53.65625 837.2656 52.75Q837.2656 51.921875 837.0 51.59375Q836.7344 51.25 836.34375 51.25Z" fill-rule="nonzero"/><path stroke="#757575" stroke-width="1.0" stroke-linecap="butt" d="M839.25 42.25L679.75 42.25L484.61823 44.68849" fill-rule="nonzero"/><path fill="#9e9e9e" d="M486.61823 44.68849C486.61823 43.583923 485.72278 42.68849 484.61823 42.68849C483.51364 42.68849 482.61823 43.583923 482.61823 44.68849C482.61823 45.79306 483.51364 46.68849 484.61823 46.68849C485.72278 46.68849 486.61823 45.79306 486.61823 44.68849" fill-rule="nonzero"/><path fill="#1a1a1a" d="M797.71875 68.75L796.6719 68.75L796.6719 62.03125Q796.28125 62.390625 795.65625 62.765625Q795.0469 63.125 794.5625 63.296875L794.5625 62.28125Q795.4375 61.859375 796.09375 61.28125Q796.7656 60.6875 797.0469 60.125L797.71875 60.125L797.71875 68.75ZM800.75 64.515625Q800.75 62.984375 801.0625 62.0625Q801.375 61.125 801.9844 60.625Q802.6094 60.125 803.5469 60.125Q804.2344 60.125 804.75 60.40625Q805.28125 60.6875 805.625 61.21875Q805.96875 61.734375 806.15625 62.484375Q806.34375 63.234375 806.34375 64.515625Q806.34375 66.03125 806.03125 66.953125Q805.7344 67.875 805.1094 68.390625Q804.5 68.890625 803.5469 68.890625Q802.3125 68.890625 801.59375 68.0Q800.75 66.9375 800.75 64.515625ZM801.8281 64.515625Q801.8281 66.625 802.3281 67.328125Q802.8281 68.03125 803.5469 68.03125Q804.28125 68.03125 804.7656 67.328125Q805.2656 66.625 805.2656 64.515625Q805.2656 62.390625 804.7656 61.703125Q804.28125 61.0 803.53125 61.0Q802.8125 61.0 802.375 61.609375Q801.8281 62.390625 801.8281 64.515625ZM807.75 64.515625Q807.75 62.984375 808.0625 62.0625Q808.375 61.125 808.9844 60.625Q809.6094 60.125 810.5469 60.125Q811.2344 60.125 811.75 60.40625Q812.28125 60.6875 812.625 61.21875Q812.96875 61.734375 813.15625 62.484375Q813.34375 63.234375 813.34375 64.515625Q813.34375 66.03125 813.03125 66.953125Q812.7344 67.875 812.1094 68.390625Q811.5 68.890625 810.5469 68.890625Q809.3125 68.890625 808.59375 68.0Q807.75 66.9375 807.75 64.515625ZM808.8281 64.515625Q808.8281 66.625 809.3281 67.328125Q809.8281 68.03125 810.5469 68.03125Q811.28125 68.03125 811.7656 67.328125Q812.2656 66.625 812.2656 64.515625Q812.2656 62.390625 811.7656 61.703125Q811.28125 61.0 810.53125 61.0Q809.8125 61.0 809.375 61.609375Q808.8281 62.390625 808.8281 64.515625ZM814.625 66.171875L814.625 65.109375L817.875 65.109375L817.875 66.171875L814.625 66.171875ZM822.125 68.75L822.125 66.6875L818.40625 66.6875L818.40625 65.71875L822.3281 60.15625L823.1875 60.15625L823.1875 65.71875L824.34375 65.71875L824.34375 66.6875L823.1875 66.6875L823.1875 68.75L822.125 68.75ZM822.125 65.71875L822.125 61.859375L819.4375 65.71875L822.125 65.71875ZM825.90625 66.765625L826.9219 66.671875Q827.0469 67.390625 827.40625 67.71875Q827.78125 68.03125 828.34375 68.03125Q828.8281 68.03125 829.1875 67.8125Q829.5625 67.578125 829.7969 67.21875Q830.03125 66.84375 830.1875 66.21875Q830.34375 65.578125 830.34375 64.921875Q830.34375 64.84375 830.34375 64.703125Q830.03125 65.203125 829.4844 65.53125Q828.9375 65.84375 828.2969 65.84375Q827.21875 65.84375 826.4844 65.078125Q825.75 64.296875 825.75 63.03125Q825.75 61.71875 826.5156 60.921875Q827.2969 60.125 828.4531 60.125Q829.28125 60.125 829.96875 60.578125Q830.6719 61.03125 831.03125 61.875Q831.3906 62.703125 831.3906 64.28125Q831.3906 65.921875 831.03125 66.90625Q830.6875 67.875 829.96875 68.390625Q829.2656 68.890625 828.3281 68.890625Q827.3125 68.890625 826.6719 68.34375Q826.03125 67.78125 825.90625 66.765625ZM830.21875 62.96875Q830.21875 62.0625 829.7344 61.53125Q829.2656 61.0 828.5781 61.0Q827.875 61.0 827.34375 61.578125Q826.8281 62.140625 826.8281 63.0625Q826.8281 63.875 827.3281 64.390625Q827.8281 64.90625 828.5469 64.90625Q829.28125 64.90625 829.75 64.390625Q830.21875 63.875 830.21875 62.96875ZM832.90625 66.765625L833.9219 66.671875Q834.0469 67.390625 834.40625 67.71875Q834.78125 68.03125 835.34375 68.03125Q835.8281 68.03125 836.1875 67.8125Q836.5625 67.578125 836.7969 67.21875Q837.03125 66.84375 837.1875 66.21875Q837.34375 65.578125 837.34375 64.921875Q837.34375 64.84375 837.34375 64.703125Q837.03125 65.203125 836.4844 65.53125Q835.9375 65.84375 835.2969 65.84375Q834.21875 65.84375 833.4844 65.078125Q832.75 64.296875 832.75 63.03125Q832.75 61.71875 833.5156 60.921875Q834.2969 60.125 835.4531 60.125Q836.28125 60.125 836.96875 60.578125Q837.6719 61.03125 838.03125 61.875Q838.3906 62.703125 838.3906 64.28125Q838.3906 65.921875 838.03125 66.90625Q837.6875 67.875 836.96875 68.390625Q836.2656 68.890625 835.3281 68.890625Q834.3125 68.890625 833.6719 68.34375Q833.03125 67.78125 832.90625 66.765625ZM837.21875 62.96875Q837.21875 62.0625 836.7344 61.53125Q836.2656 61.0 835.5781 61.0Q834.875 61.0 834.34375 61.578125Q833.8281 62.140625 833.8281 63.0625Q833.8281 63.875 834.3281 64.390625Q834.8281 64.90625 835.5469 64.90625Q836.28125 64.90625 836.75 64.390625Q837.21875 63.875 837.21875 62.96875Z" fill-rule="nonzero"/><path fill="#9e9e9e" d="M815.71875 85.75L814.6719 85.75L814.6719 79.03125Q814.28125 79.390625 813.65625 79.765625Q813.0469 80.125 812.5625 80.296875L812.5625 79.28125Q813.4375 78.859375 814.09375 78.28125Q814.7656 77.6875 815.0469 77.125L815.71875 77.125L815.71875 85.75ZM819.34375 85.75L819.34375 84.546875L820.5469 84.546875L820.5469 85.75L819.34375 85.75ZM825.125 85.75L825.125 83.6875L821.40625 83.6875L821.40625 82.71875L825.3281 77.15625L826.1875 77.15625L826.1875 82.71875L827.34375 82.71875L827.34375 83.6875L826.1875 83.6875L826.1875 85.75L825.125 85.75ZM825.125 82.71875L825.125 78.859375L822.4375 82.71875L825.125 82.71875ZM828.9531 79.21875Q828.9531 78.296875 829.40625 77.65625Q829.875 77.015625 830.75 77.015625Q831.5625 77.015625 832.09375 77.59375Q832.625 78.171875 832.625 79.28125Q832.625 80.375 832.0781 80.96875Q831.5469 81.546875 830.7656 81.546875Q829.9844 81.546875 829.46875 80.96875Q828.9531 80.390625 828.9531 79.21875ZM830.78125 77.734375Q830.3906 77.734375 830.125 78.078125Q829.875 78.421875 829.875 79.328125Q829.875 80.15625 830.125 80.5Q830.3906 80.828125 830.78125 80.828125Q831.1875 80.828125 831.4375 80.484375Q831.7031 80.140625 831.7031 79.25Q831.7031 78.40625 831.4375 78.078125Q831.1719 77.734375 830.78125 77.734375ZM830.78125 86.0625L835.4844 77.015625L836.34375 77.015625L831.65625 86.0625L830.78125 86.0625ZM834.5 83.734375Q834.5 82.8125 834.9531 82.171875Q835.4219 81.53125 836.3125 81.53125Q837.125 81.53125 837.65625 82.109375Q838.1875 82.671875 838.1875 83.796875Q838.1875 84.890625 837.6406 85.484375Q837.1094 86.0625 836.3125 86.0625Q835.5469 86.0625 835.0156 85.484375Q834.5 84.90625 834.5 83.734375ZM836.34375 82.25Q835.9375 82.25 835.6719 82.59375Q835.4219 82.9375 835.4219 83.84375Q835.4219 84.65625 835.6875 85.0Q835.9531 85.34375 836.34375 85.34375Q836.7344 85.34375 837.0 85.0Q837.2656 84.65625 837.2656 83.75Q837.2656 82.921875 837.0 82.59375Q836.7344 82.25 836.34375 82.25Z" fill-rule="nonzero"/><path stroke="#757575" stroke-width="1.0" stroke-linecap="butt" d="M839.25 73.25L679.75 73.25L542.8179 66.87737" fill-rule="nonzero"/><path fill="#9e9e9e" d="M544.8179 66.87737C544.8179 65.772804 543.9225 64.87737 542.8179 64.87737C541.7133 64.87737 540.8179 65.772804 540.8179 66.87737C540.8179 67.98194 541.7133 68.87737 542.8179 68.87737C543.9225 68.87737 544.8179 67.98194 544.8179 66.87737" fill-rule="nonzero"/><path fill="#1a1a1a" d="M757.75 184.14322L758.8125 184.0026Q758.9844 184.89322 759.4219 185.29947Q759.8594 185.6901 760.4844 185.6901Q761.2344 185.6901 761.75 185.17447Q762.2656 184.65884 762.2656 183.89322Q762.2656 183.17447 761.78125 182.70572Q761.3125 182.22134 760.5781 182.22134Q760.28125 182.22134 759.8281 182.34634L759.9531 181.40884Q760.0625 181.42447 760.125 181.42447Q760.7969 181.42447 761.3281 181.08072Q761.875 180.72134 761.875 179.98697Q761.875 179.40884 761.4844 179.03384Q761.09375 178.64322 760.46875 178.64322Q759.8594 178.64322 759.4375 179.03384Q759.03125 179.42447 758.9219 180.1901L757.8594 180.0026Q758.0469 178.95572 758.7344 178.3776Q759.4219 177.78384 760.4375 177.78384Q761.1406 177.78384 761.7344 178.09634Q762.3281 178.39322 762.6406 178.90884Q762.9531 179.42447 762.9531 180.01822Q762.9531 180.5651 762.65625 181.03384Q762.3594 181.48697 761.78125 181.7526Q762.53125 181.92447 762.9531 182.48697Q763.375 183.03384 763.375 183.8776Q763.375 185.0026 762.5469 185.78384Q761.7344 186.5651 760.4844 186.5651Q759.3594 186.5651 758.6094 185.89322Q757.8594 185.20572 757.75 184.14322ZM764.625 183.83072L764.625 182.76822L767.875 182.76822L767.875 183.83072L764.625 183.83072ZM768.75 184.15884L769.8594 184.0651Q769.9844 184.8776 770.4219 185.28384Q770.875 185.6901 771.5156 185.6901Q772.2656 185.6901 772.7969 185.11197Q773.3281 184.53384 773.3281 183.59634Q773.3281 182.6901 772.8125 182.17447Q772.3125 181.64322 771.4844 181.64322Q770.9844 181.64322 770.5625 181.8776Q770.15625 182.11197 769.9219 182.47134L768.9375 182.34634L769.7656 177.9401L774.0469 177.9401L774.0469 178.9401L770.6094 178.9401L770.15625 181.2526Q770.9219 180.70572 771.7656 180.70572Q772.8906 180.70572 773.65625 181.48697Q774.4375 182.26822 774.4375 183.5026Q774.4375 184.65884 773.7656 185.51822Q772.9375 186.54947 771.5156 186.54947Q770.34375 186.54947 769.59375 185.89322Q768.8594 185.23697 768.75 184.15884ZM783.0781 186.40884L783.0781 185.6276Q782.4844 186.54947 781.34375 186.54947Q780.59375 186.54947 779.96875 186.14322Q779.34375 185.72134 779.0 184.98697Q778.65625 184.2526 778.65625 183.29947Q778.65625 182.3776 778.96875 181.61197Q779.28125 180.84634 779.90625 180.45572Q780.53125 180.04947 781.2969 180.04947Q781.8594 180.04947 782.2969 180.28384Q782.7344 180.51822 783.0156 180.89322L783.0156 177.8151L784.0625 177.8151L784.0625 186.40884L783.0781 186.40884ZM779.75 183.29947Q779.75 184.5026 780.25 185.09634Q780.75 185.67447 781.4375 185.67447Q782.125 185.67447 782.6094 185.11197Q783.09375 184.54947 783.09375 183.39322Q783.09375 182.11197 782.59375 181.51822Q782.1094 180.92447 781.3906 180.92447Q780.6875 180.92447 780.21875 181.5026Q779.75 182.0651 779.75 183.29947ZM790.2969 184.40884L791.3906 184.53384Q791.1406 185.48697 790.4375 186.01822Q789.7344 186.54947 788.65625 186.54947Q787.2969 186.54947 786.4844 185.70572Q785.6875 184.86197 785.6875 183.34634Q785.6875 181.78384 786.5 180.92447Q787.3125 180.04947 788.59375 180.04947Q789.84375 180.04947 790.625 180.89322Q791.4219 181.73697 791.4219 183.28384Q791.4219 183.3776 791.4219 183.5651L786.78125 183.5651Q786.84375 184.59634 787.3594 185.14322Q787.875 185.67447 788.65625 185.67447Q789.2344 185.67447 789.6406 185.3776Q790.0625 185.0651 790.2969 184.40884ZM786.84375 182.70572L790.3125 182.70572Q790.25 181.90884 789.9219 181.51822Q789.40625 180.90884 788.6094 180.90884Q787.875 180.90884 787.375 181.39322Q786.8906 181.8776 786.84375 182.70572ZM794.7656 186.40884L792.40625 180.1901L793.5156 180.1901L794.8594 183.90884Q795.0625 184.51822 795.25 185.15884Q795.3906 184.67447 795.6406 183.98697L797.03125 180.1901L798.1094 180.1901L795.75 186.40884L794.7656 186.40884ZM802.2969 184.40884L803.3906 184.53384Q803.1406 185.48697 802.4375 186.01822Q801.7344 186.54947 800.65625 186.54947Q799.2969 186.54947 798.4844 185.70572Q797.6875 184.86197 797.6875 183.34634Q797.6875 181.78384 798.5 180.92447Q799.3125 180.04947 800.59375 180.04947Q801.84375 180.04947 802.625 180.89322Q803.4219 181.73697 803.4219 183.28384Q803.4219 183.3776 803.4219 183.5651L798.78125 183.5651Q798.84375 184.59634 799.3594 185.14322Q799.875 185.67447 800.65625 185.67447Q801.2344 185.67447 801.6406 185.3776Q802.0625 185.0651 802.2969 184.40884ZM798.84375 182.70572L802.3125 182.70572Q802.25 181.90884 801.9219 181.51822Q801.40625 180.90884 800.6094 180.90884Q799.875 180.90884 799.375 181.39322Q798.8906 181.8776 798.84375 182.70572ZM805.0156 186.40884L805.0156 177.8151L806.0781 177.8151L806.0781 186.40884L805.0156 186.40884ZM807.65625 183.29947Q807.65625 181.5651 808.6094 180.73697Q809.40625 180.04947 810.5625 180.04947Q811.84375 180.04947 812.65625 180.89322Q813.4844 181.72134 813.4844 183.20572Q813.4844 184.40884 813.125 185.09634Q812.7656 185.78384 812.0625 186.17447Q811.375 186.54947 810.5625 186.54947Q809.2656 186.54947 808.4531 185.72134Q807.65625 184.8776 807.65625 183.29947ZM808.7344 183.29947Q808.7344 184.48697 809.25 185.08072Q809.78125 185.67447 810.5625 185.67447Q811.3594 185.67447 811.875 185.08072Q812.3906 184.48697 812.3906 183.26822Q812.3906 182.11197 811.8594 181.51822Q811.34375 180.92447 810.5625 180.92447Q809.78125 180.92447 809.25 181.51822Q808.7344 182.09634 808.7344 183.29947ZM815.0469 188.79947L815.0469 180.1901L816.0 180.1901L816.0 180.98697Q816.34375 180.51822 816.7656 180.28384Q817.2031 180.04947 817.8125 180.04947Q818.6094 180.04947 819.21875 180.45572Q819.8281 180.86197 820.125 181.61197Q820.4375 182.36197 820.4375 183.2526Q820.4375 184.20572 820.09375 184.97134Q819.7656 185.73697 819.1094 186.14322Q818.4531 186.54947 817.7344 186.54947Q817.2031 186.54947 816.78125 186.33072Q816.3594 186.09634 816.09375 185.76822L816.09375 188.79947L815.0469 188.79947ZM816.0 183.33072Q816.0 184.53384 816.4844 185.11197Q816.96875 185.67447 817.65625 185.67447Q818.3594 185.67447 818.8594 185.08072Q819.3594 184.48697 819.3594 183.23697Q819.3594 182.04947 818.875 181.47134Q818.3906 180.8776 817.7031 180.8776Q817.03125 180.8776 816.5156 181.5026Q816.0 182.1276 816.0 183.33072ZM826.2969 184.40884L827.3906 184.53384Q827.1406 185.48697 826.4375 186.01822Q825.7344 186.54947 824.65625 186.54947Q823.2969 186.54947 822.4844 185.70572Q821.6875 184.86197 821.6875 183.34634Q821.6875 181.78384 822.5 180.92447Q823.3125 180.04947 824.59375 180.04947Q825.84375 180.04947 826.625 180.89322Q827.4219 181.73697 827.4219 183.28384Q827.4219 183.3776 827.4219 183.5651L822.78125 183.5651Q822.84375 184.59634 823.3594 185.14322Q823.875 185.67447 824.65625 185.67447Q825.2344 185.67447 825.6406 185.3776Q826.0625 185.0651 826.2969 184.40884ZM822.84375 182.70572L826.3125 182.70572Q826.25 181.90884 825.9219 181.51822Q825.40625 180.90884 824.6094 180.90884Q823.875 180.90884 823.375 181.39322Q822.8906 181.8776 822.84375 182.70572ZM829.03125 186.40884L829.03125 180.1901L829.9844 180.1901L829.9844 181.1276Q830.34375 180.47134 830.6406 180.26822Q830.9531 180.04947 831.3281 180.04947Q831.8594 180.04947 832.40625 180.3776L832.0469 181.36197Q831.65625 181.1276 831.28125 181.1276Q830.9219 181.1276 830.6406 181.34634Q830.375 181.54947 830.2656 181.92447Q830.0781 182.48697 830.0781 183.14322L830.0781 186.40884L829.03125 186.40884ZM832.625 184.54947L833.65625 184.39322Q833.75 185.01822 834.1406 185.34634Q834.5469 185.67447 835.28125 185.67447Q836.0 185.67447 836.34375 185.39322Q836.7031 185.09634 836.7031 184.6901Q836.7031 184.33072 836.3906 184.1276Q836.1719 183.98697 835.3125 183.76822Q834.15625 183.47134 833.7031 183.26822Q833.2656 183.04947 833.03125 182.67447Q832.7969 182.29947 832.7969 181.83072Q832.7969 181.42447 832.9844 181.0651Q833.1719 180.70572 833.5 180.47134Q833.75 180.29947 834.1719 180.17447Q834.59375 180.04947 835.09375 180.04947Q835.8125 180.04947 836.3594 180.26822Q836.9219 180.47134 837.1875 180.83072Q837.4531 181.1901 837.5469 181.78384L836.5156 181.92447Q836.4531 181.45572 836.1094 181.1901Q835.78125 180.90884 835.15625 180.90884Q834.4375 180.90884 834.125 181.15884Q833.8125 181.39322 833.8125 181.72134Q833.8125 181.92447 833.9375 182.08072Q834.0781 182.2526 834.34375 182.36197Q834.5 182.42447 835.28125 182.6276Q836.40625 182.9401 836.84375 183.1276Q837.28125 183.3151 837.53125 183.67447Q837.78125 184.03384 837.78125 184.58072Q837.78125 185.11197 837.46875 185.58072Q837.1719 186.03384 836.59375 186.29947Q836.0156 186.54947 835.28125 186.54947Q834.0625 186.54947 833.4219 186.04947Q832.7969 185.53384 832.625 184.54947Z" fill-rule="nonzero"/><path fill="#9e9e9e" d="M810.2969 202.39322L810.2969 203.40884L804.6094 203.40884Q804.6094 203.03384 804.7344 202.67447Q804.9531 202.09634 805.4219 201.53384Q805.90625 200.97134 806.8125 200.23697Q808.21875 199.08072 808.7031 198.40884Q809.2031 197.73697 809.2031 197.14322Q809.2031 196.51822 808.75 196.09634Q808.2969 195.65884 807.5781 195.65884Q806.8125 195.65884 806.3594 196.11197Q805.90625 196.5651 805.8906 197.3776L804.8125 197.26822Q804.9219 196.04947 805.6406 195.42447Q806.375 194.78384 807.6094 194.78384Q808.84375 194.78384 809.5625 195.47134Q810.28125 196.15884 810.28125 197.17447Q810.28125 197.6901 810.0625 198.1901Q809.8594 198.67447 809.3594 199.23697Q808.875 199.78384 807.75 200.73697Q806.7969 201.53384 806.5156 201.83072Q806.25 202.11197 806.0781 202.39322L810.2969 202.39322ZM815.71875 203.40884L814.6719 203.40884L814.6719 196.6901Q814.28125 197.04947 813.65625 197.42447Q813.0469 197.78384 812.5625 197.95572L812.5625 196.9401Q813.4375 196.51822 814.09375 195.9401Q814.7656 195.34634 815.0469 194.78384L815.71875 194.78384L815.71875 203.40884ZM819.34375 203.40884L819.34375 202.20572L820.5469 202.20572L820.5469 203.40884L819.34375 203.40884ZM821.8125 195.9401L821.8125 194.92447L827.375 194.92447L827.375 195.7526Q826.5625 196.6276 825.75 198.08072Q824.9531 199.51822 824.5156 201.04947Q824.1875 202.1276 824.1094 203.40884L823.0156 203.40884Q823.03125 202.39322 823.40625 200.95572Q823.7969 199.51822 824.5 198.1901Q825.21875 196.86197 826.03125 195.9401L821.8125 195.9401ZM828.9531 196.8776Q828.9531 195.95572 829.40625 195.3151Q829.875 194.67447 830.75 194.67447Q831.5625 194.67447 832.09375 195.2526Q832.625 195.83072 832.625 196.9401Q832.625 198.03384 832.0781 198.6276Q831.5469 199.20572 830.7656 199.20572Q829.9844 199.20572 829.46875 198.6276Q828.9531 198.04947 828.9531 196.8776ZM830.78125 195.39322Q830.3906 195.39322 830.125 195.73697Q829.875 196.08072 829.875 196.98697Q829.875 197.8151 830.125 198.15884Q830.3906 198.48697 830.78125 198.48697Q831.1875 198.48697 831.4375 198.14322Q831.7031 197.79947 831.7031 196.90884Q831.7031 196.0651 831.4375 195.73697Q831.1719 195.39322 830.78125 195.39322ZM830.78125 203.72134L835.4844 194.67447L836.34375 194.67447L831.65625 203.72134L830.78125 203.72134ZM834.5 201.39322Q834.5 200.47134 834.9531 199.83072Q835.4219 199.1901 836.3125 199.1901Q837.125 199.1901 837.65625 199.76822Q838.1875 200.33072 838.1875 201.45572Q838.1875 202.54947 837.6406 203.14322Q837.1094 203.72134 836.3125 203.72134Q835.5469 203.72134 835.0156 203.14322Q834.5 202.5651 834.5 201.39322ZM836.34375 199.90884Q835.9375 199.90884 835.6719 200.2526Q835.4219 200.59634 835.4219 201.5026Q835.4219 202.3151 835.6875 202.65884Q835.9531 203.0026 836.34375 203.0026Q836.7344 203.0026 837.0 202.65884Q837.2656 202.3151 837.2656 201.40884Q837.2656 200.58072 837.0 200.2526Q836.7344 199.90884 836.34375 199.90884Z" fill-rule="nonzero"/><path stroke="#757575" stroke-width="1.0" stroke-linecap="butt" d="M839.25 190.90884L679.75 190.90884L648.50684 190.90884" fill-rule="nonzero"/><path fill="#9e9e9e" d="M650.50684 190.90884C650.50684 189.80428 649.61145 188.90884 648.50684 188.90884C647.4023 188.90884 646.50684 189.80428 646.50684 190.90884C646.50684 192.01341 647.4023 192.90884 648.50684 192.90884C649.61145 192.90884 650.50684 192.01341 650.50684 190.90884" fill-rule="nonzero"/><path fill="#1a1a1a" d="M774.2969 406.32208L774.2969 407.3377L768.6094 407.3377Q768.6094 406.9627 768.7344 406.60333Q768.9531 406.0252 769.4219 405.4627Q769.90625 404.9002 770.8125 404.16583Q772.21875 403.00958 772.7031 402.3377Q773.2031 401.66583 773.2031 401.07208Q773.2031 400.44708 772.75 400.0252Q772.2969 399.5877 771.5781 399.5877Q770.8125 399.5877 770.3594 400.04083Q769.90625 400.49396 769.8906 401.30646L768.8125 401.19708Q768.9219 399.97833 769.6406 399.35333Q770.375 398.7127 771.6094 398.7127Q772.84375 398.7127 773.5625 399.4002Q774.28125 400.0877 774.28125 401.10333Q774.28125 401.61896 774.0625 402.11896Q773.8594 402.60333 773.3594 403.16583Q772.875 403.7127 771.75 404.66583Q770.7969 405.4627 770.5156 405.75958Q770.25 406.04083 770.0781 406.32208L774.2969 406.32208ZM783.0781 407.3377L783.0781 406.55646Q782.4844 407.47833 781.34375 407.47833Q780.59375 407.47833 779.96875 407.07208Q779.34375 406.6502 779.0 405.91583Q778.65625 405.18146 778.65625 404.22833Q778.65625 403.30646 778.96875 402.54083Q779.28125 401.7752 779.90625 401.38458Q780.53125 400.97833 781.2969 400.97833Q781.8594 400.97833 782.2969 401.2127Q782.7344 401.44708 783.0156 401.82208L783.0156 398.74396L784.0625 398.74396L784.0625 407.3377L783.0781 407.3377ZM779.75 404.22833Q779.75 405.43146 780.25 406.0252Q780.75 406.60333 781.4375 406.60333Q782.125 406.60333 782.6094 406.04083Q783.09375 405.47833 783.09375 404.32208Q783.09375 403.04083 782.59375 402.44708Q782.1094 401.85333 781.3906 401.85333Q780.6875 401.85333 780.21875 402.43146Q779.75 402.99396 779.75 404.22833ZM790.2969 405.3377L791.3906 405.4627Q791.1406 406.41583 790.4375 406.94708Q789.7344 407.47833 788.65625 407.47833Q787.2969 407.47833 786.4844 406.63458Q785.6875 405.79083 785.6875 404.2752Q785.6875 402.7127 786.5 401.85333Q787.3125 400.97833 788.59375 400.97833Q789.84375 400.97833 790.625 401.82208Q791.4219 402.66583 791.4219 404.2127Q791.4219 404.30646 791.4219 404.49396L786.78125 404.49396Q786.84375 405.5252 787.3594 406.07208Q787.875 406.60333 788.65625 406.60333Q789.2344 406.60333 789.6406 406.30646Q790.0625 405.99396 790.2969 405.3377ZM786.84375 403.63458L790.3125 403.63458Q790.25 402.8377 789.9219 402.44708Q789.40625 401.8377 788.6094 401.8377Q787.875 401.8377 787.375 402.32208Q786.8906 402.80646 786.84375 403.63458ZM794.7656 407.3377L792.40625 401.11896L793.5156 401.11896L794.8594 404.8377Q795.0625 405.44708 795.25 406.0877Q795.3906 405.60333 795.6406 404.91583L797.03125 401.11896L798.1094 401.11896L795.75 407.3377L794.7656 407.3377ZM802.2969 405.3377L803.3906 405.4627Q803.1406 406.41583 802.4375 406.94708Q801.7344 407.47833 800.65625 407.47833Q799.2969 407.47833 798.4844 406.63458Q797.6875 405.79083 797.6875 404.2752Q797.6875 402.7127 798.5 401.85333Q799.3125 400.97833 800.59375 400.97833Q801.84375 400.97833 802.625 401.82208Q803.4219 402.66583 803.4219 404.2127Q803.4219 404.30646 803.4219 404.49396L798.78125 404.49396Q798.84375 405.5252 799.3594 406.07208Q799.875 406.60333 800.65625 406.60333Q801.2344 406.60333 801.6406 406.30646Q802.0625 405.99396 802.2969 405.3377ZM798.84375 403.63458L802.3125 403.63458Q802.25 402.8377 801.9219 402.44708Q801.40625 401.8377 800.6094 401.8377Q799.875 401.8377 799.375 402.32208Q798.8906 402.80646 798.84375 403.63458ZM805.0156 407.3377L805.0156 398.74396L806.0781 398.74396L806.0781 407.3377L805.0156 407.3377ZM807.65625 404.22833Q807.65625 402.49396 808.6094 401.66583Q809.40625 400.97833 810.5625 400.97833Q811.84375 400.97833 812.65625 401.82208Q813.4844 402.6502 813.4844 404.13458Q813.4844 405.3377 813.125 406.0252Q812.7656 406.7127 812.0625 407.10333Q811.375 407.47833 810.5625 407.47833Q809.2656 407.47833 808.4531 406.6502Q807.65625 405.80646 807.65625 404.22833ZM808.7344 404.22833Q808.7344 405.41583 809.25 406.00958Q809.78125 406.60333 810.5625 406.60333Q811.3594 406.60333 811.875 406.00958Q812.3906 405.41583 812.3906 404.19708Q812.3906 403.04083 811.8594 402.44708Q811.34375 401.85333 810.5625 401.85333Q809.78125 401.85333 809.25 402.44708Q808.7344 403.0252 808.7344 404.22833ZM815.0469 409.72833L815.0469 401.11896L816.0 401.11896L816.0 401.91583Q816.34375 401.44708 816.7656 401.2127Q817.2031 400.97833 817.8125 400.97833Q818.6094 400.97833 819.21875 401.38458Q819.8281 401.79083 820.125 402.54083Q820.4375 403.29083 820.4375 404.18146Q820.4375 405.13458 820.09375 405.9002Q819.7656 406.66583 819.1094 407.07208Q818.4531 407.47833 817.7344 407.47833Q817.2031 407.47833 816.78125 407.25958Q816.3594 407.0252 816.09375 406.69708L816.09375 409.72833L815.0469 409.72833ZM816.0 404.25958Q816.0 405.4627 816.4844 406.04083Q816.96875 406.60333 817.65625 406.60333Q818.3594 406.60333 818.8594 406.00958Q819.3594 405.41583 819.3594 404.16583Q819.3594 402.97833 818.875 402.4002Q818.3906 401.80646 817.7031 401.80646Q817.03125 401.80646 816.5156 402.43146Q816.0 403.05646 816.0 404.25958ZM826.2969 405.3377L827.3906 405.4627Q827.1406 406.41583 826.4375 406.94708Q825.7344 407.47833 824.65625 407.47833Q823.2969 407.47833 822.4844 406.63458Q821.6875 405.79083 821.6875 404.2752Q821.6875 402.7127 822.5 401.85333Q823.3125 400.97833 824.59375 400.97833Q825.84375 400.97833 826.625 401.82208Q827.4219 402.66583 827.4219 404.2127Q827.4219 404.30646 827.4219 404.49396L822.78125 404.49396Q822.84375 405.5252 823.3594 406.07208Q823.875 406.60333 824.65625 406.60333Q825.2344 406.60333 825.6406 406.30646Q826.0625 405.99396 826.2969 405.3377ZM822.84375 403.63458L826.3125 403.63458Q826.25 402.8377 825.9219 402.44708Q825.40625 401.8377 824.6094 401.8377Q823.875 401.8377 823.375 402.32208Q822.8906 402.80646 822.84375 403.63458ZM829.03125 407.3377L829.03125 401.11896L829.9844 401.11896L829.9844 402.05646Q830.34375 401.4002 830.6406 401.19708Q830.9531 400.97833 831.3281 400.97833Q831.8594 400.97833 832.40625 401.30646L832.0469 402.29083Q831.65625 402.05646 831.28125 402.05646Q830.9219 402.05646 830.6406 402.2752Q830.375 402.47833 830.2656 402.85333Q830.0781 403.41583 830.0781 404.07208L830.0781 407.3377L829.03125 407.3377ZM832.625 405.47833L833.65625 405.32208Q833.75 405.94708 834.1406 406.2752Q834.5469 406.60333 835.28125 406.60333Q836.0 406.60333 836.34375 406.32208Q836.7031 406.0252 836.7031 405.61896Q836.7031 405.25958 836.3906 405.05646Q836.1719 404.91583 835.3125 404.69708Q834.15625 404.4002 833.7031 404.19708Q833.2656 403.97833 833.03125 403.60333Q832.7969 403.22833 832.7969 402.75958Q832.7969 402.35333 832.9844 401.99396Q833.1719 401.63458 833.5 401.4002Q833.75 401.22833 834.1719 401.10333Q834.59375 400.97833 835.09375 400.97833Q835.8125 400.97833 836.3594 401.19708Q836.9219 401.4002 837.1875 401.75958Q837.4531 402.11896 837.5469 402.7127L836.5156 402.85333Q836.4531 402.38458 836.1094 402.11896Q835.78125 401.8377 835.15625 401.8377Q834.4375 401.8377 834.125 402.0877Q833.8125 402.32208 833.8125 402.6502Q833.8125 402.85333 833.9375 403.00958Q834.0781 403.18146 834.34375 403.29083Q834.5 403.35333 835.28125 403.55646Q836.40625 403.86896 836.84375 404.05646Q837.28125 404.24396 837.53125 404.60333Q837.78125 404.9627 837.78125 405.50958Q837.78125 406.04083 837.46875 406.50958Q837.1719 406.9627 836.59375 407.22833Q836.0156 407.47833 835.28125 407.47833Q834.0625 407.47833 833.4219 406.97833Q832.7969 406.4627 832.625 405.47833Z" fill-rule="nonzero"/><path fill="#9e9e9e" d="M808.71875 424.3377L807.6719 424.3377L807.6719 417.61896Q807.28125 417.97833 806.65625 418.35333Q806.0469 418.7127 805.5625 418.88458L805.5625 417.86896Q806.4375 417.44708 807.09375 416.86896Q807.7656 416.2752 808.0469 415.7127L808.71875 415.7127L808.71875 424.3377ZM811.75 420.10333Q811.75 418.57208 812.0625 417.6502Q812.375 416.7127 812.9844 416.2127Q813.6094 415.7127 814.5469 415.7127Q815.2344 415.7127 815.75 415.99396Q816.28125 416.2752 816.625 416.80646Q816.96875 417.32208 817.15625 418.07208Q817.34375 418.82208 817.34375 420.10333Q817.34375 421.61896 817.03125 422.54083Q816.7344 423.4627 816.1094 423.97833Q815.5 424.47833 814.5469 424.47833Q813.3125 424.47833 812.59375 423.5877Q811.75 422.5252 811.75 420.10333ZM812.8281 420.10333Q812.8281 422.2127 813.3281 422.91583Q813.8281 423.61896 814.5469 423.61896Q815.28125 423.61896 815.7656 422.91583Q816.2656 422.2127 816.2656 420.10333Q816.2656 417.97833 815.7656 417.29083Q815.28125 416.5877 814.53125 416.5877Q813.8125 416.5877 813.375 417.19708Q812.8281 417.97833 812.8281 420.10333ZM819.34375 424.3377L819.34375 423.13458L820.5469 423.13458L820.5469 424.3377L819.34375 424.3377ZM821.90625 422.35333L822.9219 422.25958Q823.0469 422.97833 823.40625 423.30646Q823.78125 423.61896 824.34375 423.61896Q824.8281 423.61896 825.1875 423.4002Q825.5625 423.16583 825.7969 422.80646Q826.03125 422.43146 826.1875 421.80646Q826.34375 421.16583 826.34375 420.50958Q826.34375 420.43146 826.34375 420.29083Q826.03125 420.79083 825.4844 421.11896Q824.9375 421.43146 824.2969 421.43146Q823.21875 421.43146 822.4844 420.66583Q821.75 419.88458 821.75 418.61896Q821.75 417.30646 822.5156 416.50958Q823.2969 415.7127 824.4531 415.7127Q825.28125 415.7127 825.96875 416.16583Q826.6719 416.61896 827.03125 417.4627Q827.3906 418.29083 827.3906 419.86896Q827.3906 421.50958 827.03125 422.49396Q826.6875 423.4627 825.96875 423.97833Q825.2656 424.47833 824.3281 424.47833Q823.3125 424.47833 822.6719 423.93146Q822.03125 423.36896 821.90625 422.35333ZM826.21875 418.55646Q826.21875 417.6502 825.7344 417.11896Q825.2656 416.5877 824.5781 416.5877Q823.875 416.5877 823.34375 417.16583Q822.8281 417.72833 822.8281 418.6502Q822.8281 419.4627 823.3281 419.97833Q823.8281 420.49396 824.5469 420.49396Q825.28125 420.49396 825.75 419.97833Q826.21875 419.4627 826.21875 418.55646ZM828.9531 417.80646Q828.9531 416.88458 829.40625 416.24396Q829.875 415.60333 830.75 415.60333Q831.5625 415.60333 832.09375 416.18146Q832.625 416.75958 832.625 417.86896Q832.625 418.9627 832.0781 419.55646Q831.5469 420.13458 830.7656 420.13458Q829.9844 420.13458 829.46875 419.55646Q828.9531 418.97833 828.9531 417.80646ZM830.78125 416.32208Q830.3906 416.32208 830.125 416.66583Q829.875 417.00958 829.875 417.91583Q829.875 418.74396 830.125 419.0877Q830.3906 419.41583 830.78125 419.41583Q831.1875 419.41583 831.4375 419.07208Q831.7031 418.72833 831.7031 417.8377Q831.7031 416.99396 831.4375 416.66583Q831.1719 416.32208 830.78125 416.32208ZM830.78125 424.6502L835.4844 415.60333L836.34375 415.60333L831.65625 424.6502L830.78125 424.6502ZM834.5 422.32208Q834.5 421.4002 834.9531 420.75958Q835.4219 420.11896 836.3125 420.11896Q837.125 420.11896 837.65625 420.69708Q838.1875 421.25958 838.1875 422.38458Q838.1875 423.47833 837.6406 424.07208Q837.1094 424.6502 836.3125 424.6502Q835.5469 424.6502 835.0156 424.07208Q834.5 423.49396 834.5 422.32208ZM836.34375 420.8377Q835.9375 420.8377 835.6719 421.18146Q835.4219 421.5252 835.4219 422.43146Q835.4219 423.24396 835.6875 423.5877Q835.9531 423.93146 836.34375 423.93146Q836.7344 423.93146 837.0 423.5877Q837.2656 423.24396 837.2656 422.3377Q837.2656 421.50958 837.0 421.18146Q836.7344 420.8377 836.34375 420.8377Z" fill-rule="nonzero"/><path stroke="#757575" stroke-width="1.0" stroke-linecap="butt" d="M839.25 411.8377L679.75 411.8377L610.41486 411.8377" fill-rule="nonzero"/><path fill="#9e9e9e" d="M612.41486 411.8377C612.41486 410.73312 611.5194 409.8377 610.41486 409.8377C609.3103 409.8377 608.41486 410.73312 608.41486 411.8377C608.41486 412.94226 609.3103 413.8377 610.41486 413.8377C611.5194 413.8377 612.41486 412.94226 612.41486 411.8377" fill-rule="nonzero"/></svg>