<svg version="1.1" viewBox="0.0 0.0 771.0 476.0" fill="none" stroke="none" stroke-linecap="square" stroke-miterlimit="10" width="771" height="476" xmlns:xlink="http://www.w3.org/1999/xlink" xmlns="http://www.w3.org/2000/svg"><path fill="#ffffff" d="M0 0L771.0 0L771.0 476.0L0 476.0L0 0Z" fill-rule="nonzero"/><path fill="#4285f4" d="M385.5 23.8C479.9813 23.8 563.30383 85.70372 590.5798 176.16219L385.5 238.0Z" fill-rule="nonzero"/><path fill="#46bdc6" d="M340.22183 28.640194C355.0997 25.422564 370.27817 23.8 385.5 23.8L385.5 238.0Z" fill-rule="nonzero"/><path fill="#ff6d01" d="M276.758 53.455116C296.45294 41.849983 317.8786 33.472355 340.22183 28.640194L385.5 238.0Z" fill-rule="nonzero"/><path fill="#34a853" d="M198.12575 134.2092C216.65729 100.75409 243.80804 72.870674 276.758 53.455116L385.5 238.0Z" fill-rule="nonzero"/><path fill="#fbbc04" d="M177.41972 288.8354C164.63945 236.52296 172.03223 181.31601 198.12575 134.2092L385.5 238.0Z" fill-rule="nonzero"/><path fill="#ea4335" d="M590.5798 176.16219C613.06494 250.73213 593.3009 331.63058 538.965 387.43268C484.62918 443.23477 404.28552 465.14532 329.14343 444.6533C254.00134 424.16122 195.90419 364.49634 177.41972 288.8354L385.5 238.0Z" fill-rule="nonzero"/><path fill="#1a1a1a" d="M26.784374 36.034374L26.784374 34.9875Q26.003124 34.878124 25.503124 34.628124Q25.003124 34.378124 24.64375 33.815624Q24.284374 33.2375 24.221874 32.409374L25.284374 32.221874Q25.409374 33.065624 25.721874 33.45625Q26.175 34.01875 26.784374 34.096874L26.784374 30.7375Q26.14375 30.6125 25.45625 30.221874Q24.95625 29.940624 24.675 29.45625Q24.409374 28.95625 24.409374 28.315624Q24.409374 27.190624 25.20625 26.503124Q25.7375 26.034374 26.784374 25.925L26.784374 25.425L27.409374 25.425L27.409374 25.925Q28.33125 26.003124 28.8625 26.45625Q29.565624 27.034374 29.70625 28.034374L28.6125 28.20625Q28.51875 27.58125 28.221874 27.253124Q27.925 26.925 27.409374 26.815624L27.409374 29.846874Q28.20625 30.05 28.471874 30.159374Q28.95625 30.378124 29.26875 30.690624Q29.58125 31.003124 29.7375 31.440624Q29.909374 31.8625 29.909374 32.3625Q29.909374 33.45625 29.20625 34.190624Q28.51875 34.925 27.409374 34.971874L27.409374 36.034374L26.784374 36.034374ZM26.784374 26.8Q26.175 26.89375 25.815624 27.3Q25.471874 27.690624 25.471874 28.2375Q25.471874 28.76875 25.76875 29.14375Q26.065624 29.503124 26.784374 29.721874L26.784374 26.8ZM27.409374 34.096874Q28.01875 34.01875 28.425 33.565624Q28.83125 33.096874 28.83125 32.425Q28.83125 31.846874 28.534374 31.503124Q28.253124 31.159374 27.409374 30.878124L27.409374 34.096874ZM31.3 32.55L32.409374 32.45625Q32.534374 33.26875 32.971874 33.675Q33.425 34.08125 34.065624 34.08125Q34.815624 34.08125 35.346874 33.503124Q35.878124 32.925 35.878124 31.9875Q35.878124 31.08125 35.3625 30.565624Q34.8625 30.034374 34.034374 30.034374Q33.534374 30.034374 33.1125 30.26875Q32.70625 30.503124 32.471874 30.8625L31.4875 30.7375L32.315624 26.33125L36.596874 26.33125L36.596874 27.33125L33.159374 27.33125L32.70625 29.64375Q33.471874 29.096874 34.315624 29.096874Q35.440624 29.096874 36.20625 29.878124Q36.9875 30.659374 36.9875 31.89375Q36.9875 33.05 36.315624 33.909374Q35.4875 34.940624 34.065624 34.940624Q32.89375 34.940624 32.14375 34.284374Q31.409374 33.628124 31.3 32.55ZM38.3 30.565624Q38.3 29.034374 38.6125 28.1125Q38.925 27.175 39.534374 26.675Q40.159374 26.175 41.096874 26.175Q41.784374 26.175 42.3 26.45625Q42.83125 26.7375 43.175 27.26875Q43.51875 27.784374 43.70625 28.534374Q43.89375 29.284374 43.89375 30.565624Q43.89375 32.08125 43.58125 33.003124Q43.284374 33.925 42.659374 34.440624Q42.05 34.940624 41.096874 34.940624Q39.8625 34.940624 39.14375 34.05Q38.3 32.9875 38.3 30.565624ZM39.378124 30.565624Q39.378124 32.675 39.878124 33.378124Q40.378124 34.08125 41.096874 34.08125Q41.83125 34.08125 42.315624 33.378124Q42.815624 32.675 42.815624 30.565624Q42.815624 28.440624 42.315624 27.753124Q41.83125 27.05 41.08125 27.05Q40.3625 27.05 39.925 27.659374Q39.378124 28.440624 39.378124 30.565624ZM45.8625 34.8L45.8625 33.596874L47.065624 33.596874L47.065624 34.8Q47.065624 35.45625 46.83125 35.8625Q46.596874 36.284374 46.096874 36.503124L45.8 36.05Q46.128124 35.909374 46.284374 35.6125Q46.440624 35.33125 46.471874 34.8L45.8625 34.8ZM48.3 30.565624Q48.3 29.034374 48.6125 28.1125Q48.925 27.175 49.534374 26.675Q50.159374 26.175 51.096874 26.175Q51.784374 26.175 52.3 26.45625Q52.83125 26.7375 53.175 27.26875Q53.51875 27.784374 53.70625 28.534374Q53.89375 29.284374 53.89375 30.565624Q53.89375 32.08125 53.58125 33.003124Q53.284374 33.925 52.659374 34.440624Q52.05 34.940624 51.096874 34.940624Q49.8625 34.940624 49.14375 34.05Q48.3 32.9875 48.3 30.565624ZM49.378124 30.565624Q49.378124 32.675 49.878124 33.378124Q50.378124 34.08125 51.096874 34.08125Q51.83125 34.08125 52.315624 33.378124Q52.815624 32.675 52.815624 30.565624Q52.815624 28.440624 52.315624 27.753124Q51.83125 27.05 51.08125 27.05Q50.3625 27.05 49.925 27.659374Q49.378124 28.440624 49.378124 30.565624ZM55.3 30.565624Q55.3 29.034374 55.6125 28.1125Q55.925 27.175 56.534374 26.675Q57.159374 26.175 58.096874 26.175Q58.784374 26.175 59.3 26.45625Q59.83125 26.7375 60.175 27.26875Q60.51875 27.784374 60.70625 28.534374Q60.89375 29.284374 60.89375 30.565624Q60.89375 32.08125 60.58125 33.003124Q60.284374 33.925 59.659374 34.440624Q59.05 34.940624 58.096874 34.940624Q56.8625 34.940624 56.14375 34.05Q55.3 32.9875 55.3 30.565624ZM56.378124 30.565624Q56.378124 32.675 56.878124 33.378124Q57.378124 34.08125 58.096874 34.08125Q58.83125 34.08125 59.315624 33.378124Q59.815624 32.675 59.815624 30.565624Q59.815624 28.440624 59.315624 27.753124Q58.83125 27.05 58.08125 27.05Q57.3625 27.05 56.925 27.659374Q56.378124 28.440624 56.378124 30.565624ZM62.3 30.565624Q62.3 29.034374 62.6125 28.1125Q62.925 27.175 63.534374 26.675Q64.15938 26.175 65.09688 26.175Q65.78438 26.175 66.3 26.45625Q66.83125 26.7375 67.175 27.26875Q67.51875 27.784374 67.70625 28.534374Q67.89375 29.284374 67.89375 30.565624Q67.89375 32.08125 67.58125 33.003124Q67.28438 33.925 66.65938 34.440624Q66.05 34.940624 65.09688 34.940624Q63.8625 34.940624 63.14375 34.05Q62.3 32.9875 62.3 30.565624ZM63.378124 30.565624Q63.378124 32.675 63.878124 33.378124Q64.37813 34.08125 65.09688 34.08125Q65.83125 34.08125 66.31563 33.378124Q66.81563 32.675 66.81563 30.565624Q66.81563 28.440624 66.31563 27.753124Q65.83125 27.05 65.08125 27.05Q64.3625 27.05 63.925 27.659374Q63.378124 28.440624 63.378124 30.565624ZM72.175 32.221874L72.175 31.159374L75.425 31.159374L75.425 32.221874L72.175 32.221874ZM81.78438 36.034374L81.78438 34.9875Q81.00313 34.878124 80.50313 34.628124Q80.00313 34.378124 79.64375 33.815624Q79.28438 33.2375 79.22188 32.409374L80.28438 32.221874Q80.40938 33.065624 80.72188 33.45625Q81.175 34.01875 81.78438 34.096874L81.78438 30.7375Q81.14375 30.6125 80.45625 30.221874Q79.95625 29.940624 79.675 29.45625Q79.40938 28.95625 79.40938 28.315624Q79.40938 27.190624 80.20625 26.503124Q80.7375 26.034374 81.78438 25.925L81.78438 25.425L82.40938 25.425L82.40938 25.925Q83.33125 26.003124 83.8625 26.45625Q84.56563 27.034374 84.70625 28.034374L83.6125 28.20625Q83.51875 27.58125 83.22188 27.253124Q82.925 26.925 82.40938 26.815624L82.40938 29.846874Q83.20625 30.05 83.47188 30.159374Q83.95625 30.378124 84.26875 30.690624Q84.58125 31.003124 84.7375 31.440624Q84.90938 31.8625 84.90938 32.3625Q84.90938 33.45625 84.20625 34.190624Q83.51875 34.925 82.40938 34.971874L82.40938 36.034374L81.78438 36.034374ZM81.78438 26.8Q81.175 26.89375 80.81563 27.3Q80.47188 27.690624 80.47188 28.2375Q80.47188 28.76875 80.76875 29.14375Q81.06563 29.503124 81.78438 29.721874L81.78438 26.8ZM82.40938 34.096874Q83.01875 34.01875 83.425 33.565624Q83.83125 33.096874 83.83125 32.425Q83.83125 31.846874 83.53438 31.503124Q83.25313 31.159374 82.40938 30.878124L82.40938 34.096874ZM90.26875 34.8L89.22188 34.8L89.22188 28.08125Q88.83125 28.440624 88.20625 28.815624Q87.59688 29.175 87.1125 29.346874L87.1125 28.33125Q87.9875 27.909374 88.64375 27.33125Q89.31563 26.7375 89.59688 26.175L90.26875 26.175L90.26875 34.8ZM93.3 30.565624Q93.3 29.034374 93.6125 28.1125Q93.925 27.175 94.53438 26.675Q95.15938 26.175 96.09688 26.175Q96.78438 26.175 97.3 26.45625Q97.83125 26.7375 98.175 27.26875Q98.51875 27.784374 98.70625 28.534374Q98.89375 29.284374 98.89375 30.565624Q98.89375 32.08125 98.58125 33.003124Q98.28438 33.925 97.65938 34.440624Q97.05 34.940624 96.09688 34.940624Q94.8625 34.940624 94.14375 34.05Q93.3 32.9875 93.3 30.565624ZM94.37813 30.565624Q94.37813 32.675 94.87813 33.378124Q95.37813 34.08125 96.09688 34.08125Q96.83125 34.08125 97.31563 33.378124Q97.81563 32.675 97.81563 30.565624Q97.81563 28.440624 97.31563 27.753124Q96.83125 27.05 96.08125 27.05Q95.3625 27.05 94.925 27.659374Q94.37813 28.440624 94.37813 30.565624ZM100.3 30.565624Q100.3 29.034374 100.6125 28.1125Q100.925 27.175 101.53438 26.675Q102.15938 26.175 103.09688 26.175Q103.78438 26.175 104.3 26.45625Q104.83125 26.7375 105.175 27.26875Q105.51875 27.784374 105.70625 28.534374Q105.89375 29.284374 105.89375 30.565624Q105.89375 32.08125 105.58125 33.003124Q105.28438 33.925 104.65938 34.440624Q104.05 34.940624 103.09688 34.940624Q101.8625 34.940624 101.14375 34.05Q100.3 32.9875 100.3 30.565624ZM101.37813 30.565624Q101.37813 32.675 101.87813 33.378124Q102.37813 34.08125 103.09688 34.08125Q103.83125 34.08125 104.31563 33.378124Q104.81563 32.675 104.81563 30.565624Q104.81563 28.440624 104.31563 27.753124Q103.83125 27.05 103.08125 27.05Q102.3625 27.05 101.925 27.659374Q101.37813 28.440624 101.37813 30.565624ZM107.8625 34.8L107.8625 33.596874L109.06563 33.596874L109.06563 34.8Q109.06563 35.45625 108.83125 35.8625Q108.59688 36.284374 108.09688 36.503124L107.8 36.05Q108.12813 35.909374 108.28438 35.6125Q108.44063 35.33125 108.47188 34.8L107.8625 34.8ZM110.3 30.565624Q110.3 29.034374 110.6125 28.1125Q110.925 27.175 111.53438 26.675Q112.15938 26.175 113.09688 26.175Q113.78438 26.175 114.3 26.45625Q114.83125 26.7375 115.175 27.26875Q115.51875 27.784374 115.70625 28.534374Q115.89375 29.284374 115.89375 30.565624Q115.89375 32.08125 115.58125 33.003124Q115.28438 33.925 114.65938 34.440624Q114.05 34.940624 113.09688 34.940624Q111.8625 34.940624 111.14375 34.05Q110.3 32.9875 110.3 30.565624ZM111.37813 30.565624Q111.37813 32.675 111.87813 33.378124Q112.37813 34.08125 113.09688 34.08125Q113.83125 34.08125 114.31563 33.378124Q114.81563 32.675 114.81563 30.565624Q114.81563 28.440624 114.31563 27.753124Q113.83125 27.05 113.08125 27.05Q112.3625 27.05 111.925 27.659374Q111.37813 28.440624 111.37813 30.565624ZM117.3 30.565624Q117.3 29.034374 117.6125 28.1125Q117.925 27.175 118.53438 26.675Q119.15938 26.175 120.09688 26.175Q120.78438 26.175 121.3 26.45625Q121.83125 26.7375 122.175 27.26875Q122.51875 27.784374 122.70625 28.534374Q122.89375 29.284374 122.89375 30.565624Q122.89375 32.08125 122.58125 33.003124Q122.28438 33.925 121.65938 34.440624Q121.05 34.940624 120.09688 34.940624Q118.8625 34.940624 118.14375 34.05Q117.3 32.9875 117.3 30.565624ZM118.37813 30.565624Q118.37813 32.675 118.87813 33.378124Q119.37813 34.08125 120.09688 34.08125Q120.83125 34.08125 121.31563 33.378124Q121.81563 32.675 121.81563 30.565624Q121.81563 28.440624 121.31563 27.753124Q120.83125 27.05 120.08125 27.05Q119.3625 27.05 118.925 27.659374Q118.37813 28.440624 118.37813 30.565624ZM124.3 30.565624Q124.3 29.034374 124.6125 28.1125Q124.925 27.175 125.53438 26.675Q126.15938 26.175 127.09688 26.175Q127.78438 26.175 128.3 26.45625Q128.83125 26.7375 129.175 27.26875Q129.51875 27.784374 129.70625 28.534374Q129.89375 29.284374 129.89375 30.565624Q129.89375 32.08125 129.58125 33.003124Q129.28438 33.925 128.65938 34.440624Q128.05 34.940624 127.09688 34.940624Q125.8625 34.940624 125.14375 34.05Q124.3 32.9875 124.3 30.565624ZM125.37813 30.565624Q125.37813 32.675 125.87813 33.378124Q126.37813 34.08125 127.09688 34.08125Q127.83125 34.08125 128.31563 33.378124Q128.81563 32.675 128.81563 30.565624Q128.81563 28.440624 128.31563 27.753124Q127.83125 27.05 127.08125 27.05Q126.3625 27.05 125.925 27.659374Q125.37813 28.440624 125.37813 30.565624Z" fill-rule="nonzero"/><path fill="#9e9e9e" d="M24.3 49.534374L25.3625 49.39375Q25.534374 50.284374 25.971874 50.690624Q26.409374 51.08125 27.034374 51.08125Q27.784374 51.08125 28.3 50.565624Q28.815624 50.05 28.815624 49.284374Q28.815624 48.565624 28.33125 48.096874Q27.8625 47.6125 27.128124 47.6125Q26.83125 47.6125 26.378124 47.7375L26.503124 46.8Q26.6125 46.815624 26.675 46.815624Q27.346874 46.815624 27.878124 46.471874Q28.425 46.1125 28.425 45.378124Q28.425 44.8 28.034374 44.425Q27.64375 44.034374 27.01875 44.034374Q26.409374 44.034374 25.9875 44.425Q25.58125 44.815624 25.471874 45.58125L24.409374 45.39375Q24.596874 44.346874 25.284374 43.76875Q25.971874 43.175 26.9875 43.175Q27.690624 43.175 28.284374 43.4875Q28.878124 43.784374 29.190624 44.3Q29.503124 44.815624 29.503124 45.409374Q29.503124 45.95625 29.20625 46.425Q28.909374 46.878124 28.33125 47.14375Q29.08125 47.315624 29.503124 47.878124Q29.925 48.425 29.925 49.26875Q29.925 50.39375 29.096874 51.175Q28.284374 51.95625 27.034374 51.95625Q25.909374 51.95625 25.159374 51.284374Q24.409374 50.596874 24.3 49.534374ZM31.89375 51.8L31.89375 50.596874L33.096874 50.596874L33.096874 51.8L31.89375 51.8ZM37.675 51.8L37.675 49.7375L33.95625 49.7375L33.95625 48.76875L37.878124 43.20625L38.7375 43.20625L38.7375 48.76875L39.89375 48.76875L39.89375 49.7375L38.7375 49.7375L38.7375 51.8L37.675 51.8ZM37.675 48.76875L37.675 44.909374L34.9875 48.76875L37.675 48.76875ZM41.503124 45.26875Q41.503124 44.346874 41.95625 43.70625Q42.425 43.065624 43.3 43.065624Q44.1125 43.065624 44.64375 43.64375Q45.175 44.221874 45.175 45.33125Q45.175 46.425 44.628124 47.01875Q44.096874 47.596874 43.315624 47.596874Q42.534374 47.596874 42.01875 47.01875Q41.503124 46.440624 41.503124 45.26875ZM43.33125 43.784374Q42.940624 43.784374 42.675 44.128124Q42.425 44.471874 42.425 45.378124Q42.425 46.20625 42.675 46.55Q42.940624 46.878124 43.33125 46.878124Q43.7375 46.878124 43.9875 46.534374Q44.253124 46.190624 44.253124 45.3Q44.253124 44.45625 43.9875 44.128124Q43.721874 43.784374 43.33125 43.784374ZM43.33125 52.1125L48.034374 43.065624L48.89375 43.065624L44.20625 52.1125L43.33125 52.1125ZM47.05 49.784374Q47.05 48.8625 47.503124 48.221874Q47.971874 47.58125 48.8625 47.58125Q49.675 47.58125 50.20625 48.159374Q50.7375 48.721874 50.7375 49.846874Q50.7375 50.940624 50.190624 51.534374Q49.659374 52.1125 48.8625 52.1125Q48.096874 52.1125 47.565624 51.534374Q47.05 50.95625 47.05 49.784374ZM48.89375 48.3Q48.4875 48.3 48.221874 48.64375Q47.971874 48.9875 47.971874 49.89375Q47.971874 50.70625 48.2375 51.05Q48.503124 51.39375 48.89375 51.39375Q49.284374 51.39375 49.55 51.05Q49.815624 50.70625 49.815624 49.8Q49.815624 48.971874 49.55 48.64375Q49.284374 48.3 48.89375 48.3Z" fill-rule="nonzero"/><path stroke="#757575" stroke-width="1.0" stroke-linecap="butt" d="M23.8 39.3L165.3 39.3L363.87033 35.66281" fill-rule="nonzero"/><path fill="#9e9e9e" d="M365.87033 35.66281C365.87033 34.558243 364.9749 33.66281 363.87033 33.66281C362.76578 33.66281 361.87033 34.558243 361.87033 35.66281C361.87033 36.76738 362.76578 37.66281 363.87033 37.66281C364.9749 37.66281 365.87033 36.76738 365.87033 35.66281" fill-rule="nonzero"/><path fill="#1a1a1a" d="M26.784374 67.03438L26.784374 65.9875Q26.003124 65.87813 25.503124 65.62813Q25.003124 65.37813 24.64375 64.81563Q24.284374 64.2375 24.221874 63.409378L25.284374 63.221878Q25.409374 64.06563 25.721874 64.45625Q26.175 65.01875 26.784374 65.09688L26.784374 61.737503Q26.14375 61.612503 25.45625 61.221878Q24.95625 60.940628 24.675 60.456253Q24.409374 59.956253 24.409374 59.315628Q24.409374 58.190628 25.20625 57.503128Q25.7375 57.034378 26.784374 56.925003L26.784374 56.425003L27.409374 56.425003L27.409374 56.925003Q28.33125 57.003128 28.8625 57.456253Q29.565624 58.034378 29.70625 59.034378L28.6125 59.206253Q28.51875 58.581253 28.221874 58.253128Q27.925 57.925003 27.409374 57.815628L27.409374 60.846878Q28.20625 61.050003 28.471874 61.159378Q28.95625 61.378128 29.26875 61.690628Q29.58125 62.003128 29.7375 62.440628Q29.909374 62.862503 29.909374 63.362503Q29.909374 64.45625 29.20625 65.19063Q28.51875 65.925 27.409374 65.97188L27.409374 67.03438L26.784374 67.03438ZM26.784374 57.800003Q26.175 57.893753 25.815624 58.300003Q25.471874 58.690628 25.471874 59.237503Q25.471874 59.768753 25.76875 60.143753Q26.065624 60.503128 26.784374 60.721878L26.784374 57.800003ZM27.409374 65.09688Q28.01875 65.01875 28.425 64.56563Q28.83125 64.09688 28.83125 63.425003Q28.83125 62.846878 28.534374 62.503128Q28.253124 62.159378 27.409374 61.878128L27.409374 65.09688ZM35.26875 65.8L34.221874 65.8L34.221874 59.081253Q33.83125 59.440628 33.20625 59.815628Q32.596874 60.175003 32.1125 60.346878L32.1125 59.331253Q32.9875 58.909378 33.64375 58.331253Q34.315624 57.737503 34.596874 57.175003L35.26875 57.175003L35.26875 65.8ZM38.3 61.565628Q38.3 60.034378 38.6125 59.112503Q38.925 58.175003 39.534374 57.675003Q40.159374 57.175003 41.096874 57.175003Q41.784374 57.175003 42.3 57.456253Q42.83125 57.737503 43.175 58.268753Q43.51875 58.784378 43.70625 59.534378Q43.89375 60.284378 43.89375 61.565628Q43.89375 63.081253 43.58125 64.00313Q43.284374 64.925 42.659374 65.44063Q42.05 65.94063 41.096874 65.94063Q39.8625 65.94063 39.14375 65.05Q38.3 63.987503 38.3 61.565628ZM39.378124 61.565628Q39.378124 63.675003 39.878124 64.37813Q40.378124 65.08125 41.096874 65.08125Q41.83125 65.08125 42.315624 64.37813Q42.815624 63.675003 42.815624 61.565628Q42.815624 59.440628 42.315624 58.753128Q41.83125 58.050003 41.08125 58.050003Q40.3625 58.050003 39.925 58.659378Q39.378124 59.440628 39.378124 61.565628ZM45.8625 65.8L45.8625 64.59688L47.065624 64.59688L47.065624 65.8Q47.065624 66.45625 46.83125 66.8625Q46.596874 67.28438 46.096874 67.50313L45.8 67.05Q46.128124 66.90938 46.284374 66.6125Q46.440624 66.33125 46.471874 65.8L45.8625 65.8ZM48.3 61.565628Q48.3 60.034378 48.6125 59.112503Q48.925 58.175003 49.534374 57.675003Q50.159374 57.175003 51.096874 57.175003Q51.784374 57.175003 52.3 57.456253Q52.83125 57.737503 53.175 58.268753Q53.51875 58.784378 53.70625 59.534378Q53.89375 60.284378 53.89375 61.565628Q53.89375 63.081253 53.58125 64.00313Q53.284374 64.925 52.659374 65.44063Q52.05 65.94063 51.096874 65.94063Q49.8625 65.94063 49.14375 65.05Q48.3 63.987503 48.3 61.565628ZM49.378124 61.565628Q49.378124 63.675003 49.878124 64.37813Q50.378124 65.08125 51.096874 65.08125Q51.83125 65.08125 52.315624 64.37813Q52.815624 63.675003 52.815624 61.565628Q52.815624 59.440628 52.315624 58.753128Q51.83125 58.050003 51.08125 58.050003Q50.3625 58.050003 49.925 58.659378Q49.378124 59.440628 49.378124 61.565628ZM55.3 61.565628Q55.3 60.034378 55.6125 59.112503Q55.925 58.175003 56.534374 57.675003Q57.159374 57.175003 58.096874 57.175003Q58.784374 57.175003 59.3 57.456253Q59.83125 57.737503 60.175 58.268753Q60.51875 58.784378 60.70625 59.534378Q60.89375 60.284378 60.89375 61.565628Q60.89375 63.081253 60.58125 64.00313Q60.284374 64.925 59.659374 65.44063Q59.05 65.94063 58.096874 65.94063Q56.8625 65.94063 56.14375 65.05Q55.3 63.987503 55.3 61.565628ZM56.378124 61.565628Q56.378124 63.675003 56.878124 64.37813Q57.378124 65.08125 58.096874 65.08125Q58.83125 65.08125 59.315624 64.37813Q59.815624 63.675003 59.815624 61.565628Q59.815624 59.440628 59.315624 58.753128Q58.83125 58.050003 58.08125 58.050003Q57.3625 58.050003 56.925 58.659378Q56.378124 59.440628 56.378124 61.565628ZM62.3 61.565628Q62.3 60.034378 62.6125 59.112503Q62.925 58.175003 63.534374 57.675003Q64.15938 57.175003 65.09688 57.175003Q65.78438 57.175003 66.3 57.456253Q66.83125 57.737503 67.175 58.268753Q67.51875 58.784378 67.70625 59.534378Q67.89375 60.284378 67.89375 61.565628Q67.89375 63.081253 67.58125 64.00313Q67.28438 64.925 66.65938 65.44063Q66.05 65.94063 65.09688 65.94063Q63.8625 65.94063 63.14375 65.05Q62.3 63.987503 62.3 61.565628ZM63.378124 61.565628Q63.378124 63.675003 63.878124 64.37813Q64.37813 65.08125 65.09688 65.08125Q65.83125 65.08125 66.31563 64.37813Q66.81563 63.675003 66.81563 61.565628Q66.81563 59.440628 66.31563 58.753128Q65.83125 58.050003 65.08125 58.050003Q64.3625 58.050003 63.925 58.659378Q63.378124 59.440628 63.378124 61.565628ZM72.175 63.221878L72.175 62.159378L75.425 62.159378L75.425 63.221878L72.175 63.221878ZM81.78438 67.03438L81.78438 65.9875Q81.00313 65.87813 80.50313 65.62813Q80.00313 65.37813 79.64375 64.81563Q79.28438 64.2375 79.22188 63.409378L80.28438 63.221878Q80.40938 64.06563 80.72188 64.45625Q81.175 65.01875 81.78438 65.09688L81.78438 61.737503Q81.14375 61.612503 80.45625 61.221878Q79.95625 60.940628 79.675 60.456253Q79.40938 59.956253 79.40938 59.315628Q79.40938 58.190628 80.20625 57.503128Q80.7375 57.034378 81.78438 56.925003L81.78438 56.425003L82.40938 56.425003L82.40938 56.925003Q83.33125 57.003128 83.8625 57.456253Q84.56563 58.034378 84.70625 59.034378L83.6125 59.206253Q83.51875 58.581253 83.22188 58.253128Q82.925 57.925003 82.40938 57.815628L82.40938 60.846878Q83.20625 61.050003 83.47188 61.159378Q83.95625 61.378128 84.26875 61.690628Q84.58125 62.003128 84.7375 62.440628Q84.90938 62.862503 84.90938 63.362503Q84.90938 64.45625 84.20625 65.19063Q83.51875 65.925 82.40938 65.97188L82.40938 67.03438L81.78438 67.03438ZM81.78438 57.800003Q81.175 57.893753 80.81563 58.300003Q80.47188 58.690628 80.47188 59.237503Q80.47188 59.768753 80.76875 60.143753Q81.06563 60.503128 81.78438 60.721878L81.78438 57.800003ZM82.40938 65.09688Q83.01875 65.01875 83.425 64.56563Q83.83125 64.09688 83.83125 63.425003Q83.83125 62.846878 83.53438 62.503128Q83.25313 62.159378 82.40938 61.878128L82.40938 65.09688ZM86.3 63.550003L87.40938 63.456253Q87.53438 64.26875 87.97188 64.675Q88.425 65.08125 89.06563 65.08125Q89.81563 65.08125 90.34688 64.50313Q90.87813 63.925003 90.87813 62.987503Q90.87813 62.081253 90.3625 61.565628Q89.8625 61.034378 89.03438 61.034378Q88.53438 61.034378 88.1125 61.268753Q87.70625 61.503128 87.47188 61.862503L86.4875 61.737503L87.31563 57.331253L91.59688 57.331253L91.59688 58.331253L88.15938 58.331253L87.70625 60.643753Q88.47188 60.096878 89.31563 60.096878Q90.44063 60.096878 91.20625 60.878128Q91.9875 61.659378 91.9875 62.893753Q91.9875 64.05 91.31563 64.90938Q90.4875 65.94063 89.06563 65.94063Q87.89375 65.94063 87.14375 65.28438Q86.40938 64.62813 86.3 63.550003ZM93.3 61.565628Q93.3 60.034378 93.6125 59.112503Q93.925 58.175003 94.53438 57.675003Q95.15938 57.175003 96.09688 57.175003Q96.78438 57.175003 97.3 57.456253Q97.83125 57.737503 98.175 58.268753Q98.51875 58.784378 98.70625 59.534378Q98.89375 60.284378 98.89375 61.565628Q98.89375 63.081253 98.58125 64.00313Q98.28438 64.925 97.65938 65.44063Q97.05 65.94063 96.09688 65.94063Q94.8625 65.94063 94.14375 65.05Q93.3 63.987503 93.3 61.565628ZM94.37813 61.565628Q94.37813 63.675003 94.87813 64.37813Q95.37813 65.08125 96.09688 65.08125Q96.83125 65.08125 97.31563 64.37813Q97.81563 63.675003 97.81563 61.565628Q97.81563 59.440628 97.31563 58.753128Q96.83125 58.050003 96.08125 58.050003Q95.3625 58.050003 94.925 58.659378Q94.37813 59.440628 94.37813 61.565628ZM100.8625 65.8L100.8625 64.59688L102.06563 64.59688L102.06563 65.8Q102.06563 66.45625 101.83125 66.8625Q101.59688 67.28438 101.09688 67.50313L100.8 67.05Q101.12813 66.90938 101.28438 66.6125Q101.44063 66.33125 101.47188 65.8L100.8625 65.8ZM103.3 61.565628Q103.3 60.034378 103.6125 59.112503Q103.925 58.175003 104.53438 57.675003Q105.15938 57.175003 106.09688 57.175003Q106.78438 57.175003 107.3 57.456253Q107.83125 57.737503 108.175 58.268753Q108.51875 58.784378 108.70625 59.534378Q108.89375 60.284378 108.89375 61.565628Q108.89375 63.081253 108.58125 64.00313Q108.28438 64.925 107.65938 65.44063Q107.05 65.94063 106.09688 65.94063Q104.8625 65.94063 104.14375 65.05Q103.3 63.987503 103.3 61.565628ZM104.37813 61.565628Q104.37813 63.675003 104.87813 64.37813Q105.37813 65.08125 106.09688 65.08125Q106.83125 65.08125 107.31563 64.37813Q107.81563 63.675003 107.81563 61.565628Q107.81563 59.440628 107.31563 58.753128Q106.83125 58.050003 106.08125 58.050003Q105.3625 58.050003 104.925 58.659378Q104.37813 59.440628 104.37813 61.565628ZM110.3 61.565628Q110.3 60.034378 110.6125 59.112503Q110.925 58.175003 111.53438 57.675003Q112.15938 57.175003 113.09688 57.175003Q113.78438 57.175003 114.3 57.456253Q114.83125 57.737503 115.175 58.268753Q115.51875 58.784378 115.70625 59.534378Q115.89375 60.284378 115.89375 61.565628Q115.89375 63.081253 115.58125 64.00313Q115.28438 64.925 114.65938 65.44063Q114.05 65.94063 113.09688 65.94063Q111.8625 65.94063 111.14375 65.05Q110.3 63.987503 110.3 61.565628ZM111.37813 61.565628Q111.37813 63.675003 111.87813 64.37813Q112.37813 65.08125 113.09688 65.08125Q113.83125 65.08125 114.31563 64.37813Q114.81563 63.675003 114.81563 61.565628Q114.81563 59.440628 114.31563 58.753128Q113.83125 58.050003 113.08125 58.050003Q112.3625 58.050003 111.925 58.659378Q111.37813 59.440628 111.37813 61.565628ZM117.3 61.565628Q117.3 60.034378 117.6125 59.112503Q117.925 58.175003 118.53438 57.675003Q119.15938 57.175003 120.09688 57.175003Q120.78438 57.175003 121.3 57.456253Q121.83125 57.737503 122.175 58.268753Q122.51875 58.784378 122.70625 59.534378Q122.89375 60.284378 122.89375 61.565628Q122.89375 63.081253 122.58125 64.00313Q122.28438 64.925 121.65938 65.44063Q121.05 65.94063 120.09688 65.94063Q118.8625 65.94063 118.14375 65.05Q117.3 63.987503 117.3 61.565628ZM118.37813 61.565628Q118.37813 63.675003 118.87813 64.37813Q119.37813 65.08125 120.09688 65.08125Q120.83125 65.08125 121.31563 64.37813Q121.81563 63.675003 121.81563 61.565628Q121.81563 59.440628 121.31563 58.753128Q120.83125 58.050003 120.08125 58.050003Q119.3625 58.050003 118.925 58.659378Q118.37813 59.440628 118.37813 61.565628Z" fill-rule="nonzero"/><path fill="#9e9e9e" d="M24.3 80.55L25.409374 80.45625Q25.534374 81.26875 25.971874 81.675Q26.425 82.08125 27.065624 82.08125Q27.815624 82.08125 28.346874 81.50313Q28.878124 80.925 28.878124 79.9875Q28.878124 79.08125 28.3625 78.56563Q27.8625 78.03438 27.034374 78.03438Q26.534374 78.03438 26.1125 78.26875Q25.70625 78.50313 25.471874 78.8625L24.4875 78.7375L25.315624 74.33125L29.596874 74.33125L29.596874 75.33125L26.159374 75.33125L25.70625 77.64375Q26.471874 77.09688 27.315624 77.09688Q28.440624 77.09688 29.20625 77.87813Q29.9875 78.65938 29.9875 79.89375Q29.9875 81.05 29.315624 81.90938Q28.4875 82.94063 27.065624 82.94063Q25.89375 82.94063 25.14375 82.28438Q24.409374 81.62813 24.3 80.55ZM31.89375 82.8L31.89375 81.59688L33.096874 81.59688L33.096874 82.8L31.89375 82.8ZM38.26875 82.8L37.221874 82.8L37.221874 76.08125Q36.83125 76.44063 36.20625 76.81563Q35.596874 77.175 35.1125 77.34688L35.1125 76.33125Q35.9875 75.90938 36.64375 75.33125Q37.315624 74.7375 37.596874 74.175L38.26875 74.175L38.26875 82.8ZM41.503124 76.26875Q41.503124 75.34688 41.95625 74.70625Q42.425 74.06563 43.3 74.06563Q44.1125 74.06563 44.64375 74.64375Q45.175 75.22188 45.175 76.33125Q45.175 77.425 44.628124 78.01875Q44.096874 78.59688 43.315624 78.59688Q42.534374 78.59688 42.01875 78.01875Q41.503124 77.44063 41.503124 76.26875ZM43.33125 74.78438Q42.940624 74.78438 42.675 75.12813Q42.425 75.47188 42.425 76.37813Q42.425 77.20625 42.675 77.55Q42.940624 77.87813 43.33125 77.87813Q43.7375 77.87813 43.9875 77.53438Q44.253124 77.19063 44.253124 76.3Q44.253124 75.45625 43.9875 75.12813Q43.721874 74.78438 43.33125 74.78438ZM43.33125 83.1125L48.034374 74.06563L48.89375 74.06563L44.20625 83.1125L43.33125 83.1125ZM47.05 80.78438Q47.05 79.8625 47.503124 79.22188Q47.971874 78.58125 48.8625 78.58125Q49.675 78.58125 50.20625 79.15938Q50.7375 79.72188 50.7375 80.84688Q50.7375 81.94063 50.190624 82.53438Q49.659374 83.1125 48.8625 83.1125Q48.096874 83.1125 47.565624 82.53438Q47.05 81.95625 47.05 80.78438ZM48.89375 79.3Q48.4875 79.3 48.221874 79.64375Q47.971874 79.9875 47.971874 80.89375Q47.971874 81.70625 48.2375 82.05Q48.503124 82.39375 48.89375 82.39375Q49.284374 82.39375 49.55 82.05Q49.815624 81.70625 49.815624 80.8Q49.815624 79.97188 49.55 79.64375Q49.284374 79.3 48.89375 79.3Z" fill-rule="nonzero"/><path stroke="#757575" stroke-width="1.0" stroke-linecap="butt" d="M23.8 70.3L165.3 70.3L311.39697 48.482403" fill-rule="nonzero"/><path fill="#9e9e9e" d="M313.39697 48.482403C313.39697 47.37783 312.50153 46.482403 311.39697 46.482403C310.2924 46.482403 309.39697 47.37783 309.39697 48.482403C309.39697 49.58697 310.2924 50.482403 311.39697 50.482403C312.50153 50.482403 313.39697 49.58697 313.39697 48.482403" fill-rule="nonzero"/><path fill="#1a1a1a" d="M26.784374 98.03438L26.784374 96.9875Q26.003124 96.87813 25.503124 96.62813Q25.003124 96.37813 24.64375 95.81563Q24.284374 95.2375 24.221874 94.40938L25.284374 94.22188Q25.409374 95.06563 25.721874 95.45625Q26.175 96.01875 26.784374 96.09688L26.784374 92.7375Q26.14375 92.6125 25.45625 92.22188Q24.95625 91.94063 24.675 91.45625Q24.409374 90.95625 24.409374 90.31563Q24.409374 89.19063 25.20625 88.50313Q25.7375 88.03438 26.784374 87.925L26.784374 87.425L27.409374 87.425L27.409374 87.925Q28.33125 88.00313 28.8625 88.45625Q29.565624 89.03438 29.70625 90.03438L28.6125 90.20625Q28.51875 89.58125 28.221874 89.25313Q27.925 88.925 27.409374 88.81563L27.409374 91.84688Q28.20625 92.05 28.471874 92.15938Q28.95625 92.37813 29.26875 92.69063Q29.58125 93.00313 29.7375 93.44063Q29.909374 93.8625 29.909374 94.3625Q29.909374 95.45625 29.20625 96.19063Q28.51875 96.925 27.409374 96.97188L27.409374 98.03438L26.784374 98.03438ZM26.784374 88.8Q26.175 88.89375 25.815624 89.3Q25.471874 89.69063 25.471874 90.2375Q25.471874 90.76875 25.76875 91.14375Q26.065624 91.50313 26.784374 91.72188L26.784374 88.8ZM27.409374 96.09688Q28.01875 96.01875 28.425 95.56563Q28.83125 95.09688 28.83125 94.425Q28.83125 93.84688 28.534374 93.50313Q28.253124 93.15938 27.409374 92.87813L27.409374 96.09688ZM31.3 94.55L32.409374 94.45625Q32.534374 95.26875 32.971874 95.675Q33.425 96.08125 34.065624 96.08125Q34.815624 96.08125 35.346874 95.50313Q35.878124 94.925 35.878124 93.9875Q35.878124 93.08125 35.3625 92.56563Q34.8625 92.03438 34.034374 92.03438Q33.534374 92.03438 33.1125 92.26875Q32.70625 92.50313 32.471874 92.8625L31.4875 92.7375L32.315624 88.33125L36.596874 88.33125L36.596874 89.33125L33.159374 89.33125L32.70625 91.64375Q33.471874 91.09688 34.315624 91.09688Q35.440624 91.09688 36.20625 91.87813Q36.9875 92.65938 36.9875 93.89375Q36.9875 95.05 36.315624 95.90938Q35.4875 96.94063 34.065624 96.94063Q32.89375 96.94063 32.14375 96.28438Q31.409374 95.62813 31.3 94.55ZM38.3 92.56563Q38.3 91.03438 38.6125 90.1125Q38.925 89.175 39.534374 88.675Q40.159374 88.175 41.096874 88.175Q41.784374 88.175 42.3 88.45625Q42.83125 88.7375 43.175 89.26875Q43.51875 89.78438 43.70625 90.53438Q43.89375 91.28438 43.89375 92.56563Q43.89375 94.08125 43.58125 95.00313Q43.284374 95.925 42.659374 96.44063Q42.05 96.94063 41.096874 96.94063Q39.8625 96.94063 39.14375 96.05Q38.3 94.9875 38.3 92.56563ZM39.378124 92.56563Q39.378124 94.675 39.878124 95.37813Q40.378124 96.08125 41.096874 96.08125Q41.83125 96.08125 42.315624 95.37813Q42.815624 94.675 42.815624 92.56563Q42.815624 90.44063 42.315624 89.75313Q41.83125 89.05 41.08125 89.05Q40.3625 89.05 39.925 89.65938Q39.378124 90.44063 39.378124 92.56563ZM45.3 92.56563Q45.3 91.03438 45.6125 90.1125Q45.925 89.175 46.534374 88.675Q47.159374 88.175 48.096874 88.175Q48.784374 88.175 49.3 88.45625Q49.83125 88.7375 50.175 89.26875Q50.51875 89.78438 50.70625 90.53438Q50.89375 91.28438 50.89375 92.56563Q50.89375 94.08125 50.58125 95.00313Q50.284374 95.925 49.659374 96.44063Q49.05 96.94063 48.096874 96.94063Q46.8625 96.94063 46.14375 96.05Q45.3 94.9875 45.3 92.56563ZM46.378124 92.56563Q46.378124 94.675 46.878124 95.37813Q47.378124 96.08125 48.096874 96.08125Q48.83125 96.08125 49.315624 95.37813Q49.815624 94.675 49.815624 92.56563Q49.815624 90.44063 49.315624 89.75313Q48.83125 89.05 48.08125 89.05Q47.3625 89.05 46.925 89.65938Q46.378124 90.44063 46.378124 92.56563ZM52.3 92.56563Q52.3 91.03438 52.6125 90.1125Q52.925 89.175 53.534374 88.675Q54.159374 88.175 55.096874 88.175Q55.784374 88.175 56.3 88.45625Q56.83125 88.7375 57.175 89.26875Q57.51875 89.78438 57.70625 90.53438Q57.89375 91.28438 57.89375 92.56563Q57.89375 94.08125 57.58125 95.00313Q57.284374 95.925 56.659374 96.44063Q56.05 96.94063 55.096874 96.94063Q53.8625 96.94063 53.14375 96.05Q52.3 94.9875 52.3 92.56563ZM53.378124 92.56563Q53.378124 94.675 53.878124 95.37813Q54.378124 96.08125 55.096874 96.08125Q55.83125 96.08125 56.315624 95.37813Q56.815624 94.675 56.815624 92.56563Q56.815624 90.44063 56.315624 89.75313Q55.83125 89.05 55.08125 89.05Q54.3625 89.05 53.925 89.65938Q53.378124 90.44063 53.378124 92.56563ZM62.175 94.22188L62.175 93.15938L65.425 93.15938L65.425 94.22188L62.175 94.22188ZM71.78438 98.03438L71.78438 96.9875Q71.00313 96.87813 70.50313 96.62813Q70.00313 96.37813 69.64375 95.81563Q69.28438 95.2375 69.22188 94.40938L70.28438 94.22188Q70.40938 95.06563 70.72188 95.45625Q71.175 96.01875 71.78438 96.09688L71.78438 92.7375Q71.14375 92.6125 70.45625 92.22188Q69.95625 91.94063 69.675 91.45625Q69.40938 90.95625 69.40938 90.31563Q69.40938 89.19063 70.20625 88.50313Q70.7375 88.03438 71.78438 87.925L71.78438 87.425L72.40938 87.425L72.40938 87.925Q73.33125 88.00313 73.8625 88.45625Q74.56563 89.03438 74.70625 90.03438L73.6125 90.20625Q73.51875 89.58125 73.22188 89.25313Q72.925 88.925 72.40938 88.81563L72.40938 91.84688Q73.20625 92.05 73.47188 92.15938Q73.95625 92.37813 74.26875 92.69063Q74.58125 93.00313 74.7375 93.44063Q74.90938 93.8625 74.90938 94.3625Q74.90938 95.45625 74.20625 96.19063Q73.51875 96.925 72.40938 96.97188L72.40938 98.03438L71.78438 98.03438ZM71.78438 88.8Q71.175 88.89375 70.81563 89.3Q70.47188 89.69063 70.47188 90.2375Q70.47188 90.76875 70.76875 91.14375Q71.06563 91.50313 71.78438 91.72188L71.78438 88.8ZM72.40938 96.09688Q73.01875 96.01875 73.425 95.56563Q73.83125 95.09688 73.83125 94.425Q73.83125 93.84688 73.53438 93.50313Q73.25313 93.15938 72.40938 92.87813L72.40938 96.09688ZM80.26875 96.8L79.22188 96.8L79.22188 90.08125Q78.83125 90.44063 78.20625 90.81563Q77.59688 91.175 77.1125 91.34688L77.1125 90.33125Q77.9875 89.90938 78.64375 89.33125Q79.31563 88.7375 79.59688 88.175L80.26875 88.175L80.26875 96.8ZM83.3 92.56563Q83.3 91.03438 83.6125 90.1125Q83.925 89.175 84.53438 88.675Q85.15938 88.175 86.09688 88.175Q86.78438 88.175 87.3 88.45625Q87.83125 88.7375 88.175 89.26875Q88.51875 89.78438 88.70625 90.53438Q88.89375 91.28438 88.89375 92.56563Q88.89375 94.08125 88.58125 95.00313Q88.28438 95.925 87.65938 96.44063Q87.05 96.94063 86.09688 96.94063Q84.8625 96.94063 84.14375 96.05Q83.3 94.9875 83.3 92.56563ZM84.37813 92.56563Q84.37813 94.675 84.87813 95.37813Q85.37813 96.08125 86.09688 96.08125Q86.83125 96.08125 87.31563 95.37813Q87.81563 94.675 87.81563 92.56563Q87.81563 90.44063 87.31563 89.75313Q86.83125 89.05 86.08125 89.05Q85.3625 89.05 84.925 89.65938Q84.37813 90.44063 84.37813 92.56563ZM90.8625 96.8L90.8625 95.59688L92.06563 95.59688L92.06563 96.8Q92.06563 97.45625 91.83125 97.8625Q91.59688 98.28438 91.09688 98.50313L90.8 98.05Q91.12813 97.90938 91.28438 97.6125Q91.44063 97.33125 91.47188 96.8L90.8625 96.8ZM93.3 92.56563Q93.3 91.03438 93.6125 90.1125Q93.925 89.175 94.53438 88.675Q95.15938 88.175 96.09688 88.175Q96.78438 88.175 97.3 88.45625Q97.83125 88.7375 98.175 89.26875Q98.51875 89.78438 98.70625 90.53438Q98.89375 91.28438 98.89375 92.56563Q98.89375 94.08125 98.58125 95.00313Q98.28438 95.925 97.65938 96.44063Q97.05 96.94063 96.09688 96.94063Q94.8625 96.94063 94.14375 96.05Q93.3 94.9875 93.3 92.56563ZM94.37813 92.56563Q94.37813 94.675 94.87813 95.37813Q95.37813 96.08125 96.09688 96.08125Q96.83125 96.08125 97.31563 95.37813Q97.81563 94.675 97.81563 92.56563Q97.81563 90.44063 97.31563 89.75313Q96.83125 89.05 96.08125 89.05Q95.3625 89.05 94.925 89.65938Q94.37813 90.44063 94.37813 92.56563ZM100.3 92.56563Q100.3 91.03438 100.6125 90.1125Q100.925 89.175 101.53438 88.675Q102.15938 88.175 103.09688 88.175Q103.78438 88.175 104.3 88.45625Q104.83125 88.7375 105.175 89.26875Q105.51875 89.78438 105.70625 90.53438Q105.89375 91.28438 105.89375 92.56563Q105.89375 94.08125 105.58125 95.00313Q105.28438 95.925 104.65938 96.44063Q104.05 96.94063 103.09688 96.94063Q101.8625 96.94063 101.14375 96.05Q100.3 94.9875 100.3 92.56563ZM101.37813 92.56563Q101.37813 94.675 101.87813 95.37813Q102.37813 96.08125 103.09688 96.08125Q103.83125 96.08125 104.31563 95.37813Q104.81563 94.675 104.81563 92.56563Q104.81563 90.44063 104.31563 89.75313Q103.83125 89.05 103.08125 89.05Q102.3625 89.05 101.925 89.65938Q101.37813 90.44063 101.37813 92.56563ZM107.3 92.56563Q107.3 91.03438 107.6125 90.1125Q107.925 89.175 108.53438 88.675Q109.15938 88.175 110.09688 88.175Q110.78438 88.175 111.3 88.45625Q111.83125 88.7375 112.175 89.26875Q112.51875 89.78438 112.70625 90.53438Q112.89375 91.28438 112.89375 92.56563Q112.89375 94.08125 112.58125 95.00313Q112.28438 95.925 111.65938 96.44063Q111.05 96.94063 110.09688 96.94063Q108.8625 96.94063 108.14375 96.05Q107.3 94.9875 107.3 92.56563ZM108.37813 92.56563Q108.37813 94.675 108.87813 95.37813Q109.37813 96.08125 110.09688 96.08125Q110.83125 96.08125 111.31563 95.37813Q111.81563 94.675 111.81563 92.56563Q111.81563 90.44063 111.31563 89.75313Q110.83125 89.05 110.08125 89.05Q109.3625 89.05 108.925 89.65938Q108.37813 90.44063 108.37813 92.56563Z" fill-rule="nonzero"/><path fill="#9e9e9e" d="M25.925 109.14375Q25.26875 108.89375 24.940624 108.45625Q24.628124 108.00313 24.628124 107.39375Q24.628124 106.45625 25.3 105.81563Q25.9875 105.175 27.096874 105.175Q28.221874 105.175 28.909374 105.83125Q29.596874 106.4875 29.596874 107.425Q29.596874 108.01875 29.284374 108.45625Q28.971874 108.89375 28.33125 109.14375Q29.128124 109.39375 29.534374 109.97188Q29.940624 110.55 29.940624 111.34688Q29.940624 112.44063 29.159374 113.19063Q28.39375 113.94063 27.1125 113.94063Q25.846874 113.94063 25.065624 113.19063Q24.284374 112.44063 24.284374 111.31563Q24.284374 110.47188 24.70625 109.90938Q25.14375 109.34688 25.925 109.14375ZM25.70625 107.34688Q25.70625 107.95625 26.096874 108.34688Q26.503124 108.7375 27.128124 108.7375Q27.7375 108.7375 28.128124 108.3625Q28.51875 107.97188 28.51875 107.40938Q28.51875 106.83125 28.1125 106.44063Q27.70625 106.03438 27.1125 106.03438Q26.503124 106.03438 26.096874 106.425Q25.70625 106.81563 25.70625 107.34688ZM25.378124 111.31563Q25.378124 111.76875 25.58125 112.19063Q25.8 112.6125 26.221874 112.84688Q26.64375 113.08125 27.128124 113.08125Q27.878124 113.08125 28.3625 112.59688Q28.8625 112.1125 28.8625 111.3625Q28.8625 110.59688 28.3625 110.09688Q27.8625 109.59688 27.096874 109.59688Q26.346874 109.59688 25.8625 110.09688Q25.378124 110.58125 25.378124 111.31563ZM31.89375 113.8L31.89375 112.59688L33.096874 112.59688L33.096874 113.8L31.89375 113.8ZM34.3 111.55L35.409374 111.45625Q35.534374 112.26875 35.971874 112.675Q36.425 113.08125 37.065624 113.08125Q37.815624 113.08125 38.346874 112.50313Q38.878124 111.925 38.878124 110.9875Q38.878124 110.08125 38.3625 109.56563Q37.8625 109.03438 37.034374 109.03438Q36.534374 109.03438 36.1125 109.26875Q35.70625 109.50313 35.471874 109.8625L34.4875 109.7375L35.315624 105.33125L39.596874 105.33125L39.596874 106.33125L36.159374 106.33125L35.70625 108.64375Q36.471874 108.09688 37.315624 108.09688Q38.440624 108.09688 39.20625 108.87813Q39.9875 109.65938 39.9875 110.89375Q39.9875 112.05 39.315624 112.90938Q38.4875 113.94063 37.065624 113.94063Q35.89375 113.94063 35.14375 113.28438Q34.409374 112.62813 34.3 111.55ZM41.503124 107.26875Q41.503124 106.34688 41.95625 105.70625Q42.425 105.06563 43.3 105.06563Q44.1125 105.06563 44.64375 105.64375Q45.175 106.22188 45.175 107.33125Q45.175 108.425 44.628124 109.01875Q44.096874 109.59688 43.315624 109.59688Q42.534374 109.59688 42.01875 109.01875Q41.503124 108.44063 41.503124 107.26875ZM43.33125 105.78438Q42.940624 105.78438 42.675 106.12813Q42.425 106.47188 42.425 107.37813Q42.425 108.20625 42.675 108.55Q42.940624 108.87813 43.33125 108.87813Q43.7375 108.87813 43.9875 108.53438Q44.253124 108.19063 44.253124 107.3Q44.253124 106.45625 43.9875 106.12813Q43.721874 105.78438 43.33125 105.78438ZM43.33125 114.1125L48.034374 105.06563L48.89375 105.06563L44.20625 114.1125L43.33125 114.1125ZM47.05 111.78438Q47.05 110.8625 47.503124 110.22188Q47.971874 109.58125 48.8625 109.58125Q49.675 109.58125 50.20625 110.15938Q50.7375 110.72188 50.7375 111.84688Q50.7375 112.94063 50.190624 113.53438Q49.659374 114.1125 48.8625 114.1125Q48.096874 114.1125 47.565624 113.53438Q47.05 112.95625 47.05 111.78438ZM48.89375 110.3Q48.4875 110.3 48.221874 110.64375Q47.971874 110.9875 47.971874 111.89375Q47.971874 112.70625 48.2375 113.05Q48.503124 113.39375 48.89375 113.39375Q49.284374 113.39375 49.55 113.05Q49.815624 112.70625 49.815624 111.8Q49.815624 110.97188 49.55 110.64375Q49.284374 110.3 48.89375 110.3Z" fill-rule="nonzero"/><path stroke="#757575" stroke-width="1.0" stroke-linecap="butt" d="M23.8 101.3L165.3 101.3L239.70822 96.03896" fill-rule="nonzero"/><path fill="#9e9e9e" d="M241.70822 96.03896C241.70822 94.934395 240.81279 94.03896 239.70822 94.03896C238.60365 94.03896 237.70822 94.934395 237.70822 96.03896C237.70822 97.14353 238.60365 98.03896 239.70822 98.03896C240.81279 98.03896 241.70822 97.14353 241.70822 96.03896" fill-rule="nonzero"/><path fill="#1a1a1a" d="M26.784374 207.72606L26.784374 206.67918Q26.003124 206.56981 25.503124 206.31981Q25.003124 206.06981 24.64375 205.50731Q24.284374 204.92918 24.221874 204.10106L25.284374 203.91356Q25.409374 204.75731 25.721874 205.14793Q26.175 205.71043 26.784374 205.78856L26.784374 202.42918Q26.14375 202.30418 25.45625 201.91356Q24.95625 201.63231 24.675 201.14793Q24.409374 200.64793 24.409374 200.00731Q24.409374 198.88231 25.20625 198.19481Q25.7375 197.72606 26.784374 197.61668L26.784374 197.11668L27.409374 197.11668L27.409374 197.61668Q28.33125 197.69481 28.8625 198.14793Q29.565624 198.72606 29.70625 199.72606L28.6125 199.89793Q28.51875 199.27293 28.221874 198.94481Q27.925 198.61668 27.409374 198.50731L27.409374 201.53856Q28.20625 201.74168 28.471874 201.85106Q28.95625 202.06981 29.26875 202.38231Q29.58125 202.69481 29.7375 203.13231Q29.909374 203.55418 29.909374 204.05418Q29.909374 205.14793 29.20625 205.88231Q28.51875 206.61668 27.409374 206.66356L27.409374 207.72606L26.784374 207.72606ZM26.784374 198.49168Q26.175 198.58543 25.815624 198.99168Q25.471874 199.38231 25.471874 199.92918Q25.471874 200.46043 25.76875 200.83543Q26.065624 201.19481 26.784374 201.41356L26.784374 198.49168ZM27.409374 205.78856Q28.01875 205.71043 28.425 205.25731Q28.83125 204.78856 28.83125 204.11668Q28.83125 203.53856 28.534374 203.19481Q28.253124 202.85106 27.409374 202.56981L27.409374 205.78856ZM35.26875 206.49168L34.221874 206.49168L34.221874 199.77293Q33.83125 200.13231 33.20625 200.50731Q32.596874 200.86668 32.1125 201.03856L32.1125 200.02293Q32.9875 199.60106 33.64375 199.02293Q34.315624 198.42918 34.596874 197.86668L35.26875 197.86668L35.26875 206.49168ZM38.3 202.25731Q38.3 200.72606 38.6125 199.80418Q38.925 198.86668 39.534374 198.36668Q40.159374 197.86668 41.096874 197.86668Q41.784374 197.86668 42.3 198.14793Q42.83125 198.42918 43.175 198.96043Q43.51875 199.47606 43.70625 200.22606Q43.89375 200.97606 43.89375 202.25731Q43.89375 203.77293 43.58125 204.69481Q43.284374 205.61668 42.659374 206.13231Q42.05 206.63231 41.096874 206.63231Q39.8625 206.63231 39.14375 205.74168Q38.3 204.67918 38.3 202.25731ZM39.378124 202.25731Q39.378124 204.36668 39.878124 205.06981Q40.378124 205.77293 41.096874 205.77293Q41.83125 205.77293 42.315624 205.06981Q42.815624 204.36668 42.815624 202.25731Q42.815624 200.13231 42.315624 199.44481Q41.83125 198.74168 41.08125 198.74168Q40.3625 198.74168 39.925 199.35106Q39.378124 200.13231 39.378124 202.25731ZM45.3 202.25731Q45.3 200.72606 45.6125 199.80418Q45.925 198.86668 46.534374 198.36668Q47.159374 197.86668 48.096874 197.86668Q48.784374 197.86668 49.3 198.14793Q49.83125 198.42918 50.175 198.96043Q50.51875 199.47606 50.70625 200.22606Q50.89375 200.97606 50.89375 202.25731Q50.89375 203.77293 50.58125 204.69481Q50.284374 205.61668 49.659374 206.13231Q49.05 206.63231 48.096874 206.63231Q46.8625 206.63231 46.14375 205.74168Q45.3 204.67918 45.3 202.25731ZM46.378124 202.25731Q46.378124 204.36668 46.878124 205.06981Q47.378124 205.77293 48.096874 205.77293Q48.83125 205.77293 49.315624 205.06981Q49.815624 204.36668 49.815624 202.25731Q49.815624 200.13231 49.315624 199.44481Q48.83125 198.74168 48.08125 198.74168Q47.3625 198.74168 46.925 199.35106Q46.378124 200.13231 46.378124 202.25731ZM52.3 202.25731Q52.3 200.72606 52.6125 199.80418Q52.925 198.86668 53.534374 198.36668Q54.159374 197.86668 55.096874 197.86668Q55.784374 197.86668 56.3 198.14793Q56.83125 198.42918 57.175 198.96043Q57.51875 199.47606 57.70625 200.22606Q57.89375 200.97606 57.89375 202.25731Q57.89375 203.77293 57.58125 204.69481Q57.284374 205.61668 56.659374 206.13231Q56.05 206.63231 55.096874 206.63231Q53.8625 206.63231 53.14375 205.74168Q52.3 204.67918 52.3 202.25731ZM53.378124 202.25731Q53.378124 204.36668 53.878124 205.06981Q54.378124 205.77293 55.096874 205.77293Q55.83125 205.77293 56.315624 205.06981Q56.815624 204.36668 56.815624 202.25731Q56.815624 200.13231 56.315624 199.44481Q55.83125 198.74168 55.08125 198.74168Q54.3625 198.74168 53.925 199.35106Q53.378124 200.13231 53.378124 202.25731ZM62.175 203.91356L62.175 202.85106L65.425 202.85106L65.425 203.91356L62.175 203.91356ZM71.78438 207.72606L71.78438 206.67918Q71.00313 206.56981 70.50313 206.31981Q70.00313 206.06981 69.64375 205.50731Q69.28438 204.92918 69.22188 204.10106L70.28438 203.91356Q70.40938 204.75731 70.72188 205.14793Q71.175 205.71043 71.78438 205.78856L71.78438 202.42918Q71.14375 202.30418 70.45625 201.91356Q69.95625 201.63231 69.675 201.14793Q69.40938 200.64793 69.40938 200.00731Q69.40938 198.88231 70.20625 198.19481Q70.7375 197.72606 71.78438 197.61668L71.78438 197.11668L72.40938 197.11668L72.40938 197.61668Q73.33125 197.69481 73.8625 198.14793Q74.56563 198.72606 74.70625 199.72606L73.6125 199.89793Q73.51875 199.27293 73.22188 198.94481Q72.925 198.61668 72.40938 198.50731L72.40938 201.53856Q73.20625 201.74168 73.47188 201.85106Q73.95625 202.06981 74.26875 202.38231Q74.58125 202.69481 74.7375 203.13231Q74.90938 203.55418 74.90938 204.05418Q74.90938 205.14793 74.20625 205.88231Q73.51875 206.61668 72.40938 206.66356L72.40938 207.72606L71.78438 207.72606ZM71.78438 198.49168Q71.175 198.58543 70.81563 198.99168Q70.47188 199.38231 70.47188 199.92918Q70.47188 200.46043 70.76875 200.83543Q71.06563 201.19481 71.78438 201.41356L71.78438 198.49168ZM72.40938 205.78856Q73.01875 205.71043 73.425 205.25731Q73.83125 204.78856 73.83125 204.11668Q73.83125 203.53856 73.53438 203.19481Q73.25313 202.85106 72.40938 202.56981L72.40938 205.78856ZM76.3 204.24168L77.40938 204.14793Q77.53438 204.96043 77.97188 205.36668Q78.425 205.77293 79.06563 205.77293Q79.81563 205.77293 80.34688 205.19481Q80.87813 204.61668 80.87813 203.67918Q80.87813 202.77293 80.3625 202.25731Q79.8625 201.72606 79.03438 201.72606Q78.53438 201.72606 78.1125 201.96043Q77.70625 202.19481 77.47188 202.55418L76.4875 202.42918L77.31563 198.02293L81.59688 198.02293L81.59688 199.02293L78.15938 199.02293L77.70625 201.33543Q78.47188 200.78856 79.31563 200.78856Q80.44063 200.78856 81.20625 201.56981Q81.9875 202.35106 81.9875 203.58543Q81.9875 204.74168 81.31563 205.60106Q80.4875 206.63231 79.06563 206.63231Q77.89375 206.63231 77.14375 205.97606Q76.40938 205.31981 76.3 204.24168ZM83.3 202.25731Q83.3 200.72606 83.6125 199.80418Q83.925 198.86668 84.53438 198.36668Q85.15938 197.86668 86.09688 197.86668Q86.78438 197.86668 87.3 198.14793Q87.83125 198.42918 88.175 198.96043Q88.51875 199.47606 88.70625 200.22606Q88.89375 200.97606 88.89375 202.25731Q88.89375 203.77293 88.58125 204.69481Q88.28438 205.61668 87.65938 206.13231Q87.05 206.63231 86.09688 206.63231Q84.8625 206.63231 84.14375 205.74168Q83.3 204.67918 83.3 202.25731ZM84.37813 202.25731Q84.37813 204.36668 84.87813 205.06981Q85.37813 205.77293 86.09688 205.77293Q86.83125 205.77293 87.31563 205.06981Q87.81563 204.36668 87.81563 202.25731Q87.81563 200.13231 87.31563 199.44481Q86.83125 198.74168 86.08125 198.74168Q85.3625 198.74168 84.925 199.35106Q84.37813 200.13231 84.37813 202.25731ZM90.3 202.25731Q90.3 200.72606 90.6125 199.80418Q90.925 198.86668 91.53438 198.36668Q92.15938 197.86668 93.09688 197.86668Q93.78438 197.86668 94.3 198.14793Q94.83125 198.42918 95.175 198.96043Q95.51875 199.47606 95.70625 200.22606Q95.89375 200.97606 95.89375 202.25731Q95.89375 203.77293 95.58125 204.69481Q95.28438 205.61668 94.65938 206.13231Q94.05 206.63231 93.09688 206.63231Q91.8625 206.63231 91.14375 205.74168Q90.3 204.67918 90.3 202.25731ZM91.37813 202.25731Q91.37813 204.36668 91.87813 205.06981Q92.37813 205.77293 93.09688 205.77293Q93.83125 205.77293 94.31563 205.06981Q94.81563 204.36668 94.81563 202.25731Q94.81563 200.13231 94.31563 199.44481Q93.83125 198.74168 93.08125 198.74168Q92.3625 198.74168 91.925 199.35106Q91.37813 200.13231 91.37813 202.25731ZM97.3 202.25731Q97.3 200.72606 97.6125 199.80418Q97.925 198.86668 98.53438 198.36668Q99.15938 197.86668 100.09688 197.86668Q100.78438 197.86668 101.3 198.14793Q101.83125 198.42918 102.175 198.96043Q102.51875 199.47606 102.70625 200.22606Q102.89375 200.97606 102.89375 202.25731Q102.89375 203.77293 102.58125 204.69481Q102.28438 205.61668 101.65938 206.13231Q101.05 206.63231 100.09688 206.63231Q98.8625 206.63231 98.14375 205.74168Q97.3 204.67918 97.3 202.25731ZM98.37813 202.25731Q98.37813 204.36668 98.87813 205.06981Q99.37813 205.77293 100.09688 205.77293Q100.83125 205.77293 101.31563 205.06981Q101.81563 204.36668 101.81563 202.25731Q101.81563 200.13231 101.31563 199.44481Q100.83125 198.74168 100.08125 198.74168Q99.3625 198.74168 98.925 199.35106Q98.37813 200.13231 98.37813 202.25731Z" fill-rule="nonzero"/><path fill="#9e9e9e" d="M28.26875 223.49168L27.221874 223.49168L27.221874 216.77293Q26.83125 217.13231 26.20625 217.50731Q25.596874 217.86668 25.1125 218.03856L25.1125 217.02293Q25.9875 216.60106 26.64375 216.02293Q27.315624 215.42918 27.596874 214.86668L28.26875 214.86668L28.26875 223.49168ZM35.26875 223.49168L34.221874 223.49168L34.221874 216.77293Q33.83125 217.13231 33.20625 217.50731Q32.596874 217.86668 32.1125 218.03856L32.1125 217.02293Q32.9875 216.60106 33.64375 216.02293Q34.315624 215.42918 34.596874 214.86668L35.26875 214.86668L35.26875 223.49168ZM38.89375 223.49168L38.89375 222.28856L40.096874 222.28856L40.096874 223.49168L38.89375 223.49168ZM41.45625 221.50731L42.471874 221.41356Q42.596874 222.13231 42.95625 222.46043Q43.33125 222.77293 43.89375 222.77293Q44.378124 222.77293 44.7375 222.55418Q45.1125 222.31981 45.346874 221.96043Q45.58125 221.58543 45.7375 220.96043Q45.89375 220.31981 45.89375 219.66356Q45.89375 219.58543 45.89375 219.44481Q45.58125 219.94481 45.034374 220.27293Q44.4875 220.58543 43.846874 220.58543Q42.76875 220.58543 42.034374 219.81981Q41.3 219.03856 41.3 217.77293Q41.3 216.46043 42.065624 215.66356Q42.846874 214.86668 44.003124 214.86668Q44.83125 214.86668 45.51875 215.31981Q46.221874 215.77293 46.58125 216.61668Q46.940624 217.44481 46.940624 219.02293Q46.940624 220.66356 46.58125 221.64793Q46.2375 222.61668 45.51875 223.13231Q44.815624 223.63231 43.878124 223.63231Q42.8625 223.63231 42.221874 223.08543Q41.58125 222.52293 41.45625 221.50731ZM45.76875 217.71043Q45.76875 216.80418 45.284374 216.27293Q44.815624 215.74168 44.128124 215.74168Q43.425 215.74168 42.89375 216.31981Q42.378124 216.88231 42.378124 217.80418Q42.378124 218.61668 42.878124 219.13231Q43.378124 219.64793 44.096874 219.64793Q44.83125 219.64793 45.3 219.13231Q45.76875 218.61668 45.76875 217.71043ZM48.503124 216.96043Q48.503124 216.03856 48.95625 215.39793Q49.425 214.75731 50.3 214.75731Q51.1125 214.75731 51.64375 215.33543Q52.175 215.91356 52.175 217.02293Q52.175 218.11668 51.628124 218.71043Q51.096874 219.28856 50.315624 219.28856Q49.534374 219.28856 49.01875 218.71043Q48.503124 218.13231 48.503124 216.96043ZM50.33125 215.47606Q49.940624 215.47606 49.675 215.81981Q49.425 216.16356 49.425 217.06981Q49.425 217.89793 49.675 218.24168Q49.940624 218.56981 50.33125 218.56981Q50.7375 218.56981 50.9875 218.22606Q51.253124 217.88231 51.253124 216.99168Q51.253124 216.14793 50.9875 215.81981Q50.721874 215.47606 50.33125 215.47606ZM50.33125 223.80418L55.034374 214.75731L55.89375 214.75731L51.20625 223.80418L50.33125 223.80418ZM54.05 221.47606Q54.05 220.55418 54.503124 219.91356Q54.971874 219.27293 55.8625 219.27293Q56.675 219.27293 57.20625 219.85106Q57.7375 220.41356 57.7375 221.53856Q57.7375 222.63231 57.190624 223.22606Q56.659374 223.80418 55.8625 223.80418Q55.096874 223.80418 54.565624 223.22606Q54.05 222.64793 54.05 221.47606ZM55.89375 219.99168Q55.4875 219.99168 55.221874 220.33543Q54.971874 220.67918 54.971874 221.58543Q54.971874 222.39793 55.2375 222.74168Q55.503124 223.08543 55.89375 223.08543Q56.284374 223.08543 56.55 222.74168Q56.815624 222.39793 56.815624 221.49168Q56.815624 220.66356 56.55 220.33543Q56.284374 219.99168 55.89375 219.99168Z" fill-rule="nonzero"/><path stroke="#757575" stroke-width="1.0" stroke-linecap="butt" d="M23.8 210.99168L165.3 210.99168L183.81032 210.99168" fill-rule="nonzero"/><path fill="#9e9e9e" d="M185.81032 210.99168C185.81032 209.88712 184.91489 208.99168 183.81032 208.99168C182.70573 208.99168 181.81032 209.88712 181.81032 210.99168C181.81032 212.09625 182.70573 212.99168 183.81032 212.99168C184.91489 212.99168 185.81032 212.09625 185.81032 210.99168" fill-rule="nonzero"/><path fill="#1a1a1a" d="M677.1844 71.39059L677.1844 70.34371Q676.40314 70.23434 675.90314 69.98434Q675.40314 69.73434 675.04376 69.17184Q674.6844 68.59371 674.6219 67.76559L675.6844 67.57809Q675.8094 68.42184 676.1219 68.81246Q676.575 69.37496 677.1844 69.45309L677.1844 66.09371Q676.54376 65.96871 675.85626 65.57809Q675.35626 65.29684 675.075 64.81246Q674.8094 64.31246 674.8094 63.671837Q674.8094 62.546837 675.60626 61.859337Q676.1375 61.390587 677.1844 61.28121L677.1844 60.78121L677.8094 60.78121L677.8094 61.28121Q678.73126 61.359337 679.2625 61.81246Q679.96564 62.390587 680.10626 63.390587L679.0125 63.56246Q678.91876 62.93746 678.6219 62.609337Q678.325 62.28121 677.8094 62.171837L677.8094 65.20309Q678.60626 65.40621 678.8719 65.51559Q679.35626 65.73434 679.66876 66.04684Q679.98126 66.35934 680.1375 66.79684Q680.3094 67.21871 680.3094 67.71871Q680.3094 68.81246 679.60626 69.54684Q678.91876 70.28121 677.8094 70.32809L677.8094 71.39059L677.1844 71.39059ZM677.1844 62.15621Q676.575 62.24996 676.21564 62.65621Q675.8719 63.046837 675.8719 63.59371Q675.8719 64.12496 676.16876 64.49996Q676.46564 64.85934 677.1844 65.07809L677.1844 62.15621ZM677.8094 69.45309Q678.41876 69.37496 678.825 68.92184Q679.23126 68.45309 679.23126 67.78121Q679.23126 67.20309 678.9344 66.85934Q678.65314 66.51559 677.8094 66.23434L677.8094 69.45309ZM685.66876 70.15621L684.6219 70.15621L684.6219 63.43746Q684.23126 63.796837 683.60626 64.17184Q682.9969 64.53121 682.5125 64.70309L682.5125 63.68746Q683.3875 63.265587 684.04376 62.68746Q684.71564 62.09371 684.9969 61.53121L685.66876 61.53121L685.66876 70.15621ZM688.7 65.92184Q688.7 64.39059 689.0125 63.46871Q689.325 62.53121 689.9344 62.03121Q690.5594 61.53121 691.4969 61.53121Q692.1844 61.53121 692.7 61.81246Q693.23126 62.09371 693.575 62.62496Q693.91876 63.140587 694.10626 63.890587Q694.29376 64.64059 694.29376 65.92184Q694.29376 67.43746 693.98126 68.35934Q693.6844 69.28121 693.0594 69.79684Q692.45 70.29684 691.4969 70.29684Q690.2625 70.29684 689.54376 69.40621Q688.7 68.34371 688.7 65.92184ZM689.77814 65.92184Q689.77814 68.03121 690.27814 68.73434Q690.77814 69.43746 691.4969 69.43746Q692.23126 69.43746 692.71564 68.73434Q693.21564 68.03121 693.21564 65.92184Q693.21564 63.796837 692.71564 63.109337Q692.23126 62.40621 691.48126 62.40621Q690.7625 62.40621 690.325 63.015587Q689.77814 63.796837 689.77814 65.92184ZM695.7 65.92184Q695.7 64.39059 696.0125 63.46871Q696.325 62.53121 696.9344 62.03121Q697.5594 61.53121 698.4969 61.53121Q699.1844 61.53121 699.7 61.81246Q700.23126 62.09371 700.575 62.62496Q700.91876 63.140587 701.10626 63.890587Q701.29376 64.64059 701.29376 65.92184Q701.29376 67.43746 700.98126 68.35934Q700.6844 69.28121 700.0594 69.79684Q699.45 70.29684 698.4969 70.29684Q697.2625 70.29684 696.54376 69.40621Q695.7 68.34371 695.7 65.92184ZM696.77814 65.92184Q696.77814 68.03121 697.27814 68.73434Q697.77814 69.43746 698.4969 69.43746Q699.23126 69.43746 699.71564 68.73434Q700.21564 68.03121 700.21564 65.92184Q700.21564 63.796837 699.71564 63.109337Q699.23126 62.40621 698.48126 62.40621Q697.7625 62.40621 697.325 63.015587Q696.77814 63.796837 696.77814 65.92184ZM705.575 67.57809L705.575 66.51559L708.825 66.51559L708.825 67.57809L705.575 67.57809ZM715.1844 71.39059L715.1844 70.34371Q714.40314 70.23434 713.90314 69.98434Q713.40314 69.73434 713.04376 69.17184Q712.6844 68.59371 712.6219 67.76559L713.6844 67.57809Q713.8094 68.42184 714.1219 68.81246Q714.575 69.37496 715.1844 69.45309L715.1844 66.09371Q714.54376 65.96871 713.85626 65.57809Q713.35626 65.29684 713.075 64.81246Q712.8094 64.31246 712.8094 63.671837Q712.8094 62.546837 713.60626 61.859337Q714.1375 61.390587 715.1844 61.28121L715.1844 60.78121L715.8094 60.78121L715.8094 61.28121Q716.73126 61.359337 717.2625 61.81246Q717.96564 62.390587 718.10626 63.390587L717.0125 63.56246Q716.91876 62.93746 716.6219 62.609337Q716.325 62.28121 715.8094 62.171837L715.8094 65.20309Q716.60626 65.40621 716.8719 65.51559Q717.35626 65.73434 717.66876 66.04684Q717.98126 66.35934 718.1375 66.79684Q718.3094 67.21871 718.3094 67.71871Q718.3094 68.81246 717.60626 69.54684Q716.91876 70.28121 715.8094 70.32809L715.8094 71.39059L715.1844 71.39059ZM715.1844 62.15621Q714.575 62.24996 714.21564 62.65621Q713.8719 63.046837 713.8719 63.59371Q713.8719 64.12496 714.16876 64.49996Q714.46564 64.85934 715.1844 65.07809L715.1844 62.15621ZM715.8094 69.45309Q716.41876 69.37496 716.825 68.92184Q717.23126 68.45309 717.23126 67.78121Q717.23126 67.20309 716.9344 66.85934Q716.65314 66.51559 715.8094 66.23434L715.8094 69.45309ZM723.66876 70.15621L722.6219 70.15621L722.6219 63.43746Q722.23126 63.796837 721.60626 64.17184Q720.9969 64.53121 720.5125 64.70309L720.5125 63.68746Q721.3875 63.265587 722.04376 62.68746Q722.71564 62.09371 722.9969 61.53121L723.66876 61.53121L723.66876 70.15621ZM726.7 65.92184Q726.7 64.39059 727.0125 63.46871Q727.325 62.53121 727.9344 62.03121Q728.5594 61.53121 729.4969 61.53121Q730.1844 61.53121 730.7 61.81246Q731.23126 62.09371 731.575 62.62496Q731.91876 63.140587 732.10626 63.890587Q732.29376 64.64059 732.29376 65.92184Q732.29376 67.43746 731.98126 68.35934Q731.6844 69.28121 731.0594 69.79684Q730.45 70.29684 729.4969 70.29684Q728.2625 70.29684 727.54376 69.40621Q726.7 68.34371 726.7 65.92184ZM727.77814 65.92184Q727.77814 68.03121 728.27814 68.73434Q728.77814 69.43746 729.4969 69.43746Q730.23126 69.43746 730.71564 68.73434Q731.21564 68.03121 731.21564 65.92184Q731.21564 63.796837 730.71564 63.109337Q730.23126 62.40621 729.48126 62.40621Q728.7625 62.40621 728.325 63.015587Q727.77814 63.796837 727.77814 65.92184ZM733.7 65.92184Q733.7 64.39059 734.0125 63.46871Q734.325 62.53121 734.9344 62.03121Q735.5594 61.53121 736.4969 61.53121Q737.1844 61.53121 737.7 61.81246Q738.23126 62.09371 738.575 62.62496Q738.91876 63.140587 739.10626 63.890587Q739.29376 64.64059 739.29376 65.92184Q739.29376 67.43746 738.98126 68.35934Q738.6844 69.28121 738.0594 69.79684Q737.45 70.29684 736.4969 70.29684Q735.2625 70.29684 734.54376 69.40621Q733.7 68.34371 733.7 65.92184ZM734.77814 65.92184Q734.77814 68.03121 735.27814 68.73434Q735.77814 69.43746 736.4969 69.43746Q737.23126 69.43746 737.71564 68.73434Q738.21564 68.03121 738.21564 65.92184Q738.21564 63.796837 737.71564 63.109337Q737.23126 62.40621 736.48126 62.40621Q735.7625 62.40621 735.325 63.015587Q734.77814 63.796837 734.77814 65.92184ZM740.7 65.92184Q740.7 64.39059 741.0125 63.46871Q741.325 62.53121 741.9344 62.03121Q742.5594 61.53121 743.4969 61.53121Q744.1844 61.53121 744.7 61.81246Q745.23126 62.09371 745.575 62.62496Q745.91876 63.140587 746.10626 63.890587Q746.29376 64.64059 746.29376 65.92184Q746.29376 67.43746 745.98126 68.35934Q745.6844 69.28121 745.0594 69.79684Q744.45 70.29684 743.4969 70.29684Q742.2625 70.29684 741.54376 69.40621Q740.7 68.34371 740.7 65.92184ZM741.77814 65.92184Q741.77814 68.03121 742.27814 68.73434Q742.77814 69.43746 743.4969 69.43746Q744.23126 69.43746 744.71564 68.73434Q745.21564 68.03121 745.21564 65.92184Q745.21564 63.796837 744.71564 63.109337Q744.23126 62.40621 743.48126 62.40621Q742.7625 62.40621 742.325 63.015587Q741.77814 63.796837 741.77814 65.92184Z" fill-rule="nonzero"/><path fill="#9e9e9e" d="M718.2469 86.14059L718.2469 87.15621L712.5594 87.15621Q712.5594 86.78121 712.6844 86.42184Q712.90314 85.84371 713.3719 85.28121Q713.85626 84.71871 714.7625 83.98434Q716.16876 82.82809 716.65314 82.15621Q717.15314 81.48434 717.15314 80.89059Q717.15314 80.26559 716.7 79.84371Q716.2469 79.40621 715.52814 79.40621Q714.7625 79.40621 714.3094 79.85934Q713.85626 80.31246 713.84064 81.12496L712.7625 81.01559Q712.8719 79.79684 713.59064 79.17184Q714.325 78.53121 715.5594 78.53121Q716.79376 78.53121 717.5125 79.21871Q718.23126 79.90621 718.23126 80.92184Q718.23126 81.43746 718.0125 81.93746Q717.8094 82.42184 717.3094 82.98434Q716.825 83.53121 715.7 84.48434Q714.7469 85.28121 714.46564 85.57809Q714.2 85.85934 714.02814 86.14059L718.2469 86.14059ZM719.7 82.92184Q719.7 81.39059 720.0125 80.46871Q720.325 79.53121 720.9344 79.03121Q721.5594 78.53121 722.4969 78.53121Q723.1844 78.53121 723.7 78.81246Q724.23126 79.09371 724.575 79.62496Q724.91876 80.14059 725.10626 80.89059Q725.29376 81.64059 725.29376 82.92184Q725.29376 84.43746 724.98126 85.35934Q724.6844 86.28121 724.0594 86.79684Q723.45 87.29684 722.4969 87.29684Q721.2625 87.29684 720.54376 86.40621Q719.7 85.34371 719.7 82.92184ZM720.77814 82.92184Q720.77814 85.03121 721.27814 85.73434Q721.77814 86.43746 722.4969 86.43746Q723.23126 86.43746 723.71564 85.73434Q724.21564 85.03121 724.21564 82.92184Q724.21564 80.79684 723.71564 80.10934Q723.23126 79.40621 722.48126 79.40621Q721.7625 79.40621 721.325 80.01559Q720.77814 80.79684 720.77814 82.92184ZM727.29376 87.15621L727.29376 85.95309L728.4969 85.95309L728.4969 87.15621L727.29376 87.15621ZM729.7 84.89059L730.7625 84.74996Q730.9344 85.64059 731.3719 86.04684Q731.8094 86.43746 732.4344 86.43746Q733.1844 86.43746 733.7 85.92184Q734.21564 85.40621 734.21564 84.64059Q734.21564 83.92184 733.73126 83.45309Q733.2625 82.96871 732.52814 82.96871Q732.23126 82.96871 731.77814 83.09371L731.90314 82.15621Q732.0125 82.17184 732.075 82.17184Q732.7469 82.17184 733.27814 81.82809Q733.825 81.46871 733.825 80.73434Q733.825 80.15621 733.4344 79.78121Q733.04376 79.39059 732.41876 79.39059Q731.8094 79.39059 731.3875 79.78121Q730.98126 80.17184 730.8719 80.93746L729.8094 80.74996Q729.9969 79.70309 730.6844 79.12496Q731.3719 78.53121 732.3875 78.53121Q733.09064 78.53121 733.6844 78.84371Q734.27814 79.14059 734.59064 79.65621Q734.90314 80.17184 734.90314 80.76559Q734.90314 81.31246 734.60626 81.78121Q734.3094 82.23434 733.73126 82.49996Q734.48126 82.67184 734.90314 83.23434Q735.325 83.78121 735.325 84.62496Q735.325 85.74996 734.4969 86.53121Q733.6844 87.31246 732.4344 87.31246Q731.3094 87.31246 730.5594 86.64059Q729.8094 85.95309 729.7 84.89059ZM736.90314 80.62496Q736.90314 79.70309 737.35626 79.06246Q737.825 78.42184 738.7 78.42184Q739.5125 78.42184 740.04376 78.99996Q740.575 79.57809 740.575 80.68746Q740.575 81.78121 740.02814 82.37496Q739.4969 82.95309 738.71564 82.95309Q737.9344 82.95309 737.41876 82.37496Q736.90314 81.79684 736.90314 80.62496ZM738.73126 79.14059Q738.34064 79.14059 738.075 79.48434Q737.825 79.82809 737.825 80.73434Q737.825 81.56246 738.075 81.90621Q738.34064 82.23434 738.73126 82.23434Q739.1375 82.23434 739.3875 81.89059Q739.65314 81.54684 739.65314 80.65621Q739.65314 79.81246 739.3875 79.48434Q739.1219 79.14059 738.73126 79.14059ZM738.73126 87.46871L743.4344 78.42184L744.29376 78.42184L739.60626 87.46871L738.73126 87.46871ZM742.45 85.14059Q742.45 84.21871 742.90314 83.57809Q743.3719 82.93746 744.2625 82.93746Q745.075 82.93746 745.60626 83.51559Q746.1375 84.07809 746.1375 85.20309Q746.1375 86.29684 745.59064 86.89059Q745.0594 87.46871 744.2625 87.46871Q743.4969 87.46871 742.96564 86.89059Q742.45 86.31246 742.45 85.14059ZM744.29376 83.65621Q743.8875 83.65621 743.6219 83.99996Q743.3719 84.34371 743.3719 85.24996Q743.3719 86.06246 743.6375 86.40621Q743.90314 86.74996 744.29376 86.74996Q744.6844 86.74996 744.95 86.40621Q745.21564 86.06246 745.21564 85.15621Q745.21564 84.32809 744.95 83.99996Q744.6844 83.65621 744.29376 83.65621Z" fill-rule="nonzero"/><path stroke="#757575" stroke-width="1.0" stroke-linecap="butt" d="M747.2 74.65621L605.7 74.65621L506.8548 74.65621" fill-rule="nonzero"/><path fill="#9e9e9e" d="M508.8548 74.65621C508.8548 73.551636 507.95935 72.65621 506.8548 72.65621C505.7502 72.65621 504.8548 73.551636 504.8548 74.65621C504.8548 75.76078 505.7502 76.65621 506.8548 76.65621C507.95935 76.65621 508.8548 75.76078 508.8548 74.65621" fill-rule="nonzero"/><path fill="#1a1a1a" d="M662.075 429.82062L662.075 421.22687L663.21564 421.22687L663.21564 428.805L667.45 428.805L667.45 429.82062L662.075 429.82062ZM673.2469 427.82062L674.34064 427.94562Q674.09064 428.89874 673.3875 429.43Q672.6844 429.96124 671.60626 429.96124Q670.2469 429.96124 669.4344 429.1175Q668.6375 428.27374 668.6375 426.75812Q668.6375 425.19562 669.45 424.33624Q670.2625 423.46124 671.54376 423.46124Q672.79376 423.46124 673.575 424.305Q674.3719 425.14874 674.3719 426.69562Q674.3719 426.78937 674.3719 426.97687L669.73126 426.97687Q669.79376 428.00812 670.3094 428.555Q670.825 429.08624 671.60626 429.08624Q672.1844 429.08624 672.59064 428.78937Q673.0125 428.47687 673.2469 427.82062ZM669.79376 426.1175L673.2625 426.1175Q673.2 425.32062 672.8719 424.93Q672.35626 424.32062 671.5594 424.32062Q670.825 424.32062 670.325 424.805Q669.84064 425.28937 669.79376 426.1175ZM675.575 427.96124L676.60626 427.805Q676.7 428.43 677.09064 428.75812Q677.4969 429.08624 678.23126 429.08624Q678.95 429.08624 679.29376 428.805Q679.65314 428.50812 679.65314 428.10187Q679.65314 427.7425 679.34064 427.53937Q679.1219 427.39874 678.2625 427.18Q677.10626 426.88312 676.65314 426.68Q676.21564 426.46124 675.98126 426.08624Q675.7469 425.71124 675.7469 425.2425Q675.7469 424.83624 675.9344 424.47687Q676.1219 424.1175 676.45 423.88312Q676.7 423.71124 677.1219 423.58624Q677.54376 423.46124 678.04376 423.46124Q678.7625 423.46124 679.3094 423.68Q679.8719 423.88312 680.1375 424.2425Q680.40314 424.60187 680.4969 425.19562L679.46564 425.33624Q679.40314 424.8675 679.0594 424.60187Q678.73126 424.32062 678.10626 424.32062Q677.3875 424.32062 677.075 424.57062Q676.7625 424.805 676.7625 425.13312Q676.7625 425.33624 676.8875 425.4925Q677.02814 425.66437 677.29376 425.77374Q677.45 425.83624 678.23126 426.03937Q679.35626 426.35187 679.79376 426.53937Q680.23126 426.72687 680.48126 427.08624Q680.73126 427.44562 680.73126 427.9925Q680.73126 428.52374 680.41876 428.9925Q680.1219 429.44562 679.54376 429.71124Q678.96564 429.96124 678.23126 429.96124Q677.0125 429.96124 676.3719 429.46124Q675.7469 428.94562 675.575 427.96124ZM682.575 427.96124L683.60626 427.805Q683.7 428.43 684.09064 428.75812Q684.4969 429.08624 685.23126 429.08624Q685.95 429.08624 686.29376 428.805Q686.65314 428.50812 686.65314 428.10187Q686.65314 427.7425 686.34064 427.53937Q686.1219 427.39874 685.2625 427.18Q684.10626 426.88312 683.65314 426.68Q683.21564 426.46124 682.98126 426.08624Q682.7469 425.71124 682.7469 425.2425Q682.7469 424.83624 682.9344 424.47687Q683.1219 424.1175 683.45 423.88312Q683.7 423.71124 684.1219 423.58624Q684.54376 423.46124 685.04376 423.46124Q685.7625 423.46124 686.3094 423.68Q686.8719 423.88312 687.1375 424.2425Q687.40314 424.60187 687.4969 425.19562L686.46564 425.33624Q686.40314 424.8675 686.0594 424.60187Q685.73126 424.32062 685.10626 424.32062Q684.3875 424.32062 684.075 424.57062Q683.7625 424.805 683.7625 425.13312Q683.7625 425.33624 683.8875 425.4925Q684.02814 425.66437 684.29376 425.77374Q684.45 425.83624 685.23126 426.03937Q686.35626 426.35187 686.79376 426.53937Q687.23126 426.72687 687.48126 427.08624Q687.73126 427.44562 687.73126 427.9925Q687.73126 428.52374 687.41876 428.9925Q687.1219 429.44562 686.54376 429.71124Q685.96564 429.96124 685.23126 429.96124Q684.0125 429.96124 683.3719 429.46124Q682.7469 428.94562 682.575 427.96124ZM695.29376 428.88312L695.45 429.805Q694.9969 429.89874 694.65314 429.89874Q694.075 429.89874 693.7625 429.72687Q693.45 429.53937 693.3094 429.2425Q693.1844 428.94562 693.1844 427.9925L693.1844 424.41437L692.41876 424.41437L692.41876 423.60187L693.1844 423.60187L693.1844 422.055L694.23126 421.43L694.23126 423.60187L695.29376 423.60187L695.29376 424.41437L694.23126 424.41437L694.23126 428.055Q694.23126 428.50812 694.27814 428.63312Q694.34064 428.75812 694.46564 428.83624Q694.59064 428.91437 694.825 428.91437Q695.0125 428.91437 695.29376 428.88312ZM695.9969 429.82062L695.9969 421.22687L697.04376 421.22687L697.04376 424.305Q697.77814 423.46124 698.90314 423.46124Q699.60626 423.46124 700.10626 423.7425Q700.6219 424.00812 700.84064 424.4925Q701.0594 424.96124 701.0594 425.88312L701.0594 429.82062L700.0125 429.82062L700.0125 425.88312Q700.0125 425.08624 699.66876 424.72687Q699.325 424.3675 698.7 424.3675Q698.23126 424.3675 697.8094 424.6175Q697.40314 424.85187 697.21564 425.27374Q697.04376 425.68 697.04376 426.41437L697.04376 429.82062L695.9969 429.82062ZM707.0594 429.055Q706.46564 429.555 705.91876 429.75812Q705.3875 429.96124 704.7625 429.96124Q703.73126 429.96124 703.1844 429.46124Q702.6375 428.96124 702.6375 428.18Q702.6375 427.72687 702.84064 427.35187Q703.04376 426.96124 703.3875 426.7425Q703.73126 426.50812 704.15314 426.39874Q704.45 426.305 705.09064 426.22687Q706.35626 426.08624 706.96564 425.8675Q706.96564 425.64874 706.96564 425.60187Q706.96564 424.94562 706.66876 424.68Q706.2625 424.33624 705.46564 424.33624Q704.73126 424.33624 704.3719 424.60187Q704.0125 424.85187 703.84064 425.50812L702.8094 425.3675Q702.95 424.71124 703.27814 424.305Q703.60626 423.89874 704.21564 423.68Q704.825 423.46124 705.6219 423.46124Q706.41876 423.46124 706.91876 423.64874Q707.41876 423.83624 707.65314 424.1175Q707.8875 424.39874 707.98126 424.83624Q708.02814 425.10187 708.02814 425.805L708.02814 427.21124Q708.02814 428.68 708.09064 429.07062Q708.16876 429.46124 708.3719 429.82062L707.2625 429.82062Q707.10626 429.4925 707.0594 429.055ZM706.96564 426.69562Q706.3875 426.93 705.2469 427.10187Q704.59064 427.19562 704.325 427.32062Q704.0594 427.43 703.90314 427.64874Q703.7625 427.8675 703.7625 428.14874Q703.7625 428.57062 704.075 428.85187Q704.40314 429.13312 705.0125 429.13312Q705.6219 429.13312 706.09064 428.8675Q706.575 428.60187 706.79376 428.13312Q706.96564 427.77374 706.96564 427.08624L706.96564 426.69562ZM709.9969 429.82062L709.9969 423.60187L710.9344 423.60187L710.9344 424.47687Q711.6219 423.46124 712.91876 423.46124Q713.48126 423.46124 713.95 423.66437Q714.4344 423.8675 714.66876 424.19562Q714.90314 424.52374 714.9969 424.96124Q715.04376 425.25812 715.04376 425.9925L715.04376 429.82062L713.9969 429.82062L713.9969 426.03937Q713.9969 425.38312 713.8719 425.07062Q713.7469 424.75812 713.4344 424.57062Q713.1219 424.3675 712.7 424.3675Q712.02814 424.3675 711.52814 424.805Q711.04376 425.22687 711.04376 426.41437L711.04376 429.82062L709.9969 429.82062ZM722.1844 431.055L722.1844 430.00812Q721.40314 429.89874 720.90314 429.64874Q720.40314 429.39874 720.04376 428.83624Q719.6844 428.25812 719.6219 427.43L720.6844 427.2425Q720.8094 428.08624 721.1219 428.47687Q721.575 429.03937 722.1844 429.1175L722.1844 425.75812Q721.54376 425.63312 720.85626 425.2425Q720.35626 424.96124 720.075 424.47687Q719.8094 423.97687 719.8094 423.33624Q719.8094 422.21124 720.60626 421.52374Q721.1375 421.055 722.1844 420.94562L722.1844 420.44562L722.8094 420.44562L722.8094 420.94562Q723.73126 421.02374 724.2625 421.47687Q724.96564 422.055 725.10626 423.055L724.0125 423.22687Q723.91876 422.60187 723.6219 422.27374Q723.325 421.94562 722.8094 421.83624L722.8094 424.8675Q723.60626 425.07062 723.8719 425.18Q724.35626 425.39874 724.66876 425.71124Q724.98126 426.02374 725.1375 426.46124Q725.3094 426.88312 725.3094 427.38312Q725.3094 428.47687 724.60626 429.21124Q723.91876 429.94562 722.8094 429.9925L722.8094 431.055L722.1844 431.055ZM722.1844 421.82062Q721.575 421.91437 721.21564 422.32062Q720.8719 422.71124 720.8719 423.25812Q720.8719 423.78937 721.16876 424.16437Q721.46564 424.52374 722.1844 424.7425L722.1844 421.82062ZM722.8094 429.1175Q723.41876 429.03937 723.825 428.58624Q724.23126 428.1175 724.23126 427.44562Q724.23126 426.8675 723.9344 426.52374Q723.65314 426.18 722.8094 425.89874L722.8094 429.1175ZM730.66876 429.82062L729.6219 429.82062L729.6219 423.10187Q729.23126 423.46124 728.60626 423.83624Q727.9969 424.19562 727.5125 424.3675L727.5125 423.35187Q728.3875 422.93 729.04376 422.35187Q729.71564 421.75812 729.9969 421.19562L730.66876 421.19562L730.66876 429.82062ZM733.7 425.58624Q733.7 424.055 734.0125 423.13312Q734.325 422.19562 734.9344 421.69562Q735.5594 421.19562 736.4969 421.19562Q737.1844 421.19562 737.7 421.47687Q738.23126 421.75812 738.575 422.28937Q738.91876 422.805 739.10626 423.555Q739.29376 424.305 739.29376 425.58624Q739.29376 427.10187 738.98126 428.02374Q738.6844 428.94562 738.0594 429.46124Q737.45 429.96124 736.4969 429.96124Q735.2625 429.96124 734.54376 429.07062Q733.7 428.00812 733.7 425.58624ZM734.77814 425.58624Q734.77814 427.69562 735.27814 428.39874Q735.77814 429.10187 736.4969 429.10187Q737.23126 429.10187 737.71564 428.39874Q738.21564 427.69562 738.21564 425.58624Q738.21564 423.46124 737.71564 422.77374Q737.23126 422.07062 736.48126 422.07062Q735.7625 422.07062 735.325 422.68Q734.77814 423.46124 734.77814 425.58624ZM740.7 425.58624Q740.7 424.055 741.0125 423.13312Q741.325 422.19562 741.9344 421.69562Q742.5594 421.19562 743.4969 421.19562Q744.1844 421.19562 744.7 421.47687Q745.23126 421.75812 745.575 422.28937Q745.91876 422.805 746.10626 423.555Q746.29376 424.305 746.29376 425.58624Q746.29376 427.10187 745.98126 428.02374Q745.6844 428.94562 745.0594 429.46124Q744.45 429.96124 743.4969 429.96124Q742.2625 429.96124 741.54376 429.07062Q740.7 428.00812 740.7 425.58624ZM741.77814 425.58624Q741.77814 427.69562 742.27814 428.39874Q742.77814 429.10187 743.4969 429.10187Q744.23126 429.10187 744.71564 428.39874Q745.21564 427.69562 745.21564 425.58624Q745.21564 423.46124 744.71564 422.77374Q744.23126 422.07062 743.48126 422.07062Q742.7625 422.07062 742.325 422.68Q741.77814 423.46124 741.77814 425.58624Z" fill-rule="nonzero"/><path fill="#9e9e9e" d="M712.7 444.57062L713.8094 444.47687Q713.9344 445.28937 714.3719 445.69562Q714.825 446.10187 715.46564 446.10187Q716.21564 446.10187 716.7469 445.52374Q717.27814 444.94562 717.27814 444.00812Q717.27814 443.10187 716.7625 442.58624Q716.2625 442.055 715.4344 442.055Q714.9344 442.055 714.5125 442.28937Q714.10626 442.52374 713.8719 442.88312L712.8875 442.75812L713.71564 438.35187L717.9969 438.35187L717.9969 439.35187L714.5594 439.35187L714.10626 441.66437Q714.8719 441.1175 715.71564 441.1175Q716.84064 441.1175 717.60626 441.89874Q718.3875 442.68 718.3875 443.91437Q718.3875 445.07062 717.71564 445.93Q716.8875 446.96124 715.46564 446.96124Q714.29376 446.96124 713.54376 446.305Q712.8094 445.64874 712.7 444.57062ZM719.7 442.58624Q719.7 441.055 720.0125 440.13312Q720.325 439.19562 720.9344 438.69562Q721.5594 438.19562 722.4969 438.19562Q723.1844 438.19562 723.7 438.47687Q724.23126 438.75812 724.575 439.28937Q724.91876 439.805 725.10626 440.555Q725.29376 441.305 725.29376 442.58624Q725.29376 444.10187 724.98126 445.02374Q724.6844 445.94562 724.0594 446.46124Q723.45 446.96124 722.4969 446.96124Q721.2625 446.96124 720.54376 446.07062Q719.7 445.00812 719.7 442.58624ZM720.77814 442.58624Q720.77814 444.69562 721.27814 445.39874Q721.77814 446.10187 722.4969 446.10187Q723.23126 446.10187 723.71564 445.39874Q724.21564 444.69562 724.21564 442.58624Q724.21564 440.46124 723.71564 439.77374Q723.23126 439.07062 722.48126 439.07062Q721.7625 439.07062 721.325 439.68Q720.77814 440.46124 720.77814 442.58624ZM727.29376 446.82062L727.29376 445.6175L728.4969 445.6175L728.4969 446.82062L727.29376 446.82062ZM731.325 442.16437Q730.66876 441.91437 730.34064 441.47687Q730.02814 441.02374 730.02814 440.41437Q730.02814 439.47687 730.7 438.83624Q731.3875 438.19562 732.4969 438.19562Q733.6219 438.19562 734.3094 438.85187Q734.9969 439.50812 734.9969 440.44562Q734.9969 441.03937 734.6844 441.47687Q734.3719 441.91437 733.73126 442.16437Q734.52814 442.41437 734.9344 442.9925Q735.34064 443.57062 735.34064 444.3675Q735.34064 445.46124 734.5594 446.21124Q733.79376 446.96124 732.5125 446.96124Q731.2469 446.96124 730.46564 446.21124Q729.6844 445.46124 729.6844 444.33624Q729.6844 443.4925 730.10626 442.93Q730.54376 442.3675 731.325 442.16437ZM731.10626 440.3675Q731.10626 440.97687 731.4969 441.3675Q731.90314 441.75812 732.52814 441.75812Q733.1375 441.75812 733.52814 441.38312Q733.91876 440.9925 733.91876 440.43Q733.91876 439.85187 733.5125 439.46124Q733.10626 439.055 732.5125 439.055Q731.90314 439.055 731.4969 439.44562Q731.10626 439.83624 731.10626 440.3675ZM730.77814 444.33624Q730.77814 444.78937 730.98126 445.21124Q731.2 445.63312 731.6219 445.8675Q732.04376 446.10187 732.52814 446.10187Q733.27814 446.10187 733.7625 445.6175Q734.2625 445.13312 734.2625 444.38312Q734.2625 443.6175 733.7625 443.1175Q733.2625 442.6175 732.4969 442.6175Q731.7469 442.6175 731.2625 443.1175Q730.77814 443.60187 730.77814 444.33624ZM736.90314 440.28937Q736.90314 439.3675 737.35626 438.72687Q737.825 438.08624 738.7 438.08624Q739.5125 438.08624 740.04376 438.66437Q740.575 439.2425 740.575 440.35187Q740.575 441.44562 740.02814 442.03937Q739.4969 442.6175 738.71564 442.6175Q737.9344 442.6175 737.41876 442.03937Q736.90314 441.46124 736.90314 440.28937ZM738.73126 438.805Q738.34064 438.805 738.075 439.14874Q737.825 439.4925 737.825 440.39874Q737.825 441.22687 738.075 441.57062Q738.34064 441.89874 738.73126 441.89874Q739.1375 441.89874 739.3875 441.555Q739.65314 441.21124 739.65314 440.32062Q739.65314 439.47687 739.3875 439.14874Q739.1219 438.805 738.73126 438.805ZM738.73126 447.13312L743.4344 438.08624L744.29376 438.08624L739.60626 447.13312L738.73126 447.13312ZM742.45 444.805Q742.45 443.88312 742.90314 443.2425Q743.3719 442.60187 744.2625 442.60187Q745.075 442.60187 745.60626 443.18Q746.1375 443.7425 746.1375 444.8675Q746.1375 445.96124 745.59064 446.555Q745.0594 447.13312 744.2625 447.13312Q743.4969 447.13312 742.96564 446.555Q742.45 445.97687 742.45 444.805ZM744.29376 443.32062Q743.8875 443.32062 743.6219 443.66437Q743.3719 444.00812 743.3719 444.91437Q743.3719 445.72687 743.6375 446.07062Q743.90314 446.41437 744.29376 446.41437Q744.6844 446.41437 744.95 446.07062Q745.21564 445.72687 745.21564 444.82062Q745.21564 443.9925 744.95 443.66437Q744.6844 443.32062 744.29376 443.32062Z" fill-rule="nonzero"/><path stroke="#757575" stroke-width="1.0" stroke-linecap="butt" d="M747.2 434.32062L605.7 434.32062L439.03873 434.32062" fill-rule="nonzero"/><path fill="#9e9e9e" d="M441.03873 434.32062C441.03873 433.21603 440.1433 432.32062 439.03873 432.32062C437.93417 432.32062 437.03873 433.21603 437.03873 434.32062C437.03873 435.42517 437.93417 436.32062 439.03873 436.32062C440.1433 436.32062 441.03873 435.42517 441.03873 434.32062" fill-rule="nonzero"/></svg>