<svg version="1.1" viewBox="0.0 0.0 802.0 479.0" fill="none" stroke="none" stroke-linecap="square" stroke-miterlimit="10" width="802" height="479" xmlns:xlink="http://www.w3.org/1999/xlink" xmlns="http://www.w3.org/2000/svg"><path fill="#ffffff" d="M0 0L802.0 0L802.0 479.0L0 479.0L0 0Z" fill-rule="nonzero"/><path fill="#4285f4" d="M401.0 23.95C464.14325 23.95 524.11115 51.63697 565.06476 99.69813C606.0183 147.7593 623.8386 211.36081 613.8189 273.704L401.0 239.5Z" fill-rule="nonzero"/><path fill="#46bdc6" d="M361.9604 27.51483C374.83832 25.14321 387.90555 23.95 401.0 23.95L401.0 239.5Z" fill-rule="nonzero"/><path fill="#ff6d01" d="M315.12463 41.795105C330.1435 35.271503 345.85675 30.480509 361.9604 27.51483L401.0 239.5Z" fill-rule="nonzero"/><path fill="#34a853" d="M280.7373 60.618225C291.60422 53.312378 303.11426 47.011955 315.12463 41.795105L401.0 239.5Z" fill-rule="nonzero"/><path fill="#fbbc04" d="M185.50586 234.5934C187.10013 164.57408 222.61426 99.69451 280.7373 60.618225L401.0 239.5Z" fill-rule="nonzero"/><path fill="#ea4335" d="M613.8189 273.704C595.8345 385.60388 494.2653 464.46313 381.399 454.15695C268.5327 443.85077 182.92596 347.89987 185.50586 234.5934L401.0 239.5Z" fill-rule="nonzero"/><path fill="#1a1a1a" d="M29.91875 28.465626L28.871876 28.54375Q28.73125 27.91875 28.48125 27.6375Q28.04375 27.184376 27.41875 27.184376Q26.91875 27.184376 26.528126 27.465626Q26.04375 27.840626 25.746876 28.54375Q25.465626 29.23125 25.45 30.5125Q25.825 29.934376 26.371876 29.653126Q26.934376 29.371876 27.54375 29.371876Q28.590626 29.371876 29.325 30.153126Q30.075 30.934376 30.075 32.153126Q30.075 32.965626 29.715626 33.66875Q29.371876 34.35625 28.7625 34.73125Q28.153126 35.090626 27.3875 35.090626Q26.059376 35.090626 25.23125 34.121876Q24.403126 33.153126 24.403126 30.934376Q24.403126 28.434376 25.325 27.309376Q26.121876 26.325 27.48125 26.325Q28.496876 26.325 29.1375 26.903126Q29.79375 27.465626 29.91875 28.465626ZM25.621876 32.16875Q25.621876 32.715626 25.840626 33.215626Q26.075 33.7 26.48125 33.965626Q26.903126 34.23125 27.371876 34.23125Q28.028126 34.23125 28.5125 33.7Q28.996876 33.153126 28.996876 32.23125Q28.996876 31.340626 28.5125 30.825Q28.04375 30.309376 27.325 30.309376Q26.60625 30.309376 26.10625 30.825Q25.621876 31.340626 25.621876 32.16875ZM31.45 30.715626Q31.45 29.184376 31.7625 28.2625Q32.075 27.325 32.684376 26.825Q33.309376 26.325 34.246876 26.325Q34.934376 26.325 35.45 26.60625Q35.98125 26.8875 36.325 27.41875Q36.66875 27.934376 36.85625 28.684376Q37.04375 29.434376 37.04375 30.715626Q37.04375 32.23125 36.73125 33.153126Q36.434376 34.075 35.809376 34.590626Q35.2 35.090626 34.246876 35.090626Q33.0125 35.090626 32.29375 34.2Q31.45 33.1375 31.45 30.715626ZM32.528126 30.715626Q32.528126 32.825 33.028126 33.528126Q33.528126 34.23125 34.246876 34.23125Q34.98125 34.23125 35.465626 33.528126Q35.965626 32.825 35.965626 30.715626Q35.965626 28.590626 35.465626 27.903126Q34.98125 27.2 34.23125 27.2Q33.5125 27.2 33.075 27.809376Q32.528126 28.590626 32.528126 30.715626ZM40.95 33.559376L40.95 31.2L38.621876 31.2L38.621876 30.215626L40.95 30.215626L40.95 27.8875L41.95 27.8875L41.95 30.215626L44.29375 30.215626L44.29375 31.2L41.95 31.2L41.95 33.559376L40.95 33.559376Z" fill-rule="nonzero"/><path fill="#9e9e9e" d="M29.996876 50.934376L29.996876 51.95L24.309376 51.95Q24.309376 51.575 24.434376 51.215626Q24.653126 50.6375 25.121876 50.075Q25.60625 49.5125 26.5125 48.778126Q27.91875 47.621876 28.403126 46.95Q28.903126 46.278126 28.903126 45.684376Q28.903126 45.059376 28.45 44.6375Q27.996876 44.2 27.278126 44.2Q26.5125 44.2 26.059376 44.653126Q25.60625 45.10625 25.590626 45.91875L24.5125 45.809376Q24.621876 44.590626 25.340626 43.965626Q26.075 43.325 27.309376 43.325Q28.54375 43.325 29.2625 44.0125Q29.98125 44.7 29.98125 45.715626Q29.98125 46.23125 29.7625 46.73125Q29.559376 47.215626 29.059376 47.778126Q28.575 48.325 27.45 49.278126Q26.496876 50.075 26.215626 50.371876Q25.95 50.653126 25.778126 50.934376L29.996876 50.934376ZM32.04375 51.95L32.04375 50.746876L33.246876 50.746876L33.246876 51.95L32.04375 51.95ZM34.60625 49.965626L35.621876 49.871876Q35.746876 50.590626 36.10625 50.91875Q36.48125 51.23125 37.04375 51.23125Q37.528126 51.23125 37.8875 51.0125Q38.2625 50.778126 38.496876 50.41875Q38.73125 50.04375 38.8875 49.41875Q39.04375 48.778126 39.04375 48.121876Q39.04375 48.04375 39.04375 47.903126Q38.73125 48.403126 38.184376 48.73125Q37.6375 49.04375 36.996876 49.04375Q35.91875 49.04375 35.184376 48.278126Q34.45 47.496876 34.45 46.23125Q34.45 44.91875 35.215626 44.121876Q35.996876 43.325 37.153126 43.325Q37.98125 43.325 38.66875 43.778126Q39.371876 44.23125 39.73125 45.075Q40.090626 45.903126 40.090626 47.48125Q40.090626 49.121876 39.73125 50.10625Q39.3875 51.075 38.66875 51.590626Q37.965626 52.090626 37.028126 52.090626Q36.0125 52.090626 35.371876 51.54375Q34.73125 50.98125 34.60625 49.965626ZM38.91875 46.16875Q38.91875 45.2625 38.434376 44.73125Q37.965626 44.2 37.278126 44.2Q36.575 44.2 36.04375 44.778126Q35.528126 45.340626 35.528126 46.2625Q35.528126 47.075 36.028126 47.590626Q36.528126 48.10625 37.246876 48.10625Q37.98125 48.10625 38.45 47.590626Q38.91875 47.075 38.91875 46.16875ZM41.653126 45.41875Q41.653126 44.496876 42.10625 43.85625Q42.575 43.215626 43.45 43.215626Q44.2625 43.215626 44.79375 43.79375Q45.325 44.371876 45.325 45.48125Q45.325 46.575 44.778126 47.16875Q44.246876 47.746876 43.465626 47.746876Q42.684376 47.746876 42.16875 47.16875Q41.653126 46.590626 41.653126 45.41875ZM43.48125 43.934376Q43.090626 43.934376 42.825 44.278126Q42.575 44.621876 42.575 45.528126Q42.575 46.35625 42.825 46.7Q43.090626 47.028126 43.48125 47.028126Q43.8875 47.028126 44.1375 46.684376Q44.403126 46.340626 44.403126 45.45Q44.403126 44.60625 44.1375 44.278126Q43.871876 43.934376 43.48125 43.934376ZM43.48125 52.2625L48.184376 43.215626L49.04375 43.215626L44.35625 52.2625L43.48125 52.2625ZM47.2 49.934376Q47.2 49.0125 47.653126 48.371876Q48.121876 47.73125 49.0125 47.73125Q49.825 47.73125 50.35625 48.309376Q50.8875 48.871876 50.8875 49.996876Q50.8875 51.090626 50.340626 51.684376Q49.809376 52.2625 49.0125 52.2625Q48.246876 52.2625 47.715626 51.684376Q47.2 51.10625 47.2 49.934376ZM49.04375 48.45Q48.6375 48.45 48.371876 48.79375Q48.121876 49.1375 48.121876 50.04375Q48.121876 50.85625 48.3875 51.2Q48.653126 51.54375 49.04375 51.54375Q49.434376 51.54375 49.7 51.2Q49.965626 50.85625 49.965626 49.95Q49.965626 49.121876 49.7 48.79375Q49.434376 48.45 49.04375 48.45Z" fill-rule="nonzero"/><path stroke="#757575" stroke-width="1.0" stroke-linecap="butt" d="M23.95 39.45L179.45 39.45L382.37903 35.575905" fill-rule="nonzero"/><path fill="#9e9e9e" d="M384.37903 35.575905C384.37903 34.471336 383.4836 33.575905 382.37903 33.575905C381.27448 33.575905 380.37903 34.471336 380.37903 35.575905C380.37903 36.680473 381.27448 37.575905 382.37903 37.575905C383.4836 37.575905 384.37903 36.680473 384.37903 35.575905" fill-rule="nonzero"/><path fill="#1a1a1a" d="M24.45 63.699997L25.559376 63.606247Q25.684376 64.41875 26.121876 64.825Q26.575 65.23125 27.215626 65.23125Q27.965626 65.23125 28.496876 64.65312Q29.028126 64.075 29.028126 63.137497Q29.028126 62.231247 28.5125 61.715622Q28.0125 61.184372 27.184376 61.184372Q26.684376 61.184372 26.2625 61.418747Q25.85625 61.653122 25.621876 62.012497L24.6375 61.887497L25.465626 57.481247L29.746876 57.481247L29.746876 58.481247L26.309376 58.481247L25.85625 60.793747Q26.621876 60.246872 27.465626 60.246872Q28.590626 60.246872 29.35625 61.028122Q30.1375 61.809372 30.1375 63.043747Q30.1375 64.2 29.465626 65.05937Q28.6375 66.09062 27.215626 66.09062Q26.04375 66.09062 25.29375 65.43437Q24.559376 64.77812 24.45 63.699997ZM31.45 61.715622Q31.45 60.184372 31.7625 59.262497Q32.075 58.324997 32.684376 57.824997Q33.309376 57.324997 34.246876 57.324997Q34.934376 57.324997 35.45 57.606247Q35.98125 57.887497 36.325 58.418747Q36.66875 58.934372 36.85625 59.684372Q37.04375 60.434372 37.04375 61.715622Q37.04375 63.231247 36.73125 64.15312Q36.434376 65.075 35.809376 65.59062Q35.2 66.09062 34.246876 66.09062Q33.0125 66.09062 32.29375 65.2Q31.45 64.1375 31.45 61.715622ZM32.528126 61.715622Q32.528126 63.824997 33.028126 64.52812Q33.528126 65.23125 34.246876 65.23125Q34.98125 65.23125 35.465626 64.52812Q35.965626 63.824997 35.965626 61.715622Q35.965626 59.590622 35.465626 58.903122Q34.98125 58.199997 34.23125 58.199997Q33.5125 58.199997 33.075 58.809372Q32.528126 59.590622 32.528126 61.715622ZM38.325 63.371872L38.325 62.309372L41.575 62.309372L41.575 63.371872L38.325 63.371872ZM42.45 63.699997L43.559376 63.606247Q43.684376 64.41875 44.121876 64.825Q44.575 65.23125 45.215626 65.23125Q45.965626 65.23125 46.496876 64.65312Q47.028126 64.075 47.028126 63.137497Q47.028126 62.231247 46.5125 61.715622Q46.0125 61.184372 45.184376 61.184372Q44.684376 61.184372 44.2625 61.418747Q43.85625 61.653122 43.621876 62.012497L42.6375 61.887497L43.465626 57.481247L47.746876 57.481247L47.746876 58.481247L44.309376 58.481247L43.85625 60.793747Q44.621876 60.246872 45.465626 60.246872Q46.590626 60.246872 47.35625 61.028122Q48.1375 61.809372 48.1375 63.043747Q48.1375 64.2 47.465626 65.05937Q46.6375 66.09062 45.215626 66.09062Q44.04375 66.09062 43.29375 65.43437Q42.559376 64.77812 42.45 63.699997ZM49.60625 63.965622L50.621876 63.871872Q50.746876 64.59062 51.10625 64.91875Q51.48125 65.23125 52.04375 65.23125Q52.528126 65.23125 52.8875 65.0125Q53.2625 64.77812 53.496876 64.41875Q53.73125 64.04375 53.8875 63.418747Q54.04375 62.778122 54.04375 62.121872Q54.04375 62.043747 54.04375 61.903122Q53.73125 62.403122 53.184376 62.731247Q52.6375 63.043747 51.996876 63.043747Q50.91875 63.043747 50.184376 62.278122Q49.45 61.496872 49.45 60.231247Q49.45 58.918747 50.215626 58.121872Q50.996876 57.324997 52.153126 57.324997Q52.98125 57.324997 53.66875 57.778122Q54.371876 58.231247 54.73125 59.074997Q55.090626 59.903122 55.090626 61.481247Q55.090626 63.121872 54.73125 64.10625Q54.3875 65.075 53.66875 65.59062Q52.965626 66.09062 52.028126 66.09062Q51.0125 66.09062 50.371876 65.54375Q49.73125 64.98125 49.60625 63.965622ZM53.91875 60.168747Q53.91875 59.262497 53.434376 58.731247Q52.965626 58.199997 52.278126 58.199997Q51.575 58.199997 51.04375 58.778122Q50.528126 59.340622 50.528126 60.262497Q50.528126 61.074997 51.028126 61.590622Q51.528126 62.106247 52.246876 62.106247Q52.98125 62.106247 53.45 61.590622Q53.91875 61.074997 53.91875 60.168747Z" fill-rule="nonzero"/><path fill="#9e9e9e" d="M24.45 80.68437L25.5125 80.54375Q25.684376 81.43437 26.121876 81.84062Q26.559376 82.23125 27.184376 82.23125Q27.934376 82.23125 28.45 81.71562Q28.965626 81.2 28.965626 80.43437Q28.965626 79.71562 28.48125 79.24687Q28.0125 78.7625 27.278126 78.7625Q26.98125 78.7625 26.528126 78.8875L26.653126 77.95Q26.7625 77.96562 26.825 77.96562Q27.496876 77.96562 28.028126 77.62187Q28.575 77.2625 28.575 76.52812Q28.575 75.95 28.184376 75.575Q27.79375 75.18437 27.16875 75.18437Q26.559376 75.18437 26.1375 75.575Q25.73125 75.96562 25.621876 76.73125L24.559376 76.54375Q24.746876 75.49687 25.434376 74.91875Q26.121876 74.325 27.1375 74.325Q27.840626 74.325 28.434376 74.6375Q29.028126 74.93437 29.340626 75.45Q29.653126 75.96562 29.653126 76.55937Q29.653126 77.10625 29.35625 77.575Q29.059376 78.02812 28.48125 78.29375Q29.23125 78.46562 29.653126 79.02812Q30.075 79.575 30.075 80.41875Q30.075 81.54375 29.246876 82.325Q28.434376 83.10625 27.184376 83.10625Q26.059376 83.10625 25.309376 82.43437Q24.559376 81.74687 24.45 80.68437ZM32.04375 82.95L32.04375 81.74687L33.246876 81.74687L33.246876 82.95L32.04375 82.95ZM39.91875 76.46562L38.871876 76.54375Q38.73125 75.91875 38.48125 75.6375Q38.04375 75.18437 37.41875 75.18437Q36.91875 75.18437 36.528126 75.46562Q36.04375 75.84062 35.746876 76.54375Q35.465626 77.23125 35.45 78.5125Q35.825 77.93437 36.371876 77.65312Q36.934376 77.37187 37.54375 77.37187Q38.590626 77.37187 39.325 78.15312Q40.075 78.93437 40.075 80.15312Q40.075 80.96562 39.715626 81.66875Q39.371876 82.35625 38.7625 82.73125Q38.153126 83.09062 37.3875 83.09062Q36.059376 83.09062 35.23125 82.12187Q34.403126 81.15312 34.403126 78.93437Q34.403126 76.43437 35.325 75.30937Q36.121876 74.325 37.48125 74.325Q38.496876 74.325 39.1375 74.90312Q39.79375 75.46562 39.91875 76.46562ZM35.621876 80.16875Q35.621876 80.71562 35.840626 81.21562Q36.075 81.7 36.48125 81.96562Q36.903126 82.23125 37.371876 82.23125Q38.028126 82.23125 38.5125 81.7Q38.996876 81.15312 38.996876 80.23125Q38.996876 79.34062 38.5125 78.825Q38.04375 78.30937 37.325 78.30937Q36.60625 78.30937 36.10625 78.825Q35.621876 79.34062 35.621876 80.16875ZM41.653126 76.41875Q41.653126 75.49687 42.10625 74.85625Q42.575 74.21562 43.45 74.21562Q44.2625 74.21562 44.79375 74.79375Q45.325 75.37187 45.325 76.48125Q45.325 77.575 44.778126 78.16875Q44.246876 78.74687 43.465626 78.74687Q42.684376 78.74687 42.16875 78.16875Q41.653126 77.59062 41.653126 76.41875ZM43.48125 74.93437Q43.090626 74.93437 42.825 75.27812Q42.575 75.62187 42.575 76.52812Q42.575 77.35625 42.825 77.7Q43.090626 78.02812 43.48125 78.02812Q43.8875 78.02812 44.1375 77.68437Q44.403126 77.34062 44.403126 76.45Q44.403126 75.60625 44.1375 75.27812Q43.871876 74.93437 43.48125 74.93437ZM43.48125 83.2625L48.184376 74.21562L49.04375 74.21562L44.35625 83.2625L43.48125 83.2625ZM47.2 80.93437Q47.2 80.0125 47.653126 79.37187Q48.121876 78.73125 49.0125 78.73125Q49.825 78.73125 50.35625 79.30937Q50.8875 79.87187 50.8875 80.99687Q50.8875 82.09062 50.340626 82.68437Q49.809376 83.2625 49.0125 83.2625Q48.246876 83.2625 47.715626 82.68437Q47.2 82.10625 47.2 80.93437ZM49.04375 79.45Q48.6375 79.45 48.371876 79.79375Q48.121876 80.1375 48.121876 81.04375Q48.121876 81.85625 48.3875 82.2Q48.653126 82.54375 49.04375 82.54375Q49.434376 82.54375 49.7 82.2Q49.965626 81.85625 49.965626 80.95Q49.965626 80.12187 49.7 79.79375Q49.434376 79.45 49.04375 79.45Z" fill-rule="nonzero"/><path stroke="#757575" stroke-width="1.0" stroke-linecap="butt" d="M23.95 70.45L179.45 70.45L341.27893 43.62971" fill-rule="nonzero"/><path fill="#9e9e9e" d="M343.27893 43.62971C343.27893 42.52514 342.3835 41.62971 341.27893 41.62971C340.17438 41.62971 339.27893 42.52514 339.27893 43.62971C339.27893 44.73428 340.17438 45.62971 341.27893 45.62971C342.3835 45.62971 343.27893 44.73428 343.27893 43.62971" fill-rule="nonzero"/><path fill="#1a1a1a" d="M28.41875 96.95L27.371876 96.95L27.371876 90.23125Q26.98125 90.59062 26.35625 90.96562Q25.746876 91.325 25.2625 91.49687L25.2625 90.48125Q26.1375 90.05937 26.79375 89.48125Q27.465626 88.8875 27.746876 88.325L28.41875 88.325L28.41875 96.95ZM33.075 92.29375Q32.41875 92.04375 32.090626 91.60625Q31.778126 91.15312 31.778126 90.54375Q31.778126 89.60625 32.45 88.96562Q33.1375 88.325 34.246876 88.325Q35.371876 88.325 36.059376 88.98125Q36.746876 89.6375 36.746876 90.575Q36.746876 91.16875 36.434376 91.60625Q36.121876 92.04375 35.48125 92.29375Q36.278126 92.54375 36.684376 93.12187Q37.090626 93.7 37.090626 94.49687Q37.090626 95.59062 36.309376 96.34062Q35.54375 97.09062 34.2625 97.09062Q32.996876 97.09062 32.215626 96.34062Q31.434376 95.59062 31.434376 94.46562Q31.434376 93.62187 31.85625 93.05937Q32.29375 92.49687 33.075 92.29375ZM32.85625 90.49687Q32.85625 91.10625 33.246876 91.49687Q33.653126 91.8875 34.278126 91.8875Q34.8875 91.8875 35.278126 91.5125Q35.66875 91.12187 35.66875 90.55937Q35.66875 89.98125 35.2625 89.59062Q34.85625 89.18437 34.2625 89.18437Q33.653126 89.18437 33.246876 89.575Q32.85625 89.96562 32.85625 90.49687ZM32.528126 94.46562Q32.528126 94.91875 32.73125 95.34062Q32.95 95.7625 33.371876 95.99687Q33.79375 96.23125 34.278126 96.23125Q35.028126 96.23125 35.5125 95.74687Q36.0125 95.2625 36.0125 94.5125Q36.0125 93.74687 35.5125 93.24687Q35.0125 92.74687 34.246876 92.74687Q33.496876 92.74687 33.0125 93.24687Q32.528126 93.73125 32.528126 94.46562ZM38.325 94.37187L38.325 93.30937L41.575 93.30937L41.575 94.37187L38.325 94.37187ZM47.996876 95.93437L47.996876 96.95L42.309376 96.95Q42.309376 96.575 42.434376 96.21562Q42.653126 95.6375 43.121876 95.075Q43.60625 94.5125 44.5125 93.77812Q45.91875 92.62187 46.403126 91.95Q46.903126 91.27812 46.903126 90.68437Q46.903126 90.05937 46.45 89.6375Q45.996876 89.2 45.278126 89.2Q44.5125 89.2 44.059376 89.65312Q43.60625 90.10625 43.590626 90.91875L42.5125 90.80937Q42.621876 89.59062 43.340626 88.96562Q44.075 88.325 45.309376 88.325Q46.54375 88.325 47.2625 89.0125Q47.98125 89.7 47.98125 90.71562Q47.98125 91.23125 47.7625 91.73125Q47.559376 92.21562 47.059376 92.77812Q46.575 93.325 45.45 94.27812Q44.496876 95.075 44.215626 95.37187Q43.95 95.65312 43.778126 95.93437L47.996876 95.93437ZM49.45 94.7L50.559376 94.60625Q50.684376 95.41875 51.121876 95.825Q51.575 96.23125 52.215626 96.23125Q52.965626 96.23125 53.496876 95.65312Q54.028126 95.075 54.028126 94.1375Q54.028126 93.23125 53.5125 92.71562Q53.0125 92.18437 52.184376 92.18437Q51.684376 92.18437 51.2625 92.41875Q50.85625 92.65312 50.621876 93.0125L49.6375 92.8875L50.465626 88.48125L54.746876 88.48125L54.746876 89.48125L51.309376 89.48125L50.85625 91.79375Q51.621876 91.24687 52.465626 91.24687Q53.590626 91.24687 54.35625 92.02812Q55.1375 92.80937 55.1375 94.04375Q55.1375 95.2 54.465626 96.05937Q53.6375 97.09062 52.215626 97.09062Q51.04375 97.09062 50.29375 96.43437Q49.559376 95.77812 49.45 94.7Z" fill-rule="nonzero"/><path fill="#9e9e9e" d="M29.996876 112.93437L29.996876 113.95L24.309376 113.95Q24.309376 113.575 24.434376 113.21562Q24.653126 112.6375 25.121876 112.075Q25.60625 111.5125 26.5125 110.77812Q27.91875 109.62187 28.403126 108.95Q28.903126 108.27812 28.903126 107.68437Q28.903126 107.05937 28.45 106.6375Q27.996876 106.2 27.278126 106.2Q26.5125 106.2 26.059376 106.65312Q25.60625 107.10625 25.590626 107.91875L24.5125 107.80937Q24.621876 106.59062 25.340626 105.96562Q26.075 105.325 27.309376 105.325Q28.54375 105.325 29.2625 106.0125Q29.98125 106.7 29.98125 107.71562Q29.98125 108.23125 29.7625 108.73125Q29.559376 109.21562 29.059376 109.77812Q28.575 110.325 27.45 111.27812Q26.496876 112.075 26.215626 112.37187Q25.95 112.65312 25.778126 112.93437L29.996876 112.93437ZM32.04375 113.95L32.04375 112.74687L33.246876 112.74687L33.246876 113.95L32.04375 113.95ZM34.60625 111.96562L35.621876 111.87187Q35.746876 112.59062 36.10625 112.91875Q36.48125 113.23125 37.04375 113.23125Q37.528126 113.23125 37.8875 113.0125Q38.2625 112.77812 38.496876 112.41875Q38.73125 112.04375 38.8875 111.41875Q39.04375 110.77812 39.04375 110.12187Q39.04375 110.04375 39.04375 109.90312Q38.73125 110.40312 38.184376 110.73125Q37.6375 111.04375 36.996876 111.04375Q35.91875 111.04375 35.184376 110.27812Q34.45 109.49687 34.45 108.23125Q34.45 106.91875 35.215626 106.12187Q35.996876 105.325 37.153126 105.325Q37.98125 105.325 38.66875 105.77812Q39.371876 106.23125 39.73125 107.075Q40.090626 107.90312 40.090626 109.48125Q40.090626 111.12187 39.73125 112.10625Q39.3875 113.075 38.66875 113.59062Q37.965626 114.09062 37.028126 114.09062Q36.0125 114.09062 35.371876 113.54375Q34.73125 112.98125 34.60625 111.96562ZM38.91875 108.16875Q38.91875 107.2625 38.434376 106.73125Q37.965626 106.2 37.278126 106.2Q36.575 106.2 36.04375 106.77812Q35.528126 107.34062 35.528126 108.2625Q35.528126 109.075 36.028126 109.59062Q36.528126 110.10625 37.246876 110.10625Q37.98125 110.10625 38.45 109.59062Q38.91875 109.075 38.91875 108.16875ZM41.653126 107.41875Q41.653126 106.49687 42.10625 105.85625Q42.575 105.21562 43.45 105.21562Q44.2625 105.21562 44.79375 105.79375Q45.325 106.37187 45.325 107.48125Q45.325 108.575 44.778126 109.16875Q44.246876 109.74687 43.465626 109.74687Q42.684376 109.74687 42.16875 109.16875Q41.653126 108.59062 41.653126 107.41875ZM43.48125 105.93437Q43.090626 105.93437 42.825 106.27812Q42.575 106.62187 42.575 107.52812Q42.575 108.35625 42.825 108.7Q43.090626 109.02812 43.48125 109.02812Q43.8875 109.02812 44.1375 108.68437Q44.403126 108.34062 44.403126 107.45Q44.403126 106.60625 44.1375 106.27812Q43.871876 105.93437 43.48125 105.93437ZM43.48125 114.2625L48.184376 105.21562L49.04375 105.21562L44.35625 114.2625L43.48125 114.2625ZM47.2 111.93437Q47.2 111.0125 47.653126 110.37187Q48.121876 109.73125 49.0125 109.73125Q49.825 109.73125 50.35625 110.30937Q50.8875 110.87187 50.8875 111.99687Q50.8875 113.09062 50.340626 113.68437Q49.809376 114.2625 49.0125 114.2625Q48.246876 114.2625 47.715626 113.68437Q47.2 113.10625 47.2 111.93437ZM49.04375 110.45Q48.6375 110.45 48.371876 110.79375Q48.121876 111.1375 48.121876 112.04375Q48.121876 112.85625 48.3875 113.2Q48.653126 113.54375 49.04375 113.54375Q49.434376 113.54375 49.7 113.2Q49.965626 112.85625 49.965626 111.95Q49.965626 111.12187 49.7 110.79375Q49.434376 110.45 49.04375 110.45Z" fill-rule="nonzero"/><path stroke="#757575" stroke-width="1.0" stroke-linecap="butt" d="M23.95 101.45L179.45 101.45L302.67706 59.877125" fill-rule="nonzero"/><path fill="#9e9e9e" d="M304.67706 59.877125C304.67706 58.772556 303.78165 57.877125 302.67706 57.877125C301.5725 57.877125 300.67706 58.772556 300.67706 59.877125C300.67706 60.981693 301.5725 61.877125 302.67706 61.877125C303.78165 61.877125 304.67706 60.981693 304.67706 59.877125" fill-rule="nonzero"/><path fill="#1a1a1a" d="M29.996876 135.66144L29.996876 136.67706L24.309376 136.67706Q24.309376 136.30206 24.434376 135.94269Q24.653126 135.36456 25.121876 134.80206Q25.60625 134.23956 26.5125 133.50519Q27.91875 132.34894 28.403126 131.67706Q28.903126 131.00519 28.903126 130.41144Q28.903126 129.78644 28.45 129.36456Q27.996876 128.92706 27.278126 128.92706Q26.5125 128.92706 26.059376 129.38019Q25.60625 129.83331 25.590626 130.64581L24.5125 130.53644Q24.621876 129.31769 25.340626 128.69269Q26.075 128.05206 27.309376 128.05206Q28.54375 128.05206 29.2625 128.73956Q29.98125 129.42706 29.98125 130.44269Q29.98125 130.95831 29.7625 131.45831Q29.559376 131.94269 29.059376 132.50519Q28.575 133.05206 27.45 134.00519Q26.496876 134.80206 26.215626 135.09894Q25.95 135.38019 25.778126 135.66144L29.996876 135.66144ZM36.91875 130.19269L35.871876 130.27081Q35.73125 129.64581 35.48125 129.36456Q35.04375 128.91144 34.41875 128.91144Q33.91875 128.91144 33.528126 129.19269Q33.04375 129.56769 32.746876 130.27081Q32.465626 130.95831 32.45 132.23956Q32.825 131.66144 33.371876 131.38019Q33.934376 131.09894 34.54375 131.09894Q35.590626 131.09894 36.325 131.88019Q37.075 132.66144 37.075 133.88019Q37.075 134.69269 36.715626 135.39581Q36.371876 136.08331 35.7625 136.45831Q35.153126 136.81769 34.3875 136.81769Q33.059376 136.81769 32.23125 135.84894Q31.403126 134.88019 31.403126 132.66144Q31.403126 130.16144 32.325 129.03644Q33.121876 128.05206 34.48125 128.05206Q35.496876 128.05206 36.1375 128.63019Q36.79375 129.19269 36.91875 130.19269ZM32.621876 133.89581Q32.621876 134.44269 32.840626 134.94269Q33.075 135.42706 33.48125 135.69269Q33.903126 135.95831 34.371876 135.95831Q35.028126 135.95831 35.5125 135.42706Q35.996876 134.88019 35.996876 133.95831Q35.996876 133.06769 35.5125 132.55206Q35.04375 132.03644 34.325 132.03644Q33.60625 132.03644 33.10625 132.55206Q32.621876 133.06769 32.621876 133.89581ZM38.325 134.09894L38.325 133.03644L41.575 133.03644L41.575 134.09894L38.325 134.09894ZM47.996876 135.66144L47.996876 136.67706L42.309376 136.67706Q42.309376 136.30206 42.434376 135.94269Q42.653126 135.36456 43.121876 134.80206Q43.60625 134.23956 44.5125 133.50519Q45.91875 132.34894 46.403126 131.67706Q46.903126 131.00519 46.903126 130.41144Q46.903126 129.78644 46.45 129.36456Q45.996876 128.92706 45.278126 128.92706Q44.5125 128.92706 44.059376 129.38019Q43.60625 129.83331 43.590626 130.64581L42.5125 130.53644Q42.621876 129.31769 43.340626 128.69269Q44.075 128.05206 45.309376 128.05206Q46.54375 128.05206 47.2625 128.73956Q47.98125 129.42706 47.98125 130.44269Q47.98125 130.95831 47.7625 131.45831Q47.559376 131.94269 47.059376 132.50519Q46.575 133.05206 45.45 134.00519Q44.496876 134.80206 44.215626 135.09894Q43.95 135.38019 43.778126 135.66144L47.996876 135.66144ZM49.60625 134.69269L50.621876 134.59894Q50.746876 135.31769 51.10625 135.64581Q51.48125 135.95831 52.04375 135.95831Q52.528126 135.95831 52.8875 135.73956Q53.2625 135.50519 53.496876 135.14581Q53.73125 134.77081 53.8875 134.14581Q54.04375 133.50519 54.04375 132.84894Q54.04375 132.77081 54.04375 132.63019Q53.73125 133.13019 53.184376 133.45831Q52.6375 133.77081 51.996876 133.77081Q50.91875 133.77081 50.184376 133.00519Q49.45 132.22394 49.45 130.95831Q49.45 129.64581 50.215626 128.84894Q50.996876 128.05206 52.153126 128.05206Q52.98125 128.05206 53.66875 128.50519Q54.371876 128.95831 54.73125 129.80206Q55.090626 130.63019 55.090626 132.20831Q55.090626 133.84894 54.73125 134.83331Q54.3875 135.80206 53.66875 136.31769Q52.965626 136.81769 52.028126 136.81769Q51.0125 136.81769 50.371876 136.27081Q49.73125 135.70831 49.60625 134.69269ZM53.91875 130.89581Q53.91875 129.98956 53.434376 129.45831Q52.965626 128.92706 52.278126 128.92706Q51.575 128.92706 51.04375 129.50519Q50.528126 130.06769 50.528126 130.98956Q50.528126 131.80206 51.028126 132.31769Q51.528126 132.83331 52.246876 132.83331Q52.98125 132.83331 53.45 132.31769Q53.91875 131.80206 53.91875 130.89581Z" fill-rule="nonzero"/><path fill="#9e9e9e" d="M28.41875 153.67706L27.371876 153.67706L27.371876 146.95831Q26.98125 147.31769 26.35625 147.69269Q25.746876 148.05206 25.2625 148.22394L25.2625 147.20831Q26.1375 146.78644 26.79375 146.20831Q27.465626 145.61456 27.746876 145.05206L28.41875 145.05206L28.41875 153.67706ZM31.45 151.42706L32.559376 151.33331Q32.684376 152.14581 33.121876 152.55206Q33.575 152.95831 34.215626 152.95831Q34.965626 152.95831 35.496876 152.38019Q36.028126 151.80206 36.028126 150.86456Q36.028126 149.95831 35.5125 149.44269Q35.0125 148.91144 34.184376 148.91144Q33.684376 148.91144 33.2625 149.14581Q32.85625 149.38019 32.621876 149.73956L31.6375 149.61456L32.465626 145.20831L36.746876 145.20831L36.746876 146.20831L33.309376 146.20831L32.85625 148.52081Q33.621876 147.97394 34.465626 147.97394Q35.590626 147.97394 36.35625 148.75519Q37.1375 149.53644 37.1375 150.77081Q37.1375 151.92706 36.465626 152.78644Q35.6375 153.81769 34.215626 153.81769Q33.04375 153.81769 32.29375 153.16144Q31.559376 152.50519 31.45 151.42706ZM39.04375 153.67706L39.04375 152.47394L40.246876 152.47394L40.246876 153.67706L39.04375 153.67706ZM46.996876 152.66144L46.996876 153.67706L41.309376 153.67706Q41.309376 153.30206 41.434376 152.94269Q41.653126 152.36456 42.121876 151.80206Q42.60625 151.23956 43.5125 150.50519Q44.91875 149.34894 45.403126 148.67706Q45.903126 148.00519 45.903126 147.41144Q45.903126 146.78644 45.45 146.36456Q44.996876 145.92706 44.278126 145.92706Q43.5125 145.92706 43.059376 146.38019Q42.60625 146.83331 42.590626 147.64581L41.5125 147.53644Q41.621876 146.31769 42.340626 145.69269Q43.075 145.05206 44.309376 145.05206Q45.54375 145.05206 46.2625 145.73956Q46.98125 146.42706 46.98125 147.44269Q46.98125 147.95831 46.7625 148.45831Q46.559376 148.94269 46.059376 149.50519Q45.575 150.05206 44.45 151.00519Q43.496876 151.80206 43.215626 152.09894Q42.95 152.38019 42.778126 152.66144L46.996876 152.66144ZM48.653126 147.14581Q48.653126 146.22394 49.10625 145.58331Q49.575 144.94269 50.45 144.94269Q51.2625 144.94269 51.79375 145.52081Q52.325 146.09894 52.325 147.20831Q52.325 148.30206 51.778126 148.89581Q51.246876 149.47394 50.465626 149.47394Q49.684376 149.47394 49.16875 148.89581Q48.653126 148.31769 48.653126 147.14581ZM50.48125 145.66144Q50.090626 145.66144 49.825 146.00519Q49.575 146.34894 49.575 147.25519Q49.575 148.08331 49.825 148.42706Q50.090626 148.75519 50.48125 148.75519Q50.8875 148.75519 51.1375 148.41144Q51.403126 148.06769 51.403126 147.17706Q51.403126 146.33331 51.1375 146.00519Q50.871876 145.66144 50.48125 145.66144ZM50.48125 153.98956L55.184376 144.94269L56.04375 144.94269L51.35625 153.98956L50.48125 153.98956ZM54.2 151.66144Q54.2 150.73956 54.653126 150.09894Q55.121876 149.45831 56.0125 149.45831Q56.825 149.45831 57.35625 150.03644Q57.8875 150.59894 57.8875 151.72394Q57.8875 152.81769 57.340626 153.41144Q56.809376 153.98956 56.0125 153.98956Q55.246876 153.98956 54.715626 153.41144Q54.2 152.83331 54.2 151.66144ZM56.04375 150.17706Q55.6375 150.17706 55.371876 150.52081Q55.121876 150.86456 55.121876 151.77081Q55.121876 152.58331 55.3875 152.92706Q55.653126 153.27081 56.04375 153.27081Q56.434376 153.27081 56.7 152.92706Q56.965626 152.58331 56.965626 151.67706Q56.965626 150.84894 56.7 150.52081Q56.434376 150.17706 56.04375 150.17706Z" fill-rule="nonzero"/><path stroke="#757575" stroke-width="1.0" stroke-linecap="butt" d="M23.95 141.17706L179.45 141.17706L221.37712 141.17706" fill-rule="nonzero"/><path fill="#9e9e9e" d="M223.37712 141.17706C223.37712 140.0725 222.48169 139.17706 221.37712 139.17706C220.27255 139.17706 219.37712 140.0725 219.37712 141.17706C219.37712 142.28163 220.27255 143.17706 221.37712 143.17706C222.48169 143.17706 223.37712 142.28163 223.37712 141.17706" fill-rule="nonzero"/><path fill="#1a1a1a" d="M24.45 432.78436L25.5125 432.64374Q25.684376 433.53436 26.121876 433.9406Q26.559376 434.33124 27.184376 434.33124Q27.934376 434.33124 28.45 433.8156Q28.965626 433.3 28.965626 432.53436Q28.965626 431.8156 28.48125 431.34686Q28.0125 430.8625 27.278126 430.8625Q26.98125 430.8625 26.528126 430.9875L26.653126 430.05Q26.7625 430.0656 26.825 430.0656Q27.496876 430.0656 28.028126 429.72186Q28.575 429.3625 28.575 428.6281Q28.575 428.05 28.184376 427.675Q27.79375 427.28436 27.16875 427.28436Q26.559376 427.28436 26.1375 427.675Q25.73125 428.0656 25.621876 428.83124L24.559376 428.64374Q24.746876 427.59686 25.434376 427.01874Q26.121876 426.425 27.1375 426.425Q27.840626 426.425 28.434376 426.7375Q29.028126 427.03436 29.340626 427.55Q29.653126 428.0656 29.653126 428.65936Q29.653126 429.20624 29.35625 429.675Q29.059376 430.1281 28.48125 430.39374Q29.23125 430.5656 29.653126 431.1281Q30.075 431.675 30.075 432.51874Q30.075 433.64374 29.246876 434.425Q28.434376 435.20624 27.184376 435.20624Q26.059376 435.20624 25.309376 434.53436Q24.559376 433.84686 24.45 432.78436ZM31.45 430.8156Q31.45 429.28436 31.7625 428.3625Q32.075 427.425 32.684376 426.925Q33.309376 426.425 34.246876 426.425Q34.934376 426.425 35.45 426.70624Q35.98125 426.9875 36.325 427.51874Q36.66875 428.03436 36.85625 428.78436Q37.04375 429.53436 37.04375 430.8156Q37.04375 432.33124 36.73125 433.2531Q36.434376 434.175 35.809376 434.6906Q35.2 435.1906 34.246876 435.1906Q33.0125 435.1906 32.29375 434.3Q31.45 433.2375 31.45 430.8156ZM32.528126 430.8156Q32.528126 432.925 33.028126 433.6281Q33.528126 434.33124 34.246876 434.33124Q34.98125 434.33124 35.465626 433.6281Q35.965626 432.925 35.965626 430.8156Q35.965626 428.6906 35.465626 428.0031Q34.98125 427.3 34.23125 427.3Q33.5125 427.3 33.075 427.90936Q32.528126 428.6906 32.528126 430.8156ZM38.325 432.47186L38.325 431.40936L41.575 431.40936L41.575 432.47186L38.325 432.47186ZM42.45 432.78436L43.5125 432.64374Q43.684376 433.53436 44.121876 433.9406Q44.559376 434.33124 45.184376 434.33124Q45.934376 434.33124 46.45 433.8156Q46.965626 433.3 46.965626 432.53436Q46.965626 431.8156 46.48125 431.34686Q46.0125 430.8625 45.278126 430.8625Q44.98125 430.8625 44.528126 430.9875L44.653126 430.05Q44.7625 430.0656 44.825 430.0656Q45.496876 430.0656 46.028126 429.72186Q46.575 429.3625 46.575 428.6281Q46.575 428.05 46.184376 427.675Q45.79375 427.28436 45.16875 427.28436Q44.559376 427.28436 44.1375 427.675Q43.73125 428.0656 43.621876 428.83124L42.559376 428.64374Q42.746876 427.59686 43.434376 427.01874Q44.121876 426.425 45.1375 426.425Q45.840626 426.425 46.434376 426.7375Q47.028126 427.03436 47.340626 427.55Q47.653126 428.0656 47.653126 428.65936Q47.653126 429.20624 47.35625 429.675Q47.059376 430.1281 46.48125 430.39374Q47.23125 430.5656 47.653126 431.1281Q48.075 431.675 48.075 432.51874Q48.075 433.64374 47.246876 434.425Q46.434376 435.20624 45.184376 435.20624Q44.059376 435.20624 43.309376 434.53436Q42.559376 433.84686 42.45 432.78436ZM49.60625 433.0656L50.621876 432.97186Q50.746876 433.6906 51.10625 434.01874Q51.48125 434.33124 52.04375 434.33124Q52.528126 434.33124 52.8875 434.1125Q53.2625 433.8781 53.496876 433.51874Q53.73125 433.14374 53.8875 432.51874Q54.04375 431.8781 54.04375 431.22186Q54.04375 431.14374 54.04375 431.0031Q53.73125 431.5031 53.184376 431.83124Q52.6375 432.14374 51.996876 432.14374Q50.91875 432.14374 50.184376 431.3781Q49.45 430.59686 49.45 429.33124Q49.45 428.01874 50.215626 427.22186Q50.996876 426.425 52.153126 426.425Q52.98125 426.425 53.66875 426.8781Q54.371876 427.33124 54.73125 428.175Q55.090626 429.0031 55.090626 430.58124Q55.090626 432.22186 54.73125 433.20624Q54.3875 434.175 53.66875 434.6906Q52.965626 435.1906 52.028126 435.1906Q51.0125 435.1906 50.371876 434.64374Q49.73125 434.08124 49.60625 433.0656ZM53.91875 429.26874Q53.91875 428.3625 53.434376 427.83124Q52.965626 427.3 52.278126 427.3Q51.575 427.3 51.04375 427.8781Q50.528126 428.4406 50.528126 429.3625Q50.528126 430.175 51.028126 430.6906Q51.528126 431.20624 52.246876 431.20624Q52.98125 431.20624 53.45 430.6906Q53.91875 430.175 53.91875 429.26874Z" fill-rule="nonzero"/><path fill="#9e9e9e" d="M27.825 452.05L27.825 449.9875L24.10625 449.9875L24.10625 449.01874L28.028126 443.45624L28.8875 443.45624L28.8875 449.01874L30.04375 449.01874L30.04375 449.9875L28.8875 449.9875L28.8875 452.05L27.825 452.05ZM27.825 449.01874L27.825 445.15936L25.1375 449.01874L27.825 449.01874ZM31.5125 444.58124L31.5125 443.5656L37.075 443.5656L37.075 444.39374Q36.2625 445.26874 35.45 446.72186Q34.653126 448.15936 34.215626 449.6906Q33.8875 450.76874 33.809376 452.05L32.715626 452.05Q32.73125 451.03436 33.10625 449.59686Q33.496876 448.15936 34.2 446.83124Q34.91875 445.5031 35.73125 444.58124L31.5125 444.58124ZM39.04375 452.05L39.04375 450.84686L40.246876 450.84686L40.246876 452.05L39.04375 452.05ZM43.075 447.39374Q42.41875 447.14374 42.090626 446.70624Q41.778126 446.2531 41.778126 445.64374Q41.778126 444.70624 42.45 444.0656Q43.1375 443.425 44.246876 443.425Q45.371876 443.425 46.059376 444.08124Q46.746876 444.7375 46.746876 445.675Q46.746876 446.26874 46.434376 446.70624Q46.121876 447.14374 45.48125 447.39374Q46.278126 447.64374 46.684376 448.22186Q47.090626 448.8 47.090626 449.59686Q47.090626 450.6906 46.309376 451.4406Q45.54375 452.1906 44.2625 452.1906Q42.996876 452.1906 42.215626 451.4406Q41.434376 450.6906 41.434376 449.5656Q41.434376 448.72186 41.85625 448.15936Q42.29375 447.59686 43.075 447.39374ZM42.85625 445.59686Q42.85625 446.20624 43.246876 446.59686Q43.653126 446.9875 44.278126 446.9875Q44.8875 446.9875 45.278126 446.6125Q45.66875 446.22186 45.66875 445.65936Q45.66875 445.08124 45.2625 444.6906Q44.85625 444.28436 44.2625 444.28436Q43.653126 444.28436 43.246876 444.675Q42.85625 445.0656 42.85625 445.59686ZM42.528126 449.5656Q42.528126 450.01874 42.73125 450.4406Q42.95 450.8625 43.371876 451.09686Q43.79375 451.33124 44.278126 451.33124Q45.028126 451.33124 45.5125 450.84686Q46.0125 450.3625 46.0125 449.6125Q46.0125 448.84686 45.5125 448.34686Q45.0125 447.84686 44.246876 447.84686Q43.496876 447.84686 43.0125 448.34686Q42.528126 448.83124 42.528126 449.5656ZM48.653126 445.51874Q48.653126 444.59686 49.10625 443.95624Q49.575 443.3156 50.45 443.3156Q51.2625 443.3156 51.79375 443.89374Q52.325 444.47186 52.325 445.58124Q52.325 446.675 51.778126 447.26874Q51.246876 447.84686 50.465626 447.84686Q49.684376 447.84686 49.16875 447.26874Q48.653126 446.6906 48.653126 445.51874ZM50.48125 444.03436Q50.090626 444.03436 49.825 444.3781Q49.575 444.72186 49.575 445.6281Q49.575 446.45624 49.825 446.8Q50.090626 447.1281 50.48125 447.1281Q50.8875 447.1281 51.1375 446.78436Q51.403126 446.4406 51.403126 445.55Q51.403126 444.70624 51.1375 444.3781Q50.871876 444.03436 50.48125 444.03436ZM50.48125 452.3625L55.184376 443.3156L56.04375 443.3156L51.35625 452.3625L50.48125 452.3625ZM54.2 450.03436Q54.2 449.1125 54.653126 448.47186Q55.121876 447.83124 56.0125 447.83124Q56.825 447.83124 57.35625 448.40936Q57.8875 448.97186 57.8875 450.09686Q57.8875 451.1906 57.340626 451.78436Q56.809376 452.3625 56.0125 452.3625Q55.246876 452.3625 54.715626 451.78436Q54.2 451.20624 54.2 450.03436ZM56.04375 448.55Q55.6375 448.55 55.371876 448.89374Q55.121876 449.2375 55.121876 450.14374Q55.121876 450.95624 55.3875 451.3Q55.653126 451.64374 56.04375 451.64374Q56.434376 451.64374 56.7 451.3Q56.965626 450.95624 56.965626 450.05Q56.965626 449.22186 56.7 448.89374Q56.434376 448.55 56.04375 448.55Z" fill-rule="nonzero"/><path stroke="#757575" stroke-width="1.0" stroke-linecap="butt" d="M23.95 439.55L179.45 439.55L382.37903 443.4241" fill-rule="nonzero"/><path fill="#9e9e9e" d="M384.37903 443.4241C384.37903 442.31952 383.4836 441.4241 382.37903 441.4241C381.27448 441.4241 380.37903 442.31952 380.37903 443.4241C380.37903 444.52866 381.27448 445.4241 382.37903 445.4241C383.4836 445.4241 384.37903 444.52866 384.37903 443.4241" fill-rule="nonzero"/><path fill="#1a1a1a" d="M749.925 102.188225L749.925 100.125725L746.20624 100.125725L746.20624 99.156975L750.1281 93.594475L750.9875 93.594475L750.9875 99.156975L752.14374 99.156975L752.14374 100.125725L750.9875 100.125725L750.9875 102.188225L749.925 102.188225ZM749.925 99.156975L749.925 95.2976L747.2375 99.156975L749.925 99.156975ZM753.55 97.95385Q753.55 96.4226 753.8625 95.500725Q754.175 94.563225 754.78436 94.063225Q755.40936 93.563225 756.34686 93.563225Q757.03436 93.563225 757.55 93.844475Q758.08124 94.125725 758.425 94.656975Q758.76874 95.1726 758.95624 95.9226Q759.14374 96.6726 759.14374 97.95385Q759.14374 99.469475 758.83124 100.39135Q758.53436 101.313225 757.90936 101.82885Q757.3 102.32885 756.34686 102.32885Q755.1125 102.32885 754.39374 101.438225Q753.55 100.375725 753.55 97.95385ZM754.6281 97.95385Q754.6281 100.063225 755.1281 100.76635Q755.6281 101.469475 756.34686 101.469475Q757.08124 101.469475 757.5656 100.76635Q758.0656 100.063225 758.0656 97.95385Q758.0656 95.82885 757.5656 95.14135Q757.08124 94.438225 756.33124 94.438225Q755.6125 94.438225 755.175 95.0476Q754.6281 95.82885 754.6281 97.95385ZM760.425 99.6101L760.425 98.5476L763.675 98.5476L763.675 99.6101L760.425 99.6101ZM767.925 102.188225L767.925 100.125725L764.20624 100.125725L764.20624 99.156975L768.1281 93.594475L768.9875 93.594475L768.9875 99.156975L770.14374 99.156975L770.14374 100.125725L768.9875 100.125725L768.9875 102.188225L767.925 102.188225ZM767.925 99.156975L767.925 95.2976L765.2375 99.156975L767.925 99.156975ZM771.70624 100.20385L772.72186 100.1101Q772.84686 100.82885 773.20624 101.156975Q773.58124 101.469475 774.14374 101.469475Q774.6281 101.469475 774.9875 101.250725Q775.3625 101.01635 775.59686 100.656975Q775.83124 100.281975 775.9875 99.656975Q776.14374 99.01635 776.14374 98.3601Q776.14374 98.281975 776.14374 98.14135Q775.83124 98.64135 775.28436 98.969475Q774.7375 99.281975 774.09686 99.281975Q773.01874 99.281975 772.28436 98.51635Q771.55 97.7351 771.55 96.469475Q771.55 95.156975 772.3156 94.3601Q773.09686 93.563225 774.2531 93.563225Q775.08124 93.563225 775.76874 94.01635Q776.47186 94.469475 776.83124 95.313225Q777.1906 96.14135 777.1906 97.719475Q777.1906 99.3601 776.83124 100.344475Q776.4875 101.313225 775.76874 101.82885Q775.0656 102.32885 774.1281 102.32885Q773.1125 102.32885 772.47186 101.781975Q771.83124 101.219475 771.70624 100.20385ZM776.01874 96.406975Q776.01874 95.500725 775.53436 94.969475Q775.0656 94.438225 774.3781 94.438225Q773.675 94.438225 773.14374 95.01635Q772.6281 95.57885 772.6281 96.500725Q772.6281 97.313225 773.1281 97.82885Q773.6281 98.344475 774.34686 98.344475Q775.08124 98.344475 775.55 97.82885Q776.01874 97.313225 776.01874 96.406975Z" fill-rule="nonzero"/><path fill="#9e9e9e" d="M749.09686 118.1726L749.09686 119.188225L743.40936 119.188225Q743.40936 118.813225 743.53436 118.45385Q743.7531 117.875725 744.22186 117.313225Q744.70624 116.750725 745.6125 116.01635Q747.01874 114.8601 747.5031 114.188225Q748.0031 113.51635 748.0031 112.9226Q748.0031 112.2976 747.55 111.875725Q747.09686 111.438225 746.3781 111.438225Q745.6125 111.438225 745.15936 111.89135Q744.70624 112.344475 744.6906 113.156975L743.6125 113.0476Q743.72186 111.82885 744.4406 111.20385Q745.175 110.563225 746.40936 110.563225Q747.64374 110.563225 748.3625 111.250725Q749.08124 111.938225 749.08124 112.95385Q749.08124 113.469475 748.8625 113.969475Q748.65936 114.45385 748.15936 115.01635Q747.675 115.563225 746.55 116.51635Q745.59686 117.313225 745.3156 117.6101Q745.05 117.89135 744.8781 118.1726L749.09686 118.1726ZM750.6125 111.719475L750.6125 110.70385L756.175 110.70385L756.175 111.531975Q755.3625 112.406975 754.55 113.8601Q753.7531 115.2976 753.3156 116.82885Q752.9875 117.906975 752.90936 119.188225L751.8156 119.188225Q751.83124 118.1726 752.20624 116.7351Q752.59686 115.2976 753.3 113.969475Q754.01874 112.64135 754.83124 111.719475L750.6125 111.719475ZM758.14374 119.188225L758.14374 117.9851L759.34686 117.9851L759.34686 119.188225L758.14374 119.188225ZM760.55 116.938225L761.65936 116.844475Q761.78436 117.656975 762.22186 118.063225Q762.675 118.469475 763.3156 118.469475Q764.0656 118.469475 764.59686 117.89135Q765.1281 117.313225 765.1281 116.375725Q765.1281 115.469475 764.6125 114.95385Q764.1125 114.4226 763.28436 114.4226Q762.78436 114.4226 762.3625 114.656975Q761.95624 114.89135 761.72186 115.250725L760.7375 115.125725L761.5656 110.719475L765.84686 110.719475L765.84686 111.719475L762.40936 111.719475L761.95624 114.031975Q762.72186 113.4851 763.5656 113.4851Q764.6906 113.4851 765.45624 114.26635Q766.2375 115.0476 766.2375 116.281975Q766.2375 117.438225 765.5656 118.2976Q764.7375 119.32885 763.3156 119.32885Q762.14374 119.32885 761.39374 118.6726Q760.65936 118.01635 760.55 116.938225ZM767.7531 112.656975Q767.7531 111.7351 768.20624 111.094475Q768.675 110.45385 769.55 110.45385Q770.3625 110.45385 770.89374 111.031975Q771.425 111.6101 771.425 112.719475Q771.425 113.813225 770.8781 114.406975Q770.34686 114.9851 769.5656 114.9851Q768.78436 114.9851 768.26874 114.406975Q767.7531 113.82885 767.7531 112.656975ZM769.58124 111.1726Q769.1906 111.1726 768.925 111.51635Q768.675 111.8601 768.675 112.76635Q768.675 113.594475 768.925 113.938225Q769.1906 114.26635 769.58124 114.26635Q769.9875 114.26635 770.2375 113.9226Q770.5031 113.57885 770.5031 112.688225Q770.5031 111.844475 770.2375 111.51635Q769.97186 111.1726 769.58124 111.1726ZM769.58124 119.500725L774.28436 110.45385L775.14374 110.45385L770.45624 119.500725L769.58124 119.500725ZM773.3 117.1726Q773.3 116.250725 773.7531 115.6101Q774.22186 114.969475 775.1125 114.969475Q775.925 114.969475 776.45624 115.5476Q776.9875 116.1101 776.9875 117.2351Q776.9875 118.32885 776.4406 118.9226Q775.90936 119.500725 775.1125 119.500725Q774.34686 119.500725 773.8156 118.9226Q773.3 118.344475 773.3 117.1726ZM775.14374 115.688225Q774.7375 115.688225 774.47186 116.031975Q774.22186 116.375725 774.22186 117.281975Q774.22186 118.094475 774.4875 118.438225Q774.7531 118.781975 775.14374 118.781975Q775.53436 118.781975 775.8 118.438225Q776.0656 118.094475 776.0656 117.188225Q776.0656 116.3601 775.8 116.031975Q775.53436 115.688225 775.14374 115.688225Z" fill-rule="nonzero"/><path stroke="#757575" stroke-width="1.0" stroke-linecap="butt" d="M778.05 106.688225L622.55 106.688225L556.8615 106.688225" fill-rule="nonzero"/><path fill="#9e9e9e" d="M558.8615 106.688225C558.8615 105.58366 557.96606 104.688225 556.8615 104.688225C555.75696 104.688225 554.8615 105.58366 554.8615 106.688225C554.8615 107.79279 555.75696 108.688225 556.8615 108.688225C557.96606 108.688225 558.8615 107.79279 558.8615 106.688225" fill-rule="nonzero"/></svg>