<svg version="1.1" viewBox="0.0 0.0 825.0 510.0" fill="none" stroke="none" stroke-linecap="square" stroke-miterlimit="10" width="825" height="510" xmlns:xlink="http://www.w3.org/1999/xlink" xmlns="http://www.w3.org/2000/svg"><path fill="#ffffff" d="M0 0L825.0 0L825.0 510.0L0 510.0L0 0Z" fill-rule="nonzero"/><path fill="#4285f4" d="M412.5 25.5C488.79437 25.5 560.1008 63.41433 602.7641 126.66523L412.5 255.0Z" fill-rule="nonzero"/><path fill="#ea4335" d="M602.7641 126.66523C645.42737 189.91612 653.8691 270.2333 625.2887 340.9722L412.5 255.0Z" fill-rule="nonzero"/><path fill="#46bdc6" d="M380.55978 27.733479C391.14154 26.24631 401.81424 25.5 412.5 25.5L412.5 255.0Z" fill-rule="nonzero"/><path fill="#ff6d01" d="M359.57367 31.686203C366.5039 30.043703 373.50687 28.7247 380.55978 27.733479L412.5 255.0Z" fill-rule="nonzero"/><path fill="#34a853" d="M234.98827 109.53579C266.86505 70.63618 310.63705 43.28439 359.57367 31.686203L412.5 255.0Z" fill-rule="nonzero"/><path fill="#fbbc04" d="M625.2887 340.9722C591.4547 424.71423 511.64972 480.82526 421.39896 484.3274C331.1482 487.82956 247.23497 438.07153 207.01337 357.2032C166.79176 276.33487 177.74149 179.39473 234.98827 109.53579L412.5 255.0Z" fill-rule="nonzero"/><path fill="#1a1a1a" d="M26.078125 32.3125Q26.078125 30.171875 27.21875 28.96875Q28.375 27.75 30.1875 27.75Q31.390625 27.75 32.34375 28.328125Q33.296875 28.890625 33.796875 29.90625Q34.296875 30.921875 34.296875 32.21875Q34.296875 33.515625 33.765625 34.546875Q33.234375 35.578125 32.265625 36.109375Q31.3125 36.640625 30.1875 36.640625Q28.96875 36.640625 28.015625 36.0625Q27.0625 35.46875 26.5625 34.46875Q26.078125 33.453125 26.078125 32.3125ZM27.25 32.328125Q27.25 33.890625 28.078125 34.78125Q28.921875 35.671875 30.1875 35.671875Q31.46875 35.671875 32.296875 34.78125Q33.125 33.875 33.125 32.203125Q33.125 31.15625 32.765625 30.375Q32.421875 29.59375 31.734375 29.171875Q31.046875 28.734375 30.203125 28.734375Q29.0 28.734375 28.125 29.5625Q27.25 30.390625 27.25 32.328125ZM35.296875 36.5L35.296875 30.28125L36.234375 30.28125L36.234375 31.15625Q36.921875 30.140625 38.21875 30.140625Q38.78125 30.140625 39.25 30.34375Q39.734375 30.546875 39.96875 30.875Q40.203125 31.203125 40.296875 31.640625Q40.34375 31.9375 40.34375 32.671875L40.34375 36.5L39.296875 36.5L39.296875 32.71875Q39.296875 32.0625 39.171875 31.75Q39.046875 31.4375 38.734375 31.25Q38.421875 31.046875 38.0 31.046875Q37.328125 31.046875 36.828125 31.484375Q36.34375 31.90625 36.34375 33.09375L36.34375 36.5L35.296875 36.5ZM42.265625 36.5L42.265625 27.90625L43.328125 27.90625L43.328125 36.5L42.265625 36.5ZM45.25 38.890625L45.125 37.90625Q45.46875 38.0 45.734375 38.0Q46.078125 38.0 46.28125 37.875Q46.5 37.765625 46.640625 37.5625Q46.734375 37.390625 46.96875 36.765625Q46.984375 36.6875 47.0625 36.515625L44.6875 30.28125L45.828125 30.28125L47.125 33.875Q47.375 34.5625 47.578125 35.328125Q47.765625 34.59375 48.015625 33.90625L49.34375 30.28125L50.390625 30.28125L48.03125 36.609375Q47.640625 37.625 47.4375 38.015625Q47.15625 38.546875 46.78125 38.78125Q46.421875 39.03125 45.921875 39.03125Q45.625 39.03125 45.25 38.890625ZM57.375 36.5L57.375 35.578125Q56.640625 36.640625 55.390625 36.640625Q54.84375 36.640625 54.359375 36.4375Q53.890625 36.21875 53.65625 35.90625Q53.421875 35.578125 53.328125 35.109375Q53.265625 34.8125 53.265625 34.125L53.265625 30.28125L54.328125 30.28125L54.328125 33.734375Q54.328125 34.546875 54.390625 34.84375Q54.484375 35.25 54.796875 35.5Q55.125 35.734375 55.609375 35.734375Q56.078125 35.734375 56.484375 35.5Q56.90625 35.25 57.078125 34.828125Q57.265625 34.40625 57.265625 33.609375L57.265625 30.28125L58.3125 30.28125L58.3125 36.5L57.375 36.5ZM60.296875 36.5L60.296875 30.28125L61.234375 30.28125L61.234375 31.15625Q61.921875 30.140625 63.21875 30.140625Q63.78125 30.140625 64.25 30.34375Q64.734375 30.546875 64.96875 30.875Q65.203125 31.203125 65.296875 31.640625Q65.34375 31.9375 65.34375 32.671875L65.34375 36.5L64.296875 36.5L64.296875 32.71875Q64.296875 32.0625 64.171875 31.75Q64.046875 31.4375 63.734375 31.25Q63.421875 31.046875 63.0 31.046875Q62.328125 31.046875 61.828125 31.484375Q61.34375 31.90625 61.34375 33.09375L61.34375 36.5L60.296875 36.5ZM67.296875 38.890625L67.296875 30.28125L68.25 30.28125L68.25 31.078125Q68.59375 30.609375 69.015625 30.375Q69.453125 30.140625 70.0625 30.140625Q70.859375 30.140625 71.46875 30.546875Q72.078125 30.953125 72.375 31.703125Q72.6875 32.453125 72.6875 33.34375Q72.6875 34.296875 72.34375 35.0625Q72.015625 35.828125 71.359375 36.234375Q70.703125 36.640625 69.984375 36.640625Q69.453125 36.640625 69.03125 36.421875Q68.609375 36.1875 68.34375 35.859375L68.34375 38.890625L67.296875 38.890625ZM68.25 33.421875Q68.25 34.625 68.734375 35.203125Q69.21875 35.765625 69.90625 35.765625Q70.609375 35.765625 71.109375 35.171875Q71.609375 34.578125 71.609375 33.328125Q71.609375 32.140625 71.125 31.5625Q70.640625 30.96875 69.953125 30.96875Q69.28125 30.96875 68.765625 31.59375Q68.25 32.21875 68.25 33.421875ZM78.359375 35.734375Q77.765625 36.234375 77.21875 36.4375Q76.6875 36.640625 76.0625 36.640625Q75.03125 36.640625 74.484375 36.140625Q73.9375 35.640625 73.9375 34.859375Q73.9375 34.40625 74.140625 34.03125Q74.34375 33.640625 74.6875 33.421875Q75.03125 33.1875 75.453125 33.078125Q75.75 32.984375 76.390625 32.90625Q77.65625 32.765625 78.265625 32.546875Q78.265625 32.328125 78.265625 32.28125Q78.265625 31.625 77.96875 31.359375Q77.5625 31.015625 76.765625 31.015625Q76.03125 31.015625 75.671875 31.28125Q75.3125 31.53125 75.140625 32.1875L74.109375 32.046875Q74.25 31.390625 74.578125 30.984375Q74.90625 30.578125 75.515625 30.359375Q76.125 30.140625 76.921875 30.140625Q77.71875 30.140625 78.21875 30.328125Q78.71875 30.515625 78.953125 30.796875Q79.1875 31.078125 79.28125 31.515625Q79.328125 31.78125 79.328125 32.484375L79.328125 33.890625Q79.328125 35.359375 79.390625 35.75Q79.46875 36.140625 79.671875 36.5L78.5625 36.5Q78.40625 36.171875 78.359375 35.734375ZM78.265625 33.375Q77.6875 33.609375 76.546875 33.78125Q75.890625 33.875 75.625 34.0Q75.359375 34.109375 75.203125 34.328125Q75.0625 34.546875 75.0625 34.828125Q75.0625 35.25 75.375 35.53125Q75.703125 35.8125 76.3125 35.8125Q76.921875 35.8125 77.390625 35.546875Q77.875 35.28125 78.09375 34.8125Q78.265625 34.453125 78.265625 33.765625L78.265625 33.375ZM81.296875 29.125L81.296875 27.90625L82.359375 27.90625L82.359375 29.125L81.296875 29.125ZM81.296875 36.5L81.296875 30.28125L82.359375 30.28125L82.359375 36.5L81.296875 36.5ZM88.328125 36.5L88.328125 35.71875Q87.734375 36.640625 86.59375 36.640625Q85.84375 36.640625 85.21875 36.234375Q84.59375 35.8125 84.25 35.078125Q83.90625 34.34375 83.90625 33.390625Q83.90625 32.46875 84.21875 31.703125Q84.53125 30.9375 85.15625 30.546875Q85.78125 30.140625 86.546875 30.140625Q87.109375 30.140625 87.546875 30.375Q87.984375 30.609375 88.265625 30.984375L88.265625 27.90625L89.3125 27.90625L89.3125 36.5L88.328125 36.5ZM85.0 33.390625Q85.0 34.59375 85.5 35.1875Q86.0 35.765625 86.6875 35.765625Q87.375 35.765625 87.859375 35.203125Q88.34375 34.640625 88.34375 33.484375Q88.34375 32.203125 87.84375 31.609375Q87.359375 31.015625 86.640625 31.015625Q85.9375 31.015625 85.46875 31.59375Q85.0 32.15625 85.0 33.390625ZM96.59375 35.5625L96.75 36.484375Q96.296875 36.578125 95.953125 36.578125Q95.375 36.578125 95.0625 36.40625Q94.75 36.21875 94.609375 35.921875Q94.484375 35.625 94.484375 34.671875L94.484375 31.09375L93.71875 31.09375L93.71875 30.28125L94.484375 30.28125L94.484375 28.734375L95.53125 28.109375L95.53125 30.28125L96.59375 30.28125L96.59375 31.09375L95.53125 31.09375L95.53125 34.734375Q95.53125 35.1875 95.578125 35.3125Q95.640625 35.4375 95.765625 35.515625Q95.890625 35.59375 96.125 35.59375Q96.3125 35.59375 96.59375 35.5625ZM97.296875 29.125L97.296875 27.90625L98.359375 27.90625L98.359375 29.125L97.296875 29.125ZM97.296875 36.5L97.296875 30.28125L98.359375 30.28125L98.359375 36.5L97.296875 36.5ZM100.296875 36.5L100.296875 30.28125L101.234375 30.28125L101.234375 31.15625Q101.53125 30.6875 102.015625 30.421875Q102.5 30.140625 103.125 30.140625Q103.8125 30.140625 104.25 30.421875Q104.703125 30.703125 104.875 31.21875Q105.625 30.140625 106.796875 30.140625Q107.734375 30.140625 108.21875 30.65625Q108.71875 31.15625 108.71875 32.234375L108.71875 36.5L107.671875 36.5L107.671875 32.578125Q107.671875 31.953125 107.5625 31.671875Q107.46875 31.390625 107.203125 31.21875Q106.9375 31.046875 106.5625 31.046875Q105.90625 31.046875 105.46875 31.484375Q105.046875 31.921875 105.046875 32.890625L105.046875 36.5L103.984375 36.5L103.984375 32.453125Q103.984375 31.75 103.71875 31.40625Q103.46875 31.046875 102.890625 31.046875Q102.4375 31.046875 102.0625 31.28125Q101.6875 31.515625 101.515625 31.96875Q101.34375 32.421875 101.34375 33.265625L101.34375 36.5L100.296875 36.5ZM115.546875 34.5L116.640625 34.625Q116.390625 35.578125 115.6875 36.109375Q114.984375 36.640625 113.90625 36.640625Q112.546875 36.640625 111.734375 35.796875Q110.9375 34.953125 110.9375 33.4375Q110.9375 31.875 111.75 31.015625Q112.5625 30.140625 113.84375 30.140625Q115.09375 30.140625 115.875 30.984375Q116.671875 31.828125 116.671875 33.375Q116.671875 33.46875 116.671875 33.65625L112.03125 33.65625Q112.09375 34.6875 112.609375 35.234375Q113.125 35.765625 113.90625 35.765625Q114.484375 35.765625 114.890625 35.46875Q115.3125 35.15625 115.546875 34.5ZM112.09375 32.796875L115.5625 32.796875Q115.5 32.0 115.171875 31.609375Q114.65625 31.0 113.859375 31.0Q113.125 31.0 112.625 31.484375Q112.140625 31.96875 112.09375 32.796875ZM120.90625 33.390625Q120.90625 31.65625 121.859375 30.828125Q122.65625 30.140625 123.8125 30.140625Q125.09375 30.140625 125.90625 30.984375Q126.734375 31.8125 126.734375 33.296875Q126.734375 34.5 126.375 35.1875Q126.015625 35.875 125.3125 36.265625Q124.625 36.640625 123.8125 36.640625Q122.515625 36.640625 121.703125 35.8125Q120.90625 34.96875 120.90625 33.390625ZM121.984375 33.390625Q121.984375 34.578125 122.5 35.171875Q123.03125 35.765625 123.8125 35.765625Q124.609375 35.765625 125.125 35.171875Q125.640625 34.578125 125.640625 33.359375Q125.640625 32.203125 125.109375 31.609375Q124.59375 31.015625 123.8125 31.015625Q123.03125 31.015625 122.5 31.609375Q121.984375 32.1875 121.984375 33.390625ZM128.54688 36.5L128.54688 31.09375L127.609375 31.09375L127.609375 30.28125L128.54688 30.28125L128.54688 29.609375Q128.54688 28.984375 128.65625 28.6875Q128.8125 28.265625 129.1875 28.015625Q129.57812 27.765625 130.26562 27.765625Q130.71875 27.765625 131.25 27.875L131.09375 28.78125Q130.76562 28.734375 130.46875 28.734375Q129.98438 28.734375 129.78125 28.9375Q129.59375 29.140625 129.59375 29.703125L129.59375 30.28125L130.8125 30.28125L130.8125 31.09375L129.59375 31.09375L129.59375 36.5L128.54688 36.5ZM131.54688 36.5L131.54688 31.09375L130.60938 31.09375L130.60938 30.28125L131.54688 30.28125L131.54688 29.609375Q131.54688 28.984375 131.65625 28.6875Q131.8125 28.265625 132.1875 28.015625Q132.57812 27.765625 133.26562 27.765625Q133.71875 27.765625 134.25 27.875L134.09375 28.78125Q133.76562 28.734375 133.46875 28.734375Q132.98438 28.734375 132.78125 28.9375Q132.59375 29.140625 132.59375 29.703125L132.59375 30.28125L133.8125 30.28125L133.8125 31.09375L132.59375 31.09375L132.59375 36.5L131.54688 36.5Z" fill-rule="nonzero"/><path fill="#9e9e9e" d="M31.546875 52.484375L31.546875 53.5L25.859375 53.5Q25.859375 53.125 25.984375 52.765625Q26.203125 52.1875 26.671875 51.625Q27.15625 51.0625 28.0625 50.328125Q29.46875 49.171875 29.953125 48.5Q30.453125 47.828125 30.453125 47.234375Q30.453125 46.609375 30.0 46.1875Q29.546875 45.75 28.828125 45.75Q28.0625 45.75 27.609375 46.203125Q27.15625 46.65625 27.140625 47.46875L26.0625 47.359375Q26.171875 46.140625 26.890625 45.515625Q27.625 44.875 28.859375 44.875Q30.09375 44.875 30.8125 45.5625Q31.53125 46.25 31.53125 47.265625Q31.53125 47.78125 31.3125 48.28125Q31.109375 48.765625 30.609375 49.328125Q30.125 49.875 29.0 50.828125Q28.046875 51.625 27.765625 51.921875Q27.5 52.203125 27.328125 52.484375L31.546875 52.484375ZM33.59375 53.5L33.59375 52.296875L34.796875 52.296875L34.796875 53.5L33.59375 53.5ZM41.546875 52.484375L41.546875 53.5L35.859375 53.5Q35.859375 53.125 35.984375 52.765625Q36.203125 52.1875 36.671875 51.625Q37.15625 51.0625 38.0625 50.328125Q39.46875 49.171875 39.953125 48.5Q40.453125 47.828125 40.453125 47.234375Q40.453125 46.609375 40.0 46.1875Q39.546875 45.75 38.828125 45.75Q38.0625 45.75 37.609375 46.203125Q37.15625 46.65625 37.140625 47.46875L36.0625 47.359375Q36.171875 46.140625 36.890625 45.515625Q37.625 44.875 38.859375 44.875Q40.09375 44.875 40.8125 45.5625Q41.53125 46.25 41.53125 47.265625Q41.53125 47.78125 41.3125 48.28125Q41.109375 48.765625 40.609375 49.328125Q40.125 49.875 39.0 50.828125Q38.046875 51.625 37.765625 51.921875Q37.5 52.203125 37.328125 52.484375L41.546875 52.484375ZM43.203125 46.96875Q43.203125 46.046875 43.65625 45.40625Q44.125 44.765625 45.0 44.765625Q45.8125 44.765625 46.34375 45.34375Q46.875 45.921875 46.875 47.03125Q46.875 48.125 46.328125 48.71875Q45.796875 49.296875 45.015625 49.296875Q44.234375 49.296875 43.71875 48.71875Q43.203125 48.140625 43.203125 46.96875ZM45.03125 45.484375Q44.640625 45.484375 44.375 45.828125Q44.125 46.171875 44.125 47.078125Q44.125 47.90625 44.375 48.25Q44.640625 48.578125 45.03125 48.578125Q45.4375 48.578125 45.6875 48.234375Q45.953125 47.890625 45.953125 47.0Q45.953125 46.15625 45.6875 45.828125Q45.421875 45.484375 45.03125 45.484375ZM45.03125 53.8125L49.734375 44.765625L50.59375 44.765625L45.90625 53.8125L45.03125 53.8125ZM48.75 51.484375Q48.75 50.5625 49.203125 49.921875Q49.671875 49.28125 50.5625 49.28125Q51.375 49.28125 51.90625 49.859375Q52.4375 50.421875 52.4375 51.546875Q52.4375 52.640625 51.890625 53.234375Q51.359375 53.8125 50.5625 53.8125Q49.796875 53.8125 49.265625 53.234375Q48.75 52.65625 48.75 51.484375ZM50.59375 50.0Q50.1875 50.0 49.921875 50.34375Q49.671875 50.6875 49.671875 51.59375Q49.671875 52.40625 49.9375 52.75Q50.203125 53.09375 50.59375 53.09375Q50.984375 53.09375 51.25 52.75Q51.515625 52.40625 51.515625 51.5Q51.515625 50.671875 51.25 50.34375Q50.984375 50.0 50.59375 50.0Z" fill-rule="nonzero"/><path stroke="#757575" stroke-width="1.0" stroke-linecap="butt" d="M25.5 41.0L177.0 41.0L397.29135 37.5061" fill-rule="nonzero"/><path fill="#9e9e9e" d="M399.29135 37.5061C399.29135 36.401527 398.3959 35.5061 397.29135 35.5061C396.18677 35.5061 395.29135 36.401527 395.29135 37.5061C395.29135 38.61067 396.18677 39.5061 397.29135 39.5061C398.3959 39.5061 399.29135 38.61067 399.29135 37.5061" fill-rule="nonzero"/><path fill="#1a1a1a" d="M29.96875 67.5L28.921875 67.5L28.921875 60.78125Q28.53125 61.140625 27.90625 61.515625Q27.296875 61.875 26.8125 62.046875L26.8125 61.03125Q27.6875 60.609375 28.34375 60.03125Q29.015625 59.4375 29.296875 58.875L29.96875 58.875L29.96875 67.5ZM36.96875 67.5L35.921875 67.5L35.921875 60.78125Q35.53125 61.140625 34.90625 61.515625Q34.296875 61.875 33.8125 62.046875L33.8125 61.03125Q34.6875 60.609375 35.34375 60.03125Q36.015625 59.4375 36.296875 58.875L36.96875 58.875L36.96875 67.5ZM39.875 64.921875L39.875 63.859375L43.125 63.859375L43.125 64.921875L39.875 64.921875ZM47.96875 67.5L46.921875 67.5L46.921875 60.78125Q46.53125 61.140625 45.90625 61.515625Q45.296875 61.875 44.8125 62.046875L44.8125 61.03125Q45.6875 60.609375 46.34375 60.03125Q47.015625 59.4375 47.296875 58.875L47.96875 58.875L47.96875 67.5ZM51.0 65.25L52.109375 65.15625Q52.234375 65.96875 52.671875 66.375Q53.125 66.78125 53.765625 66.78125Q54.515625 66.78125 55.046875 66.203125Q55.578125 65.625 55.578125 64.6875Q55.578125 63.78125 55.0625 63.265625Q54.5625 62.734375 53.734375 62.734375Q53.234375 62.734375 52.8125 62.96875Q52.40625 63.203125 52.171875 63.5625L51.1875 63.4375L52.015625 59.03125L56.296875 59.03125L56.296875 60.03125L52.859375 60.03125L52.40625 62.34375Q53.171875 61.796875 54.015625 61.796875Q55.140625 61.796875 55.90625 62.578125Q56.6875 63.359375 56.6875 64.59375Q56.6875 65.75 56.015625 66.609375Q55.1875 67.640625 53.765625 67.640625Q52.59375 67.640625 51.84375 66.984375Q51.109375 66.328125 51.0 65.25ZM65.328125 67.5L65.328125 66.71875Q64.734375 67.640625 63.59375 67.640625Q62.84375 67.640625 62.21875 67.234375Q61.59375 66.8125 61.25 66.078125Q60.90625 65.34375 60.90625 64.390625Q60.90625 63.46875 61.21875 62.703125Q61.53125 61.9375 62.15625 61.546875Q62.78125 61.140625 63.546875 61.140625Q64.109375 61.140625 64.546875 61.375Q64.984375 61.609375 65.265625 61.984375L65.265625 58.90625L66.3125 58.90625L66.3125 67.5L65.328125 67.5ZM62.0 64.390625Q62.0 65.59375 62.5 66.1875Q63.0 66.765625 63.6875 66.765625Q64.375 66.765625 64.859375 66.203125Q65.34375 65.640625 65.34375 64.484375Q65.34375 63.203125 64.84375 62.609375Q64.359375 62.015625 63.640625 62.015625Q62.9375 62.015625 62.46875 62.59375Q62.0 63.15625 62.0 64.390625ZM72.359375 66.734375Q71.765625 67.234375 71.21875 67.4375Q70.6875 67.640625 70.0625 67.640625Q69.03125 67.640625 68.484375 67.140625Q67.9375 66.640625 67.9375 65.859375Q67.9375 65.40625 68.140625 65.03125Q68.34375 64.640625 68.6875 64.421875Q69.03125 64.1875 69.453125 64.078125Q69.75 63.984375 70.390625 63.90625Q71.65625 63.765625 72.265625 63.546875Q72.265625 63.328125 72.265625 63.28125Q72.265625 62.625 71.96875 62.359375Q71.5625 62.015625 70.765625 62.015625Q70.03125 62.015625 69.671875 62.28125Q69.3125 62.53125 69.140625 63.1875L68.109375 63.046875Q68.25 62.390625 68.578125 61.984375Q68.90625 61.578125 69.515625 61.359375Q70.125 61.140625 70.921875 61.140625Q71.71875 61.140625 72.21875 61.328125Q72.71875 61.515625 72.953125 61.796875Q73.1875 62.078125 73.28125 62.515625Q73.328125 62.78125 73.328125 63.484375L73.328125 64.890625Q73.328125 66.359375 73.390625 66.75Q73.46875 67.140625 73.671875 67.5L72.5625 67.5Q72.40625 67.171875 72.359375 66.734375ZM72.265625 64.375Q71.6875 64.609375 70.546875 64.78125Q69.890625 64.875 69.625 65.0Q69.359375 65.109375 69.203125 65.328125Q69.0625 65.546875 69.0625 65.828125Q69.0625 66.25 69.375 66.53125Q69.703125 66.8125 70.3125 66.8125Q70.921875 66.8125 71.390625 66.546875Q71.875 66.28125 72.09375 65.8125Q72.265625 65.453125 72.265625 64.765625L72.265625 64.375ZM75.25 69.890625L75.125 68.90625Q75.46875 69.0 75.734375 69.0Q76.078125 69.0 76.28125 68.875Q76.5 68.765625 76.640625 68.5625Q76.734375 68.390625 76.96875 67.765625Q76.984375 67.6875 77.0625 67.515625L74.6875 61.28125L75.828125 61.28125L77.125 64.875Q77.375 65.5625 77.578125 66.328125Q77.765625 65.59375 78.015625 64.90625L79.34375 61.28125L80.390625 61.28125L78.03125 67.609375Q77.640625 68.625 77.4375 69.015625Q77.15625 69.546875 76.78125 69.78125Q76.421875 70.03125 75.921875 70.03125Q75.625 70.03125 75.25 69.890625ZM79.875 65.640625L80.90625 65.484375Q81.0 66.109375 81.390625 66.4375Q81.796875 66.765625 82.53125 66.765625Q83.25 66.765625 83.59375 66.484375Q83.953125 66.1875 83.953125 65.78125Q83.953125 65.421875 83.640625 65.21875Q83.421875 65.078125 82.5625 64.859375Q81.40625 64.5625 80.953125 64.359375Q80.515625 64.140625 80.28125 63.765625Q80.046875 63.390625 80.046875 62.921875Q80.046875 62.515625 80.234375 62.15625Q80.421875 61.796875 80.75 61.5625Q81.0 61.390625 81.421875 61.265625Q81.84375 61.140625 82.34375 61.140625Q83.0625 61.140625 83.609375 61.359375Q84.171875 61.5625 84.4375 61.921875Q84.703125 62.28125 84.796875 62.875L83.765625 63.015625Q83.703125 62.546875 83.359375 62.28125Q83.03125 62.0 82.40625 62.0Q81.6875 62.0 81.375 62.25Q81.0625 62.484375 81.0625 62.8125Q81.0625 63.015625 81.1875 63.171875Q81.328125 63.34375 81.59375 63.453125Q81.75 63.515625 82.53125 63.71875Q83.65625 64.03125 84.09375 64.21875Q84.53125 64.40625 84.78125 64.765625Q85.03125 65.125 85.03125 65.671875Q85.03125 66.203125 84.71875 66.671875Q84.421875 67.125 83.84375 67.390625Q83.265625 67.640625 82.53125 67.640625Q81.3125 67.640625 80.671875 67.140625Q80.046875 66.625 79.875 65.640625Z" fill-rule="nonzero"/><path fill="#9e9e9e" d="M29.96875 84.5L28.921875 84.5L28.921875 77.78125Q28.53125 78.140625 27.90625 78.515625Q27.296875 78.875 26.8125 79.046875L26.8125 78.03125Q27.6875 77.609375 28.34375 77.03125Q29.015625 76.4375 29.296875 75.875L29.96875 75.875L29.96875 84.5ZM33.0 80.265625Q33.0 78.734375 33.3125 77.8125Q33.625 76.875 34.234375 76.375Q34.859375 75.875 35.796875 75.875Q36.484375 75.875 37.0 76.15625Q37.53125 76.4375 37.875 76.96875Q38.21875 77.484375 38.40625 78.234375Q38.59375 78.984375 38.59375 80.265625Q38.59375 81.78125 38.28125 82.703125Q37.984375 83.625 37.359375 84.140625Q36.75 84.640625 35.796875 84.640625Q34.5625 84.640625 33.84375 83.75Q33.0 82.6875 33.0 80.265625ZM34.078125 80.265625Q34.078125 82.375 34.578125 83.078125Q35.078125 83.78125 35.796875 83.78125Q36.53125 83.78125 37.015625 83.078125Q37.515625 82.375 37.515625 80.265625Q37.515625 78.140625 37.015625 77.453125Q36.53125 76.75 35.78125 76.75Q35.0625 76.75 34.625 77.359375Q34.078125 78.140625 34.078125 80.265625ZM40.59375 84.5L40.59375 83.296875L41.796875 83.296875L41.796875 84.5L40.59375 84.5ZM46.375 84.5L46.375 82.4375L42.65625 82.4375L42.65625 81.46875L46.578125 75.90625L47.4375 75.90625L47.4375 81.46875L48.59375 81.46875L48.59375 82.4375L47.4375 82.4375L47.4375 84.5L46.375 84.5ZM46.375 81.46875L46.375 77.609375L43.6875 81.46875L46.375 81.46875ZM50.203125 77.96875Q50.203125 77.046875 50.65625 76.40625Q51.125 75.765625 52.0 75.765625Q52.8125 75.765625 53.34375 76.34375Q53.875 76.921875 53.875 78.03125Q53.875 79.125 53.328125 79.71875Q52.796875 80.296875 52.015625 80.296875Q51.234375 80.296875 50.71875 79.71875Q50.203125 79.140625 50.203125 77.96875ZM52.03125 76.484375Q51.640625 76.484375 51.375 76.828125Q51.125 77.171875 51.125 78.078125Q51.125 78.90625 51.375 79.25Q51.640625 79.578125 52.03125 79.578125Q52.4375 79.578125 52.6875 79.234375Q52.953125 78.890625 52.953125 78.0Q52.953125 77.15625 52.6875 76.828125Q52.421875 76.484375 52.03125 76.484375ZM52.03125 84.8125L56.734375 75.765625L57.59375 75.765625L52.90625 84.8125L52.03125 84.8125ZM55.75 82.484375Q55.75 81.5625 56.203125 80.921875Q56.671875 80.28125 57.5625 80.28125Q58.375 80.28125 58.90625 80.859375Q59.4375 81.421875 59.4375 82.546875Q59.4375 83.640625 58.890625 84.234375Q58.359375 84.8125 57.5625 84.8125Q56.796875 84.8125 56.265625 84.234375Q55.75 83.65625 55.75 82.484375ZM57.59375 81.0Q57.1875 81.0 56.921875 81.34375Q56.671875 81.6875 56.671875 82.59375Q56.671875 83.40625 56.9375 83.75Q57.203125 84.09375 57.59375 84.09375Q57.984375 84.09375 58.25 83.75Q58.515625 83.40625 58.515625 82.5Q58.515625 81.671875 58.25 81.34375Q57.984375 81.0 57.59375 81.0Z" fill-rule="nonzero"/><path stroke="#757575" stroke-width="1.0" stroke-linecap="butt" d="M25.5 72.0L177.0 72.0L296.96436 70.10432" fill-rule="nonzero"/><path fill="#9e9e9e" d="M298.96436 70.10432C298.96436 68.99974 298.0689 68.10432 296.96436 68.10432C295.85977 68.10432 294.96436 68.99974 294.96436 70.10432C294.96436 71.208885 295.85977 72.10432 296.96436 72.10432C298.0689 72.10432 298.96436 71.208885 298.96436 70.10432" fill-rule="nonzero"/><path fill="#1a1a1a" d="M32.0625 429.44028L33.203125 429.44028L33.203125 434.40903Q33.203125 435.7059 32.90625 436.47153Q32.609375 437.22153 31.84375 437.7059Q31.078125 438.17465 29.84375 438.17465Q28.640625 438.17465 27.859375 437.7684Q27.09375 437.34653 26.765625 436.56528Q26.4375 435.7684 26.4375 434.40903L26.4375 429.44028L27.578125 429.44028L27.578125 434.3934Q27.578125 435.5184 27.78125 436.04965Q28.0 436.5809 28.5 436.87778Q29.015625 437.15903 29.75 437.15903Q31.0 437.15903 31.53125 436.59653Q32.0625 436.0184 32.0625 434.3934L32.0625 429.44028ZM35.296875 438.03403L35.296875 431.81528L36.234375 431.81528L36.234375 432.69028Q36.921875 431.67465 38.21875 431.67465Q38.78125 431.67465 39.25 431.87778Q39.734375 432.0809 39.96875 432.40903Q40.203125 432.73715 40.296875 433.17465Q40.34375 433.47153 40.34375 434.2059L40.34375 438.03403L39.296875 438.03403L39.296875 434.25278Q39.296875 433.59653 39.171875 433.28403Q39.046875 432.97153 38.734375 432.78403Q38.421875 432.5809 38.0 432.5809Q37.328125 432.5809 36.828125 433.0184Q36.34375 433.44028 36.34375 434.62778L36.34375 438.03403L35.296875 438.03403ZM42.265625 438.03403L42.265625 429.44028L43.328125 429.44028L43.328125 438.03403L42.265625 438.03403ZM45.296875 430.65903L45.296875 429.44028L46.359375 429.44028L46.359375 430.65903L45.296875 430.65903ZM45.296875 438.03403L45.296875 431.81528L46.359375 431.81528L46.359375 438.03403L45.296875 438.03403ZM48.296875 438.03403L48.296875 431.81528L49.234375 431.81528L49.234375 432.69028Q49.53125 432.22153 50.015625 431.9559Q50.5 431.67465 51.125 431.67465Q51.8125 431.67465 52.25 431.9559Q52.703125 432.23715 52.875 432.75278Q53.625 431.67465 54.796875 431.67465Q55.734375 431.67465 56.21875 432.19028Q56.71875 432.69028 56.71875 433.7684L56.71875 438.03403L55.671875 438.03403L55.671875 434.11215Q55.671875 433.48715 55.5625 433.2059Q55.46875 432.92465 55.203125 432.75278Q54.9375 432.5809 54.5625 432.5809Q53.90625 432.5809 53.46875 433.0184Q53.046875 433.4559 53.046875 434.42465L53.046875 438.03403L51.984375 438.03403L51.984375 433.98715Q51.984375 433.28403 51.71875 432.94028Q51.46875 432.5809 50.890625 432.5809Q50.4375 432.5809 50.0625 432.81528Q49.6875 433.04965 49.515625 433.50278Q49.34375 433.9559 49.34375 434.79965L49.34375 438.03403L48.296875 438.03403ZM59.296875 430.65903L59.296875 429.44028L60.359375 429.44028L60.359375 430.65903L59.296875 430.65903ZM59.296875 438.03403L59.296875 431.81528L60.359375 431.81528L60.359375 438.03403L59.296875 438.03403ZM64.59375 437.09653L64.75 438.0184Q64.296875 438.11215 63.953125 438.11215Q63.375 438.11215 63.0625 437.94028Q62.75 437.75278 62.609375 437.4559Q62.484375 437.15903 62.484375 436.2059L62.484375 432.62778L61.71875 432.62778L61.71875 431.81528L62.484375 431.81528L62.484375 430.2684L63.53125 429.6434L63.53125 431.81528L64.59375 431.81528L64.59375 432.62778L63.53125 432.62778L63.53125 436.2684Q63.53125 436.72153 63.578125 436.84653Q63.640625 436.97153 63.765625 437.04965Q63.890625 437.12778 64.125 437.12778Q64.3125 437.12778 64.59375 437.09653ZM69.546875 436.03403L70.640625 436.15903Q70.390625 437.11215 69.6875 437.6434Q68.984375 438.17465 67.90625 438.17465Q66.546875 438.17465 65.734375 437.3309Q64.9375 436.48715 64.9375 434.97153Q64.9375 433.40903 65.75 432.54965Q66.5625 431.67465 67.84375 431.67465Q69.09375 431.67465 69.875 432.5184Q70.671875 433.36215 70.671875 434.90903Q70.671875 435.00278 70.671875 435.19028L66.03125 435.19028Q66.09375 436.22153 66.609375 436.7684Q67.125 437.29965 67.90625 437.29965Q68.484375 437.29965 68.890625 437.00278Q69.3125 436.69028 69.546875 436.03403ZM66.09375 434.3309L69.5625 434.3309Q69.5 433.53403 69.171875 433.1434Q68.65625 432.53403 67.859375 432.53403Q67.125 432.53403 66.625 433.0184Q66.140625 433.50278 66.09375 434.3309ZM76.328125 438.03403L76.328125 437.25278Q75.734375 438.17465 74.59375 438.17465Q73.84375 438.17465 73.21875 437.7684Q72.59375 437.34653 72.25 436.61215Q71.90625 435.87778 71.90625 434.92465Q71.90625 434.00278 72.21875 433.23715Q72.53125 432.47153 73.15625 432.0809Q73.78125 431.67465 74.546875 431.67465Q75.109375 431.67465 75.546875 431.90903Q75.984375 432.1434 76.265625 432.5184L76.265625 429.44028L77.3125 429.44028L77.3125 438.03403L76.328125 438.03403ZM73.0 434.92465Q73.0 436.12778 73.5 436.72153Q74.0 437.29965 74.6875 437.29965Q75.375 437.29965 75.859375 436.73715Q76.34375 436.17465 76.34375 435.0184Q76.34375 433.73715 75.84375 433.1434Q75.359375 432.54965 74.640625 432.54965Q73.9375 432.54965 73.46875 433.12778Q73.0 433.69028 73.0 434.92465Z" fill-rule="nonzero"/><path fill="#9e9e9e" d="M26.0 452.78403L27.109375 452.69028Q27.234375 453.50278 27.671875 453.90903Q28.125 454.31528 28.765625 454.31528Q29.515625 454.31528 30.046875 453.73715Q30.578125 453.15903 30.578125 452.22153Q30.578125 451.31528 30.0625 450.79965Q29.5625 450.2684 28.734375 450.2684Q28.234375 450.2684 27.8125 450.50278Q27.40625 450.73715 27.171875 451.09653L26.1875 450.97153L27.015625 446.56528L31.296875 446.56528L31.296875 447.56528L27.859375 447.56528L27.40625 449.87778Q28.171875 449.3309 29.015625 449.3309Q30.140625 449.3309 30.90625 450.11215Q31.6875 450.8934 31.6875 452.12778Q31.6875 453.28403 31.015625 454.1434Q30.1875 455.17465 28.765625 455.17465Q27.59375 455.17465 26.84375 454.5184Q26.109375 453.86215 26.0 452.78403ZM36.375 455.03403L36.375 452.97153L32.65625 452.97153L32.65625 452.00278L36.578125 446.44028L37.4375 446.44028L37.4375 452.00278L38.59375 452.00278L38.59375 452.97153L37.4375 452.97153L37.4375 455.03403L36.375 455.03403ZM36.375 452.00278L36.375 448.1434L33.6875 452.00278L36.375 452.00278ZM40.59375 455.03403L40.59375 453.8309L41.796875 453.8309L41.796875 455.03403L40.59375 455.03403ZM44.625 450.37778Q43.96875 450.12778 43.640625 449.69028Q43.328125 449.23715 43.328125 448.62778Q43.328125 447.69028 44.0 447.04965Q44.6875 446.40903 45.796875 446.40903Q46.921875 446.40903 47.609375 447.06528Q48.296875 447.72153 48.296875 448.65903Q48.296875 449.25278 47.984375 449.69028Q47.671875 450.12778 47.03125 450.37778Q47.828125 450.62778 48.234375 451.2059Q48.640625 451.78403 48.640625 452.5809Q48.640625 453.67465 47.859375 454.42465Q47.09375 455.17465 45.8125 455.17465Q44.546875 455.17465 43.765625 454.42465Q42.984375 453.67465 42.984375 452.54965Q42.984375 451.7059 43.40625 451.1434Q43.84375 450.5809 44.625 450.37778ZM44.40625 448.5809Q44.40625 449.19028 44.796875 449.5809Q45.203125 449.97153 45.828125 449.97153Q46.4375 449.97153 46.828125 449.59653Q47.21875 449.2059 47.21875 448.6434Q47.21875 448.06528 46.8125 447.67465Q46.40625 447.2684 45.8125 447.2684Q45.203125 447.2684 44.796875 447.65903Q44.40625 448.04965 44.40625 448.5809ZM44.078125 452.54965Q44.078125 453.00278 44.28125 453.42465Q44.5 453.84653 44.921875 454.0809Q45.34375 454.31528 45.828125 454.31528Q46.578125 454.31528 47.0625 453.8309Q47.5625 453.34653 47.5625 452.59653Q47.5625 451.8309 47.0625 451.3309Q46.5625 450.8309 45.796875 450.8309Q45.046875 450.8309 44.5625 451.3309Q44.078125 451.81528 44.078125 452.54965ZM50.203125 448.50278Q50.203125 447.5809 50.65625 446.94028Q51.125 446.29965 52.0 446.29965Q52.8125 446.29965 53.34375 446.87778Q53.875 447.4559 53.875 448.56528Q53.875 449.65903 53.328125 450.25278Q52.796875 450.8309 52.015625 450.8309Q51.234375 450.8309 50.71875 450.25278Q50.203125 449.67465 50.203125 448.50278ZM52.03125 447.0184Q51.640625 447.0184 51.375 447.36215Q51.125 447.7059 51.125 448.61215Q51.125 449.44028 51.375 449.78403Q51.640625 450.11215 52.03125 450.11215Q52.4375 450.11215 52.6875 449.7684Q52.953125 449.42465 52.953125 448.53403Q52.953125 447.69028 52.6875 447.36215Q52.421875 447.0184 52.03125 447.0184ZM52.03125 455.34653L56.734375 446.29965L57.59375 446.29965L52.90625 455.34653L52.03125 455.34653ZM55.75 453.0184Q55.75 452.09653 56.203125 451.4559Q56.671875 450.81528 57.5625 450.81528Q58.375 450.81528 58.90625 451.3934Q59.4375 451.9559 59.4375 453.0809Q59.4375 454.17465 58.890625 454.7684Q58.359375 455.34653 57.5625 455.34653Q56.796875 455.34653 56.265625 454.7684Q55.75 454.19028 55.75 453.0184ZM57.59375 451.53403Q57.1875 451.53403 56.921875 451.87778Q56.671875 452.22153 56.671875 453.12778Q56.671875 453.94028 56.9375 454.28403Q57.203125 454.62778 57.59375 454.62778Q57.984375 454.62778 58.25 454.28403Q58.515625 453.94028 58.515625 453.03403Q58.515625 452.2059 58.25 451.87778Q57.984375 451.53403 57.59375 451.53403Z" fill-rule="nonzero"/><path stroke="#757575" stroke-width="1.0" stroke-linecap="butt" d="M25.5 442.53403L177.0 442.53403L301.29797 442.53403" fill-rule="nonzero"/><path fill="#9e9e9e" d="M303.29797 442.53403C303.29797 441.42944 302.40253 440.53403 301.29797 440.53403C300.1934 440.53403 299.29797 441.42944 299.29797 442.53403C299.29797 443.63858 300.1934 444.53403 301.29797 444.53403C302.40253 444.53403 303.29797 443.63858 303.29797 442.53403" fill-rule="nonzero"/><path fill="#1a1a1a" d="M742.96875 57.99535L741.9219 57.99535L741.9219 51.2766Q741.53125 51.635975 740.90625 52.010975Q740.2969 52.37035 739.8125 52.542225L739.8125 51.5266Q740.6875 51.104725 741.34375 50.5266Q742.0156 49.93285 742.2969 49.37035L742.96875 49.37035L742.96875 57.99535ZM751.46875 51.510975L750.4219 51.5891Q750.28125 50.9641 750.03125 50.68285Q749.59375 50.229725 748.96875 50.229725Q748.46875 50.229725 748.0781 50.510975Q747.59375 50.885975 747.2969 51.5891Q747.0156 52.2766 747.0 53.55785Q747.375 52.979725 747.9219 52.698475Q748.4844 52.417225 749.09375 52.417225Q750.1406 52.417225 750.875 53.198475Q751.625 53.979725 751.625 55.198475Q751.625 56.010975 751.2656 56.7141Q750.9219 57.4016 750.3125 57.7766Q749.7031 58.135975 748.9375 58.135975Q747.6094 58.135975 746.78125 57.167225Q745.9531 56.198475 745.9531 53.979725Q745.9531 51.479725 746.875 50.354725Q747.6719 49.37035 749.03125 49.37035Q750.0469 49.37035 750.6875 49.948475Q751.34375 50.510975 751.46875 51.510975ZM747.1719 55.2141Q747.1719 55.760975 747.3906 56.260975Q747.625 56.74535 748.03125 57.010975Q748.4531 57.2766 748.9219 57.2766Q749.5781 57.2766 750.0625 56.74535Q750.5469 56.198475 750.5469 55.2766Q750.5469 54.385975 750.0625 53.87035Q749.59375 53.354725 748.875 53.354725Q748.15625 53.354725 747.65625 53.87035Q747.1719 54.385975 747.1719 55.2141ZM752.875 55.417225L752.875 54.354725L756.125 54.354725L756.125 55.417225L752.875 55.417225ZM762.5469 56.979725L762.5469 57.99535L756.8594 57.99535Q756.8594 57.62035 756.9844 57.260975Q757.2031 56.68285 757.6719 56.12035Q758.15625 55.55785 759.0625 54.823475Q760.46875 53.667225 760.9531 52.99535Q761.4531 52.323475 761.4531 51.729725Q761.4531 51.104725 761.0 50.68285Q760.5469 50.24535 759.8281 50.24535Q759.0625 50.24535 758.6094 50.698475Q758.15625 51.1516 758.1406 51.9641L757.0625 51.854725Q757.1719 50.635975 757.8906 50.010975Q758.625 49.37035 759.8594 49.37035Q761.09375 49.37035 761.8125 50.05785Q762.53125 50.74535 762.53125 51.760975Q762.53125 52.2766 762.3125 52.7766Q762.1094 53.260975 761.6094 53.823475Q761.125 54.37035 760.0 55.323475Q759.0469 56.12035 758.7656 56.417225Q758.5 56.698475 758.3281 56.979725L762.5469 56.979725ZM764.0 53.760975Q764.0 52.229725 764.3125 51.30785Q764.625 50.37035 765.2344 49.87035Q765.8594 49.37035 766.7969 49.37035Q767.4844 49.37035 768.0 49.6516Q768.53125 49.93285 768.875 50.4641Q769.21875 50.979725 769.40625 51.729725Q769.59375 52.479725 769.59375 53.760975Q769.59375 55.2766 769.28125 56.198475Q768.9844 57.12035 768.3594 57.635975Q767.75 58.135975 766.7969 58.135975Q765.5625 58.135975 764.84375 57.24535Q764.0 56.18285 764.0 53.760975ZM765.0781 53.760975Q765.0781 55.87035 765.5781 56.573475Q766.0781 57.2766 766.7969 57.2766Q767.53125 57.2766 768.0156 56.573475Q768.5156 55.87035 768.5156 53.760975Q768.5156 51.635975 768.0156 50.948475Q767.53125 50.24535 766.78125 50.24535Q766.0625 50.24535 765.625 50.854725Q765.0781 51.635975 765.0781 53.760975ZM778.3281 57.99535L778.3281 57.2141Q777.7344 58.135975 776.59375 58.135975Q775.84375 58.135975 775.21875 57.729725Q774.59375 57.30785 774.25 56.573475Q773.90625 55.8391 773.90625 54.885975Q773.90625 53.9641 774.21875 53.198475Q774.53125 52.43285 775.15625 52.042225Q775.78125 51.635975 776.5469 51.635975Q777.1094 51.635975 777.5469 51.87035Q777.9844 52.104725 778.2656 52.479725L778.2656 49.4016L779.3125 49.4016L779.3125 57.99535L778.3281 57.99535ZM775.0 54.885975Q775.0 56.0891 775.5 56.68285Q776.0 57.260975 776.6875 57.260975Q777.375 57.260975 777.8594 56.698475Q778.34375 56.135975 778.34375 54.979725Q778.34375 53.698475 777.84375 53.104725Q777.3594 52.510975 776.6406 52.510975Q775.9375 52.510975 775.46875 53.0891Q775.0 53.6516 775.0 54.885975ZM785.3594 57.229725Q784.7656 57.729725 784.21875 57.93285Q783.6875 58.135975 783.0625 58.135975Q782.03125 58.135975 781.4844 57.635975Q780.9375 57.135975 780.9375 56.354725Q780.9375 55.9016 781.1406 55.5266Q781.34375 55.135975 781.6875 54.917225Q782.03125 54.68285 782.4531 54.573475Q782.75 54.479725 783.3906 54.4016Q784.65625 54.260975 785.2656 54.042225Q785.2656 53.823475 785.2656 53.7766Q785.2656 53.12035 784.96875 52.854725Q784.5625 52.510975 783.7656 52.510975Q783.03125 52.510975 782.6719 52.7766Q782.3125 53.0266 782.1406 53.68285L781.1094 53.542225Q781.25 52.885975 781.5781 52.479725Q781.90625 52.073475 782.5156 51.854725Q783.125 51.635975 783.9219 51.635975Q784.71875 51.635975 785.21875 51.823475Q785.71875 52.010975 785.9531 52.292225Q786.1875 52.573475 786.28125 53.010975Q786.3281 53.2766 786.3281 53.979725L786.3281 55.385975Q786.3281 56.854725 786.3906 57.24535Q786.46875 57.635975 786.6719 57.99535L785.5625 57.99535Q785.40625 57.667225 785.3594 57.229725ZM785.2656 54.87035Q784.6875 55.104725 783.5469 55.2766Q782.8906 55.37035 782.625 55.49535Q782.3594 55.604725 782.2031 55.823475Q782.0625 56.042225 782.0625 56.323475Q782.0625 56.74535 782.375 57.0266Q782.7031 57.30785 783.3125 57.30785Q783.9219 57.30785 784.3906 57.042225Q784.875 56.7766 785.09375 56.30785Q785.2656 55.948475 785.2656 55.260975L785.2656 54.87035ZM788.25 60.385975L788.125 59.4016Q788.46875 59.49535 788.7344 59.49535Q789.0781 59.49535 789.28125 59.37035Q789.5 59.260975 789.6406 59.05785Q789.7344 58.885975 789.96875 58.260975Q789.9844 58.18285 790.0625 58.010975L787.6875 51.7766L788.8281 51.7766L790.125 55.37035Q790.375 56.05785 790.5781 56.823475Q790.7656 56.0891 791.0156 55.4016L792.34375 51.7766L793.3906 51.7766L791.03125 58.104725Q790.6406 59.12035 790.4375 59.510975Q790.15625 60.042225 789.78125 60.2766Q789.4219 60.5266 788.9219 60.5266Q788.625 60.5266 788.25 60.385975ZM792.875 56.135975L793.90625 55.979725Q794.0 56.604725 794.3906 56.93285Q794.7969 57.260975 795.53125 57.260975Q796.25 57.260975 796.59375 56.979725Q796.9531 56.68285 796.9531 56.2766Q796.9531 55.917225 796.6406 55.7141Q796.4219 55.573475 795.5625 55.354725Q794.40625 55.05785 793.9531 54.854725Q793.5156 54.635975 793.28125 54.260975Q793.0469 53.885975 793.0469 53.417225Q793.0469 53.010975 793.2344 52.6516Q793.4219 52.292225 793.75 52.05785Q794.0 51.885975 794.4219 51.760975Q794.84375 51.635975 795.34375 51.635975Q796.0625 51.635975 796.6094 51.854725Q797.1719 52.05785 797.4375 52.417225Q797.7031 52.7766 797.7969 53.37035L796.7656 53.510975Q796.7031 53.042225 796.3594 52.7766Q796.03125 52.49535 795.40625 52.49535Q794.6875 52.49535 794.375 52.74535Q794.0625 52.979725 794.0625 53.30785Q794.0625 53.510975 794.1875 53.667225Q794.3281 53.8391 794.59375 53.948475Q794.75 54.010975 795.53125 54.2141Q796.65625 54.5266 797.09375 54.7141Q797.53125 54.9016 797.78125 55.260975Q798.03125 55.62035 798.03125 56.167225Q798.03125 56.698475 797.71875 57.167225Q797.4219 57.62035 796.84375 57.885975Q796.2656 58.135975 795.53125 58.135975Q794.3125 58.135975 793.6719 57.635975Q793.0469 57.12035 792.875 56.135975Z" fill-rule="nonzero"/><path fill="#9e9e9e" d="M768.96875 74.99535L767.9219 74.99535L767.9219 68.2766Q767.53125 68.63598 766.90625 69.01098Q766.2969 69.37035 765.8125 69.54223L765.8125 68.5266Q766.6875 68.10473 767.34375 67.5266Q768.0156 66.93285 768.2969 66.37035L768.96875 66.37035L768.96875 74.99535ZM772.0 72.74535L773.1094 72.6516Q773.2344 73.4641 773.6719 73.87035Q774.125 74.2766 774.7656 74.2766Q775.5156 74.2766 776.0469 73.69848Q776.5781 73.12035 776.5781 72.18285Q776.5781 71.2766 776.0625 70.76098Q775.5625 70.22973 774.7344 70.22973Q774.2344 70.22973 773.8125 70.4641Q773.40625 70.69848 773.1719 71.05785L772.1875 70.93285L773.0156 66.5266L777.2969 66.5266L777.2969 67.5266L773.8594 67.5266L773.40625 69.8391Q774.1719 69.29223 775.0156 69.29223Q776.1406 69.29223 776.90625 70.07348Q777.6875 70.85473 777.6875 72.0891Q777.6875 73.24535 777.0156 74.10473Q776.1875 75.13598 774.7656 75.13598Q773.59375 75.13598 772.84375 74.47973Q772.1094 73.82348 772.0 72.74535ZM779.59375 74.99535L779.59375 73.79223L780.7969 73.79223L780.7969 74.99535L779.59375 74.99535ZM787.46875 68.51098L786.4219 68.5891Q786.28125 67.9641 786.03125 67.68285Q785.59375 67.22973 784.96875 67.22973Q784.46875 67.22973 784.0781 67.51098Q783.59375 67.88598 783.2969 68.5891Q783.0156 69.2766 783.0 70.55785Q783.375 69.97973 783.9219 69.69848Q784.4844 69.41723 785.09375 69.41723Q786.1406 69.41723 786.875 70.19848Q787.625 70.97973 787.625 72.19848Q787.625 73.01098 787.2656 73.7141Q786.9219 74.4016 786.3125 74.7766Q785.7031 75.13598 784.9375 75.13598Q783.6094 75.13598 782.78125 74.16723Q781.9531 73.19848 781.9531 70.97973Q781.9531 68.47973 782.875 67.35473Q783.6719 66.37035 785.03125 66.37035Q786.0469 66.37035 786.6875 66.94848Q787.34375 67.51098 787.46875 68.51098ZM783.1719 72.2141Q783.1719 72.76098 783.3906 73.26098Q783.625 73.74535 784.03125 74.01098Q784.4531 74.2766 784.9219 74.2766Q785.5781 74.2766 786.0625 73.74535Q786.5469 73.19848 786.5469 72.2766Q786.5469 71.38598 786.0625 70.87035Q785.59375 70.35473 784.875 70.35473Q784.15625 70.35473 783.65625 70.87035Q783.1719 71.38598 783.1719 72.2141ZM789.2031 68.4641Q789.2031 67.54223 789.65625 66.9016Q790.125 66.26098 791.0 66.26098Q791.8125 66.26098 792.34375 66.8391Q792.875 67.41723 792.875 68.5266Q792.875 69.62035 792.3281 70.2141Q791.7969 70.79223 791.0156 70.79223Q790.2344 70.79223 789.71875 70.2141Q789.2031 69.63598 789.2031 68.4641ZM791.03125 66.97973Q790.6406 66.97973 790.375 67.32348Q790.125 67.66723 790.125 68.57348Q790.125 69.4016 790.375 69.74535Q790.6406 70.07348 791.03125 70.07348Q791.4375 70.07348 791.6875 69.72973Q791.9531 69.38598 791.9531 68.49535Q791.9531 67.6516 791.6875 67.32348Q791.4219 66.97973 791.03125 66.97973ZM791.03125 75.30785L795.7344 66.26098L796.59375 66.26098L791.90625 75.30785L791.03125 75.30785ZM794.75 72.97973Q794.75 72.05785 795.2031 71.41723Q795.6719 70.7766 796.5625 70.7766Q797.375 70.7766 797.90625 71.35473Q798.4375 71.91723 798.4375 73.04223Q798.4375 74.13598 797.8906 74.72973Q797.3594 75.30785 796.5625 75.30785Q795.7969 75.30785 795.2656 74.72973Q794.75 74.1516 794.75 72.97973ZM796.59375 71.49535Q796.1875 71.49535 795.9219 71.8391Q795.6719 72.18285 795.6719 73.0891Q795.6719 73.9016 795.9375 74.24535Q796.2031 74.5891 796.59375 74.5891Q796.9844 74.5891 797.25 74.24535Q797.5156 73.9016 797.5156 72.99535Q797.5156 72.16723 797.25 71.8391Q796.9844 71.49535 796.59375 71.49535Z" fill-rule="nonzero"/><path stroke="#757575" stroke-width="1.0" stroke-linecap="butt" d="M799.5 62.49535L648.0 62.49535L514.85657 62.49535" fill-rule="nonzero"/><path fill="#9e9e9e" d="M516.85657 62.49535C516.85657 61.39078 515.9611 60.49535 514.85657 60.49535C513.75195 60.49535 512.85657 61.39078 512.85657 62.49535C512.85657 63.599922 513.75195 64.49535 514.85657 64.49535C515.9611 64.49535 516.85657 63.599922 516.85657 62.49535" fill-rule="nonzero"/><path fill="#1a1a1a" d="M755.5469 226.69455L755.5469 227.71017L749.8594 227.71017Q749.8594 227.33517 749.9844 226.9758Q750.2031 226.39767 750.6719 225.83517Q751.15625 225.27267 752.0625 224.5383Q753.46875 223.38205 753.9531 222.71017Q754.4531 222.0383 754.4531 221.44455Q754.4531 220.81955 754.0 220.39767Q753.5469 219.96017 752.8281 219.96017Q752.0625 219.96017 751.6094 220.4133Q751.15625 220.86642 751.1406 221.67892L750.0625 221.56955Q750.1719 220.3508 750.8906 219.7258Q751.625 219.08517 752.8594 219.08517Q754.09375 219.08517 754.8125 219.77267Q755.53125 220.46017 755.53125 221.4758Q755.53125 221.99142 755.3125 222.49142Q755.1094 222.9758 754.6094 223.5383Q754.125 224.08517 753.0 225.0383Q752.0469 225.83517 751.7656 226.13205Q751.5 226.4133 751.3281 226.69455L755.5469 226.69455ZM760.96875 227.71017L759.9219 227.71017L759.9219 220.99142Q759.53125 221.3508 758.90625 221.7258Q758.2969 222.08517 757.8125 222.25705L757.8125 221.24142Q758.6875 220.81955 759.34375 220.24142Q760.0156 219.64767 760.2969 219.08517L760.96875 219.08517L760.96875 227.71017ZM766.5 226.31955L766.5 223.96017L764.1719 223.96017L764.1719 222.9758L766.5 222.9758L766.5 220.64767L767.5 220.64767L767.5 222.9758L769.84375 222.9758L769.84375 223.96017L767.5 223.96017L767.5 226.31955L766.5 226.31955ZM778.3281 227.71017L778.3281 226.92892Q777.7344 227.8508 776.59375 227.8508Q775.84375 227.8508 775.21875 227.44455Q774.59375 227.02267 774.25 226.2883Q773.90625 225.55392 773.90625 224.6008Q773.90625 223.67892 774.21875 222.9133Q774.53125 222.14767 775.15625 221.75705Q775.78125 221.3508 776.5469 221.3508Q777.1094 221.3508 777.5469 221.58517Q777.9844 221.81955 778.2656 222.19455L778.2656 219.11642L779.3125 219.11642L779.3125 227.71017L778.3281 227.71017ZM775.0 224.6008Q775.0 225.80392 775.5 226.39767Q776.0 226.9758 776.6875 226.9758Q777.375 226.9758 777.8594 226.4133Q778.34375 225.8508 778.34375 224.69455Q778.34375 223.4133 777.84375 222.81955Q777.3594 222.2258 776.6406 222.2258Q775.9375 222.2258 775.46875 222.80392Q775.0 223.36642 775.0 224.6008ZM785.3594 226.94455Q784.7656 227.44455 784.21875 227.64767Q783.6875 227.8508 783.0625 227.8508Q782.03125 227.8508 781.4844 227.3508Q780.9375 226.8508 780.9375 226.06955Q780.9375 225.61642 781.1406 225.24142Q781.34375 224.8508 781.6875 224.63205Q782.03125 224.39767 782.4531 224.2883Q782.75 224.19455 783.3906 224.11642Q784.65625 223.9758 785.2656 223.75705Q785.2656 223.5383 785.2656 223.49142Q785.2656 222.83517 784.96875 222.56955Q784.5625 222.2258 783.7656 222.2258Q783.03125 222.2258 782.6719 222.49142Q782.3125 222.74142 782.1406 223.39767L781.1094 223.25705Q781.25 222.6008 781.5781 222.19455Q781.90625 221.7883 782.5156 221.56955Q783.125 221.3508 783.9219 221.3508Q784.71875 221.3508 785.21875 221.5383Q785.71875 221.7258 785.9531 222.00705Q786.1875 222.2883 786.28125 222.7258Q786.3281 222.99142 786.3281 223.69455L786.3281 225.1008Q786.3281 226.56955 786.3906 226.96017Q786.46875 227.3508 786.6719 227.71017L785.5625 227.71017Q785.40625 227.38205 785.3594 226.94455ZM785.2656 224.58517Q784.6875 224.81955 783.5469 224.99142Q782.8906 225.08517 782.625 225.21017Q782.3594 225.31955 782.2031 225.5383Q782.0625 225.75705 782.0625 226.0383Q782.0625 226.46017 782.375 226.74142Q782.7031 227.02267 783.3125 227.02267Q783.9219 227.02267 784.3906 226.75705Q784.875 226.49142 785.09375 226.02267Q785.2656 225.6633 785.2656 224.9758L785.2656 224.58517ZM788.25 230.1008L788.125 229.11642Q788.46875 229.21017 788.7344 229.21017Q789.0781 229.21017 789.28125 229.08517Q789.5 228.9758 789.6406 228.77267Q789.7344 228.6008 789.96875 227.9758Q789.9844 227.89767 790.0625 227.7258L787.6875 221.49142L788.8281 221.49142L790.125 225.08517Q790.375 225.77267 790.5781 226.5383Q790.7656 225.80392 791.0156 225.11642L792.34375 221.49142L793.3906 221.49142L791.03125 227.81955Q790.6406 228.83517 790.4375 229.2258Q790.15625 229.75705 789.78125 229.99142Q789.4219 230.24142 788.9219 230.24142Q788.625 230.24142 788.25 230.1008ZM792.875 225.8508L793.90625 225.69455Q794.0 226.31955 794.3906 226.64767Q794.7969 226.9758 795.53125 226.9758Q796.25 226.9758 796.59375 226.69455Q796.9531 226.39767 796.9531 225.99142Q796.9531 225.63205 796.6406 225.42892Q796.4219 225.2883 795.5625 225.06955Q794.40625 224.77267 793.9531 224.56955Q793.5156 224.3508 793.28125 223.9758Q793.0469 223.6008 793.0469 223.13205Q793.0469 222.7258 793.2344 222.36642Q793.4219 222.00705 793.75 221.77267Q794.0 221.6008 794.4219 221.4758Q794.84375 221.3508 795.34375 221.3508Q796.0625 221.3508 796.6094 221.56955Q797.1719 221.77267 797.4375 222.13205Q797.7031 222.49142 797.7969 223.08517L796.7656 223.2258Q796.7031 222.75705 796.3594 222.49142Q796.03125 222.21017 795.40625 222.21017Q794.6875 222.21017 794.375 222.46017Q794.0625 222.69455 794.0625 223.02267Q794.0625 223.2258 794.1875 223.38205Q794.3281 223.55392 794.59375 223.6633Q794.75 223.7258 795.53125 223.92892Q796.65625 224.24142 797.09375 224.42892Q797.53125 224.61642 797.78125 224.9758Q798.03125 225.33517 798.03125 225.88205Q798.03125 226.4133 797.71875 226.88205Q797.4219 227.33517 796.84375 227.6008Q796.2656 227.8508 795.53125 227.8508Q794.3125 227.8508 793.6719 227.3508Q793.0469 226.83517 792.875 225.8508Z" fill-rule="nonzero"/><path fill="#9e9e9e" d="M768.96875 244.71017L767.9219 244.71017L767.9219 237.99142Q767.53125 238.3508 766.90625 238.7258Q766.2969 239.08517 765.8125 239.25705L765.8125 238.24142Q766.6875 237.81955 767.34375 237.24142Q768.0156 236.64767 768.2969 236.08517L768.96875 236.08517L768.96875 244.71017ZM772.0 242.46017L773.1094 242.36642Q773.2344 243.17892 773.6719 243.58517Q774.125 243.99142 774.7656 243.99142Q775.5156 243.99142 776.0469 243.4133Q776.5781 242.83517 776.5781 241.89767Q776.5781 240.99142 776.0625 240.4758Q775.5625 239.94455 774.7344 239.94455Q774.2344 239.94455 773.8125 240.17892Q773.40625 240.4133 773.1719 240.77267L772.1875 240.64767L773.0156 236.24142L777.2969 236.24142L777.2969 237.24142L773.8594 237.24142L773.40625 239.55392Q774.1719 239.00705 775.0156 239.00705Q776.1406 239.00705 776.90625 239.7883Q777.6875 240.56955 777.6875 241.80392Q777.6875 242.96017 777.0156 243.81955Q776.1875 244.8508 774.7656 244.8508Q773.59375 244.8508 772.84375 244.19455Q772.1094 243.5383 772.0 242.46017ZM779.59375 244.71017L779.59375 243.50705L780.7969 243.50705L780.7969 244.71017L779.59375 244.71017ZM787.46875 238.2258L786.4219 238.30392Q786.28125 237.67892 786.03125 237.39767Q785.59375 236.94455 784.96875 236.94455Q784.46875 236.94455 784.0781 237.2258Q783.59375 237.6008 783.2969 238.30392Q783.0156 238.99142 783.0 240.27267Q783.375 239.69455 783.9219 239.4133Q784.4844 239.13205 785.09375 239.13205Q786.1406 239.13205 786.875 239.9133Q787.625 240.69455 787.625 241.9133Q787.625 242.7258 787.2656 243.42892Q786.9219 244.11642 786.3125 244.49142Q785.7031 244.8508 784.9375 244.8508Q783.6094 244.8508 782.78125 243.88205Q781.9531 242.9133 781.9531 240.69455Q781.9531 238.19455 782.875 237.06955Q783.6719 236.08517 785.03125 236.08517Q786.0469 236.08517 786.6875 236.6633Q787.34375 237.2258 787.46875 238.2258ZM783.1719 241.92892Q783.1719 242.4758 783.3906 242.9758Q783.625 243.46017 784.03125 243.7258Q784.4531 243.99142 784.9219 243.99142Q785.5781 243.99142 786.0625 243.46017Q786.5469 242.9133 786.5469 241.99142Q786.5469 241.1008 786.0625 240.58517Q785.59375 240.06955 784.875 240.06955Q784.15625 240.06955 783.65625 240.58517Q783.1719 241.1008 783.1719 241.92892ZM789.2031 238.17892Q789.2031 237.25705 789.65625 236.61642Q790.125 235.9758 791.0 235.9758Q791.8125 235.9758 792.34375 236.55392Q792.875 237.13205 792.875 238.24142Q792.875 239.33517 792.3281 239.92892Q791.7969 240.50705 791.0156 240.50705Q790.2344 240.50705 789.71875 239.92892Q789.2031 239.3508 789.2031 238.17892ZM791.03125 236.69455Q790.6406 236.69455 790.375 237.0383Q790.125 237.38205 790.125 238.2883Q790.125 239.11642 790.375 239.46017Q790.6406 239.7883 791.03125 239.7883Q791.4375 239.7883 791.6875 239.44455Q791.9531 239.1008 791.9531 238.21017Q791.9531 237.36642 791.6875 237.0383Q791.4219 236.69455 791.03125 236.69455ZM791.03125 245.02267L795.7344 235.9758L796.59375 235.9758L791.90625 245.02267L791.03125 245.02267ZM794.75 242.69455Q794.75 241.77267 795.2031 241.13205Q795.6719 240.49142 796.5625 240.49142Q797.375 240.49142 797.90625 241.06955Q798.4375 241.63205 798.4375 242.75705Q798.4375 243.8508 797.8906 244.44455Q797.3594 245.02267 796.5625 245.02267Q795.7969 245.02267 795.2656 244.44455Q794.75 243.86642 794.75 242.69455ZM796.59375 241.21017Q796.1875 241.21017 795.9219 241.55392Q795.6719 241.89767 795.6719 242.80392Q795.6719 243.61642 795.9375 243.96017Q796.2031 244.30392 796.59375 244.30392Q796.9844 244.30392 797.25 243.96017Q797.5156 243.61642 797.5156 242.71017Q797.5156 241.88205 797.25 241.55392Q796.9844 241.21017 796.59375 241.21017Z" fill-rule="nonzero"/><path stroke="#757575" stroke-width="1.0" stroke-linecap="butt" d="M799.5 232.21017L648.0 232.21017L629.3306 232.21017" fill-rule="nonzero"/><path fill="#9e9e9e" d="M631.3306 232.21017C631.3306 231.1056 630.4352 230.21017 629.3306 230.21017C628.2261 230.21017 627.3306 231.1056 627.3306 232.21017C627.3306 233.31476 628.2261 234.21017 629.3306 234.21017C630.4352 234.21017 631.3306 233.31476 631.3306 232.21017" fill-rule="nonzero"/></svg>