<svg version="1.1" viewBox="0.0 0.0 748.0 371.0" fill="none" stroke="none" stroke-linecap="square" stroke-miterlimit="10" width="748" height="371" xmlns:xlink="http://www.w3.org/1999/xlink" xmlns="http://www.w3.org/2000/svg"><path fill="#ffffff" d="M0 0L748.0 0L748.0 371.0L0 371.0L0 0Z" fill-rule="nonzero"/><path fill="#4285f4" d="M374.0 18.55C463.71585 18.55 537.3911 89.45533 540.8275 179.10536L374.0 185.5Z" fill-rule="nonzero"/><path fill="#46bdc6" d="M365.47543 18.767776C368.31464 18.622616 371.15707 18.55 374.0 18.55L374.0 185.5Z" fill-rule="nonzero"/><path fill="#ff6d01" d="M348.5152 20.506584C354.1353 19.638504 359.7961 19.058146 365.47543 18.767776L374.0 185.5Z" fill-rule="nonzero"/><path fill="#34a853" d="M208.15152 204.6464C197.8626 115.52248 259.85077 34.201645 348.5152 20.506584L374.0 185.5Z" fill-rule="nonzero"/><path fill="#fbbc04" d="M255.19713 302.7953C228.99158 276.2529 212.42912 241.69948 208.15152 204.6464L374.0 185.5Z" fill-rule="nonzero"/><path fill="#ea4335" d="M540.8275 179.10536C543.466 247.94025 503.5559 311.32834 440.343 338.7022C377.13004 366.07605 303.59448 351.81467 255.19713 302.7953L374.0 185.5Z" fill-rule="nonzero"/><path fill="#1a1a1a" d="M24.51875 23.065624L23.471874 23.14375Q23.33125 22.51875 23.08125 22.2375Q22.64375 21.784374 22.01875 21.784374Q21.51875 21.784374 21.128124 22.065624Q20.64375 22.440624 20.346874 23.14375Q20.065624 23.83125 20.05 25.1125Q20.425 24.534374 20.971874 24.253124Q21.534374 23.971874 22.14375 23.971874Q23.190624 23.971874 23.925 24.753124Q24.675 25.534374 24.675 26.753124Q24.675 27.565624 24.315624 28.26875Q23.971874 28.95625 23.3625 29.33125Q22.753124 29.690624 21.9875 29.690624Q20.659374 29.690624 19.83125 28.721874Q19.003124 27.753124 19.003124 25.534374Q19.003124 23.034374 19.925 21.909374Q20.721874 20.925 22.08125 20.925Q23.096874 20.925 23.7375 21.503124Q24.39375 22.065624 24.51875 23.065624ZM20.221874 26.76875Q20.221874 27.315624 20.440624 27.815624Q20.675 28.3 21.08125 28.565624Q21.503124 28.83125 21.971874 28.83125Q22.628124 28.83125 23.1125 28.3Q23.596874 27.753124 23.596874 26.83125Q23.596874 25.940624 23.1125 25.425Q22.64375 24.909374 21.925 24.909374Q21.20625 24.909374 20.70625 25.425Q20.221874 25.940624 20.221874 26.76875ZM25.925 26.971874L25.925 25.909374L29.175 25.909374L29.175 26.971874L25.925 26.971874ZM34.01875 29.55L32.971874 29.55L32.971874 22.83125Q32.58125 23.190624 31.95625 23.565624Q31.346874 23.925 30.8625 24.096874L30.8625 23.08125Q31.7375 22.659374 32.39375 22.08125Q33.065624 21.4875 33.346874 20.925L34.01875 20.925L34.01875 29.55ZM37.05 25.315624Q37.05 23.784374 37.3625 22.8625Q37.675 21.925 38.284374 21.425Q38.909374 20.925 39.846874 20.925Q40.534374 20.925 41.05 21.20625Q41.58125 21.4875 41.925 22.01875Q42.26875 22.534374 42.45625 23.284374Q42.64375 24.034374 42.64375 25.315624Q42.64375 26.83125 42.33125 27.753124Q42.034374 28.675 41.409374 29.190624Q40.8 29.690624 39.846874 29.690624Q38.6125 29.690624 37.89375 28.8Q37.05 27.7375 37.05 25.315624ZM38.128124 25.315624Q38.128124 27.425 38.628124 28.128124Q39.128124 28.83125 39.846874 28.83125Q40.58125 28.83125 41.065624 28.128124Q41.565624 27.425 41.565624 25.315624Q41.565624 23.190624 41.065624 22.503124Q40.58125 21.8 39.83125 21.8Q39.1125 21.8 38.675 22.409374Q38.128124 23.190624 38.128124 25.315624ZM51.378124 29.55L51.378124 28.76875Q50.784374 29.690624 49.64375 29.690624Q48.89375 29.690624 48.26875 29.284374Q47.64375 28.8625 47.3 28.128124Q46.95625 27.39375 46.95625 26.440624Q46.95625 25.51875 47.26875 24.753124Q47.58125 23.9875 48.20625 23.596874Q48.83125 23.190624 49.596874 23.190624Q50.159374 23.190624 50.596874 23.425Q51.034374 23.659374 51.315624 24.034374L51.315624 20.95625L52.3625 20.95625L52.3625 29.55L51.378124 29.55ZM48.05 26.440624Q48.05 27.64375 48.55 28.2375Q49.05 28.815624 49.7375 28.815624Q50.425 28.815624 50.909374 28.253124Q51.39375 27.690624 51.39375 26.534374Q51.39375 25.253124 50.89375 24.659374Q50.409374 24.065624 49.690624 24.065624Q48.9875 24.065624 48.51875 24.64375Q48.05 25.20625 48.05 26.440624ZM58.409374 28.784374Q57.815624 29.284374 57.26875 29.4875Q56.7375 29.690624 56.1125 29.690624Q55.08125 29.690624 54.534374 29.190624Q53.9875 28.690624 53.9875 27.909374Q53.9875 27.45625 54.190624 27.08125Q54.39375 26.690624 54.7375 26.471874Q55.08125 26.2375 55.503124 26.128124Q55.8 26.034374 56.440624 25.95625Q57.70625 25.815624 58.315624 25.596874Q58.315624 25.378124 58.315624 25.33125Q58.315624 24.675 58.01875 24.409374Q57.6125 24.065624 56.815624 24.065624Q56.08125 24.065624 55.721874 24.33125Q55.3625 24.58125 55.190624 25.2375L54.159374 25.096874Q54.3 24.440624 54.628124 24.034374Q54.95625 23.628124 55.565624 23.409374Q56.175 23.190624 56.971874 23.190624Q57.76875 23.190624 58.26875 23.378124Q58.76875 23.565624 59.003124 23.846874Q59.2375 24.128124 59.33125 24.565624Q59.378124 24.83125 59.378124 25.534374L59.378124 26.940624Q59.378124 28.409374 59.440624 28.8Q59.51875 29.190624 59.721874 29.55L58.6125 29.55Q58.45625 29.221874 58.409374 28.784374ZM58.315624 26.425Q57.7375 26.659374 56.596874 26.83125Q55.940624 26.925 55.675 27.05Q55.409374 27.159374 55.253124 27.378124Q55.1125 27.596874 55.1125 27.878124Q55.1125 28.3 55.425 28.58125Q55.753124 28.8625 56.3625 28.8625Q56.971874 28.8625 57.440624 28.596874Q57.925 28.33125 58.14375 27.8625Q58.315624 27.503124 58.315624 26.815624L58.315624 26.425ZM61.3 31.940624L61.175 30.95625Q61.51875 31.05 61.784374 31.05Q62.128124 31.05 62.33125 30.925Q62.55 30.815624 62.690624 30.6125Q62.784374 30.440624 63.01875 29.815624Q63.034374 29.7375 63.1125 29.565624L60.7375 23.33125L61.878124 23.33125L63.175 26.925Q63.425 27.6125 63.628124 28.378124Q63.815624 27.64375 64.06563 26.95625L65.39375 23.33125L66.44063 23.33125L64.08125 29.659374Q63.690624 30.675 63.4875 31.065624Q63.20625 31.596874 62.83125 31.83125Q62.471874 32.08125 61.971874 32.08125Q61.675 32.08125 61.3 31.940624ZM65.925 27.690624L66.95625 27.534374Q67.05 28.159374 67.44063 28.4875Q67.84688 28.815624 68.58125 28.815624Q69.3 28.815624 69.64375 28.534374Q70.00313 28.2375 70.00313 27.83125Q70.00313 27.471874 69.69063 27.26875Q69.47188 27.128124 68.6125 26.909374Q67.45625 26.6125 67.00313 26.409374Q66.56563 26.190624 66.33125 25.815624Q66.09688 25.440624 66.09688 24.971874Q66.09688 24.565624 66.28438 24.20625Q66.47188 23.846874 66.8 23.6125Q67.05 23.440624 67.47188 23.315624Q67.89375 23.190624 68.39375 23.190624Q69.1125 23.190624 69.65938 23.409374Q70.22188 23.6125 70.4875 23.971874Q70.75313 24.33125 70.84688 24.925L69.81563 25.065624Q69.75313 24.596874 69.40938 24.33125Q69.08125 24.05 68.45625 24.05Q67.7375 24.05 67.425 24.3Q67.1125 24.534374 67.1125 24.8625Q67.1125 25.065624 67.2375 25.221874Q67.37813 25.39375 67.64375 25.503124Q67.8 25.565624 68.58125 25.76875Q69.70625 26.08125 70.14375 26.26875Q70.58125 26.45625 70.83125 26.815624Q71.08125 27.175 71.08125 27.721874Q71.08125 28.253124 70.76875 28.721874Q70.47188 29.175 69.89375 29.440624Q69.31563 29.690624 68.58125 29.690624Q67.3625 29.690624 66.72188 29.190624Q66.09688 28.675 65.925 27.690624Z" fill-rule="nonzero"/><path fill="#9e9e9e" d="M23.01875 46.55L21.971874 46.55L21.971874 39.83125Q21.58125 40.190624 20.95625 40.565624Q20.346874 40.925 19.8625 41.096874L19.8625 40.08125Q20.7375 39.659374 21.39375 39.08125Q22.065624 38.4875 22.346874 37.925L23.01875 37.925L23.01875 46.55ZM26.64375 46.55L26.64375 45.346874L27.846874 45.346874L27.846874 46.55L26.64375 46.55ZM34.51875 40.065624L33.471874 40.14375Q33.33125 39.51875 33.08125 39.2375Q32.64375 38.784374 32.01875 38.784374Q31.51875 38.784374 31.128124 39.065624Q30.64375 39.440624 30.346874 40.14375Q30.065624 40.83125 30.05 42.1125Q30.425 41.534374 30.971874 41.253124Q31.534374 40.971874 32.14375 40.971874Q33.190624 40.971874 33.925 41.753124Q34.675 42.534374 34.675 43.753124Q34.675 44.565624 34.315624 45.26875Q33.971874 45.95625 33.3625 46.33125Q32.753124 46.690624 31.9875 46.690624Q30.659374 46.690624 29.83125 45.721874Q29.003124 44.753124 29.003124 42.534374Q29.003124 40.034374 29.925 38.909374Q30.721874 37.925 32.08125 37.925Q33.096874 37.925 33.7375 38.503124Q34.39375 39.065624 34.51875 40.065624ZM30.221874 43.76875Q30.221874 44.315624 30.440624 44.815624Q30.675 45.3 31.08125 45.565624Q31.503124 45.83125 31.971874 45.83125Q32.628124 45.83125 33.1125 45.3Q33.596874 44.753124 33.596874 43.83125Q33.596874 42.940624 33.1125 42.425Q32.64375 41.909374 31.925 41.909374Q31.20625 41.909374 30.70625 42.425Q30.221874 42.940624 30.221874 43.76875ZM36.253124 40.01875Q36.253124 39.096874 36.70625 38.45625Q37.175 37.815624 38.05 37.815624Q38.8625 37.815624 39.39375 38.39375Q39.925 38.971874 39.925 40.08125Q39.925 41.175 39.378124 41.76875Q38.846874 42.346874 38.065624 42.346874Q37.284374 42.346874 36.76875 41.76875Q36.253124 41.190624 36.253124 40.01875ZM38.08125 38.534374Q37.690624 38.534374 37.425 38.878124Q37.175 39.221874 37.175 40.128124Q37.175 40.95625 37.425 41.3Q37.690624 41.628124 38.08125 41.628124Q38.4875 41.628124 38.7375 41.284374Q39.003124 40.940624 39.003124 40.05Q39.003124 39.20625 38.7375 38.878124Q38.471874 38.534374 38.08125 38.534374ZM38.08125 46.8625L42.784374 37.815624L43.64375 37.815624L38.95625 46.8625L38.08125 46.8625ZM41.8 44.534374Q41.8 43.6125 42.253124 42.971874Q42.721874 42.33125 43.6125 42.33125Q44.425 42.33125 44.95625 42.909374Q45.4875 43.471874 45.4875 44.596874Q45.4875 45.690624 44.940624 46.284374Q44.409374 46.8625 43.6125 46.8625Q42.846874 46.8625 42.315624 46.284374Q41.8 45.70625 41.8 44.534374ZM43.64375 43.05Q43.2375 43.05 42.971874 43.39375Q42.721874 43.7375 42.721874 44.64375Q42.721874 45.45625 42.9875 45.8Q43.253124 46.14375 43.64375 46.14375Q44.034374 46.14375 44.3 45.8Q44.565624 45.45625 44.565624 44.55Q44.565624 43.721874 44.3 43.39375Q44.034374 43.05 43.64375 43.05Z" fill-rule="nonzero"/><path stroke="#757575" stroke-width="1.0" stroke-linecap="butt" d="M18.55 34.05L201.05 34.05L357.82446 27.724512" fill-rule="nonzero"/><path fill="#9e9e9e" d="M359.82446 27.724512C359.82446 26.619942 358.92902 25.724512 357.82446 25.724512C356.71988 25.724512 355.82446 26.619942 355.82446 27.724512C355.82446 28.82908 356.71988 29.724512 357.82446 29.724512C358.92902 29.724512 359.82446 28.82908 359.82446 27.724512" fill-rule="nonzero"/><path fill="#1a1a1a" d="M24.596874 83.83551L24.596874 84.851135L18.909374 84.851135Q18.909374 84.476135 19.034374 84.11676Q19.253124 83.538635 19.721874 82.976135Q20.20625 82.413635 21.1125 81.67926Q22.51875 80.52301 23.003124 79.851135Q23.503124 79.17926 23.503124 78.58551Q23.503124 77.96051 23.05 77.538635Q22.596874 77.101135 21.878124 77.101135Q21.1125 77.101135 20.659374 77.55426Q20.20625 78.007385 20.190624 78.819885L19.1125 78.71051Q19.221874 77.49176 19.940624 76.86676Q20.675 76.226135 21.909374 76.226135Q23.14375 76.226135 23.8625 76.913635Q24.58125 77.601135 24.58125 78.61676Q24.58125 79.132385 24.3625 79.632385Q24.159374 80.11676 23.659374 80.67926Q23.175 81.226135 22.05 82.17926Q21.096874 82.976135 20.815624 83.27301Q20.55 83.55426 20.378124 83.83551L24.596874 83.83551ZM30.01875 84.851135L28.971874 84.851135L28.971874 78.132385Q28.58125 78.49176 27.95625 78.86676Q27.346874 79.226135 26.8625 79.39801L26.8625 78.382385Q27.7375 77.96051 28.39375 77.382385Q29.065624 76.788635 29.346874 76.226135L30.01875 76.226135L30.01875 84.851135ZM35.55 83.46051L35.55 81.101135L33.221874 81.101135L33.221874 80.11676L35.55 80.11676L35.55 77.788635L36.55 77.788635L36.55 80.11676L38.89375 80.11676L38.89375 81.101135L36.55 81.101135L36.55 83.46051L35.55 83.46051ZM47.378124 84.851135L47.378124 84.069885Q46.784374 84.99176 45.64375 84.99176Q44.89375 84.99176 44.26875 84.58551Q43.64375 84.163635 43.3 83.42926Q42.95625 82.694885 42.95625 81.74176Q42.95625 80.819885 43.26875 80.05426Q43.58125 79.288635 44.20625 78.89801Q44.83125 78.49176 45.596874 78.49176Q46.159374 78.49176 46.596874 78.726135Q47.034374 78.96051 47.315624 79.33551L47.315624 76.257385L48.3625 76.257385L48.3625 84.851135L47.378124 84.851135ZM44.05 81.74176Q44.05 82.944885 44.55 83.538635Q45.05 84.11676 45.7375 84.11676Q46.425 84.11676 46.909374 83.55426Q47.39375 82.99176 47.39375 81.83551Q47.39375 80.55426 46.89375 79.96051Q46.409374 79.36676 45.690624 79.36676Q44.9875 79.36676 44.51875 79.944885Q44.05 80.507385 44.05 81.74176ZM54.409374 84.08551Q53.815624 84.58551 53.26875 84.788635Q52.7375 84.99176 52.1125 84.99176Q51.08125 84.99176 50.534374 84.49176Q49.9875 83.99176 49.9875 83.21051Q49.9875 82.757385 50.190624 82.382385Q50.39375 81.99176 50.7375 81.77301Q51.08125 81.538635 51.503124 81.42926Q51.8 81.33551 52.440624 81.257385Q53.70625 81.11676 54.315624 80.89801Q54.315624 80.67926 54.315624 80.632385Q54.315624 79.976135 54.01875 79.71051Q53.6125 79.36676 52.815624 79.36676Q52.08125 79.36676 51.721874 79.632385Q51.3625 79.882385 51.190624 80.538635L50.159374 80.39801Q50.3 79.74176 50.628124 79.33551Q50.95625 78.92926 51.565624 78.71051Q52.175 78.49176 52.971874 78.49176Q53.76875 78.49176 54.26875 78.67926Q54.76875 78.86676 55.003124 79.14801Q55.2375 79.42926 55.33125 79.86676Q55.378124 80.132385 55.378124 80.83551L55.378124 82.24176Q55.378124 83.71051 55.440624 84.101135Q55.51875 84.49176 55.721874 84.851135L54.6125 84.851135Q54.45625 84.52301 54.409374 84.08551ZM54.315624 81.726135Q53.7375 81.96051 52.596874 82.132385Q51.940624 82.226135 51.675 82.351135Q51.409374 82.46051 51.253124 82.67926Q51.1125 82.89801 51.1125 83.17926Q51.1125 83.601135 51.425 83.882385Q51.753124 84.163635 52.3625 84.163635Q52.971874 84.163635 53.440624 83.89801Q53.925 83.632385 54.14375 83.163635Q54.315624 82.80426 54.315624 82.11676L54.315624 81.726135ZM57.3 87.24176L57.175 86.257385Q57.51875 86.351135 57.784374 86.351135Q58.128124 86.351135 58.33125 86.226135Q58.55 86.11676 58.690624 85.913635Q58.784374 85.74176 59.01875 85.11676Q59.034374 85.038635 59.1125 84.86676L56.7375 78.632385L57.878124 78.632385L59.175 82.226135Q59.425 82.913635 59.628124 83.67926Q59.815624 82.944885 60.065624 82.257385L61.39375 78.632385L62.440624 78.632385L60.08125 84.96051Q59.690624 85.976135 59.4875 86.36676Q59.20625 86.89801 58.83125 87.132385Q58.471874 87.382385 57.971874 87.382385Q57.675 87.382385 57.3 87.24176ZM61.925 82.99176L62.95625 82.83551Q63.05 83.46051 63.440624 83.788635Q63.846874 84.11676 64.58125 84.11676Q65.3 84.11676 65.64375 83.83551Q66.00313 83.538635 66.00313 83.132385Q66.00313 82.77301 65.69063 82.569885Q65.47188 82.42926 64.6125 82.21051Q63.45625 81.913635 63.003124 81.71051Q62.565624 81.49176 62.33125 81.11676Q62.096874 80.74176 62.096874 80.27301Q62.096874 79.86676 62.284374 79.507385Q62.471874 79.14801 62.8 78.913635Q63.05 78.74176 63.471874 78.61676Q63.89375 78.49176 64.39375 78.49176Q65.1125 78.49176 65.65938 78.71051Q66.22188 78.913635 66.4875 79.27301Q66.75313 79.632385 66.84688 80.226135L65.81563 80.36676Q65.75313 79.89801 65.40938 79.632385Q65.08125 79.351135 64.45625 79.351135Q63.7375 79.351135 63.425 79.601135Q63.1125 79.83551 63.1125 80.163635Q63.1125 80.36676 63.2375 80.52301Q63.378124 80.694885 63.64375 80.80426Q63.8 80.86676 64.58125 81.069885Q65.70625 81.382385 66.14375 81.569885Q66.58125 81.757385 66.83125 82.11676Q67.08125 82.476135 67.08125 83.02301Q67.08125 83.55426 66.76875 84.02301Q66.47188 84.476135 65.89375 84.74176Q65.31563 84.99176 64.58125 84.99176Q63.3625 84.99176 62.721874 84.49176Q62.096874 83.976135 61.925 82.99176Z" fill-rule="nonzero"/><path fill="#9e9e9e" d="M24.596874 100.83551L24.596874 101.851135L18.909374 101.851135Q18.909374 101.476135 19.034374 101.11676Q19.253124 100.538635 19.721874 99.976135Q20.20625 99.413635 21.1125 98.67926Q22.51875 97.52301 23.003124 96.851135Q23.503124 96.17926 23.503124 95.58551Q23.503124 94.96051 23.05 94.538635Q22.596874 94.101135 21.878124 94.101135Q21.1125 94.101135 20.659374 94.55426Q20.20625 95.007385 20.190624 95.819885L19.1125 95.71051Q19.221874 94.49176 19.940624 93.86676Q20.675 93.226135 21.909374 93.226135Q23.14375 93.226135 23.8625 93.913635Q24.58125 94.601135 24.58125 95.61676Q24.58125 96.132385 24.3625 96.632385Q24.159374 97.11676 23.659374 97.67926Q23.175 98.226135 22.05 99.17926Q21.096874 99.976135 20.815624 100.27301Q20.55 100.55426 20.378124 100.83551L24.596874 100.83551ZM29.425 101.851135L29.425 99.788635L25.70625 99.788635L25.70625 98.819885L29.628124 93.257385L30.4875 93.257385L30.4875 98.819885L31.64375 98.819885L31.64375 99.788635L30.4875 99.788635L30.4875 101.851135L29.425 101.851135ZM29.425 98.819885L29.425 94.96051L26.7375 98.819885L29.425 98.819885ZM33.64375 101.851135L33.64375 100.64801L34.846874 100.64801L34.846874 101.851135L33.64375 101.851135ZM39.425 101.851135L39.425 99.788635L35.70625 99.788635L35.70625 98.819885L39.628124 93.257385L40.4875 93.257385L40.4875 98.819885L41.64375 98.819885L41.64375 99.788635L40.4875 99.788635L40.4875 101.851135L39.425 101.851135ZM39.425 98.819885L39.425 94.96051L36.7375 98.819885L39.425 98.819885ZM43.253124 95.319885Q43.253124 94.39801 43.70625 93.757385Q44.175 93.11676 45.05 93.11676Q45.8625 93.11676 46.39375 93.694885Q46.925 94.27301 46.925 95.382385Q46.925 96.476135 46.378124 97.069885Q45.846874 97.64801 45.065624 97.64801Q44.284374 97.64801 43.76875 97.069885Q43.253124 96.49176 43.253124 95.319885ZM45.08125 93.83551Q44.690624 93.83551 44.425 94.17926Q44.175 94.52301 44.175 95.42926Q44.175 96.257385 44.425 96.601135Q44.690624 96.92926 45.08125 96.92926Q45.4875 96.92926 45.7375 96.58551Q46.003124 96.24176 46.003124 95.351135Q46.003124 94.507385 45.7375 94.17926Q45.471874 93.83551 45.08125 93.83551ZM45.08125 102.163635L49.784374 93.11676L50.64375 93.11676L45.95625 102.163635L45.08125 102.163635ZM48.8 99.83551Q48.8 98.913635 49.253124 98.27301Q49.721874 97.632385 50.6125 97.632385Q51.425 97.632385 51.95625 98.21051Q52.4875 98.77301 52.4875 99.89801Q52.4875 100.99176 51.940624 101.58551Q51.409374 102.163635 50.6125 102.163635Q49.846874 102.163635 49.315624 101.58551Q48.8 101.007385 48.8 99.83551ZM50.64375 98.351135Q50.2375 98.351135 49.971874 98.694885Q49.721874 99.038635 49.721874 99.944885Q49.721874 100.757385 49.9875 101.101135Q50.253124 101.444885 50.64375 101.444885Q51.034374 101.444885 51.3 101.101135Q51.565624 100.757385 51.565624 99.851135Q51.565624 99.02301 51.3 98.694885Q51.034374 98.351135 50.64375 98.351135Z" fill-rule="nonzero"/><path stroke="#757575" stroke-width="1.0" stroke-linecap="butt" d="M18.55 89.351135L201.05 89.351135L247.86456 89.351135" fill-rule="nonzero"/><path fill="#9e9e9e" d="M249.86456 89.351135C249.86456 88.24657 248.96913 87.351135 247.86456 87.351135C246.76 87.351135 245.86456 88.24657 245.86456 89.351135C245.86456 90.4557 246.76 91.351135 247.86456 91.351135C248.96913 91.351135 249.86456 90.4557 249.86456 89.351135" fill-rule="nonzero"/><path fill="#1a1a1a" d="M23.01875 249.55423L21.971874 249.55423L21.971874 242.83548Q21.58125 243.19485 20.95625 243.56985Q20.346874 243.92923 19.8625 244.1011L19.8625 243.08548Q20.7375 242.6636 21.39375 242.08548Q22.065624 241.49173 22.346874 240.92923L23.01875 240.92923L23.01875 249.55423ZM30.01875 249.55423L28.971874 249.55423L28.971874 242.83548Q28.58125 243.19485 27.95625 243.56985Q27.346874 243.92923 26.8625 244.1011L26.8625 243.08548Q27.7375 242.6636 28.39375 242.08548Q29.065624 241.49173 29.346874 240.92923L30.01875 240.92923L30.01875 249.55423ZM32.925 246.9761L32.925 245.9136L36.175 245.9136L36.175 246.9761L32.925 246.9761ZM41.01875 249.55423L39.971874 249.55423L39.971874 242.83548Q39.58125 243.19485 38.95625 243.56985Q38.346874 243.92923 37.8625 244.1011L37.8625 243.08548Q38.7375 242.6636 39.39375 242.08548Q40.065624 241.49173 40.346874 240.92923L41.01875 240.92923L41.01875 249.55423ZM44.05 247.30423L45.159374 247.21048Q45.284374 248.02298 45.721874 248.42923Q46.175 248.83548 46.815624 248.83548Q47.565624 248.83548 48.096874 248.25735Q48.628124 247.67923 48.628124 246.74173Q48.628124 245.83548 48.1125 245.31985Q47.6125 244.7886 46.784374 244.7886Q46.284374 244.7886 45.8625 245.02298Q45.45625 245.25735 45.221874 245.61673L44.2375 245.49173L45.065624 241.08548L49.346874 241.08548L49.346874 242.08548L45.909374 242.08548L45.45625 244.39798Q46.221874 243.8511 47.065624 243.8511Q48.190624 243.8511 48.95625 244.63235Q49.7375 245.4136 49.7375 246.64798Q49.7375 247.80423 49.065624 248.6636Q48.2375 249.69485 46.815624 249.69485Q45.64375 249.69485 44.89375 249.0386Q44.159374 248.38235 44.05 247.30423ZM58.378124 249.55423L58.378124 248.77298Q57.784374 249.69485 56.64375 249.69485Q55.89375 249.69485 55.26875 249.2886Q54.64375 248.86673 54.3 248.13235Q53.95625 247.39798 53.95625 246.44485Q53.95625 245.52298 54.26875 244.75735Q54.58125 243.99173 55.20625 243.6011Q55.83125 243.19485 56.596874 243.19485Q57.159374 243.19485 57.596874 243.42923Q58.034374 243.6636 58.315624 244.0386L58.315624 240.96048L59.3625 240.96048L59.3625 249.55423L58.378124 249.55423ZM55.05 246.44485Q55.05 247.64798 55.55 248.24173Q56.05 248.81985 56.7375 248.81985Q57.425 248.81985 57.909374 248.25735Q58.39375 247.69485 58.39375 246.5386Q58.39375 245.25735 57.89375 244.6636Q57.409374 244.06985 56.690624 244.06985Q55.9875 244.06985 55.51875 244.64798Q55.05 245.21048 55.05 246.44485ZM65.40938 248.7886Q64.81563 249.2886 64.26875 249.49173Q63.7375 249.69485 63.1125 249.69485Q62.08125 249.69485 61.534374 249.19485Q60.9875 248.69485 60.9875 247.9136Q60.9875 247.46048 61.190624 247.08548Q61.39375 246.69485 61.7375 246.4761Q62.08125 246.24173 62.503124 246.13235Q62.8 246.0386 63.440624 245.96048Q64.70625 245.81985 65.31563 245.6011Q65.31563 245.38235 65.31563 245.33548Q65.31563 244.67923 65.01875 244.4136Q64.6125 244.06985 63.815624 244.06985Q63.08125 244.06985 62.721874 244.33548Q62.3625 244.58548 62.190624 245.24173L61.159374 245.1011Q61.3 244.44485 61.628124 244.0386Q61.95625 243.63235 62.565624 243.4136Q63.175 243.19485 63.971874 243.19485Q64.76875 243.19485 65.26875 243.38235Q65.76875 243.56985 66.00313 243.8511Q66.2375 244.13235 66.33125 244.56985Q66.37813 244.83548 66.37813 245.5386L66.37813 246.94485Q66.37813 248.4136 66.44063 248.80423Q66.51875 249.19485 66.72188 249.55423L65.6125 249.55423Q65.45625 249.2261 65.40938 248.7886ZM65.31563 246.42923Q64.7375 246.6636 63.596874 246.83548Q62.940624 246.92923 62.675 247.05423Q62.409374 247.1636 62.253124 247.38235Q62.1125 247.6011 62.1125 247.88235Q62.1125 248.30423 62.425 248.58548Q62.753124 248.86673 63.3625 248.86673Q63.971874 248.86673 64.44063 248.6011Q64.925 248.33548 65.14375 247.86673Q65.31563 247.50735 65.31563 246.81985L65.31563 246.42923ZM68.3 251.94485L68.175 250.96048Q68.51875 251.05423 68.78438 251.05423Q69.12813 251.05423 69.33125 250.92923Q69.55 250.81985 69.69063 250.61673Q69.78438 250.44485 70.01875 249.81985Q70.03438 249.74173 70.1125 249.56985L67.7375 243.33548L68.87813 243.33548L70.175 246.92923Q70.425 247.61673 70.62813 248.38235Q70.81563 247.64798 71.06563 246.96048L72.39375 243.33548L73.44063 243.33548L71.08125 249.6636Q70.69063 250.67923 70.4875 251.06985Q70.20625 251.6011 69.83125 251.83548Q69.47188 252.08548 68.97188 252.08548Q68.675 252.08548 68.3 251.94485ZM72.925 247.69485L73.95625 247.5386Q74.05 248.1636 74.44063 248.49173Q74.84688 248.81985 75.58125 248.81985Q76.3 248.81985 76.64375 248.5386Q77.00313 248.24173 77.00313 247.83548Q77.00313 247.4761 76.69063 247.27298Q76.47188 247.13235 75.6125 246.9136Q74.45625 246.61673 74.00313 246.4136Q73.56563 246.19485 73.33125 245.81985Q73.09688 245.44485 73.09688 244.9761Q73.09688 244.56985 73.28438 244.21048Q73.47188 243.8511 73.8 243.61673Q74.05 243.44485 74.47188 243.31985Q74.89375 243.19485 75.39375 243.19485Q76.1125 243.19485 76.65938 243.4136Q77.22188 243.61673 77.4875 243.9761Q77.75313 244.33548 77.84688 244.92923L76.81563 245.06985Q76.75313 244.6011 76.40938 244.33548Q76.08125 244.05423 75.45625 244.05423Q74.7375 244.05423 74.425 244.30423Q74.1125 244.5386 74.1125 244.86673Q74.1125 245.06985 74.2375 245.2261Q74.37813 245.39798 74.64375 245.50735Q74.8 245.56985 75.58125 245.77298Q76.70625 246.08548 77.14375 246.27298Q77.58125 246.46048 77.83125 246.81985Q78.08125 247.17923 78.08125 247.7261Q78.08125 248.25735 77.76875 248.7261Q77.47188 249.17923 76.89375 249.44485Q76.31563 249.69485 75.58125 249.69485Q74.3625 249.69485 73.72188 249.19485Q73.09688 248.67923 72.925 247.69485Z" fill-rule="nonzero"/><path fill="#9e9e9e" d="M23.01875 266.55423L21.971874 266.55423L21.971874 259.83548Q21.58125 260.19485 20.95625 260.56985Q20.346874 260.92923 19.8625 261.1011L19.8625 260.08548Q20.7375 259.6636 21.39375 259.08548Q22.065624 258.49173 22.346874 257.92923L23.01875 257.92923L23.01875 266.55423ZM26.05 262.31985Q26.05 260.7886 26.3625 259.86673Q26.675 258.92923 27.284374 258.42923Q27.909374 257.92923 28.846874 257.92923Q29.534374 257.92923 30.05 258.21048Q30.58125 258.49173 30.925 259.02298Q31.26875 259.5386 31.45625 260.2886Q31.64375 261.0386 31.64375 262.31985Q31.64375 263.83548 31.33125 264.75735Q31.034374 265.67923 30.409374 266.19485Q29.8 266.69485 28.846874 266.69485Q27.6125 266.69485 26.89375 265.80423Q26.05 264.74173 26.05 262.31985ZM27.128124 262.31985Q27.128124 264.42923 27.628124 265.13235Q28.128124 265.83548 28.846874 265.83548Q29.58125 265.83548 30.065624 265.13235Q30.565624 264.42923 30.565624 262.31985Q30.565624 260.19485 30.065624 259.50735Q29.58125 258.80423 28.83125 258.80423Q28.1125 258.80423 27.675 259.4136Q27.128124 260.19485 27.128124 262.31985ZM33.64375 266.55423L33.64375 265.3511L34.846874 265.3511L34.846874 266.55423L33.64375 266.55423ZM41.51875 260.06985L40.471874 260.14798Q40.33125 259.52298 40.08125 259.24173Q39.64375 258.7886 39.01875 258.7886Q38.51875 258.7886 38.128124 259.06985Q37.64375 259.44485 37.346874 260.14798Q37.065624 260.83548 37.05 262.11673Q37.425 261.5386 37.971874 261.25735Q38.534374 260.9761 39.14375 260.9761Q40.190624 260.9761 40.925 261.75735Q41.675 262.5386 41.675 263.75735Q41.675 264.56985 41.315624 265.27298Q40.971874 265.96048 40.3625 266.33548Q39.753124 266.69485 38.9875 266.69485Q37.659374 266.69485 36.83125 265.7261Q36.003124 264.75735 36.003124 262.5386Q36.003124 260.0386 36.925 258.9136Q37.721874 257.92923 39.08125 257.92923Q40.096874 257.92923 40.7375 258.50735Q41.39375 259.06985 41.51875 260.06985ZM37.221874 263.77298Q37.221874 264.31985 37.440624 264.81985Q37.675 265.30423 38.08125 265.56985Q38.503124 265.83548 38.971874 265.83548Q39.628124 265.83548 40.1125 265.30423Q40.596874 264.75735 40.596874 263.83548Q40.596874 262.94485 40.1125 262.42923Q39.64375 261.9136 38.925 261.9136Q38.20625 261.9136 37.70625 262.42923Q37.221874 262.94485 37.221874 263.77298ZM43.253124 260.02298Q43.253124 259.1011 43.70625 258.46048Q44.175 257.81985 45.05 257.81985Q45.8625 257.81985 46.39375 258.39798Q46.925 258.9761 46.925 260.08548Q46.925 261.17923 46.378124 261.77298Q45.846874 262.3511 45.065624 262.3511Q44.284374 262.3511 43.76875 261.77298Q43.253124 261.19485 43.253124 260.02298ZM45.08125 258.5386Q44.690624 258.5386 44.425 258.88235Q44.175 259.2261 44.175 260.13235Q44.175 260.96048 44.425 261.30423Q44.690624 261.63235 45.08125 261.63235Q45.4875 261.63235 45.7375 261.2886Q46.003124 260.94485 46.003124 260.05423Q46.003124 259.21048 45.7375 258.88235Q45.471874 258.5386 45.08125 258.5386ZM45.08125 266.86673L49.784374 257.81985L50.64375 257.81985L45.95625 266.86673L45.08125 266.86673ZM48.8 264.5386Q48.8 263.61673 49.253124 262.9761Q49.721874 262.33548 50.6125 262.33548Q51.425 262.33548 51.95625 262.9136Q52.4875 263.4761 52.4875 264.6011Q52.4875 265.69485 51.940624 266.2886Q51.409374 266.86673 50.6125 266.86673Q49.846874 266.86673 49.315624 266.2886Q48.8 265.71048 48.8 264.5386ZM50.64375 263.05423Q50.2375 263.05423 49.971874 263.39798Q49.721874 263.74173 49.721874 264.64798Q49.721874 265.46048 49.9875 265.80423Q50.253124 266.14798 50.64375 266.14798Q51.034374 266.14798 51.3 265.80423Q51.565624 265.46048 51.565624 264.55423Q51.565624 263.7261 51.3 263.39798Q51.034374 263.05423 50.64375 263.05423Z" fill-rule="nonzero"/><path stroke="#757575" stroke-width="1.0" stroke-linecap="butt" d="M18.55 254.05423L201.05 254.05423L230.97878 254.05423" fill-rule="nonzero"/><path fill="#9e9e9e" d="M232.97878 254.05423C232.97878 252.94966 232.08334 252.05423 230.97878 252.05423C229.8742 252.05423 228.97878 252.94966 228.97878 254.05423C228.97878 255.1588 229.8742 256.05423 230.97878 256.05423C232.08334 256.05423 232.97878 255.1588 232.97878 254.05423" fill-rule="nonzero"/><path fill="#1a1a1a" d="M672.91876 66.72347L671.8719 66.72347L671.8719 60.004723Q671.48126 60.364098 670.85626 60.739098Q670.2469 61.098473 669.7625 61.270348L669.7625 60.254723Q670.6375 59.832848 671.29376 59.254723Q671.96564 58.660973 672.2469 58.098473L672.91876 58.098473L672.91876 66.72347ZM681.41876 60.239098L680.3719 60.317223Q680.23126 59.692223 679.98126 59.410973Q679.54376 58.957848 678.91876 58.957848Q678.41876 58.957848 678.02814 59.239098Q677.54376 59.614098 677.2469 60.317223Q676.96564 61.004723 676.95 62.285973Q677.325 61.707848 677.8719 61.426598Q678.4344 61.145348 679.04376 61.145348Q680.09064 61.145348 680.825 61.926598Q681.575 62.707848 681.575 63.926598Q681.575 64.7391 681.21564 65.44222Q680.8719 66.12972 680.2625 66.50472Q679.65314 66.8641 678.8875 66.8641Q677.5594 66.8641 676.73126 65.89535Q675.90314 64.9266 675.90314 62.707848Q675.90314 60.207848 676.825 59.082848Q677.6219 58.098473 678.98126 58.098473Q679.9969 58.098473 680.6375 58.676598Q681.29376 59.239098 681.41876 60.239098ZM677.1219 63.942223Q677.1219 64.4891 677.34064 64.9891Q677.575 65.47347 677.98126 65.7391Q678.40314 66.00472 678.8719 66.00472Q679.52814 66.00472 680.0125 65.47347Q680.4969 64.9266 680.4969 64.00472Q680.4969 63.114098 680.0125 62.598473Q679.54376 62.082848 678.825 62.082848Q678.10626 62.082848 677.60626 62.598473Q677.1219 63.114098 677.1219 63.942223ZM682.825 64.14535L682.825 63.082848L686.075 63.082848L686.075 64.14535L682.825 64.14535ZM692.4969 65.70785L692.4969 66.72347L686.8094 66.72347Q686.8094 66.34847 686.9344 65.9891Q687.15314 65.41097 687.6219 64.84847Q688.10626 64.28597 689.0125 63.551598Q690.41876 62.395348 690.90314 61.723473Q691.40314 61.051598 691.40314 60.457848Q691.40314 59.832848 690.95 59.410973Q690.4969 58.973473 689.77814 58.973473Q689.0125 58.973473 688.5594 59.426598Q688.10626 59.879723 688.09064 60.692223L687.0125 60.582848Q687.1219 59.364098 687.84064 58.739098Q688.575 58.098473 689.8094 58.098473Q691.04376 58.098473 691.7625 58.785973Q692.48126 59.473473 692.48126 60.489098Q692.48126 61.004723 692.2625 61.504723Q692.0594 61.989098 691.5594 62.551598Q691.075 63.098473 689.95 64.0516Q688.9969 64.84847 688.71564 65.14535Q688.45 65.4266 688.27814 65.70785L692.4969 65.70785ZM693.95 62.489098Q693.95 60.957848 694.2625 60.035973Q694.575 59.098473 695.1844 58.598473Q695.8094 58.098473 696.7469 58.098473Q697.4344 58.098473 697.95 58.379723Q698.48126 58.660973 698.825 59.192223Q699.16876 59.707848 699.35626 60.457848Q699.54376 61.207848 699.54376 62.489098Q699.54376 64.00472 699.23126 64.9266Q698.9344 65.84847 698.3094 66.3641Q697.7 66.8641 696.7469 66.8641Q695.5125 66.8641 694.79376 65.97347Q693.95 64.91097 693.95 62.489098ZM695.02814 62.489098Q695.02814 64.59847 695.52814 65.3016Q696.02814 66.00472 696.7469 66.00472Q697.48126 66.00472 697.96564 65.3016Q698.46564 64.59847 698.46564 62.489098Q698.46564 60.364098 697.96564 59.676598Q697.48126 58.973473 696.73126 58.973473Q696.0125 58.973473 695.575 59.582848Q695.02814 60.364098 695.02814 62.489098ZM708.27814 66.72347L708.27814 65.94222Q707.6844 66.8641 706.54376 66.8641Q705.79376 66.8641 705.16876 66.45785Q704.54376 66.03597 704.2 65.3016Q703.85626 64.56722 703.85626 63.614098Q703.85626 62.692223 704.16876 61.926598Q704.48126 61.160973 705.10626 60.770348Q705.73126 60.364098 706.4969 60.364098Q707.0594 60.364098 707.4969 60.598473Q707.9344 60.832848 708.21564 61.207848L708.21564 58.129723L709.2625 58.129723L709.2625 66.72347L708.27814 66.72347ZM704.95 63.614098Q704.95 64.81722 705.45 65.41097Q705.95 65.9891 706.6375 65.9891Q707.325 65.9891 707.8094 65.4266Q708.29376 64.8641 708.29376 63.707848Q708.29376 62.426598 707.79376 61.832848Q707.3094 61.239098 706.59064 61.239098Q705.8875 61.239098 705.41876 61.817223Q704.95 62.379723 704.95 63.614098ZM715.3094 65.95785Q714.71564 66.45785 714.16876 66.66097Q713.6375 66.8641 713.0125 66.8641Q711.98126 66.8641 711.4344 66.3641Q710.8875 65.8641 710.8875 65.08285Q710.8875 64.62972 711.09064 64.25472Q711.29376 63.864098 711.6375 63.645348Q711.98126 63.410973 712.40314 63.301598Q712.7 63.207848 713.34064 63.129723Q714.60626 62.989098 715.21564 62.770348Q715.21564 62.551598 715.21564 62.504723Q715.21564 61.848473 714.91876 61.582848Q714.5125 61.239098 713.71564 61.239098Q712.98126 61.239098 712.6219 61.504723Q712.2625 61.754723 712.09064 62.410973L711.0594 62.270348Q711.2 61.614098 711.52814 61.207848Q711.85626 60.801598 712.46564 60.582848Q713.075 60.364098 713.8719 60.364098Q714.66876 60.364098 715.16876 60.551598Q715.66876 60.739098 715.90314 61.020348Q716.1375 61.301598 716.23126 61.739098Q716.27814 62.004723 716.27814 62.707848L716.27814 64.1141Q716.27814 65.58285 716.34064 65.97347Q716.41876 66.3641 716.6219 66.72347L715.5125 66.72347Q715.35626 66.39535 715.3094 65.95785ZM715.21564 63.598473Q714.6375 63.832848 713.4969 64.00472Q712.84064 64.09847 712.575 64.22347Q712.3094 64.33285 712.15314 64.5516Q712.0125 64.77035 712.0125 65.0516Q712.0125 65.47347 712.325 65.75472Q712.65314 66.03597 713.2625 66.03597Q713.8719 66.03597 714.34064 65.77035Q714.825 65.50472 715.04376 65.03597Q715.21564 64.6766 715.21564 63.989098L715.21564 63.598473ZM718.2 69.1141L718.075 68.12972Q718.41876 68.22347 718.6844 68.22347Q719.02814 68.22347 719.23126 68.09847Q719.45 67.9891 719.59064 67.78597Q719.6844 67.6141 719.91876 66.9891Q719.9344 66.91097 720.0125 66.7391L717.6375 60.504723L718.77814 60.504723L720.075 64.09847Q720.325 64.78597 720.52814 65.5516Q720.71564 64.81722 720.96564 64.12972L722.29376 60.504723L723.34064 60.504723L720.98126 66.83285Q720.59064 67.84847 720.3875 68.2391Q720.10626 68.77035 719.73126 69.00472Q719.3719 69.25472 718.8719 69.25472Q718.575 69.25472 718.2 69.1141ZM722.825 64.8641L723.85626 64.70785Q723.95 65.33285 724.34064 65.66097Q724.7469 65.9891 725.48126 65.9891Q726.2 65.9891 726.54376 65.70785Q726.90314 65.41097 726.90314 65.00472Q726.90314 64.64535 726.59064 64.44222Q726.3719 64.3016 725.5125 64.08285Q724.35626 63.785973 723.90314 63.582848Q723.46564 63.364098 723.23126 62.989098Q722.9969 62.614098 722.9969 62.145348Q722.9969 61.739098 723.1844 61.379723Q723.3719 61.020348 723.7 60.785973Q723.95 60.614098 724.3719 60.489098Q724.79376 60.364098 725.29376 60.364098Q726.0125 60.364098 726.5594 60.582848Q727.1219 60.785973 727.3875 61.145348Q727.65314 61.504723 727.7469 62.098473L726.71564 62.239098Q726.65314 61.770348 726.3094 61.504723Q725.98126 61.223473 725.35626 61.223473Q724.6375 61.223473 724.325 61.473473Q724.0125 61.707848 724.0125 62.035973Q724.0125 62.239098 724.1375 62.395348Q724.27814 62.567223 724.54376 62.676598Q724.7 62.739098 725.48126 62.942223Q726.60626 63.254723 727.04376 63.442223Q727.48126 63.629723 727.73126 63.989098Q727.98126 64.34847 727.98126 64.89535Q727.98126 65.4266 727.66876 65.89535Q727.3719 66.34847 726.79376 66.6141Q726.21564 66.8641 725.48126 66.8641Q724.2625 66.8641 723.6219 66.3641Q722.9969 65.84847 722.825 64.8641Z" fill-rule="nonzero"/><path fill="#9e9e9e" d="M700.4969 82.70785L700.4969 83.72347L694.8094 83.72347Q694.8094 83.34847 694.9344 82.9891Q695.15314 82.41097 695.6219 81.84847Q696.10626 81.28597 697.0125 80.5516Q698.41876 79.39535 698.90314 78.72347Q699.40314 78.0516 699.40314 77.45785Q699.40314 76.83285 698.95 76.41097Q698.4969 75.97347 697.77814 75.97347Q697.0125 75.97347 696.5594 76.4266Q696.10626 76.87972 696.09064 77.69222L695.0125 77.58285Q695.1219 76.3641 695.84064 75.7391Q696.575 75.09847 697.8094 75.09847Q699.04376 75.09847 699.7625 75.78597Q700.48126 76.47347 700.48126 77.4891Q700.48126 78.00472 700.2625 78.50472Q700.0594 78.9891 699.5594 79.5516Q699.075 80.09847 697.95 81.0516Q696.9969 81.84847 696.71564 82.14535Q696.45 82.4266 696.27814 82.70785L700.4969 82.70785ZM705.325 83.72347L705.325 81.66097L701.60626 81.66097L701.60626 80.69222L705.52814 75.12972L706.3875 75.12972L706.3875 80.69222L707.54376 80.69222L707.54376 81.66097L706.3875 81.66097L706.3875 83.72347L705.325 83.72347ZM705.325 80.69222L705.325 76.83285L702.6375 80.69222L705.325 80.69222ZM709.54376 83.72347L709.54376 82.52035L710.7469 82.52035L710.7469 83.72347L709.54376 83.72347ZM715.325 83.72347L715.325 81.66097L711.60626 81.66097L711.60626 80.69222L715.52814 75.12972L716.3875 75.12972L716.3875 80.69222L717.54376 80.69222L717.54376 81.66097L716.3875 81.66097L716.3875 83.72347L715.325 83.72347ZM715.325 80.69222L715.325 76.83285L712.6375 80.69222L715.325 80.69222ZM719.15314 77.19222Q719.15314 76.27035 719.60626 75.62972Q720.075 74.9891 720.95 74.9891Q721.7625 74.9891 722.29376 75.56722Q722.825 76.14535 722.825 77.25472Q722.825 78.34847 722.27814 78.94222Q721.7469 79.52035 720.96564 79.52035Q720.1844 79.52035 719.66876 78.94222Q719.15314 78.3641 719.15314 77.19222ZM720.98126 75.70785Q720.59064 75.70785 720.325 76.0516Q720.075 76.39535 720.075 77.3016Q720.075 78.12972 720.325 78.47347Q720.59064 78.8016 720.98126 78.8016Q721.3875 78.8016 721.6375 78.45785Q721.90314 78.1141 721.90314 77.22347Q721.90314 76.37972 721.6375 76.0516Q721.3719 75.70785 720.98126 75.70785ZM720.98126 84.03597L725.6844 74.9891L726.54376 74.9891L721.85626 84.03597L720.98126 84.03597ZM724.7 81.70785Q724.7 80.78597 725.15314 80.14535Q725.6219 79.50472 726.5125 79.50472Q727.325 79.50472 727.85626 80.08285Q728.3875 80.64535 728.3875 81.77035Q728.3875 82.8641 727.84064 83.45785Q727.3094 84.03597 726.5125 84.03597Q725.7469 84.03597 725.21564 83.45785Q724.7 82.87972 724.7 81.70785ZM726.54376 80.22347Q726.1375 80.22347 725.8719 80.56722Q725.6219 80.91097 725.6219 81.81722Q725.6219 82.62972 725.8875 82.97347Q726.15314 83.31722 726.54376 83.31722Q726.9344 83.31722 727.2 82.97347Q727.46564 82.62972 727.46564 81.72347Q727.46564 80.89535 727.2 80.56722Q726.9344 80.22347 726.54376 80.22347Z" fill-rule="nonzero"/><path stroke="#757575" stroke-width="1.0" stroke-linecap="butt" d="M729.45 71.22347L546.95 71.22347L483.98013 71.22347" fill-rule="nonzero"/><path fill="#9e9e9e" d="M485.98013 71.22347C485.98013 70.118904 485.0847 69.22347 483.98013 69.22347C482.87555 69.22347 481.98013 70.118904 481.98013 71.22347C481.98013 72.32804 482.87555 73.22347 483.98013 73.22347C485.0847 73.22347 485.98013 72.32804 485.98013 71.22347" fill-rule="nonzero"/><path fill="#1a1a1a" d="M651.3719 326.54208L651.3719 317.94833L652.52814 317.94833L657.04376 324.69833L657.04376 317.94833L658.1375 317.94833L658.1375 326.54208L656.96564 326.54208L652.45 319.79208L652.45 326.54208L651.3719 326.54208ZM659.85626 323.4327Q659.85626 321.69833 660.8094 320.8702Q661.60626 320.1827 662.7625 320.1827Q664.04376 320.1827 664.85626 321.02646Q665.6844 321.85458 665.6844 323.33896Q665.6844 324.54208 665.325 325.22958Q664.96564 325.91708 664.2625 326.3077Q663.575 326.6827 662.7625 326.6827Q661.46564 326.6827 660.65314 325.85458Q659.85626 325.01083 659.85626 323.4327ZM660.9344 323.4327Q660.9344 324.6202 661.45 325.21396Q661.98126 325.8077 662.7625 325.8077Q663.5594 325.8077 664.075 325.21396Q664.59064 324.6202 664.59064 323.40146Q664.59064 322.2452 664.0594 321.65146Q663.54376 321.0577 662.7625 321.0577Q661.98126 321.0577 661.45 321.65146Q660.9344 322.22958 660.9344 323.4327ZM669.54376 325.60458L669.7 326.52646Q669.2469 326.6202 668.90314 326.6202Q668.325 326.6202 668.0125 326.44833Q667.7 326.26083 667.5594 325.96396Q667.4344 325.66708 667.4344 324.71396L667.4344 321.13583L666.66876 321.13583L666.66876 320.32333L667.4344 320.32333L667.4344 318.77646L668.48126 318.15146L668.48126 320.32333L669.54376 320.32333L669.54376 321.13583L668.48126 321.13583L668.48126 324.77646Q668.48126 325.22958 668.52814 325.35458Q668.59064 325.47958 668.71564 325.5577Q668.84064 325.63583 669.075 325.63583Q669.2625 325.63583 669.54376 325.60458ZM672.4344 326.54208L675.73126 317.94833L676.95 317.94833L680.46564 326.54208L679.1844 326.54208L678.16876 323.9327L674.59064 323.9327L673.6375 326.54208L672.4344 326.54208ZM674.91876 323.01083L677.825 323.01083L676.9344 320.63583Q676.5125 319.5577 676.325 318.85458Q676.15314 319.6827 675.85626 320.4952L674.91876 323.01083ZM680.2469 328.9327L680.2469 320.32333L681.2 320.32333L681.2 321.1202Q681.54376 320.65146 681.96564 320.41708Q682.40314 320.1827 683.0125 320.1827Q683.8094 320.1827 684.41876 320.58896Q685.02814 320.9952 685.325 321.7452Q685.6375 322.4952 685.6375 323.38583Q685.6375 324.33896 685.29376 325.10458Q684.96564 325.8702 684.3094 326.27646Q683.65314 326.6827 682.9344 326.6827Q682.40314 326.6827 681.98126 326.46396Q681.5594 326.22958 681.29376 325.90146L681.29376 328.9327L680.2469 328.9327ZM681.2 323.46396Q681.2 324.66708 681.6844 325.2452Q682.16876 325.8077 682.85626 325.8077Q683.5594 325.8077 684.0594 325.21396Q684.5594 324.6202 684.5594 323.3702Q684.5594 322.1827 684.075 321.60458Q683.59064 321.01083 682.90314 321.01083Q682.23126 321.01083 681.71564 321.63583Q681.2 322.26083 681.2 323.46396ZM687.2469 328.9327L687.2469 320.32333L688.2 320.32333L688.2 321.1202Q688.54376 320.65146 688.96564 320.41708Q689.40314 320.1827 690.0125 320.1827Q690.8094 320.1827 691.41876 320.58896Q692.02814 320.9952 692.325 321.7452Q692.6375 322.4952 692.6375 323.38583Q692.6375 324.33896 692.29376 325.10458Q691.96564 325.8702 691.3094 326.27646Q690.65314 326.6827 689.9344 326.6827Q689.40314 326.6827 688.98126 326.46396Q688.5594 326.22958 688.29376 325.90146L688.29376 328.9327L687.2469 328.9327ZM688.2 323.46396Q688.2 324.66708 688.6844 325.2452Q689.16876 325.8077 689.85626 325.8077Q690.5594 325.8077 691.0594 325.21396Q691.5594 324.6202 691.5594 323.3702Q691.5594 322.1827 691.075 321.60458Q690.59064 321.01083 689.90314 321.01083Q689.23126 321.01083 688.71564 321.63583Q688.2 322.26083 688.2 323.46396ZM694.21564 326.54208L694.21564 317.94833L695.27814 317.94833L695.27814 326.54208L694.21564 326.54208ZM697.2469 319.16708L697.2469 317.94833L698.3094 317.94833L698.3094 319.16708L697.2469 319.16708ZM697.2469 326.54208L697.2469 320.32333L698.3094 320.32333L698.3094 326.54208L697.2469 326.54208ZM704.3094 324.26083L705.34064 324.40146Q705.16876 325.46396 704.46564 326.07333Q703.7625 326.6827 702.7469 326.6827Q701.46564 326.6827 700.6844 325.85458Q699.91876 325.01083 699.91876 323.44833Q699.91876 322.44833 700.2469 321.69833Q700.59064 320.9327 701.2625 320.5577Q701.95 320.1827 702.7625 320.1827Q703.7625 320.1827 704.40314 320.69833Q705.0594 321.19833 705.2469 322.15146L704.21564 322.3077Q704.075 321.6827 703.7 321.3702Q703.325 321.04208 702.79376 321.04208Q701.9969 321.04208 701.4969 321.6202Q700.9969 322.1827 700.9969 323.41708Q700.9969 324.6827 701.48126 325.2452Q701.96564 325.8077 702.73126 325.8077Q703.35626 325.8077 703.7625 325.4327Q704.1844 325.0577 704.3094 324.26083ZM710.3094 325.77646Q709.71564 326.27646 709.16876 326.47958Q708.6375 326.6827 708.0125 326.6827Q706.98126 326.6827 706.4344 326.1827Q705.8875 325.6827 705.8875 324.90146Q705.8875 324.44833 706.09064 324.07333Q706.29376 323.6827 706.6375 323.46396Q706.98126 323.22958 707.40314 323.1202Q707.7 323.02646 708.34064 322.94833Q709.60626 322.8077 710.21564 322.58896Q710.21564 322.3702 710.21564 322.32333Q710.21564 321.66708 709.91876 321.40146Q709.5125 321.0577 708.71564 321.0577Q707.98126 321.0577 707.6219 321.32333Q707.2625 321.57333 707.09064 322.22958L706.0594 322.08896Q706.2 321.4327 706.52814 321.02646Q706.85626 320.6202 707.46564 320.40146Q708.075 320.1827 708.8719 320.1827Q709.66876 320.1827 710.16876 320.3702Q710.66876 320.5577 710.90314 320.83896Q711.1375 321.1202 711.23126 321.5577Q711.27814 321.82333 711.27814 322.52646L711.27814 323.9327Q711.27814 325.40146 711.34064 325.79208Q711.41876 326.1827 711.6219 326.54208L710.5125 326.54208Q710.35626 326.21396 710.3094 325.77646ZM710.21564 323.41708Q709.6375 323.65146 708.4969 323.82333Q707.84064 323.91708 707.575 324.04208Q707.3094 324.15146 707.15314 324.3702Q707.0125 324.58896 707.0125 324.8702Q707.0125 325.29208 707.325 325.57333Q707.65314 325.85458 708.2625 325.85458Q708.8719 325.85458 709.34064 325.58896Q709.825 325.32333 710.04376 324.85458Q710.21564 324.4952 710.21564 323.8077L710.21564 323.41708ZM714.21564 326.54208L713.23126 326.54208L713.23126 317.94833L714.29376 317.94833L714.29376 321.01083Q714.96564 320.1827 715.9969 320.1827Q716.575 320.1827 717.075 320.41708Q717.59064 320.63583 717.91876 321.0577Q718.2625 321.47958 718.45 322.07333Q718.6375 322.66708 718.6375 323.33896Q718.6375 324.9327 717.84064 325.8077Q717.04376 326.6827 715.95 326.6827Q714.84064 326.6827 714.21564 325.76083L714.21564 326.54208ZM714.2 323.38583Q714.2 324.4952 714.5125 324.9952Q715.0125 325.8077 715.85626 325.8077Q716.54376 325.8077 717.04376 325.21396Q717.5594 324.6202 717.5594 323.41708Q717.5594 322.19833 717.075 321.6202Q716.59064 321.04208 715.90314 321.04208Q715.21564 321.04208 714.7 321.65146Q714.2 322.2452 714.2 323.38583ZM720.21564 326.54208L720.21564 317.94833L721.27814 317.94833L721.27814 326.54208L720.21564 326.54208ZM727.4969 324.54208L728.59064 324.66708Q728.34064 325.6202 727.6375 326.15146Q726.9344 326.6827 725.85626 326.6827Q724.4969 326.6827 723.6844 325.83896Q722.8875 324.9952 722.8875 323.47958Q722.8875 321.91708 723.7 321.0577Q724.5125 320.1827 725.79376 320.1827Q727.04376 320.1827 727.825 321.02646Q728.6219 321.8702 728.6219 323.41708Q728.6219 323.51083 728.6219 323.69833L723.98126 323.69833Q724.04376 324.72958 724.5594 325.27646Q725.075 325.8077 725.85626 325.8077Q726.4344 325.8077 726.84064 325.51083Q727.2625 325.19833 727.4969 324.54208ZM724.04376 322.83896L727.5125 322.83896Q727.45 322.04208 727.1219 321.65146Q726.60626 321.04208 725.8094 321.04208Q725.075 321.04208 724.575 321.52646Q724.09064 322.01083 724.04376 322.83896Z" fill-rule="nonzero"/><path fill="#9e9e9e" d="M694.95 341.27646L696.0125 341.13583Q696.1844 342.02646 696.6219 342.4327Q697.0594 342.82333 697.6844 342.82333Q698.4344 342.82333 698.95 342.3077Q699.46564 341.79208 699.46564 341.02646Q699.46564 340.3077 698.98126 339.83896Q698.5125 339.35458 697.77814 339.35458Q697.48126 339.35458 697.02814 339.47958L697.15314 338.54208Q697.2625 338.5577 697.325 338.5577Q697.9969 338.5577 698.52814 338.21396Q699.075 337.85458 699.075 337.1202Q699.075 336.54208 698.6844 336.16708Q698.29376 335.77646 697.66876 335.77646Q697.0594 335.77646 696.6375 336.16708Q696.23126 336.5577 696.1219 337.32333L695.0594 337.13583Q695.2469 336.08896 695.9344 335.51083Q696.6219 334.91708 697.6375 334.91708Q698.34064 334.91708 698.9344 335.22958Q699.52814 335.52646 699.84064 336.04208Q700.15314 336.5577 700.15314 337.15146Q700.15314 337.69833 699.85626 338.16708Q699.5594 338.6202 698.98126 338.88583Q699.73126 339.0577 700.15314 339.6202Q700.575 340.16708 700.575 341.01083Q700.575 342.13583 699.7469 342.91708Q698.9344 343.69833 697.6844 343.69833Q696.5594 343.69833 695.8094 343.02646Q695.0594 342.33896 694.95 341.27646ZM703.575 338.88583Q702.91876 338.63583 702.59064 338.19833Q702.27814 337.7452 702.27814 337.13583Q702.27814 336.19833 702.95 335.5577Q703.6375 334.91708 704.7469 334.91708Q705.8719 334.91708 706.5594 335.57333Q707.2469 336.22958 707.2469 337.16708Q707.2469 337.76083 706.9344 338.19833Q706.6219 338.63583 705.98126 338.88583Q706.77814 339.13583 707.1844 339.71396Q707.59064 340.29208 707.59064 341.08896Q707.59064 342.1827 706.8094 342.9327Q706.04376 343.6827 704.7625 343.6827Q703.4969 343.6827 702.71564 342.9327Q701.9344 342.1827 701.9344 341.0577Q701.9344 340.21396 702.35626 339.65146Q702.79376 339.08896 703.575 338.88583ZM703.35626 337.08896Q703.35626 337.69833 703.7469 338.08896Q704.15314 338.47958 704.77814 338.47958Q705.3875 338.47958 705.77814 338.10458Q706.16876 337.71396 706.16876 337.15146Q706.16876 336.57333 705.7625 336.1827Q705.35626 335.77646 704.7625 335.77646Q704.15314 335.77646 703.7469 336.16708Q703.35626 336.5577 703.35626 337.08896ZM703.02814 341.0577Q703.02814 341.51083 703.23126 341.9327Q703.45 342.35458 703.8719 342.58896Q704.29376 342.82333 704.77814 342.82333Q705.52814 342.82333 706.0125 342.33896Q706.5125 341.85458 706.5125 341.10458Q706.5125 340.33896 706.0125 339.83896Q705.5125 339.33896 704.7469 339.33896Q703.9969 339.33896 703.5125 339.83896Q703.02814 340.32333 703.02814 341.0577ZM709.54376 343.54208L709.54376 342.33896L710.7469 342.33896L710.7469 343.54208L709.54376 343.54208ZM717.4969 342.52646L717.4969 343.54208L711.8094 343.54208Q711.8094 343.16708 711.9344 342.8077Q712.15314 342.22958 712.6219 341.66708Q713.10626 341.10458 714.0125 340.3702Q715.41876 339.21396 715.90314 338.54208Q716.40314 337.8702 716.40314 337.27646Q716.40314 336.65146 715.95 336.22958Q715.4969 335.79208 714.77814 335.79208Q714.0125 335.79208 713.5594 336.2452Q713.10626 336.69833 713.09064 337.51083L712.0125 337.40146Q712.1219 336.1827 712.84064 335.5577Q713.575 334.91708 714.8094 334.91708Q716.04376 334.91708 716.7625 335.60458Q717.48126 336.29208 717.48126 337.3077Q717.48126 337.82333 717.2625 338.32333Q717.0594 338.8077 716.5594 339.3702Q716.075 339.91708 714.95 340.8702Q713.9969 341.66708 713.71564 341.96396Q713.45 342.2452 713.27814 342.52646L717.4969 342.52646ZM719.15314 337.01083Q719.15314 336.08896 719.60626 335.44833Q720.075 334.8077 720.95 334.8077Q721.7625 334.8077 722.29376 335.38583Q722.825 335.96396 722.825 337.07333Q722.825 338.16708 722.27814 338.76083Q721.7469 339.33896 720.96564 339.33896Q720.1844 339.33896 719.66876 338.76083Q719.15314 338.1827 719.15314 337.01083ZM720.98126 335.52646Q720.59064 335.52646 720.325 335.8702Q720.075 336.21396 720.075 337.1202Q720.075 337.94833 720.325 338.29208Q720.59064 338.6202 720.98126 338.6202Q721.3875 338.6202 721.6375 338.27646Q721.90314 337.9327 721.90314 337.04208Q721.90314 336.19833 721.6375 335.8702Q721.3719 335.52646 720.98126 335.52646ZM720.98126 343.85458L725.6844 334.8077L726.54376 334.8077L721.85626 343.85458L720.98126 343.85458ZM724.7 341.52646Q724.7 340.60458 725.15314 339.96396Q725.6219 339.32333 726.5125 339.32333Q727.325 339.32333 727.85626 339.90146Q728.3875 340.46396 728.3875 341.58896Q728.3875 342.6827 727.84064 343.27646Q727.3094 343.85458 726.5125 343.85458Q725.7469 343.85458 725.21564 343.27646Q724.7 342.69833 724.7 341.52646ZM726.54376 340.04208Q726.1375 340.04208 725.8719 340.38583Q725.6219 340.72958 725.6219 341.63583Q725.6219 342.44833 725.8875 342.79208Q726.15314 343.13583 726.54376 343.13583Q726.9344 343.13583 727.2 342.79208Q727.46564 342.44833 727.46564 341.54208Q727.46564 340.71396 727.2 340.38583Q726.9344 340.04208 726.54376 340.04208Z" fill-rule="nonzero"/><path stroke="#757575" stroke-width="1.0" stroke-linecap="butt" d="M729.45 331.04208L546.95 331.04208L437.02582 331.04208" fill-rule="nonzero"/><path fill="#9e9e9e" d="M439.02582 331.04208C439.02582 329.93753 438.1304 329.04208 437.02582 329.04208C435.92126 329.04208 435.02582 329.93753 435.02582 331.04208C435.02582 332.14667 435.92126 333.04208 437.02582 333.04208C438.1304 333.04208 439.02582 332.14667 439.02582 331.04208" fill-rule="nonzero"/></svg>