<svg version="1.1" viewBox="0.0 0.0 808.0 482.0" fill="none" stroke="none" stroke-linecap="square" stroke-miterlimit="10" width="808" height="482" xmlns:xlink="http://www.w3.org/1999/xlink" xmlns="http://www.w3.org/2000/svg"><path fill="#ffffff" d="M0 0L808.0 0L808.0 482.0L0 482.0L0 0Z" fill-rule="nonzero"/><path fill="#4285f4" d="M404.0 24.1C414.17453 24.1 424.33643 24.81591 434.41043 26.242426L404.0 241.0Z" fill-rule="nonzero"/><path fill="#ff6d01" d="M373.58957 26.242426C383.66357 24.81591 393.82547 24.1 404.0 24.1L404.0 241.0Z" fill-rule="nonzero"/><path fill="#34a853" d="M297.02127 52.317307C320.68326 38.901493 346.6576 30.05609 373.58957 26.242426L404.0 241.0Z" fill-rule="nonzero"/><path fill="#fbbc04" d="M248.84125 89.43691C263.07816 74.86225 279.29758 62.36623 297.02127 52.317307L404.0 241.0Z" fill-rule="nonzero"/><path fill="#ea4335" d="M434.41043 26.242426C533.7997 40.3163 610.5471 120.749466 619.94696 220.68916C629.34674 320.62885 568.9428 413.96176 473.92084 446.32095C378.8988 478.6801 274.08707 441.6104 220.53903 356.70514C166.99098 271.79987 178.69823 161.24399 248.84125 89.43691L404.0 241.0Z" fill-rule="nonzero"/><path fill="#1a1a1a" d="M24.146875 35.1L27.475 30.615623L24.553125 26.506248L25.896875 26.506248L27.459375 28.709373Q27.94375 29.396873 28.146875 29.771873Q28.44375 29.303123 28.834375 28.787498L30.553125 26.506248L31.7875 26.506248L28.771875 30.553123L32.021873 35.1L30.615625 35.1L28.459375 32.0375Q28.271875 31.771873 28.084375 31.459373Q27.803125 31.928123 27.678125 32.1L25.521875 35.1L24.146875 35.1ZM35.959373 34.334373Q35.365623 34.834373 34.81875 35.0375Q34.2875 35.240623 33.6625 35.240623Q32.63125 35.240623 32.084373 34.740623Q31.5375 34.240623 31.5375 33.459373Q31.5375 33.00625 31.740625 32.63125Q31.94375 32.240623 32.2875 32.021873Q32.63125 31.787498 33.053123 31.678123Q33.35 31.584373 33.990623 31.506248Q35.25625 31.365623 35.865623 31.146873Q35.865623 30.928123 35.865623 30.881248Q35.865623 30.224998 35.56875 29.959373Q35.1625 29.615623 34.365623 29.615623Q33.63125 29.615623 33.271873 29.881248Q32.9125 30.131248 32.740623 30.787498L31.709375 30.646873Q31.85 29.990623 32.178123 29.584373Q32.50625 29.178123 33.115623 28.959373Q33.725 28.740623 34.521873 28.740623Q35.31875 28.740623 35.81875 28.928123Q36.31875 29.115623 36.553123 29.396873Q36.7875 29.678123 36.88125 30.115623Q36.928123 30.381248 36.928123 31.084373L36.928123 32.490623Q36.928123 33.959373 36.990623 34.35Q37.06875 34.740623 37.271873 35.1L36.1625 35.1Q36.00625 34.771873 35.959373 34.334373ZM35.865623 31.974998Q35.2875 32.209373 34.146873 32.38125Q33.490623 32.475 33.225 32.6Q32.959373 32.709373 32.803123 32.928123Q32.6625 33.146873 32.6625 33.428123Q32.6625 33.85 32.975 34.13125Q33.303123 34.4125 33.9125 34.4125Q34.521873 34.4125 34.990623 34.146873Q35.475 33.88125 35.69375 33.4125Q35.865623 33.053123 35.865623 32.365623L35.865623 31.974998ZM38.896873 35.1L38.896873 28.881248L39.834373 28.881248L39.834373 29.756248Q40.13125 29.287498 40.615623 29.021873Q41.1 28.740623 41.725 28.740623Q42.4125 28.740623 42.85 29.021873Q43.303123 29.303123 43.475 29.818748Q44.225 28.740623 45.396873 28.740623Q46.334373 28.740623 46.81875 29.256248Q47.31875 29.756248 47.31875 30.834373L47.31875 35.1L46.271873 35.1L46.271873 31.178123Q46.271873 30.553123 46.1625 30.271873Q46.06875 29.990623 45.803123 29.818748Q45.5375 29.646873 45.1625 29.646873Q44.50625 29.646873 44.06875 30.084373Q43.646873 30.521873 43.646873 31.490623L43.646873 35.1L42.584373 35.1L42.584373 31.053123Q42.584373 30.349998 42.31875 30.006248Q42.06875 29.646873 41.490623 29.646873Q41.0375 29.646873 40.6625 29.881248Q40.2875 30.115623 40.115623 30.568748Q39.94375 31.021873 39.94375 31.865623L39.94375 35.1L38.896873 35.1ZM53.959373 34.334373Q53.365623 34.834373 52.81875 35.0375Q52.2875 35.240623 51.6625 35.240623Q50.63125 35.240623 50.084373 34.740623Q49.5375 34.240623 49.5375 33.459373Q49.5375 33.00625 49.740623 32.63125Q49.94375 32.240623 50.2875 32.021873Q50.63125 31.787498 51.053123 31.678123Q51.35 31.584373 51.990623 31.506248Q53.25625 31.365623 53.865623 31.146873Q53.865623 30.928123 53.865623 30.881248Q53.865623 30.224998 53.56875 29.959373Q53.1625 29.615623 52.365623 29.615623Q51.63125 29.615623 51.271873 29.881248Q50.9125 30.131248 50.740623 30.787498L49.709373 30.646873Q49.85 29.990623 50.178123 29.584373Q50.50625 29.178123 51.115623 28.959373Q51.725 28.740623 52.521873 28.740623Q53.31875 28.740623 53.81875 28.928123Q54.31875 29.115623 54.553123 29.396873Q54.7875 29.678123 54.88125 30.115623Q54.928123 30.381248 54.928123 31.084373L54.928123 32.490623Q54.928123 33.959373 54.990623 34.35Q55.06875 34.740623 55.271873 35.1L54.1625 35.1Q54.00625 34.771873 53.959373 34.334373ZM53.865623 31.974998Q53.2875 32.209373 52.146873 32.38125Q51.490623 32.475 51.225 32.6Q50.959373 32.709373 50.803123 32.928123Q50.6625 33.146873 50.6625 33.428123Q50.6625 33.85 50.975 34.13125Q51.303123 34.4125 51.9125 34.4125Q52.521873 34.4125 52.990623 34.146873Q53.475 33.88125 53.69375 33.4125Q53.865623 33.053123 53.865623 32.365623L53.865623 31.974998ZM56.88125 35.1L56.88125 28.881248L57.834373 28.881248L57.834373 29.818748Q58.19375 29.162498 58.490623 28.959373Q58.803123 28.740623 59.178123 28.740623Q59.709373 28.740623 60.25625 29.068748L59.896873 30.053123Q59.50625 29.818748 59.13125 29.818748Q58.771873 29.818748 58.490623 30.037498Q58.225 30.240623 58.115623 30.615623Q57.928123 31.178123 57.928123 31.834373L57.928123 35.1L56.88125 35.1ZM60.896873 27.724998L60.896873 26.506248L61.959373 26.506248L61.959373 27.724998L60.896873 27.724998ZM60.896873 35.1L60.896873 28.881248L61.959373 28.881248L61.959373 35.1L60.896873 35.1ZM63.896873 35.1L63.896873 28.881248L64.83437 28.881248L64.83437 29.756248Q65.52187 28.740623 66.81875 28.740623Q67.38125 28.740623 67.85 28.943748Q68.33437 29.146873 68.56875 29.474998Q68.80312 29.803123 68.89687 30.240623Q68.94375 30.537498 68.94375 31.271873L68.94375 35.1L67.89687 35.1L67.89687 31.318748Q67.89687 30.662498 67.77187 30.349998Q67.64687 30.037498 67.33437 29.849998Q67.02187 29.646873 66.6 29.646873Q65.92812 29.646873 65.42812 30.084373Q64.94375 30.506248 64.94375 31.693748L64.94375 35.1L63.896873 35.1ZM73.1 35.240623L75.58437 26.365623L76.42812 26.365623L73.94375 35.240623L73.1 35.240623ZM86.1625 32.084373L87.2875 32.38125Q86.92812 33.771873 86.00625 34.50625Q85.08437 35.240623 83.74062 35.240623Q82.35 35.240623 81.475 34.678123Q80.6 34.115623 80.14687 33.053123Q79.69375 31.974998 79.69375 30.740623Q79.69375 29.396873 80.20937 28.396873Q80.725 27.396873 81.6625 26.881248Q82.61562 26.365623 83.75625 26.365623Q85.0375 26.365623 85.9125 27.021873Q86.80312 27.678123 87.14687 28.865623L86.02187 29.131248Q85.725 28.193748 85.14687 27.771873Q84.58437 27.334373 83.725 27.334373Q82.74062 27.334373 82.06875 27.818748Q81.4125 28.287498 81.13125 29.084373Q80.86562 29.881248 80.86562 30.740623Q80.86562 31.834373 81.17812 32.646873Q81.50625 33.459373 82.17812 33.865623Q82.85 34.271873 83.64687 34.271873Q84.6 34.271873 85.25625 33.725Q85.92812 33.178123 86.1625 32.084373ZM88.70937 35.240623L89.20937 32.75625L88.225 32.75625L88.225 31.881248L89.39687 31.881248L89.81875 29.756248L88.225 29.756248L88.225 28.881248L90.00625 28.881248L90.50625 26.365623L91.38125 26.365623L90.88125 28.881248L92.725 28.881248L93.24062 26.365623L94.11562 26.365623L93.61562 28.881248L94.61562 28.881248L94.61562 29.756248L93.42812 29.756248L92.99062 31.881248L94.61562 31.881248L94.61562 32.75625L92.81875 32.75625L92.30312 35.240623L91.42812 35.240623L91.92812 32.75625L90.1 32.75625L89.58437 35.240623L88.70937 35.240623ZM90.27187 31.881248L92.11562 31.881248L92.55312 29.756248L90.70937 29.756248L90.27187 31.881248Z" fill-rule="nonzero"/><path fill="#9e9e9e" d="M30.146875 51.084373L30.146875 52.1L24.459375 52.1Q24.459375 51.725 24.584375 51.365623Q24.803125 50.7875 25.271875 50.225Q25.75625 49.6625 26.6625 48.928123Q28.06875 47.771873 28.553125 47.1Q29.053125 46.428123 29.053125 45.834373Q29.053125 45.209373 28.6 44.7875Q28.146875 44.35 27.428125 44.35Q26.6625 44.35 26.209375 44.803123Q25.75625 45.25625 25.740625 46.06875L24.6625 45.959373Q24.771875 44.740623 25.490625 44.115623Q26.225 43.475 27.459375 43.475Q28.69375 43.475 29.4125 44.1625Q30.13125 44.85 30.13125 45.865623Q30.13125 46.38125 29.9125 46.88125Q29.709375 47.365623 29.209375 47.928123Q28.725 48.475 27.6 49.428123Q26.646875 50.225 26.365625 50.521873Q26.1 50.803123 25.928125 51.084373L30.146875 51.084373ZM32.19375 52.1L32.19375 50.896873L33.396873 50.896873L33.396873 52.1L32.19375 52.1ZM40.146873 51.084373L40.146873 52.1L34.459373 52.1Q34.459373 51.725 34.584373 51.365623Q34.803123 50.7875 35.271873 50.225Q35.75625 49.6625 36.6625 48.928123Q38.06875 47.771873 38.553123 47.1Q39.053123 46.428123 39.053123 45.834373Q39.053123 45.209373 38.6 44.7875Q38.146873 44.35 37.428123 44.35Q36.6625 44.35 36.209373 44.803123Q35.75625 45.25625 35.740623 46.06875L34.6625 45.959373Q34.771873 44.740623 35.490623 44.115623Q36.225 43.475 37.459373 43.475Q38.69375 43.475 39.4125 44.1625Q40.13125 44.85 40.13125 45.865623Q40.13125 46.38125 39.9125 46.88125Q39.709373 47.365623 39.209373 47.928123Q38.725 48.475 37.6 49.428123Q36.646873 50.225 36.365623 50.521873Q36.1 50.803123 35.928123 51.084373L40.146873 51.084373ZM41.803123 45.56875Q41.803123 44.646873 42.25625 44.00625Q42.725 43.365623 43.6 43.365623Q44.4125 43.365623 44.94375 43.94375Q45.475 44.521873 45.475 45.63125Q45.475 46.725 44.928123 47.31875Q44.396873 47.896873 43.615623 47.896873Q42.834373 47.896873 42.31875 47.31875Q41.803123 46.740623 41.803123 45.56875ZM43.63125 44.084373Q43.240623 44.084373 42.975 44.428123Q42.725 44.771873 42.725 45.678123Q42.725 46.50625 42.975 46.85Q43.240623 47.178123 43.63125 47.178123Q44.0375 47.178123 44.2875 46.834373Q44.553123 46.490623 44.553123 45.6Q44.553123 44.75625 44.2875 44.428123Q44.021873 44.084373 43.63125 44.084373ZM43.63125 52.4125L48.334373 43.365623L49.19375 43.365623L44.50625 52.4125L43.63125 52.4125ZM47.35 50.084373Q47.35 49.1625 47.803123 48.521873Q48.271873 47.88125 49.1625 47.88125Q49.975 47.88125 50.50625 48.459373Q51.0375 49.021873 51.0375 50.146873Q51.0375 51.240623 50.490623 51.834373Q49.959373 52.4125 49.1625 52.4125Q48.396873 52.4125 47.865623 51.834373Q47.35 51.25625 47.35 50.084373ZM49.19375 48.6Q48.7875 48.6 48.521873 48.94375Q48.271873 49.2875 48.271873 50.19375Q48.271873 51.00625 48.5375 51.35Q48.803123 51.69375 49.19375 51.69375Q49.584373 51.69375 49.85 51.35Q50.115623 51.00625 50.115623 50.1Q50.115623 49.271873 49.85 48.94375Q49.584373 48.6 49.19375 48.6Z" fill-rule="nonzero"/><path stroke="#757575" stroke-width="1.0" stroke-linecap="butt" d="M24.1 39.6L181.1 39.6L389.51923 35.454456" fill-rule="nonzero"/><path fill="#9e9e9e" d="M391.51923 35.454456C391.51923 34.349888 390.6238 33.454456 389.51923 33.454456C388.41467 33.454456 387.51923 34.349888 387.51923 35.454456C387.51923 36.559025 388.41467 37.454456 389.51923 37.454456C390.6238 37.454456 391.51923 36.559025 391.51923 35.454456" fill-rule="nonzero"/><path fill="#1a1a1a" d="M25.084375 66.1L25.084375 57.50625L30.88125 57.50625L30.88125 58.521873L26.225 58.521873L26.225 61.178123L30.25625 61.178123L30.25625 62.19375L26.225 62.19375L26.225 66.1L25.084375 66.1ZM31.865625 66.1L31.865625 57.50625L32.928123 57.50625L32.928123 66.1L31.865625 66.1ZM38.975 66.1L38.975 65.17812Q38.240623 66.24062 36.990623 66.24062Q36.44375 66.24062 35.959373 66.0375Q35.490623 65.81875 35.25625 65.50625Q35.021873 65.17812 34.928123 64.70937Q34.865623 64.4125 34.865623 63.725L34.865623 59.88125L35.928123 59.88125L35.928123 63.334373Q35.928123 64.14687 35.990623 64.44375Q36.084373 64.85 36.396873 65.1Q36.725 65.33437 37.209373 65.33437Q37.678123 65.33437 38.084373 65.1Q38.50625 64.85 38.678123 64.42812Q38.865623 64.00625 38.865623 63.209373L38.865623 59.88125L39.9125 59.88125L39.9125 66.1L38.975 66.1ZM44.19375 65.1625L44.35 66.08437Q43.896873 66.17812 43.553123 66.17812Q42.975 66.17812 42.6625 66.00625Q42.35 65.81875 42.209373 65.52187Q42.084373 65.225 42.084373 64.27187L42.084373 60.69375L41.31875 60.69375L41.31875 59.88125L42.084373 59.88125L42.084373 58.334373L43.13125 57.709373L43.13125 59.88125L44.19375 59.88125L44.19375 60.69375L43.13125 60.69375L43.13125 64.33437Q43.13125 64.7875 43.178123 64.9125Q43.240623 65.0375 43.365623 65.11562Q43.490623 65.19375 43.725 65.19375Q43.9125 65.19375 44.19375 65.1625ZM47.19375 65.1625L47.35 66.08437Q46.896873 66.17812 46.553123 66.17812Q45.975 66.17812 45.6625 66.00625Q45.35 65.81875 45.209373 65.52187Q45.084373 65.225 45.084373 64.27187L45.084373 60.69375L44.31875 60.69375L44.31875 59.88125L45.084373 59.88125L45.084373 58.334373L46.13125 57.709373L46.13125 59.88125L47.19375 59.88125L47.19375 60.69375L46.13125 60.69375L46.13125 64.33437Q46.13125 64.7875 46.178123 64.9125Q46.240623 65.0375 46.365623 65.11562Q46.490623 65.19375 46.725 65.19375Q46.9125 65.19375 47.19375 65.1625ZM52.146873 64.1L53.240623 64.225Q52.990623 65.17812 52.2875 65.70937Q51.584373 66.24062 50.50625 66.24062Q49.146873 66.24062 48.334373 65.39687Q47.5375 64.55312 47.5375 63.0375Q47.5375 61.475 48.35 60.615623Q49.1625 59.740623 50.44375 59.740623Q51.69375 59.740623 52.475 60.584373Q53.271873 61.428123 53.271873 62.975Q53.271873 63.06875 53.271873 63.25625L48.63125 63.25625Q48.69375 64.2875 49.209373 64.83437Q49.725 65.36562 50.50625 65.36562Q51.084373 65.36562 51.490623 65.06875Q51.9125 64.75625 52.146873 64.1ZM48.69375 62.396873L52.1625 62.396873Q52.1 61.6 51.771873 61.209373Q51.25625 60.6 50.459373 60.6Q49.725 60.6 49.225 61.084373Q48.740623 61.56875 48.69375 62.396873ZM54.88125 66.1L54.88125 59.88125L55.834373 59.88125L55.834373 60.81875Q56.19375 60.1625 56.490623 59.959373Q56.803123 59.740623 57.178123 59.740623Q57.709373 59.740623 58.25625 60.06875L57.896873 61.053123Q57.50625 60.81875 57.13125 60.81875Q56.771873 60.81875 56.490623 61.0375Q56.225 61.240623 56.115623 61.615623Q55.928123 62.178123 55.928123 62.834373L55.928123 66.1L54.88125 66.1Z" fill-rule="nonzero"/><path fill="#9e9e9e" d="M30.06875 76.61562L29.021875 76.69375Q28.88125 76.06875 28.63125 75.7875Q28.19375 75.33437 27.56875 75.33437Q27.06875 75.33437 26.678125 75.61562Q26.19375 75.99062 25.896875 76.69375Q25.615625 77.38125 25.6 78.6625Q25.975 78.08437 26.521875 77.80312Q27.084375 77.52187 27.69375 77.52187Q28.740625 77.52187 29.475 78.30312Q30.225 79.08437 30.225 80.30312Q30.225 81.11562 29.865625 81.81875Q29.521875 82.50625 28.9125 82.88125Q28.303125 83.24062 27.5375 83.24062Q26.209375 83.24062 25.38125 82.27187Q24.553125 81.30312 24.553125 79.08437Q24.553125 76.58437 25.475 75.45937Q26.271875 74.475 27.63125 74.475Q28.646875 74.475 29.2875 75.05312Q29.94375 75.61562 30.06875 76.61562ZM25.771875 80.31875Q25.771875 80.86562 25.990625 81.36562Q26.225 81.85 26.63125 82.11562Q27.053125 82.38125 27.521875 82.38125Q28.178125 82.38125 28.6625 81.85Q29.146875 81.30312 29.146875 80.38125Q29.146875 79.49062 28.6625 78.975Q28.19375 78.45937 27.475 78.45937Q26.75625 78.45937 26.25625 78.975Q25.771875 79.49062 25.771875 80.31875ZM32.19375 83.1L32.19375 81.89687L33.396873 81.89687L33.396873 83.1L32.19375 83.1ZM34.6 78.86562Q34.6 77.33437 34.9125 76.4125Q35.225 75.475 35.834373 74.975Q36.459373 74.475 37.396873 74.475Q38.084373 74.475 38.6 74.75625Q39.13125 75.0375 39.475 75.56875Q39.81875 76.08437 40.00625 76.83437Q40.19375 77.58437 40.19375 78.86562Q40.19375 80.38125 39.88125 81.30312Q39.584373 82.225 38.959373 82.74062Q38.35 83.24062 37.396873 83.24062Q36.1625 83.24062 35.44375 82.35Q34.6 81.2875 34.6 78.86562ZM35.678123 78.86562Q35.678123 80.975 36.178123 81.67812Q36.678123 82.38125 37.396873 82.38125Q38.13125 82.38125 38.615623 81.67812Q39.115623 80.975 39.115623 78.86562Q39.115623 76.74062 38.615623 76.05312Q38.13125 75.35 37.38125 75.35Q36.6625 75.35 36.225 75.95937Q35.678123 76.74062 35.678123 78.86562ZM41.803123 76.56875Q41.803123 75.64687 42.25625 75.00625Q42.725 74.36562 43.6 74.36562Q44.4125 74.36562 44.94375 74.94375Q45.475 75.52187 45.475 76.63125Q45.475 77.725 44.928123 78.31875Q44.396873 78.89687 43.615623 78.89687Q42.834373 78.89687 42.31875 78.31875Q41.803123 77.74062 41.803123 76.56875ZM43.63125 75.08437Q43.240623 75.08437 42.975 75.42812Q42.725 75.77187 42.725 76.67812Q42.725 77.50625 42.975 77.85Q43.240623 78.17812 43.63125 78.17812Q44.0375 78.17812 44.2875 77.83437Q44.553123 77.49062 44.553123 76.6Q44.553123 75.75625 44.2875 75.42812Q44.021873 75.08437 43.63125 75.08437ZM43.63125 83.4125L48.334373 74.36562L49.19375 74.36562L44.50625 83.4125L43.63125 83.4125ZM47.35 81.08437Q47.35 80.1625 47.803123 79.52187Q48.271873 78.88125 49.1625 78.88125Q49.975 78.88125 50.50625 79.45937Q51.0375 80.02187 51.0375 81.14687Q51.0375 82.24062 50.490623 82.83437Q49.959373 83.4125 49.1625 83.4125Q48.396873 83.4125 47.865623 82.83437Q47.35 82.25625 47.35 81.08437ZM49.19375 79.6Q48.7875 79.6 48.521873 79.94375Q48.271873 80.2875 48.271873 81.19375Q48.271873 82.00625 48.5375 82.35Q48.803123 82.69375 49.19375 82.69375Q49.584373 82.69375 49.85 82.35Q50.115623 82.00625 50.115623 81.1Q50.115623 80.27187 49.85 79.94375Q49.584373 79.6 49.19375 79.6Z" fill-rule="nonzero"/><path stroke="#757575" stroke-width="1.0" stroke-linecap="butt" d="M24.1 70.6L181.1 70.6L337.57523 45.945107" fill-rule="nonzero"/><path fill="#9e9e9e" d="M339.57523 45.945107C339.57523 44.840538 338.67978 43.945107 337.57523 43.945107C336.47064 43.945107 335.57523 44.840538 335.57523 45.945107C335.57523 47.049675 336.47064 47.945107 337.57523 47.945107C338.67978 47.945107 339.57523 47.049675 339.57523 45.945107" fill-rule="nonzero"/><path fill="#1a1a1a" d="M25.0375 97.1L25.0375 88.50625L28.85 88.50625Q30.00625 88.50625 30.6 88.74062Q31.19375 88.975 31.553125 89.56875Q31.9125 90.14687 31.9125 90.85Q31.9125 91.77187 31.31875 92.39687Q30.725 93.02187 29.490625 93.19375Q29.94375 93.4125 30.178125 93.61562Q30.678125 94.06875 31.115625 94.75625L32.615623 97.1L31.178125 97.1L30.053125 95.31875Q29.553125 94.5375 29.225 94.13125Q28.9125 93.725 28.646875 93.56875Q28.396875 93.39687 28.13125 93.31875Q27.94375 93.2875 27.50625 93.2875L26.178125 93.2875L26.178125 97.1L25.0375 97.1ZM26.178125 92.30312L28.63125 92.30312Q29.396875 92.30312 29.834375 92.14687Q30.2875 91.975 30.50625 91.63125Q30.740625 91.27187 30.740625 90.85Q30.740625 90.24062 30.2875 89.85Q29.85 89.45937 28.896875 89.45937L26.178125 89.45937L26.178125 92.30312ZM38.146873 95.1L39.240623 95.225Q38.990623 96.17812 38.2875 96.70937Q37.584373 97.24062 36.50625 97.24062Q35.146873 97.24062 34.334373 96.39687Q33.5375 95.55312 33.5375 94.0375Q33.5375 92.475 34.35 91.61562Q35.1625 90.74062 36.44375 90.74062Q37.69375 90.74062 38.475 91.58437Q39.271873 92.42812 39.271873 93.975Q39.271873 94.06875 39.271873 94.25625L34.63125 94.25625Q34.69375 95.2875 35.209373 95.83437Q35.725 96.36562 36.50625 96.36562Q37.084373 96.36562 37.490623 96.06875Q37.9125 95.75625 38.146873 95.1ZM34.69375 93.39687L38.1625 93.39687Q38.1 92.6 37.771873 92.20937Q37.25625 91.6 36.459373 91.6Q35.725 91.6 35.225 92.08437Q34.740623 92.56875 34.69375 93.39687ZM44.959373 96.33437Q44.365623 96.83437 43.81875 97.0375Q43.2875 97.24062 42.6625 97.24062Q41.63125 97.24062 41.084373 96.74062Q40.5375 96.24062 40.5375 95.45937Q40.5375 95.00625 40.740623 94.63125Q40.94375 94.24062 41.2875 94.02187Q41.63125 93.7875 42.053123 93.67812Q42.35 93.58437 42.990623 93.50625Q44.25625 93.36562 44.865623 93.14687Q44.865623 92.92812 44.865623 92.88125Q44.865623 92.225 44.56875 91.95937Q44.1625 91.61562 43.365623 91.61562Q42.63125 91.61562 42.271873 91.88125Q41.9125 92.13125 41.740623 92.7875L40.709373 92.64687Q40.85 91.99062 41.178123 91.58437Q41.50625 91.17812 42.115623 90.95937Q42.725 90.74062 43.521873 90.74062Q44.31875 90.74062 44.81875 90.92812Q45.31875 91.11562 45.553123 91.39687Q45.7875 91.67812 45.88125 92.11562Q45.928123 92.38125 45.928123 93.08437L45.928123 94.49062Q45.928123 95.95937 45.990623 96.35Q46.06875 96.74062 46.271873 97.1L45.1625 97.1Q45.00625 96.77187 44.959373 96.33437ZM44.865623 93.975Q44.2875 94.20937 43.146873 94.38125Q42.490623 94.475 42.225 94.6Q41.959373 94.70937 41.803123 94.92812Q41.6625 95.14687 41.6625 95.42812Q41.6625 95.85 41.975 96.13125Q42.303123 96.4125 42.9125 96.4125Q43.521873 96.4125 43.990623 96.14687Q44.475 95.88125 44.69375 95.4125Q44.865623 95.05312 44.865623 94.36562L44.865623 93.975ZM51.959373 94.81875L52.990623 94.95937Q52.81875 96.02187 52.115623 96.63125Q51.4125 97.24062 50.396873 97.24062Q49.115623 97.24062 48.334373 96.4125Q47.56875 95.56875 47.56875 94.00625Q47.56875 93.00625 47.896873 92.25625Q48.240623 91.49062 48.9125 91.11562Q49.6 90.74062 50.4125 90.74062Q51.4125 90.74062 52.053123 91.25625Q52.709373 91.75625 52.896873 92.70937L51.865623 92.86562Q51.725 92.24062 51.35 91.92812Q50.975 91.6 50.44375 91.6Q49.646873 91.6 49.146873 92.17812Q48.646873 92.74062 48.646873 93.975Q48.646873 95.24062 49.13125 95.80312Q49.615623 96.36562 50.38125 96.36562Q51.00625 96.36562 51.4125 95.99062Q51.834373 95.61562 51.959373 94.81875ZM56.19375 96.1625L56.35 97.08437Q55.896873 97.17812 55.553123 97.17812Q54.975 97.17812 54.6625 97.00625Q54.35 96.81875 54.209373 96.52187Q54.084373 96.225 54.084373 95.27187L54.084373 91.69375L53.31875 91.69375L53.31875 90.88125L54.084373 90.88125L54.084373 89.33437L55.13125 88.70937L55.13125 90.88125L56.19375 90.88125L56.19375 91.69375L55.13125 91.69375L55.13125 95.33437Q55.13125 95.7875 55.178123 95.9125Q55.240623 96.0375 55.365623 96.11562Q55.490623 96.19375 55.725 96.19375Q55.9125 96.19375 56.19375 96.1625ZM60.021873 97.1L60.021873 88.50625L61.178123 88.50625L65.69375 95.25625L65.69375 88.50625L66.7875 88.50625L66.7875 97.1L65.61562 97.1L61.1 90.35L61.1 97.1L60.021873 97.1ZM72.95937 96.33437Q72.36562 96.83437 71.81875 97.0375Q71.2875 97.24062 70.6625 97.24062Q69.63125 97.24062 69.08437 96.74062Q68.5375 96.24062 68.5375 95.45937Q68.5375 95.00625 68.74062 94.63125Q68.94375 94.24062 69.2875 94.02187Q69.63125 93.7875 70.05312 93.67812Q70.35 93.58437 70.99062 93.50625Q72.25625 93.36562 72.86562 93.14687Q72.86562 92.92812 72.86562 92.88125Q72.86562 92.225 72.56875 91.95937Q72.1625 91.61562 71.36562 91.61562Q70.63125 91.61562 70.27187 91.88125Q69.9125 92.13125 69.74062 92.7875L68.70937 92.64687Q68.85 91.99062 69.17812 91.58437Q69.50625 91.17812 70.11562 90.95937Q70.725 90.74062 71.52187 90.74062Q72.31875 90.74062 72.81875 90.92812Q73.31875 91.11562 73.55312 91.39687Q73.7875 91.67812 73.88125 92.11562Q73.92812 92.38125 73.92812 93.08437L73.92812 94.49062Q73.92812 95.95937 73.99062 96.35Q74.06875 96.74062 74.27187 97.1L73.1625 97.1Q73.00625 96.77187 72.95937 96.33437ZM72.86562 93.975Q72.2875 94.20937 71.14687 94.38125Q70.49062 94.475 70.225 94.6Q69.95937 94.70937 69.80312 94.92812Q69.6625 95.14687 69.6625 95.42812Q69.6625 95.85 69.975 96.13125Q70.30312 96.4125 70.9125 96.4125Q71.52187 96.4125 71.99062 96.14687Q72.475 95.88125 72.69375 95.4125Q72.86562 95.05312 72.86562 94.36562L72.86562 93.975ZM78.19375 96.1625L78.35 97.08437Q77.89687 97.17812 77.55312 97.17812Q76.975 97.17812 76.6625 97.00625Q76.35 96.81875 76.20937 96.52187Q76.08437 96.225 76.08437 95.27187L76.08437 91.69375L75.31875 91.69375L75.31875 90.88125L76.08437 90.88125L76.08437 89.33437L77.13125 88.70937L77.13125 90.88125L78.19375 90.88125L78.19375 91.69375L77.13125 91.69375L77.13125 95.33437Q77.13125 95.7875 77.17812 95.9125Q77.24062 96.0375 77.36562 96.11562Q77.49062 96.19375 77.725 96.19375Q77.9125 96.19375 78.19375 96.1625ZM78.89687 89.725L78.89687 88.50625L79.95937 88.50625L79.95937 89.725L78.89687 89.725ZM78.89687 97.1L78.89687 90.88125L79.95937 90.88125L79.95937 97.1L78.89687 97.1ZM83.61562 97.1L81.25625 90.88125L82.36562 90.88125L83.70937 94.6Q83.9125 95.20937 84.1 95.85Q84.24062 95.36562 84.49062 94.67812L85.88125 90.88125L86.95937 90.88125L84.6 97.1L83.61562 97.1ZM91.14687 95.1L92.24062 95.225Q91.99062 96.17812 91.2875 96.70937Q90.58437 97.24062 89.50625 97.24062Q88.14687 97.24062 87.33437 96.39687Q86.5375 95.55312 86.5375 94.0375Q86.5375 92.475 87.35 91.61562Q88.1625 90.74062 89.44375 90.74062Q90.69375 90.74062 91.475 91.58437Q92.27187 92.42812 92.27187 93.975Q92.27187 94.06875 92.27187 94.25625L87.63125 94.25625Q87.69375 95.2875 88.20937 95.83437Q88.725 96.36562 89.50625 96.36562Q90.08437 96.36562 90.49062 96.06875Q90.9125 95.75625 91.14687 95.1ZM87.69375 93.39687L91.1625 93.39687Q91.1 92.6 90.77187 92.20937Q90.25625 91.6 89.45937 91.6Q88.725 91.6 88.225 92.08437Q87.74062 92.56875 87.69375 93.39687Z" fill-rule="nonzero"/><path fill="#9e9e9e" d="M27.975 114.1L27.975 112.0375L24.25625 112.0375L24.25625 111.06875L28.178125 105.50625L29.0375 105.50625L29.0375 111.06875L30.19375 111.06875L30.19375 112.0375L29.0375 112.0375L29.0375 114.1L27.975 114.1ZM27.975 111.06875L27.975 107.20937L25.2875 111.06875L27.975 111.06875ZM32.19375 114.1L32.19375 112.89687L33.396873 112.89687L33.396873 114.1L32.19375 114.1ZM34.6 111.85L35.709373 111.75625Q35.834373 112.56875 36.271873 112.975Q36.725 113.38125 37.365623 113.38125Q38.115623 113.38125 38.646873 112.80312Q39.178123 112.225 39.178123 111.2875Q39.178123 110.38125 38.6625 109.86562Q38.1625 109.33437 37.334373 109.33437Q36.834373 109.33437 36.4125 109.56875Q36.00625 109.80312 35.771873 110.1625L34.7875 110.0375L35.615623 105.63125L39.896873 105.63125L39.896873 106.63125L36.459373 106.63125L36.00625 108.94375Q36.771873 108.39687 37.615623 108.39687Q38.740623 108.39687 39.50625 109.17812Q40.2875 109.95937 40.2875 111.19375Q40.2875 112.35 39.615623 113.20937Q38.7875 114.24062 37.365623 114.24062Q36.19375 114.24062 35.44375 113.58437Q34.709373 112.92812 34.6 111.85ZM41.803123 107.56875Q41.803123 106.64687 42.25625 106.00625Q42.725 105.36562 43.6 105.36562Q44.4125 105.36562 44.94375 105.94375Q45.475 106.52187 45.475 107.63125Q45.475 108.725 44.928123 109.31875Q44.396873 109.89687 43.615623 109.89687Q42.834373 109.89687 42.31875 109.31875Q41.803123 108.74062 41.803123 107.56875ZM43.63125 106.08437Q43.240623 106.08437 42.975 106.42812Q42.725 106.77187 42.725 107.67812Q42.725 108.50625 42.975 108.85Q43.240623 109.17812 43.63125 109.17812Q44.0375 109.17812 44.2875 108.83437Q44.553123 108.49062 44.553123 107.6Q44.553123 106.75625 44.2875 106.42812Q44.021873 106.08437 43.63125 106.08437ZM43.63125 114.4125L48.334373 105.36562L49.19375 105.36562L44.50625 114.4125L43.63125 114.4125ZM47.35 112.08437Q47.35 111.1625 47.803123 110.52187Q48.271873 109.88125 49.1625 109.88125Q49.975 109.88125 50.50625 110.45937Q51.0375 111.02187 51.0375 112.14687Q51.0375 113.24062 50.490623 113.83437Q49.959373 114.4125 49.1625 114.4125Q48.396873 114.4125 47.865623 113.83437Q47.35 113.25625 47.35 112.08437ZM49.19375 110.6Q48.7875 110.6 48.521873 110.94375Q48.271873 111.2875 48.271873 112.19375Q48.271873 113.00625 48.5375 113.35Q48.803123 113.69375 49.19375 113.69375Q49.584373 113.69375 49.85 113.35Q50.115623 113.00625 50.115623 112.1Q50.115623 111.27187 49.85 110.94375Q49.584373 110.6 49.19375 110.6Z" fill-rule="nonzero"/><path stroke="#757575" stroke-width="1.0" stroke-linecap="butt" d="M24.1 101.6L181.1 101.6L278.24252 77.77096" fill-rule="nonzero"/><path fill="#9e9e9e" d="M280.24252 77.77096C280.24252 76.66639 279.34708 75.77096 278.24252 75.77096C277.13794 75.77096 276.24252 76.66639 276.24252 77.77096C276.24252 78.875534 277.13794 79.77096 278.24252 79.77096C279.34708 79.77096 280.24252 78.875534 280.24252 77.77096" fill-rule="nonzero"/><path fill="#1a1a1a" d="M721.47815 30.912498Q721.47815 28.771873 722.6188 27.568748Q723.775 26.349998 725.5875 26.349998Q726.79065 26.349998 727.7438 26.928123Q728.6969 27.490623 729.1969 28.506248Q729.6969 29.521873 729.6969 30.818748Q729.6969 32.115623 729.16565 33.146873Q728.6344 34.178123 727.66565 34.709373Q726.7125 35.240623 725.5875 35.240623Q724.3688 35.240623 723.41565 34.6625Q722.4625 34.06875 721.9625 33.06875Q721.47815 32.053123 721.47815 30.912498ZM722.65 30.928123Q722.65 32.490623 723.47815 33.38125Q724.3219 34.271873 725.5875 34.271873Q726.8688 34.271873 727.6969 33.38125Q728.525 32.475 728.525 30.803123Q728.525 29.756248 728.16565 28.974998Q727.8219 28.193748 727.1344 27.771873Q726.4469 27.334373 725.60315 27.334373Q724.4 27.334373 723.525 28.162498Q722.65 28.990623 722.65 30.928123ZM731.66565 35.1L730.6813 35.1L730.6813 26.506248L731.7438 26.506248L731.7438 29.568748Q732.41565 28.740623 733.4469 28.740623Q734.025 28.740623 734.525 28.974998Q735.04065 29.193748 735.3688 29.615623Q735.7125 30.037498 735.9 30.631248Q736.0875 31.224998 736.0875 31.896873Q736.0875 33.490623 735.29065 34.365623Q734.4938 35.240623 733.4 35.240623Q732.29065 35.240623 731.66565 34.31875L731.66565 35.1ZM731.65 31.943748Q731.65 33.053123 731.9625 33.553123Q732.4625 34.365623 733.3063 34.365623Q733.9938 34.365623 734.4938 33.771873Q735.0094 33.178123 735.0094 31.974998Q735.0094 30.756248 734.525 30.178123Q734.04065 29.599998 733.35315 29.599998Q732.66565 29.599998 732.15 30.209373Q731.65 30.803123 731.65 31.943748ZM737.6813 27.740623L737.6813 26.506248L738.7438 26.506248L738.7438 27.740623L737.6813 27.740623ZM736.35315 37.521873L736.54065 36.615623Q736.8688 36.69375 737.04065 36.69375Q737.3688 36.69375 737.525 36.475Q737.6813 36.271873 737.6813 35.4125L737.6813 28.881248L738.7438 28.881248L738.7438 35.44375Q738.7438 36.584373 738.4469 37.0375Q738.0563 37.63125 737.1813 37.63125Q736.7438 37.63125 736.35315 37.521873ZM744.9469 33.1L746.04065 33.225Q745.79065 34.178123 745.0875 34.709373Q744.3844 35.240623 743.3063 35.240623Q741.9469 35.240623 741.1344 34.396873Q740.3375 33.553123 740.3375 32.0375Q740.3375 30.474998 741.15 29.615623Q741.9625 28.740623 743.2438 28.740623Q744.4938 28.740623 745.275 29.584373Q746.0719 30.428123 746.0719 31.974998Q746.0719 32.06875 746.0719 32.25625L741.4313 32.25625Q741.4938 33.2875 742.0094 33.834373Q742.525 34.365623 743.3063 34.365623Q743.8844 34.365623 744.29065 34.06875Q744.7125 33.75625 744.9469 33.1ZM741.4938 31.396873L744.9625 31.396873Q744.9 30.599998 744.5719 30.209373Q744.0563 29.599998 743.2594 29.599998Q742.525 29.599998 742.025 30.084373Q741.54065 30.568748 741.4938 31.396873ZM751.7594 32.81875L752.79065 32.959373Q752.6188 34.021873 751.91565 34.63125Q751.2125 35.240623 750.1969 35.240623Q748.91565 35.240623 748.1344 34.4125Q747.3688 33.56875 747.3688 32.00625Q747.3688 31.006248 747.6969 30.256248Q748.04065 29.490623 748.7125 29.115623Q749.4 28.740623 750.2125 28.740623Q751.2125 28.740623 751.85315 29.256248Q752.5094 29.756248 752.6969 30.709373L751.66565 30.865623Q751.525 30.240623 751.15 29.928123Q750.775 29.599998 750.2438 29.599998Q749.4469 29.599998 748.9469 30.178123Q748.4469 30.740623 748.4469 31.974998Q748.4469 33.240623 748.9313 33.803123Q749.41565 34.365623 750.1813 34.365623Q750.8063 34.365623 751.2125 33.990623Q751.6344 33.615623 751.7594 32.81875ZM755.9938 34.1625L756.15 35.084373Q755.6969 35.178123 755.35315 35.178123Q754.775 35.178123 754.4625 35.00625Q754.15 34.81875 754.0094 34.521873Q753.8844 34.225 753.8844 33.271873L753.8844 29.693748L753.1188 29.693748L753.1188 28.881248L753.8844 28.881248L753.8844 27.334373L754.9313 26.709373L754.9313 28.881248L755.9938 28.881248L755.9938 29.693748L754.9313 29.693748L754.9313 33.334373Q754.9313 33.7875 754.97815 33.9125Q755.04065 34.0375 755.16565 34.115623Q755.29065 34.19375 755.525 34.19375Q755.7125 34.19375 755.9938 34.1625ZM756.6969 27.724998L756.6969 26.506248L757.7594 26.506248L757.7594 27.724998L756.6969 27.724998ZM756.6969 35.1L756.6969 28.881248L757.7594 28.881248L757.7594 35.1L756.6969 35.1ZM761.41565 35.1L759.0563 28.881248L760.16565 28.881248L761.5094 32.6Q761.7125 33.209373 761.9 33.85Q762.04065 33.365623 762.29065 32.678123L763.6813 28.881248L764.7594 28.881248L762.4 35.1L761.41565 35.1ZM768.9469 33.1L770.04065 33.225Q769.79065 34.178123 769.0875 34.709373Q768.3844 35.240623 767.3063 35.240623Q765.9469 35.240623 765.1344 34.396873Q764.3375 33.553123 764.3375 32.0375Q764.3375 30.474998 765.15 29.615623Q765.9625 28.740623 767.2438 28.740623Q768.4938 28.740623 769.275 29.584373Q770.0719 30.428123 770.0719 31.974998Q770.0719 32.06875 770.0719 32.25625L765.4313 32.25625Q765.4938 33.2875 766.0094 33.834373Q766.525 34.365623 767.3063 34.365623Q767.8844 34.365623 768.29065 34.06875Q768.7125 33.75625 768.9469 33.1ZM765.4938 31.396873L768.9625 31.396873Q768.9 30.599998 768.5719 30.209373Q768.0563 29.599998 767.2594 29.599998Q766.525 29.599998 766.025 30.084373Q765.54065 30.568748 765.4938 31.396873ZM771.275 32.521873L771.275 31.459373L774.525 31.459373L774.525 32.521873L771.275 32.521873ZM781.9625 32.084373L783.0875 32.38125Q782.72815 33.771873 781.8063 34.50625Q780.8844 35.240623 779.54065 35.240623Q778.15 35.240623 777.275 34.678123Q776.4 34.115623 775.9469 33.053123Q775.4938 31.974998 775.4938 30.740623Q775.4938 29.396873 776.0094 28.396873Q776.525 27.396873 777.4625 26.881248Q778.41565 26.365623 779.5563 26.365623Q780.8375 26.365623 781.7125 27.021873Q782.60315 27.678123 782.9469 28.865623L781.8219 29.131248Q781.525 28.193748 780.9469 27.771873Q780.3844 27.334373 779.525 27.334373Q778.54065 27.334373 777.8688 27.818748Q777.2125 28.287498 776.9313 29.084373Q776.66565 29.881248 776.66565 30.740623Q776.66565 31.834373 776.97815 32.646873Q777.3063 33.459373 777.97815 33.865623Q778.65 34.271873 779.4469 34.271873Q780.4 34.271873 781.0563 33.725Q781.72815 33.178123 781.9625 32.084373Z" fill-rule="nonzero"/><path fill="#9e9e9e" d="M761.9469 51.084373L761.9469 52.1L756.2594 52.1Q756.2594 51.725 756.3844 51.365623Q756.60315 50.7875 757.0719 50.225Q757.5563 49.6625 758.4625 48.928123Q759.8688 47.771873 760.35315 47.1Q760.85315 46.428123 760.85315 45.834373Q760.85315 45.209373 760.4 44.7875Q759.9469 44.35 759.22815 44.35Q758.4625 44.35 758.0094 44.803123Q757.5563 45.25625 757.54065 46.06875L756.4625 45.959373Q756.5719 44.740623 757.29065 44.115623Q758.025 43.475 759.2594 43.475Q760.4938 43.475 761.2125 44.1625Q761.9313 44.85 761.9313 45.865623Q761.9313 46.38125 761.7125 46.88125Q761.5094 47.365623 761.0094 47.928123Q760.525 48.475 759.4 49.428123Q758.4469 50.225 758.16565 50.521873Q757.9 50.803123 757.72815 51.084373L761.9469 51.084373ZM763.9938 52.1L763.9938 50.896873L765.1969 50.896873L765.1969 52.1L763.9938 52.1ZM771.9469 51.084373L771.9469 52.1L766.2594 52.1Q766.2594 51.725 766.3844 51.365623Q766.60315 50.7875 767.0719 50.225Q767.5563 49.6625 768.4625 48.928123Q769.8688 47.771873 770.35315 47.1Q770.85315 46.428123 770.85315 45.834373Q770.85315 45.209373 770.4 44.7875Q769.9469 44.35 769.22815 44.35Q768.4625 44.35 768.0094 44.803123Q767.5563 45.25625 767.54065 46.06875L766.4625 45.959373Q766.5719 44.740623 767.29065 44.115623Q768.025 43.475 769.2594 43.475Q770.4938 43.475 771.2125 44.1625Q771.9313 44.85 771.9313 45.865623Q771.9313 46.38125 771.7125 46.88125Q771.5094 47.365623 771.0094 47.928123Q770.525 48.475 769.4 49.428123Q768.4469 50.225 768.16565 50.521873Q767.9 50.803123 767.72815 51.084373L771.9469 51.084373ZM773.60315 45.56875Q773.60315 44.646873 774.0563 44.00625Q774.525 43.365623 775.4 43.365623Q776.2125 43.365623 776.7438 43.94375Q777.275 44.521873 777.275 45.63125Q777.275 46.725 776.72815 47.31875Q776.1969 47.896873 775.41565 47.896873Q774.6344 47.896873 774.1188 47.31875Q773.60315 46.740623 773.60315 45.56875ZM775.4313 44.084373Q775.04065 44.084373 774.775 44.428123Q774.525 44.771873 774.525 45.678123Q774.525 46.50625 774.775 46.85Q775.04065 47.178123 775.4313 47.178123Q775.8375 47.178123 776.0875 46.834373Q776.35315 46.490623 776.35315 45.6Q776.35315 44.75625 776.0875 44.428123Q775.8219 44.084373 775.4313 44.084373ZM775.4313 52.4125L780.1344 43.365623L780.9938 43.365623L776.3063 52.4125L775.4313 52.4125ZM779.15 50.084373Q779.15 49.1625 779.60315 48.521873Q780.0719 47.88125 780.9625 47.88125Q781.775 47.88125 782.3063 48.459373Q782.8375 49.021873 782.8375 50.146873Q782.8375 51.240623 782.29065 51.834373Q781.7594 52.4125 780.9625 52.4125Q780.1969 52.4125 779.66565 51.834373Q779.15 51.25625 779.15 50.084373ZM780.9938 48.6Q780.5875 48.6 780.3219 48.94375Q780.0719 49.2875 780.0719 50.19375Q780.0719 51.00625 780.3375 51.35Q780.60315 51.69375 780.9938 51.69375Q781.3844 51.69375 781.65 51.35Q781.91565 51.00625 781.91565 50.1Q781.91565 49.271873 781.65 48.94375Q781.3844 48.6 780.9938 48.6Z" fill-rule="nonzero"/><path stroke="#757575" stroke-width="1.0" stroke-linecap="butt" d="M783.9 39.6L626.9 39.6L418.48077 35.454456" fill-rule="nonzero"/><path fill="#9e9e9e" d="M420.48077 35.454456C420.48077 34.349888 419.58533 33.454456 418.48077 33.454456C417.3762 33.454456 416.48077 34.349888 416.48077 35.454456C416.48077 36.559025 417.3762 37.454456 418.48077 37.454456C419.58533 37.454456 420.48077 36.559025 420.48077 35.454456" fill-rule="nonzero"/><path fill="#1a1a1a" d="M758.4469 428.78928L759.5094 428.69553Q759.5875 429.35178 759.8688 429.75803Q760.15 430.16428 760.72815 430.4299Q761.3219 430.6799 762.0563 430.6799Q762.6969 430.6799 763.1969 430.4924Q763.6969 430.28928 763.9313 429.96115Q764.1813 429.6174 764.1813 429.22678Q764.1813 428.82053 763.9469 428.52365Q763.7125 428.21115 763.1813 428.00803Q762.8219 427.8674 761.6344 427.58615Q760.4625 427.3049 759.9938 427.0549Q759.3688 426.72678 759.0719 426.25803Q758.775 425.77365 758.775 425.1799Q758.775 424.53928 759.1344 423.97678Q759.5094 423.39865 760.2125 423.1174Q760.9313 422.82053 761.79065 422.82053Q762.7438 422.82053 763.47815 423.13303Q764.2125 423.4299 764.60315 424.03928Q764.9938 424.63303 765.025 425.38303L763.9313 425.46115Q763.8375 424.64865 763.3219 424.2424Q762.8219 423.82053 761.8375 423.82053Q760.8063 423.82053 760.3375 424.19553Q759.8688 424.57053 759.8688 425.10178Q759.8688 425.57053 760.1969 425.8674Q760.525 426.16428 761.9 426.47678Q763.29065 426.78928 763.8063 427.02365Q764.5563 427.38303 764.91565 427.91428Q765.275 428.4299 765.275 429.13303Q765.275 429.82053 764.8844 430.4299Q764.4938 431.02365 763.7594 431.3674Q763.025 431.69553 762.10315 431.69553Q760.9313 431.69553 760.1344 431.3674Q759.35315 431.02365 758.9 430.33615Q758.4625 429.64865 758.4469 428.78928ZM767.8375 431.5549L765.9313 425.33615L767.025 425.33615L768.0094 428.9299L768.3844 430.25803Q768.41565 430.16428 768.7125 428.97678L769.6969 425.33615L770.775 425.33615L771.7125 428.94553L772.025 430.13303L772.3844 428.9299L773.4469 425.33615L774.47815 425.33615L772.525 431.5549L771.4313 431.5549L770.4469 427.82053L770.1969 426.77365L768.9469 431.5549L767.8375 431.5549ZM775.6969 424.1799L775.6969 422.96115L776.7594 422.96115L776.7594 424.1799L775.6969 424.1799ZM775.6969 431.5549L775.6969 425.33615L776.7594 425.33615L776.7594 431.5549L775.6969 431.5549ZM778.9469 431.5549L778.9469 426.14865L778.0094 426.14865L778.0094 425.33615L778.9469 425.33615L778.9469 424.66428Q778.9469 424.03928 779.0563 423.7424Q779.2125 423.32053 779.5875 423.07053Q779.97815 422.82053 780.66565 422.82053Q781.1188 422.82053 781.65 422.9299L781.4938 423.83615Q781.16565 423.78928 780.8688 423.78928Q780.3844 423.78928 780.1813 423.9924Q779.9938 424.19553 779.9938 424.75803L779.9938 425.33615L781.2125 425.33615L781.2125 426.14865L779.9938 426.14865L779.9938 431.5549L778.9469 431.5549ZM783.9938 430.6174L784.15 431.53928Q783.6969 431.63303 783.35315 431.63303Q782.775 431.63303 782.4625 431.46115Q782.15 431.27365 782.0094 430.97678Q781.8844 430.6799 781.8844 429.72678L781.8844 426.14865L781.1188 426.14865L781.1188 425.33615L781.8844 425.33615L781.8844 423.78928L782.9313 423.16428L782.9313 425.33615L783.9938 425.33615L783.9938 426.14865L782.9313 426.14865L782.9313 429.78928Q782.9313 430.2424 782.97815 430.3674Q783.04065 430.4924 783.16565 430.57053Q783.29065 430.64865 783.525 430.64865Q783.7125 430.64865 783.9938 430.6174Z" fill-rule="nonzero"/><path fill="#9e9e9e" d="M751.025 443.89865Q750.3688 443.64865 750.04065 443.21115Q749.72815 442.75803 749.72815 442.14865Q749.72815 441.21115 750.4 440.57053Q751.0875 439.9299 752.1969 439.9299Q753.3219 439.9299 754.0094 440.58615Q754.6969 441.2424 754.6969 442.1799Q754.6969 442.77365 754.3844 443.21115Q754.0719 443.64865 753.4313 443.89865Q754.22815 444.14865 754.6344 444.72678Q755.04065 445.3049 755.04065 446.10178Q755.04065 447.19553 754.2594 447.94553Q753.4938 448.69553 752.2125 448.69553Q750.9469 448.69553 750.16565 447.94553Q749.3844 447.19553 749.3844 446.07053Q749.3844 445.22678 749.8063 444.66428Q750.2438 444.10178 751.025 443.89865ZM750.8063 442.10178Q750.8063 442.71115 751.1969 443.10178Q751.60315 443.4924 752.22815 443.4924Q752.8375 443.4924 753.22815 443.1174Q753.6188 442.72678 753.6188 442.16428Q753.6188 441.58615 753.2125 441.19553Q752.8063 440.78928 752.2125 440.78928Q751.60315 440.78928 751.1969 441.1799Q750.8063 441.57053 750.8063 442.10178ZM750.47815 446.07053Q750.47815 446.52365 750.6813 446.94553Q750.9 447.3674 751.3219 447.60178Q751.7438 447.83615 752.22815 447.83615Q752.97815 447.83615 753.4625 447.35178Q753.9625 446.8674 753.9625 446.1174Q753.9625 445.35178 753.4625 444.85178Q752.9625 444.35178 752.1969 444.35178Q751.4469 444.35178 750.9625 444.85178Q750.47815 445.33615 750.47815 446.07053ZM756.4 446.3049L757.5094 446.21115Q757.6344 447.02365 758.0719 447.4299Q758.525 447.83615 759.16565 447.83615Q759.91565 447.83615 760.4469 447.25803Q760.97815 446.6799 760.97815 445.7424Q760.97815 444.83615 760.4625 444.32053Q759.9625 443.78928 759.1344 443.78928Q758.6344 443.78928 758.2125 444.02365Q757.8063 444.25803 757.5719 444.6174L756.5875 444.4924L757.41565 440.08615L761.6969 440.08615L761.6969 441.08615L758.2594 441.08615L757.8063 443.39865Q758.5719 442.85178 759.41565 442.85178Q760.54065 442.85178 761.3063 443.63303Q762.0875 444.41428 762.0875 445.64865Q762.0875 446.8049 761.41565 447.66428Q760.5875 448.69553 759.16565 448.69553Q757.9938 448.69553 757.2438 448.03928Q756.5094 447.38303 756.4 446.3049ZM763.9938 448.5549L763.9938 447.35178L765.1969 447.35178L765.1969 448.5549L763.9938 448.5549ZM770.3688 448.5549L769.3219 448.5549L769.3219 441.83615Q768.9313 442.19553 768.3063 442.57053Q767.6969 442.9299 767.2125 443.10178L767.2125 442.08615Q768.0875 441.66428 768.7438 441.08615Q769.41565 440.4924 769.6969 439.9299L770.3688 439.9299L770.3688 448.5549ZM773.60315 442.02365Q773.60315 441.10178 774.0563 440.46115Q774.525 439.82053 775.4 439.82053Q776.2125 439.82053 776.7438 440.39865Q777.275 440.97678 777.275 442.08615Q777.275 443.1799 776.72815 443.77365Q776.1969 444.35178 775.41565 444.35178Q774.6344 444.35178 774.1188 443.77365Q773.60315 443.19553 773.60315 442.02365ZM775.4313 440.53928Q775.04065 440.53928 774.775 440.88303Q774.525 441.22678 774.525 442.13303Q774.525 442.96115 774.775 443.3049Q775.04065 443.63303 775.4313 443.63303Q775.8375 443.63303 776.0875 443.28928Q776.35315 442.94553 776.35315 442.0549Q776.35315 441.21115 776.0875 440.88303Q775.8219 440.53928 775.4313 440.53928ZM775.4313 448.8674L780.1344 439.82053L780.9938 439.82053L776.3063 448.8674L775.4313 448.8674ZM779.15 446.53928Q779.15 445.6174 779.60315 444.97678Q780.0719 444.33615 780.9625 444.33615Q781.775 444.33615 782.3063 444.91428Q782.8375 445.47678 782.8375 446.60178Q782.8375 447.69553 782.29065 448.28928Q781.7594 448.8674 780.9625 448.8674Q780.1969 448.8674 779.66565 448.28928Q779.15 447.71115 779.15 446.53928ZM780.9938 445.0549Q780.5875 445.0549 780.3219 445.39865Q780.0719 445.7424 780.0719 446.64865Q780.0719 447.46115 780.3375 447.8049Q780.60315 448.14865 780.9938 448.14865Q781.3844 448.14865 781.65 447.8049Q781.91565 447.46115 781.91565 446.5549Q781.91565 445.72678 781.65 445.39865Q781.3844 445.0549 780.9938 445.0549Z" fill-rule="nonzero"/><path stroke="#757575" stroke-width="1.0" stroke-linecap="butt" d="M783.9 436.0549L626.9 436.0549L470.42477 436.0549" fill-rule="nonzero"/><path fill="#9e9e9e" d="M472.42477 436.0549C472.42477 434.95032 471.52936 434.0549 470.42477 434.0549C469.32022 434.0549 468.42477 434.95032 468.42477 436.0549C468.42477 437.15945 469.32022 438.0549 470.42477 438.0549C471.52936 438.0549 472.42477 437.15945 472.42477 436.0549" fill-rule="nonzero"/></svg>