<svg version="1.1" viewBox="0.0 0.0 1147.0 556.0" fill="none" stroke="none" stroke-linecap="square" stroke-miterlimit="10" width="1147" height="556" xmlns:xlink="http://www.w3.org/1999/xlink" xmlns="http://www.w3.org/2000/svg"><path fill="#ffffff" d="M0 0L1147.0 0L1147.0 556.0L0 556.0L0 0Z" fill-rule="nonzero"/><path fill="#4285f4" d="M573.5 27.8C646.79364 27.8 716.4015 59.937695 763.9384 115.72476L573.5 278.0Z" fill-rule="nonzero"/><path fill="#34a853" d="M328.53317 227.0953C352.6552 111.01366 454.93854 27.8 573.5 27.8L573.5 278.0Z" fill-rule="nonzero"/><path fill="#fbbc04" d="M528.18475 524.06213C461.9539 511.86493 403.43655 473.4834 365.8627 417.5951C328.28885 361.70682 314.8315 293.03134 328.53317 227.0953L573.5 278.0Z" fill-rule="nonzero"/><path fill="#ea4335" d="M763.9384 115.72476C832.6102 196.31467 843.1195 311.40533 790.17957 403.1C737.2396 494.79468 632.31354 543.2387 528.18475 524.06213L573.5 278.0Z" fill-rule="nonzero"/><path fill="#1a1a1a" d="M30.221874 89.121185L27.940624 80.527435L29.1125 80.527435L30.425 86.16806Q30.628124 87.04306 30.784374 87.91806Q31.1125 86.54306 31.175 86.32431L32.8 80.527435L34.175 80.527435L35.409374 84.871185Q35.8625 86.496185 36.08125 87.91806Q36.2375 87.10556 36.503124 86.04306L37.846874 80.527435L38.9875 80.527435L36.64375 89.121185L35.534374 89.121185L33.7375 82.57431Q33.503124 81.76181 33.45625 81.57431Q33.33125 82.152435 33.20625 82.57431L31.39375 89.121185L30.221874 89.121185ZM43.846874 87.121185L44.940624 87.246185Q44.690624 88.19931 43.9875 88.73056Q43.284374 89.26181 42.20625 89.26181Q40.846874 89.26181 40.034374 88.41806Q39.2375 87.57431 39.2375 86.058685Q39.2375 84.496185 40.05 83.63681Q40.8625 82.76181 42.14375 82.76181Q43.39375 82.76181 44.175 83.60556Q44.971874 84.44931 44.971874 85.996185Q44.971874 86.089935 44.971874 86.277435L40.33125 86.277435Q40.39375 87.308685 40.909374 87.85556Q41.425 88.38681 42.20625 88.38681Q42.784374 88.38681 43.190624 88.089935Q43.6125 87.777435 43.846874 87.121185ZM40.39375 85.41806L43.8625 85.41806Q43.8 84.621185 43.471874 84.23056Q42.95625 83.621185 42.159374 83.621185Q41.425 83.621185 40.925 84.10556Q40.440624 84.589935 40.39375 85.41806ZM53.659374 88.35556Q53.065624 88.85556 52.51875 89.058685Q51.9875 89.26181 51.3625 89.26181Q50.33125 89.26181 49.784374 88.76181Q49.2375 88.26181 49.2375 87.48056Q49.2375 87.027435 49.440624 86.652435Q49.64375 86.26181 49.9875 86.04306Q50.33125 85.808685 50.753124 85.69931Q51.05 85.60556 51.690624 85.527435Q52.95625 85.38681 53.565624 85.16806Q53.565624 84.94931 53.565624 84.902435Q53.565624 84.246185 53.26875 83.98056Q52.8625 83.63681 52.065624 83.63681Q51.33125 83.63681 50.971874 83.902435Q50.6125 84.152435 50.440624 84.808685L49.409374 84.66806Q49.55 84.01181 49.878124 83.60556Q50.20625 83.19931 50.815624 82.98056Q51.425 82.76181 52.221874 82.76181Q53.01875 82.76181 53.51875 82.94931Q54.01875 83.13681 54.253124 83.41806Q54.4875 83.69931 54.58125 84.13681Q54.628124 84.402435 54.628124 85.10556L54.628124 86.51181Q54.628124 87.98056 54.690624 88.371185Q54.76875 88.76181 54.971874 89.121185L53.8625 89.121185Q53.70625 88.79306 53.659374 88.35556ZM53.565624 85.996185Q52.9875 86.23056 51.846874 86.402435Q51.190624 86.496185 50.925 86.621185Q50.659374 86.73056 50.503124 86.94931Q50.3625 87.16806 50.3625 87.44931Q50.3625 87.871185 50.675 88.152435Q51.003124 88.433685 51.6125 88.433685Q52.221874 88.433685 52.690624 88.16806Q53.175 87.902435 53.39375 87.433685Q53.565624 87.07431 53.565624 86.38681L53.565624 85.996185ZM56.58125 89.121185L56.58125 82.902435L57.534374 82.902435L57.534374 83.839935Q57.89375 83.183685 58.190624 82.98056Q58.503124 82.76181 58.878124 82.76181Q59.409374 82.76181 59.95625 83.089935L59.596874 84.07431Q59.20625 83.839935 58.83125 83.839935Q58.471874 83.839935 58.190624 84.058685Q57.925 84.26181 57.815624 84.63681Q57.628124 85.19931 57.628124 85.85556L57.628124 89.121185L56.58125 89.121185ZM64.84688 87.121185L65.94063 87.246185Q65.69063 88.19931 64.9875 88.73056Q64.28438 89.26181 63.20625 89.26181Q61.846874 89.26181 61.034374 88.41806Q60.2375 87.57431 60.2375 86.058685Q60.2375 84.496185 61.05 83.63681Q61.8625 82.76181 63.14375 82.76181Q64.39375 82.76181 65.175 83.60556Q65.97188 84.44931 65.97188 85.996185Q65.97188 86.089935 65.97188 86.277435L61.33125 86.277435Q61.39375 87.308685 61.909374 87.85556Q62.425 88.38681 63.20625 88.38681Q63.784374 88.38681 64.19063 88.089935Q64.6125 87.777435 64.84688 87.121185ZM61.39375 85.41806L64.8625 85.41806Q64.8 84.621185 64.47188 84.23056Q63.95625 83.621185 63.159374 83.621185Q62.425 83.621185 61.925 84.10556Q61.440624 84.589935 61.39375 85.41806ZM70.59688 89.121185L70.59688 82.902435L71.53438 82.902435L71.53438 83.777435Q72.22188 82.76181 73.51875 82.76181Q74.08125 82.76181 74.55 82.964935Q75.03438 83.16806 75.26875 83.496185Q75.50313 83.82431 75.59688 84.26181Q75.64375 84.558685 75.64375 85.29306L75.64375 89.121185L74.59688 89.121185L74.59688 85.339935Q74.59688 84.683685 74.47188 84.371185Q74.34688 84.058685 74.03438 83.871185Q73.72188 83.66806 73.3 83.66806Q72.62813 83.66806 72.12813 84.10556Q71.64375 84.527435 71.64375 85.714935L71.64375 89.121185L70.59688 89.121185ZM77.20625 86.01181Q77.20625 84.277435 78.15938 83.44931Q78.95625 82.76181 80.1125 82.76181Q81.39375 82.76181 82.20625 83.60556Q83.03438 84.433685 83.03438 85.91806Q83.03438 87.121185 82.675 87.808685Q82.31563 88.496185 81.6125 88.88681Q80.925 89.26181 80.1125 89.26181Q78.81563 89.26181 78.00313 88.433685Q77.20625 87.589935 77.20625 86.01181ZM78.28438 86.01181Q78.28438 87.19931 78.8 87.79306Q79.33125 88.38681 80.1125 88.38681Q80.90938 88.38681 81.425 87.79306Q81.94063 87.19931 81.94063 85.98056Q81.94063 84.82431 81.40938 84.23056Q80.89375 83.63681 80.1125 83.63681Q79.33125 83.63681 78.8 84.23056Q78.28438 84.808685 78.28438 86.01181ZM86.89375 88.183685L87.05 89.10556Q86.59688 89.19931 86.25313 89.19931Q85.675 89.19931 85.3625 89.027435Q85.05 88.839935 84.90938 88.54306Q84.78438 88.246185 84.78438 87.29306L84.78438 83.714935L84.01875 83.714935L84.01875 82.902435L84.78438 82.902435L84.78438 81.35556L85.83125 80.73056L85.83125 82.902435L86.89375 82.902435L86.89375 83.714935L85.83125 83.714935L85.83125 87.35556Q85.83125 87.808685 85.87813 87.933685Q85.94063 88.058685 86.06563 88.13681Q86.19063 88.214935 86.425 88.214935Q86.6125 88.214935 86.89375 88.183685ZM94.675 89.121185L94.675 88.19931Q93.94063 89.26181 92.69063 89.26181Q92.14375 89.26181 91.65938 89.058685Q91.19063 88.839935 90.95625 88.527435Q90.72188 88.19931 90.62813 87.73056Q90.56563 87.433685 90.56563 86.746185L90.56563 82.902435L91.62813 82.902435L91.62813 86.35556Q91.62813 87.16806 91.69063 87.464935Q91.78438 87.871185 92.09688 88.121185Q92.425 88.35556 92.90938 88.35556Q93.37813 88.35556 93.78438 88.121185Q94.20625 87.871185 94.37813 87.44931Q94.56563 87.027435 94.56563 86.23056L94.56563 82.902435L95.6125 82.902435L95.6125 89.121185L94.675 89.121185ZM97.175 87.26181L98.20625 87.10556Q98.3 87.73056 98.69063 88.058685Q99.09688 88.38681 99.83125 88.38681Q100.55 88.38681 100.89375 88.10556Q101.25313 87.808685 101.25313 87.402435Q101.25313 87.04306 100.94063 86.839935Q100.72188 86.69931 99.8625 86.48056Q98.70625 86.183685 98.25313 85.98056Q97.81563 85.76181 97.58125 85.38681Q97.34688 85.01181 97.34688 84.54306Q97.34688 84.13681 97.53438 83.777435Q97.72188 83.41806 98.05 83.183685Q98.3 83.01181 98.72188 82.88681Q99.14375 82.76181 99.64375 82.76181Q100.3625 82.76181 100.90938 82.98056Q101.47188 83.183685 101.7375 83.54306Q102.00313 83.902435 102.09688 84.496185L101.06563 84.63681Q101.00313 84.16806 100.65938 83.902435Q100.33125 83.621185 99.70625 83.621185Q98.9875 83.621185 98.675 83.871185Q98.3625 84.10556 98.3625 84.433685Q98.3625 84.63681 98.4875 84.79306Q98.62813 84.964935 98.89375 85.07431Q99.05 85.13681 99.83125 85.339935Q100.95625 85.652435 101.39375 85.839935Q101.83125 86.027435 102.08125 86.38681Q102.33125 86.746185 102.33125 87.29306Q102.33125 87.82431 102.01875 88.29306Q101.72188 88.746185 101.14375 89.01181Q100.56563 89.26181 99.83125 89.26181Q98.6125 89.26181 97.97188 88.76181Q97.34688 88.246185 97.175 87.26181ZM104.59688 81.746185L104.59688 80.527435L105.65938 80.527435L105.65938 81.746185L104.59688 81.746185ZM104.59688 89.121185L104.59688 82.902435L105.65938 82.902435L105.65938 89.121185L104.59688 89.121185ZM107.59688 89.121185L107.59688 82.902435L108.53438 82.902435L108.53438 83.777435Q109.22188 82.76181 110.51875 82.76181Q111.08125 82.76181 111.55 82.964935Q112.03438 83.16806 112.26875 83.496185Q112.50313 83.82431 112.59688 84.26181Q112.64375 84.558685 112.64375 85.29306L112.64375 89.121185L111.59688 89.121185L111.59688 85.339935Q111.59688 84.683685 111.47188 84.371185Q111.34688 84.058685 111.03438 83.871185Q110.72188 83.66806 110.3 83.66806Q109.62813 83.66806 109.12813 84.10556Q108.64375 84.527435 108.64375 85.714935L108.64375 89.121185L107.59688 89.121185ZM114.39375 89.63681L115.425 89.79306Q115.4875 90.26181 115.78438 90.48056Q116.175 90.777435 116.84688 90.777435Q117.58125 90.777435 117.97188 90.48056Q118.37813 90.183685 118.51875 89.66806Q118.6125 89.339935 118.59688 88.308685Q117.90938 89.121185 116.87813 89.121185Q115.59688 89.121185 114.89375 88.19931Q114.19063 87.26181 114.19063 85.98056Q114.19063 85.089935 114.50313 84.339935Q114.83125 83.57431 115.44063 83.16806Q116.05 82.76181 116.87813 82.76181Q117.9875 82.76181 118.70625 83.652435L118.70625 82.902435L119.675 82.902435L119.675 88.277435Q119.675 89.73056 119.37813 90.339935Q119.08125 90.94931 118.44063 91.29306Q117.8 91.652435 116.8625 91.652435Q115.75313 91.652435 115.06563 91.152435Q114.37813 90.652435 114.39375 89.63681ZM115.26875 85.902435Q115.26875 87.121185 115.75313 87.683685Q116.2375 88.246185 116.97188 88.246185Q117.70625 88.246185 118.19063 87.683685Q118.69063 87.121185 118.69063 85.933685Q118.69063 84.79306 118.175 84.214935Q117.675 83.63681 116.95625 83.63681Q116.25313 83.63681 115.75313 84.214935Q115.26875 84.777435 115.26875 85.902435ZM128.65938 88.35556Q128.06563 88.85556 127.51875 89.058685Q126.9875 89.26181 126.3625 89.26181Q125.33125 89.26181 124.78438 88.76181Q124.2375 88.26181 124.2375 87.48056Q124.2375 87.027435 124.44063 86.652435Q124.64375 86.26181 124.9875 86.04306Q125.33125 85.808685 125.75313 85.69931Q126.05 85.60556 126.69063 85.527435Q127.95625 85.38681 128.56563 85.16806Q128.56563 84.94931 128.56563 84.902435Q128.56563 84.246185 128.26875 83.98056Q127.8625 83.63681 127.06563 83.63681Q126.33125 83.63681 125.97188 83.902435Q125.6125 84.152435 125.44063 84.808685L124.40938 84.66806Q124.55 84.01181 124.87813 83.60556Q125.20625 83.19931 125.81563 82.98056Q126.425 82.76181 127.22188 82.76181Q128.01875 82.76181 128.51875 82.94931Q129.01875 83.13681 129.25313 83.41806Q129.4875 83.69931 129.58125 84.13681Q129.62813 84.402435 129.62813 85.10556L129.62813 86.51181Q129.62813 87.98056 129.69063 88.371185Q129.76875 88.76181 129.97188 89.121185L128.8625 89.121185Q128.70625 88.79306 128.65938 88.35556ZM128.56563 85.996185Q127.9875 86.23056 126.84688 86.402435Q126.19063 86.496185 125.925 86.621185Q125.65938 86.73056 125.50313 86.94931Q125.3625 87.16806 125.3625 87.44931Q125.3625 87.871185 125.675 88.152435Q126.00313 88.433685 126.6125 88.433685Q127.22188 88.433685 127.69063 88.16806Q128.175 87.902435 128.39375 87.433685Q128.56563 87.07431 128.56563 86.38681L128.56563 85.996185ZM131.59688 89.121185L131.59688 82.902435L132.53438 82.902435L132.53438 83.777435Q133.22188 82.76181 134.51875 82.76181Q135.08125 82.76181 135.55 82.964935Q136.03438 83.16806 136.26875 83.496185Q136.50313 83.82431 136.59688 84.26181Q136.64375 84.558685 136.64375 85.29306L136.64375 89.121185L135.59688 89.121185L135.59688 85.339935Q135.59688 84.683685 135.47188 84.371185Q135.34688 84.058685 135.03438 83.871185Q134.72188 83.66806 134.3 83.66806Q133.62813 83.66806 133.12813 84.10556Q132.64375 84.527435 132.64375 85.714935L132.64375 89.121185L131.59688 89.121185ZM138.55 91.51181L138.425 90.527435Q138.76875 90.621185 139.03438 90.621185Q139.37813 90.621185 139.58125 90.496185Q139.8 90.38681 139.94063 90.183685Q140.03438 90.01181 140.26875 89.38681Q140.28438 89.308685 140.3625 89.13681L137.9875 82.902435L139.12813 82.902435L140.425 86.496185Q140.675 87.183685 140.87813 87.94931Q141.06563 87.214935 141.31563 86.527435L142.64375 82.902435L143.69063 82.902435L141.33125 89.23056Q140.94063 90.246185 140.7375 90.63681Q140.45625 91.16806 140.08125 91.402435Q139.72188 91.652435 139.22188 91.652435Q138.925 91.652435 138.55 91.51181ZM146.34688 86.35556L147.40938 86.26181Q147.4875 86.91806 147.76875 87.32431Q148.05 87.73056 148.62813 87.996185Q149.22188 88.246185 149.95625 88.246185Q150.59688 88.246185 151.09688 88.058685Q151.59688 87.85556 151.83125 87.527435Q152.08125 87.183685 152.08125 86.79306Q152.08125 86.38681 151.84688 86.089935Q151.6125 85.777435 151.08125 85.57431Q150.72188 85.433685 149.53438 85.152435Q148.3625 84.871185 147.89375 84.621185Q147.26875 84.29306 146.97188 83.82431Q146.675 83.339935 146.675 82.746185Q146.675 82.10556 147.03438 81.54306Q147.40938 80.964935 148.1125 80.683685Q148.83125 80.38681 149.69063 80.38681Q150.64375 80.38681 151.37813 80.69931Q152.1125 80.996185 152.50313 81.60556Q152.89375 82.19931 152.925 82.94931L151.83125 83.027435Q151.7375 82.214935 151.22188 81.808685Q150.72188 81.38681 149.7375 81.38681Q148.70625 81.38681 148.2375 81.76181Q147.76875 82.13681 147.76875 82.66806Q147.76875 83.13681 148.09688 83.433685Q148.425 83.73056 149.8 84.04306Q151.19063 84.35556 151.70625 84.589935Q152.45625 84.94931 152.81563 85.48056Q153.175 85.996185 153.175 86.69931Q153.175 87.38681 152.78438 87.996185Q152.39375 88.589935 151.65938 88.933685Q150.925 89.26181 150.00313 89.26181Q148.83125 89.26181 148.03438 88.933685Q147.25313 88.589935 146.8 87.902435Q146.3625 87.214935 146.34688 86.35556ZM155.7375 89.121185L153.83125 82.902435L154.925 82.902435L155.90938 86.496185L156.28438 87.82431Q156.31563 87.73056 156.6125 86.54306L157.59688 82.902435L158.675 82.902435L159.6125 86.51181L159.925 87.69931L160.28438 86.496185L161.34688 82.902435L162.37813 82.902435L160.425 89.121185L159.33125 89.121185L158.34688 85.38681L158.09688 84.339935L156.84688 89.121185L155.7375 89.121185ZM163.59688 81.746185L163.59688 80.527435L164.65938 80.527435L164.65938 81.746185L163.59688 81.746185ZM163.59688 89.121185L163.59688 82.902435L164.65938 82.902435L164.65938 89.121185L163.59688 89.121185ZM166.84688 89.121185L166.84688 83.714935L165.90938 83.714935L165.90938 82.902435L166.84688 82.902435L166.84688 82.23056Q166.84688 81.60556 166.95625 81.308685Q167.1125 80.88681 167.4875 80.63681Q167.87813 80.38681 168.56563 80.38681Q169.01875 80.38681 169.55 80.496185L169.39375 81.402435Q169.06563 81.35556 168.76875 81.35556Q168.28438 81.35556 168.08125 81.558685Q167.89375 81.76181 167.89375 82.32431L167.89375 82.902435L169.1125 82.902435L169.1125 83.714935L167.89375 83.714935L167.89375 89.121185L166.84688 89.121185ZM171.89375 88.183685L172.05 89.10556Q171.59688 89.19931 171.25313 89.19931Q170.675 89.19931 170.3625 89.027435Q170.05 88.839935 169.90938 88.54306Q169.78438 88.246185 169.78438 87.29306L169.78438 83.714935L169.01875 83.714935L169.01875 82.902435L169.78438 82.902435L169.78438 81.35556L170.83125 80.73056L170.83125 82.902435L171.89375 82.902435L171.89375 83.714935L170.83125 83.714935L170.83125 87.35556Q170.83125 87.808685 170.87813 87.933685Q170.94063 88.058685 171.06563 88.13681Q171.19063 88.214935 171.425 88.214935Q171.6125 88.214935 171.89375 88.183685ZM178.3625 80.527435L179.50313 80.527435L179.50313 85.496185Q179.50313 86.79306 179.20625 87.558685Q178.90938 88.308685 178.14375 88.79306Q177.37813 89.26181 176.14375 89.26181Q174.94063 89.26181 174.15938 88.85556Q173.39375 88.433685 173.06563 87.652435Q172.7375 86.85556 172.7375 85.496185L172.7375 80.527435L173.87813 80.527435L173.87813 85.48056Q173.87813 86.60556 174.08125 87.13681Q174.3 87.66806 174.8 87.964935Q175.31563 88.246185 176.05 88.246185Q177.3 88.246185 177.83125 87.683685Q178.3625 87.10556 178.3625 85.48056L178.3625 80.527435ZM181.925 89.121185L181.925 80.527435L183.05 80.527435L183.05 89.121185L181.925 89.121185Z" fill-rule="nonzero"/><path fill="#9e9e9e" d="M33.846874 105.10556L33.846874 106.121185L28.159374 106.121185Q28.159374 105.746185 28.284374 105.38681Q28.503124 104.808685 28.971874 104.246185Q29.45625 103.683685 30.3625 102.94931Q31.76875 101.79306 32.253124 101.121185Q32.753124 100.44931 32.753124 99.85556Q32.753124 99.23056 32.3 98.808685Q31.846874 98.371185 31.128124 98.371185Q30.3625 98.371185 29.909374 98.82431Q29.45625 99.277435 29.440624 100.089935L28.3625 99.98056Q28.471874 98.76181 29.190624 98.13681Q29.925 97.496185 31.159374 97.496185Q32.39375 97.496185 33.1125 98.183685Q33.83125 98.871185 33.83125 99.88681Q33.83125 100.402435 33.6125 100.902435Q33.409374 101.38681 32.909374 101.94931Q32.425 102.496185 31.3 103.44931Q30.346874 104.246185 30.065624 104.54306Q29.8 104.82431 29.628124 105.10556L33.846874 105.10556ZM39.26875 106.121185L38.221874 106.121185L38.221874 99.402435Q37.83125 99.76181 37.20625 100.13681Q36.596874 100.496185 36.1125 100.66806L36.1125 99.652435Q36.9875 99.23056 37.64375 98.652435Q38.315624 98.058685 38.596874 97.496185L39.26875 97.496185L39.26875 106.121185ZM42.89375 106.121185L42.89375 104.91806L44.096874 104.91806L44.096874 106.121185L42.89375 106.121185ZM45.3625 98.652435L45.3625 97.63681L50.925 97.63681L50.925 98.464935Q50.1125 99.339935 49.3 100.79306Q48.503124 102.23056 48.065624 103.76181Q47.7375 104.839935 47.659374 106.121185L46.565624 106.121185Q46.58125 105.10556 46.95625 103.66806Q47.346874 102.23056 48.05 100.902435Q48.76875 99.57431 49.58125 98.652435L45.3625 98.652435ZM52.503124 99.589935Q52.503124 98.66806 52.95625 98.027435Q53.425 97.38681 54.3 97.38681Q55.1125 97.38681 55.64375 97.964935Q56.175 98.54306 56.175 99.652435Q56.175 100.746185 55.628124 101.339935Q55.096874 101.91806 54.315624 101.91806Q53.534374 101.91806 53.01875 101.339935Q52.503124 100.76181 52.503124 99.589935ZM54.33125 98.10556Q53.940624 98.10556 53.675 98.44931Q53.425 98.79306 53.425 99.69931Q53.425 100.527435 53.675 100.871185Q53.940624 101.19931 54.33125 101.19931Q54.7375 101.19931 54.9875 100.85556Q55.253124 100.51181 55.253124 99.621185Q55.253124 98.777435 54.9875 98.44931Q54.721874 98.10556 54.33125 98.10556ZM54.33125 106.433685L59.034374 97.38681L59.89375 97.38681L55.20625 106.433685L54.33125 106.433685ZM58.05 104.10556Q58.05 103.183685 58.503124 102.54306Q58.971874 101.902435 59.8625 101.902435Q60.675 101.902435 61.20625 102.48056Q61.7375 103.04306 61.7375 104.16806Q61.7375 105.26181 61.190624 105.85556Q60.659374 106.433685 59.8625 106.433685Q59.096874 106.433685 58.565624 105.85556Q58.05 105.277435 58.05 104.10556ZM59.89375 102.621185Q59.4875 102.621185 59.221874 102.964935Q58.971874 103.308685 58.971874 104.214935Q58.971874 105.027435 59.2375 105.371185Q59.503124 105.714935 59.89375 105.714935Q60.284374 105.714935 60.55 105.371185Q60.815624 105.027435 60.815624 104.121185Q60.815624 103.29306 60.55 102.964935Q60.284374 102.621185 59.89375 102.621185Z" fill-rule="nonzero"/><path stroke="#757575" stroke-width="1.0" stroke-linecap="butt" d="M27.8 93.621185L317.3 93.621185L423.4967 93.621185" fill-rule="nonzero"/><path fill="#9e9e9e" d="M425.4967 93.621185C425.4967 92.51662 424.6013 91.621185 423.4967 91.621185C422.39215 91.621185 421.4967 92.51662 421.4967 93.621185C421.4967 94.72575 422.39215 95.621185 423.4967 95.621185C424.6013 95.621185 425.4967 94.72575 425.4967 93.621185" fill-rule="nonzero"/><path fill="#1a1a1a" d="M28.690624 406.11536L28.690624 397.5216L30.409374 397.5216L32.440624 403.59973Q32.721874 404.4591 32.846874 404.88098Q32.9875 404.41223 33.3 403.50598L35.3625 397.5216L36.89375 397.5216L36.89375 406.11536L35.8 406.11536L35.8 398.92786L33.3 406.11536L32.26875 406.11536L29.784374 398.80286L29.784374 406.11536L28.690624 406.11536ZM37.20625 403.00598Q37.20625 401.2716 38.159374 400.44348Q38.95625 399.75598 40.1125 399.75598Q41.39375 399.75598 42.20625 400.59973Q43.034374 401.42786 43.034374 402.91223Q43.034374 404.11536 42.675 404.80286Q42.315624 405.49036 41.6125 405.88098Q40.925 406.25598 40.1125 406.25598Q38.815624 406.25598 38.003124 405.42786Q37.20625 404.5841 37.20625 403.00598ZM38.284374 403.00598Q38.284374 404.19348 38.8 404.78723Q39.33125 405.38098 40.1125 405.38098Q40.909374 405.38098 41.425 404.78723Q41.940624 404.19348 41.940624 402.97473Q41.940624 401.81848 41.409374 401.22473Q40.89375 400.63098 40.1125 400.63098Q39.33125 400.63098 38.8 401.22473Q38.284374 401.80286 38.284374 403.00598ZM44.175 404.25598L45.20625 404.09973Q45.3 404.72473 45.690624 405.05286Q46.096874 405.38098 46.83125 405.38098Q47.55 405.38098 47.89375 405.09973Q48.253124 404.80286 48.253124 404.3966Q48.253124 404.03723 47.940624 403.8341Q47.721874 403.69348 46.8625 403.47473Q45.70625 403.17786 45.253124 402.97473Q44.815624 402.75598 44.58125 402.38098Q44.346874 402.00598 44.346874 401.53723Q44.346874 401.13098 44.534374 400.7716Q44.721874 400.41223 45.05 400.17786Q45.3 400.00598 45.721874 399.88098Q46.14375 399.75598 46.64375 399.75598Q47.3625 399.75598 47.909374 399.97473Q48.471874 400.17786 48.7375 400.53723Q49.003124 400.8966 49.096874 401.49036L48.065624 401.63098Q48.003124 401.16223 47.659374 400.8966Q47.33125 400.61536 46.70625 400.61536Q45.9875 400.61536 45.675 400.86536Q45.3625 401.09973 45.3625 401.42786Q45.3625 401.63098 45.4875 401.78723Q45.628124 401.9591 45.89375 402.06848Q46.05 402.13098 46.83125 402.3341Q47.95625 402.6466 48.39375 402.8341Q48.83125 403.0216 49.08125 403.38098Q49.33125 403.74036 49.33125 404.28723Q49.33125 404.81848 49.01875 405.28723Q48.721874 405.74036 48.14375 406.00598Q47.565624 406.25598 46.83125 406.25598Q45.6125 406.25598 44.971874 405.75598Q44.346874 405.24036 44.175 404.25598ZM53.89375 405.17786L54.05 406.09973Q53.596874 406.19348 53.253124 406.19348Q52.675 406.19348 52.3625 406.0216Q52.05 405.8341 51.909374 405.53723Q51.784374 405.24036 51.784374 404.28723L51.784374 400.7091L51.01875 400.7091L51.01875 399.8966L51.784374 399.8966L51.784374 398.34973L52.83125 397.72473L52.83125 399.8966L53.89375 399.8966L53.89375 400.7091L52.83125 400.7091L52.83125 404.34973Q52.83125 404.80286 52.878124 404.92786Q52.940624 405.05286 53.065624 405.13098Q53.190624 405.2091 53.425 405.2091Q53.6125 405.2091 53.89375 405.17786ZM54.565624 406.11536L54.565624 397.5216L55.628124 397.5216L55.628124 406.11536L54.565624 406.11536ZM57.55 408.50598L57.425 407.5216Q57.76875 407.61536 58.034374 407.61536Q58.378124 407.61536 58.58125 407.49036Q58.8 407.38098 58.940624 407.17786Q59.034374 407.00598 59.26875 406.38098Q59.284374 406.30286 59.3625 406.13098L56.9875 399.8966L58.128124 399.8966L59.425 403.49036Q59.675 404.17786 59.878124 404.94348Q60.065624 404.2091 60.315624 403.5216L61.64375 399.8966L62.690624 399.8966L60.33125 406.22473Q59.940624 407.24036 59.7375 407.63098Q59.45625 408.16223 59.08125 408.3966Q58.721874 408.6466 58.221874 408.6466Q57.925 408.6466 57.55 408.50598ZM65.34688 403.34973L66.40938 403.25598Q66.4875 403.91223 66.76875 404.31848Q67.05 404.72473 67.62813 404.99036Q68.22188 405.24036 68.95625 405.24036Q69.59688 405.24036 70.09688 405.05286Q70.59688 404.84973 70.83125 404.5216Q71.08125 404.17786 71.08125 403.78723Q71.08125 403.38098 70.84688 403.0841Q70.6125 402.7716 70.08125 402.56848Q69.72188 402.42786 68.53438 402.1466Q67.3625 401.86536 66.89375 401.61536Q66.26875 401.28723 65.97188 400.81848Q65.675 400.3341 65.675 399.74036Q65.675 399.09973 66.03438 398.53723Q66.40938 397.9591 67.1125 397.67786Q67.83125 397.38098 68.69063 397.38098Q69.64375 397.38098 70.37813 397.69348Q71.1125 397.99036 71.50313 398.59973Q71.89375 399.19348 71.925 399.94348L70.83125 400.0216Q70.7375 399.2091 70.22188 398.80286Q69.72188 398.38098 68.7375 398.38098Q67.70625 398.38098 67.2375 398.75598Q66.76875 399.13098 66.76875 399.66223Q66.76875 400.13098 67.09688 400.42786Q67.425 400.72473 68.8 401.03723Q70.19063 401.34973 70.70625 401.5841Q71.45625 401.94348 71.81563 402.47473Q72.175 402.99036 72.175 403.69348Q72.175 404.38098 71.78438 404.99036Q71.39375 405.5841 70.65938 405.92786Q69.925 406.25598 69.00313 406.25598Q67.83125 406.25598 67.03438 405.92786Q66.25313 405.5841 65.8 404.8966Q65.3625 404.2091 65.34688 403.34973ZM74.7375 406.11536L72.83125 399.8966L73.925 399.8966L74.90938 403.49036L75.28438 404.81848Q75.31563 404.72473 75.6125 403.53723L76.59688 399.8966L77.675 399.8966L78.6125 403.50598L78.925 404.69348L79.28438 403.49036L80.34688 399.8966L81.37813 399.8966L79.425 406.11536L78.33125 406.11536L77.34688 402.38098L77.09688 401.3341L75.84688 406.11536L74.7375 406.11536ZM82.59688 398.74036L82.59688 397.5216L83.65938 397.5216L83.65938 398.74036L82.59688 398.74036ZM82.59688 406.11536L82.59688 399.8966L83.65938 399.8966L83.65938 406.11536L82.59688 406.11536ZM85.84688 406.11536L85.84688 400.7091L84.90938 400.7091L84.90938 399.8966L85.84688 399.8966L85.84688 399.22473Q85.84688 398.59973 85.95625 398.30286Q86.1125 397.88098 86.4875 397.63098Q86.87813 397.38098 87.56563 397.38098Q88.01875 397.38098 88.55 397.49036L88.39375 398.3966Q88.06563 398.34973 87.76875 398.34973Q87.28438 398.34973 87.08125 398.55286Q86.89375 398.75598 86.89375 399.31848L86.89375 399.8966L88.1125 399.8966L88.1125 400.7091L86.89375 400.7091L86.89375 406.11536L85.84688 406.11536ZM90.89375 405.17786L91.05 406.09973Q90.59688 406.19348 90.25313 406.19348Q89.675 406.19348 89.3625 406.0216Q89.05 405.8341 88.90938 405.53723Q88.78438 405.24036 88.78438 404.28723L88.78438 400.7091L88.01875 400.7091L88.01875 399.8966L88.78438 399.8966L88.78438 398.34973L89.83125 397.72473L89.83125 399.8966L90.89375 399.8966L90.89375 400.7091L89.83125 400.7091L89.83125 404.34973Q89.83125 404.80286 89.87813 404.92786Q89.94063 405.05286 90.06563 405.13098Q90.19063 405.2091 90.425 405.2091Q90.6125 405.2091 90.89375 405.17786ZM97.3625 397.5216L98.50313 397.5216L98.50313 402.49036Q98.50313 403.78723 98.20625 404.55286Q97.90938 405.30286 97.14375 405.78723Q96.37813 406.25598 95.14375 406.25598Q93.94063 406.25598 93.15938 405.84973Q92.39375 405.42786 92.06563 404.6466Q91.7375 403.84973 91.7375 402.49036L91.7375 397.5216L92.87813 397.5216L92.87813 402.47473Q92.87813 403.59973 93.08125 404.13098Q93.3 404.66223 93.8 404.9591Q94.31563 405.24036 95.05 405.24036Q96.3 405.24036 96.83125 404.67786Q97.3625 404.09973 97.3625 402.47473L97.3625 397.5216ZM100.925 406.11536L100.925 397.5216L102.05 397.5216L102.05 406.11536L100.925 406.11536ZM107.7375 406.11536L105.83125 399.8966L106.925 399.8966L107.90938 403.49036L108.28438 404.81848Q108.31563 404.72473 108.6125 403.53723L109.59688 399.8966L110.675 399.8966L111.6125 403.50598L111.925 404.69348L112.28438 403.49036L113.34688 399.8966L114.37813 399.8966L112.425 406.11536L111.33125 406.11536L110.34688 402.38098L110.09688 401.3341L108.84688 406.11536L107.7375 406.11536ZM115.59688 398.74036L115.59688 397.5216L116.65938 397.5216L116.65938 398.74036L115.59688 398.74036ZM115.59688 406.11536L115.59688 399.8966L116.65938 399.8966L116.65938 406.11536L115.59688 406.11536ZM120.89375 405.17786L121.05 406.09973Q120.59688 406.19348 120.25313 406.19348Q119.675 406.19348 119.3625 406.0216Q119.05 405.8341 118.90938 405.53723Q118.78438 405.24036 118.78438 404.28723L118.78438 400.7091L118.01875 400.7091L118.01875 399.8966L118.78438 399.8966L118.78438 398.34973L119.83125 397.72473L119.83125 399.8966L120.89375 399.8966L120.89375 400.7091L119.83125 400.7091L119.83125 404.34973Q119.83125 404.80286 119.87813 404.92786Q119.94063 405.05286 120.06563 405.13098Q120.19063 405.2091 120.425 405.2091Q120.6125 405.2091 120.89375 405.17786ZM121.59688 406.11536L121.59688 397.5216L122.64375 397.5216L122.64375 400.59973Q123.37813 399.75598 124.50313 399.75598Q125.20625 399.75598 125.70625 400.03723Q126.22188 400.30286 126.44063 400.78723Q126.65938 401.25598 126.65938 402.17786L126.65938 406.11536L125.6125 406.11536L125.6125 402.17786Q125.6125 401.38098 125.26875 401.0216Q124.925 400.66223 124.3 400.66223Q123.83125 400.66223 123.40938 400.91223Q123.00313 401.1466 122.81563 401.56848Q122.64375 401.97473 122.64375 402.7091L122.64375 406.11536L121.59688 406.11536ZM133.89375 405.17786L134.05 406.09973Q133.59688 406.19348 133.25313 406.19348Q132.675 406.19348 132.3625 406.0216Q132.05 405.8341 131.90938 405.53723Q131.78438 405.24036 131.78438 404.28723L131.78438 400.7091L131.01875 400.7091L131.01875 399.8966L131.78438 399.8966L131.78438 398.34973L132.83125 397.72473L132.83125 399.8966L133.89375 399.8966L133.89375 400.7091L132.83125 400.7091L132.83125 404.34973Q132.83125 404.80286 132.87813 404.92786Q132.94063 405.05286 133.06563 405.13098Q133.19063 405.2091 133.425 405.2091Q133.6125 405.2091 133.89375 405.17786ZM134.59688 406.11536L134.59688 397.5216L135.64375 397.5216L135.64375 400.59973Q136.37813 399.75598 137.50313 399.75598Q138.20625 399.75598 138.70625 400.03723Q139.22188 400.30286 139.44063 400.78723Q139.65938 401.25598 139.65938 402.17786L139.65938 406.11536L138.6125 406.11536L138.6125 402.17786Q138.6125 401.38098 138.26875 401.0216Q137.925 400.66223 137.3 400.66223Q136.83125 400.66223 136.40938 400.91223Q136.00313 401.1466 135.81563 401.56848Q135.64375 401.97473 135.64375 402.7091L135.64375 406.11536L134.59688 406.11536ZM145.84688 404.11536L146.94063 404.24036Q146.69063 405.19348 145.9875 405.72473Q145.28438 406.25598 144.20625 406.25598Q142.84688 406.25598 142.03438 405.41223Q141.2375 404.56848 141.2375 403.05286Q141.2375 401.49036 142.05 400.63098Q142.8625 399.75598 144.14375 399.75598Q145.39375 399.75598 146.175 400.59973Q146.97188 401.44348 146.97188 402.99036Q146.97188 403.0841 146.97188 403.2716L142.33125 403.2716Q142.39375 404.30286 142.90938 404.84973Q143.425 405.38098 144.20625 405.38098Q144.78438 405.38098 145.19063 405.0841Q145.6125 404.7716 145.84688 404.11536ZM142.39375 402.41223L145.8625 402.41223Q145.8 401.61536 145.47188 401.22473Q144.95625 400.61536 144.15938 400.61536Q143.425 400.61536 142.925 401.09973Q142.44063 401.5841 142.39375 402.41223ZM151.20625 403.00598Q151.20625 401.2716 152.15938 400.44348Q152.95625 399.75598 154.1125 399.75598Q155.39375 399.75598 156.20625 400.59973Q157.03438 401.42786 157.03438 402.91223Q157.03438 404.11536 156.675 404.80286Q156.31563 405.49036 155.6125 405.88098Q154.925 406.25598 154.1125 406.25598Q152.81563 406.25598 152.00313 405.42786Q151.20625 404.5841 151.20625 403.00598ZM152.28438 403.00598Q152.28438 404.19348 152.8 404.78723Q153.33125 405.38098 154.1125 405.38098Q154.90938 405.38098 155.425 404.78723Q155.94063 404.19348 155.94063 402.97473Q155.94063 401.81848 155.40938 401.22473Q154.89375 400.63098 154.1125 400.63098Q153.33125 400.63098 152.8 401.22473Q152.28438 401.80286 152.28438 403.00598ZM162.65938 403.8341L163.69063 403.97473Q163.51875 405.03723 162.81563 405.6466Q162.1125 406.25598 161.09688 406.25598Q159.81563 406.25598 159.03438 405.42786Q158.26875 404.5841 158.26875 403.0216Q158.26875 402.0216 158.59688 401.2716Q158.94063 400.50598 159.6125 400.13098Q160.3 399.75598 161.1125 399.75598Q162.1125 399.75598 162.75313 400.2716Q163.40938 400.7716 163.59688 401.72473L162.56563 401.88098Q162.425 401.25598 162.05 400.94348Q161.675 400.61536 161.14375 400.61536Q160.34688 400.61536 159.84688 401.19348Q159.34688 401.75598 159.34688 402.99036Q159.34688 404.25598 159.83125 404.81848Q160.31563 405.38098 161.08125 405.38098Q161.70625 405.38098 162.1125 405.00598Q162.53438 404.63098 162.65938 403.8341ZM168.65938 403.8341L169.69063 403.97473Q169.51875 405.03723 168.81563 405.6466Q168.1125 406.25598 167.09688 406.25598Q165.81563 406.25598 165.03438 405.42786Q164.26875 404.5841 164.26875 403.0216Q164.26875 402.0216 164.59688 401.2716Q164.94063 400.50598 165.6125 400.13098Q166.3 399.75598 167.1125 399.75598Q168.1125 399.75598 168.75313 400.2716Q169.40938 400.7716 169.59688 401.72473L168.56563 401.88098Q168.425 401.25598 168.05 400.94348Q167.675 400.61536 167.14375 400.61536Q166.34688 400.61536 165.84688 401.19348Q165.34688 401.75598 165.34688 402.99036Q165.34688 404.25598 165.83125 404.81848Q166.31563 405.38098 167.08125 405.38098Q167.70625 405.38098 168.1125 405.00598Q168.53438 404.63098 168.65938 403.8341ZM174.65938 405.34973Q174.06563 405.84973 173.51875 406.05286Q172.9875 406.25598 172.3625 406.25598Q171.33125 406.25598 170.78438 405.75598Q170.2375 405.25598 170.2375 404.47473Q170.2375 404.0216 170.44063 403.6466Q170.64375 403.25598 170.9875 403.03723Q171.33125 402.80286 171.75313 402.69348Q172.05 402.59973 172.69063 402.5216Q173.95625 402.38098 174.56563 402.16223Q174.56563 401.94348 174.56563 401.8966Q174.56563 401.24036 174.26875 400.97473Q173.8625 400.63098 173.06563 400.63098Q172.33125 400.63098 171.97188 400.8966Q171.6125 401.1466 171.44063 401.80286L170.40938 401.66223Q170.55 401.00598 170.87813 400.59973Q171.20625 400.19348 171.81563 399.97473Q172.425 399.75598 173.22188 399.75598Q174.01875 399.75598 174.51875 399.94348Q175.01875 400.13098 175.25313 400.41223Q175.4875 400.69348 175.58125 401.13098Q175.62813 401.3966 175.62813 402.09973L175.62813 403.50598Q175.62813 404.97473 175.69063 405.36536Q175.76875 405.75598 175.97188 406.11536L174.8625 406.11536Q174.70625 405.78723 174.65938 405.34973ZM174.56563 402.99036Q173.9875 403.22473 172.84688 403.3966Q172.19063 403.49036 171.925 403.61536Q171.65938 403.72473 171.50313 403.94348Q171.3625 404.16223 171.3625 404.44348Q171.3625 404.86536 171.675 405.1466Q172.00313 405.42786 172.6125 405.42786Q173.22188 405.42786 173.69063 405.16223Q174.175 404.8966 174.39375 404.42786Q174.56563 404.06848 174.56563 403.38098L174.56563 402.99036ZM177.175 404.25598L178.20625 404.09973Q178.3 404.72473 178.69063 405.05286Q179.09688 405.38098 179.83125 405.38098Q180.55 405.38098 180.89375 405.09973Q181.25313 404.80286 181.25313 404.3966Q181.25313 404.03723 180.94063 403.8341Q180.72188 403.69348 179.8625 403.47473Q178.70625 403.17786 178.25313 402.97473Q177.81563 402.75598 177.58125 402.38098Q177.34688 402.00598 177.34688 401.53723Q177.34688 401.13098 177.53438 400.7716Q177.72188 400.41223 178.05 400.17786Q178.3 400.00598 178.72188 399.88098Q179.14375 399.75598 179.64375 399.75598Q180.3625 399.75598 180.90938 399.97473Q181.47188 400.17786 181.7375 400.53723Q182.00313 400.8966 182.09688 401.49036L181.06563 401.63098Q181.00313 401.16223 180.65938 400.8966Q180.33125 400.61536 179.70625 400.61536Q178.9875 400.61536 178.675 400.86536Q178.3625 401.09973 178.3625 401.42786Q178.3625 401.63098 178.4875 401.78723Q178.62813 401.9591 178.89375 402.06848Q179.05 402.13098 179.83125 402.3341Q180.95625 402.6466 181.39375 402.8341Q181.83125 403.0216 182.08125 403.38098Q182.33125 403.74036 182.33125 404.28723Q182.33125 404.81848 182.01875 405.28723Q181.72188 405.74036 181.14375 406.00598Q180.56563 406.25598 179.83125 406.25598Q178.6125 406.25598 177.97188 405.75598Q177.34688 405.24036 177.175 404.25598ZM184.59688 398.74036L184.59688 397.5216L185.65938 397.5216L185.65938 398.74036L184.59688 398.74036ZM184.59688 406.11536L184.59688 399.8966L185.65938 399.8966L185.65938 406.11536L184.59688 406.11536ZM187.20625 403.00598Q187.20625 401.2716 188.15938 400.44348Q188.95625 399.75598 190.1125 399.75598Q191.39375 399.75598 192.20625 400.59973Q193.03438 401.42786 193.03438 402.91223Q193.03438 404.11536 192.675 404.80286Q192.31563 405.49036 191.6125 405.88098Q190.925 406.25598 190.1125 406.25598Q188.81563 406.25598 188.00313 405.42786Q187.20625 404.5841 187.20625 403.00598ZM188.28438 403.00598Q188.28438 404.19348 188.8 404.78723Q189.33125 405.38098 190.1125 405.38098Q190.90938 405.38098 191.425 404.78723Q191.94063 404.19348 191.94063 402.97473Q191.94063 401.81848 191.40938 401.22473Q190.89375 400.63098 190.1125 400.63098Q189.33125 400.63098 188.8 401.22473Q188.28438 401.80286 188.28438 403.00598ZM194.59688 406.11536L194.59688 399.8966L195.53438 399.8966L195.53438 400.7716Q196.22188 399.75598 197.51875 399.75598Q198.08125 399.75598 198.55 399.9591Q199.03438 400.16223 199.26875 400.49036Q199.50313 400.81848 199.59688 401.25598Q199.64375 401.55286 199.64375 402.28723L199.64375 406.11536L198.59688 406.11536L198.59688 402.3341Q198.59688 401.67786 198.47188 401.36536Q198.34688 401.05286 198.03438 400.86536Q197.72188 400.66223 197.3 400.66223Q196.62813 400.66223 196.12813 401.09973Q195.64375 401.5216 195.64375 402.7091L195.64375 406.11536L194.59688 406.11536ZM205.65938 405.34973Q205.06563 405.84973 204.51875 406.05286Q203.9875 406.25598 203.3625 406.25598Q202.33125 406.25598 201.78438 405.75598Q201.2375 405.25598 201.2375 404.47473Q201.2375 404.0216 201.44063 403.6466Q201.64375 403.25598 201.9875 403.03723Q202.33125 402.80286 202.75313 402.69348Q203.05 402.59973 203.69063 402.5216Q204.95625 402.38098 205.56563 402.16223Q205.56563 401.94348 205.56563 401.8966Q205.56563 401.24036 205.26875 400.97473Q204.8625 400.63098 204.06563 400.63098Q203.33125 400.63098 202.97188 400.8966Q202.6125 401.1466 202.44063 401.80286L201.40938 401.66223Q201.55 401.00598 201.87813 400.59973Q202.20625 400.19348 202.81563 399.97473Q203.425 399.75598 204.22188 399.75598Q205.01875 399.75598 205.51875 399.94348Q206.01875 400.13098 206.25313 400.41223Q206.4875 400.69348 206.58125 401.13098Q206.62813 401.3966 206.62813 402.09973L206.62813 403.50598Q206.62813 404.97473 206.69063 405.36536Q206.76875 405.75598 206.97188 406.11536L205.8625 406.11536Q205.70625 405.78723 205.65938 405.34973ZM205.56563 402.99036Q204.9875 403.22473 203.84688 403.3966Q203.19063 403.49036 202.925 403.61536Q202.65938 403.72473 202.50313 403.94348Q202.3625 404.16223 202.3625 404.44348Q202.3625 404.86536 202.675 405.1466Q203.00313 405.42786 203.6125 405.42786Q204.22188 405.42786 204.69063 405.16223Q205.175 404.8966 205.39375 404.42786Q205.56563 404.06848 205.56563 403.38098L205.56563 402.99036ZM208.56563 406.11536L208.56563 397.5216L209.62813 397.5216L209.62813 406.11536L208.56563 406.11536ZM220.3625 397.5216L221.50313 397.5216L221.50313 402.49036Q221.50313 403.78723 221.20625 404.55286Q220.90938 405.30286 220.14375 405.78723Q219.37813 406.25598 218.14375 406.25598Q216.94063 406.25598 216.15938 405.84973Q215.39375 405.42786 215.06563 404.6466Q214.7375 403.84973 214.7375 402.49036L214.7375 397.5216L215.87813 397.5216L215.87813 402.47473Q215.87813 403.59973 216.08125 404.13098Q216.3 404.66223 216.8 404.9591Q217.31563 405.24036 218.05 405.24036Q219.3 405.24036 219.83125 404.67786Q220.3625 404.09973 220.3625 402.47473L220.3625 397.5216ZM223.925 406.11536L223.925 397.5216L225.05 397.5216L225.05 406.11536L223.925 406.11536ZM226.675 406.11536L226.675 397.5216L227.81563 397.5216L227.81563 401.78723L232.08125 397.5216L233.62813 397.5216L230.01875 401.00598L233.78438 406.11536L232.28438 406.11536L229.22188 401.7716L227.81563 403.13098L227.81563 406.11536L226.675 406.11536ZM234.59688 398.74036L234.59688 397.5216L235.65938 397.5216L235.65938 398.74036L234.59688 398.74036ZM234.59688 406.11536L234.59688 399.8966L235.65938 399.8966L235.65938 406.11536L234.59688 406.11536ZM239.89375 405.17786L240.05 406.09973Q239.59688 406.19348 239.25313 406.19348Q238.675 406.19348 238.3625 406.0216Q238.05 405.8341 237.90938 405.53723Q237.78438 405.24036 237.78438 404.28723L237.78438 400.7091L237.01875 400.7091L237.01875 399.8966L237.78438 399.8966L237.78438 398.34973L238.83125 397.72473L238.83125 399.8966L239.89375 399.8966L239.89375 400.7091L238.83125 400.7091L238.83125 404.34973Q238.83125 404.80286 238.87813 404.92786Q238.94063 405.05286 239.06563 405.13098Q239.19063 405.2091 239.425 405.2091Q239.6125 405.2091 239.89375 405.17786ZM243.59688 398.74036L243.59688 397.5216L244.65938 397.5216L244.65938 398.74036L243.59688 398.74036ZM243.59688 406.11536L243.59688 399.8966L244.65938 399.8966L244.65938 406.11536L243.59688 406.11536ZM246.59688 406.11536L246.59688 399.8966L247.53438 399.8966L247.53438 400.7716Q248.22188 399.75598 249.51875 399.75598Q250.08125 399.75598 250.55 399.9591Q251.03438 400.16223 251.26875 400.49036Q251.50313 400.81848 251.59688 401.25598Q251.64375 401.55286 251.64375 402.28723L251.64375 406.11536L250.59688 406.11536L250.59688 402.3341Q250.59688 401.67786 250.47188 401.36536Q250.34688 401.05286 250.03438 400.86536Q249.72188 400.66223 249.3 400.66223Q248.62813 400.66223 248.12813 401.09973Q247.64375 401.5216 247.64375 402.7091L247.64375 406.11536L246.59688 406.11536ZM255.89375 405.17786L256.05 406.09973Q255.59688 406.19348 255.25313 406.19348Q254.675 406.19348 254.3625 406.0216Q254.05 405.8341 253.90938 405.53723Q253.78438 405.24036 253.78438 404.28723L253.78438 400.7091L253.01875 400.7091L253.01875 399.8966L253.78438 399.8966L253.78438 398.34973L254.83125 397.72473L254.83125 399.8966L255.89375 399.8966L255.89375 400.7091L254.83125 400.7091L254.83125 404.34973Q254.83125 404.80286 254.87813 404.92786Q254.94063 405.05286 255.06563 405.13098Q255.19063 405.2091 255.425 405.2091Q255.6125 405.2091 255.89375 405.17786ZM260.84686 404.11536L261.9406 404.24036Q261.6906 405.19348 260.9875 405.72473Q260.28436 406.25598 259.20624 406.25598Q257.84686 406.25598 257.03436 405.41223Q256.2375 404.56848 256.2375 403.05286Q256.2375 401.49036 257.05 400.63098Q257.8625 399.75598 259.14374 399.75598Q260.39374 399.75598 261.175 400.59973Q261.97186 401.44348 261.97186 402.99036Q261.97186 403.0841 261.97186 403.2716L257.33124 403.2716Q257.39374 404.30286 257.90936 404.84973Q258.425 405.38098 259.20624 405.38098Q259.78436 405.38098 260.1906 405.0841Q260.6125 404.7716 260.84686 404.11536ZM257.39374 402.41223L260.8625 402.41223Q260.8 401.61536 260.47186 401.22473Q259.95624 400.61536 259.15936 400.61536Q258.425 400.61536 257.925 401.09973Q257.4406 401.5841 257.39374 402.41223ZM263.39374 406.63098L264.425 406.78723Q264.4875 407.25598 264.78436 407.47473Q265.175 407.7716 265.84686 407.7716Q266.58124 407.7716 266.97186 407.47473Q267.3781 407.17786 267.51874 406.66223Q267.6125 406.3341 267.59686 405.30286Q266.90936 406.11536 265.8781 406.11536Q264.59686 406.11536 263.89374 405.19348Q263.1906 404.25598 263.1906 402.97473Q263.1906 402.0841 263.5031 401.3341Q263.83124 400.56848 264.4406 400.16223Q265.05 399.75598 265.8781 399.75598Q266.9875 399.75598 267.70624 400.6466L267.70624 399.8966L268.675 399.8966L268.675 405.2716Q268.675 406.72473 268.3781 407.3341Q268.08124 407.94348 267.4406 408.28723Q266.8 408.6466 265.8625 408.6466Q264.7531 408.6466 264.0656 408.1466Q263.3781 407.6466 263.39374 406.63098ZM264.26874 402.8966Q264.26874 404.11536 264.7531 404.67786Q265.2375 405.24036 265.97186 405.24036Q266.70624 405.24036 267.1906 404.67786Q267.6906 404.11536 267.6906 402.92786Q267.6906 401.78723 267.175 401.2091Q266.675 400.63098 265.95624 400.63098Q265.2531 400.63098 264.7531 401.2091Q264.26874 401.7716 264.26874 402.8966ZM270.58124 406.11536L270.58124 399.8966L271.53436 399.8966L271.53436 400.8341Q271.89374 400.17786 272.1906 399.97473Q272.5031 399.75598 272.8781 399.75598Q273.40936 399.75598 273.95624 400.0841L273.59686 401.06848Q273.20624 400.8341 272.83124 400.8341Q272.47186 400.8341 272.1906 401.05286Q271.925 401.25598 271.8156 401.63098Q271.6281 402.19348 271.6281 402.84973L271.6281 406.11536L270.58124 406.11536ZM278.65936 405.34973Q278.0656 405.84973 277.51874 406.05286Q276.9875 406.25598 276.3625 406.25598Q275.33124 406.25598 274.78436 405.75598Q274.2375 405.25598 274.2375 404.47473Q274.2375 404.0216 274.4406 403.6466Q274.64374 403.25598 274.9875 403.03723Q275.33124 402.80286 275.7531 402.69348Q276.05 402.59973 276.6906 402.5216Q277.95624 402.38098 278.5656 402.16223Q278.5656 401.94348 278.5656 401.8966Q278.5656 401.24036 278.26874 400.97473Q277.8625 400.63098 277.0656 400.63098Q276.33124 400.63098 275.97186 400.8966Q275.6125 401.1466 275.4406 401.80286L274.40936 401.66223Q274.55 401.00598 274.8781 400.59973Q275.20624 400.19348 275.8156 399.97473Q276.425 399.75598 277.22186 399.75598Q278.01874 399.75598 278.51874 399.94348Q279.01874 400.13098 279.2531 400.41223Q279.4875 400.69348 279.58124 401.13098Q279.6281 401.3966 279.6281 402.09973L279.6281 403.50598Q279.6281 404.97473 279.6906 405.36536Q279.76874 405.75598 279.97186 406.11536L278.8625 406.11536Q278.70624 405.78723 278.65936 405.34973ZM278.5656 402.99036Q277.9875 403.22473 276.84686 403.3966Q276.1906 403.49036 275.925 403.61536Q275.65936 403.72473 275.5031 403.94348Q275.3625 404.16223 275.3625 404.44348Q275.3625 404.86536 275.675 405.1466Q276.0031 405.42786 276.6125 405.42786Q277.22186 405.42786 277.6906 405.16223Q278.175 404.8966 278.39374 404.42786Q278.5656 404.06848 278.5656 403.38098L278.5656 402.99036ZM283.89374 405.17786L284.05 406.09973Q283.59686 406.19348 283.2531 406.19348Q282.675 406.19348 282.3625 406.0216Q282.05 405.8341 281.90936 405.53723Q281.78436 405.24036 281.78436 404.28723L281.78436 400.7091L281.01874 400.7091L281.01874 399.8966L281.78436 399.8966L281.78436 398.34973L282.83124 397.72473L282.83124 399.8966L283.89374 399.8966L283.89374 400.7091L282.83124 400.7091L282.83124 404.34973Q282.83124 404.80286 282.8781 404.92786Q282.9406 405.05286 283.0656 405.13098Q283.1906 405.2091 283.425 405.2091Q283.6125 405.2091 283.89374 405.17786ZM284.59686 398.74036L284.59686 397.5216L285.65936 397.5216L285.65936 398.74036L284.59686 398.74036ZM284.59686 406.11536L284.59686 399.8966L285.65936 399.8966L285.65936 406.11536L284.59686 406.11536ZM287.20624 403.00598Q287.20624 401.2716 288.15936 400.44348Q288.95624 399.75598 290.1125 399.75598Q291.39374 399.75598 292.20624 400.59973Q293.03436 401.42786 293.03436 402.91223Q293.03436 404.11536 292.675 404.80286Q292.3156 405.49036 291.6125 405.88098Q290.925 406.25598 290.1125 406.25598Q288.8156 406.25598 288.0031 405.42786Q287.20624 404.5841 287.20624 403.00598ZM288.28436 403.00598Q288.28436 404.19348 288.8 404.78723Q289.33124 405.38098 290.1125 405.38098Q290.90936 405.38098 291.425 404.78723Q291.9406 404.19348 291.9406 402.97473Q291.9406 401.81848 291.40936 401.22473Q290.89374 400.63098 290.1125 400.63098Q289.33124 400.63098 288.8 401.22473Q288.28436 401.80286 288.28436 403.00598ZM294.59686 406.11536L294.59686 399.8966L295.53436 399.8966L295.53436 400.7716Q296.22186 399.75598 297.51874 399.75598Q298.08124 399.75598 298.55 399.9591Q299.03436 400.16223 299.26874 400.49036Q299.5031 400.81848 299.59686 401.25598Q299.64374 401.55286 299.64374 402.28723L299.64374 406.11536L298.59686 406.11536L298.59686 402.3341Q298.59686 401.67786 298.47186 401.36536Q298.34686 401.05286 298.03436 400.86536Q297.72186 400.66223 297.3 400.66223Q296.6281 400.66223 296.1281 401.09973Q295.64374 401.5216 295.64374 402.7091L295.64374 406.11536L294.59686 406.11536Z" fill-rule="nonzero"/><path fill="#9e9e9e" d="M33.846874 422.09973L33.846874 423.11536L28.159374 423.11536Q28.159374 422.74036 28.284374 422.38098Q28.503124 421.80286 28.971874 421.24036Q29.45625 420.67786 30.3625 419.94348Q31.76875 418.78723 32.253124 418.11536Q32.753124 417.44348 32.753124 416.84973Q32.753124 416.22473 32.3 415.80286Q31.846874 415.36536 31.128124 415.36536Q30.3625 415.36536 29.909374 415.81848Q29.45625 416.2716 29.440624 417.0841L28.3625 416.97473Q28.471874 415.75598 29.190624 415.13098Q29.925 414.49036 31.159374 414.49036Q32.39375 414.49036 33.1125 415.17786Q33.83125 415.86536 33.83125 416.88098Q33.83125 417.3966 33.6125 417.8966Q33.409374 418.38098 32.909374 418.94348Q32.425 419.49036 31.3 420.44348Q30.346874 421.24036 30.065624 421.53723Q29.8 421.81848 29.628124 422.09973L33.846874 422.09973ZM35.3 420.86536L36.409374 420.7716Q36.534374 421.5841 36.971874 421.99036Q37.425 422.3966 38.065624 422.3966Q38.815624 422.3966 39.346874 421.81848Q39.878124 421.24036 39.878124 420.30286Q39.878124 419.3966 39.3625 418.88098Q38.8625 418.34973 38.034374 418.34973Q37.534374 418.34973 37.1125 418.5841Q36.70625 418.81848 36.471874 419.17786L35.4875 419.05286L36.315624 414.6466L40.596874 414.6466L40.596874 415.6466L37.159374 415.6466L36.70625 417.9591Q37.471874 417.41223 38.315624 417.41223Q39.440624 417.41223 40.20625 418.19348Q40.9875 418.97473 40.9875 420.2091Q40.9875 421.36536 40.315624 422.22473Q39.4875 423.25598 38.065624 423.25598Q36.89375 423.25598 36.14375 422.59973Q35.409374 421.94348 35.3 420.86536ZM42.89375 423.11536L42.89375 421.91223L44.096874 421.91223L44.096874 423.11536L42.89375 423.11536ZM48.675 423.11536L48.675 421.05286L44.95625 421.05286L44.95625 420.0841L48.878124 414.5216L49.7375 414.5216L49.7375 420.0841L50.89375 420.0841L50.89375 421.05286L49.7375 421.05286L49.7375 423.11536L48.675 423.11536ZM48.675 420.0841L48.675 416.22473L45.9875 420.0841L48.675 420.0841ZM52.503124 416.5841Q52.503124 415.66223 52.95625 415.0216Q53.425 414.38098 54.3 414.38098Q55.1125 414.38098 55.64375 414.9591Q56.175 415.53723 56.175 416.6466Q56.175 417.74036 55.628124 418.3341Q55.096874 418.91223 54.315624 418.91223Q53.534374 418.91223 53.01875 418.3341Q52.503124 417.75598 52.503124 416.5841ZM54.33125 415.09973Q53.940624 415.09973 53.675 415.44348Q53.425 415.78723 53.425 416.69348Q53.425 417.5216 53.675 417.86536Q53.940624 418.19348 54.33125 418.19348Q54.7375 418.19348 54.9875 417.84973Q55.253124 417.50598 55.253124 416.61536Q55.253124 415.7716 54.9875 415.44348Q54.721874 415.09973 54.33125 415.09973ZM54.33125 423.42786L59.034374 414.38098L59.89375 414.38098L55.20625 423.42786L54.33125 423.42786ZM58.05 421.09973Q58.05 420.17786 58.503124 419.53723Q58.971874 418.8966 59.8625 418.8966Q60.675 418.8966 61.20625 419.47473Q61.7375 420.03723 61.7375 421.16223Q61.7375 422.25598 61.190624 422.84973Q60.659374 423.42786 59.8625 423.42786Q59.096874 423.42786 58.565624 422.84973Q58.05 422.2716 58.05 421.09973ZM59.89375 419.61536Q59.4875 419.61536 59.221874 419.9591Q58.971874 420.30286 58.971874 421.2091Q58.971874 422.0216 59.2375 422.36536Q59.503124 422.7091 59.89375 422.7091Q60.284374 422.7091 60.55 422.36536Q60.815624 422.0216 60.815624 421.11536Q60.815624 420.28723 60.55 419.9591Q60.284374 419.61536 59.89375 419.61536Z" fill-rule="nonzero"/><path stroke="#757575" stroke-width="1.0" stroke-linecap="butt" d="M27.8 410.61536L317.3 410.61536L376.24457 410.61536" fill-rule="nonzero"/><path fill="#9e9e9e" d="M378.24457 410.61536C378.24457 409.51077 377.34912 408.61536 376.24457 408.61536C375.13998 408.61536 374.24457 409.51077 374.24457 410.61536C374.24457 411.7199 375.13998 412.61536 376.24457 412.61536C377.34912 412.61536 378.24457 411.7199 378.24457 410.61536" fill-rule="nonzero"/><path fill="#1a1a1a" d="M1050.6687 57.70012L1049.6218 57.70012L1049.6218 50.98137Q1049.2312 51.340744 1048.6062 51.715744Q1047.9968 52.07512 1047.5125 52.246994L1047.5125 51.23137Q1048.3875 50.809494 1049.0437 50.23137Q1049.7156 49.63762 1049.9968 49.07512L1050.6687 49.07512L1050.6687 57.70012ZM1053.7 53.465744Q1053.7 51.934494 1054.0125 51.01262Q1054.325 50.07512 1054.9343 49.57512Q1055.5593 49.07512 1056.4968 49.07512Q1057.1843 49.07512 1057.7 49.35637Q1058.2312 49.63762 1058.575 50.16887Q1058.9187 50.684494 1059.1062 51.434494Q1059.2937 52.184494 1059.2937 53.465744Q1059.2937 54.98137 1058.9812 55.903244Q1058.6843 56.82512 1058.0593 57.340744Q1057.45 57.840744 1056.4968 57.840744Q1055.2625 57.840744 1054.5437 56.95012Q1053.7 55.88762 1053.7 53.465744ZM1054.7781 53.465744Q1054.7781 55.57512 1055.2781 56.278244Q1055.7781 56.98137 1056.4968 56.98137Q1057.2312 56.98137 1057.7156 56.278244Q1058.2156 55.57512 1058.2156 53.465744Q1058.2156 51.340744 1057.7156 50.653244Q1057.2312 49.95012 1056.4812 49.95012Q1055.7625 49.95012 1055.325 50.559494Q1054.7781 51.340744 1054.7781 53.465744ZM1060.7 53.465744Q1060.7 51.934494 1061.0125 51.01262Q1061.325 50.07512 1061.9343 49.57512Q1062.5593 49.07512 1063.4968 49.07512Q1064.1843 49.07512 1064.7 49.35637Q1065.2312 49.63762 1065.575 50.16887Q1065.9187 50.684494 1066.1062 51.434494Q1066.2937 52.184494 1066.2937 53.465744Q1066.2937 54.98137 1065.9812 55.903244Q1065.6843 56.82512 1065.0593 57.340744Q1064.45 57.840744 1063.4968 57.840744Q1062.2625 57.840744 1061.5437 56.95012Q1060.7 55.88762 1060.7 53.465744ZM1061.7781 53.465744Q1061.7781 55.57512 1062.2781 56.278244Q1062.7781 56.98137 1063.4968 56.98137Q1064.2312 56.98137 1064.7156 56.278244Q1065.2156 55.57512 1065.2156 53.465744Q1065.2156 51.340744 1064.7156 50.653244Q1064.2312 49.95012 1063.4812 49.95012Q1062.7625 49.95012 1062.325 50.559494Q1061.7781 51.340744 1061.7781 53.465744ZM1067.9031 51.16887Q1067.9031 50.246994 1068.3562 49.60637Q1068.825 48.965744 1069.7 48.965744Q1070.5125 48.965744 1071.0437 49.54387Q1071.575 50.121994 1071.575 51.23137Q1071.575 52.32512 1071.0281 52.91887Q1070.4968 53.496994 1069.7156 53.496994Q1068.9343 53.496994 1068.4187 52.91887Q1067.9031 52.340744 1067.9031 51.16887ZM1069.7312 49.684494Q1069.3406 49.684494 1069.075 50.028244Q1068.825 50.371994 1068.825 51.278244Q1068.825 52.10637 1069.075 52.45012Q1069.3406 52.778244 1069.7312 52.778244Q1070.1375 52.778244 1070.3875 52.434494Q1070.6531 52.090744 1070.6531 51.20012Q1070.6531 50.35637 1070.3875 50.028244Q1070.1218 49.684494 1069.7312 49.684494ZM1069.7312 58.01262L1074.4343 48.965744L1075.2937 48.965744L1070.6062 58.01262L1069.7312 58.01262ZM1073.45 55.684494Q1073.45 54.76262 1073.9031 54.121994Q1074.3718 53.48137 1075.2625 53.48137Q1076.075 53.48137 1076.6062 54.059494Q1077.1375 54.621994 1077.1375 55.746994Q1077.1375 56.840744 1076.5906 57.434494Q1076.0593 58.01262 1075.2625 58.01262Q1074.4968 58.01262 1073.9656 57.434494Q1073.45 56.85637 1073.45 55.684494ZM1075.2937 54.20012Q1074.8875 54.20012 1074.6218 54.54387Q1074.3718 54.88762 1074.3718 55.79387Q1074.3718 56.60637 1074.6375 56.95012Q1074.9031 57.29387 1075.2937 57.29387Q1075.6843 57.29387 1075.95 56.95012Q1076.2156 56.60637 1076.2156 55.70012Q1076.2156 54.871994 1075.95 54.54387Q1075.6843 54.20012 1075.2937 54.20012ZM1081.7468 54.934494L1082.8093 54.840744Q1082.8875 55.496994 1083.1687 55.903244Q1083.45 56.309494 1084.0281 56.57512Q1084.6218 56.82512 1085.3562 56.82512Q1085.9968 56.82512 1086.4968 56.63762Q1086.9968 56.434494 1087.2312 56.10637Q1087.4812 55.76262 1087.4812 55.371994Q1087.4812 54.965744 1087.2468 54.66887Q1087.0125 54.35637 1086.4812 54.153244Q1086.1218 54.01262 1084.9343 53.73137Q1083.7625 53.45012 1083.2937 53.20012Q1082.6687 52.871994 1082.3718 52.403244Q1082.075 51.91887 1082.075 51.32512Q1082.075 50.684494 1082.4343 50.121994Q1082.8093 49.54387 1083.5125 49.26262Q1084.2312 48.965744 1085.0906 48.965744Q1086.0437 48.965744 1086.7781 49.278244Q1087.5125 49.57512 1087.9031 50.184494Q1088.2937 50.778244 1088.325 51.528244L1087.2312 51.60637Q1087.1375 50.79387 1086.6218 50.38762Q1086.1218 49.965744 1085.1375 49.965744Q1084.1062 49.965744 1083.6375 50.340744Q1083.1687 50.715744 1083.1687 51.246994Q1083.1687 51.715744 1083.4968 52.01262Q1083.825 52.309494 1085.2 52.621994Q1086.5906 52.934494 1087.1062 53.16887Q1087.8562 53.528244 1088.2156 54.059494Q1088.575 54.57512 1088.575 55.278244Q1088.575 55.965744 1088.1843 56.57512Q1087.7937 57.16887 1087.0593 57.51262Q1086.325 57.840744 1085.4031 57.840744Q1084.2312 57.840744 1083.4343 57.51262Q1082.6531 57.16887 1082.2 56.48137Q1081.7625 55.79387 1081.7468 54.934494ZM1091.1375 57.70012L1089.2312 51.48137L1090.325 51.48137L1091.3093 55.07512L1091.6843 56.403244Q1091.7156 56.309494 1092.0125 55.121994L1092.9968 51.48137L1094.075 51.48137L1095.0125 55.090744L1095.325 56.278244L1095.6843 55.07512L1096.7468 51.48137L1097.7781 51.48137L1095.825 57.70012L1094.7312 57.70012L1093.7468 53.965744L1093.4968 52.91887L1092.2468 57.70012L1091.1375 57.70012ZM1098.9968 50.32512L1098.9968 49.10637L1100.0593 49.10637L1100.0593 50.32512L1098.9968 50.32512ZM1098.9968 57.70012L1098.9968 51.48137L1100.0593 51.48137L1100.0593 57.70012L1098.9968 57.70012ZM1102.2468 57.70012L1102.2468 52.29387L1101.3093 52.29387L1101.3093 51.48137L1102.2468 51.48137L1102.2468 50.809494Q1102.2468 50.184494 1102.3562 49.88762Q1102.5125 49.465744 1102.8875 49.215744Q1103.2781 48.965744 1103.9656 48.965744Q1104.4187 48.965744 1104.95 49.07512L1104.7937 49.98137Q1104.4656 49.934494 1104.1687 49.934494Q1103.6843 49.934494 1103.4812 50.13762Q1103.2937 50.340744 1103.2937 50.903244L1103.2937 51.48137L1104.5125 51.48137L1104.5125 52.29387L1103.2937 52.29387L1103.2937 57.70012L1102.2468 57.70012ZM1107.2937 56.76262L1107.45 57.684494Q1106.9968 57.778244 1106.6531 57.778244Q1106.075 57.778244 1105.7625 57.60637Q1105.45 57.41887 1105.3093 57.121994Q1105.1843 56.82512 1105.1843 55.871994L1105.1843 52.29387L1104.4187 52.29387L1104.4187 51.48137L1105.1843 51.48137L1105.1843 49.934494L1106.2312 49.309494L1106.2312 51.48137L1107.2937 51.48137L1107.2937 52.29387L1106.2312 52.29387L1106.2312 55.934494Q1106.2312 56.38762 1106.2781 56.51262Q1106.3406 56.63762 1106.4656 56.715744Q1106.5906 56.79387 1106.825 56.79387Q1107.0125 56.79387 1107.2937 56.76262ZM1113.7625 49.10637L1114.9031 49.10637L1114.9031 54.07512Q1114.9031 55.371994 1114.6062 56.13762Q1114.3093 56.88762 1113.5437 57.371994Q1112.7781 57.840744 1111.5437 57.840744Q1110.3406 57.840744 1109.5593 57.434494Q1108.7937 57.01262 1108.4656 56.23137Q1108.1375 55.434494 1108.1375 54.07512L1108.1375 49.10637L1109.2781 49.10637L1109.2781 54.059494Q1109.2781 55.184494 1109.4812 55.715744Q1109.7 56.246994 1110.2 56.54387Q1110.7156 56.82512 1111.45 56.82512Q1112.7 56.82512 1113.2312 56.26262Q1113.7625 55.684494 1113.7625 54.059494L1113.7625 49.10637ZM1117.325 57.70012L1117.325 49.10637L1118.45 49.10637L1118.45 57.70012L1117.325 57.70012Z" fill-rule="nonzero"/><path fill="#9e9e9e" d="M1088.6687 74.70012L1087.6218 74.70012L1087.6218 67.98137Q1087.2312 68.340744 1086.6062 68.715744Q1085.9968 69.07512 1085.5125 69.246994L1085.5125 68.23137Q1086.3875 67.809494 1087.0437 67.23137Q1087.7156 66.63762 1087.9968 66.07512L1088.6687 66.07512L1088.6687 74.70012ZM1091.7 72.434494L1092.7625 72.29387Q1092.9343 73.184494 1093.3718 73.590744Q1093.8093 73.98137 1094.4343 73.98137Q1095.1843 73.98137 1095.7 73.465744Q1096.2156 72.95012 1096.2156 72.184494Q1096.2156 71.465744 1095.7312 70.996994Q1095.2625 70.51262 1094.5281 70.51262Q1094.2312 70.51262 1093.7781 70.63762L1093.9031 69.70012Q1094.0125 69.715744 1094.075 69.715744Q1094.7468 69.715744 1095.2781 69.371994Q1095.825 69.01262 1095.825 68.278244Q1095.825 67.70012 1095.4343 67.32512Q1095.0437 66.934494 1094.4187 66.934494Q1093.8093 66.934494 1093.3875 67.32512Q1092.9812 67.715744 1092.8718 68.48137L1091.8093 68.29387Q1091.9968 67.246994 1092.6843 66.66887Q1093.3718 66.07512 1094.3875 66.07512Q1095.0906 66.07512 1095.6843 66.38762Q1096.2781 66.684494 1096.5906 67.20012Q1096.9031 67.715744 1096.9031 68.309494Q1096.9031 68.85637 1096.6062 69.32512Q1096.3093 69.778244 1095.7312 70.04387Q1096.4812 70.215744 1096.9031 70.778244Q1097.325 71.32512 1097.325 72.16887Q1097.325 73.29387 1096.4968 74.07512Q1095.6843 74.85637 1094.4343 74.85637Q1093.3093 74.85637 1092.5593 74.184494Q1091.8093 73.496994 1091.7 72.434494ZM1099.2937 74.70012L1099.2937 73.496994L1100.4968 73.496994L1100.4968 74.70012L1099.2937 74.70012ZM1103.325 70.04387Q1102.6687 69.79387 1102.3406 69.35637Q1102.0281 68.903244 1102.0281 68.29387Q1102.0281 67.35637 1102.7 66.715744Q1103.3875 66.07512 1104.4968 66.07512Q1105.6218 66.07512 1106.3093 66.73137Q1106.9968 67.38762 1106.9968 68.32512Q1106.9968 68.91887 1106.6843 69.35637Q1106.3718 69.79387 1105.7312 70.04387Q1106.5281 70.29387 1106.9343 70.871994Q1107.3406 71.45012 1107.3406 72.246994Q1107.3406 73.340744 1106.5593 74.090744Q1105.7937 74.840744 1104.5125 74.840744Q1103.2468 74.840744 1102.4656 74.090744Q1101.6843 73.340744 1101.6843 72.215744Q1101.6843 71.371994 1102.1062 70.809494Q1102.5437 70.246994 1103.325 70.04387ZM1103.1062 68.246994Q1103.1062 68.85637 1103.4968 69.246994Q1103.9031 69.63762 1104.5281 69.63762Q1105.1375 69.63762 1105.5281 69.26262Q1105.9187 68.871994 1105.9187 68.309494Q1105.9187 67.73137 1105.5125 67.340744Q1105.1062 66.934494 1104.5125 66.934494Q1103.9031 66.934494 1103.4968 67.32512Q1103.1062 67.715744 1103.1062 68.246994ZM1102.7781 72.215744Q1102.7781 72.66887 1102.9812 73.090744Q1103.2 73.51262 1103.6218 73.746994Q1104.0437 73.98137 1104.5281 73.98137Q1105.2781 73.98137 1105.7625 73.496994Q1106.2625 73.01262 1106.2625 72.26262Q1106.2625 71.496994 1105.7625 70.996994Q1105.2625 70.496994 1104.4968 70.496994Q1103.7468 70.496994 1103.2625 70.996994Q1102.7781 71.48137 1102.7781 72.215744ZM1108.9031 68.16887Q1108.9031 67.246994 1109.3562 66.60637Q1109.825 65.965744 1110.7 65.965744Q1111.5125 65.965744 1112.0437 66.54387Q1112.575 67.121994 1112.575 68.23137Q1112.575 69.32512 1112.0281 69.91887Q1111.4968 70.496994 1110.7156 70.496994Q1109.9343 70.496994 1109.4187 69.91887Q1108.9031 69.340744 1108.9031 68.16887ZM1110.7312 66.684494Q1110.3406 66.684494 1110.075 67.028244Q1109.825 67.371994 1109.825 68.278244Q1109.825 69.10637 1110.075 69.45012Q1110.3406 69.778244 1110.7312 69.778244Q1111.1375 69.778244 1111.3875 69.434494Q1111.6531 69.090744 1111.6531 68.20012Q1111.6531 67.35637 1111.3875 67.028244Q1111.1218 66.684494 1110.7312 66.684494ZM1110.7312 75.01262L1115.4343 65.965744L1116.2937 65.965744L1111.6062 75.01262L1110.7312 75.01262ZM1114.45 72.684494Q1114.45 71.76262 1114.9031 71.121994Q1115.3718 70.48137 1116.2625 70.48137Q1117.075 70.48137 1117.6062 71.059494Q1118.1375 71.621994 1118.1375 72.746994Q1118.1375 73.840744 1117.5906 74.434494Q1117.0593 75.01262 1116.2625 75.01262Q1115.4968 75.01262 1114.9656 74.434494Q1114.45 73.85637 1114.45 72.684494ZM1116.2937 71.20012Q1115.8875 71.20012 1115.6218 71.54387Q1115.3718 71.88762 1115.3718 72.79387Q1115.3718 73.60637 1115.6375 73.95012Q1115.9031 74.29387 1116.2937 74.29387Q1116.6843 74.29387 1116.95 73.95012Q1117.2156 73.60637 1117.2156 72.70012Q1117.2156 71.871994 1116.95 71.54387Q1116.6843 71.20012 1116.2937 71.20012Z" fill-rule="nonzero"/><path stroke="#757575" stroke-width="1.0" stroke-linecap="butt" d="M1119.2 62.20012L829.7 62.20012L673.1341 62.20012" fill-rule="nonzero"/><path fill="#9e9e9e" d="M675.1341 62.20012C675.1341 61.09555 674.23865 60.20012 673.1341 60.20012C672.0295 60.20012 671.1341 61.09555 671.1341 62.20012C671.1341 63.304688 672.0295 64.20012 673.1341 64.20012C674.23865 64.20012 675.1341 63.304688 675.1341 62.20012" fill-rule="nonzero"/><path fill="#1a1a1a" d="M881.7469 389.57938L882.8094 389.48563Q882.8875 390.14188 883.16876 390.54813Q883.45 390.95438 884.02814 391.22Q884.6219 391.47 885.35626 391.47Q885.9969 391.47 886.4969 391.2825Q886.9969 391.07938 887.23126 390.75125Q887.48126 390.4075 887.48126 390.01688Q887.48126 389.61063 887.2469 389.31375Q887.0125 389.00125 886.48126 388.79813Q886.1219 388.6575 884.9344 388.37625Q883.7625 388.095 883.29376 387.845Q882.66876 387.51688 882.3719 387.04813Q882.075 386.56375 882.075 385.97Q882.075 385.32938 882.4344 384.76688Q882.8094 384.18875 883.5125 383.9075Q884.23126 383.61063 885.09064 383.61063Q886.04376 383.61063 886.77814 383.92313Q887.5125 384.22 887.90314 384.82938Q888.29376 385.42313 888.325 386.17313L887.23126 386.25125Q887.1375 385.43875 886.6219 385.0325Q886.1219 384.61063 885.1375 384.61063Q884.10626 384.61063 883.6375 384.98563Q883.16876 385.36063 883.16876 385.89188Q883.16876 386.36063 883.4969 386.6575Q883.825 386.95438 885.2 387.26688Q886.59064 387.57938 887.10626 387.81375Q887.85626 388.17313 888.21564 388.70438Q888.575 389.22 888.575 389.92313Q888.575 390.61063 888.1844 391.22Q887.79376 391.81375 887.0594 392.1575Q886.325 392.48563 885.40314 392.48563Q884.23126 392.48563 883.4344 392.1575Q882.65314 391.81375 882.2 391.12625Q881.7625 390.43875 881.7469 389.57938ZM889.60626 389.23563Q889.60626 387.50125 890.5594 386.67313Q891.35626 385.98563 892.5125 385.98563Q893.79376 385.98563 894.60626 386.82938Q895.4344 387.6575 895.4344 389.14188Q895.4344 390.345 895.075 391.0325Q894.71564 391.72 894.0125 392.11063Q893.325 392.48563 892.5125 392.48563Q891.21564 392.48563 890.40314 391.6575Q889.60626 390.81375 889.60626 389.23563ZM890.6844 389.23563Q890.6844 390.42313 891.2 391.01688Q891.73126 391.61063 892.5125 391.61063Q893.3094 391.61063 893.825 391.01688Q894.34064 390.42313 894.34064 389.20438Q894.34064 388.04813 893.8094 387.45438Q893.29376 386.86063 892.5125 386.86063Q891.73126 386.86063 891.2 387.45438Q890.6844 388.0325 890.6844 389.23563ZM896.9969 392.345L896.9969 386.12625L897.9344 386.12625L897.9344 387.00125Q898.23126 386.5325 898.71564 386.26688Q899.2 385.98563 899.825 385.98563Q900.5125 385.98563 900.95 386.26688Q901.40314 386.54813 901.575 387.06375Q902.325 385.98563 903.4969 385.98563Q904.4344 385.98563 904.91876 386.50125Q905.41876 387.00125 905.41876 388.07938L905.41876 392.345L904.3719 392.345L904.3719 388.42313Q904.3719 387.79813 904.2625 387.51688Q904.16876 387.23563 903.90314 387.06375Q903.6375 386.89188 903.2625 386.89188Q902.60626 386.89188 902.16876 387.32938Q901.7469 387.76688 901.7469 388.73563L901.7469 392.345L900.6844 392.345L900.6844 388.29813Q900.6844 387.595 900.41876 387.25125Q900.16876 386.89188 899.59064 386.89188Q899.1375 386.89188 898.7625 387.12625Q898.3875 387.36063 898.21564 387.81375Q898.04376 388.26688 898.04376 389.11063L898.04376 392.345L896.9969 392.345ZM912.2469 390.345L913.34064 390.47Q913.09064 391.42313 912.3875 391.95438Q911.6844 392.48563 910.60626 392.48563Q909.2469 392.48563 908.4344 391.64188Q907.6375 390.79813 907.6375 389.2825Q907.6375 387.72 908.45 386.86063Q909.2625 385.98563 910.54376 385.98563Q911.79376 385.98563 912.575 386.82938Q913.3719 387.67313 913.3719 389.22Q913.3719 389.31375 913.3719 389.50125L908.73126 389.50125Q908.79376 390.5325 909.3094 391.07938Q909.825 391.61063 910.60626 391.61063Q911.1844 391.61063 911.59064 391.31375Q912.0125 391.00125 912.2469 390.345ZM908.79376 388.64188L912.2625 388.64188Q912.2 387.845 911.8719 387.45438Q911.35626 386.845 910.5594 386.845Q909.825 386.845 909.325 387.32938Q908.84064 387.81375 908.79376 388.64188ZM917.7469 389.57938L918.8094 389.48563Q918.8875 390.14188 919.16876 390.54813Q919.45 390.95438 920.02814 391.22Q920.6219 391.47 921.35626 391.47Q921.9969 391.47 922.4969 391.2825Q922.9969 391.07938 923.23126 390.75125Q923.48126 390.4075 923.48126 390.01688Q923.48126 389.61063 923.2469 389.31375Q923.0125 389.00125 922.48126 388.79813Q922.1219 388.6575 920.9344 388.37625Q919.7625 388.095 919.29376 387.845Q918.66876 387.51688 918.3719 387.04813Q918.075 386.56375 918.075 385.97Q918.075 385.32938 918.4344 384.76688Q918.8094 384.18875 919.5125 383.9075Q920.23126 383.61063 921.09064 383.61063Q922.04376 383.61063 922.77814 383.92313Q923.5125 384.22 923.90314 384.82938Q924.29376 385.42313 924.325 386.17313L923.23126 386.25125Q923.1375 385.43875 922.6219 385.0325Q922.1219 384.61063 921.1375 384.61063Q920.10626 384.61063 919.6375 384.98563Q919.16876 385.36063 919.16876 385.89188Q919.16876 386.36063 919.4969 386.6575Q919.825 386.95438 921.2 387.26688Q922.59064 387.57938 923.10626 387.81375Q923.85626 388.17313 924.21564 388.70438Q924.575 389.22 924.575 389.92313Q924.575 390.61063 924.1844 391.22Q923.79376 391.81375 923.0594 392.1575Q922.325 392.48563 921.40314 392.48563Q920.23126 392.48563 919.4344 392.1575Q918.65314 391.81375 918.2 391.12625Q917.7625 390.43875 917.7469 389.57938ZM927.1375 392.345L925.23126 386.12625L926.325 386.12625L927.3094 389.72L927.6844 391.04813Q927.71564 390.95438 928.0125 389.76688L928.9969 386.12625L930.075 386.12625L931.0125 389.73563L931.325 390.92313L931.6844 389.72L932.7469 386.12625L933.77814 386.12625L931.825 392.345L930.73126 392.345L929.7469 388.61063L929.4969 387.56375L928.2469 392.345L927.1375 392.345ZM934.9969 384.97L934.9969 383.75125L936.0594 383.75125L936.0594 384.97L934.9969 384.97ZM934.9969 392.345L934.9969 386.12625L936.0594 386.12625L936.0594 392.345L934.9969 392.345ZM938.2469 392.345L938.2469 386.93875L937.3094 386.93875L937.3094 386.12625L938.2469 386.12625L938.2469 385.45438Q938.2469 384.82938 938.35626 384.5325Q938.5125 384.11063 938.8875 383.86063Q939.27814 383.61063 939.96564 383.61063Q940.41876 383.61063 940.95 383.72L940.79376 384.62625Q940.46564 384.57938 940.16876 384.57938Q939.6844 384.57938 939.48126 384.7825Q939.29376 384.98563 939.29376 385.54813L939.29376 386.12625L940.5125 386.12625L940.5125 386.93875L939.29376 386.93875L939.29376 392.345L938.2469 392.345ZM943.29376 391.4075L943.45 392.32938Q942.9969 392.42313 942.65314 392.42313Q942.075 392.42313 941.7625 392.25125Q941.45 392.06375 941.3094 391.76688Q941.1844 391.47 941.1844 390.51688L941.1844 386.93875L940.41876 386.93875L940.41876 386.12625L941.1844 386.12625L941.1844 384.57938L942.23126 383.95438L942.23126 386.12625L943.29376 386.12625L943.29376 386.93875L942.23126 386.93875L942.23126 390.57938Q942.23126 391.0325 942.27814 391.1575Q942.34064 391.2825 942.46564 391.36063Q942.59064 391.43875 942.825 391.43875Q943.0125 391.43875 943.29376 391.4075ZM949.7625 383.75125L950.90314 383.75125L950.90314 388.72Q950.90314 390.01688 950.60626 390.7825Q950.3094 391.5325 949.54376 392.01688Q948.77814 392.48563 947.54376 392.48563Q946.34064 392.48563 945.5594 392.07938Q944.79376 391.6575 944.46564 390.87625Q944.1375 390.07938 944.1375 388.72L944.1375 383.75125L945.27814 383.75125L945.27814 388.70438Q945.27814 389.82938 945.48126 390.36063Q945.7 390.89188 946.2 391.18875Q946.71564 391.47 947.45 391.47Q948.7 391.47 949.23126 390.9075Q949.7625 390.32938 949.7625 388.70438L949.7625 383.75125ZM953.325 392.345L953.325 383.75125L954.45 383.75125L954.45 392.345L953.325 392.345ZM958.9969 384.97L958.9969 383.75125L960.0594 383.75125L960.0594 384.97L958.9969 384.97ZM958.9969 392.345L958.9969 386.12625L960.0594 386.12625L960.0594 392.345L958.9969 392.345ZM961.9969 392.345L961.9969 386.12625L962.9344 386.12625L962.9344 387.00125Q963.6219 385.98563 964.91876 385.98563Q965.48126 385.98563 965.95 386.18875Q966.4344 386.39188 966.66876 386.72Q966.90314 387.04813 966.9969 387.48563Q967.04376 387.7825 967.04376 388.51688L967.04376 392.345L965.9969 392.345L965.9969 388.56375Q965.9969 387.9075 965.8719 387.595Q965.7469 387.2825 965.4344 387.095Q965.1219 386.89188 964.7 386.89188Q964.02814 386.89188 963.52814 387.32938Q963.04376 387.75125 963.04376 388.93875L963.04376 392.345L961.9969 392.345ZM976.0594 391.57938Q975.46564 392.07938 974.91876 392.2825Q974.3875 392.48563 973.7625 392.48563Q972.73126 392.48563 972.1844 391.98563Q971.6375 391.48563 971.6375 390.70438Q971.6375 390.25125 971.84064 389.87625Q972.04376 389.48563 972.3875 389.26688Q972.73126 389.0325 973.15314 388.92313Q973.45 388.82938 974.09064 388.75125Q975.35626 388.61063 975.96564 388.39188Q975.96564 388.17313 975.96564 388.12625Q975.96564 387.47 975.66876 387.20438Q975.2625 386.86063 974.46564 386.86063Q973.73126 386.86063 973.3719 387.12625Q973.0125 387.37625 972.84064 388.0325L971.8094 387.89188Q971.95 387.23563 972.27814 386.82938Q972.60626 386.42313 973.21564 386.20438Q973.825 385.98563 974.6219 385.98563Q975.41876 385.98563 975.91876 386.17313Q976.41876 386.36063 976.65314 386.64188Q976.8875 386.92313 976.98126 387.36063Q977.02814 387.62625 977.02814 388.32938L977.02814 389.73563Q977.02814 391.20438 977.09064 391.595Q977.16876 391.98563 977.3719 392.345L976.2625 392.345Q976.10626 392.01688 976.0594 391.57938ZM975.96564 389.22Q975.3875 389.45438 974.2469 389.62625Q973.59064 389.72 973.325 389.845Q973.0594 389.95438 972.90314 390.17313Q972.7625 390.39188 972.7625 390.67313Q972.7625 391.095 973.075 391.37625Q973.40314 391.6575 974.0125 391.6575Q974.6219 391.6575 975.09064 391.39188Q975.575 391.12625 975.79376 390.6575Q975.96564 390.29813 975.96564 389.61063L975.96564 389.22ZM981.9969 394.73563L981.9969 386.12625L982.95 386.12625L982.95 386.92313Q983.29376 386.45438 983.71564 386.22Q984.15314 385.98563 984.7625 385.98563Q985.5594 385.98563 986.16876 386.39188Q986.77814 386.79813 987.075 387.54813Q987.3875 388.29813 987.3875 389.18875Q987.3875 390.14188 987.04376 390.9075Q986.71564 391.67313 986.0594 392.07938Q985.40314 392.48563 984.6844 392.48563Q984.15314 392.48563 983.73126 392.26688Q983.3094 392.0325 983.04376 391.70438L983.04376 394.73563L981.9969 394.73563ZM982.95 389.26688Q982.95 390.47 983.4344 391.04813Q983.91876 391.61063 984.60626 391.61063Q985.3094 391.61063 985.8094 391.01688Q986.3094 390.42313 986.3094 389.17313Q986.3094 387.98563 985.825 387.4075Q985.34064 386.81375 984.65314 386.81375Q983.98126 386.81375 983.46564 387.43875Q982.95 388.06375 982.95 389.26688ZM988.98126 392.345L988.98126 386.12625L989.9344 386.12625L989.9344 387.06375Q990.29376 386.4075 990.59064 386.20438Q990.90314 385.98563 991.27814 385.98563Q991.8094 385.98563 992.35626 386.31375L991.9969 387.29813Q991.60626 387.06375 991.23126 387.06375Q990.8719 387.06375 990.59064 387.2825Q990.325 387.48563 990.21564 387.86063Q990.02814 388.42313 990.02814 389.07938L990.02814 392.345L988.98126 392.345ZM992.9969 384.97L992.9969 383.75125L994.0594 383.75125L994.0594 384.97L992.9969 384.97ZM992.9969 392.345L992.9969 386.12625L994.0594 386.12625L994.0594 392.345L992.9969 392.345ZM995.9969 392.345L995.9969 386.12625L996.9344 386.12625L996.9344 387.00125Q997.23126 386.5325 997.71564 386.26688Q998.2 385.98563 998.825 385.98563Q999.5125 385.98563 999.95 386.26688Q1000.40314 386.54813 1000.575 387.06375Q1001.325 385.98563 1002.4969 385.98563Q1003.4344 385.98563 1003.91876 386.50125Q1004.41876 387.00125 1004.41876 388.07938L1004.41876 392.345L1003.3719 392.345L1003.3719 388.42313Q1003.3719 387.79813 1003.2625 387.51688Q1003.16876 387.23563 1002.90314 387.06375Q1002.6375 386.89188 1002.2625 386.89188Q1001.60626 386.89188 1001.16876 387.32938Q1000.7469 387.76688 1000.7469 388.73563L1000.7469 392.345L999.6844 392.345L999.6844 388.29813Q999.6844 387.595 999.41876 387.25125Q999.16876 386.89188 998.59064 386.89188Q998.1375 386.89188 997.7625 387.12625Q997.3875 387.36063 997.21564 387.81375Q997.04376 388.26688 997.04376 389.11063L997.04376 392.345L995.9969 392.345ZM1011.0594 391.57938Q1010.46564 392.07938 1009.91876 392.2825Q1009.3875 392.48563 1008.7625 392.48563Q1007.73126 392.48563 1007.1844 391.98563Q1006.6375 391.48563 1006.6375 390.70438Q1006.6375 390.25125 1006.84064 389.87625Q1007.04376 389.48563 1007.3875 389.26688Q1007.73126 389.0325 1008.15314 388.92313Q1008.45 388.82938 1009.09064 388.75125Q1010.35626 388.61063 1010.96564 388.39188Q1010.96564 388.17313 1010.96564 388.12625Q1010.96564 387.47 1010.66876 387.20438Q1010.2625 386.86063 1009.46564 386.86063Q1008.73126 386.86063 1008.3719 387.12625Q1008.0125 387.37625 1007.84064 388.0325L1006.8094 387.89188Q1006.95 387.23563 1007.27814 386.82938Q1007.60626 386.42313 1008.21564 386.20438Q1008.825 385.98563 1009.6219 385.98563Q1010.41876 385.98563 1010.91876 386.17313Q1011.41876 386.36063 1011.65314 386.64188Q1011.8875 386.92313 1011.98126 387.36063Q1012.02814 387.62625 1012.02814 388.32938L1012.02814 389.73563Q1012.02814 391.20438 1012.09064 391.595Q1012.16876 391.98563 1012.3719 392.345L1011.2625 392.345Q1011.10626 392.01688 1011.0594 391.57938ZM1010.96564 389.22Q1010.3875 389.45438 1009.2469 389.62625Q1008.59064 389.72 1008.325 389.845Q1008.0594 389.95438 1007.90314 390.17313Q1007.7625 390.39188 1007.7625 390.67313Q1007.7625 391.095 1008.075 391.37625Q1008.40314 391.6575 1009.0125 391.6575Q1009.6219 391.6575 1010.09064 391.39188Q1010.575 391.12625 1010.79376 390.6575Q1010.96564 390.29813 1010.96564 389.61063L1010.96564 389.22ZM1013.98126 392.345L1013.98126 386.12625L1014.9344 386.12625L1014.9344 387.06375Q1015.29376 386.4075 1015.59064 386.20438Q1015.90314 385.98563 1016.27814 385.98563Q1016.8094 385.98563 1017.35626 386.31375L1016.9969 387.29813Q1016.60626 387.06375 1016.23126 387.06375Q1015.8719 387.06375 1015.59064 387.2825Q1015.325 387.48563 1015.21564 387.86063Q1015.02814 388.42313 1015.02814 389.07938L1015.02814 392.345L1013.98126 392.345ZM1017.9969 384.97L1017.9969 383.75125L1019.0594 383.75125L1019.0594 384.97L1017.9969 384.97ZM1017.9969 392.345L1017.9969 386.12625L1019.0594 386.12625L1019.0594 392.345L1017.9969 392.345ZM1020.96564 392.345L1020.96564 383.75125L1022.02814 383.75125L1022.02814 392.345L1020.96564 392.345ZM1023.95 394.73563L1023.825 393.75125Q1024.1687 393.845 1024.4343 393.845Q1024.7781 393.845 1024.9812 393.72Q1025.2 393.61063 1025.3406 393.4075Q1025.4343 393.23563 1025.6687 392.61063Q1025.6843 392.5325 1025.7625 392.36063L1023.3875 386.12625L1024.5281 386.12625L1025.825 389.72Q1026.075 390.4075 1026.2781 391.17313Q1026.4656 390.43875 1026.7156 389.75125L1028.0437 386.12625L1029.0906 386.12625L1026.7312 392.45438Q1026.3406 393.47 1026.1375 393.86063Q1025.8562 394.39188 1025.4812 394.62625Q1025.1218 394.87625 1024.6218 394.87625Q1024.325 394.87625 1023.95 394.73563ZM1037.7625 383.75125L1038.9031 383.75125L1038.9031 388.72Q1038.9031 390.01688 1038.6062 390.7825Q1038.3093 391.5325 1037.5437 392.01688Q1036.7781 392.48563 1035.5437 392.48563Q1034.3406 392.48563 1033.5593 392.07938Q1032.7937 391.6575 1032.4656 390.87625Q1032.1375 390.07938 1032.1375 388.72L1032.1375 383.75125L1033.2781 383.75125L1033.2781 388.70438Q1033.2781 389.82938 1033.4812 390.36063Q1033.7 390.89188 1034.2 391.18875Q1034.7156 391.47 1035.45 391.47Q1036.7 391.47 1037.2312 390.9075Q1037.7625 390.32938 1037.7625 388.70438L1037.7625 383.75125ZM1041.325 392.345L1041.325 383.75125L1042.45 383.75125L1042.45 392.345L1041.325 392.345ZM1044.075 392.345L1044.075 383.75125L1045.2156 383.75125L1045.2156 388.01688L1049.4812 383.75125L1051.0281 383.75125L1047.4187 387.23563L1051.1843 392.345L1049.6843 392.345L1046.6218 388.00125L1045.2156 389.36063L1045.2156 392.345L1044.075 392.345ZM1051.9968 384.97L1051.9968 383.75125L1053.0593 383.75125L1053.0593 384.97L1051.9968 384.97ZM1051.9968 392.345L1051.9968 386.12625L1053.0593 386.12625L1053.0593 392.345L1051.9968 392.345ZM1057.2937 391.4075L1057.45 392.32938Q1056.9968 392.42313 1056.6531 392.42313Q1056.075 392.42313 1055.7625 392.25125Q1055.45 392.06375 1055.3093 391.76688Q1055.1843 391.47 1055.1843 390.51688L1055.1843 386.93875L1054.4187 386.93875L1054.4187 386.12625L1055.1843 386.12625L1055.1843 384.57938L1056.2312 383.95438L1056.2312 386.12625L1057.2937 386.12625L1057.2937 386.93875L1056.2312 386.93875L1056.2312 390.57938Q1056.2312 391.0325 1056.2781 391.1575Q1056.3406 391.2825 1056.4656 391.36063Q1056.5906 391.43875 1056.825 391.43875Q1057.0125 391.43875 1057.2937 391.4075ZM1061.9656 392.345L1060.9812 392.345L1060.9812 383.75125L1062.0437 383.75125L1062.0437 386.81375Q1062.7156 385.98563 1063.7468 385.98563Q1064.325 385.98563 1064.825 386.22Q1065.3406 386.43875 1065.6687 386.86063Q1066.0125 387.2825 1066.2 387.87625Q1066.3875 388.47 1066.3875 389.14188Q1066.3875 390.73563 1065.5906 391.61063Q1064.7937 392.48563 1063.7 392.48563Q1062.5906 392.48563 1061.9656 391.56375L1061.9656 392.345ZM1061.95 389.18875Q1061.95 390.29813 1062.2625 390.79813Q1062.7625 391.61063 1063.6062 391.61063Q1064.2937 391.61063 1064.7937 391.01688Q1065.3093 390.42313 1065.3093 389.22Q1065.3093 388.00125 1064.825 387.42313Q1064.3406 386.845 1063.6531 386.845Q1062.9656 386.845 1062.45 387.45438Q1061.95 388.04813 1061.95 389.18875ZM1072.0593 391.57938Q1071.4656 392.07938 1070.9187 392.2825Q1070.3875 392.48563 1069.7625 392.48563Q1068.7312 392.48563 1068.1843 391.98563Q1067.6375 391.48563 1067.6375 390.70438Q1067.6375 390.25125 1067.8406 389.87625Q1068.0437 389.48563 1068.3875 389.26688Q1068.7312 389.0325 1069.1531 388.92313Q1069.45 388.82938 1070.0906 388.75125Q1071.3562 388.61063 1071.9656 388.39188Q1071.9656 388.17313 1071.9656 388.12625Q1071.9656 387.47 1071.6687 387.20438Q1071.2625 386.86063 1070.4656 386.86063Q1069.7312 386.86063 1069.3718 387.12625Q1069.0125 387.37625 1068.8406 388.0325L1067.8093 387.89188Q1067.95 387.23563 1068.2781 386.82938Q1068.6062 386.42313 1069.2156 386.20438Q1069.825 385.98563 1070.6218 385.98563Q1071.4187 385.98563 1071.9187 386.17313Q1072.4187 386.36063 1072.6531 386.64188Q1072.8875 386.92313 1072.9812 387.36063Q1073.0281 387.62625 1073.0281 388.32938L1073.0281 389.73563Q1073.0281 391.20438 1073.0906 391.595Q1073.1687 391.98563 1073.3718 392.345L1072.2625 392.345Q1072.1062 392.01688 1072.0593 391.57938ZM1071.9656 389.22Q1071.3875 389.45438 1070.2468 389.62625Q1069.5906 389.72 1069.325 389.845Q1069.0593 389.95438 1068.9031 390.17313Q1068.7625 390.39188 1068.7625 390.67313Q1068.7625 391.095 1069.075 391.37625Q1069.4031 391.6575 1070.0125 391.6575Q1070.6218 391.6575 1071.0906 391.39188Q1071.575 391.12625 1071.7937 390.6575Q1071.9656 390.29813 1071.9656 389.61063L1071.9656 389.22ZM1074.575 390.48563L1075.6062 390.32938Q1075.7 390.95438 1076.0906 391.2825Q1076.4968 391.61063 1077.2312 391.61063Q1077.95 391.61063 1078.2937 391.32938Q1078.6531 391.0325 1078.6531 390.62625Q1078.6531 390.26688 1078.3406 390.06375Q1078.1218 389.92313 1077.2625 389.70438Q1076.1062 389.4075 1075.6531 389.20438Q1075.2156 388.98563 1074.9812 388.61063Q1074.7468 388.23563 1074.7468 387.76688Q1074.7468 387.36063 1074.9343 387.00125Q1075.1218 386.64188 1075.45 386.4075Q1075.7 386.23563 1076.1218 386.11063Q1076.5437 385.98563 1077.0437 385.98563Q1077.7625 385.98563 1078.3093 386.20438Q1078.8718 386.4075 1079.1375 386.76688Q1079.4031 387.12625 1079.4968 387.72L1078.4656 387.86063Q1078.4031 387.39188 1078.0593 387.12625Q1077.7312 386.845 1077.1062 386.845Q1076.3875 386.845 1076.075 387.095Q1075.7625 387.32938 1075.7625 387.6575Q1075.7625 387.86063 1075.8875 388.01688Q1076.0281 388.18875 1076.2937 388.29813Q1076.45 388.36063 1077.2312 388.56375Q1078.3562 388.87625 1078.7937 389.06375Q1079.2312 389.25125 1079.4812 389.61063Q1079.7312 389.97 1079.7312 390.51688Q1079.7312 391.04813 1079.4187 391.51688Q1079.1218 391.97 1078.5437 392.23563Q1077.9656 392.48563 1077.2312 392.48563Q1076.0125 392.48563 1075.3718 391.98563Q1074.7468 391.47 1074.575 390.48563ZM1086.2468 390.345L1087.3406 390.47Q1087.0906 391.42313 1086.3875 391.95438Q1085.6843 392.48563 1084.6062 392.48563Q1083.2468 392.48563 1082.4343 391.64188Q1081.6375 390.79813 1081.6375 389.2825Q1081.6375 387.72 1082.45 386.86063Q1083.2625 385.98563 1084.5437 385.98563Q1085.7937 385.98563 1086.575 386.82938Q1087.3718 387.67313 1087.3718 389.22Q1087.3718 389.31375 1087.3718 389.50125L1082.7312 389.50125Q1082.7937 390.5325 1083.3093 391.07938Q1083.825 391.61063 1084.6062 391.61063Q1085.1843 391.61063 1085.5906 391.31375Q1086.0125 391.00125 1086.2468 390.345ZM1082.7937 388.64188L1086.2625 388.64188Q1086.2 387.845 1085.8718 387.45438Q1085.3562 386.845 1084.5593 386.845Q1083.825 386.845 1083.325 387.32938Q1082.8406 387.81375 1082.7937 388.64188ZM1093.0281 392.345L1093.0281 391.56375Q1092.4343 392.48563 1091.2937 392.48563Q1090.5437 392.48563 1089.9187 392.07938Q1089.2937 391.6575 1088.95 390.92313Q1088.6062 390.18875 1088.6062 389.23563Q1088.6062 388.31375 1088.9187 387.54813Q1089.2312 386.7825 1089.8562 386.39188Q1090.4812 385.98563 1091.2468 385.98563Q1091.8093 385.98563 1092.2468 386.22Q1092.6843 386.45438 1092.9656 386.82938L1092.9656 383.75125L1094.0125 383.75125L1094.0125 392.345L1093.0281 392.345ZM1089.7 389.23563Q1089.7 390.43875 1090.2 391.0325Q1090.7 391.61063 1091.3875 391.61063Q1092.075 391.61063 1092.5593 391.04813Q1093.0437 390.48563 1093.0437 389.32938Q1093.0437 388.04813 1092.5437 387.45438Q1092.0593 386.86063 1091.3406 386.86063Q1090.6375 386.86063 1090.1687 387.43875Q1089.7 388.00125 1089.7 389.23563ZM1103.0593 391.57938Q1102.4656 392.07938 1101.9187 392.2825Q1101.3875 392.48563 1100.7625 392.48563Q1099.7312 392.48563 1099.1843 391.98563Q1098.6375 391.48563 1098.6375 390.70438Q1098.6375 390.25125 1098.8406 389.87625Q1099.0437 389.48563 1099.3875 389.26688Q1099.7312 389.0325 1100.1531 388.92313Q1100.45 388.82938 1101.0906 388.75125Q1102.3562 388.61063 1102.9656 388.39188Q1102.9656 388.17313 1102.9656 388.12625Q1102.9656 387.47 1102.6687 387.20438Q1102.2625 386.86063 1101.4656 386.86063Q1100.7312 386.86063 1100.3718 387.12625Q1100.0125 387.37625 1099.8406 388.0325L1098.8093 387.89188Q1098.95 387.23563 1099.2781 386.82938Q1099.6062 386.42313 1100.2156 386.20438Q1100.825 385.98563 1101.6218 385.98563Q1102.4187 385.98563 1102.9187 386.17313Q1103.4187 386.36063 1103.6531 386.64188Q1103.8875 386.92313 1103.9812 387.36063Q1104.0281 387.62625 1104.0281 388.32938L1104.0281 389.73563Q1104.0281 391.20438 1104.0906 391.595Q1104.1687 391.98563 1104.3718 392.345L1103.2625 392.345Q1103.1062 392.01688 1103.0593 391.57938ZM1102.9656 389.22Q1102.3875 389.45438 1101.2468 389.62625Q1100.5906 389.72 1100.325 389.845Q1100.0593 389.95438 1099.9031 390.17313Q1099.7625 390.39188 1099.7625 390.67313Q1099.7625 391.095 1100.075 391.37625Q1100.4031 391.6575 1101.0125 391.6575Q1101.6218 391.6575 1102.0906 391.39188Q1102.575 391.12625 1102.7937 390.6575Q1102.9656 390.29813 1102.9656 389.61063L1102.9656 389.22ZM1105.9968 394.73563L1105.9968 386.12625L1106.95 386.12625L1106.95 386.92313Q1107.2937 386.45438 1107.7156 386.22Q1108.1531 385.98563 1108.7625 385.98563Q1109.5593 385.98563 1110.1687 386.39188Q1110.7781 386.79813 1111.075 387.54813Q1111.3875 388.29813 1111.3875 389.18875Q1111.3875 390.14188 1111.0437 390.9075Q1110.7156 391.67313 1110.0593 392.07938Q1109.4031 392.48563 1108.6843 392.48563Q1108.1531 392.48563 1107.7312 392.26688Q1107.3093 392.0325 1107.0437 391.70438L1107.0437 394.73563L1105.9968 394.73563ZM1106.95 389.26688Q1106.95 390.47 1107.4343 391.04813Q1107.9187 391.61063 1108.6062 391.61063Q1109.3093 391.61063 1109.8093 391.01688Q1110.3093 390.42313 1110.3093 389.17313Q1110.3093 387.98563 1109.825 387.4075Q1109.3406 386.81375 1108.6531 386.81375Q1107.9812 386.81375 1107.4656 387.43875Q1106.95 388.06375 1106.95 389.26688ZM1112.9968 394.73563L1112.9968 386.12625L1113.95 386.12625L1113.95 386.92313Q1114.2937 386.45438 1114.7156 386.22Q1115.1531 385.98563 1115.7625 385.98563Q1116.5593 385.98563 1117.1687 386.39188Q1117.7781 386.79813 1118.075 387.54813Q1118.3875 388.29813 1118.3875 389.18875Q1118.3875 390.14188 1118.0437 390.9075Q1117.7156 391.67313 1117.0593 392.07938Q1116.4031 392.48563 1115.6843 392.48563Q1115.1531 392.48563 1114.7312 392.26688Q1114.3093 392.0325 1114.0437 391.70438L1114.0437 394.73563L1112.9968 394.73563ZM1113.95 389.26688Q1113.95 390.47 1114.4343 391.04813Q1114.9187 391.61063 1115.6062 391.61063Q1116.3093 391.61063 1116.8093 391.01688Q1117.3093 390.42313 1117.3093 389.17313Q1117.3093 387.98563 1116.825 387.4075Q1116.3406 386.81375 1115.6531 386.81375Q1114.9812 386.81375 1114.4656 387.43875Q1113.95 388.06375 1113.95 389.26688Z" fill-rule="nonzero"/><path fill="#9e9e9e" d="M1084.7 407.07938L1085.7625 406.93875Q1085.9343 407.82938 1086.3718 408.23563Q1086.8093 408.62625 1087.4343 408.62625Q1088.1843 408.62625 1088.7 408.11063Q1089.2156 407.595 1089.2156 406.82938Q1089.2156 406.11063 1088.7312 405.64188Q1088.2625 405.1575 1087.5281 405.1575Q1087.2312 405.1575 1086.7781 405.2825L1086.9031 404.345Q1087.0125 404.36063 1087.075 404.36063Q1087.7468 404.36063 1088.2781 404.01688Q1088.825 403.6575 1088.825 402.92313Q1088.825 402.345 1088.4343 401.97Q1088.0437 401.57938 1087.4187 401.57938Q1086.8093 401.57938 1086.3875 401.97Q1085.9812 402.36063 1085.8718 403.12625L1084.8093 402.93875Q1084.9968 401.89188 1085.6843 401.31375Q1086.3718 400.72 1087.3875 400.72Q1088.0906 400.72 1088.6843 401.0325Q1089.2781 401.32938 1089.5906 401.845Q1089.9031 402.36063 1089.9031 402.95438Q1089.9031 403.50125 1089.6062 403.97Q1089.3093 404.42313 1088.7312 404.68875Q1089.4812 404.86063 1089.9031 405.42313Q1090.325 405.97 1090.325 406.81375Q1090.325 407.93875 1089.4968 408.72Q1088.6843 409.50125 1087.4343 409.50125Q1086.3093 409.50125 1085.5593 408.82938Q1084.8093 408.14188 1084.7 407.07938ZM1091.8562 407.36063L1092.8718 407.26688Q1092.9968 407.98563 1093.3562 408.31375Q1093.7312 408.62625 1094.2937 408.62625Q1094.7781 408.62625 1095.1375 408.4075Q1095.5125 408.17313 1095.7468 407.81375Q1095.9812 407.43875 1096.1375 406.81375Q1096.2937 406.17313 1096.2937 405.51688Q1096.2937 405.43875 1096.2937 405.29813Q1095.9812 405.79813 1095.4343 406.12625Q1094.8875 406.43875 1094.2468 406.43875Q1093.1687 406.43875 1092.4343 405.67313Q1091.7 404.89188 1091.7 403.62625Q1091.7 402.31375 1092.4656 401.51688Q1093.2468 400.72 1094.4031 400.72Q1095.2312 400.72 1095.9187 401.17313Q1096.6218 401.62625 1096.9812 402.47Q1097.3406 403.29813 1097.3406 404.87625Q1097.3406 406.51688 1096.9812 407.50125Q1096.6375 408.47 1095.9187 408.98563Q1095.2156 409.48563 1094.2781 409.48563Q1093.2625 409.48563 1092.6218 408.93875Q1091.9812 408.37625 1091.8562 407.36063ZM1096.1687 403.56375Q1096.1687 402.6575 1095.6843 402.12625Q1095.2156 401.595 1094.5281 401.595Q1093.825 401.595 1093.2937 402.17313Q1092.7781 402.73563 1092.7781 403.6575Q1092.7781 404.47 1093.2781 404.98563Q1093.7781 405.50125 1094.4968 405.50125Q1095.2312 405.50125 1095.7 404.98563Q1096.1687 404.47 1096.1687 403.56375ZM1099.2937 409.345L1099.2937 408.14188L1100.4968 408.14188L1100.4968 409.345L1099.2937 409.345ZM1105.6687 409.345L1104.6218 409.345L1104.6218 402.62625Q1104.2312 402.98563 1103.6062 403.36063Q1102.9968 403.72 1102.5125 403.89188L1102.5125 402.87625Q1103.3875 402.45438 1104.0437 401.87625Q1104.7156 401.2825 1104.9968 400.72L1105.6687 400.72L1105.6687 409.345ZM1108.9031 402.81375Q1108.9031 401.89188 1109.3562 401.25125Q1109.825 400.61063 1110.7 400.61063Q1111.5125 400.61063 1112.0437 401.18875Q1112.575 401.76688 1112.575 402.87625Q1112.575 403.97 1112.0281 404.56375Q1111.4968 405.14188 1110.7156 405.14188Q1109.9343 405.14188 1109.4187 404.56375Q1108.9031 403.98563 1108.9031 402.81375ZM1110.7312 401.32938Q1110.3406 401.32938 1110.075 401.67313Q1109.825 402.01688 1109.825 402.92313Q1109.825 403.75125 1110.075 404.095Q1110.3406 404.42313 1110.7312 404.42313Q1111.1375 404.42313 1111.3875 404.07938Q1111.6531 403.73563 1111.6531 402.845Q1111.6531 402.00125 1111.3875 401.67313Q1111.1218 401.32938 1110.7312 401.32938ZM1110.7312 409.6575L1115.4343 400.61063L1116.2937 400.61063L1111.6062 409.6575L1110.7312 409.6575ZM1114.45 407.32938Q1114.45 406.4075 1114.9031 405.76688Q1115.3718 405.12625 1116.2625 405.12625Q1117.075 405.12625 1117.6062 405.70438Q1118.1375 406.26688 1118.1375 407.39188Q1118.1375 408.48563 1117.5906 409.07938Q1117.0593 409.6575 1116.2625 409.6575Q1115.4968 409.6575 1114.9656 409.07938Q1114.45 408.50125 1114.45 407.32938ZM1116.2937 405.845Q1115.8875 405.845 1115.6218 406.18875Q1115.3718 406.5325 1115.3718 407.43875Q1115.3718 408.25125 1115.6375 408.595Q1115.9031 408.93875 1116.2937 408.93875Q1116.6843 408.93875 1116.95 408.595Q1117.2156 408.25125 1117.2156 407.345Q1117.2156 406.51688 1116.95 406.18875Q1116.6843 405.845 1116.2937 405.845Z" fill-rule="nonzero"/><path stroke="#757575" stroke-width="1.0" stroke-linecap="butt" d="M1119.2 396.845L829.7 396.845L779.3456 396.845" fill-rule="nonzero"/><path fill="#9e9e9e" d="M781.3456 396.845C781.3456 395.74042 780.45013 394.845 779.3456 394.845C778.241 394.845 777.3456 395.74042 777.3456 396.845C777.3456 397.94955 778.241 398.845 779.3456 398.845C780.45013 398.845 781.3456 397.94955 781.3456 396.845" fill-rule="nonzero"/></svg>