<svg version="1.1" viewBox="0.0 0.0 600.0 371.0" fill="none" stroke="none" stroke-linecap="square" stroke-miterlimit="10" width="600" height="371" xmlns:xlink="http://www.w3.org/1999/xlink" xmlns="http://www.w3.org/2000/svg"><path fill="#ffffff" d="M0 0L600.0 0L600.0 371.0L0 371.0L0 0Z" fill-rule="nonzero"/><path fill="#ea4335" d="M246.94472 27.20458C264.0462 21.47274 281.9635 18.55 300.0 18.55L300.0 185.5Z" fill-rule="nonzero"/><path fill="#4285f4" d="M300.0 18.55C386.97574 18.55 459.38034 85.32519 466.40463 172.01683C473.42896 258.70847 412.71942 336.2694 326.87827 350.27216C241.03711 364.2749 158.8265 310.02762 137.93683 225.59775C117.04714 141.1679 164.47774 54.844727 246.94472 27.20458L300.0 185.5Z" fill-rule="nonzero"/><path fill="#1a1a1a" d="M19.471874 29.55L19.471874 20.95625L20.628124 20.95625L25.14375 27.70625L25.14375 20.95625L26.2375 20.95625L26.2375 29.55L25.065624 29.55L20.55 22.8L20.55 29.55L19.471874 29.55ZM27.95625 26.440624Q27.95625 24.70625 28.909374 23.878124Q29.70625 23.190624 30.8625 23.190624Q32.14375 23.190624 32.95625 24.034374Q33.784374 24.8625 33.784374 26.346874Q33.784374 27.55 33.425 28.2375Q33.065624 28.925 32.3625 29.315624Q31.675 29.690624 30.8625 29.690624Q29.565624 29.690624 28.753124 28.8625Q27.95625 28.01875 27.95625 26.440624ZM29.034374 26.440624Q29.034374 27.628124 29.55 28.221874Q30.08125 28.815624 30.8625 28.815624Q31.659374 28.815624 32.175 28.221874Q32.690624 27.628124 32.690624 26.409374Q32.690624 25.253124 32.159374 24.659374Q31.64375 24.065624 30.8625 24.065624Q30.08125 24.065624 29.55 24.659374Q29.034374 25.2375 29.034374 26.440624Z" fill-rule="nonzero"/><path fill="#9e9e9e" d="M19.05 44.3L20.159374 44.20625Q20.284374 45.01875 20.721874 45.425Q21.175 45.83125 21.815624 45.83125Q22.565624 45.83125 23.096874 45.253124Q23.628124 44.675 23.628124 43.7375Q23.628124 42.83125 23.1125 42.315624Q22.6125 41.784374 21.784374 41.784374Q21.284374 41.784374 20.8625 42.01875Q20.45625 42.253124 20.221874 42.6125L19.2375 42.4875L20.065624 38.08125L24.346874 38.08125L24.346874 39.08125L20.909374 39.08125L20.45625 41.39375Q21.221874 40.846874 22.065624 40.846874Q23.190624 40.846874 23.95625 41.628124Q24.7375 42.409374 24.7375 43.64375Q24.7375 44.8 24.065624 45.659374Q23.2375 46.690624 21.815624 46.690624Q20.64375 46.690624 19.89375 46.034374Q19.159374 45.378124 19.05 44.3ZM26.64375 46.55L26.64375 45.346874L27.846874 45.346874L27.846874 46.55L26.64375 46.55ZM33.01875 46.55L31.971874 46.55L31.971874 39.83125Q31.58125 40.190624 30.95625 40.565624Q30.346874 40.925 29.8625 41.096874L29.8625 40.08125Q30.7375 39.659374 31.39375 39.08125Q32.065624 38.4875 32.346874 37.925L33.01875 37.925L33.01875 46.55ZM36.253124 40.01875Q36.253124 39.096874 36.70625 38.45625Q37.175 37.815624 38.05 37.815624Q38.8625 37.815624 39.39375 38.39375Q39.925 38.971874 39.925 40.08125Q39.925 41.175 39.378124 41.76875Q38.846874 42.346874 38.065624 42.346874Q37.284374 42.346874 36.76875 41.76875Q36.253124 41.190624 36.253124 40.01875ZM38.08125 38.534374Q37.690624 38.534374 37.425 38.878124Q37.175 39.221874 37.175 40.128124Q37.175 40.95625 37.425 41.3Q37.690624 41.628124 38.08125 41.628124Q38.4875 41.628124 38.7375 41.284374Q39.003124 40.940624 39.003124 40.05Q39.003124 39.20625 38.7375 38.878124Q38.471874 38.534374 38.08125 38.534374ZM38.08125 46.8625L42.784374 37.815624L43.64375 37.815624L38.95625 46.8625L38.08125 46.8625ZM41.8 44.534374Q41.8 43.6125 42.253124 42.971874Q42.721874 42.33125 43.6125 42.33125Q44.425 42.33125 44.95625 42.909374Q45.4875 43.471874 45.4875 44.596874Q45.4875 45.690624 44.940624 46.284374Q44.409374 46.8625 43.6125 46.8625Q42.846874 46.8625 42.315624 46.284374Q41.8 45.70625 41.8 44.534374ZM43.64375 43.05Q43.2375 43.05 42.971874 43.39375Q42.721874 43.7375 42.721874 44.64375Q42.721874 45.45625 42.9875 45.8Q43.253124 46.14375 43.64375 46.14375Q44.034374 46.14375 44.3 45.8Q44.565624 45.45625 44.565624 44.55Q44.565624 43.721874 44.3 43.39375Q44.034374 43.05 43.64375 43.05Z" fill-rule="nonzero"/><path stroke="#757575" stroke-width="1.0" stroke-linecap="butt" d="M18.55 34.05L127.05 34.05L274.46564 28.966457" fill-rule="nonzero"/><path fill="#9e9e9e" d="M276.46564 28.966457C276.46564 27.861887 275.57022 26.966457 274.46564 26.966457C273.36108 26.966457 272.46564 27.861887 272.46564 28.966457C272.46564 30.071028 273.36108 30.966457 274.46564 30.966457C275.57022 30.966457 276.46564 30.071028 276.46564 28.966457" fill-rule="nonzero"/><path fill="#1a1a1a" d="M563.79376 332.45L563.79376 328.8094L560.48126 323.85626L561.8719 323.85626L563.5594 326.45Q564.02814 327.16876 564.4344 327.90314Q564.825 327.23126 565.3719 326.3875L567.04376 323.85626L568.35626 323.85626L564.9344 328.8094L564.9344 332.45L563.79376 332.45ZM572.4969 330.45L573.59064 330.575Q573.34064 331.52814 572.6375 332.0594Q571.9344 332.59064 570.85626 332.59064Q569.4969 332.59064 568.6844 331.7469Q567.8875 330.90314 567.8875 329.3875Q567.8875 327.825 568.7 326.96564Q569.5125 326.09064 570.79376 326.09064Q572.04376 326.09064 572.825 326.9344Q573.6219 327.77814 573.6219 329.325Q573.6219 329.41876 573.6219 329.60626L568.98126 329.60626Q569.04376 330.6375 569.5594 331.1844Q570.075 331.71564 570.85626 331.71564Q571.4344 331.71564 571.84064 331.41876Q572.2625 331.10626 572.4969 330.45ZM569.04376 328.7469L572.5125 328.7469Q572.45 327.95 572.1219 327.5594Q571.60626 326.95 570.8094 326.95Q570.075 326.95 569.575 327.4344Q569.09064 327.91876 569.04376 328.7469ZM574.825 330.59064L575.85626 330.4344Q575.95 331.0594 576.34064 331.3875Q576.7469 331.71564 577.48126 331.71564Q578.2 331.71564 578.54376 331.4344Q578.90314 331.1375 578.90314 330.73126Q578.90314 330.3719 578.59064 330.16876Q578.3719 330.02814 577.5125 329.8094Q576.35626 329.5125 575.90314 329.3094Q575.46564 329.09064 575.23126 328.71564Q574.9969 328.34064 574.9969 327.8719Q574.9969 327.46564 575.1844 327.10626Q575.3719 326.7469 575.7 326.5125Q575.95 326.34064 576.3719 326.21564Q576.79376 326.09064 577.29376 326.09064Q578.0125 326.09064 578.5594 326.3094Q579.1219 326.5125 579.3875 326.8719Q579.65314 327.23126 579.7469 327.825L578.71564 327.96564Q578.65314 327.4969 578.3094 327.23126Q577.98126 326.95 577.35626 326.95Q576.6375 326.95 576.325 327.2Q576.0125 327.4344 576.0125 327.7625Q576.0125 327.96564 576.1375 328.1219Q576.27814 328.29376 576.54376 328.40314Q576.7 328.46564 577.48126 328.66876Q578.60626 328.98126 579.04376 329.16876Q579.48126 329.35626 579.73126 329.71564Q579.98126 330.075 579.98126 330.6219Q579.98126 331.15314 579.66876 331.6219Q579.3719 332.075 578.79376 332.34064Q578.21564 332.59064 577.48126 332.59064Q576.2625 332.59064 575.6219 332.09064Q574.9969 331.575 574.825 330.59064Z" fill-rule="nonzero"/><path fill="#9e9e9e" d="M547.10626 347.46564L548.1219 347.3719Q548.2469 348.09064 548.60626 348.41876Q548.98126 348.73126 549.54376 348.73126Q550.02814 348.73126 550.3875 348.5125Q550.7625 348.27814 550.9969 347.91876Q551.23126 347.54376 551.3875 346.91876Q551.54376 346.27814 551.54376 345.6219Q551.54376 345.54376 551.54376 345.40314Q551.23126 345.90314 550.6844 346.23126Q550.1375 346.54376 549.4969 346.54376Q548.41876 346.54376 547.6844 345.77814Q546.95 344.9969 546.95 343.73126Q546.95 342.41876 547.71564 341.6219Q548.4969 340.825 549.65314 340.825Q550.48126 340.825 551.16876 341.27814Q551.8719 341.73126 552.23126 342.575Q552.59064 343.40314 552.59064 344.98126Q552.59064 346.6219 552.23126 347.60626Q551.8875 348.575 551.16876 349.09064Q550.46564 349.59064 549.52814 349.59064Q548.5125 349.59064 547.8719 349.04376Q547.23126 348.48126 547.10626 347.46564ZM551.41876 343.66876Q551.41876 342.7625 550.9344 342.23126Q550.46564 341.7 549.77814 341.7Q549.075 341.7 548.54376 342.27814Q548.02814 342.84064 548.02814 343.7625Q548.02814 344.575 548.52814 345.09064Q549.02814 345.60626 549.7469 345.60626Q550.48126 345.60626 550.95 345.09064Q551.41876 344.575 551.41876 343.66876ZM557.325 349.45L557.325 347.3875L553.60626 347.3875L553.60626 346.41876L557.52814 340.85626L558.3875 340.85626L558.3875 346.41876L559.54376 346.41876L559.54376 347.3875L558.3875 347.3875L558.3875 349.45L557.325 349.45ZM557.325 346.41876L557.325 342.5594L554.6375 346.41876L557.325 346.41876ZM561.54376 349.45L561.54376 348.2469L562.7469 348.2469L562.7469 349.45L561.54376 349.45ZM564.10626 347.46564L565.1219 347.3719Q565.2469 348.09064 565.60626 348.41876Q565.98126 348.73126 566.54376 348.73126Q567.02814 348.73126 567.3875 348.5125Q567.7625 348.27814 567.9969 347.91876Q568.23126 347.54376 568.3875 346.91876Q568.54376 346.27814 568.54376 345.6219Q568.54376 345.54376 568.54376 345.40314Q568.23126 345.90314 567.6844 346.23126Q567.1375 346.54376 566.4969 346.54376Q565.41876 346.54376 564.6844 345.77814Q563.95 344.9969 563.95 343.73126Q563.95 342.41876 564.71564 341.6219Q565.4969 340.825 566.65314 340.825Q567.48126 340.825 568.16876 341.27814Q568.8719 341.73126 569.23126 342.575Q569.59064 343.40314 569.59064 344.98126Q569.59064 346.6219 569.23126 347.60626Q568.8875 348.575 568.16876 349.09064Q567.46564 349.59064 566.52814 349.59064Q565.5125 349.59064 564.8719 349.04376Q564.23126 348.48126 564.10626 347.46564ZM568.41876 343.66876Q568.41876 342.7625 567.9344 342.23126Q567.46564 341.7 566.77814 341.7Q566.075 341.7 565.54376 342.27814Q565.02814 342.84064 565.02814 343.7625Q565.02814 344.575 565.52814 345.09064Q566.02814 345.60626 566.7469 345.60626Q567.48126 345.60626 567.95 345.09064Q568.41876 344.575 568.41876 343.66876ZM571.15314 342.91876Q571.15314 341.9969 571.60626 341.35626Q572.075 340.71564 572.95 340.71564Q573.7625 340.71564 574.29376 341.29376Q574.825 341.8719 574.825 342.98126Q574.825 344.075 574.27814 344.66876Q573.7469 345.2469 572.96564 345.2469Q572.1844 345.2469 571.66876 344.66876Q571.15314 344.09064 571.15314 342.91876ZM572.98126 341.4344Q572.59064 341.4344 572.325 341.77814Q572.075 342.1219 572.075 343.02814Q572.075 343.85626 572.325 344.2Q572.59064 344.52814 572.98126 344.52814Q573.3875 344.52814 573.6375 344.1844Q573.90314 343.84064 573.90314 342.95Q573.90314 342.10626 573.6375 341.77814Q573.3719 341.4344 572.98126 341.4344ZM572.98126 349.7625L577.6844 340.71564L578.54376 340.71564L573.85626 349.7625L572.98126 349.7625ZM576.7 347.4344Q576.7 346.5125 577.15314 345.8719Q577.6219 345.23126 578.5125 345.23126Q579.325 345.23126 579.85626 345.8094Q580.3875 346.3719 580.3875 347.4969Q580.3875 348.59064 579.84064 349.1844Q579.3094 349.7625 578.5125 349.7625Q577.7469 349.7625 577.21564 349.1844Q576.7 348.60626 576.7 347.4344ZM578.54376 345.95Q578.1375 345.95 577.8719 346.29376Q577.6219 346.6375 577.6219 347.54376Q577.6219 348.35626 577.8875 348.7Q578.15314 349.04376 578.54376 349.04376Q578.9344 349.04376 579.2 348.7Q579.46564 348.35626 579.46564 347.45Q579.46564 346.6219 579.2 346.29376Q578.9344 345.95 578.54376 345.95Z" fill-rule="nonzero"/><path stroke="#757575" stroke-width="1.0" stroke-linecap="butt" d="M581.45 336.95L472.95 336.95L325.53436 342.03354" fill-rule="nonzero"/><path fill="#9e9e9e" d="M327.53436 342.03354C327.53436 340.929 326.63892 340.03354 325.53436 340.03354C324.42978 340.03354 323.53436 340.929 323.53436 342.03354C323.53436 343.13812 324.42978 344.03354 325.53436 344.03354C326.63892 344.03354 327.53436 343.13812 327.53436 342.03354" fill-rule="nonzero"/></svg>