<svg version="1.1" viewBox="0.0 0.0 580.0 435.0" fill="none" stroke="none" stroke-linecap="square" stroke-miterlimit="10" width="580" height="435" xmlns:xlink="http://www.w3.org/1999/xlink" xmlns="http://www.w3.org/2000/svg"><path fill="#ffffff" d="M0 0L580.0 0L580.0 435.0L0 435.0L0 0Z" fill-rule="nonzero"/><path fill="#ea4335" d="M275.92892 412.74362C170.83157 405.1693 90.58704 315.7617 94.37664 210.45992C98.16624 105.15813 184.63005 21.75 290.0 21.75L290.0 217.5Z" fill-rule="nonzero"/><path fill="#4285f4" d="M290.0 21.75C361.6146 21.75 427.5129 60.857357 461.8227 123.71822C496.1325 186.5791 493.3766 263.1583 454.6369 323.39026C415.89725 383.62222 347.35828 417.89148 275.92892 412.74362L290.0 217.5Z" fill-rule="nonzero"/><path fill="#1a1a1a" d="M22.671875 206.31192L22.671875 197.71817L23.828125 197.71817L28.34375 204.46817L28.34375 197.71817L29.4375 197.71817L29.4375 206.31192L28.265625 206.31192L23.75 199.56192L23.75 206.31192L22.671875 206.31192ZM31.15625 203.20255Q31.15625 201.46817 32.109375 200.64005Q32.90625 199.95255 34.0625 199.95255Q35.34375 199.95255 36.15625 200.7963Q36.984375 201.62442 36.984375 203.1088Q36.984375 204.31192 36.625 204.99942Q36.265625 205.68692 35.5625 206.07755Q34.875 206.45255 34.0625 206.45255Q32.765625 206.45255 31.953125 205.62442Q31.15625 204.78067 31.15625 203.20255ZM32.234375 203.20255Q32.234375 204.39005 32.75 204.9838Q33.28125 205.57755 34.0625 205.57755Q34.859375 205.57755 35.375 204.9838Q35.890625 204.39005 35.890625 203.1713Q35.890625 202.01505 35.359375 201.4213Q34.84375 200.82755 34.0625 200.82755Q33.28125 200.82755 32.75 201.4213Q32.234375 201.99942 32.234375 203.20255Z" fill-rule="nonzero"/><path fill="#9e9e9e" d="M25.625 223.31192L25.625 221.24942L21.90625 221.24942L21.90625 220.28067L25.828125 214.71817L26.6875 214.71817L26.6875 220.28067L27.84375 220.28067L27.84375 221.24942L26.6875 221.24942L26.6875 223.31192L25.625 223.31192ZM25.625 220.28067L25.625 216.4213L22.9375 220.28067L25.625 220.28067ZM30.875 218.65567Q30.21875 218.40567 29.890625 217.96817Q29.578125 217.51505 29.578125 216.90567Q29.578125 215.96817 30.25 215.32755Q30.9375 214.68692 32.046875 214.68692Q33.171875 214.68692 33.859375 215.34317Q34.546875 215.99942 34.546875 216.93692Q34.546875 217.53067 34.234375 217.96817Q33.921875 218.40567 33.28125 218.65567Q34.078125 218.90567 34.484375 219.4838Q34.890625 220.06192 34.890625 220.8588Q34.890625 221.95255 34.109375 222.70255Q33.34375 223.45255 32.0625 223.45255Q30.796875 223.45255 30.015625 222.70255Q29.234375 221.95255 29.234375 220.82755Q29.234375 219.9838 29.65625 219.4213Q30.09375 218.8588 30.875 218.65567ZM30.65625 216.8588Q30.65625 217.46817 31.046875 217.8588Q31.453125 218.24942 32.078125 218.24942Q32.6875 218.24942 33.078125 217.87442Q33.46875 217.4838 33.46875 216.9213Q33.46875 216.34317 33.0625 215.95255Q32.65625 215.5463 32.0625 215.5463Q31.453125 215.5463 31.046875 215.93692Q30.65625 216.32755 30.65625 216.8588ZM30.328125 220.82755Q30.328125 221.28067 30.53125 221.70255Q30.75 222.12442 31.171875 222.3588Q31.59375 222.59317 32.078125 222.59317Q32.828125 222.59317 33.3125 222.1088Q33.8125 221.62442 33.8125 220.87442Q33.8125 220.1088 33.3125 219.6088Q32.8125 219.1088 32.046875 219.1088Q31.296875 219.1088 30.8125 219.6088Q30.328125 220.09317 30.328125 220.82755ZM36.84375 223.31192L36.84375 222.1088L38.046875 222.1088L38.046875 223.31192L36.84375 223.31192ZM39.40625 221.32755L40.421875 221.2338Q40.546875 221.95255 40.90625 222.28067Q41.28125 222.59317 41.84375 222.59317Q42.328125 222.59317 42.6875 222.37442Q43.0625 222.14005 43.296875 221.78067Q43.53125 221.40567 43.6875 220.78067Q43.84375 220.14005 43.84375 219.4838Q43.84375 219.40567 43.84375 219.26505Q43.53125 219.76505 42.984375 220.09317Q42.4375 220.40567 41.796875 220.40567Q40.71875 220.40567 39.984375 219.64005Q39.25 218.8588 39.25 217.59317Q39.25 216.28067 40.015625 215.4838Q40.796875 214.68692 41.953125 214.68692Q42.78125 214.68692 43.46875 215.14005Q44.171875 215.59317 44.53125 216.43692Q44.890625 217.26505 44.890625 218.84317Q44.890625 220.4838 44.53125 221.46817Q44.1875 222.43692 43.46875 222.95255Q42.765625 223.45255 41.828125 223.45255Q40.8125 223.45255 40.171875 222.90567Q39.53125 222.34317 39.40625 221.32755ZM43.71875 217.53067Q43.71875 216.62442 43.234375 216.09317Q42.765625 215.56192 42.078125 215.56192Q41.375 215.56192 40.84375 216.14005Q40.328125 216.70255 40.328125 217.62442Q40.328125 218.43692 40.828125 218.95255Q41.328125 219.46817 42.046875 219.46817Q42.78125 219.46817 43.25 218.95255Q43.71875 218.43692 43.71875 217.53067ZM46.453125 216.78067Q46.453125 215.8588 46.90625 215.21817Q47.375 214.57755 48.25 214.57755Q49.0625 214.57755 49.59375 215.15567Q50.125 215.7338 50.125 216.84317Q50.125 217.93692 49.578125 218.53067Q49.046875 219.1088 48.265625 219.1088Q47.484375 219.1088 46.96875 218.53067Q46.453125 217.95255 46.453125 216.78067ZM48.28125 215.2963Q47.890625 215.2963 47.625 215.64005Q47.375 215.9838 47.375 216.89005Q47.375 217.71817 47.625 218.06192Q47.890625 218.39005 48.28125 218.39005Q48.6875 218.39005 48.9375 218.0463Q49.203125 217.70255 49.203125 216.81192Q49.203125 215.96817 48.9375 215.64005Q48.671875 215.2963 48.28125 215.2963ZM48.28125 223.62442L52.984375 214.57755L53.84375 214.57755L49.15625 223.62442L48.28125 223.62442ZM52.0 221.2963Q52.0 220.37442 52.453125 219.7338Q52.921875 219.09317 53.8125 219.09317Q54.625 219.09317 55.15625 219.6713Q55.6875 220.2338 55.6875 221.3588Q55.6875 222.45255 55.140625 223.0463Q54.609375 223.62442 53.8125 223.62442Q53.046875 223.62442 52.515625 223.0463Q52.0 222.46817 52.0 221.2963ZM53.84375 219.81192Q53.4375 219.81192 53.171875 220.15567Q52.921875 220.49942 52.921875 221.40567Q52.921875 222.21817 53.1875 222.56192Q53.453125 222.90567 53.84375 222.90567Q54.234375 222.90567 54.5 222.56192Q54.765625 222.21817 54.765625 221.31192Q54.765625 220.4838 54.5 220.15567Q54.234375 219.81192 53.84375 219.81192Z" fill-rule="nonzero"/><path stroke="#757575" stroke-width="1.0" stroke-linecap="butt" d="M21.75 210.81192L88.25 210.81192L104.15781 210.81192" fill-rule="nonzero"/><path fill="#9e9e9e" d="M106.15781 210.81192C106.15781 209.70735 105.262375 208.81192 104.15781 208.81192C103.05324 208.81192 102.15781 209.70735 102.15781 210.81192C102.15781 211.91649 103.05324 212.81192 104.15781 212.81192C105.262375 212.81192 106.15781 211.91649 106.15781 210.81192" fill-rule="nonzero"/><path fill="#1a1a1a" d="M540.59375 219.68808L540.59375 216.04745L537.28125 211.09433L538.6719 211.09433L540.3594 213.68808Q540.8281 214.40683 541.2344 215.1412Q541.625 214.46933 542.1719 213.62558L543.84375 211.09433L545.15625 211.09433L541.7344 216.04745L541.7344 219.68808L540.59375 219.68808ZM549.2969 217.68808L550.3906 217.81308Q550.1406 218.7662 549.4375 219.29745Q548.7344 219.8287 547.65625 219.8287Q546.2969 219.8287 545.4844 218.98495Q544.6875 218.1412 544.6875 216.62558Q544.6875 215.06308 545.5 214.2037Q546.3125 213.3287 547.59375 213.3287Q548.84375 213.3287 549.625 214.17245Q550.4219 215.0162 550.4219 216.56308Q550.4219 216.65683 550.4219 216.84433L545.78125 216.84433Q545.84375 217.87558 546.3594 218.42245Q546.875 218.9537 547.65625 218.9537Q548.2344 218.9537 548.6406 218.65683Q549.0625 218.34433 549.2969 217.68808ZM545.84375 215.98495L549.3125 215.98495Q549.25 215.18808 548.9219 214.79745Q548.40625 214.18808 547.6094 214.18808Q546.875 214.18808 546.375 214.67245Q545.8906 215.15683 545.84375 215.98495ZM551.625 217.8287L552.65625 217.67245Q552.75 218.29745 553.1406 218.62558Q553.5469 218.9537 554.28125 218.9537Q555.0 218.9537 555.34375 218.67245Q555.7031 218.37558 555.7031 217.96933Q555.7031 217.60995 555.3906 217.40683Q555.1719 217.2662 554.3125 217.04745Q553.15625 216.75058 552.7031 216.54745Q552.2656 216.3287 552.03125 215.9537Q551.7969 215.5787 551.7969 215.10995Q551.7969 214.7037 551.9844 214.34433Q552.1719 213.98495 552.5 213.75058Q552.75 213.5787 553.1719 213.4537Q553.59375 213.3287 554.09375 213.3287Q554.8125 213.3287 555.3594 213.54745Q555.9219 213.75058 556.1875 214.10995Q556.4531 214.46933 556.5469 215.06308L555.5156 215.2037Q555.4531 214.73495 555.1094 214.46933Q554.78125 214.18808 554.15625 214.18808Q553.4375 214.18808 553.125 214.43808Q552.8125 214.67245 552.8125 215.00058Q552.8125 215.2037 552.9375 215.35995Q553.0781 215.53183 553.34375 215.6412Q553.5 215.7037 554.28125 215.90683Q555.40625 216.21933 555.84375 216.40683Q556.28125 216.59433 556.53125 216.9537Q556.78125 217.31308 556.78125 217.85995Q556.78125 218.3912 556.46875 218.85995Q556.1719 219.31308 555.59375 219.5787Q555.0156 219.8287 554.28125 219.8287Q553.0625 219.8287 552.4219 219.3287Q551.7969 218.81308 551.625 217.8287Z" fill-rule="nonzero"/><path fill="#9e9e9e" d="M523.75 234.43808L524.8594 234.34433Q524.9844 235.15683 525.4219 235.56308Q525.875 235.96933 526.5156 235.96933Q527.2656 235.96933 527.7969 235.3912Q528.3281 234.81308 528.3281 233.87558Q528.3281 232.96933 527.8125 232.4537Q527.3125 231.92245 526.4844 231.92245Q525.9844 231.92245 525.5625 232.15683Q525.15625 232.3912 524.9219 232.75058L523.9375 232.62558L524.7656 228.21933L529.0469 228.21933L529.0469 229.21933L525.6094 229.21933L525.15625 231.53183Q525.9219 230.98495 526.7656 230.98495Q527.8906 230.98495 528.65625 231.7662Q529.4375 232.54745 529.4375 233.78183Q529.4375 234.93808 528.7656 235.79745Q527.9375 236.8287 526.5156 236.8287Q525.34375 236.8287 524.59375 236.17245Q523.8594 235.5162 523.75 234.43808ZM534.71875 236.68808L533.6719 236.68808L533.6719 229.96933Q533.28125 230.3287 532.65625 230.7037Q532.0469 231.06308 531.5625 231.23495L531.5625 230.21933Q532.4375 229.79745 533.09375 229.21933Q533.7656 228.62558 534.0469 228.06308L534.71875 228.06308L534.71875 236.68808ZM538.34375 236.68808L538.34375 235.48495L539.5469 235.48495L539.5469 236.68808L538.34375 236.68808ZM544.71875 236.68808L543.6719 236.68808L543.6719 229.96933Q543.28125 230.3287 542.65625 230.7037Q542.0469 231.06308 541.5625 231.23495L541.5625 230.21933Q542.4375 229.79745 543.09375 229.21933Q543.7656 228.62558 544.0469 228.06308L544.71875 228.06308L544.71875 236.68808ZM547.9531 230.15683Q547.9531 229.23495 548.40625 228.59433Q548.875 227.9537 549.75 227.9537Q550.5625 227.9537 551.09375 228.53183Q551.625 229.10995 551.625 230.21933Q551.625 231.31308 551.0781 231.90683Q550.5469 232.48495 549.7656 232.48495Q548.9844 232.48495 548.46875 231.90683Q547.9531 231.3287 547.9531 230.15683ZM549.78125 228.67245Q549.3906 228.67245 549.125 229.0162Q548.875 229.35995 548.875 230.2662Q548.875 231.09433 549.125 231.43808Q549.3906 231.7662 549.78125 231.7662Q550.1875 231.7662 550.4375 231.42245Q550.7031 231.0787 550.7031 230.18808Q550.7031 229.34433 550.4375 229.0162Q550.1719 228.67245 549.78125 228.67245ZM549.78125 237.00058L554.4844 227.9537L555.34375 227.9537L550.65625 237.00058L549.78125 237.00058ZM553.5 234.67245Q553.5 233.75058 553.9531 233.10995Q554.4219 232.46933 555.3125 232.46933Q556.125 232.46933 556.65625 233.04745Q557.1875 233.60995 557.1875 234.73495Q557.1875 235.8287 556.6406 236.42245Q556.1094 237.00058 555.3125 237.00058Q554.5469 237.00058 554.0156 236.42245Q553.5 235.84433 553.5 234.67245ZM555.34375 233.18808Q554.9375 233.18808 554.6719 233.53183Q554.4219 233.87558 554.4219 234.78183Q554.4219 235.59433 554.6875 235.93808Q554.9531 236.28183 555.34375 236.28183Q555.7344 236.28183 556.0 235.93808Q556.2656 235.59433 556.2656 234.68808Q556.2656 233.85995 556.0 233.53183Q555.7344 233.18808 555.34375 233.18808Z" fill-rule="nonzero"/><path stroke="#757575" stroke-width="1.0" stroke-linecap="butt" d="M558.25 224.18808L491.75 224.18808L475.8422 224.18808" fill-rule="nonzero"/><path fill="#9e9e9e" d="M477.8422 224.18808C477.8422 223.08351 476.94678 222.18808 475.8422 222.18808C474.7376 222.18808 473.8422 223.08351 473.8422 224.18808C473.8422 225.29265 474.7376 226.18808 475.8422 226.18808C476.94678 226.18808 477.8422 225.29265 477.8422 224.18808" fill-rule="nonzero"/></svg>