<svg version="1.1" viewBox="0.0 0.0 645.0 371.0" fill="none" stroke="none" stroke-linecap="square" stroke-miterlimit="10" width="645" height="371" xmlns:xlink="http://www.w3.org/1999/xlink" xmlns="http://www.w3.org/2000/svg"><path fill="#ffffff" d="M0 0L645.0 0L645.0 371.0L0 371.0L0 0Z" fill-rule="nonzero"/><path fill="#4285f4" d="M322.5 18.55C384.01395 18.55 440.54434 52.376755 469.62128 106.584656C498.6982 160.79256 495.61035 226.59834 461.58508 277.84525L322.5 185.5Z" fill-rule="nonzero"/><path fill="#fbbc04" d="M254.1189 33.196598C275.623 23.541695 298.9279 18.55 322.5 18.55L322.5 185.5Z" fill-rule="nonzero"/><path fill="#ea4335" d="M461.58508 277.84525C422.32205 336.98096 349.95862 364.82358 281.18344 347.25674C212.40828 329.6899 162.26097 270.5551 156.16649 199.83401C150.07199 129.11292 189.36305 62.27064 254.1189 33.196598L322.5 185.5Z" fill-rule="nonzero"/><path fill="#1a1a1a" d="M21.89375 29.55L21.89375 25.909374L18.58125 20.95625L19.971874 20.95625L21.659374 23.55Q22.128124 24.26875 22.534374 25.003124Q22.925 24.33125 23.471874 23.4875L25.14375 20.95625L26.45625 20.95625L23.034374 25.909374L23.034374 29.55L21.89375 29.55ZM30.596874 27.55L31.690624 27.675Q31.440624 28.628124 30.7375 29.159374Q30.034374 29.690624 28.95625 29.690624Q27.596874 29.690624 26.784374 28.846874Q25.9875 28.003124 25.9875 26.4875Q25.9875 24.925 26.8 24.065624Q27.6125 23.190624 28.89375 23.190624Q30.14375 23.190624 30.925 24.034374Q31.721874 24.878124 31.721874 26.425Q31.721874 26.51875 31.721874 26.70625L27.08125 26.70625Q27.14375 27.7375 27.659374 28.284374Q28.175 28.815624 28.95625 28.815624Q29.534374 28.815624 29.940624 28.51875Q30.3625 28.20625 30.596874 27.55ZM27.14375 25.846874L30.6125 25.846874Q30.55 25.05 30.221874 24.659374Q29.70625 24.05 28.909374 24.05Q28.175 24.05 27.675 24.534374Q27.190624 25.01875 27.14375 25.846874ZM32.925 27.690624L33.95625 27.534374Q34.05 28.159374 34.440624 28.4875Q34.846874 28.815624 35.58125 28.815624Q36.3 28.815624 36.64375 28.534374Q37.003124 28.2375 37.003124 27.83125Q37.003124 27.471874 36.690624 27.26875Q36.471874 27.128124 35.6125 26.909374Q34.45625 26.6125 34.003124 26.409374Q33.565624 26.190624 33.33125 25.815624Q33.096874 25.440624 33.096874 24.971874Q33.096874 24.565624 33.284374 24.20625Q33.471874 23.846874 33.8 23.6125Q34.05 23.440624 34.471874 23.315624Q34.89375 23.190624 35.39375 23.190624Q36.1125 23.190624 36.659374 23.409374Q37.221874 23.6125 37.4875 23.971874Q37.753124 24.33125 37.846874 24.925L36.815624 25.065624Q36.753124 24.596874 36.409374 24.33125Q36.08125 24.05 35.45625 24.05Q34.7375 24.05 34.425 24.3Q34.1125 24.534374 34.1125 24.8625Q34.1125 25.065624 34.2375 25.221874Q34.378124 25.39375 34.64375 25.503124Q34.8 25.565624 35.58125 25.76875Q36.70625 26.08125 37.14375 26.26875Q37.58125 26.45625 37.83125 26.815624Q38.08125 27.175 38.08125 27.721874Q38.08125 28.253124 37.76875 28.721874Q37.471874 29.175 36.89375 29.440624Q36.315624 29.690624 35.58125 29.690624Q34.3625 29.690624 33.721874 29.190624Q33.096874 28.675 32.925 27.690624ZM40.6125 29.55L40.6125 28.346874L41.815624 28.346874L41.815624 29.55Q41.815624 30.20625 41.58125 30.6125Q41.346874 31.034374 40.846874 31.253124L40.55 30.8Q40.878124 30.659374 41.034374 30.3625Q41.190624 30.08125 41.221874 29.55L40.6125 29.55ZM46.596874 29.55L46.596874 24.14375L45.659374 24.14375L45.659374 23.33125L46.596874 23.33125L46.596874 22.659374Q46.596874 22.034374 46.70625 21.7375Q46.8625 21.315624 47.2375 21.065624Q47.628124 20.815624 48.315624 20.815624Q48.76875 20.815624 49.3 20.925L49.14375 21.83125Q48.815624 21.784374 48.51875 21.784374Q48.034374 21.784374 47.83125 21.9875Q47.64375 22.190624 47.64375 22.753124L47.64375 23.33125L48.8625 23.33125L48.8625 24.14375L47.64375 24.14375L47.64375 29.55L46.596874 29.55ZM53.425 29.55L53.425 28.628124Q52.690624 29.690624 51.440624 29.690624Q50.89375 29.690624 50.409374 29.4875Q49.940624 29.26875 49.70625 28.95625Q49.471874 28.628124 49.378124 28.159374Q49.315624 27.8625 49.315624 27.175L49.315624 23.33125L50.378124 23.33125L50.378124 26.784374Q50.378124 27.596874 50.440624 27.89375Q50.534374 28.3 50.846874 28.55Q51.175 28.784374 51.659374 28.784374Q52.128124 28.784374 52.534374 28.55Q52.95625 28.3 53.128124 27.878124Q53.315624 27.45625 53.315624 26.659374L53.315624 23.33125L54.3625 23.33125L54.3625 29.55L53.425 29.55ZM56.315624 29.55L56.315624 20.95625L57.378124 20.95625L57.378124 29.55L56.315624 29.55ZM59.315624 29.55L59.315624 20.95625L60.378124 20.95625L60.378124 29.55L59.315624 29.55ZM67.64375 28.6125L67.8 29.534374Q67.34688 29.628124 67.00313 29.628124Q66.425 29.628124 66.1125 29.45625Q65.8 29.26875 65.65938 28.971874Q65.53438 28.675 65.53438 27.721874L65.53438 24.14375L64.76875 24.14375L64.76875 23.33125L65.53438 23.33125L65.53438 21.784374L66.58125 21.159374L66.58125 23.33125L67.64375 23.33125L67.64375 24.14375L66.58125 24.14375L66.58125 27.784374Q66.58125 28.2375 66.62813 28.3625Q66.69063 28.4875 66.81563 28.565624Q66.94063 28.64375 67.175 28.64375Q67.3625 28.64375 67.64375 28.6125ZM68.34688 22.175L68.34688 20.95625L69.40938 20.95625L69.40938 22.175L68.34688 22.175ZM68.34688 29.55L68.34688 23.33125L69.40938 23.33125L69.40938 29.55L68.34688 29.55ZM71.34688 29.55L71.34688 23.33125L72.28438 23.33125L72.28438 24.20625Q72.58125 23.7375 73.06563 23.471874Q73.55 23.190624 74.175 23.190624Q74.8625 23.190624 75.3 23.471874Q75.75313 23.753124 75.925 24.26875Q76.675 23.190624 77.84688 23.190624Q78.78438 23.190624 79.26875 23.70625Q79.76875 24.20625 79.76875 25.284374L79.76875 29.55L78.72188 29.55L78.72188 25.628124Q78.72188 25.003124 78.6125 24.721874Q78.51875 24.440624 78.25313 24.26875Q77.9875 24.096874 77.6125 24.096874Q76.95625 24.096874 76.51875 24.534374Q76.09688 24.971874 76.09688 25.940624L76.09688 29.55L75.03438 29.55L75.03438 25.503124Q75.03438 24.8 74.76875 24.45625Q74.51875 24.096874 73.94063 24.096874Q73.4875 24.096874 73.1125 24.33125Q72.7375 24.565624 72.56563 25.01875Q72.39375 25.471874 72.39375 26.315624L72.39375 29.55L71.34688 29.55ZM86.59688 27.55L87.69063 27.675Q87.44063 28.628124 86.7375 29.159374Q86.03438 29.690624 84.95625 29.690624Q83.59688 29.690624 82.78438 28.846874Q81.9875 28.003124 81.9875 26.4875Q81.9875 24.925 82.8 24.065624Q83.6125 23.190624 84.89375 23.190624Q86.14375 23.190624 86.925 24.034374Q87.72188 24.878124 87.72188 26.425Q87.72188 26.51875 87.72188 26.70625L83.08125 26.70625Q83.14375 27.7375 83.65938 28.284374Q84.175 28.815624 84.95625 28.815624Q85.53438 28.815624 85.94063 28.51875Q86.3625 28.20625 86.59688 27.55ZM83.14375 25.846874L86.6125 25.846874Q86.55 25.05 86.22188 24.659374Q85.70625 24.05 84.90938 24.05Q84.175 24.05 83.675 24.534374Q83.19063 25.01875 83.14375 25.846874Z" fill-rule="nonzero"/><path fill="#9e9e9e" d="M24.51875 40.065624L23.471874 40.14375Q23.33125 39.51875 23.08125 39.2375Q22.64375 38.784374 22.01875 38.784374Q21.51875 38.784374 21.128124 39.065624Q20.64375 39.440624 20.346874 40.14375Q20.065624 40.83125 20.05 42.1125Q20.425 41.534374 20.971874 41.253124Q21.534374 40.971874 22.14375 40.971874Q23.190624 40.971874 23.925 41.753124Q24.675 42.534374 24.675 43.753124Q24.675 44.565624 24.315624 45.26875Q23.971874 45.95625 23.3625 46.33125Q22.753124 46.690624 21.9875 46.690624Q20.659374 46.690624 19.83125 45.721874Q19.003124 44.753124 19.003124 42.534374Q19.003124 40.034374 19.925 38.909374Q20.721874 37.925 22.08125 37.925Q23.096874 37.925 23.7375 38.503124Q24.39375 39.065624 24.51875 40.065624ZM20.221874 43.76875Q20.221874 44.315624 20.440624 44.815624Q20.675 45.3 21.08125 45.565624Q21.503124 45.83125 21.971874 45.83125Q22.628124 45.83125 23.1125 45.3Q23.596874 44.753124 23.596874 43.83125Q23.596874 42.940624 23.1125 42.425Q22.64375 41.909374 21.925 41.909374Q21.20625 41.909374 20.70625 42.425Q20.221874 42.940624 20.221874 43.76875ZM26.64375 46.55L26.64375 45.346874L27.846874 45.346874L27.846874 46.55L26.64375 46.55ZM29.1125 39.08125L29.1125 38.065624L34.675 38.065624L34.675 38.89375Q33.8625 39.76875 33.05 41.221874Q32.253124 42.659374 31.815624 44.190624Q31.4875 45.26875 31.409374 46.55L30.315624 46.55Q30.33125 45.534374 30.70625 44.096874Q31.096874 42.659374 31.8 41.33125Q32.51875 40.003124 33.33125 39.08125L29.1125 39.08125ZM36.253124 40.01875Q36.253124 39.096874 36.70625 38.45625Q37.175 37.815624 38.05 37.815624Q38.8625 37.815624 39.39375 38.39375Q39.925 38.971874 39.925 40.08125Q39.925 41.175 39.378124 41.76875Q38.846874 42.346874 38.065624 42.346874Q37.284374 42.346874 36.76875 41.76875Q36.253124 41.190624 36.253124 40.01875ZM38.08125 38.534374Q37.690624 38.534374 37.425 38.878124Q37.175 39.221874 37.175 40.128124Q37.175 40.95625 37.425 41.3Q37.690624 41.628124 38.08125 41.628124Q38.4875 41.628124 38.7375 41.284374Q39.003124 40.940624 39.003124 40.05Q39.003124 39.20625 38.7375 38.878124Q38.471874 38.534374 38.08125 38.534374ZM38.08125 46.8625L42.784374 37.815624L43.64375 37.815624L38.95625 46.8625L38.08125 46.8625ZM41.8 44.534374Q41.8 43.6125 42.253124 42.971874Q42.721874 42.33125 43.6125 42.33125Q44.425 42.33125 44.95625 42.909374Q45.4875 43.471874 45.4875 44.596874Q45.4875 45.690624 44.940624 46.284374Q44.409374 46.8625 43.6125 46.8625Q42.846874 46.8625 42.315624 46.284374Q41.8 45.70625 41.8 44.534374ZM43.64375 43.05Q43.2375 43.05 42.971874 43.39375Q42.721874 43.7375 42.721874 44.64375Q42.721874 45.45625 42.9875 45.8Q43.253124 46.14375 43.64375 46.14375Q44.034374 46.14375 44.3 45.8Q44.565624 45.45625 44.565624 44.55Q44.565624 43.721874 44.3 43.39375Q44.034374 43.05 43.64375 43.05Z" fill-rule="nonzero"/><path stroke="#757575" stroke-width="1.0" stroke-linecap="butt" d="M18.55 34.05L149.55 34.05L289.28226 30.415075" fill-rule="nonzero"/><path fill="#9e9e9e" d="M291.28226 30.415075C291.28226 29.310505 290.3868 28.415075 289.28226 28.415075C288.17767 28.415075 287.28226 29.310505 287.28226 30.415075C287.28226 31.519644 288.17767 32.415073 289.28226 32.415073C290.3868 32.415073 291.28226 31.519644 291.28226 30.415075" fill-rule="nonzero"/><path fill="#1a1a1a" d="M19.471874 283.5793L19.471874 274.98557L20.628124 274.98557L25.14375 281.73557L25.14375 274.98557L26.2375 274.98557L26.2375 283.5793L25.065624 283.5793L20.55 276.8293L20.55 283.5793L19.471874 283.5793ZM27.95625 280.46994Q27.95625 278.73557 28.909374 277.90744Q29.70625 277.21994 30.8625 277.21994Q32.14375 277.21994 32.95625 278.0637Q33.784374 278.8918 33.784374 280.3762Q33.784374 281.5793 33.425 282.2668Q33.065624 282.9543 32.3625 283.34494Q31.675 283.71994 30.8625 283.71994Q29.565624 283.71994 28.753124 282.8918Q27.95625 282.04807 27.95625 280.46994ZM29.034374 280.46994Q29.034374 281.65744 29.55 282.2512Q30.08125 282.84494 30.8625 282.84494Q31.659374 282.84494 32.175 282.2512Q32.690624 281.65744 32.690624 280.4387Q32.690624 279.28244 32.159374 278.6887Q31.64375 278.09494 30.8625 278.09494Q30.08125 278.09494 29.55 278.6887Q29.034374 279.2668 29.034374 280.46994Z" fill-rule="nonzero"/><path fill="#9e9e9e" d="M19.05 298.3293L20.159374 298.23557Q20.284374 299.04807 20.721874 299.4543Q21.175 299.86057 21.815624 299.86057Q22.565624 299.86057 23.096874 299.28244Q23.628124 298.7043 23.628124 297.7668Q23.628124 296.86057 23.1125 296.34494Q22.6125 295.8137 21.784374 295.8137Q21.284374 295.8137 20.8625 296.04807Q20.45625 296.28244 20.221874 296.6418L19.2375 296.5168L20.065624 292.11057L24.346874 292.11057L24.346874 293.11057L20.909374 293.11057L20.45625 295.42307Q21.221874 294.8762 22.065624 294.8762Q23.190624 294.8762 23.95625 295.65744Q24.7375 296.4387 24.7375 297.67307Q24.7375 298.8293 24.065624 299.6887Q23.2375 300.71994 21.815624 300.71994Q20.64375 300.71994 19.89375 300.0637Q19.159374 299.40744 19.05 298.3293ZM26.20625 298.59494L27.221874 298.5012Q27.346874 299.21994 27.70625 299.54807Q28.08125 299.86057 28.64375 299.86057Q29.128124 299.86057 29.4875 299.6418Q29.8625 299.40744 30.096874 299.04807Q30.33125 298.67307 30.4875 298.04807Q30.64375 297.40744 30.64375 296.7512Q30.64375 296.67307 30.64375 296.53244Q30.33125 297.03244 29.784374 297.36057Q29.2375 297.67307 28.596874 297.67307Q27.51875 297.67307 26.784374 296.90744Q26.05 296.1262 26.05 294.86057Q26.05 293.54807 26.815624 292.7512Q27.596874 291.9543 28.753124 291.9543Q29.58125 291.9543 30.26875 292.40744Q30.971874 292.86057 31.33125 293.7043Q31.690624 294.53244 31.690624 296.11057Q31.690624 297.7512 31.33125 298.73557Q30.9875 299.7043 30.26875 300.21994Q29.565624 300.71994 28.628124 300.71994Q27.6125 300.71994 26.971874 300.17307Q26.33125 299.61057 26.20625 298.59494ZM30.51875 294.79807Q30.51875 293.8918 30.034374 293.36057Q29.565624 292.8293 28.878124 292.8293Q28.175 292.8293 27.64375 293.40744Q27.128124 293.96994 27.128124 294.8918Q27.128124 295.7043 27.628124 296.21994Q28.128124 296.73557 28.846874 296.73557Q29.58125 296.73557 30.05 296.21994Q30.51875 295.7043 30.51875 294.79807ZM33.64375 300.5793L33.64375 299.3762L34.846874 299.3762L34.846874 300.5793L33.64375 300.5793ZM36.05 296.34494Q36.05 294.8137 36.3625 293.8918Q36.675 292.9543 37.284374 292.4543Q37.909374 291.9543 38.846874 291.9543Q39.534374 291.9543 40.05 292.23557Q40.58125 292.5168 40.925 293.04807Q41.26875 293.5637 41.45625 294.3137Q41.64375 295.0637 41.64375 296.34494Q41.64375 297.86057 41.33125 298.78244Q41.034374 299.7043 40.409374 300.21994Q39.8 300.71994 38.846874 300.71994Q37.6125 300.71994 36.89375 299.8293Q36.05 298.7668 36.05 296.34494ZM37.128124 296.34494Q37.128124 298.4543 37.628124 299.15744Q38.128124 299.86057 38.846874 299.86057Q39.58125 299.86057 40.065624 299.15744Q40.565624 298.4543 40.565624 296.34494Q40.565624 294.21994 40.065624 293.53244Q39.58125 292.8293 38.83125 292.8293Q38.1125 292.8293 37.675 293.4387Q37.128124 294.21994 37.128124 296.34494ZM43.253124 294.04807Q43.253124 293.1262 43.70625 292.48557Q44.175 291.84494 45.05 291.84494Q45.8625 291.84494 46.39375 292.42307Q46.925 293.0012 46.925 294.11057Q46.925 295.2043 46.378124 295.79807Q45.846874 296.3762 45.065624 296.3762Q44.284374 296.3762 43.76875 295.79807Q43.253124 295.21994 43.253124 294.04807ZM45.08125 292.5637Q44.690624 292.5637 44.425 292.90744Q44.175 293.2512 44.175 294.15744Q44.175 294.98557 44.425 295.3293Q44.690624 295.65744 45.08125 295.65744Q45.4875 295.65744 45.7375 295.3137Q46.003124 294.96994 46.003124 294.0793Q46.003124 293.23557 45.7375 292.90744Q45.471874 292.5637 45.08125 292.5637ZM45.08125 300.8918L49.784374 291.84494L50.64375 291.84494L45.95625 300.8918L45.08125 300.8918ZM48.8 298.5637Q48.8 297.6418 49.253124 297.0012Q49.721874 296.36057 50.6125 296.36057Q51.425 296.36057 51.95625 296.9387Q52.4875 297.5012 52.4875 298.6262Q52.4875 299.71994 51.940624 300.3137Q51.409374 300.8918 50.6125 300.8918Q49.846874 300.8918 49.315624 300.3137Q48.8 299.73557 48.8 298.5637ZM50.64375 297.0793Q50.2375 297.0793 49.971874 297.42307Q49.721874 297.7668 49.721874 298.67307Q49.721874 299.48557 49.9875 299.8293Q50.253124 300.17307 50.64375 300.17307Q51.034374 300.17307 51.3 299.8293Q51.565624 299.48557 51.565624 298.5793Q51.565624 297.7512 51.3 297.42307Q51.034374 297.0793 50.64375 297.0793Z" fill-rule="nonzero"/><path stroke="#757575" stroke-width="1.0" stroke-linecap="butt" d="M18.55 288.0793L149.55 288.0793L201.53622 288.0793" fill-rule="nonzero"/><path fill="#9e9e9e" d="M203.53622 288.0793C203.53622 286.97476 202.6408 286.0793 201.53622 286.0793C200.43166 286.0793 199.53622 286.97476 199.53622 288.0793C199.53622 289.1839 200.43166 290.0793 201.53622 290.0793C202.6408 290.0793 203.53622 289.1839 203.53622 288.0793" fill-rule="nonzero"/><path fill="#1a1a1a" d="M495.9969 103.26479L497.0594 103.17104Q497.1375 103.82729 497.41876 104.23354Q497.7 104.63979 498.27814 104.90542Q498.8719 105.15542 499.60626 105.15542Q500.2469 105.15542 500.7469 104.96792Q501.2469 104.76479 501.48126 104.43667Q501.73126 104.09292 501.73126 103.70229Q501.73126 103.29604 501.4969 102.99917Q501.2625 102.68667 500.73126 102.48354Q500.3719 102.34292 499.1844 102.06167Q498.0125 101.78042 497.54376 101.53042Q496.91876 101.20229 496.6219 100.73354Q496.325 100.24917 496.325 99.65542Q496.325 99.01479 496.6844 98.45229Q497.0594 97.87417 497.7625 97.59292Q498.48126 97.29604 499.34064 97.29604Q500.29376 97.29604 501.02814 97.60854Q501.7625 97.90542 502.15314 98.51479Q502.54376 99.10854 502.575 99.85854L501.48126 99.93667Q501.3875 99.12417 500.8719 98.71792Q500.3719 98.29604 499.3875 98.29604Q498.35626 98.29604 497.8875 98.67104Q497.41876 99.04604 497.41876 99.57729Q497.41876 100.04604 497.7469 100.34292Q498.075 100.63979 499.45 100.95229Q500.84064 101.26479 501.35626 101.49917Q502.10626 101.85854 502.46564 102.38979Q502.825 102.90542 502.825 103.60854Q502.825 104.29604 502.4344 104.90542Q502.04376 105.49917 501.3094 105.84292Q500.575 106.17104 499.65314 106.17104Q498.48126 106.17104 497.6844 105.84292Q496.90314 105.49917 496.45 104.81167Q496.0125 104.12417 495.9969 103.26479ZM503.85626 102.92104Q503.85626 101.18667 504.8094 100.35854Q505.60626 99.67104 506.7625 99.67104Q508.04376 99.67104 508.85626 100.51479Q509.6844 101.34292 509.6844 102.82729Q509.6844 104.03042 509.325 104.71792Q508.96564 105.40542 508.2625 105.79604Q507.575 106.17104 506.7625 106.17104Q505.46564 106.17104 504.65314 105.34292Q503.85626 104.49917 503.85626 102.92104ZM504.9344 102.92104Q504.9344 104.10854 505.45 104.70229Q505.98126 105.29604 506.7625 105.29604Q507.5594 105.29604 508.075 104.70229Q508.59064 104.10854 508.59064 102.88979Q508.59064 101.73354 508.0594 101.13979Q507.54376 100.54604 506.7625 100.54604Q505.98126 100.54604 505.45 101.13979Q504.9344 101.71792 504.9344 102.92104ZM511.2469 106.03042L511.2469 99.81167L512.1844 99.81167L512.1844 100.68667Q512.48126 100.21792 512.96564 99.95229Q513.45 99.67104 514.075 99.67104Q514.7625 99.67104 515.2 99.95229Q515.65314 100.23354 515.825 100.74917Q516.575 99.67104 517.7469 99.67104Q518.6844 99.67104 519.16876 100.18667Q519.66876 100.68667 519.66876 101.76479L519.66876 106.03042L518.6219 106.03042L518.6219 102.10854Q518.6219 101.48354 518.5125 101.20229Q518.41876 100.92104 518.15314 100.74917Q517.8875 100.57729 517.5125 100.57729Q516.85626 100.57729 516.41876 101.01479Q515.9969 101.45229 515.9969 102.42104L515.9969 106.03042L514.9344 106.03042L514.9344 101.98354Q514.9344 101.28042 514.66876 100.93667Q514.41876 100.57729 513.84064 100.57729Q513.3875 100.57729 513.0125 100.81167Q512.6375 101.04604 512.46564 101.49917Q512.29376 101.95229 512.29376 102.79604L512.29376 106.03042L511.2469 106.03042ZM526.4969 104.03042L527.59064 104.15542Q527.34064 105.10854 526.6375 105.63979Q525.9344 106.17104 524.85626 106.17104Q523.4969 106.17104 522.6844 105.32729Q521.8875 104.48354 521.8875 102.96792Q521.8875 101.40542 522.7 100.54604Q523.5125 99.67104 524.79376 99.67104Q526.04376 99.67104 526.825 100.51479Q527.6219 101.35854 527.6219 102.90542Q527.6219 102.99917 527.6219 103.18667L522.98126 103.18667Q523.04376 104.21792 523.5594 104.76479Q524.075 105.29604 524.85626 105.29604Q525.4344 105.29604 525.84064 104.99917Q526.2625 104.68667 526.4969 104.03042ZM523.04376 102.32729L526.5125 102.32729Q526.45 101.53042 526.1219 101.13979Q525.60626 100.53042 524.8094 100.53042Q524.075 100.53042 523.575 101.01479Q523.09064 101.49917 523.04376 102.32729ZM531.54376 105.09292L531.7 106.01479Q531.2469 106.10854 530.90314 106.10854Q530.325 106.10854 530.0125 105.93667Q529.7 105.74917 529.5594 105.45229Q529.4344 105.15542 529.4344 104.20229L529.4344 100.62417L528.66876 100.62417L528.66876 99.81167L529.4344 99.81167L529.4344 98.26479L530.48126 97.63979L530.48126 99.81167L531.54376 99.81167L531.54376 100.62417L530.48126 100.62417L530.48126 104.26479Q530.48126 104.71792 530.52814 104.84292Q530.59064 104.96792 530.71564 105.04604Q530.84064 105.12417 531.075 105.12417Q531.2625 105.12417 531.54376 105.09292ZM532.2469 98.65542L532.2469 97.43667L533.3094 97.43667L533.3094 98.65542L532.2469 98.65542ZM532.2469 106.03042L532.2469 99.81167L533.3094 99.81167L533.3094 106.03042L532.2469 106.03042ZM535.2469 106.03042L535.2469 99.81167L536.1844 99.81167L536.1844 100.68667Q536.48126 100.21792 536.96564 99.95229Q537.45 99.67104 538.075 99.67104Q538.7625 99.67104 539.2 99.95229Q539.65314 100.23354 539.825 100.74917Q540.575 99.67104 541.7469 99.67104Q542.6844 99.67104 543.16876 100.18667Q543.66876 100.68667 543.66876 101.76479L543.66876 106.03042L542.6219 106.03042L542.6219 102.10854Q542.6219 101.48354 542.5125 101.20229Q542.41876 100.92104 542.15314 100.74917Q541.8875 100.57729 541.5125 100.57729Q540.85626 100.57729 540.41876 101.01479Q539.9969 101.45229 539.9969 102.42104L539.9969 106.03042L538.9344 106.03042L538.9344 101.98354Q538.9344 101.28042 538.66876 100.93667Q538.41876 100.57729 537.84064 100.57729Q537.3875 100.57729 537.0125 100.81167Q536.6375 101.04604 536.46564 101.49917Q536.29376 101.95229 536.29376 102.79604L536.29376 106.03042L535.2469 106.03042ZM550.4969 104.03042L551.59064 104.15542Q551.34064 105.10854 550.6375 105.63979Q549.9344 106.17104 548.85626 106.17104Q547.4969 106.17104 546.6844 105.32729Q545.8875 104.48354 545.8875 102.96792Q545.8875 101.40542 546.7 100.54604Q547.5125 99.67104 548.79376 99.67104Q550.04376 99.67104 550.825 100.51479Q551.6219 101.35854 551.6219 102.90542Q551.6219 102.99917 551.6219 103.18667L546.98126 103.18667Q547.04376 104.21792 547.5594 104.76479Q548.075 105.29604 548.85626 105.29604Q549.4344 105.29604 549.84064 104.99917Q550.2625 104.68667 550.4969 104.03042ZM547.04376 102.32729L550.5125 102.32729Q550.45 101.53042 550.1219 101.13979Q549.60626 100.53042 548.8094 100.53042Q548.075 100.53042 547.575 101.01479Q547.09064 101.49917 547.04376 102.32729ZM552.825 104.17104L553.85626 104.01479Q553.95 104.63979 554.34064 104.96792Q554.7469 105.29604 555.48126 105.29604Q556.2 105.29604 556.54376 105.01479Q556.90314 104.71792 556.90314 104.31167Q556.90314 103.95229 556.59064 103.74917Q556.3719 103.60854 555.5125 103.38979Q554.35626 103.09292 553.90314 102.88979Q553.46564 102.67104 553.23126 102.29604Q552.9969 101.92104 552.9969 101.45229Q552.9969 101.04604 553.1844 100.68667Q553.3719 100.32729 553.7 100.09292Q553.95 99.92104 554.3719 99.79604Q554.79376 99.67104 555.29376 99.67104Q556.0125 99.67104 556.5594 99.88979Q557.1219 100.09292 557.3875 100.45229Q557.65314 100.81167 557.7469 101.40542L556.71564 101.54604Q556.65314 101.07729 556.3094 100.81167Q555.98126 100.53042 555.35626 100.53042Q554.6375 100.53042 554.325 100.78042Q554.0125 101.01479 554.0125 101.34292Q554.0125 101.54604 554.1375 101.70229Q554.27814 101.87417 554.54376 101.98354Q554.7 102.04604 555.48126 102.24917Q556.60626 102.56167 557.04376 102.74917Q557.48126 102.93667 557.73126 103.29604Q557.98126 103.65542 557.98126 104.20229Q557.98126 104.73354 557.66876 105.20229Q557.3719 105.65542 556.79376 105.92104Q556.21564 106.17104 555.48126 106.17104Q554.2625 106.17104 553.6219 105.67104Q552.9969 105.15542 552.825 104.17104ZM560.5125 106.03042L560.5125 104.82729L561.71564 104.82729L561.71564 106.03042Q561.71564 106.68667 561.48126 107.09292Q561.2469 107.51479 560.7469 107.73354L560.45 107.28042Q560.77814 107.13979 560.9344 106.84292Q561.09064 106.56167 561.1219 106.03042L560.5125 106.03042ZM565.85626 102.92104Q565.85626 101.18667 566.8094 100.35854Q567.60626 99.67104 568.7625 99.67104Q570.04376 99.67104 570.85626 100.51479Q571.6844 101.34292 571.6844 102.82729Q571.6844 104.03042 571.325 104.71792Q570.96564 105.40542 570.2625 105.79604Q569.575 106.17104 568.7625 106.17104Q567.46564 106.17104 566.65314 105.34292Q565.85626 104.49917 565.85626 102.92104ZM566.9344 102.92104Q566.9344 104.10854 567.45 104.70229Q567.98126 105.29604 568.7625 105.29604Q569.5594 105.29604 570.075 104.70229Q570.59064 104.10854 570.59064 102.88979Q570.59064 101.73354 570.0594 101.13979Q569.54376 100.54604 568.7625 100.54604Q567.98126 100.54604 567.45 101.13979Q566.9344 101.71792 566.9344 102.92104ZM573.2469 106.03042L573.2469 99.81167L574.1844 99.81167L574.1844 100.68667Q574.8719 99.67104 576.16876 99.67104Q576.73126 99.67104 577.2 99.87417Q577.6844 100.07729 577.91876 100.40542Q578.15314 100.73354 578.2469 101.17104Q578.29376 101.46792 578.29376 102.20229L578.29376 106.03042L577.2469 106.03042L577.2469 102.24917Q577.2469 101.59292 577.1219 101.28042Q576.9969 100.96792 576.6844 100.78042Q576.3719 100.57729 575.95 100.57729Q575.27814 100.57729 574.77814 101.01479Q574.29376 101.43667 574.29376 102.62417L574.29376 106.03042L573.2469 106.03042ZM585.54376 105.09292L585.7 106.01479Q585.2469 106.10854 584.90314 106.10854Q584.325 106.10854 584.0125 105.93667Q583.7 105.74917 583.5594 105.45229Q583.4344 105.15542 583.4344 104.20229L583.4344 100.62417L582.66876 100.62417L582.66876 99.81167L583.4344 99.81167L583.4344 98.26479L584.48126 97.63979L584.48126 99.81167L585.54376 99.81167L585.54376 100.62417L584.48126 100.62417L584.48126 104.26479Q584.48126 104.71792 584.52814 104.84292Q584.59064 104.96792 584.71564 105.04604Q584.84064 105.12417 585.075 105.12417Q585.2625 105.12417 585.54376 105.09292ZM586.2469 106.03042L586.2469 97.43667L587.29376 97.43667L587.29376 100.51479Q588.02814 99.67104 589.15314 99.67104Q589.85626 99.67104 590.35626 99.95229Q590.8719 100.21792 591.09064 100.70229Q591.3094 101.17104 591.3094 102.09292L591.3094 106.03042L590.2625 106.03042L590.2625 102.09292Q590.2625 101.29604 589.91876 100.93667Q589.575 100.57729 588.95 100.57729Q588.48126 100.57729 588.0594 100.82729Q587.65314 101.06167 587.46564 101.48354Q587.29376 101.88979 587.29376 102.62417L587.29376 106.03042L586.2469 106.03042ZM597.4969 104.03042L598.59064 104.15542Q598.34064 105.10854 597.6375 105.63979Q596.9344 106.17104 595.85626 106.17104Q594.4969 106.17104 593.6844 105.32729Q592.8875 104.48354 592.8875 102.96792Q592.8875 101.40542 593.7 100.54604Q594.5125 99.67104 595.79376 99.67104Q597.04376 99.67104 597.825 100.51479Q598.6219 101.35854 598.6219 102.90542Q598.6219 102.99917 598.6219 103.18667L593.98126 103.18667Q594.04376 104.21792 594.5594 104.76479Q595.075 105.29604 595.85626 105.29604Q596.4344 105.29604 596.84064 104.99917Q597.2625 104.68667 597.4969 104.03042ZM594.04376 102.32729L597.5125 102.32729Q597.45 101.53042 597.1219 101.13979Q596.60626 100.53042 595.8094 100.53042Q595.075 100.53042 594.575 101.01479Q594.09064 101.49917 594.04376 102.32729ZM602.825 104.17104L603.85626 104.01479Q603.95 104.63979 604.34064 104.96792Q604.7469 105.29604 605.48126 105.29604Q606.2 105.29604 606.54376 105.01479Q606.90314 104.71792 606.90314 104.31167Q606.90314 103.95229 606.59064 103.74917Q606.3719 103.60854 605.5125 103.38979Q604.35626 103.09292 603.90314 102.88979Q603.46564 102.67104 603.23126 102.29604Q602.9969 101.92104 602.9969 101.45229Q602.9969 101.04604 603.1844 100.68667Q603.3719 100.32729 603.7 100.09292Q603.95 99.92104 604.3719 99.79604Q604.79376 99.67104 605.29376 99.67104Q606.0125 99.67104 606.5594 99.88979Q607.1219 100.09292 607.3875 100.45229Q607.65314 100.81167 607.7469 101.40542L606.71564 101.54604Q606.65314 101.07729 606.3094 100.81167Q605.98126 100.53042 605.35626 100.53042Q604.6375 100.53042 604.325 100.78042Q604.0125 101.01479 604.0125 101.34292Q604.0125 101.54604 604.1375 101.70229Q604.27814 101.87417 604.54376 101.98354Q604.7 102.04604 605.48126 102.24917Q606.60626 102.56167 607.04376 102.74917Q607.48126 102.93667 607.73126 103.29604Q607.98126 103.65542 607.98126 104.20229Q607.98126 104.73354 607.66876 105.20229Q607.3719 105.65542 606.79376 105.92104Q606.21564 106.17104 605.48126 106.17104Q604.2625 106.17104 603.6219 105.67104Q602.9969 105.15542 602.825 104.17104ZM610.2469 98.65542L610.2469 97.43667L611.3094 97.43667L611.3094 98.65542L610.2469 98.65542ZM610.2469 106.03042L610.2469 99.81167L611.3094 99.81167L611.3094 106.03042L610.2469 106.03042ZM617.27814 106.03042L617.27814 105.24917Q616.6844 106.17104 615.54376 106.17104Q614.79376 106.17104 614.16876 105.76479Q613.54376 105.34292 613.2 104.60854Q612.85626 103.87417 612.85626 102.92104Q612.85626 101.99917 613.16876 101.23354Q613.48126 100.46792 614.10626 100.07729Q614.73126 99.67104 615.4969 99.67104Q616.0594 99.67104 616.4969 99.90542Q616.9344 100.13979 617.21564 100.51479L617.21564 97.43667L618.2625 97.43667L618.2625 106.03042L617.27814 106.03042ZM613.95 102.92104Q613.95 104.12417 614.45 104.71792Q614.95 105.29604 615.6375 105.29604Q616.325 105.29604 616.8094 104.73354Q617.29376 104.17104 617.29376 103.01479Q617.29376 101.73354 616.79376 101.13979Q616.3094 100.54604 615.59064 100.54604Q614.8875 100.54604 614.41876 101.12417Q613.95 101.68667 613.95 102.92104ZM624.4969 104.03042L625.59064 104.15542Q625.34064 105.10854 624.6375 105.63979Q623.9344 106.17104 622.85626 106.17104Q621.4969 106.17104 620.6844 105.32729Q619.8875 104.48354 619.8875 102.96792Q619.8875 101.40542 620.7 100.54604Q621.5125 99.67104 622.79376 99.67104Q624.04376 99.67104 624.825 100.51479Q625.6219 101.35854 625.6219 102.90542Q625.6219 102.99917 625.6219 103.18667L620.98126 103.18667Q621.04376 104.21792 621.5594 104.76479Q622.075 105.29604 622.85626 105.29604Q623.4344 105.29604 623.84064 104.99917Q624.2625 104.68667 624.4969 104.03042ZM621.04376 102.32729L624.5125 102.32729Q624.45 101.53042 624.1219 101.13979Q623.60626 100.53042 622.8094 100.53042Q622.075 100.53042 621.575 101.01479Q621.09064 101.49917 621.04376 102.32729Z" fill-rule="nonzero"/><path fill="#9e9e9e" d="M591.95 120.76479L593.0125 120.62417Q593.1844 121.51479 593.6219 121.92104Q594.0594 122.31167 594.6844 122.31167Q595.4344 122.31167 595.95 121.79604Q596.46564 121.28042 596.46564 120.51479Q596.46564 119.79604 595.98126 119.32729Q595.5125 118.84292 594.77814 118.84292Q594.48126 118.84292 594.02814 118.96792L594.15314 118.03042Q594.2625 118.04604 594.325 118.04604Q594.9969 118.04604 595.52814 117.70229Q596.075 117.34292 596.075 116.60854Q596.075 116.03042 595.6844 115.65542Q595.29376 115.26479 594.66876 115.26479Q594.0594 115.26479 593.6375 115.65542Q593.23126 116.04604 593.1219 116.81167L592.0594 116.62417Q592.2469 115.57729 592.9344 114.99917Q593.6219 114.40542 594.6375 114.40542Q595.34064 114.40542 595.9344 114.71792Q596.52814 115.01479 596.84064 115.53042Q597.15314 116.04604 597.15314 116.63979Q597.15314 117.18667 596.85626 117.65542Q596.5594 118.10854 595.98126 118.37417Q596.73126 118.54604 597.15314 119.10854Q597.575 119.65542 597.575 120.49917Q597.575 121.62417 596.7469 122.40542Q595.9344 123.18667 594.6844 123.18667Q593.5594 123.18667 592.8094 122.51479Q592.0594 121.82729 591.95 120.76479ZM602.325 123.03042L602.325 120.96792L598.60626 120.96792L598.60626 119.99917L602.52814 114.43667L603.3875 114.43667L603.3875 119.99917L604.54376 119.99917L604.54376 120.96792L603.3875 120.96792L603.3875 123.03042L602.325 123.03042ZM602.325 119.99917L602.325 116.13979L599.6375 119.99917L602.325 119.99917ZM606.54376 123.03042L606.54376 121.82729L607.7469 121.82729L607.7469 123.03042L606.54376 123.03042ZM608.95 120.76479L610.0125 120.62417Q610.1844 121.51479 610.6219 121.92104Q611.0594 122.31167 611.6844 122.31167Q612.4344 122.31167 612.95 121.79604Q613.46564 121.28042 613.46564 120.51479Q613.46564 119.79604 612.98126 119.32729Q612.5125 118.84292 611.77814 118.84292Q611.48126 118.84292 611.02814 118.96792L611.15314 118.03042Q611.2625 118.04604 611.325 118.04604Q611.9969 118.04604 612.52814 117.70229Q613.075 117.34292 613.075 116.60854Q613.075 116.03042 612.6844 115.65542Q612.29376 115.26479 611.66876 115.26479Q611.0594 115.26479 610.6375 115.65542Q610.23126 116.04604 610.1219 116.81167L609.0594 116.62417Q609.2469 115.57729 609.9344 114.99917Q610.6219 114.40542 611.6375 114.40542Q612.34064 114.40542 612.9344 114.71792Q613.52814 115.01479 613.84064 115.53042Q614.15314 116.04604 614.15314 116.63979Q614.15314 117.18667 613.85626 117.65542Q613.5594 118.10854 612.98126 118.37417Q613.73126 118.54604 614.15314 119.10854Q614.575 119.65542 614.575 120.49917Q614.575 121.62417 613.7469 122.40542Q612.9344 123.18667 611.6844 123.18667Q610.5594 123.18667 609.8094 122.51479Q609.0594 121.82729 608.95 120.76479ZM616.15314 116.49917Q616.15314 115.57729 616.60626 114.93667Q617.075 114.29604 617.95 114.29604Q618.7625 114.29604 619.29376 114.87417Q619.825 115.45229 619.825 116.56167Q619.825 117.65542 619.27814 118.24917Q618.7469 118.82729 617.96564 118.82729Q617.1844 118.82729 616.66876 118.24917Q616.15314 117.67104 616.15314 116.49917ZM617.98126 115.01479Q617.59064 115.01479 617.325 115.35854Q617.075 115.70229 617.075 116.60854Q617.075 117.43667 617.325 117.78042Q617.59064 118.10854 617.98126 118.10854Q618.3875 118.10854 618.6375 117.76479Q618.90314 117.42104 618.90314 116.53042Q618.90314 115.68667 618.6375 115.35854Q618.3719 115.01479 617.98126 115.01479ZM617.98126 123.34292L622.6844 114.29604L623.54376 114.29604L618.85626 123.34292L617.98126 123.34292ZM621.7 121.01479Q621.7 120.09292 622.15314 119.45229Q622.6219 118.81167 623.5125 118.81167Q624.325 118.81167 624.85626 119.38979Q625.3875 119.95229 625.3875 121.07729Q625.3875 122.17104 624.84064 122.76479Q624.3094 123.34292 623.5125 123.34292Q622.7469 123.34292 622.21564 122.76479Q621.7 122.18667 621.7 121.01479ZM623.54376 119.53042Q623.1375 119.53042 622.8719 119.87417Q622.6219 120.21792 622.6219 121.12417Q622.6219 121.93667 622.8875 122.28042Q623.15314 122.62417 623.54376 122.62417Q623.9344 122.62417 624.2 122.28042Q624.46564 121.93667 624.46564 121.03042Q624.46564 120.20229 624.2 119.87417Q623.9344 119.53042 623.54376 119.53042Z" fill-rule="nonzero"/><path stroke="#757575" stroke-width="1.0" stroke-linecap="butt" d="M626.45 110.53042L495.45 110.53042L462.26523 110.53042" fill-rule="nonzero"/><path fill="#9e9e9e" d="M464.26523 110.53042C464.26523 109.42585 463.36978 108.53042 462.26523 108.53042C461.16064 108.53042 460.26523 109.42585 460.26523 110.53042C460.26523 111.634995 461.16064 112.53042 462.26523 112.53042C463.36978 112.53042 464.26523 111.634995 464.26523 110.53042" fill-rule="nonzero"/></svg>