<svg version="1.1" viewBox="0.0 0.0 600.0 371.0" fill="none" stroke="none" stroke-linecap="square" stroke-miterlimit="10" width="600" height="371" xmlns:xlink="http://www.w3.org/1999/xlink" xmlns="http://www.w3.org/2000/svg"><path fill="#ffffff" d="M0 0L600.0 0L600.0 371.0L0 371.0L0 0Z" fill-rule="nonzero"/><path stroke="#333333" stroke-width="1.0" stroke-linecap="butt" d="M45.5 332.5L581.5 332.5" fill-rule="nonzero"/><path stroke="#cccccc" stroke-width="1.0" stroke-linecap="butt" d="M45.5 255.5L581.5 255.5" fill-rule="nonzero"/><path stroke="#cccccc" stroke-width="1.0" stroke-linecap="butt" d="M45.5 179.5L581.5 179.5" fill-rule="nonzero"/><path stroke="#cccccc" stroke-width="1.0" stroke-linecap="butt" d="M45.5 102.5L581.5 102.5" fill-rule="nonzero"/><path stroke="#cccccc" stroke-width="1.0" stroke-linecap="butt" d="M45.5 25.5L581.5 25.5" fill-rule="nonzero"/><clipPath id="id_0"><path d="M45.55 25.55L581.45 25.55L581.45 332.45L45.55 332.45L45.55 25.55Z" clip-rule="nonzero"/></clipPath><path stroke="#000000" stroke-width="2.0" stroke-linecap="butt" stroke-opacity="0.0" clip-path="url(#id_0)" d="M110.0 332.0L68.0 332.0L68.0 288.0C68.0 286.89542 68.89543 286.0 70.0 286.0L108.0 286.0C109.10457 286.0 110.0 286.89542 110.0 288.0Z" fill-rule="nonzero"/><path fill="#4285f4" clip-path="url(#id_0)" d="M110.0 332.0L68.0 332.0L68.0 288.0C68.0 286.89542 68.89543 286.0 70.0 286.0L108.0 286.0C109.10457 286.0 110.0 286.89542 110.0 288.0Z" fill-rule="nonzero"/><path stroke="#000000" stroke-width="2.0" stroke-linecap="butt" stroke-opacity="0.0" clip-path="url(#id_0)" d="M174.0 332.0L132.0 332.0L132.0 227.0C132.0 225.89543 132.89543 225.0 134.0 225.0L172.0 225.0C173.10457 225.0 174.0 225.89543 174.0 227.0Z" fill-rule="nonzero"/><path fill="#4285f4" clip-path="url(#id_0)" d="M174.0 332.0L132.0 332.0L132.0 227.0C132.0 225.89543 132.89543 225.0 134.0 225.0L172.0 225.0C173.10457 225.0 174.0 225.89543 174.0 227.0Z" fill-rule="nonzero"/><path stroke="#000000" stroke-width="2.0" stroke-linecap="butt" stroke-opacity="0.0" clip-path="url(#id_0)" d="M238.0 332.0L196.0 332.0L196.0 288.0C196.0 286.89542 196.89543 286.0 198.0 286.0L236.0 286.0C237.10457 286.0 238.0 286.89542 238.0 288.0Z" fill-rule="nonzero"/><path fill="#4285f4" clip-path="url(#id_0)" d="M238.0 332.0L196.0 332.0L196.0 288.0C196.0 286.89542 196.89543 286.0 198.0 286.0L236.0 286.0C237.10457 286.0 238.0 286.89542 238.0 288.0Z" fill-rule="nonzero"/><path stroke="#000000" stroke-width="2.0" stroke-linecap="butt" stroke-opacity="0.0" clip-path="url(#id_0)" d="M302.0 332.0L260.0 332.0L260.0 104.0C260.0 102.89543 260.89542 102.0 262.0 102.0L300.0 102.0C301.10458 102.0 302.0 102.89543 302.0 104.0Z" fill-rule="nonzero"/><path fill="#4285f4" clip-path="url(#id_0)" d="M302.0 332.0L260.0 332.0L260.0 104.0C260.0 102.89543 260.89542 102.0 262.0 102.0L300.0 102.0C301.10458 102.0 302.0 102.89543 302.0 104.0Z" fill-rule="nonzero"/><path stroke="#000000" stroke-width="2.0" stroke-linecap="butt" stroke-opacity="0.0" clip-path="url(#id_0)" d="M367.0 332.0L325.0 332.0L325.0 273.0C325.0 271.89542 325.89542 271.0 327.0 271.0L365.0 271.0C366.10458 271.0 367.0 271.89542 367.0 273.0Z" fill-rule="nonzero"/><path fill="#4285f4" clip-path="url(#id_0)" d="M367.0 332.0L325.0 332.0L325.0 273.0C325.0 271.89542 325.89542 271.0 327.0 271.0L365.0 271.0C366.10458 271.0 367.0 271.89542 367.0 273.0Z" fill-rule="nonzero"/><path stroke="#000000" stroke-width="2.0" stroke-linecap="butt" stroke-opacity="0.0" clip-path="url(#id_0)" d="M431.0 332.0L389.0 332.0L389.0 89.0C389.0 87.89543 389.89542 87.0 391.0 87.0L429.0 87.0C430.10458 87.0 431.0 87.89543 431.0 89.0Z" fill-rule="nonzero"/><path fill="#4285f4" clip-path="url(#id_0)" d="M431.0 332.0L389.0 332.0L389.0 89.0C389.0 87.89543 389.89542 87.0 391.0 87.0L429.0 87.0C430.10458 87.0 431.0 87.89543 431.0 89.0Z" fill-rule="nonzero"/><path stroke="#000000" stroke-width="2.0" stroke-linecap="butt" stroke-opacity="0.0" clip-path="url(#id_0)" d="M495.0 332.0L453.0 332.0L453.0 319.0C453.0 317.89542 453.89542 317.0 455.0 317.0L493.0 317.0C494.10458 317.0 495.0 317.89542 495.0 319.0Z" fill-rule="nonzero"/><path fill="#4285f4" clip-path="url(#id_0)" d="M495.0 332.0L453.0 332.0L453.0 319.0C453.0 317.89542 453.89542 317.0 455.0 317.0L493.0 317.0C494.10458 317.0 495.0 317.89542 495.0 319.0Z" fill-rule="nonzero"/><path stroke="#000000" stroke-width="2.0" stroke-linecap="butt" stroke-opacity="0.0" clip-path="url(#id_0)" d="M559.0 332.0L517.0 332.0L517.0 242.0C517.0 240.89543 517.89545 240.0 519.0 240.0L557.0 240.0C558.10455 240.0 559.0 240.89543 559.0 242.0Z" fill-rule="nonzero"/><path fill="#4285f4" clip-path="url(#id_0)" d="M559.0 332.0L517.0 332.0L517.0 242.0C517.0 240.89543 517.89545 240.0 519.0 240.0L557.0 240.0C558.10455 240.0 559.0 240.89543 559.0 242.0Z" fill-rule="nonzero"/><path stroke="#4285f4" stroke-width="3.0" stroke-linejoin="round" stroke-linecap="round" d="M87.78125 298.41812L88.59375 298.41812Q89.375 298.4025 89.8125 298.01187Q90.25 297.62125 90.25 296.94937Q90.25 295.44937 88.75 295.44937Q88.046875 295.44937 87.625 295.85562Q87.21875 296.26187 87.21875 296.91812L86.125 296.91812Q86.125 295.9025 86.859375 295.23062Q87.609375 294.55875 88.75 294.55875Q89.953125 294.55875 90.640625 295.19937Q91.328125 295.84 91.328125 296.98062Q91.328125 297.54312 90.96875 298.05875Q90.609375 298.57437 89.984375 298.84Q90.6875 299.05875 91.0625 299.57437Q91.453125 300.09 91.453125 300.84Q91.453125 301.98062 90.703125 302.66812Q89.953125 303.34 88.75 303.34Q87.5625 303.34 86.796875 302.68375Q86.046875 302.0275 86.046875 300.965L87.140625 300.965Q87.140625 301.63687 87.578125 302.04312Q88.015625 302.44937 88.765625 302.44937Q89.546875 302.44937 89.953125 302.04312Q90.375 301.62125 90.375 300.85562Q90.375 300.12125 89.921875 299.73062Q89.46875 299.32437 88.59375 299.30875L87.78125 299.30875L87.78125 298.41812Z" fill-rule="nonzero"/><path fill="#ffffff" d="M87.78125 298.41812L88.59375 298.41812Q89.375 298.4025 89.8125 298.01187Q90.25 297.62125 90.25 296.94937Q90.25 295.44937 88.75 295.44937Q88.046875 295.44937 87.625 295.85562Q87.21875 296.26187 87.21875 296.91812L86.125 296.91812Q86.125 295.9025 86.859375 295.23062Q87.609375 294.55875 88.75 294.55875Q89.953125 294.55875 90.640625 295.19937Q91.328125 295.84 91.328125 296.98062Q91.328125 297.54312 90.96875 298.05875Q90.609375 298.57437 89.984375 298.84Q90.6875 299.05875 91.0625 299.57437Q91.453125 300.09 91.453125 300.84Q91.453125 301.98062 90.703125 302.66812Q89.953125 303.34 88.75 303.34Q87.5625 303.34 86.796875 302.68375Q86.046875 302.0275 86.046875 300.965L87.140625 300.965Q87.140625 301.63687 87.578125 302.04312Q88.015625 302.44937 88.765625 302.44937Q89.546875 302.44937 89.953125 302.04312Q90.375 301.62125 90.375 300.85562Q90.375 300.12125 89.921875 299.73062Q89.46875 299.32437 88.59375 299.30875L87.78125 299.30875L87.78125 298.41812Z" fill-rule="nonzero"/><path stroke="#4285f4" stroke-width="3.0" stroke-linejoin="round" stroke-linecap="round" d="M155.71875 233.91313L152.1875 241.835L151.04688 241.835L154.5625 234.19438L149.95312 234.19438L149.95312 233.30376L155.71875 233.30376L155.71875 233.91313Z" fill-rule="nonzero"/><path fill="#ffffff" d="M155.71875 233.91313L152.1875 241.835L151.04688 241.835L154.5625 234.19438L149.95312 234.19438L149.95312 233.30376L155.71875 233.30376L155.71875 233.91313Z" fill-rule="nonzero"/><path stroke="#4285f4" stroke-width="3.0" stroke-linejoin="round" stroke-linecap="round" d="M215.78125 298.41812L216.59375 298.41812Q217.375 298.4025 217.8125 298.01187Q218.25 297.62125 218.25 296.94937Q218.25 295.44937 216.75 295.44937Q216.04688 295.44937 215.625 295.85562Q215.21875 296.26187 215.21875 296.91812L214.125 296.91812Q214.125 295.9025 214.85938 295.23062Q215.60938 294.55875 216.75 294.55875Q217.95312 294.55875 218.64062 295.19937Q219.32812 295.84 219.32812 296.98062Q219.32812 297.54312 218.96875 298.05875Q218.60938 298.57437 217.98438 298.84Q218.6875 299.05875 219.0625 299.57437Q219.45312 300.09 219.45312 300.84Q219.45312 301.98062 218.70312 302.66812Q217.95312 303.34 216.75 303.34Q215.5625 303.34 214.79688 302.68375Q214.04688 302.0275 214.04688 300.965L215.14062 300.965Q215.14062 301.63687 215.57812 302.04312Q216.01562 302.44937 216.76562 302.44937Q217.54688 302.44937 217.95312 302.04312Q218.375 301.62125 218.375 300.85562Q218.375 300.12125 217.92188 299.73062Q217.46875 299.32437 216.59375 299.30875L215.78125 299.30875L215.78125 298.41812Z" fill-rule="nonzero"/><path fill="#ffffff" d="M215.78125 298.41812L216.59375 298.41812Q217.375 298.4025 217.8125 298.01187Q218.25 297.62125 218.25 296.94937Q218.25 295.44937 216.75 295.44937Q216.04688 295.44937 215.625 295.85562Q215.21875 296.26187 215.21875 296.91812L214.125 296.91812Q214.125 295.9025 214.85938 295.23062Q215.60938 294.55875 216.75 294.55875Q217.95312 294.55875 218.64062 295.19937Q219.32812 295.84 219.32812 296.98062Q219.32812 297.54312 218.96875 298.05875Q218.60938 298.57437 217.98438 298.84Q218.6875 299.05875 219.0625 299.57437Q219.45312 300.09 219.45312 300.84Q219.45312 301.98062 218.70312 302.66812Q217.95312 303.34 216.75 303.34Q215.5625 303.34 214.79688 302.68375Q214.04688 302.0275 214.04688 300.965L215.14062 300.965Q215.14062 301.63687 215.57812 302.04312Q216.01562 302.44937 216.76562 302.44937Q217.54688 302.44937 217.95312 302.04312Q218.375 301.62125 218.375 300.85562Q218.375 300.12125 217.92188 299.73062Q217.46875 299.32437 216.59375 299.30875L215.78125 299.30875L215.78125 298.41812Z" fill-rule="nonzero"/><path stroke="#4285f4" stroke-width="3.0" stroke-linejoin="round" stroke-linecap="round" d="M278.26562 119.075L277.1875 119.075L277.1875 111.85625L275.0 112.65312L275.0 111.66875L278.10938 110.49687L278.26562 110.49687L278.26562 119.075ZM282.20312 114.79375L282.64062 110.54375L287.01562 110.54375L287.01562 111.54375L283.5625 111.54375L283.29688 113.87187Q283.9375 113.49687 284.73438 113.49687Q285.89062 113.49687 286.57812 114.27812Q287.26562 115.04375 287.26562 116.35625Q287.26562 117.66875 286.54688 118.43437Q285.84375 119.2 284.5625 119.2Q283.4375 119.2 282.71875 118.575Q282.0 117.93437 281.90625 116.825L282.92188 116.825Q283.03125 117.55937 283.45312 117.93437Q283.875 118.30937 284.5625 118.30937Q285.3125 118.30937 285.75 117.79375Q286.1875 117.27812 286.1875 116.37187Q286.1875 115.5125 285.71875 114.99687Q285.25 114.48125 284.46875 114.48125Q283.76562 114.48125 283.35938 114.77812L283.07812 115.0125L282.20312 114.79375Z" fill-rule="nonzero"/><path fill="#ffffff" d="M278.26562 119.075L277.1875 119.075L277.1875 111.85625L275.0 112.65312L275.0 111.66875L278.10938 110.49687L278.26562 110.49687L278.26562 119.075ZM282.20312 114.79375L282.64062 110.54375L287.01562 110.54375L287.01562 111.54375L283.5625 111.54375L283.29688 113.87187Q283.9375 113.49687 284.73438 113.49687Q285.89062 113.49687 286.57812 114.27812Q287.26562 115.04375 287.26562 116.35625Q287.26562 117.66875 286.54688 118.43437Q285.84375 119.2 284.5625 119.2Q283.4375 119.2 282.71875 118.575Q282.0 117.93437 281.90625 116.825L282.92188 116.825Q283.03125 117.55937 283.45312 117.93437Q283.875 118.30937 284.5625 118.30937Q285.3125 118.30937 285.75 117.79375Q286.1875 117.27812 286.1875 116.37187Q286.1875 115.5125 285.71875 114.99687Q285.25 114.48125 284.46875 114.48125Q283.76562 114.48125 283.35938 114.77812L283.07812 115.0125L282.20312 114.79375Z" fill-rule="nonzero"/><path stroke="#4285f4" stroke-width="3.0" stroke-linejoin="round" stroke-linecap="round" d="M347.78125 285.01062L348.96875 285.01062L348.96875 285.88562L347.78125 285.88562L347.78125 287.87L346.70312 287.87L346.70312 285.88562L342.8125 285.88562L342.8125 285.245L346.625 279.33875L347.78125 279.33875L347.78125 285.01062ZM344.04688 285.01062L346.70312 285.01062L346.70312 280.82312L346.5625 281.0575L344.04688 285.01062Z" fill-rule="nonzero"/><path fill="#ffffff" d="M347.78125 285.01062L348.96875 285.01062L348.96875 285.88562L347.78125 285.88562L347.78125 287.87L346.70312 287.87L346.70312 285.88562L342.8125 285.88562L342.8125 285.245L346.625 279.33875L347.78125 279.33875L347.78125 285.01062ZM344.04688 285.01062L346.70312 285.01062L346.70312 280.82312L346.5625 281.0575L344.04688 285.01062Z" fill-rule="nonzero"/><path stroke="#4285f4" stroke-width="3.0" stroke-linejoin="round" stroke-linecap="round" d="M407.26562 103.73L406.1875 103.73L406.1875 96.51125L404.0 97.30813L404.0 96.32375L407.10938 95.15188L407.26562 95.15188L407.26562 103.73ZM414.96875 95.19875L414.96875 96.105L414.76562 96.105Q413.5 96.13625 412.75 96.87063Q412.0 97.58938 411.875 98.90188Q412.5625 98.13625 413.71875 98.13625Q414.82812 98.13625 415.5 98.9175Q416.17188 99.69875 416.17188 100.94875Q416.17188 102.26125 415.45312 103.05813Q414.73438 103.855 413.51562 103.855Q412.29688 103.855 411.53125 102.9175Q410.78125 101.96438 410.78125 100.48L410.78125 100.07375Q410.78125 97.71438 411.78125 96.46438Q412.78125 95.21438 414.76562 95.19875L414.96875 95.19875ZM413.54688 99.0425Q412.98438 99.0425 412.51562 99.37063Q412.04688 99.69875 411.85938 100.21438L411.85938 100.605Q411.85938 101.6675 412.32812 102.30813Q412.8125 102.94875 413.51562 102.94875Q414.25 102.94875 414.67188 102.4175Q415.09375 101.87063 415.09375 100.99563Q415.09375 100.12063 414.67188 99.58938Q414.25 99.0425 413.54688 99.0425Z" fill-rule="nonzero"/><path fill="#ffffff" d="M407.26562 103.73L406.1875 103.73L406.1875 96.51125L404.0 97.30813L404.0 96.32375L407.10938 95.15188L407.26562 95.15188L407.26562 103.73ZM414.96875 95.19875L414.96875 96.105L414.76562 96.105Q413.5 96.13625 412.75 96.87063Q412.0 97.58938 411.875 98.90188Q412.5625 98.13625 413.71875 98.13625Q414.82812 98.13625 415.5 98.9175Q416.17188 99.69875 416.17188 100.94875Q416.17188 102.26125 415.45312 103.05813Q414.73438 103.855 413.51562 103.855Q412.29688 103.855 411.53125 102.9175Q410.78125 101.96438 410.78125 100.48L410.78125 100.07375Q410.78125 97.71438 411.78125 96.46438Q412.78125 95.21438 414.76562 95.19875L414.96875 95.19875ZM413.54688 99.0425Q412.98438 99.0425 412.51562 99.37063Q412.04688 99.69875 411.85938 100.21438L411.85938 100.605Q411.85938 101.6675 412.32812 102.30813Q412.8125 102.94875 413.51562 102.94875Q414.25 102.94875 414.67188 102.4175Q415.09375 101.87063 415.09375 100.99563Q415.09375 100.12063 414.67188 99.58938Q414.25 99.0425 413.54688 99.0425Z" fill-rule="nonzero"/><path stroke="#ffffff" stroke-width="3.0" stroke-linejoin="round" stroke-linecap="round" d="M474.76562 302.105L473.6875 302.105L473.6875 294.88626L471.5 295.68314L471.5 294.69876L474.60938 293.5269L474.76562 293.5269L474.76562 302.105Z" fill-rule="nonzero"/><path fill="#4285f4" d="M474.76562 302.105L473.6875 302.105L473.6875 294.88626L471.5 295.68314L471.5 294.69876L474.60938 293.5269L474.76562 293.5269L474.76562 302.105Z" fill-rule="nonzero"/><path stroke="#4285f4" stroke-width="3.0" stroke-linejoin="round" stroke-linecap="round" d="M539.46875 248.64874L539.46875 249.555L539.2656 249.555Q538.0 249.58624 537.25 250.32062Q536.5 251.03937 536.375 252.35187Q537.0625 251.58624 538.21875 251.58624Q539.3281 251.58624 540.0 252.3675Q540.6719 253.14874 540.6719 254.39874Q540.6719 255.71124 539.9531 256.50812Q539.2344 257.305 538.0156 257.305Q536.7969 257.305 536.03125 256.3675Q535.28125 255.41437 535.28125 253.93L535.28125 253.52374Q535.28125 251.16437 536.28125 249.91437Q537.28125 248.66437 539.2656 248.64874L539.46875 248.64874ZM538.0469 252.4925Q537.4844 252.4925 537.0156 252.82062Q536.5469 253.14874 536.3594 253.66437L536.3594 254.055Q536.3594 255.1175 536.8281 255.75812Q537.3125 256.39874 538.0156 256.39874Q538.75 256.39874 539.1719 255.8675Q539.59375 255.32062 539.59375 254.44562Q539.59375 253.57062 539.1719 253.03937Q538.75 252.4925 538.0469 252.4925Z" fill-rule="nonzero"/><path fill="#ffffff" d="M539.46875 248.64874L539.46875 249.555L539.2656 249.555Q538.0 249.58624 537.25 250.32062Q536.5 251.03937 536.375 252.35187Q537.0625 251.58624 538.21875 251.58624Q539.3281 251.58624 540.0 252.3675Q540.6719 253.14874 540.6719 254.39874Q540.6719 255.71124 539.9531 256.50812Q539.2344 257.305 538.0156 257.305Q536.7969 257.305 536.03125 256.3675Q535.28125 255.41437 535.28125 253.93L535.28125 253.52374Q535.28125 251.16437 536.28125 249.91437Q537.28125 248.66437 539.2656 248.64874L539.46875 248.64874ZM538.0469 252.4925Q537.4844 252.4925 537.0156 252.82062Q536.5469 253.14874 536.3594 253.66437L536.3594 254.055Q536.3594 255.1175 536.8281 255.75812Q537.3125 256.39874 538.0156 256.39874Q538.75 256.39874 539.1719 255.8675Q539.59375 255.32062 539.59375 254.44562Q539.59375 253.57062 539.1719 253.03937Q538.75 252.4925 538.0469 252.4925Z" fill-rule="nonzero"/><path fill="#000000" d="M33.05 332.21564Q33.05 330.6844 33.3625 329.7625Q33.675 328.825 34.284374 328.325Q34.909374 327.825 35.846874 327.825Q36.534374 327.825 37.05 328.10626Q37.58125 328.3875 37.925 328.91876Q38.26875 329.4344 38.45625 330.1844Q38.64375 330.9344 38.64375 332.21564Q38.64375 333.73126 38.33125 334.65314Q38.034374 335.575 37.409374 336.09064Q36.8 336.59064 35.846874 336.59064Q34.6125 336.59064 33.89375 335.7Q33.05 334.6375 33.05 332.21564ZM34.128124 332.21564Q34.128124 334.325 34.628124 335.02814Q35.128124 335.73126 35.846874 335.73126Q36.58125 335.73126 37.065624 335.02814Q37.565624 334.325 37.565624 332.21564Q37.565624 330.09064 37.065624 329.40314Q36.58125 328.7 35.83125 328.7Q35.1125 328.7 34.675 329.3094Q34.128124 330.09064 34.128124 332.21564Z" fill-rule="nonzero"/><path fill="#000000" d="M33.05 257.475L34.159374 257.38126Q34.284374 258.19376 34.721874 258.6Q35.175 259.00626 35.815624 259.00626Q36.565624 259.00626 37.096874 258.42813Q37.628124 257.85 37.628124 256.9125Q37.628124 256.00626 37.1125 255.49063Q36.6125 254.95938 35.784374 254.95938Q35.284374 254.95938 34.8625 255.19376Q34.45625 255.42813 34.221874 255.7875L33.2375 255.6625L34.065624 251.25626L38.346874 251.25626L38.346874 252.25626L34.909374 252.25626L34.45625 254.56876Q35.221874 254.02188 36.065624 254.02188Q37.190624 254.02188 37.95625 254.80313Q38.7375 255.58438 38.7375 256.81876Q38.7375 257.975 38.065624 258.83438Q37.2375 259.86563 35.815624 259.86563Q34.64375 259.86563 33.89375 259.20938Q33.159374 258.55313 33.05 257.475Z" fill-rule="nonzero"/><path fill="#000000" d="M30.01875 183.0L28.971874 183.0L28.971874 176.28125Q28.58125 176.64062 27.95625 177.01562Q27.346874 177.375 26.8625 177.54688L26.8625 176.53125Q27.7375 176.10938 28.39375 175.53125Q29.065624 174.9375 29.346874 174.375L30.01875 174.375L30.01875 183.0ZM33.05 178.76562Q33.05 177.23438 33.3625 176.3125Q33.675 175.375 34.284374 174.875Q34.909374 174.375 35.846874 174.375Q36.534374 174.375 37.05 174.65625Q37.58125 174.9375 37.925 175.46875Q38.26875 175.98438 38.45625 176.73438Q38.64375 177.48438 38.64375 178.76562Q38.64375 180.28125 38.33125 181.20312Q38.034374 182.125 37.409374 182.64062Q36.8 183.14062 35.846874 183.14062Q34.6125 183.14062 33.89375 182.25Q33.05 181.1875 33.05 178.76562ZM34.128124 178.76562Q34.128124 180.875 34.628124 181.57812Q35.128124 182.28125 35.846874 182.28125Q36.58125 182.28125 37.065624 181.57812Q37.565624 180.875 37.565624 178.76562Q37.565624 176.64062 37.065624 175.95312Q36.58125 175.25 35.83125 175.25Q35.1125 175.25 34.675 175.85938Q34.128124 176.64062 34.128124 178.76562Z" fill-rule="nonzero"/><path fill="#000000" d="M30.01875 106.275L28.971874 106.275L28.971874 99.55625Q28.58125 99.91563 27.95625 100.29063Q27.346874 100.65 26.8625 100.82188L26.8625 99.80625Q27.7375 99.38438 28.39375 98.80625Q29.065624 98.2125 29.346874 97.65L30.01875 97.65L30.01875 106.275ZM33.05 104.025L34.159374 103.93125Q34.284374 104.74375 34.721874 105.15Q35.175 105.55625 35.815624 105.55625Q36.565624 105.55625 37.096874 104.97813Q37.628124 104.4 37.628124 103.4625Q37.628124 102.55625 37.1125 102.04063Q36.6125 101.50938 35.784374 101.50938Q35.284374 101.50938 34.8625 101.74375Q34.45625 101.97813 34.221874 102.3375L33.2375 102.2125L34.065624 97.80625L38.346874 97.80625L38.346874 98.80625L34.909374 98.80625L34.45625 101.11875Q35.221874 100.57188 36.065624 100.57188Q37.190624 100.57188 37.95625 101.35313Q38.7375 102.13438 38.7375 103.36875Q38.7375 104.525 38.065624 105.38438Q37.2375 106.41563 35.815624 106.41563Q34.64375 106.41563 33.89375 105.75938Q33.159374 105.10313 33.05 104.025Z" fill-rule="nonzero"/><path fill="#000000" d="M31.596874 28.534374L31.596874 29.55L25.909374 29.55Q25.909374 29.175 26.034374 28.815624Q26.253124 28.2375 26.721874 27.675Q27.20625 27.1125 28.1125 26.378124Q29.51875 25.221874 30.003124 24.55Q30.503124 23.878124 30.503124 23.284374Q30.503124 22.659374 30.05 22.2375Q29.596874 21.8 28.878124 21.8Q28.1125 21.8 27.659374 22.253124Q27.20625 22.70625 27.190624 23.51875L26.1125 23.409374Q26.221874 22.190624 26.940624 21.565624Q27.675 20.925 28.909374 20.925Q30.14375 20.925 30.8625 21.6125Q31.58125 22.3 31.58125 23.315624Q31.58125 23.83125 31.3625 24.33125Q31.159374 24.815624 30.659374 25.378124Q30.175 25.925 29.05 26.878124Q28.096874 27.675 27.815624 27.971874Q27.55 28.253124 27.378124 28.534374L31.596874 28.534374ZM33.05 25.315624Q33.05 23.784374 33.3625 22.8625Q33.675 21.925 34.284374 21.425Q34.909374 20.925 35.846874 20.925Q36.534374 20.925 37.05 21.20625Q37.58125 21.4875 37.925 22.01875Q38.26875 22.534374 38.45625 23.284374Q38.64375 24.034374 38.64375 25.315624Q38.64375 26.83125 38.33125 27.753124Q38.034374 28.675 37.409374 29.190624Q36.8 29.690624 35.846874 29.690624Q34.6125 29.690624 33.89375 28.8Q33.05 27.7375 33.05 25.315624ZM34.128124 25.315624Q34.128124 27.425 34.628124 28.128124Q35.128124 28.83125 35.846874 28.83125Q36.58125 28.83125 37.065624 28.128124Q37.565624 27.425 37.565624 25.315624Q37.565624 23.190624 37.065624 22.503124Q36.58125 21.8 35.83125 21.8Q35.1125 21.8 34.675 22.409374Q34.128124 23.190624 34.128124 25.315624Z" fill-rule="nonzero"/><path fill="#000000" d="M55.636883 349.45L55.636883 340.85626L56.699383 340.85626L56.699383 349.45L55.636883 349.45ZM62.918133 347.45L64.01189 347.575Q63.761883 348.52814 63.058758 349.0594Q62.355633 349.59064 61.277508 349.59064Q59.918133 349.59064 59.105633 348.7469Q58.308758 347.90314 58.308758 346.3875Q58.308758 344.825 59.121258 343.96564Q59.933758 343.09064 61.215008 343.09064Q62.465008 343.09064 63.246258 343.9344Q64.04314 344.77814 64.04314 346.325Q64.04314 346.41876 64.04314 346.60626L59.402508 346.60626Q59.465008 347.6375 59.980633 348.1844Q60.496258 348.71564 61.277508 348.71564Q61.855633 348.71564 62.261883 348.41876Q62.683758 348.10626 62.918133 347.45ZM59.465008 345.7469L62.933758 345.7469Q62.871258 344.95 62.543133 344.5594Q62.027508 343.95 61.230633 343.95Q60.496258 343.95 59.996258 344.4344Q59.511883 344.91876 59.465008 345.7469ZM65.24626 347.59064L66.27751 347.4344Q66.37126 348.0594 66.76189 348.3875Q67.16814 348.71564 67.90251 348.71564Q68.62126 348.71564 68.96501 348.4344Q69.32439 348.1375 69.32439 347.73126Q69.32439 347.3719 69.01189 347.16876Q68.79314 347.02814 67.93376 346.8094Q66.77751 346.5125 66.32439 346.3094Q65.88689 346.09064 65.65251 345.71564Q65.41814 345.34064 65.41814 344.8719Q65.41814 344.46564 65.60564 344.10626Q65.79314 343.7469 66.12126 343.5125Q66.37126 343.34064 66.79314 343.21564Q67.21501 343.09064 67.71501 343.09064Q68.43376 343.09064 68.98064 343.3094Q69.54314 343.5125 69.80876 343.8719Q70.07439 344.23126 70.16814 344.825L69.13689 344.96564Q69.07439 344.4969 68.73064 344.23126Q68.40251 343.95 67.77751 343.95Q67.05876 343.95 66.74626 344.2Q66.43376 344.4344 66.43376 344.7625Q66.43376 344.96564 66.55876 345.1219Q66.69939 345.29376 66.96501 345.40314Q67.12126 345.46564 67.90251 345.66876Q69.02751 345.98126 69.46501 346.16876Q69.90251 346.35626 70.15251 346.71564Q70.40251 347.075 70.40251 347.6219Q70.40251 348.15314 70.09001 348.6219Q69.79314 349.075 69.21501 349.34064Q68.63689 349.59064 67.90251 349.59064Q66.68376 349.59064 66.04314 349.09064Q65.41814 348.575 65.24626 347.59064ZM72.24626 347.59064L73.27751 347.4344Q73.37126 348.0594 73.76189 348.3875Q74.16814 348.71564 74.90251 348.71564Q75.62126 348.71564 75.96501 348.4344Q76.32439 348.1375 76.32439 347.73126Q76.32439 347.3719 76.01189 347.16876Q75.79314 347.02814 74.93376 346.8094Q73.77751 346.5125 73.32439 346.3094Q72.88689 346.09064 72.65251 345.71564Q72.41814 345.34064 72.41814 344.8719Q72.41814 344.46564 72.60564 344.10626Q72.79314 343.7469 73.12126 343.5125Q73.37126 343.34064 73.79314 343.21564Q74.21501 343.09064 74.71501 343.09064Q75.43376 343.09064 75.98064 343.3094Q76.54314 343.5125 76.80876 343.8719Q77.07439 344.23126 77.16814 344.825L76.13689 344.96564Q76.07439 344.4969 75.73064 344.23126Q75.40251 343.95 74.77751 343.95Q74.05876 343.95 73.74626 344.2Q73.43376 344.4344 73.43376 344.7625Q73.43376 344.96564 73.55876 345.1219Q73.69939 345.29376 73.96501 345.40314Q74.12126 345.46564 74.90251 345.66876Q76.02751 345.98126 76.46501 346.16876Q76.90251 346.35626 77.15251 346.71564Q77.40251 347.075 77.40251 347.6219Q77.40251 348.15314 77.09001 348.6219Q76.79314 349.075 76.21501 349.34064Q75.63689 349.59064 74.90251 349.59064Q73.68376 349.59064 73.04314 349.09064Q72.41814 348.575 72.24626 347.59064ZM84.96501 348.5125L85.12126 349.4344Q84.66814 349.52814 84.32439 349.52814Q83.74626 349.52814 83.43376 349.35626Q83.12126 349.16876 82.98064 348.8719Q82.85564 348.575 82.85564 347.6219L82.85564 344.04376L82.09001 344.04376L82.09001 343.23126L82.85564 343.23126L82.85564 341.6844L83.90251 341.0594L83.90251 343.23126L84.96501 343.23126L84.96501 344.04376L83.90251 344.04376L83.90251 347.6844Q83.90251 348.1375 83.94939 348.2625Q84.01189 348.3875 84.13689 348.46564Q84.26189 348.54376 84.49626 348.54376Q84.68376 348.54376 84.96501 348.5125ZM85.66814 349.45L85.66814 340.85626L86.71501 340.85626L86.71501 343.9344Q87.44939 343.09064 88.57439 343.09064Q89.27751 343.09064 89.77751 343.3719Q90.29314 343.6375 90.51189 344.1219Q90.73064 344.59064 90.73064 345.5125L90.73064 349.45L89.68376 349.45L89.68376 345.5125Q89.68376 344.71564 89.34001 344.35626Q88.99626 343.9969 88.37126 343.9969Q87.90251 343.9969 87.48064 344.2469Q87.07439 344.48126 86.88689 344.90314Q86.71501 345.3094 86.71501 346.04376L86.71501 349.45L85.66814 349.45ZM96.73064 348.6844Q96.13689 349.1844 95.59001 349.3875Q95.05876 349.59064 94.43376 349.59064Q93.40251 349.59064 92.85564 349.09064Q92.30876 348.59064 92.30876 347.8094Q92.30876 347.35626 92.51189 346.98126Q92.71501 346.59064 93.05876 346.3719Q93.40251 346.1375 93.82439 346.02814Q94.12126 345.9344 94.76189 345.85626Q96.02751 345.71564 96.63689 345.4969Q96.63689 345.27814 96.63689 345.23126Q96.63689 344.575 96.34001 344.3094Q95.93376 343.96564 95.13689 343.96564Q94.40251 343.96564 94.04314 344.23126Q93.68376 344.48126 93.51189 345.1375L92.48064 344.9969Q92.62126 344.34064 92.94939 343.9344Q93.27751 343.52814 93.88689 343.3094Q94.49626 343.09064 95.29314 343.09064Q96.09001 343.09064 96.59001 343.27814Q97.09001 343.46564 97.32439 343.7469Q97.55876 344.02814 97.65251 344.46564Q97.69939 344.73126 97.69939 345.4344L97.69939 346.84064Q97.69939 348.3094 97.76189 348.7Q97.84001 349.09064 98.04314 349.45L96.93376 349.45Q96.77751 349.1219 96.73064 348.6844ZM96.63689 346.325Q96.05876 346.5594 94.91814 346.73126Q94.26189 346.825 93.99626 346.95Q93.73064 347.0594 93.57439 347.27814Q93.43376 347.4969 93.43376 347.77814Q93.43376 348.2 93.74626 348.48126Q94.07439 348.7625 94.68376 348.7625Q95.29314 348.7625 95.76189 348.4969Q96.24626 348.23126 96.46501 347.7625Q96.63689 347.40314 96.63689 346.71564L96.63689 346.325ZM99.66814 349.45L99.66814 343.23126L100.60564 343.23126L100.60564 344.10626Q101.29314 343.09064 102.59001 343.09064Q103.15251 343.09064 103.62126 343.29376Q104.10564 343.4969 104.34001 343.825Q104.57439 344.15314 104.66814 344.59064Q104.71501 344.8875 104.71501 345.6219L104.71501 349.45L103.66814 349.45L103.66814 345.66876Q103.66814 345.0125 103.54314 344.7Q103.41814 344.3875 103.10564 344.2Q102.79314 343.9969 102.37126 343.9969Q101.69939 343.9969 101.19939 344.4344Q100.71501 344.85626 100.71501 346.04376L100.71501 349.45L99.66814 349.45ZM109.37126 347.2L110.48064 347.10626Q110.60564 347.91876 111.04314 348.325Q111.49626 348.73126 112.13689 348.73126Q112.88689 348.73126 113.41814 348.15314Q113.94939 347.575 113.94939 346.6375Q113.94939 345.73126 113.43376 345.21564Q112.93376 344.6844 112.10564 344.6844Q111.60564 344.6844 111.18376 344.91876Q110.77751 345.15314 110.54314 345.5125L109.55876 345.3875L110.38689 340.98126L114.66814 340.98126L114.66814 341.98126L111.23064 341.98126L110.77751 344.29376Q111.54314 343.7469 112.38689 343.7469Q113.51189 343.7469 114.27751 344.52814Q115.05876 345.3094 115.05876 346.54376Q115.05876 347.7 114.38689 348.5594Q113.55876 349.59064 112.13689 349.59064Q110.96501 349.59064 110.21501 348.9344Q109.48064 348.27814 109.37126 347.2ZM116.37126 345.21564Q116.37126 343.6844 116.68376 342.7625Q116.99626 341.825 117.60564 341.325Q118.23064 340.825 119.16814 340.825Q119.85564 340.825 120.37126 341.10626Q120.90251 341.3875 121.24626 341.91876Q121.59001 342.4344 121.77751 343.1844Q121.96501 343.9344 121.96501 345.21564Q121.96501 346.73126 121.65251 347.65314Q121.35564 348.575 120.73064 349.09064Q120.12126 349.59064 119.16814 349.59064Q117.93376 349.59064 117.21501 348.7Q116.37126 347.6375 116.37126 345.21564ZM117.44939 345.21564Q117.44939 347.325 117.94939 348.02814Q118.44939 348.73126 119.16814 348.73126Q119.90251 348.73126 120.38689 348.02814Q120.88689 347.325 120.88689 345.21564Q120.88689 343.09064 120.38689 342.40314Q119.90251 341.7 119.15251 341.7Q118.43376 341.7 117.99626 342.3094Q117.44939 343.09064 117.44939 345.21564Z" fill-rule="nonzero"/><path fill="#000000" d="M137.5509 347.2L138.66028 347.10626Q138.78528 347.91876 139.22278 348.325Q139.6759 348.73126 140.31653 348.73126Q141.06653 348.73126 141.59778 348.15314Q142.12903 347.575 142.12903 346.6375Q142.12903 345.73126 141.6134 345.21564Q141.1134 344.6844 140.28528 344.6844Q139.78528 344.6844 139.3634 344.91876Q138.95715 345.15314 138.72278 345.5125L137.7384 345.3875L138.56653 340.98126L142.84778 340.98126L142.84778 341.98126L139.41028 341.98126L138.95715 344.29376Q139.72278 343.7469 140.56653 343.7469Q141.69153 343.7469 142.45715 344.52814Q143.2384 345.3094 143.2384 346.54376Q143.2384 347.7 142.56653 348.5594Q141.7384 349.59064 140.31653 349.59064Q139.14465 349.59064 138.39465 348.9344Q137.66028 348.27814 137.5509 347.2ZM144.5509 345.21564Q144.5509 343.6844 144.8634 342.7625Q145.1759 341.825 145.78528 341.325Q146.41028 340.825 147.34778 340.825Q148.03528 340.825 148.5509 341.10626Q149.08215 341.3875 149.4259 341.91876Q149.76965 342.4344 149.95715 343.1844Q150.14465 343.9344 150.14465 345.21564Q150.14465 346.73126 149.83215 347.65314Q149.53528 348.575 148.91028 349.09064Q148.3009 349.59064 147.34778 349.59064Q146.1134 349.59064 145.39465 348.7Q144.5509 347.6375 144.5509 345.21564ZM145.62903 345.21564Q145.62903 347.325 146.12903 348.02814Q146.62903 348.73126 147.34778 348.73126Q148.08215 348.73126 148.56653 348.02814Q149.06653 347.325 149.06653 345.21564Q149.06653 343.09064 148.56653 342.40314Q148.08215 341.7 147.33215 341.7Q146.6134 341.7 146.1759 342.3094Q145.62903 343.09064 145.62903 345.21564ZM151.4259 346.8719L151.4259 345.8094L154.6759 345.8094L154.6759 346.8719L151.4259 346.8719ZM155.6134 341.98126L155.6134 340.96564L161.1759 340.96564L161.1759 341.79376Q160.3634 342.66876 159.5509 344.1219Q158.75403 345.5594 158.31653 347.09064Q157.9884 348.16876 157.91028 349.45L156.81653 349.45Q156.83215 348.4344 157.20715 346.9969Q157.59778 345.5594 158.3009 344.23126Q159.01965 342.90314 159.83215 341.98126L155.6134 341.98126ZM162.5509 347.2L163.66028 347.10626Q163.78528 347.91876 164.22278 348.325Q164.6759 348.73126 165.31653 348.73126Q166.06653 348.73126 166.59778 348.15314Q167.12903 347.575 167.12903 346.6375Q167.12903 345.73126 166.6134 345.21564Q166.1134 344.6844 165.28528 344.6844Q164.78528 344.6844 164.3634 344.91876Q163.95715 345.15314 163.72278 345.5125L162.7384 345.3875L163.56653 340.98126L167.84778 340.98126L167.84778 341.98126L164.41028 341.98126L163.95715 344.29376Q164.72278 343.7469 165.56653 343.7469Q166.69153 343.7469 167.45715 344.52814Q168.2384 345.3094 168.2384 346.54376Q168.2384 347.7 167.56653 348.5594Q166.7384 349.59064 165.31653 349.59064Q164.14465 349.59064 163.39465 348.9344Q162.66028 348.27814 162.5509 347.2Z" fill-rule="nonzero"/><path fill="#000000" d="M198.29305 341.98126L198.29305 340.96564L203.85555 340.96564L203.85555 341.79376Q203.04305 342.66876 202.23055 344.1219Q201.43367 345.5594 200.99617 347.09064Q200.66805 348.16876 200.58992 349.45L199.49617 349.45Q199.5118 348.4344 199.8868 346.9969Q200.27742 345.5594 200.98055 344.23126Q201.6993 342.90314 202.5118 341.98126L198.29305 341.98126ZM205.23055 347.2L206.33992 347.10626Q206.46492 347.91876 206.90242 348.325Q207.35555 348.73126 207.99617 348.73126Q208.74617 348.73126 209.27742 348.15314Q209.80867 347.575 209.80867 346.6375Q209.80867 345.73126 209.29305 345.21564Q208.79305 344.6844 207.96492 344.6844Q207.46492 344.6844 207.04305 344.91876Q206.6368 345.15314 206.40242 345.5125L205.41805 345.3875L206.24617 340.98126L210.52742 340.98126L210.52742 341.98126L207.08992 341.98126L206.6368 344.29376Q207.40242 343.7469 208.24617 343.7469Q209.37117 343.7469 210.1368 344.52814Q210.91805 345.3094 210.91805 346.54376Q210.91805 347.7 210.24617 348.5594Q209.41805 349.59064 207.99617 349.59064Q206.8243 349.59064 206.0743 348.9344Q205.33992 348.27814 205.23055 347.2ZM212.10555 346.8719L212.10555 345.8094L215.35555 345.8094L215.35555 346.8719L212.10555 346.8719ZM220.1993 349.45L219.15242 349.45L219.15242 342.73126Q218.7618 343.09064 218.1368 343.46564Q217.52742 343.825 217.04305 343.9969L217.04305 342.98126Q217.91805 342.5594 218.5743 341.98126Q219.24617 341.3875 219.52742 340.825L220.1993 340.825L220.1993 349.45ZM223.23055 345.21564Q223.23055 343.6844 223.54305 342.7625Q223.85555 341.825 224.46492 341.325Q225.08992 340.825 226.02742 340.825Q226.71492 340.825 227.23055 341.10626Q227.7618 341.3875 228.10555 341.91876Q228.4493 342.4344 228.6368 343.1844Q228.8243 343.9344 228.8243 345.21564Q228.8243 346.73126 228.5118 347.65314Q228.21492 348.575 227.58992 349.09064Q226.98055 349.59064 226.02742 349.59064Q224.79305 349.59064 224.0743 348.7Q223.23055 347.6375 223.23055 345.21564ZM224.30867 345.21564Q224.30867 347.325 224.80867 348.02814Q225.30867 348.73126 226.02742 348.73126Q226.7618 348.73126 227.24617 348.02814Q227.74617 347.325 227.74617 345.21564Q227.74617 343.09064 227.24617 342.40314Q226.7618 341.7 226.0118 341.7Q225.29305 341.7 224.85555 342.3094Q224.30867 343.09064 224.30867 345.21564ZM230.23055 345.21564Q230.23055 343.6844 230.54305 342.7625Q230.85555 341.825 231.46492 341.325Q232.08992 340.825 233.02742 340.825Q233.71492 340.825 234.23055 341.10626Q234.7618 341.3875 235.10555 341.91876Q235.4493 342.4344 235.6368 343.1844Q235.8243 343.9344 235.8243 345.21564Q235.8243 346.73126 235.5118 347.65314Q235.21492 348.575 234.58992 349.09064Q233.98055 349.59064 233.02742 349.59064Q231.79305 349.59064 231.0743 348.7Q230.23055 347.6375 230.23055 345.21564ZM231.30867 345.21564Q231.30867 347.325 231.80867 348.02814Q232.30867 348.73126 233.02742 348.73126Q233.7618 348.73126 234.24617 348.02814Q234.74617 347.325 234.74617 345.21564Q234.74617 343.09064 234.24617 342.40314Q233.7618 341.7 233.0118 341.7Q232.29305 341.7 231.85555 342.3094Q231.30867 343.09064 231.30867 345.21564Z" fill-rule="nonzero"/><path fill="#000000" d="M262.87894 349.45L261.83206 349.45L261.83206 342.73126Q261.44144 343.09064 260.81644 343.46564Q260.20706 343.825 259.7227 343.9969L259.7227 342.98126Q260.5977 342.5594 261.25394 341.98126Q261.9258 341.3875 262.20706 340.825L262.87894 340.825L262.87894 349.45ZM265.9102 345.21564Q265.9102 343.6844 266.2227 342.7625Q266.5352 341.825 267.14456 341.325Q267.76956 340.825 268.70706 340.825Q269.39456 340.825 269.9102 341.10626Q270.44144 341.3875 270.7852 341.91876Q271.12894 342.4344 271.31644 343.1844Q271.50394 343.9344 271.50394 345.21564Q271.50394 346.73126 271.19144 347.65314Q270.89456 348.575 270.26956 349.09064Q269.6602 349.59064 268.70706 349.59064Q267.4727 349.59064 266.75394 348.7Q265.9102 347.6375 265.9102 345.21564ZM266.9883 345.21564Q266.9883 347.325 267.4883 348.02814Q267.9883 348.73126 268.70706 348.73126Q269.44144 348.73126 269.9258 348.02814Q270.4258 347.325 270.4258 345.21564Q270.4258 343.09064 269.9258 342.40314Q269.44144 341.7 268.69144 341.7Q267.9727 341.7 267.5352 342.3094Q266.9883 343.09064 266.9883 345.21564ZM272.9102 345.21564Q272.9102 343.6844 273.2227 342.7625Q273.5352 341.825 274.14456 341.325Q274.76956 340.825 275.70706 340.825Q276.39456 340.825 276.9102 341.10626Q277.44144 341.3875 277.7852 341.91876Q278.12894 342.4344 278.31644 343.1844Q278.50394 343.9344 278.50394 345.21564Q278.50394 346.73126 278.19144 347.65314Q277.89456 348.575 277.26956 349.09064Q276.6602 349.59064 275.70706 349.59064Q274.4727 349.59064 273.75394 348.7Q272.9102 347.6375 272.9102 345.21564ZM273.9883 345.21564Q273.9883 347.325 274.4883 348.02814Q274.9883 348.73126 275.70706 348.73126Q276.44144 348.73126 276.9258 348.02814Q277.4258 347.325 277.4258 345.21564Q277.4258 343.09064 276.9258 342.40314Q276.44144 341.7 275.69144 341.7Q274.9727 341.7 274.5352 342.3094Q273.9883 343.09064 273.9883 345.21564ZM279.7852 346.8719L279.7852 345.8094L283.0352 345.8094L283.0352 346.8719L279.7852 346.8719ZM287.87894 349.45L286.83206 349.45L286.83206 342.73126Q286.44144 343.09064 285.81644 343.46564Q285.20706 343.825 284.7227 343.9969L284.7227 342.98126Q285.5977 342.5594 286.25394 341.98126Q286.9258 341.3875 287.20706 340.825L287.87894 340.825L287.87894 349.45ZM296.45706 348.4344L296.45706 349.45L290.76956 349.45Q290.76956 349.075 290.89456 348.71564Q291.1133 348.1375 291.58206 347.575Q292.06644 347.0125 292.9727 346.27814Q294.37894 345.1219 294.8633 344.45Q295.3633 343.77814 295.3633 343.1844Q295.3633 342.5594 294.9102 342.1375Q294.45706 341.7 293.7383 341.7Q292.9727 341.7 292.51956 342.15314Q292.06644 342.60626 292.0508 343.41876L290.9727 343.3094Q291.08206 342.09064 291.8008 341.46564Q292.5352 340.825 293.76956 340.825Q295.00394 340.825 295.7227 341.5125Q296.44144 342.2 296.44144 343.21564Q296.44144 343.73126 296.2227 344.23126Q296.01956 344.71564 295.51956 345.27814Q295.0352 345.825 293.9102 346.77814Q292.95706 347.575 292.6758 347.8719Q292.4102 348.15314 292.2383 348.4344L296.45706 348.4344ZM297.9102 347.2L299.01956 347.10626Q299.14456 347.91876 299.58206 348.325Q300.0352 348.73126 300.6758 348.73126Q301.4258 348.73126 301.95706 348.15314Q302.4883 347.575 302.4883 346.6375Q302.4883 345.73126 301.9727 345.21564Q301.4727 344.6844 300.64456 344.6844Q300.14456 344.6844 299.7227 344.91876Q299.31644 345.15314 299.08206 345.5125L298.0977 345.3875L298.9258 340.98126L303.20706 340.98126L303.20706 341.98126L299.76956 341.98126L299.31644 344.29376Q300.08206 343.7469 300.9258 343.7469Q302.0508 343.7469 302.81644 344.52814Q303.5977 345.3094 303.5977 346.54376Q303.5977 347.7 302.9258 348.5594Q302.0977 349.59064 300.6758 349.59064Q299.50394 349.59064 298.75394 348.9344Q298.01956 348.27814 297.9102 347.2Z" fill-rule="nonzero"/><path fill="#000000" d="M327.05856 349.45L326.0117 349.45L326.0117 342.73126Q325.62106 343.09064 324.99606 343.46564Q324.3867 343.825 323.9023 343.9969L323.9023 342.98126Q324.7773 342.5594 325.43356 341.98126Q326.10544 341.3875 326.3867 340.825L327.05856 340.825L327.05856 349.45ZM335.6367 348.4344L335.6367 349.45L329.9492 349.45Q329.9492 349.075 330.0742 348.71564Q330.29294 348.1375 330.7617 347.575Q331.24606 347.0125 332.1523 346.27814Q333.55856 345.1219 334.04294 344.45Q334.54294 343.77814 334.54294 343.1844Q334.54294 342.5594 334.0898 342.1375Q333.6367 341.7 332.91794 341.7Q332.1523 341.7 331.6992 342.15314Q331.24606 342.60626 331.23044 343.41876L330.1523 343.3094Q330.2617 342.09064 330.98044 341.46564Q331.7148 340.825 332.9492 340.825Q334.18356 340.825 334.9023 341.5125Q335.62106 342.2 335.62106 343.21564Q335.62106 343.73126 335.4023 344.23126Q335.1992 344.71564 334.6992 345.27814Q334.2148 345.825 333.0898 346.77814Q332.1367 347.575 331.85544 347.8719Q331.5898 348.15314 331.41794 348.4344L335.6367 348.4344ZM337.0898 347.2L338.1992 347.10626Q338.3242 347.91876 338.7617 348.325Q339.2148 348.73126 339.85544 348.73126Q340.60544 348.73126 341.1367 348.15314Q341.66794 347.575 341.66794 346.6375Q341.66794 345.73126 341.1523 345.21564Q340.6523 344.6844 339.8242 344.6844Q339.3242 344.6844 338.9023 344.91876Q338.49606 345.15314 338.2617 345.5125L337.2773 345.3875L338.10544 340.98126L342.3867 340.98126L342.3867 341.98126L338.9492 341.98126L338.49606 344.29376Q339.2617 343.7469 340.10544 343.7469Q341.23044 343.7469 341.99606 344.52814Q342.7773 345.3094 342.7773 346.54376Q342.7773 347.7 342.10544 348.5594Q341.2773 349.59064 339.85544 349.59064Q338.68356 349.59064 337.93356 348.9344Q337.1992 348.27814 337.0898 347.2ZM343.9648 346.8719L343.9648 345.8094L347.2148 345.8094L347.2148 346.8719L343.9648 346.8719ZM352.05856 349.45L351.0117 349.45L351.0117 342.73126Q350.62106 343.09064 349.99606 343.46564Q349.3867 343.825 348.9023 343.9969L348.9023 342.98126Q349.7773 342.5594 350.43356 341.98126Q351.10544 341.3875 351.3867 340.825L352.05856 340.825L352.05856 349.45ZM355.0898 347.2L356.1992 347.10626Q356.3242 347.91876 356.7617 348.325Q357.2148 348.73126 357.85544 348.73126Q358.60544 348.73126 359.1367 348.15314Q359.66794 347.575 359.66794 346.6375Q359.66794 345.73126 359.1523 345.21564Q358.6523 344.6844 357.8242 344.6844Q357.3242 344.6844 356.9023 344.91876Q356.49606 345.15314 356.2617 345.5125L355.2773 345.3875L356.10544 340.98126L360.3867 340.98126L360.3867 341.98126L356.9492 341.98126L356.49606 344.29376Q357.2617 343.7469 358.10544 343.7469Q359.23044 343.7469 359.99606 344.52814Q360.7773 345.3094 360.7773 346.54376Q360.7773 347.7 360.10544 348.5594Q359.2773 349.59064 357.85544 349.59064Q356.68356 349.59064 355.93356 348.9344Q355.1992 348.27814 355.0898 347.2ZM362.0898 345.21564Q362.0898 343.6844 362.4023 342.7625Q362.7148 341.825 363.3242 341.325Q363.9492 340.825 364.8867 340.825Q365.5742 340.825 366.0898 341.10626Q366.62106 341.3875 366.9648 341.91876Q367.30856 342.4344 367.49606 343.1844Q367.68356 343.9344 367.68356 345.21564Q367.68356 346.73126 367.37106 347.65314Q367.0742 348.575 366.4492 349.09064Q365.8398 349.59064 364.8867 349.59064Q363.6523 349.59064 362.93356 348.7Q362.0898 347.6375 362.0898 345.21564ZM363.16794 345.21564Q363.16794 347.325 363.66794 348.02814Q364.16794 348.73126 364.8867 348.73126Q365.62106 348.73126 366.10544 348.02814Q366.60544 347.325 366.60544 345.21564Q366.60544 343.09064 366.10544 342.40314Q365.62106 341.7 364.87106 341.7Q364.1523 341.7 363.7148 342.3094Q363.16794 343.09064 363.16794 345.21564Z" fill-rule="nonzero"/><path fill="#000000" d="M391.23822 349.45L390.19135 349.45L390.19135 342.73126Q389.80072 343.09064 389.17572 343.46564Q388.56635 343.825 388.08197 343.9969L388.08197 342.98126Q388.95697 342.5594 389.61322 341.98126Q390.2851 341.3875 390.56635 340.825L391.23822 340.825L391.23822 349.45ZM394.26947 347.2L395.37885 347.10626Q395.50385 347.91876 395.94135 348.325Q396.39447 348.73126 397.0351 348.73126Q397.7851 348.73126 398.31635 348.15314Q398.8476 347.575 398.8476 346.6375Q398.8476 345.73126 398.33197 345.21564Q397.83197 344.6844 397.00385 344.6844Q396.50385 344.6844 396.08197 344.91876Q395.67572 345.15314 395.44135 345.5125L394.45697 345.3875L395.2851 340.98126L399.56635 340.98126L399.56635 341.98126L396.12885 341.98126L395.67572 344.29376Q396.44135 343.7469 397.2851 343.7469Q398.4101 343.7469 399.17572 344.52814Q399.95697 345.3094 399.95697 346.54376Q399.95697 347.7 399.2851 348.5594Q398.45697 349.59064 397.0351 349.59064Q395.86322 349.59064 395.11322 348.9344Q394.37885 348.27814 394.26947 347.2ZM401.26947 345.21564Q401.26947 343.6844 401.58197 342.7625Q401.89447 341.825 402.50385 341.325Q403.12885 340.825 404.06635 340.825Q404.75385 340.825 405.26947 341.10626Q405.80072 341.3875 406.14447 341.91876Q406.48822 342.4344 406.67572 343.1844Q406.86322 343.9344 406.86322 345.21564Q406.86322 346.73126 406.55072 347.65314Q406.25385 348.575 405.62885 349.09064Q405.01947 349.59064 404.06635 349.59064Q402.83197 349.59064 402.11322 348.7Q401.26947 347.6375 401.26947 345.21564ZM402.3476 345.21564Q402.3476 347.325 402.8476 348.02814Q403.3476 348.73126 404.06635 348.73126Q404.80072 348.73126 405.2851 348.02814Q405.7851 347.325 405.7851 345.21564Q405.7851 343.09064 405.2851 342.40314Q404.80072 341.7 404.05072 341.7Q403.33197 341.7 402.89447 342.3094Q402.3476 343.09064 402.3476 345.21564ZM408.14447 346.8719L408.14447 345.8094L411.39447 345.8094L411.39447 346.8719L408.14447 346.8719ZM416.23822 349.45L415.19135 349.45L415.19135 342.73126Q414.80072 343.09064 414.17572 343.46564Q413.56635 343.825 413.08197 343.9969L413.08197 342.98126Q413.95697 342.5594 414.61322 341.98126Q415.2851 341.3875 415.56635 340.825L416.23822 340.825L416.23822 349.45ZM419.33197 341.98126L419.33197 340.96564L424.89447 340.96564L424.89447 341.79376Q424.08197 342.66876 423.26947 344.1219Q422.4726 345.5594 422.0351 347.09064Q421.70697 348.16876 421.62885 349.45L420.5351 349.45Q420.55072 348.4344 420.92572 346.9969Q421.31635 345.5594 422.01947 344.23126Q422.73822 342.90314 423.55072 341.98126L419.33197 341.98126ZM426.26947 347.2L427.37885 347.10626Q427.50385 347.91876 427.94135 348.325Q428.39447 348.73126 429.0351 348.73126Q429.7851 348.73126 430.31635 348.15314Q430.8476 347.575 430.8476 346.6375Q430.8476 345.73126 430.33197 345.21564Q429.83197 344.6844 429.00385 344.6844Q428.50385 344.6844 428.08197 344.91876Q427.67572 345.15314 427.44135 345.5125L426.45697 345.3875L427.2851 340.98126L431.56635 340.98126L431.56635 341.98126L428.12885 341.98126L427.67572 344.29376Q428.44135 343.7469 429.2851 343.7469Q430.4101 343.7469 431.17572 344.52814Q431.95697 345.3094 431.95697 346.54376Q431.95697 347.7 431.2851 348.5594Q430.45697 349.59064 429.0351 349.59064Q427.86322 349.59064 427.11322 348.9344Q426.37885 348.27814 426.26947 347.2Z" fill-rule="nonzero"/><path fill="#000000" d="M455.41785 349.45L454.37097 349.45L454.37097 342.73126Q453.98035 343.09064 453.35535 343.46564Q452.74597 343.825 452.2616 343.9969L452.2616 342.98126Q453.1366 342.5594 453.79285 341.98126Q454.46472 341.3875 454.74597 340.825L455.41785 340.825L455.41785 349.45ZM458.5116 341.98126L458.5116 340.96564L464.0741 340.96564L464.0741 341.79376Q463.2616 342.66876 462.4491 344.1219Q461.65222 345.5594 461.21472 347.09064Q460.8866 348.16876 460.80847 349.45L459.71472 349.45Q459.73035 348.4344 460.10535 346.9969Q460.49597 345.5594 461.1991 344.23126Q461.91785 342.90314 462.73035 341.98126L458.5116 341.98126ZM465.4491 347.2L466.55847 347.10626Q466.68347 347.91876 467.12097 348.325Q467.5741 348.73126 468.21472 348.73126Q468.96472 348.73126 469.49597 348.15314Q470.02722 347.575 470.02722 346.6375Q470.02722 345.73126 469.5116 345.21564Q469.0116 344.6844 468.18347 344.6844Q467.68347 344.6844 467.2616 344.91876Q466.85535 345.15314 466.62097 345.5125L465.6366 345.3875L466.46472 340.98126L470.74597 340.98126L470.74597 341.98126L467.30847 341.98126L466.85535 344.29376Q467.62097 343.7469 468.46472 343.7469Q469.58972 343.7469 470.35535 344.52814Q471.1366 345.3094 471.1366 346.54376Q471.1366 347.7 470.46472 348.5594Q469.6366 349.59064 468.21472 349.59064Q467.04285 349.59064 466.29285 348.9344Q465.55847 348.27814 465.4491 347.2ZM472.3241 346.8719L472.3241 345.8094L475.5741 345.8094L475.5741 346.8719L472.3241 346.8719ZM481.99597 348.4344L481.99597 349.45L476.30847 349.45Q476.30847 349.075 476.43347 348.71564Q476.65222 348.1375 477.12097 347.575Q477.60535 347.0125 478.5116 346.27814Q479.91785 345.1219 480.40222 344.45Q480.90222 343.77814 480.90222 343.1844Q480.90222 342.5594 480.4491 342.1375Q479.99597 341.7 479.27722 341.7Q478.5116 341.7 478.05847 342.15314Q477.60535 342.60626 477.58972 343.41876L476.5116 343.3094Q476.62097 342.09064 477.33972 341.46564Q478.0741 340.825 479.30847 340.825Q480.54285 340.825 481.2616 341.5125Q481.98035 342.2 481.98035 343.21564Q481.98035 343.73126 481.7616 344.23126Q481.55847 344.71564 481.05847 345.27814Q480.5741 345.825 479.4491 346.77814Q478.49597 347.575 478.21472 347.8719Q477.9491 348.15314 477.77722 348.4344L481.99597 348.4344ZM483.4491 345.21564Q483.4491 343.6844 483.7616 342.7625Q484.0741 341.825 484.68347 341.325Q485.30847 340.825 486.24597 340.825Q486.93347 340.825 487.4491 341.10626Q487.98035 341.3875 488.3241 341.91876Q488.66785 342.4344 488.85535 343.1844Q489.04285 343.9344 489.04285 345.21564Q489.04285 346.73126 488.73035 347.65314Q488.43347 348.575 487.80847 349.09064Q487.1991 349.59064 486.24597 349.59064Q485.0116 349.59064 484.29285 348.7Q483.4491 347.6375 483.4491 345.21564ZM484.52722 345.21564Q484.52722 347.325 485.02722 348.02814Q485.52722 348.73126 486.24597 348.73126Q486.98035 348.73126 487.46472 348.02814Q487.96472 347.325 487.96472 345.21564Q487.96472 343.09064 487.46472 342.40314Q486.98035 341.7 486.23035 341.7Q485.5116 341.7 485.0741 342.3094Q484.52722 343.09064 484.52722 345.21564ZM490.4491 345.21564Q490.4491 343.6844 490.7616 342.7625Q491.0741 341.825 491.68347 341.325Q492.30847 340.825 493.24597 340.825Q493.93347 340.825 494.4491 341.10626Q494.98035 341.3875 495.3241 341.91876Q495.66785 342.4344 495.85535 343.1844Q496.04285 343.9344 496.04285 345.21564Q496.04285 346.73126 495.73035 347.65314Q495.43347 348.575 494.80847 349.09064Q494.1991 349.59064 493.24597 349.59064Q492.0116 349.59064 491.29285 348.7Q490.4491 347.6375 490.4491 345.21564ZM491.52722 345.21564Q491.52722 347.325 492.02722 348.02814Q492.52722 348.73126 493.24597 348.73126Q493.98035 348.73126 494.46472 348.02814Q494.96472 347.325 494.96472 345.21564Q494.96472 343.09064 494.46472 342.40314Q493.98035 341.7 493.23035 341.7Q492.5116 341.7 492.0741 342.3094Q491.52722 343.09064 491.52722 345.21564Z" fill-rule="nonzero"/><path fill="#000000" d="M530.1756 348.4344L530.1756 349.45L524.4881 349.45Q524.4881 349.075 524.6131 348.71564Q524.83185 348.1375 525.3006 347.575Q525.785 347.0125 526.6912 346.27814Q528.0975 345.1219 528.58185 344.45Q529.08185 343.77814 529.08185 343.1844Q529.08185 342.5594 528.6287 342.1375Q528.1756 341.7 527.45685 341.7Q526.6912 341.7 526.2381 342.15314Q525.785 342.60626 525.76935 343.41876L524.6912 343.3094Q524.8006 342.09064 525.51935 341.46564Q526.2537 340.825 527.4881 340.825Q528.7225 340.825 529.4412 341.5125Q530.16 342.2 530.16 343.21564Q530.16 343.73126 529.9412 344.23126Q529.7381 344.71564 529.2381 345.27814Q528.7537 345.825 527.6287 346.77814Q526.6756 347.575 526.39435 347.8719Q526.1287 348.15314 525.95685 348.4344L530.1756 348.4344ZM531.6287 345.21564Q531.6287 343.6844 531.9412 342.7625Q532.2537 341.825 532.8631 341.325Q533.4881 340.825 534.4256 340.825Q535.1131 340.825 535.6287 341.10626Q536.16 341.3875 536.5037 341.91876Q536.8475 342.4344 537.035 343.1844Q537.2225 343.9344 537.2225 345.21564Q537.2225 346.73126 536.91 347.65314Q536.6131 348.575 535.9881 349.09064Q535.3787 349.59064 534.4256 349.59064Q533.1912 349.59064 532.4725 348.7Q531.6287 347.6375 531.6287 345.21564ZM532.70685 345.21564Q532.70685 347.325 533.20685 348.02814Q533.70685 348.73126 534.4256 348.73126Q535.16 348.73126 535.64435 348.02814Q536.14435 347.325 536.14435 345.21564Q536.14435 343.09064 535.64435 342.40314Q535.16 341.7 534.41 341.7Q533.6912 341.7 533.2537 342.3094Q532.70685 343.09064 532.70685 345.21564ZM538.6287 345.21564Q538.6287 343.6844 538.9412 342.7625Q539.2537 341.825 539.8631 341.325Q540.4881 340.825 541.4256 340.825Q542.1131 340.825 542.6287 341.10626Q543.16 341.3875 543.5037 341.91876Q543.8475 342.4344 544.035 343.1844Q544.2225 343.9344 544.2225 345.21564Q544.2225 346.73126 543.91 347.65314Q543.6131 348.575 542.9881 349.09064Q542.3787 349.59064 541.4256 349.59064Q540.1912 349.59064 539.4725 348.7Q538.6287 347.6375 538.6287 345.21564ZM539.70685 345.21564Q539.70685 347.325 540.20685 348.02814Q540.70685 348.73126 541.4256 348.73126Q542.16 348.73126 542.64435 348.02814Q543.14435 347.325 543.14435 345.21564Q543.14435 343.09064 542.64435 342.40314Q542.16 341.7 541.41 341.7Q540.6912 341.7 540.2537 342.3094Q539.70685 343.09064 539.70685 345.21564ZM548.1287 348.0594L548.1287 345.7L545.8006 345.7L545.8006 344.71564L548.1287 344.71564L548.1287 342.3875L549.1287 342.3875L549.1287 344.71564L551.4725 344.71564L551.4725 345.7L549.1287 345.7L549.1287 348.0594L548.1287 348.0594Z" fill-rule="nonzero"/></svg>