<svg version="1.1" viewBox="0.0 0.0 600.0 371.0" fill="none" stroke="none" stroke-linecap="square" stroke-miterlimit="10" width="600" height="371" xmlns:xlink="http://www.w3.org/1999/xlink" xmlns="http://www.w3.org/2000/svg"><path fill="#ffffff" d="M0 0L600.0 0L600.0 371.0L0 371.0L0 0Z" fill-rule="nonzero"/><path stroke="#333333" stroke-width="1.0" stroke-linecap="butt" d="M45.5 332.5L581.5 332.5" fill-rule="nonzero"/><path stroke="#cccccc" stroke-width="1.0" stroke-linecap="butt" d="M45.5 271.5L581.5 271.5" fill-rule="nonzero"/><path stroke="#cccccc" stroke-width="1.0" stroke-linecap="butt" d="M45.5 209.5L581.5 209.5" fill-rule="nonzero"/><path stroke="#cccccc" stroke-width="1.0" stroke-linecap="butt" d="M45.5 148.5L581.5 148.5" fill-rule="nonzero"/><path stroke="#cccccc" stroke-width="1.0" stroke-linecap="butt" d="M45.5 86.5L581.5 86.5" fill-rule="nonzero"/><path stroke="#cccccc" stroke-width="1.0" stroke-linecap="butt" d="M45.5 25.5L581.5 25.5" fill-rule="nonzero"/><clipPath id="id_0"><path d="M45.55 25.55L581.45 25.55L581.45 332.45L45.55 332.45L45.55 25.55Z" clip-rule="nonzero"/></clipPath><path stroke="#000000" stroke-width="2.0" stroke-linecap="butt" stroke-opacity="0.0" clip-path="url(#id_0)" d="M131.0 332.0L76.0 332.0L76.0 77.0C76.0 75.89543 76.89543 75.0 78.0 75.0L129.0 75.0C130.10457 75.0 131.0 75.89543 131.0 77.0Z" fill-rule="nonzero"/><path fill="#4285f4" clip-path="url(#id_0)" d="M131.0 332.0L76.0 332.0L76.0 77.0C76.0 75.89543 76.89543 75.0 78.0 75.0L129.0 75.0C130.10457 75.0 131.0 75.89543 131.0 77.0Z" fill-rule="nonzero"/><path stroke="#000000" stroke-width="2.0" stroke-linecap="butt" stroke-opacity="0.0" clip-path="url(#id_0)" d="M215.0 332.0L160.0 332.0L160.0 236.0C160.0 234.89543 160.89543 234.0 162.0 234.0L213.0 234.0C214.10457 234.0 215.0 234.89543 215.0 236.0Z" fill-rule="nonzero"/><path fill="#4285f4" clip-path="url(#id_0)" d="M215.0 332.0L160.0 332.0L160.0 236.0C160.0 234.89543 160.89543 234.0 162.0 234.0L213.0 234.0C214.10457 234.0 215.0 234.89543 215.0 236.0Z" fill-rule="nonzero"/><path stroke="#000000" stroke-width="2.0" stroke-linecap="butt" stroke-opacity="0.0" clip-path="url(#id_0)" d="M299.0 332.0L244.0 332.0L244.0 175.0C244.0 173.89543 244.89543 173.0 246.0 173.0L297.0 173.0C298.10458 173.0 299.0 173.89543 299.0 175.0Z" fill-rule="nonzero"/><path fill="#4285f4" clip-path="url(#id_0)" d="M299.0 332.0L244.0 332.0L244.0 175.0C244.0 173.89543 244.89543 173.0 246.0 173.0L297.0 173.0C298.10458 173.0 299.0 173.89543 299.0 175.0Z" fill-rule="nonzero"/><path stroke="#000000" stroke-width="2.0" stroke-linecap="butt" stroke-opacity="0.0" clip-path="url(#id_0)" d="M384.0 332.0L329.0 332.0L329.0 298.0C329.0 296.89542 329.89542 296.0 331.0 296.0L382.0 296.0C383.10458 296.0 384.0 296.89542 384.0 298.0Z" fill-rule="nonzero"/><path fill="#4285f4" clip-path="url(#id_0)" d="M384.0 332.0L329.0 332.0L329.0 298.0C329.0 296.89542 329.89542 296.0 331.0 296.0L382.0 296.0C383.10458 296.0 384.0 296.89542 384.0 298.0Z" fill-rule="nonzero"/><path stroke="#000000" stroke-width="2.0" stroke-linecap="butt" stroke-opacity="0.0" clip-path="url(#id_0)" d="M468.0 332.0L413.0 332.0L413.0 332.0L468.0 332.0Z" fill-rule="nonzero"/><path fill="#4285f4" clip-path="url(#id_0)" d="M468.0 332.0L413.0 332.0L413.0 332.0L468.0 332.0Z" fill-rule="nonzero"/><path stroke="#000000" stroke-width="2.0" stroke-linecap="butt" stroke-opacity="0.0" clip-path="url(#id_0)" d="M552.0 332.0L497.0 332.0L497.0 249.0C497.0 247.89543 497.89542 247.0 499.0 247.0L550.0 247.0C551.10455 247.0 552.0 247.89543 552.0 249.0Z" fill-rule="nonzero"/><path fill="#4285f4" clip-path="url(#id_0)" d="M552.0 332.0L497.0 332.0L497.0 249.0C497.0 247.89543 497.89542 247.0 499.0 247.0L550.0 247.0C551.10455 247.0 552.0 247.89543 552.0 249.0Z" fill-rule="nonzero"/><path stroke="#4285f4" stroke-width="3.0" stroke-linejoin="round" stroke-linecap="round" d="M102.296875 91.454L96.703125 91.454L96.703125 90.67275L99.65625 87.3915Q100.3125 86.6415 100.5625 86.18838Q100.8125 85.71963 100.8125 85.21963Q100.8125 84.54775 100.40625 84.12588Q100.015625 83.68838 99.328125 83.68838Q98.53125 83.68838 98.078125 84.15713Q97.625 84.61025 97.625 85.43838L96.546875 85.43838Q96.546875 84.25088 97.296875 83.53213Q98.0625 82.79775 99.328125 82.79775Q100.53125 82.79775 101.21875 83.42275Q101.90625 84.04775 101.90625 85.09463Q101.90625 86.34463 100.296875 88.09463L98.015625 90.56338L102.296875 90.56338L102.296875 91.454ZM107.265625 91.454L106.1875 91.454L106.1875 84.23525L104.0 85.03213L104.0 84.04775L107.109375 82.87588L107.265625 82.87588L107.265625 91.454Z" fill-rule="nonzero"/><path fill="#ffffff" d="M102.296875 91.454L96.703125 91.454L96.703125 90.67275L99.65625 87.3915Q100.3125 86.6415 100.5625 86.18838Q100.8125 85.71963 100.8125 85.21963Q100.8125 84.54775 100.40625 84.12588Q100.015625 83.68838 99.328125 83.68838Q98.53125 83.68838 98.078125 84.15713Q97.625 84.61025 97.625 85.43838L96.546875 85.43838Q96.546875 84.25088 97.296875 83.53213Q98.0625 82.79775 99.328125 82.79775Q100.53125 82.79775 101.21875 83.42275Q101.90625 84.04775 101.90625 85.09463Q101.90625 86.34463 100.296875 88.09463L98.015625 90.56338L102.296875 90.56338L102.296875 91.454ZM107.265625 91.454L106.1875 91.454L106.1875 84.23525L104.0 85.03213L104.0 84.04775L107.109375 82.87588L107.265625 82.87588L107.265625 91.454Z" fill-rule="nonzero"/><path stroke="#4285f4" stroke-width="3.0" stroke-linejoin="round" stroke-linecap="round" d="M189.39062 244.7295Q189.39062 245.37013 189.04688 245.87013Q188.70312 246.37013 188.14062 246.65138Q188.79688 246.93263 189.1875 247.49513Q189.57812 248.042 189.57812 248.74513Q189.57812 249.83888 188.82812 250.51076Q188.09375 251.167 186.875 251.167Q185.64062 251.167 184.89062 250.51076Q184.15625 249.83888 184.15625 248.74513Q184.15625 248.042 184.53125 247.49513Q184.90625 246.93263 185.57812 246.65138Q185.01562 246.37013 184.6875 245.87013Q184.35938 245.37013 184.35938 244.7295Q184.35938 243.65138 185.04688 243.02638Q185.73438 242.38576 186.875 242.38576Q188.0 242.38576 188.6875 243.02638Q189.39062 243.65138 189.39062 244.7295ZM188.5 248.71388Q188.5 247.99513 188.04688 247.55763Q187.59375 247.1045 186.85938 247.1045Q186.125 247.1045 185.67188 247.55763Q185.23438 247.99513 185.23438 248.7295Q185.23438 249.44826 185.67188 249.87013Q186.10938 250.27638 186.875 250.27638Q187.625 250.27638 188.0625 249.8545Q188.5 249.43263 188.5 248.71388ZM186.875 243.27638Q186.23438 243.27638 185.82812 243.68263Q185.4375 244.07326 185.4375 244.76076Q185.4375 245.40138 185.82812 245.80763Q186.21875 246.21388 186.85938 246.21388Q187.51562 246.21388 187.90625 245.80763Q188.29688 245.40138 188.29688 244.76076Q188.29688 244.1045 187.89062 243.69826Q187.48438 243.27638 186.875 243.27638Z" fill-rule="nonzero"/><path fill="#ffffff" d="M189.39062 244.7295Q189.39062 245.37013 189.04688 245.87013Q188.70312 246.37013 188.14062 246.65138Q188.79688 246.93263 189.1875 247.49513Q189.57812 248.042 189.57812 248.74513Q189.57812 249.83888 188.82812 250.51076Q188.09375 251.167 186.875 251.167Q185.64062 251.167 184.89062 250.51076Q184.15625 249.83888 184.15625 248.74513Q184.15625 248.042 184.53125 247.49513Q184.90625 246.93263 185.57812 246.65138Q185.01562 246.37013 184.6875 245.87013Q184.35938 245.37013 184.35938 244.7295Q184.35938 243.65138 185.04688 243.02638Q185.73438 242.38576 186.875 242.38576Q188.0 242.38576 188.6875 243.02638Q189.39062 243.65138 189.39062 244.7295ZM188.5 248.71388Q188.5 247.99513 188.04688 247.55763Q187.59375 247.1045 186.85938 247.1045Q186.125 247.1045 185.67188 247.55763Q185.23438 247.99513 185.23438 248.7295Q185.23438 249.44826 185.67188 249.87013Q186.10938 250.27638 186.875 250.27638Q187.625 250.27638 188.0625 249.8545Q188.5 249.43263 188.5 248.71388ZM186.875 243.27638Q186.23438 243.27638 185.82812 243.68263Q185.4375 244.07326 185.4375 244.76076Q185.4375 245.40138 185.82812 245.80763Q186.21875 246.21388 186.85938 246.21388Q187.51562 246.21388 187.90625 245.80763Q188.29688 245.40138 188.29688 244.76076Q188.29688 244.1045 187.89062 243.69826Q187.48438 243.27638 186.875 243.27638Z" fill-rule="nonzero"/><path stroke="#4285f4" stroke-width="3.0" stroke-linejoin="round" stroke-linecap="round" d="M268.26562 189.662L267.1875 189.662L267.1875 182.44325L265.0 183.24013L265.0 182.25575L268.10938 181.08388L268.26562 181.08388L268.26562 189.662ZM273.28125 184.86513L274.09375 184.86513Q274.875 184.8495 275.3125 184.45888Q275.75 184.06825 275.75 183.39638Q275.75 181.89638 274.25 181.89638Q273.54688 181.89638 273.125 182.30263Q272.71875 182.70888 272.71875 183.36513L271.625 183.36513Q271.625 182.3495 272.35938 181.67763Q273.10938 181.00575 274.25 181.00575Q275.45312 181.00575 276.14062 181.64638Q276.82812 182.287 276.82812 183.42763Q276.82812 183.99013 276.46875 184.50575Q276.10938 185.02138 275.48438 185.287Q276.1875 185.50575 276.5625 186.02138Q276.95312 186.537 276.95312 187.287Q276.95312 188.42763 276.20312 189.11513Q275.45312 189.787 274.25 189.787Q273.0625 189.787 272.29688 189.13075Q271.54688 188.4745 271.54688 187.412L272.64062 187.412Q272.64062 188.08388 273.07812 188.49013Q273.51562 188.89638 274.26562 188.89638Q275.04688 188.89638 275.45312 188.49013Q275.875 188.06825 275.875 187.30263Q275.875 186.56825 275.42188 186.17763Q274.96875 185.77138 274.09375 185.75575L273.28125 185.75575L273.28125 184.86513Z" fill-rule="nonzero"/><path fill="#ffffff" d="M268.26562 189.662L267.1875 189.662L267.1875 182.44325L265.0 183.24013L265.0 182.25575L268.10938 181.08388L268.26562 181.08388L268.26562 189.662ZM273.28125 184.86513L274.09375 184.86513Q274.875 184.8495 275.3125 184.45888Q275.75 184.06825 275.75 183.39638Q275.75 181.89638 274.25 181.89638Q273.54688 181.89638 273.125 182.30263Q272.71875 182.70888 272.71875 183.36513L271.625 183.36513Q271.625 182.3495 272.35938 181.67763Q273.10938 181.00575 274.25 181.00575Q275.45312 181.00575 276.14062 181.64638Q276.82812 182.287 276.82812 183.42763Q276.82812 183.99013 276.46875 184.50575Q276.10938 185.02138 275.48438 185.287Q276.1875 185.50575 276.5625 186.02138Q276.95312 186.537 276.95312 187.287Q276.95312 188.42763 276.20312 189.11513Q275.45312 189.787 274.25 189.787Q273.0625 189.787 272.29688 189.13075Q271.54688 188.4745 271.54688 187.412L272.64062 187.412Q272.64062 188.08388 273.07812 188.49013Q273.51562 188.89638 274.26562 188.89638Q275.04688 188.89638 275.45312 188.49013Q275.875 188.06825 275.875 187.30263Q275.875 186.56825 275.42188 186.17763Q274.96875 185.77138 274.09375 185.75575L273.28125 185.75575L273.28125 184.86513Z" fill-rule="nonzero"/><path stroke="#4285f4" stroke-width="3.0" stroke-linejoin="round" stroke-linecap="round" d="M354.78125 307.62512L355.59375 307.62512Q356.375 307.6095 356.8125 307.21887Q357.25 306.82825 357.25 306.15637Q357.25 304.65637 355.75 304.65637Q355.04688 304.65637 354.625 305.06262Q354.21875 305.46887 354.21875 306.12512L353.125 306.12512Q353.125 305.1095 353.85938 304.43762Q354.60938 303.76575 355.75 303.76575Q356.95312 303.76575 357.64062 304.40637Q358.32812 305.047 358.32812 306.18762Q358.32812 306.75012 357.96875 307.26575Q357.60938 307.78137 356.98438 308.047Q357.6875 308.26575 358.0625 308.78137Q358.45312 309.297 358.45312 310.047Q358.45312 311.18762 357.70312 311.87512Q356.95312 312.547 355.75 312.547Q354.5625 312.547 353.79688 311.89075Q353.04688 311.2345 353.04688 310.172L354.14062 310.172Q354.14062 310.84387 354.57812 311.25012Q355.01562 311.65637 355.76562 311.65637Q356.54688 311.65637 356.95312 311.25012Q357.375 310.82825 357.375 310.06262Q357.375 309.32825 356.92188 308.93762Q356.46875 308.53137 355.59375 308.51575L354.78125 308.51575L354.78125 307.62512Z" fill-rule="nonzero"/><path fill="#ffffff" d="M354.78125 307.62512L355.59375 307.62512Q356.375 307.6095 356.8125 307.21887Q357.25 306.82825 357.25 306.15637Q357.25 304.65637 355.75 304.65637Q355.04688 304.65637 354.625 305.06262Q354.21875 305.46887 354.21875 306.12512L353.125 306.12512Q353.125 305.1095 353.85938 304.43762Q354.60938 303.76575 355.75 303.76575Q356.95312 303.76575 357.64062 304.40637Q358.32812 305.047 358.32812 306.18762Q358.32812 306.75012 357.96875 307.26575Q357.60938 307.78137 356.98438 308.047Q357.6875 308.26575 358.0625 308.78137Q358.45312 309.297 358.45312 310.047Q358.45312 311.18762 357.70312 311.87512Q356.95312 312.547 355.75 312.547Q354.5625 312.547 353.79688 311.89075Q353.04688 311.2345 353.04688 310.172L354.14062 310.172Q354.14062 310.84387 354.57812 311.25012Q355.01562 311.65637 355.76562 311.65637Q356.54688 311.65637 356.95312 311.25012Q357.375 310.82825 357.375 310.06262Q357.375 309.32825 356.92188 308.93762Q356.46875 308.53137 355.59375 308.51575L354.78125 308.51575L354.78125 307.62512Z" fill-rule="nonzero"/><path stroke="#ffffff" stroke-width="3.0" stroke-linejoin="round" stroke-linecap="round" d="M442.5625 313.8094Q442.5625 315.71564 441.90625 316.65314Q441.26562 317.575 439.875 317.575Q438.51562 317.575 437.85938 316.66876Q437.20312 315.7625 437.17188 313.95L437.17188 312.5125Q437.17188 310.6219 437.8125 309.71564Q438.46875 308.79376 439.85938 308.79376Q441.23438 308.79376 441.89062 309.6844Q442.54688 310.5594 442.5625 312.40314L442.5625 313.8094ZM441.46875 312.325Q441.46875 310.95 441.07812 310.325Q440.70312 309.6844 439.85938 309.6844Q439.03125 309.6844 438.64062 310.325Q438.26562 310.95 438.26562 312.2469L438.26562 313.98126Q438.26562 315.35626 438.65625 316.02814Q439.0625 316.6844 439.875 316.6844Q440.67188 316.6844 441.0625 316.0594Q441.45312 315.4344 441.46875 314.10626L441.46875 312.325Z" fill-rule="nonzero"/><path fill="#4285f4" d="M442.5625 313.8094Q442.5625 315.71564 441.90625 316.65314Q441.26562 317.575 439.875 317.575Q438.51562 317.575 437.85938 316.66876Q437.20312 315.7625 437.17188 313.95L437.17188 312.5125Q437.17188 310.6219 437.8125 309.71564Q438.46875 308.79376 439.85938 308.79376Q441.23438 308.79376 441.89062 309.6844Q442.54688 310.5594 442.5625 312.40314L442.5625 313.8094ZM441.46875 312.325Q441.46875 310.95 441.07812 310.325Q440.70312 309.6844 439.85938 309.6844Q439.03125 309.6844 438.64062 310.325Q438.26562 310.95 438.26562 312.2469L438.26562 313.98126Q438.26562 315.35626 438.65625 316.02814Q439.0625 316.6844 439.875 316.6844Q440.67188 316.6844 441.0625 316.0594Q441.45312 315.4344 441.46875 314.10626L441.46875 312.325Z" fill-rule="nonzero"/><path stroke="#4285f4" stroke-width="3.0" stroke-linejoin="round" stroke-linecap="round" d="M526.71875 255.39612L523.1875 263.318L522.0469 263.318L525.5625 255.67737L520.9531 255.67737L520.9531 254.78674L526.71875 254.78674L526.71875 255.39612Z" fill-rule="nonzero"/><path fill="#ffffff" d="M526.71875 255.39612L523.1875 263.318L522.0469 263.318L525.5625 255.67737L520.9531 255.67737L520.9531 254.78674L526.71875 254.78674L526.71875 255.39612Z" fill-rule="nonzero"/><path fill="#000000" d="M33.05 332.21564Q33.05 330.6844 33.3625 329.7625Q33.675 328.825 34.284374 328.325Q34.909374 327.825 35.846874 327.825Q36.534374 327.825 37.05 328.10626Q37.58125 328.3875 37.925 328.91876Q38.26875 329.4344 38.45625 330.1844Q38.64375 330.9344 38.64375 332.21564Q38.64375 333.73126 38.33125 334.65314Q38.034374 335.575 37.409374 336.09064Q36.8 336.59064 35.846874 336.59064Q34.6125 336.59064 33.89375 335.7Q33.05 334.6375 33.05 332.21564ZM34.128124 332.21564Q34.128124 334.325 34.628124 335.02814Q35.128124 335.73126 35.846874 335.73126Q36.58125 335.73126 37.065624 335.02814Q37.565624 334.325 37.565624 332.21564Q37.565624 330.09064 37.065624 329.40314Q36.58125 328.7 35.83125 328.7Q35.1125 328.7 34.675 329.3094Q34.128124 330.09064 34.128124 332.21564Z" fill-rule="nonzero"/><path fill="#000000" d="M33.05 272.82L34.159374 272.72626Q34.284374 273.53876 34.721874 273.945Q35.175 274.35126 35.815624 274.35126Q36.565624 274.35126 37.096874 273.77313Q37.628124 273.195 37.628124 272.2575Q37.628124 271.35126 37.1125 270.83563Q36.6125 270.30438 35.784374 270.30438Q35.284374 270.30438 34.8625 270.53876Q34.45625 270.77313 34.221874 271.1325L33.2375 271.0075L34.065624 266.60126L38.346874 266.60126L38.346874 267.60126L34.909374 267.60126L34.45625 269.91376Q35.221874 269.36688 36.065624 269.36688Q37.190624 269.36688 37.95625 270.14813Q38.7375 270.92938 38.7375 272.16376Q38.7375 273.32 38.065624 274.17938Q37.2375 275.21063 35.815624 275.21063Q34.64375 275.21063 33.89375 274.55438Q33.159374 273.89813 33.05 272.82Z" fill-rule="nonzero"/><path fill="#000000" d="M30.01875 213.69L28.971874 213.69L28.971874 206.97125Q28.58125 207.33063 27.95625 207.70563Q27.346874 208.065 26.8625 208.23688L26.8625 207.22125Q27.7375 206.79938 28.39375 206.22125Q29.065624 205.6275 29.346874 205.065L30.01875 205.065L30.01875 213.69ZM33.05 209.45563Q33.05 207.92438 33.3625 207.0025Q33.675 206.065 34.284374 205.565Q34.909374 205.065 35.846874 205.065Q36.534374 205.065 37.05 205.34625Q37.58125 205.6275 37.925 206.15875Q38.26875 206.67438 38.45625 207.42438Q38.64375 208.17438 38.64375 209.45563Q38.64375 210.97125 38.33125 211.89313Q38.034374 212.815 37.409374 213.33063Q36.8 213.83063 35.846874 213.83063Q34.6125 213.83063 33.89375 212.94Q33.05 211.8775 33.05 209.45563ZM34.128124 209.45563Q34.128124 211.565 34.628124 212.26813Q35.128124 212.97125 35.846874 212.97125Q36.58125 212.97125 37.065624 212.26813Q37.565624 211.565 37.565624 209.45563Q37.565624 207.33063 37.065624 206.64313Q36.58125 205.94 35.83125 205.94Q35.1125 205.94 34.675 206.54938Q34.128124 207.33063 34.128124 209.45563Z" fill-rule="nonzero"/><path fill="#000000" d="M30.01875 152.31L28.971874 152.31L28.971874 145.59125Q28.58125 145.95062 27.95625 146.32562Q27.346874 146.685 26.8625 146.85687L26.8625 145.84125Q27.7375 145.41937 28.39375 144.84125Q29.065624 144.2475 29.346874 143.685L30.01875 143.685L30.01875 152.31ZM33.05 150.06L34.159374 149.96625Q34.284374 150.77875 34.721874 151.185Q35.175 151.59125 35.815624 151.59125Q36.565624 151.59125 37.096874 151.01312Q37.628124 150.435 37.628124 149.4975Q37.628124 148.59125 37.1125 148.07562Q36.6125 147.54437 35.784374 147.54437Q35.284374 147.54437 34.8625 147.77875Q34.45625 148.01312 34.221874 148.3725L33.2375 148.2475L34.065624 143.84125L38.346874 143.84125L38.346874 144.84125L34.909374 144.84125L34.45625 147.15375Q35.221874 146.60687 36.065624 146.60687Q37.190624 146.60687 37.95625 147.38812Q38.7375 148.16937 38.7375 149.40375Q38.7375 150.56 38.065624 151.41937Q37.2375 152.45062 35.815624 152.45062Q34.64375 152.45062 33.89375 151.79437Q33.159374 151.13812 33.05 150.06Z" fill-rule="nonzero"/><path fill="#000000" d="M31.596874 89.914375L31.596874 90.93L25.909374 90.93Q25.909374 90.555 26.034374 90.195625Q26.253124 89.6175 26.721874 89.055Q27.20625 88.4925 28.1125 87.758125Q29.51875 86.601875 30.003124 85.93Q30.503124 85.258125 30.503124 84.664375Q30.503124 84.039375 30.05 83.6175Q29.596874 83.18 28.878124 83.18Q28.1125 83.18 27.659374 83.633125Q27.20625 84.08625 27.190624 84.89875L26.1125 84.789375Q26.221874 83.570625 26.940624 82.945625Q27.675 82.305 28.909374 82.305Q30.14375 82.305 30.8625 82.9925Q31.58125 83.68 31.58125 84.695625Q31.58125 85.21125 31.3625 85.71125Q31.159374 86.195625 30.659374 86.758125Q30.175 87.305 29.05 88.258125Q28.096874 89.055 27.815624 89.351875Q27.55 89.633125 27.378124 89.914375L31.596874 89.914375ZM33.05 86.695625Q33.05 85.164375 33.3625 84.2425Q33.675 83.305 34.284374 82.805Q34.909374 82.305 35.846874 82.305Q36.534374 82.305 37.05 82.58625Q37.58125 82.8675 37.925 83.39875Q38.26875 83.914375 38.45625 84.664375Q38.64375 85.414375 38.64375 86.695625Q38.64375 88.21125 38.33125 89.133125Q38.034374 90.055 37.409374 90.570625Q36.8 91.070625 35.846874 91.070625Q34.6125 91.070625 33.89375 90.18Q33.05 89.1175 33.05 86.695625ZM34.128124 86.695625Q34.128124 88.805 34.628124 89.508125Q35.128124 90.21125 35.846874 90.21125Q36.58125 90.21125 37.065624 89.508125Q37.565624 88.805 37.565624 86.695625Q37.565624 84.570625 37.065624 83.883125Q36.58125 83.18 35.83125 83.18Q35.1125 83.18 34.675 83.789375Q34.128124 84.570625 34.128124 86.695625Z" fill-rule="nonzero"/><path fill="#000000" d="M31.596874 28.534374L31.596874 29.55L25.909374 29.55Q25.909374 29.175 26.034374 28.815624Q26.253124 28.2375 26.721874 27.675Q27.20625 27.1125 28.1125 26.378124Q29.51875 25.221874 30.003124 24.55Q30.503124 23.878124 30.503124 23.284374Q30.503124 22.659374 30.05 22.2375Q29.596874 21.8 28.878124 21.8Q28.1125 21.8 27.659374 22.253124Q27.20625 22.70625 27.190624 23.51875L26.1125 23.409374Q26.221874 22.190624 26.940624 21.565624Q27.675 20.925 28.909374 20.925Q30.14375 20.925 30.8625 21.6125Q31.58125 22.3 31.58125 23.315624Q31.58125 23.83125 31.3625 24.33125Q31.159374 24.815624 30.659374 25.378124Q30.175 25.925 29.05 26.878124Q28.096874 27.675 27.815624 27.971874Q27.55 28.253124 27.378124 28.534374L31.596874 28.534374ZM33.05 27.3L34.159374 27.20625Q34.284374 28.01875 34.721874 28.425Q35.175 28.83125 35.815624 28.83125Q36.565624 28.83125 37.096874 28.253124Q37.628124 27.675 37.628124 26.7375Q37.628124 25.83125 37.1125 25.315624Q36.6125 24.784374 35.784374 24.784374Q35.284374 24.784374 34.8625 25.01875Q34.45625 25.253124 34.221874 25.6125L33.2375 25.4875L34.065624 21.08125L38.346874 21.08125L38.346874 22.08125L34.909374 22.08125L34.45625 24.39375Q35.221874 23.846874 36.065624 23.846874Q37.190624 23.846874 37.95625 24.628124Q38.7375 25.409374 38.7375 26.64375Q38.7375 27.8 38.065624 28.659374Q37.2375 29.690624 35.815624 29.690624Q34.64375 29.690624 33.89375 29.034374Q33.159374 28.378124 33.05 27.3Z" fill-rule="nonzero"/><path fill="#000000" d="M72.78137 349.45L72.78137 340.85626L73.84387 340.85626L73.84387 349.45L72.78137 349.45ZM80.06262 347.45L81.15637 347.575Q80.90637 348.52814 80.20325 349.0594Q79.50012 349.59064 78.422 349.59064Q77.06262 349.59064 76.25012 348.7469Q75.45325 347.90314 75.45325 346.3875Q75.45325 344.825 76.26575 343.96564Q77.07825 343.09064 78.3595 343.09064Q79.6095 343.09064 80.39075 343.9344Q81.18762 344.77814 81.18762 346.325Q81.18762 346.41876 81.18762 346.60626L76.547 346.60626Q76.6095 347.6375 77.12512 348.1844Q77.64075 348.71564 78.422 348.71564Q79.00012 348.71564 79.40637 348.41876Q79.82825 348.10626 80.06262 347.45ZM76.6095 345.7469L80.07825 345.7469Q80.01575 344.95 79.68762 344.5594Q79.172 343.95 78.37512 343.95Q77.64075 343.95 77.14075 344.4344Q76.65637 344.91876 76.6095 345.7469ZM82.39075 347.59064L83.422 347.4344Q83.51575 348.0594 83.90637 348.3875Q84.31262 348.71564 85.047 348.71564Q85.76575 348.71564 86.1095 348.4344Q86.46887 348.1375 86.46887 347.73126Q86.46887 347.3719 86.15637 347.16876Q85.93762 347.02814 85.07825 346.8094Q83.922 346.5125 83.46887 346.3094Q83.03137 346.09064 82.797 345.71564Q82.56262 345.34064 82.56262 344.8719Q82.56262 344.46564 82.75012 344.10626Q82.93762 343.7469 83.26575 343.5125Q83.51575 343.34064 83.93762 343.21564Q84.3595 343.09064 84.8595 343.09064Q85.57825 343.09064 86.12512 343.3094Q86.68762 343.5125 86.95325 343.8719Q87.21887 344.23126 87.31262 344.825L86.28137 344.96564Q86.21887 344.4969 85.87512 344.23126Q85.547 343.95 84.922 343.95Q84.20325 343.95 83.89075 344.2Q83.57825 344.4344 83.57825 344.7625Q83.57825 344.96564 83.70325 345.1219Q83.84387 345.29376 84.1095 345.40314Q84.26575 345.46564 85.047 345.66876Q86.172 345.98126 86.6095 346.16876Q87.047 346.35626 87.297 346.71564Q87.547 347.075 87.547 347.6219Q87.547 348.15314 87.2345 348.6219Q86.93762 349.075 86.3595 349.34064Q85.78137 349.59064 85.047 349.59064Q83.82825 349.59064 83.18762 349.09064Q82.56262 348.575 82.39075 347.59064ZM89.39075 347.59064L90.422 347.4344Q90.51575 348.0594 90.90637 348.3875Q91.31262 348.71564 92.047 348.71564Q92.76575 348.71564 93.1095 348.4344Q93.46887 348.1375 93.46887 347.73126Q93.46887 347.3719 93.15637 347.16876Q92.93762 347.02814 92.07825 346.8094Q90.922 346.5125 90.46887 346.3094Q90.03137 346.09064 89.797 345.71564Q89.56262 345.34064 89.56262 344.8719Q89.56262 344.46564 89.75012 344.10626Q89.93762 343.7469 90.26575 343.5125Q90.51575 343.34064 90.93762 343.21564Q91.3595 343.09064 91.8595 343.09064Q92.57825 343.09064 93.12512 343.3094Q93.68762 343.5125 93.95325 343.8719Q94.21887 344.23126 94.31262 344.825L93.28137 344.96564Q93.21887 344.4969 92.87512 344.23126Q92.547 343.95 91.922 343.95Q91.20325 343.95 90.89075 344.2Q90.57825 344.4344 90.57825 344.7625Q90.57825 344.96564 90.70325 345.1219Q90.84387 345.29376 91.1095 345.40314Q91.26575 345.46564 92.047 345.66876Q93.172 345.98126 93.6095 346.16876Q94.047 346.35626 94.297 346.71564Q94.547 347.075 94.547 347.6219Q94.547 348.15314 94.2345 348.6219Q93.93762 349.075 93.3595 349.34064Q92.78137 349.59064 92.047 349.59064Q90.82825 349.59064 90.18762 349.09064Q89.56262 348.575 89.39075 347.59064ZM102.1095 348.5125L102.26575 349.4344Q101.81262 349.52814 101.46887 349.52814Q100.89075 349.52814 100.57825 349.35626Q100.26575 349.16876 100.12512 348.8719Q100.00012 348.575 100.00012 347.6219L100.00012 344.04376L99.2345 344.04376L99.2345 343.23126L100.00012 343.23126L100.00012 341.6844L101.047 341.0594L101.047 343.23126L102.1095 343.23126L102.1095 344.04376L101.047 344.04376L101.047 347.6844Q101.047 348.1375 101.09387 348.2625Q101.15637 348.3875 101.28137 348.46564Q101.40637 348.54376 101.64075 348.54376Q101.82825 348.54376 102.1095 348.5125ZM102.81262 349.45L102.81262 340.85626L103.8595 340.85626L103.8595 343.9344Q104.59387 343.09064 105.71887 343.09064Q106.422 343.09064 106.922 343.3719Q107.43762 343.6375 107.65637 344.1219Q107.87512 344.59064 107.87512 345.5125L107.87512 349.45L106.82825 349.45L106.82825 345.5125Q106.82825 344.71564 106.4845 344.35626Q106.14075 343.9969 105.51575 343.9969Q105.047 343.9969 104.62512 344.2469Q104.21887 344.48126 104.03137 344.90314Q103.8595 345.3094 103.8595 346.04376L103.8595 349.45L102.81262 349.45ZM113.87512 348.6844Q113.28137 349.1844 112.7345 349.3875Q112.20325 349.59064 111.57825 349.59064Q110.547 349.59064 110.00012 349.09064Q109.45325 348.59064 109.45325 347.8094Q109.45325 347.35626 109.65637 346.98126Q109.8595 346.59064 110.20325 346.3719Q110.547 346.1375 110.96887 346.02814Q111.26575 345.9344 111.90637 345.85626Q113.172 345.71564 113.78137 345.4969Q113.78137 345.27814 113.78137 345.23126Q113.78137 344.575 113.4845 344.3094Q113.07825 343.96564 112.28137 343.96564Q111.547 343.96564 111.18762 344.23126Q110.82825 344.48126 110.65637 345.1375L109.62512 344.9969Q109.76575 344.34064 110.09387 343.9344Q110.422 343.52814 111.03137 343.3094Q111.64075 343.09064 112.43762 343.09064Q113.2345 343.09064 113.7345 343.27814Q114.2345 343.46564 114.46887 343.7469Q114.70325 344.02814 114.797 344.46564Q114.84387 344.73126 114.84387 345.4344L114.84387 346.84064Q114.84387 348.3094 114.90637 348.7Q114.9845 349.09064 115.18762 349.45L114.07825 349.45Q113.922 349.1219 113.87512 348.6844ZM113.78137 346.325Q113.20325 346.5594 112.06262 346.73126Q111.40637 346.825 111.14075 346.95Q110.87512 347.0594 110.71887 347.27814Q110.57825 347.4969 110.57825 347.77814Q110.57825 348.2 110.89075 348.48126Q111.21887 348.7625 111.82825 348.7625Q112.43762 348.7625 112.90637 348.4969Q113.39075 348.23126 113.6095 347.7625Q113.78137 347.40314 113.78137 346.71564L113.78137 346.325ZM116.81262 349.45L116.81262 343.23126L117.75012 343.23126L117.75012 344.10626Q118.43762 343.09064 119.7345 343.09064Q120.297 343.09064 120.76575 343.29376Q121.25012 343.4969 121.4845 343.825Q121.71887 344.15314 121.81262 344.59064Q121.8595 344.8875 121.8595 345.6219L121.8595 349.45L120.81262 349.45L120.81262 345.66876Q120.81262 345.0125 120.68762 344.7Q120.56262 344.3875 120.25012 344.2Q119.93762 343.9969 119.51575 343.9969Q118.84387 343.9969 118.34387 344.4344Q117.8595 344.85626 117.8595 346.04376L117.8595 349.45L116.81262 349.45ZM126.51575 347.2L127.62512 347.10626Q127.75012 347.91876 128.18762 348.325Q128.64075 348.73126 129.28137 348.73126Q130.03137 348.73126 130.56262 348.15314Q131.09387 347.575 131.09387 346.6375Q131.09387 345.73126 130.57825 345.21564Q130.07825 344.6844 129.25012 344.6844Q128.75012 344.6844 128.32825 344.91876Q127.922 345.15314 127.68762 345.5125L126.70325 345.3875L127.53137 340.98126L131.81262 340.98126L131.81262 341.98126L128.37512 341.98126L127.922 344.29376Q128.68762 343.7469 129.53137 343.7469Q130.65637 343.7469 131.422 344.52814Q132.20325 345.3094 132.20325 346.54376Q132.20325 347.7 131.53137 348.5594Q130.70325 349.59064 129.28137 349.59064Q128.1095 349.59064 127.3595 348.9344Q126.62512 348.27814 126.51575 347.2Z" fill-rule="nonzero"/><path fill="#000000" d="M174.90945 347.2L176.01883 347.10626Q176.14383 347.91876 176.58133 348.325Q177.03445 348.73126 177.67508 348.73126Q178.42508 348.73126 178.95633 348.15314Q179.48758 347.575 179.48758 346.6375Q179.48758 345.73126 178.97195 345.21564Q178.47195 344.6844 177.64383 344.6844Q177.14383 344.6844 176.72195 344.91876Q176.3157 345.15314 176.08133 345.5125L175.09695 345.3875L175.92508 340.98126L180.20633 340.98126L180.20633 341.98126L176.76883 341.98126L176.3157 344.29376Q177.08133 343.7469 177.92508 343.7469Q179.05008 343.7469 179.8157 344.52814Q180.59695 345.3094 180.59695 346.54376Q180.59695 347.7 179.92508 348.5594Q179.09695 349.59064 177.67508 349.59064Q176.5032 349.59064 175.7532 348.9344Q175.01883 348.27814 174.90945 347.2ZM181.78445 346.8719L181.78445 345.8094L185.03445 345.8094L185.03445 346.8719L181.78445 346.8719ZM189.8782 349.45L188.83133 349.45L188.83133 342.73126Q188.4407 343.09064 187.8157 343.46564Q187.20633 343.825 186.72195 343.9969L186.72195 342.98126Q187.59695 342.5594 188.2532 341.98126Q188.92508 341.3875 189.20633 340.825L189.8782 340.825L189.8782 349.45ZM192.90945 345.21564Q192.90945 343.6844 193.22195 342.7625Q193.53445 341.825 194.14383 341.325Q194.76883 340.825 195.70633 340.825Q196.39383 340.825 196.90945 341.10626Q197.4407 341.3875 197.78445 341.91876Q198.1282 342.4344 198.3157 343.1844Q198.5032 343.9344 198.5032 345.21564Q198.5032 346.73126 198.1907 347.65314Q197.89383 348.575 197.26883 349.09064Q196.65945 349.59064 195.70633 349.59064Q194.47195 349.59064 193.7532 348.7Q192.90945 347.6375 192.90945 345.21564ZM193.98758 345.21564Q193.98758 347.325 194.48758 348.02814Q194.98758 348.73126 195.70633 348.73126Q196.4407 348.73126 196.92508 348.02814Q197.42508 347.325 197.42508 345.21564Q197.42508 343.09064 196.92508 342.40314Q196.4407 341.7 195.6907 341.7Q194.97195 341.7 194.53445 342.3094Q193.98758 343.09064 193.98758 345.21564Z" fill-rule="nonzero"/><path fill="#000000" d="M259.7719 349.45L258.72504 349.45L258.72504 342.73126Q258.3344 343.09064 257.7094 343.46564Q257.10004 343.825 256.61566 343.9969L256.61566 342.98126Q257.49066 342.5594 258.1469 341.98126Q258.8188 341.3875 259.10004 340.825L259.7719 340.825L259.7719 349.45ZM262.80316 345.21564Q262.80316 343.6844 263.11566 342.7625Q263.42816 341.825 264.03754 341.325Q264.66254 340.825 265.60004 340.825Q266.28754 340.825 266.80316 341.10626Q267.3344 341.3875 267.67816 341.91876Q268.0219 342.4344 268.2094 343.1844Q268.3969 343.9344 268.3969 345.21564Q268.3969 346.73126 268.0844 347.65314Q267.78754 348.575 267.16254 349.09064Q266.55316 349.59064 265.60004 349.59064Q264.36566 349.59064 263.6469 348.7Q262.80316 347.6375 262.80316 345.21564ZM263.8813 345.21564Q263.8813 347.325 264.3813 348.02814Q264.8813 348.73126 265.60004 348.73126Q266.3344 348.73126 266.8188 348.02814Q267.3188 347.325 267.3188 345.21564Q267.3188 343.09064 266.8188 342.40314Q266.3344 341.7 265.5844 341.7Q264.86566 341.7 264.42816 342.3094Q263.8813 343.09064 263.8813 345.21564ZM269.67816 346.8719L269.67816 345.8094L272.92816 345.8094L272.92816 346.8719L269.67816 346.8719ZM279.35004 348.4344L279.35004 349.45L273.66254 349.45Q273.66254 349.075 273.78754 348.71564Q274.0063 348.1375 274.47504 347.575Q274.9594 347.0125 275.86566 346.27814Q277.2719 345.1219 277.7563 344.45Q278.2563 343.77814 278.2563 343.1844Q278.2563 342.5594 277.80316 342.1375Q277.35004 341.7 276.6313 341.7Q275.86566 341.7 275.41254 342.15314Q274.9594 342.60626 274.9438 343.41876L273.86566 343.3094Q273.97504 342.09064 274.6938 341.46564Q275.42816 340.825 276.66254 340.825Q277.8969 340.825 278.61566 341.5125Q279.3344 342.2 279.3344 343.21564Q279.3344 343.73126 279.11566 344.23126Q278.91254 344.71564 278.41254 345.27814Q277.92816 345.825 276.80316 346.77814Q275.85004 347.575 275.5688 347.8719Q275.30316 348.15314 275.1313 348.4344L279.35004 348.4344ZM280.80316 345.21564Q280.80316 343.6844 281.11566 342.7625Q281.42816 341.825 282.03754 341.325Q282.66254 340.825 283.60004 340.825Q284.28754 340.825 284.80316 341.10626Q285.3344 341.3875 285.67816 341.91876Q286.0219 342.4344 286.2094 343.1844Q286.3969 343.9344 286.3969 345.21564Q286.3969 346.73126 286.0844 347.65314Q285.78754 348.575 285.16254 349.09064Q284.55316 349.59064 283.60004 349.59064Q282.36566 349.59064 281.6469 348.7Q280.80316 347.6375 280.80316 345.21564ZM281.8813 345.21564Q281.8813 347.325 282.3813 348.02814Q282.8813 348.73126 283.60004 348.73126Q284.3344 348.73126 284.8188 348.02814Q285.3188 347.325 285.3188 345.21564Q285.3188 343.09064 284.8188 342.40314Q284.3344 341.7 283.5844 341.7Q282.86566 341.7 282.42816 342.3094Q281.8813 343.09064 281.8813 345.21564Z" fill-rule="nonzero"/><path fill="#000000" d="M345.7437 348.4344L345.7437 349.45L340.0562 349.45Q340.0562 349.075 340.1812 348.71564Q340.39996 348.1375 340.8687 347.575Q341.3531 347.0125 342.25934 346.27814Q343.6656 345.1219 344.14996 344.45Q344.64996 343.77814 344.64996 343.1844Q344.64996 342.5594 344.19684 342.1375Q343.7437 341.7 343.02496 341.7Q342.25934 341.7 341.8062 342.15314Q341.3531 342.60626 341.33746 343.41876L340.25934 343.3094Q340.3687 342.09064 341.08746 341.46564Q341.82184 340.825 343.0562 340.825Q344.2906 340.825 345.00934 341.5125Q345.7281 342.2 345.7281 343.21564Q345.7281 343.73126 345.50934 344.23126Q345.3062 344.71564 344.8062 345.27814Q344.32184 345.825 343.19684 346.77814Q342.2437 347.575 341.96246 347.8719Q341.69684 348.15314 341.52496 348.4344L345.7437 348.4344ZM347.19684 345.21564Q347.19684 343.6844 347.50934 342.7625Q347.82184 341.825 348.4312 341.325Q349.0562 340.825 349.9937 340.825Q350.6812 340.825 351.19684 341.10626Q351.7281 341.3875 352.07184 341.91876Q352.4156 342.4344 352.6031 343.1844Q352.7906 343.9344 352.7906 345.21564Q352.7906 346.73126 352.4781 347.65314Q352.1812 348.575 351.5562 349.09064Q350.94684 349.59064 349.9937 349.59064Q348.75934 349.59064 348.0406 348.7Q347.19684 347.6375 347.19684 345.21564ZM348.27496 345.21564Q348.27496 347.325 348.77496 348.02814Q349.27496 348.73126 349.9937 348.73126Q350.7281 348.73126 351.21246 348.02814Q351.71246 347.325 351.71246 345.21564Q351.71246 343.09064 351.21246 342.40314Q350.7281 341.7 349.9781 341.7Q349.25934 341.7 348.82184 342.3094Q348.27496 343.09064 348.27496 345.21564ZM354.07184 346.8719L354.07184 345.8094L357.32184 345.8094L357.32184 346.8719L354.07184 346.8719ZM358.19684 347.1844L359.25934 347.04376Q359.4312 347.9344 359.8687 348.34064Q360.3062 348.73126 360.9312 348.73126Q361.6812 348.73126 362.19684 348.21564Q362.71246 347.7 362.71246 346.9344Q362.71246 346.21564 362.2281 345.7469Q361.75934 345.2625 361.02496 345.2625Q360.7281 345.2625 360.27496 345.3875L360.39996 344.45Q360.50934 344.46564 360.57184 344.46564Q361.2437 344.46564 361.77496 344.1219Q362.32184 343.7625 362.32184 343.02814Q362.32184 342.45 361.9312 342.075Q361.5406 341.6844 360.9156 341.6844Q360.3062 341.6844 359.88434 342.075Q359.4781 342.46564 359.3687 343.23126L358.3062 343.04376Q358.4937 341.9969 359.1812 341.41876Q359.8687 340.825 360.88434 340.825Q361.58746 340.825 362.1812 341.1375Q362.77496 341.4344 363.08746 341.95Q363.39996 342.46564 363.39996 343.0594Q363.39996 343.60626 363.1031 344.075Q362.8062 344.52814 362.2281 344.79376Q362.9781 344.96564 363.39996 345.52814Q363.82184 346.075 363.82184 346.91876Q363.82184 348.04376 362.9937 348.825Q362.1812 349.60626 360.9312 349.60626Q359.8062 349.60626 359.0562 348.9344Q358.3062 348.2469 358.19684 347.1844ZM365.19684 345.21564Q365.19684 343.6844 365.50934 342.7625Q365.82184 341.825 366.4312 341.325Q367.0562 340.825 367.9937 340.825Q368.6812 340.825 369.19684 341.10626Q369.7281 341.3875 370.07184 341.91876Q370.4156 342.4344 370.6031 343.1844Q370.7906 343.9344 370.7906 345.21564Q370.7906 346.73126 370.4781 347.65314Q370.1812 348.575 369.5562 349.09064Q368.94684 349.59064 367.9937 349.59064Q366.75934 349.59064 366.0406 348.7Q365.19684 347.6375 365.19684 345.21564ZM366.27496 345.21564Q366.27496 347.325 366.77496 348.02814Q367.27496 348.73126 367.9937 348.73126Q368.7281 348.73126 369.21246 348.02814Q369.71246 347.325 369.71246 345.21564Q369.71246 343.09064 369.21246 342.40314Q368.7281 341.7 367.9781 341.7Q367.25934 341.7 366.82184 342.3094Q366.27496 343.09064 366.27496 345.21564Z" fill-rule="nonzero"/><path fill="#000000" d="M424.59055 347.1844L425.65305 347.04376Q425.82492 347.9344 426.26242 348.34064Q426.69992 348.73126 427.32492 348.73126Q428.07492 348.73126 428.59055 348.21564Q429.10617 347.7 429.10617 346.9344Q429.10617 346.21564 428.6218 345.7469Q428.15305 345.2625 427.41867 345.2625Q427.1218 345.2625 426.66867 345.3875L426.79367 344.45Q426.90305 344.46564 426.96555 344.46564Q427.63742 344.46564 428.16867 344.1219Q428.71555 343.7625 428.71555 343.02814Q428.71555 342.45 428.32492 342.075Q427.9343 341.6844 427.3093 341.6844Q426.69992 341.6844 426.27805 342.075Q425.8718 342.46564 425.76242 343.23126L424.69992 343.04376Q424.88742 341.9969 425.57492 341.41876Q426.26242 340.825 427.27805 340.825Q427.98117 340.825 428.57492 341.1375Q429.16867 341.4344 429.48117 341.95Q429.79367 342.46564 429.79367 343.0594Q429.79367 343.60626 429.4968 344.075Q429.19992 344.52814 428.6218 344.79376Q429.3718 344.96564 429.79367 345.52814Q430.21555 346.075 430.21555 346.91876Q430.21555 348.04376 429.38742 348.825Q428.57492 349.60626 427.32492 349.60626Q426.19992 349.60626 425.44992 348.9344Q424.69992 348.2469 424.59055 347.1844ZM431.59055 345.21564Q431.59055 343.6844 431.90305 342.7625Q432.21555 341.825 432.82492 341.325Q433.44992 340.825 434.38742 340.825Q435.07492 340.825 435.59055 341.10626Q436.1218 341.3875 436.46555 341.91876Q436.8093 342.4344 436.9968 343.1844Q437.1843 343.9344 437.1843 345.21564Q437.1843 346.73126 436.8718 347.65314Q436.57492 348.575 435.94992 349.09064Q435.34055 349.59064 434.38742 349.59064Q433.15305 349.59064 432.4343 348.7Q431.59055 347.6375 431.59055 345.21564ZM432.66867 345.21564Q432.66867 347.325 433.16867 348.02814Q433.66867 348.73126 434.38742 348.73126Q435.1218 348.73126 435.60617 348.02814Q436.10617 347.325 436.10617 345.21564Q436.10617 343.09064 435.60617 342.40314Q435.1218 341.7 434.3718 341.7Q433.65305 341.7 433.21555 342.3094Q432.66867 343.09064 432.66867 345.21564ZM438.46555 346.8719L438.46555 345.8094L441.71555 345.8094L441.71555 346.8719L438.46555 346.8719ZM445.96555 349.45L445.96555 347.3875L442.2468 347.3875L442.2468 346.41876L446.16867 340.85626L447.02805 340.85626L447.02805 346.41876L448.1843 346.41876L448.1843 347.3875L447.02805 347.3875L447.02805 349.45L445.96555 349.45ZM445.96555 346.41876L445.96555 342.5594L443.27805 346.41876L445.96555 346.41876ZM449.59055 345.21564Q449.59055 343.6844 449.90305 342.7625Q450.21555 341.825 450.82492 341.325Q451.44992 340.825 452.38742 340.825Q453.07492 340.825 453.59055 341.10626Q454.1218 341.3875 454.46555 341.91876Q454.8093 342.4344 454.9968 343.1844Q455.1843 343.9344 455.1843 345.21564Q455.1843 346.73126 454.8718 347.65314Q454.57492 348.575 453.94992 349.09064Q453.34055 349.59064 452.38742 349.59064Q451.15305 349.59064 450.4343 348.7Q449.59055 347.6375 449.59055 345.21564ZM450.66867 345.21564Q450.66867 347.325 451.16867 348.02814Q451.66867 348.73126 452.38742 348.73126Q453.1218 348.73126 453.60617 348.02814Q454.10617 347.325 454.10617 345.21564Q454.10617 343.09064 453.60617 342.40314Q453.1218 341.7 452.3718 341.7Q451.65305 341.7 451.21555 342.3094Q450.66867 343.09064 450.66867 345.21564Z" fill-rule="nonzero"/><path fill="#000000" d="M517.85925 349.45L517.85925 347.3875L514.1405 347.3875L514.1405 346.41876L518.0624 340.85626L518.92175 340.85626L518.92175 346.41876L520.078 346.41876L520.078 347.3875L518.92175 347.3875L518.92175 349.45L517.85925 349.45ZM517.85925 346.41876L517.85925 342.5594L515.17175 346.41876L517.85925 346.41876ZM521.48425 345.21564Q521.48425 343.6844 521.79675 342.7625Q522.10925 341.825 522.7186 341.325Q523.3436 340.825 524.2811 340.825Q524.9686 340.825 525.48425 341.10626Q526.0155 341.3875 526.35925 341.91876Q526.703 342.4344 526.8905 343.1844Q527.078 343.9344 527.078 345.21564Q527.078 346.73126 526.7655 347.65314Q526.4686 348.575 525.8436 349.09064Q525.23425 349.59064 524.2811 349.59064Q523.04675 349.59064 522.328 348.7Q521.48425 347.6375 521.48425 345.21564ZM522.5624 345.21564Q522.5624 347.325 523.0624 348.02814Q523.5624 348.73126 524.2811 348.73126Q525.0155 348.73126 525.4999 348.02814Q525.9999 347.325 525.9999 345.21564Q525.9999 343.09064 525.4999 342.40314Q525.0155 341.7 524.2655 341.7Q523.54675 341.7 523.10925 342.3094Q522.5624 343.09064 522.5624 345.21564ZM530.98425 348.0594L530.98425 345.7L528.6561 345.7L528.6561 344.71564L530.98425 344.71564L530.98425 342.3875L531.98425 342.3875L531.98425 344.71564L534.328 344.71564L534.328 345.7L531.98425 345.7L531.98425 348.0594L530.98425 348.0594Z" fill-rule="nonzero"/></svg>