<svg version="1.1" viewBox="0.0 0.0 600.0 371.0" fill="none" stroke="none" stroke-linecap="square" stroke-miterlimit="10" width="600" height="371" xmlns:xlink="http://www.w3.org/1999/xlink" xmlns="http://www.w3.org/2000/svg"><path fill="#ffffff" d="M0 0L600.0 0L600.0 371.0L0 371.0L0 0Z" fill-rule="nonzero"/><path fill="#4285f4" d="M300.0 18.55C349.58627 18.55 396.60666 40.592247 428.32565 78.70659L300.0 185.5Z" fill-rule="nonzero"/><path fill="#ea4335" d="M428.32565 78.70659C460.04465 116.82093 473.1796 167.06284 464.1729 215.82428C455.1662 264.5857 424.94998 306.82025 381.7083 331.08865L300.0 185.5Z" fill-rule="nonzero"/><path fill="#fbbc04" d="M381.7083 331.08865C360.34924 343.07593 336.6142 350.21677 312.18655 352.00464L300.0 185.5Z" fill-rule="nonzero"/><path fill="#34a853" d="M312.18655 352.00464C251.24911 356.46466 192.743 327.2798 159.65273 275.9154C126.56245 224.55103 124.17458 159.21327 153.42723 105.570496C182.67987 51.92771 238.89955 18.55 300.0 18.55L300.0 185.5Z" fill-rule="nonzero"/><path fill="#1a1a1a" d="M19.128124 182.60498Q19.128124 180.46436 20.26875 179.26123Q21.425 178.04248 23.2375 178.04248Q24.440624 178.04248 25.39375 178.6206Q26.346874 179.1831 26.846874 180.19873Q27.346874 181.21436 27.346874 182.51123Q27.346874 183.8081 26.815624 184.83936Q26.284374 185.8706 25.315624 186.40186Q24.3625 186.9331 23.2375 186.9331Q22.01875 186.9331 21.065624 186.35498Q20.1125 185.76123 19.6125 184.76123Q19.128124 183.7456 19.128124 182.60498ZM20.3 182.6206Q20.3 184.1831 21.128124 185.07373Q21.971874 185.96436 23.2375 185.96436Q24.51875 185.96436 25.346874 185.07373Q26.175 184.16748 26.175 182.4956Q26.175 181.44873 25.815624 180.66748Q25.471874 179.88623 24.784374 179.46436Q24.096874 179.02686 23.253124 179.02686Q22.05 179.02686 21.175 179.85498Q20.3 180.6831 20.3 182.6206ZM28.346874 186.79248L28.346874 180.57373L29.284374 180.57373L29.284374 181.44873Q29.971874 180.4331 31.26875 180.4331Q31.83125 180.4331 32.3 180.63623Q32.784374 180.83936 33.01875 181.16748Q33.253124 181.4956 33.346874 181.9331Q33.39375 182.22998 33.39375 182.96436L33.39375 186.79248L32.346874 186.79248L32.346874 183.01123Q32.346874 182.35498 32.221874 182.04248Q32.096874 181.72998 31.784374 181.54248Q31.471874 181.33936 31.05 181.33936Q30.378124 181.33936 29.878124 181.77686Q29.39375 182.19873 29.39375 183.38623L29.39375 186.79248L28.346874 186.79248ZM39.409374 184.51123L40.440624 184.65186Q40.26875 185.71436 39.565624 186.32373Q38.8625 186.9331 37.846874 186.9331Q36.565624 186.9331 35.784374 186.10498Q35.01875 185.26123 35.01875 183.69873Q35.01875 182.69873 35.346874 181.94873Q35.690624 181.1831 36.3625 180.8081Q37.05 180.4331 37.8625 180.4331Q38.8625 180.4331 39.503124 180.94873Q40.159374 181.44873 40.346874 182.40186L39.315624 182.5581Q39.175 181.9331 38.8 181.6206Q38.425 181.29248 37.89375 181.29248Q37.096874 181.29248 36.596874 181.8706Q36.096874 182.4331 36.096874 183.66748Q36.096874 184.9331 36.58125 185.4956Q37.065624 186.0581 37.83125 186.0581Q38.45625 186.0581 38.8625 185.6831Q39.284374 185.3081 39.409374 184.51123ZM45.596874 184.79248L46.690624 184.91748Q46.440624 185.8706 45.7375 186.40186Q45.034374 186.9331 43.95625 186.9331Q42.596874 186.9331 41.784374 186.08936Q40.9875 185.2456 40.9875 183.72998Q40.9875 182.16748 41.8 181.3081Q42.6125 180.4331 43.89375 180.4331Q45.14375 180.4331 45.925 181.27686Q46.721874 182.1206 46.721874 183.66748Q46.721874 183.76123 46.721874 183.94873L42.08125 183.94873Q42.14375 184.97998 42.659374 185.52686Q43.175 186.0581 43.95625 186.0581Q44.534374 186.0581 44.940624 185.76123Q45.3625 185.44873 45.596874 184.79248ZM42.14375 183.08936L45.6125 183.08936Q45.55 182.29248 45.221874 181.90186Q44.70625 181.29248 43.909374 181.29248Q43.175 181.29248 42.675 181.77686Q42.190624 182.26123 42.14375 183.08936ZM51.346874 189.1831L51.346874 180.57373L52.3 180.57373L52.3 181.3706Q52.64375 180.90186 53.065624 180.66748Q53.503124 180.4331 54.1125 180.4331Q54.909374 180.4331 55.51875 180.83936Q56.128124 181.2456 56.425 181.9956Q56.7375 182.7456 56.7375 183.63623Q56.7375 184.58936 56.39375 185.35498Q56.065624 186.1206 55.409374 186.52686Q54.753124 186.9331 54.034374 186.9331Q53.503124 186.9331 53.08125 186.71436Q52.659374 186.47998 52.39375 186.15186L52.39375 189.1831L51.346874 189.1831ZM52.3 183.71436Q52.3 184.91748 52.784374 185.4956Q53.26875 186.0581 53.95625 186.0581Q54.659374 186.0581 55.159374 185.46436Q55.659374 184.8706 55.659374 183.6206Q55.659374 182.4331 55.175 181.85498Q54.690624 181.26123 54.003124 181.26123Q53.33125 181.26123 52.815624 181.88623Q52.3 182.51123 52.3 183.71436ZM62.596874 184.79248L63.690624 184.91748Q63.440624 185.8706 62.7375 186.40186Q62.034374 186.9331 60.95625 186.9331Q59.596874 186.9331 58.784374 186.08936Q57.9875 185.2456 57.9875 183.72998Q57.9875 182.16748 58.8 181.3081Q59.6125 180.4331 60.89375 180.4331Q62.14375 180.4331 62.925 181.27686Q63.721874 182.1206 63.721874 183.66748Q63.721874 183.76123 63.721874 183.94873L59.08125 183.94873Q59.14375 184.97998 59.659374 185.52686Q60.175 186.0581 60.95625 186.0581Q61.534374 186.0581 61.940624 185.76123Q62.3625 185.44873 62.596874 184.79248ZM59.14375 183.08936L62.6125 183.08936Q62.55 182.29248 62.221874 181.90186Q61.70625 181.29248 60.909374 181.29248Q60.175 181.29248 59.675 181.77686Q59.190624 182.26123 59.14375 183.08936ZM65.33125 186.79248L65.33125 180.57373L66.28438 180.57373L66.28438 181.51123Q66.64375 180.85498 66.94063 180.65186Q67.25313 180.4331 67.62813 180.4331Q68.15938 180.4331 68.70625 180.76123L68.34688 181.7456Q67.95625 181.51123 67.58125 181.51123Q67.22188 181.51123 66.94063 181.72998Q66.675 181.9331 66.56563 182.3081Q66.37813 182.8706 66.37813 183.52686L66.37813 186.79248L65.33125 186.79248ZM72.34688 186.79248L72.34688 180.57373L73.28438 180.57373L73.28438 181.44873Q73.58125 180.97998 74.06563 180.71436Q74.55 180.4331 75.175 180.4331Q75.8625 180.4331 76.3 180.71436Q76.75313 180.9956 76.925 181.51123Q77.675 180.4331 78.84688 180.4331Q79.78438 180.4331 80.26875 180.94873Q80.76875 181.44873 80.76875 182.52686L80.76875 186.79248L79.72188 186.79248L79.72188 182.8706Q79.72188 182.2456 79.6125 181.96436Q79.51875 181.6831 79.25313 181.51123Q78.9875 181.33936 78.6125 181.33936Q77.95625 181.33936 77.51875 181.77686Q77.09688 182.21436 77.09688 183.1831L77.09688 186.79248L76.03438 186.79248L76.03438 182.7456Q76.03438 182.04248 75.76875 181.69873Q75.51875 181.33936 74.94063 181.33936Q74.4875 181.33936 74.1125 181.57373Q73.7375 181.8081 73.56563 182.26123Q73.39375 182.71436 73.39375 183.5581L73.39375 186.79248L72.34688 186.79248ZM82.95625 183.6831Q82.95625 181.94873 83.90938 181.1206Q84.70625 180.4331 85.8625 180.4331Q87.14375 180.4331 87.95625 181.27686Q88.78438 182.10498 88.78438 183.58936Q88.78438 184.79248 88.425 185.47998Q88.06563 186.16748 87.3625 186.5581Q86.675 186.9331 85.8625 186.9331Q84.56563 186.9331 83.75313 186.10498Q82.95625 185.26123 82.95625 183.6831ZM84.03438 183.6831Q84.03438 184.8706 84.55 185.46436Q85.08125 186.0581 85.8625 186.0581Q86.65938 186.0581 87.175 185.46436Q87.69063 184.8706 87.69063 183.65186Q87.69063 182.4956 87.15938 181.90186Q86.64375 181.3081 85.8625 181.3081Q85.08125 181.3081 84.55 181.90186Q84.03438 182.47998 84.03438 183.6831ZM90.34688 186.79248L90.34688 180.57373L91.28438 180.57373L91.28438 181.44873Q91.97188 180.4331 93.26875 180.4331Q93.83125 180.4331 94.3 180.63623Q94.78438 180.83936 95.01875 181.16748Q95.25313 181.4956 95.34688 181.9331Q95.39375 182.22998 95.39375 182.96436L95.39375 186.79248L94.34688 186.79248L94.34688 183.01123Q94.34688 182.35498 94.22188 182.04248Q94.09688 181.72998 93.78438 181.54248Q93.47188 181.33936 93.05 181.33936Q92.37813 181.33936 91.87813 181.77686Q91.39375 182.19873 91.39375 183.38623L91.39375 186.79248L90.34688 186.79248ZM99.64375 185.85498L99.8 186.77686Q99.34688 186.8706 99.00313 186.8706Q98.425 186.8706 98.1125 186.69873Q97.8 186.51123 97.65938 186.21436Q97.53438 185.91748 97.53438 184.96436L97.53438 181.38623L96.76875 181.38623L96.76875 180.57373L97.53438 180.57373L97.53438 179.02686L98.58125 178.40186L98.58125 180.57373L99.64375 180.57373L99.64375 181.38623L98.58125 181.38623L98.58125 185.02686Q98.58125 185.47998 98.62813 185.60498Q98.69063 185.72998 98.81563 185.8081Q98.94063 185.88623 99.175 185.88623Q99.3625 185.88623 99.64375 185.85498ZM100.34688 186.79248L100.34688 178.19873L101.39375 178.19873L101.39375 181.27686Q102.12813 180.4331 103.25313 180.4331Q103.95625 180.4331 104.45625 180.71436Q104.97188 180.97998 105.19063 181.46436Q105.40938 181.9331 105.40938 182.85498L105.40938 186.79248L104.3625 186.79248L104.3625 182.85498Q104.3625 182.0581 104.01875 181.69873Q103.675 181.33936 103.05 181.33936Q102.58125 181.33936 102.15938 181.58936Q101.75313 181.82373 101.56563 182.2456Q101.39375 182.65186 101.39375 183.38623L101.39375 186.79248L100.34688 186.79248Z" fill-rule="nonzero"/><path fill="#9e9e9e" d="M19.05 201.54248L20.159374 201.44873Q20.284374 202.26123 20.721874 202.66748Q21.175 203.07373 21.815624 203.07373Q22.565624 203.07373 23.096874 202.4956Q23.628124 201.91748 23.628124 200.97998Q23.628124 200.07373 23.1125 199.5581Q22.6125 199.02686 21.784374 199.02686Q21.284374 199.02686 20.8625 199.26123Q20.45625 199.4956 20.221874 199.85498L19.2375 199.72998L20.065624 195.32373L24.346874 195.32373L24.346874 196.32373L20.909374 196.32373L20.45625 198.63623Q21.221874 198.08936 22.065624 198.08936Q23.190624 198.08936 23.95625 198.8706Q24.7375 199.65186 24.7375 200.88623Q24.7375 202.04248 24.065624 202.90186Q23.2375 203.9331 21.815624 203.9331Q20.64375 203.9331 19.89375 203.27686Q19.159374 202.6206 19.05 201.54248ZM30.01875 203.79248L28.971874 203.79248L28.971874 197.07373Q28.58125 197.4331 27.95625 197.8081Q27.346874 198.16748 26.8625 198.33936L26.8625 197.32373Q27.7375 196.90186 28.39375 196.32373Q29.065624 195.72998 29.346874 195.16748L30.01875 195.16748L30.01875 203.79248ZM33.64375 203.79248L33.64375 202.58936L34.846874 202.58936L34.846874 203.79248L33.64375 203.79248ZM41.596874 202.77686L41.596874 203.79248L35.909374 203.79248Q35.909374 203.41748 36.034374 203.0581Q36.253124 202.47998 36.721874 201.91748Q37.20625 201.35498 38.1125 200.6206Q39.51875 199.46436 40.003124 198.79248Q40.503124 198.1206 40.503124 197.52686Q40.503124 196.90186 40.05 196.47998Q39.596874 196.04248 38.878124 196.04248Q38.1125 196.04248 37.659374 196.4956Q37.20625 196.94873 37.190624 197.76123L36.1125 197.65186Q36.221874 196.4331 36.940624 195.8081Q37.675 195.16748 38.909374 195.16748Q40.14375 195.16748 40.8625 195.85498Q41.58125 196.54248 41.58125 197.5581Q41.58125 198.07373 41.3625 198.57373Q41.159374 199.0581 40.659374 199.6206Q40.175 200.16748 39.05 201.1206Q38.096874 201.91748 37.815624 202.21436Q37.55 202.4956 37.378124 202.77686L41.596874 202.77686ZM43.253124 197.26123Q43.253124 196.33936 43.70625 195.69873Q44.175 195.0581 45.05 195.0581Q45.8625 195.0581 46.39375 195.63623Q46.925 196.21436 46.925 197.32373Q46.925 198.41748 46.378124 199.01123Q45.846874 199.58936 45.065624 199.58936Q44.284374 199.58936 43.76875 199.01123Q43.253124 198.4331 43.253124 197.26123ZM45.08125 195.77686Q44.690624 195.77686 44.425 196.1206Q44.175 196.46436 44.175 197.3706Q44.175 198.19873 44.425 198.54248Q44.690624 198.8706 45.08125 198.8706Q45.4875 198.8706 45.7375 198.52686Q46.003124 198.1831 46.003124 197.29248Q46.003124 196.44873 45.7375 196.1206Q45.471874 195.77686 45.08125 195.77686ZM45.08125 204.10498L49.784374 195.0581L50.64375 195.0581L45.95625 204.10498L45.08125 204.10498ZM48.8 201.77686Q48.8 200.85498 49.253124 200.21436Q49.721874 199.57373 50.6125 199.57373Q51.425 199.57373 51.95625 200.15186Q52.4875 200.71436 52.4875 201.83936Q52.4875 202.9331 51.940624 203.52686Q51.409374 204.10498 50.6125 204.10498Q49.846874 204.10498 49.315624 203.52686Q48.8 202.94873 48.8 201.77686ZM50.64375 200.29248Q50.2375 200.29248 49.971874 200.63623Q49.721874 200.97998 49.721874 201.88623Q49.721874 202.69873 49.9875 203.04248Q50.253124 203.38623 50.64375 203.38623Q51.034374 203.38623 51.3 203.04248Q51.565624 202.69873 51.565624 201.79248Q51.565624 200.96436 51.3 200.63623Q51.034374 200.29248 50.64375 200.29248Z" fill-rule="nonzero"/><path stroke="#757575" stroke-width="1.0" stroke-linecap="butt" d="M18.55 191.29248L127.05 191.29248L141.50331 191.29248" fill-rule="nonzero"/><path fill="#9e9e9e" d="M143.50331 191.29248C143.50331 190.18791 142.60788 189.29248 141.50331 189.29248C140.39874 189.29248 139.50331 190.18791 139.50331 191.29248C139.50331 192.39705 140.39874 193.29248 141.50331 193.29248C142.60788 193.29248 143.50331 192.39705 143.50331 191.29248" fill-rule="nonzero"/><path fill="#1a1a1a" d="M521.40314 37.393646L521.40314 28.799896L527.60626 28.799896L527.60626 29.815521L522.54376 29.815521L522.54376 32.44052L527.29376 32.44052L527.29376 33.456146L522.54376 33.456146L522.54376 36.37802L527.8094 36.37802L527.8094 37.393646L521.40314 37.393646ZM530.96564 37.393646L528.60626 31.174896L529.71564 31.174896L531.0594 34.893646Q531.2625 35.50302 531.45 36.143646Q531.59064 35.65927 531.84064 34.97177L533.23126 31.174896L534.3094 31.174896L531.95 37.393646L530.96564 37.393646ZM538.4969 35.393646L539.59064 35.518646Q539.34064 36.47177 538.6375 37.00302Q537.9344 37.53427 536.85626 37.53427Q535.4969 37.53427 534.6844 36.69052Q533.8875 35.84677 533.8875 34.331146Q533.8875 32.768646 534.7 31.909271Q535.5125 31.034271 536.79376 31.034271Q538.04376 31.034271 538.825 31.878021Q539.6219 32.72177 539.6219 34.268646Q539.6219 34.362396 539.6219 34.549896L534.98126 34.549896Q535.04376 35.581146 535.5594 36.12802Q536.075 36.65927 536.85626 36.65927Q537.4344 36.65927 537.84064 36.362396Q538.2625 36.049896 538.4969 35.393646ZM535.04376 33.69052L538.5125 33.69052Q538.45 32.893646 538.1219 32.50302Q537.60626 31.893646 536.8094 31.893646Q536.075 31.893646 535.575 32.37802Q535.09064 32.862396 535.04376 33.69052ZM541.23126 37.393646L541.23126 31.174896L542.1844 31.174896L542.1844 32.112396Q542.54376 31.456146 542.84064 31.253021Q543.15314 31.034271 543.52814 31.034271Q544.0594 31.034271 544.60626 31.362396L544.2469 32.34677Q543.85626 32.112396 543.48126 32.112396Q543.1219 32.112396 542.84064 32.331146Q542.575 32.53427 542.46564 32.90927Q542.27814 33.47177 542.27814 34.12802L542.27814 37.393646L541.23126 37.393646ZM545.2 39.78427L545.075 38.799896Q545.41876 38.893646 545.6844 38.893646Q546.02814 38.893646 546.23126 38.768646Q546.45 38.65927 546.59064 38.456146Q546.6844 38.28427 546.91876 37.65927Q546.9344 37.581146 547.0125 37.40927L544.6375 31.174896L545.77814 31.174896L547.075 34.768646Q547.325 35.456146 547.52814 36.22177Q547.71564 35.487396 547.96564 34.799896L549.29376 31.174896L550.34064 31.174896L547.98126 37.50302Q547.59064 38.518646 547.3875 38.90927Q547.10626 39.44052 546.73126 39.674896Q546.3719 39.924896 545.8719 39.924896Q545.575 39.924896 545.2 39.78427ZM554.3875 37.393646L552.48126 31.174896L553.575 31.174896L554.5594 34.768646L554.9344 36.09677Q554.96564 36.00302 555.2625 34.81552L556.2469 31.174896L557.325 31.174896L558.2625 34.78427L558.575 35.97177L558.9344 34.768646L559.9969 31.174896L561.02814 31.174896L559.075 37.393646L557.98126 37.393646L556.9969 33.65927L556.7469 32.612396L555.4969 37.393646L554.3875 37.393646ZM566.4969 35.393646L567.59064 35.518646Q567.34064 36.47177 566.6375 37.00302Q565.9344 37.53427 564.85626 37.53427Q563.4969 37.53427 562.6844 36.69052Q561.8875 35.84677 561.8875 34.331146Q561.8875 32.768646 562.7 31.909271Q563.5125 31.034271 564.79376 31.034271Q566.04376 31.034271 566.825 31.878021Q567.6219 32.72177 567.6219 34.268646Q567.6219 34.362396 567.6219 34.549896L562.98126 34.549896Q563.04376 35.581146 563.5594 36.12802Q564.075 36.65927 564.85626 36.65927Q565.4344 36.65927 565.84064 36.362396Q566.2625 36.049896 566.4969 35.393646ZM563.04376 33.69052L566.5125 33.69052Q566.45 32.893646 566.1219 32.50302Q565.60626 31.893646 564.8094 31.893646Q564.075 31.893646 563.575 32.37802Q563.09064 32.862396 563.04376 33.69052ZM573.4969 35.393646L574.59064 35.518646Q574.34064 36.47177 573.6375 37.00302Q572.9344 37.53427 571.85626 37.53427Q570.4969 37.53427 569.6844 36.69052Q568.8875 35.84677 568.8875 34.331146Q568.8875 32.768646 569.7 31.909271Q570.5125 31.034271 571.79376 31.034271Q573.04376 31.034271 573.825 31.878021Q574.6219 32.72177 574.6219 34.268646Q574.6219 34.362396 574.6219 34.549896L569.98126 34.549896Q570.04376 35.581146 570.5594 36.12802Q571.075 36.65927 571.85626 36.65927Q572.4344 36.65927 572.84064 36.362396Q573.2625 36.049896 573.4969 35.393646ZM570.04376 33.69052L573.5125 33.69052Q573.45 32.893646 573.1219 32.50302Q572.60626 31.893646 571.8094 31.893646Q571.075 31.893646 570.575 32.37802Q570.09064 32.862396 570.04376 33.69052ZM576.2469 37.393646L576.2469 28.799896L577.3094 28.799896L577.3094 33.706146L579.79376 31.174896L581.16876 31.174896L578.77814 33.47177L581.40314 37.393646L580.10626 37.393646L578.04376 34.206146L577.3094 34.924896L577.3094 37.393646L576.2469 37.393646Z" fill-rule="nonzero"/><path fill="#9e9e9e" d="M550.91876 54.393646L549.8719 54.393646L549.8719 47.674896Q549.48126 48.03427 548.85626 48.40927Q548.2469 48.768646 547.7625 48.94052L547.7625 47.924896Q548.6375 47.50302 549.29376 46.924896Q549.96564 46.331146 550.2469 45.768646L550.91876 45.768646L550.91876 54.393646ZM557.325 54.393646L557.325 52.331146L553.60626 52.331146L553.60626 51.362396L557.52814 45.799896L558.3875 45.799896L558.3875 51.362396L559.54376 51.362396L559.54376 52.331146L558.3875 52.331146L558.3875 54.393646L557.325 54.393646ZM557.325 51.362396L557.325 47.50302L554.6375 51.362396L557.325 51.362396ZM561.54376 54.393646L561.54376 53.19052L562.7469 53.19052L562.7469 54.393646L561.54376 54.393646ZM563.95 50.15927Q563.95 48.62802 564.2625 47.706146Q564.575 46.768646 565.1844 46.268646Q565.8094 45.768646 566.7469 45.768646Q567.4344 45.768646 567.95 46.049896Q568.48126 46.331146 568.825 46.862396Q569.16876 47.37802 569.35626 48.12802Q569.54376 48.87802 569.54376 50.15927Q569.54376 51.674896 569.23126 52.59677Q568.9344 53.518646 568.3094 54.03427Q567.7 54.53427 566.7469 54.53427Q565.5125 54.53427 564.79376 53.643646Q563.95 52.581146 563.95 50.15927ZM565.02814 50.15927Q565.02814 52.268646 565.52814 52.97177Q566.02814 53.674896 566.7469 53.674896Q567.48126 53.674896 567.96564 52.97177Q568.46564 52.268646 568.46564 50.15927Q568.46564 48.03427 567.96564 47.34677Q567.48126 46.643646 566.73126 46.643646Q566.0125 46.643646 565.575 47.25302Q565.02814 48.03427 565.02814 50.15927ZM571.15314 47.862396Q571.15314 46.94052 571.60626 46.299896Q572.075 45.65927 572.95 45.65927Q573.7625 45.65927 574.29376 46.237396Q574.825 46.81552 574.825 47.924896Q574.825 49.018646 574.27814 49.612396Q573.7469 50.19052 572.96564 50.19052Q572.1844 50.19052 571.66876 49.612396Q571.15314 49.03427 571.15314 47.862396ZM572.98126 46.37802Q572.59064 46.37802 572.325 46.72177Q572.075 47.06552 572.075 47.97177Q572.075 48.799896 572.325 49.143646Q572.59064 49.47177 572.98126 49.47177Q573.3875 49.47177 573.6375 49.12802Q573.90314 48.78427 573.90314 47.893646Q573.90314 47.049896 573.6375 46.72177Q573.3719 46.37802 572.98126 46.37802ZM572.98126 54.706146L577.6844 45.65927L578.54376 45.65927L573.85626 54.706146L572.98126 54.706146ZM576.7 52.37802Q576.7 51.456146 577.15314 50.81552Q577.6219 50.174896 578.5125 50.174896Q579.325 50.174896 579.85626 50.75302Q580.3875 51.31552 580.3875 52.44052Q580.3875 53.53427 579.84064 54.12802Q579.3094 54.706146 578.5125 54.706146Q577.7469 54.706146 577.21564 54.12802Q576.7 53.549896 576.7 52.37802ZM578.54376 50.893646Q578.1375 50.893646 577.8719 51.237396Q577.6219 51.581146 577.6219 52.487396Q577.6219 53.299896 577.8875 53.643646Q578.15314 53.987396 578.54376 53.987396Q578.9344 53.987396 579.2 53.643646Q579.46564 53.299896 579.46564 52.393646Q579.46564 51.56552 579.2 51.237396Q578.9344 50.893646 578.54376 50.893646Z" fill-rule="nonzero"/><path stroke="#757575" stroke-width="1.0" stroke-linecap="butt" d="M581.45 41.893646L472.95 41.893646L367.3199 41.893646" fill-rule="nonzero"/><path fill="#9e9e9e" d="M369.3199 41.893646C369.3199 40.789078 368.42447 39.893646 367.3199 39.893646C366.21533 39.893646 365.3199 40.789078 365.3199 41.893646C365.3199 42.998215 366.21533 43.893646 367.3199 43.893646C368.42447 43.893646 369.3199 42.998215 369.3199 41.893646" fill-rule="nonzero"/><path fill="#1a1a1a" d="M492.40314 209.80806L492.40314 201.21431L498.60626 201.21431L498.60626 202.22993L493.54376 202.22993L493.54376 204.85493L498.29376 204.85493L498.29376 205.87056L493.54376 205.87056L493.54376 208.79243L498.8094 208.79243L498.8094 209.80806L492.40314 209.80806ZM501.96564 209.80806L499.60626 203.58931L500.71564 203.58931L502.0594 207.30806Q502.2625 207.91743 502.45 208.55806Q502.59064 208.07368 502.84064 207.38618L504.23126 203.58931L505.3094 203.58931L502.95 209.80806L501.96564 209.80806ZM509.4969 207.80806L510.59064 207.93306Q510.34064 208.88618 509.6375 209.41743Q508.9344 209.94868 507.85626 209.94868Q506.4969 209.94868 505.6844 209.10493Q504.8875 208.26118 504.8875 206.74556Q504.8875 205.18306 505.7 204.32368Q506.5125 203.44868 507.79376 203.44868Q509.04376 203.44868 509.825 204.29243Q510.6219 205.13618 510.6219 206.68306Q510.6219 206.77681 510.6219 206.96431L505.98126 206.96431Q506.04376 207.99556 506.5594 208.54243Q507.075 209.07368 507.85626 209.07368Q508.4344 209.07368 508.84064 208.77681Q509.2625 208.46431 509.4969 207.80806ZM506.04376 206.10493L509.5125 206.10493Q509.45 205.30806 509.1219 204.91743Q508.60626 204.30806 507.8094 204.30806Q507.075 204.30806 506.575 204.79243Q506.09064 205.27681 506.04376 206.10493ZM512.23126 209.80806L512.23126 203.58931L513.1844 203.58931L513.1844 204.52681Q513.54376 203.87056 513.84064 203.66743Q514.15314 203.44868 514.52814 203.44868Q515.0594 203.44868 515.60626 203.77681L515.2469 204.76118Q514.85626 204.52681 514.48126 204.52681Q514.1219 204.52681 513.84064 204.74556Q513.575 204.94868 513.46564 205.32368Q513.27814 205.88618 513.27814 206.54243L513.27814 209.80806L512.23126 209.80806ZM516.2 212.19868L516.075 211.21431Q516.41876 211.30806 516.6844 211.30806Q517.02814 211.30806 517.23126 211.18306Q517.45 211.07368 517.59064 210.87056Q517.6844 210.69868 517.91876 210.07368Q517.9344 209.99556 518.0125 209.82368L515.6375 203.58931L516.77814 203.58931L518.075 207.18306Q518.325 207.87056 518.52814 208.63618Q518.71564 207.90181 518.96564 207.21431L520.29376 203.58931L521.34064 203.58931L518.98126 209.91743Q518.59064 210.93306 518.3875 211.32368Q518.10626 211.85493 517.73126 212.08931Q517.3719 212.33931 516.8719 212.33931Q516.575 212.33931 516.2 212.19868ZM526.54376 208.87056L526.7 209.79243Q526.2469 209.88618 525.90314 209.88618Q525.325 209.88618 525.0125 209.71431Q524.7 209.52681 524.5594 209.22993Q524.4344 208.93306 524.4344 207.97993L524.4344 204.40181L523.66876 204.40181L523.66876 203.58931L524.4344 203.58931L524.4344 202.04243L525.48126 201.41743L525.48126 203.58931L526.54376 203.58931L526.54376 204.40181L525.48126 204.40181L525.48126 208.04243Q525.48126 208.49556 525.52814 208.62056Q525.59064 208.74556 525.71564 208.82368Q525.84064 208.90181 526.075 208.90181Q526.2625 208.90181 526.54376 208.87056ZM528.3875 209.80806L526.48126 203.58931L527.575 203.58931L528.5594 207.18306L528.9344 208.51118Q528.96564 208.41743 529.2625 207.22993L530.2469 203.58931L531.325 203.58931L532.2625 207.19868L532.575 208.38618L532.9344 207.18306L533.9969 203.58931L535.02814 203.58931L533.075 209.80806L531.98126 209.80806L530.9969 206.07368L530.7469 205.02681L529.4969 209.80806L528.3875 209.80806ZM535.85626 206.69868Q535.85626 204.96431 536.8094 204.13618Q537.60626 203.44868 538.7625 203.44868Q540.04376 203.44868 540.85626 204.29243Q541.6844 205.12056 541.6844 206.60493Q541.6844 207.80806 541.325 208.49556Q540.96564 209.18306 540.2625 209.57368Q539.575 209.94868 538.7625 209.94868Q537.46564 209.94868 536.65314 209.12056Q535.85626 208.27681 535.85626 206.69868ZM536.9344 206.69868Q536.9344 207.88618 537.45 208.47993Q537.98126 209.07368 538.7625 209.07368Q539.5594 209.07368 540.075 208.47993Q540.59064 207.88618 540.59064 206.66743Q540.59064 205.51118 540.0594 204.91743Q539.54376 204.32368 538.7625 204.32368Q537.98126 204.32368 537.45 204.91743Q536.9344 205.49556 536.9344 206.69868ZM547.3875 209.80806L545.48126 203.58931L546.575 203.58931L547.5594 207.18306L547.9344 208.51118Q547.96564 208.41743 548.2625 207.22993L549.2469 203.58931L550.325 203.58931L551.2625 207.19868L551.575 208.38618L551.9344 207.18306L552.9969 203.58931L554.02814 203.58931L552.075 209.80806L550.98126 209.80806L549.9969 206.07368L549.7469 205.02681L548.4969 209.80806L547.3875 209.80806ZM559.4969 207.80806L560.59064 207.93306Q560.34064 208.88618 559.6375 209.41743Q558.9344 209.94868 557.85626 209.94868Q556.4969 209.94868 555.6844 209.10493Q554.8875 208.26118 554.8875 206.74556Q554.8875 205.18306 555.7 204.32368Q556.5125 203.44868 557.79376 203.44868Q559.04376 203.44868 559.825 204.29243Q560.6219 205.13618 560.6219 206.68306Q560.6219 206.77681 560.6219 206.96431L555.98126 206.96431Q556.04376 207.99556 556.5594 208.54243Q557.075 209.07368 557.85626 209.07368Q558.4344 209.07368 558.84064 208.77681Q559.2625 208.46431 559.4969 207.80806ZM556.04376 206.10493L559.5125 206.10493Q559.45 205.30806 559.1219 204.91743Q558.60626 204.30806 557.8094 204.30806Q557.075 204.30806 556.575 204.79243Q556.09064 205.27681 556.04376 206.10493ZM566.4969 207.80806L567.59064 207.93306Q567.34064 208.88618 566.6375 209.41743Q565.9344 209.94868 564.85626 209.94868Q563.4969 209.94868 562.6844 209.10493Q561.8875 208.26118 561.8875 206.74556Q561.8875 205.18306 562.7 204.32368Q563.5125 203.44868 564.79376 203.44868Q566.04376 203.44868 566.825 204.29243Q567.6219 205.13618 567.6219 206.68306Q567.6219 206.77681 567.6219 206.96431L562.98126 206.96431Q563.04376 207.99556 563.5594 208.54243Q564.075 209.07368 564.85626 209.07368Q565.4344 209.07368 565.84064 208.77681Q566.2625 208.46431 566.4969 207.80806ZM563.04376 206.10493L566.5125 206.10493Q566.45 205.30806 566.1219 204.91743Q565.60626 204.30806 564.8094 204.30806Q564.075 204.30806 563.575 204.79243Q563.09064 205.27681 563.04376 206.10493ZM569.2469 209.80806L569.2469 201.21431L570.3094 201.21431L570.3094 206.12056L572.79376 203.58931L574.16876 203.58931L571.77814 205.88618L574.40314 209.80806L573.10626 209.80806L571.04376 206.62056L570.3094 207.33931L570.3094 209.80806L569.2469 209.80806ZM574.825 207.94868L575.85626 207.79243Q575.95 208.41743 576.34064 208.74556Q576.7469 209.07368 577.48126 209.07368Q578.2 209.07368 578.54376 208.79243Q578.90314 208.49556 578.90314 208.08931Q578.90314 207.72993 578.59064 207.52681Q578.3719 207.38618 577.5125 207.16743Q576.35626 206.87056 575.90314 206.66743Q575.46564 206.44868 575.23126 206.07368Q574.9969 205.69868 574.9969 205.22993Q574.9969 204.82368 575.1844 204.46431Q575.3719 204.10493 575.7 203.87056Q575.95 203.69868 576.3719 203.57368Q576.79376 203.44868 577.29376 203.44868Q578.0125 203.44868 578.5594 203.66743Q579.1219 203.87056 579.3875 204.22993Q579.65314 204.58931 579.7469 205.18306L578.71564 205.32368Q578.65314 204.85493 578.3094 204.58931Q577.98126 204.30806 577.35626 204.30806Q576.6375 204.30806 576.325 204.55806Q576.0125 204.79243 576.0125 205.12056Q576.0125 205.32368 576.1375 205.47993Q576.27814 205.65181 576.54376 205.76118Q576.7 205.82368 577.48126 206.02681Q578.60626 206.33931 579.04376 206.52681Q579.48126 206.71431 579.73126 207.07368Q579.98126 207.43306 579.98126 207.97993Q579.98126 208.51118 579.66876 208.97993Q579.3719 209.43306 578.79376 209.69868Q578.21564 209.94868 577.48126 209.94868Q576.2625 209.94868 575.6219 209.44868Q574.9969 208.93306 574.825 207.94868Z" fill-rule="nonzero"/><path fill="#9e9e9e" d="M552.4969 225.79243L552.4969 226.80806L546.8094 226.80806Q546.8094 226.43306 546.9344 226.07368Q547.15314 225.49556 547.6219 224.93306Q548.10626 224.37056 549.0125 223.63618Q550.41876 222.47993 550.90314 221.80806Q551.40314 221.13618 551.40314 220.54243Q551.40314 219.91743 550.95 219.49556Q550.4969 219.05806 549.77814 219.05806Q549.0125 219.05806 548.5594 219.51118Q548.10626 219.96431 548.09064 220.77681L547.0125 220.66743Q547.1219 219.44868 547.84064 218.82368Q548.575 218.18306 549.8094 218.18306Q551.04376 218.18306 551.7625 218.87056Q552.48126 219.55806 552.48126 220.57368Q552.48126 221.08931 552.2625 221.58931Q552.0594 222.07368 551.5594 222.63618Q551.075 223.18306 549.95 224.13618Q548.9969 224.93306 548.71564 225.22993Q548.45 225.51118 548.27814 225.79243L552.4969 225.79243ZM554.0125 219.33931L554.0125 218.32368L559.575 218.32368L559.575 219.15181Q558.7625 220.02681 557.95 221.47993Q557.15314 222.91743 556.71564 224.44868Q556.3875 225.52681 556.3094 226.80806L555.21564 226.80806Q555.23126 225.79243 555.60626 224.35493Q555.9969 222.91743 556.7 221.58931Q557.41876 220.26118 558.23126 219.33931L554.0125 219.33931ZM561.54376 226.80806L561.54376 225.60493L562.7469 225.60493L562.7469 226.80806L561.54376 226.80806ZM564.10626 224.82368L565.1219 224.72993Q565.2469 225.44868 565.60626 225.77681Q565.98126 226.08931 566.54376 226.08931Q567.02814 226.08931 567.3875 225.87056Q567.7625 225.63618 567.9969 225.27681Q568.23126 224.90181 568.3875 224.27681Q568.54376 223.63618 568.54376 222.97993Q568.54376 222.90181 568.54376 222.76118Q568.23126 223.26118 567.6844 223.58931Q567.1375 223.90181 566.4969 223.90181Q565.41876 223.90181 564.6844 223.13618Q563.95 222.35493 563.95 221.08931Q563.95 219.77681 564.71564 218.97993Q565.4969 218.18306 566.65314 218.18306Q567.48126 218.18306 568.16876 218.63618Q568.8719 219.08931 569.23126 219.93306Q569.59064 220.76118 569.59064 222.33931Q569.59064 223.97993 569.23126 224.96431Q568.8875 225.93306 568.16876 226.44868Q567.46564 226.94868 566.52814 226.94868Q565.5125 226.94868 564.8719 226.40181Q564.23126 225.83931 564.10626 224.82368ZM568.41876 221.02681Q568.41876 220.12056 567.9344 219.58931Q567.46564 219.05806 566.77814 219.05806Q566.075 219.05806 565.54376 219.63618Q565.02814 220.19868 565.02814 221.12056Q565.02814 221.93306 565.52814 222.44868Q566.02814 222.96431 566.7469 222.96431Q567.48126 222.96431 567.95 222.44868Q568.41876 221.93306 568.41876 221.02681ZM571.15314 220.27681Q571.15314 219.35493 571.60626 218.71431Q572.075 218.07368 572.95 218.07368Q573.7625 218.07368 574.29376 218.65181Q574.825 219.22993 574.825 220.33931Q574.825 221.43306 574.27814 222.02681Q573.7469 222.60493 572.96564 222.60493Q572.1844 222.60493 571.66876 222.02681Q571.15314 221.44868 571.15314 220.27681ZM572.98126 218.79243Q572.59064 218.79243 572.325 219.13618Q572.075 219.47993 572.075 220.38618Q572.075 221.21431 572.325 221.55806Q572.59064 221.88618 572.98126 221.88618Q573.3875 221.88618 573.6375 221.54243Q573.90314 221.19868 573.90314 220.30806Q573.90314 219.46431 573.6375 219.13618Q573.3719 218.79243 572.98126 218.79243ZM572.98126 227.12056L577.6844 218.07368L578.54376 218.07368L573.85626 227.12056L572.98126 227.12056ZM576.7 224.79243Q576.7 223.87056 577.15314 223.22993Q577.6219 222.58931 578.5125 222.58931Q579.325 222.58931 579.85626 223.16743Q580.3875 223.72993 580.3875 224.85493Q580.3875 225.94868 579.84064 226.54243Q579.3094 227.12056 578.5125 227.12056Q577.7469 227.12056 577.21564 226.54243Q576.7 225.96431 576.7 224.79243ZM578.54376 223.30806Q578.1375 223.30806 577.8719 223.65181Q577.6219 223.99556 577.6219 224.90181Q577.6219 225.71431 577.8875 226.05806Q578.15314 226.40181 578.54376 226.40181Q578.9344 226.40181 579.2 226.05806Q579.46564 225.71431 579.46564 224.80806Q579.46564 223.97993 579.2 223.65181Q578.9344 223.30806 578.54376 223.30806Z" fill-rule="nonzero"/><path stroke="#757575" stroke-width="1.0" stroke-linecap="butt" d="M581.45 214.30806L472.95 214.30806L455.96426 214.30806" fill-rule="nonzero"/><path fill="#9e9e9e" d="M457.96426 214.30806C457.96426 213.20349 457.06882 212.30806 455.96426 212.30806C454.85968 212.30806 453.96426 213.20349 453.96426 214.30806C453.96426 215.41263 454.85968 216.30806 455.96426 216.30806C457.06882 216.30806 457.96426 215.41263 457.96426 214.30806" fill-rule="nonzero"/><path fill="#1a1a1a" d="M493.5594 332.45L493.5594 324.8719L490.73126 324.8719L490.73126 323.85626L497.54376 323.85626L497.54376 324.8719L494.7 324.8719L494.7 332.45L493.5594 332.45ZM499.3875 332.45L497.48126 326.23126L498.575 326.23126L499.5594 329.825L499.9344 331.15314Q499.96564 331.0594 500.2625 329.8719L501.2469 326.23126L502.325 326.23126L503.2625 329.84064L503.575 331.02814L503.9344 329.825L504.9969 326.23126L506.02814 326.23126L504.075 332.45L502.98126 332.45L501.9969 328.71564L501.7469 327.66876L500.4969 332.45L499.3875 332.45ZM507.2469 325.075L507.2469 323.85626L508.3094 323.85626L508.3094 325.075L507.2469 325.075ZM507.2469 332.45L507.2469 326.23126L508.3094 326.23126L508.3094 332.45L507.2469 332.45ZM514.3094 330.16876L515.34064 330.3094Q515.16876 331.3719 514.46564 331.98126Q513.7625 332.59064 512.7469 332.59064Q511.46564 332.59064 510.6844 331.7625Q509.91876 330.91876 509.91876 329.35626Q509.91876 328.35626 510.2469 327.60626Q510.59064 326.84064 511.2625 326.46564Q511.95 326.09064 512.7625 326.09064Q513.7625 326.09064 514.40314 326.60626Q515.0594 327.10626 515.2469 328.0594L514.21564 328.21564Q514.075 327.59064 513.7 327.27814Q513.325 326.95 512.79376 326.95Q511.9969 326.95 511.4969 327.52814Q510.9969 328.09064 510.9969 329.325Q510.9969 330.59064 511.48126 331.15314Q511.96564 331.71564 512.73126 331.71564Q513.35626 331.71564 513.7625 331.34064Q514.1844 330.96564 514.3094 330.16876ZM520.4969 330.45L521.59064 330.575Q521.34064 331.52814 520.6375 332.0594Q519.9344 332.59064 518.85626 332.59064Q517.4969 332.59064 516.6844 331.7469Q515.8875 330.90314 515.8875 329.3875Q515.8875 327.825 516.7 326.96564Q517.5125 326.09064 518.79376 326.09064Q520.04376 326.09064 520.825 326.9344Q521.6219 327.77814 521.6219 329.325Q521.6219 329.41876 521.6219 329.60626L516.98126 329.60626Q517.04376 330.6375 517.5594 331.1844Q518.075 331.71564 518.85626 331.71564Q519.4344 331.71564 519.84064 331.41876Q520.2625 331.10626 520.4969 330.45ZM517.04376 328.7469L520.5125 328.7469Q520.45 327.95 520.1219 327.5594Q519.60626 326.95 518.8094 326.95Q518.075 326.95 517.575 327.4344Q517.09064 327.91876 517.04376 328.7469ZM526.2469 334.84064L526.2469 326.23126L527.2 326.23126L527.2 327.02814Q527.54376 326.5594 527.96564 326.325Q528.40314 326.09064 529.0125 326.09064Q529.8094 326.09064 530.41876 326.4969Q531.02814 326.90314 531.325 327.65314Q531.6375 328.40314 531.6375 329.29376Q531.6375 330.2469 531.29376 331.0125Q530.96564 331.77814 530.3094 332.1844Q529.65314 332.59064 528.9344 332.59064Q528.40314 332.59064 527.98126 332.3719Q527.5594 332.1375 527.29376 331.8094L527.29376 334.84064L526.2469 334.84064ZM527.2 329.3719Q527.2 330.575 527.6844 331.15314Q528.16876 331.71564 528.85626 331.71564Q529.5594 331.71564 530.0594 331.1219Q530.5594 330.52814 530.5594 329.27814Q530.5594 328.09064 530.075 327.5125Q529.59064 326.91876 528.90314 326.91876Q528.23126 326.91876 527.71564 327.54376Q527.2 328.16876 527.2 329.3719ZM537.4969 330.45L538.59064 330.575Q538.34064 331.52814 537.6375 332.0594Q536.9344 332.59064 535.85626 332.59064Q534.4969 332.59064 533.6844 331.7469Q532.8875 330.90314 532.8875 329.3875Q532.8875 327.825 533.7 326.96564Q534.5125 326.09064 535.79376 326.09064Q537.04376 326.09064 537.825 326.9344Q538.6219 327.77814 538.6219 329.325Q538.6219 329.41876 538.6219 329.60626L533.98126 329.60626Q534.04376 330.6375 534.5594 331.1844Q535.075 331.71564 535.85626 331.71564Q536.4344 331.71564 536.84064 331.41876Q537.2625 331.10626 537.4969 330.45ZM534.04376 328.7469L537.5125 328.7469Q537.45 327.95 537.1219 327.5594Q536.60626 326.95 535.8094 326.95Q535.075 326.95 534.575 327.4344Q534.09064 327.91876 534.04376 328.7469ZM540.23126 332.45L540.23126 326.23126L541.1844 326.23126L541.1844 327.16876Q541.54376 326.5125 541.84064 326.3094Q542.15314 326.09064 542.52814 326.09064Q543.0594 326.09064 543.60626 326.41876L543.2469 327.40314Q542.85626 327.16876 542.48126 327.16876Q542.1219 327.16876 541.84064 327.3875Q541.575 327.59064 541.46564 327.96564Q541.27814 328.52814 541.27814 329.1844L541.27814 332.45L540.23126 332.45ZM547.2469 332.45L547.2469 326.23126L548.1844 326.23126L548.1844 327.10626Q548.48126 326.6375 548.96564 326.3719Q549.45 326.09064 550.075 326.09064Q550.7625 326.09064 551.2 326.3719Q551.65314 326.65314 551.825 327.16876Q552.575 326.09064 553.7469 326.09064Q554.6844 326.09064 555.16876 326.60626Q555.66876 327.10626 555.66876 328.1844L555.66876 332.45L554.6219 332.45L554.6219 328.52814Q554.6219 327.90314 554.5125 327.6219Q554.41876 327.34064 554.15314 327.16876Q553.8875 326.9969 553.5125 326.9969Q552.85626 326.9969 552.41876 327.4344Q551.9969 327.8719 551.9969 328.84064L551.9969 332.45L550.9344 332.45L550.9344 328.40314Q550.9344 327.7 550.66876 327.35626Q550.41876 326.9969 549.84064 326.9969Q549.3875 326.9969 549.0125 327.23126Q548.6375 327.46564 548.46564 327.91876Q548.29376 328.3719 548.29376 329.21564L548.29376 332.45L547.2469 332.45ZM557.85626 329.34064Q557.85626 327.60626 558.8094 326.77814Q559.60626 326.09064 560.7625 326.09064Q562.04376 326.09064 562.85626 326.9344Q563.6844 327.7625 563.6844 329.2469Q563.6844 330.45 563.325 331.1375Q562.96564 331.825 562.2625 332.21564Q561.575 332.59064 560.7625 332.59064Q559.46564 332.59064 558.65314 331.7625Q557.85626 330.91876 557.85626 329.34064ZM558.9344 329.34064Q558.9344 330.52814 559.45 331.1219Q559.98126 331.71564 560.7625 331.71564Q561.5594 331.71564 562.075 331.1219Q562.59064 330.52814 562.59064 329.3094Q562.59064 328.15314 562.0594 327.5594Q561.54376 326.96564 560.7625 326.96564Q559.98126 326.96564 559.45 327.5594Q558.9344 328.1375 558.9344 329.34064ZM565.2469 332.45L565.2469 326.23126L566.1844 326.23126L566.1844 327.10626Q566.8719 326.09064 568.16876 326.09064Q568.73126 326.09064 569.2 326.29376Q569.6844 326.4969 569.91876 326.825Q570.15314 327.15314 570.2469 327.59064Q570.29376 327.8875 570.29376 328.6219L570.29376 332.45L569.2469 332.45L569.2469 328.66876Q569.2469 328.0125 569.1219 327.7Q568.9969 327.3875 568.6844 327.2Q568.3719 326.9969 567.95 326.9969Q567.27814 326.9969 566.77814 327.4344Q566.29376 327.85626 566.29376 329.04376L566.29376 332.45L565.2469 332.45ZM574.54376 331.5125L574.7 332.4344Q574.2469 332.52814 573.90314 332.52814Q573.325 332.52814 573.0125 332.35626Q572.7 332.16876 572.5594 331.8719Q572.4344 331.575 572.4344 330.6219L572.4344 327.04376L571.66876 327.04376L571.66876 326.23126L572.4344 326.23126L572.4344 324.6844L573.48126 324.0594L573.48126 326.23126L574.54376 326.23126L574.54376 327.04376L573.48126 327.04376L573.48126 330.6844Q573.48126 331.1375 573.52814 331.2625Q573.59064 331.3875 573.71564 331.46564Q573.84064 331.54376 574.075 331.54376Q574.2625 331.54376 574.54376 331.5125ZM575.2469 332.45L575.2469 323.85626L576.29376 323.85626L576.29376 326.9344Q577.02814 326.09064 578.15314 326.09064Q578.85626 326.09064 579.35626 326.3719Q579.8719 326.6375 580.09064 327.1219Q580.3094 327.59064 580.3094 328.5125L580.3094 332.45L579.2625 332.45L579.2625 328.5125Q579.2625 327.71564 578.91876 327.35626Q578.575 326.9969 577.95 326.9969Q577.48126 326.9969 577.0594 327.2469Q576.65314 327.48126 576.46564 327.90314Q576.29376 328.3094 576.29376 329.04376L576.29376 332.45L575.2469 332.45Z" fill-rule="nonzero"/><path fill="#9e9e9e" d="M554.0125 341.98126L554.0125 340.96564L559.575 340.96564L559.575 341.79376Q558.7625 342.66876 557.95 344.1219Q557.15314 345.5594 556.71564 347.09064Q556.3875 348.16876 556.3094 349.45L555.21564 349.45Q555.23126 348.4344 555.60626 346.9969Q555.9969 345.5594 556.7 344.23126Q557.41876 342.90314 558.23126 341.98126L554.0125 341.98126ZM561.54376 349.45L561.54376 348.2469L562.7469 348.2469L562.7469 349.45L561.54376 349.45ZM563.95 345.21564Q563.95 343.6844 564.2625 342.7625Q564.575 341.825 565.1844 341.325Q565.8094 340.825 566.7469 340.825Q567.4344 340.825 567.95 341.10626Q568.48126 341.3875 568.825 341.91876Q569.16876 342.4344 569.35626 343.1844Q569.54376 343.9344 569.54376 345.21564Q569.54376 346.73126 569.23126 347.65314Q568.9344 348.575 568.3094 349.09064Q567.7 349.59064 566.7469 349.59064Q565.5125 349.59064 564.79376 348.7Q563.95 347.6375 563.95 345.21564ZM565.02814 345.21564Q565.02814 347.325 565.52814 348.02814Q566.02814 348.73126 566.7469 348.73126Q567.48126 348.73126 567.96564 348.02814Q568.46564 347.325 568.46564 345.21564Q568.46564 343.09064 567.96564 342.40314Q567.48126 341.7 566.73126 341.7Q566.0125 341.7 565.575 342.3094Q565.02814 343.09064 565.02814 345.21564ZM571.15314 342.91876Q571.15314 341.9969 571.60626 341.35626Q572.075 340.71564 572.95 340.71564Q573.7625 340.71564 574.29376 341.29376Q574.825 341.8719 574.825 342.98126Q574.825 344.075 574.27814 344.66876Q573.7469 345.2469 572.96564 345.2469Q572.1844 345.2469 571.66876 344.66876Q571.15314 344.09064 571.15314 342.91876ZM572.98126 341.4344Q572.59064 341.4344 572.325 341.77814Q572.075 342.1219 572.075 343.02814Q572.075 343.85626 572.325 344.2Q572.59064 344.52814 572.98126 344.52814Q573.3875 344.52814 573.6375 344.1844Q573.90314 343.84064 573.90314 342.95Q573.90314 342.10626 573.6375 341.77814Q573.3719 341.4344 572.98126 341.4344ZM572.98126 349.7625L577.6844 340.71564L578.54376 340.71564L573.85626 349.7625L572.98126 349.7625ZM576.7 347.4344Q576.7 346.5125 577.15314 345.8719Q577.6219 345.23126 578.5125 345.23126Q579.325 345.23126 579.85626 345.8094Q580.3875 346.3719 580.3875 347.4969Q580.3875 348.59064 579.84064 349.1844Q579.3094 349.7625 578.5125 349.7625Q577.7469 349.7625 577.21564 349.1844Q576.7 348.60626 576.7 347.4344ZM578.54376 345.95Q578.1375 345.95 577.8719 346.29376Q577.6219 346.6375 577.6219 347.54376Q577.6219 348.35626 577.8875 348.7Q578.15314 349.04376 578.54376 349.04376Q578.9344 349.04376 579.2 348.7Q579.46564 348.35626 579.46564 347.45Q579.46564 346.6219 579.2 346.29376Q578.9344 345.95 578.54376 345.95Z" fill-rule="nonzero"/><path stroke="#757575" stroke-width="1.0" stroke-linecap="butt" d="M581.45 336.95L472.95 336.95L345.69324 337.37784" fill-rule="nonzero"/><path fill="#9e9e9e" d="M347.69324 337.37784C347.69324 336.2733 346.79782 335.37784 345.69324 335.37784C344.58865 335.37784 343.69324 336.2733 343.69324 337.37784C343.69324 338.48242 344.58865 339.37784 345.69324 339.37784C346.79782 339.37784 347.69324 338.48242 347.69324 337.37784" fill-rule="nonzero"/></svg>