<svg version="1.1" viewBox="0.0 0.0 600.0 371.0" fill="none" stroke="none" stroke-linecap="square" stroke-miterlimit="10" width="600" height="371" xmlns:xlink="http://www.w3.org/1999/xlink" xmlns="http://www.w3.org/2000/svg"><path fill="#ffffff" d="M0 0L600.0 0L600.0 371.0L0 371.0L0 0Z" fill-rule="nonzero"/><path fill="#4285f4" d="M300.0 18.55C390.0324 18.55 463.84833 89.93924 466.85678 179.92137C469.8652 269.9035 400.9824 346.0637 311.15103 352.07718L300.0 185.5Z" fill-rule="nonzero"/><path fill="#34a853" d="M277.74774 20.039614C285.12366 19.047647 292.55768 18.55 300.0 18.55L300.0 185.5Z" fill-rule="nonzero"/><path fill="#fbbc04" d="M133.14323 191.07863C130.27847 105.39372 192.7799 31.466675 277.74774 20.039614L300.0 185.5Z" fill-rule="nonzero"/><path fill="#ea4335" d="M311.15103 352.07718C266.00662 355.09924 221.56886 339.66876 188.01248 309.31882C154.45612 278.96887 134.6551 236.29881 133.14323 191.07863L300.0 185.5Z" fill-rule="nonzero"/><path fill="#1a1a1a" d="M19.471874 29.55L19.471874 20.95625L20.628124 20.95625L25.14375 27.70625L25.14375 20.95625L26.2375 20.95625L26.2375 29.55L25.065624 29.55L20.55 22.8L20.55 29.55L19.471874 29.55ZM32.596874 27.55L33.690624 27.675Q33.440624 28.628124 32.7375 29.159374Q32.034374 29.690624 30.95625 29.690624Q29.596874 29.690624 28.784374 28.846874Q27.9875 28.003124 27.9875 26.4875Q27.9875 24.925 28.8 24.065624Q29.6125 23.190624 30.89375 23.190624Q32.14375 23.190624 32.925 24.034374Q33.721874 24.878124 33.721874 26.425Q33.721874 26.51875 33.721874 26.70625L29.08125 26.70625Q29.14375 27.7375 29.659374 28.284374Q30.175 28.815624 30.95625 28.815624Q31.534374 28.815624 31.940624 28.51875Q32.3625 28.20625 32.596874 27.55ZM29.14375 25.846874L32.6125 25.846874Q32.55 25.05 32.221874 24.659374Q31.70625 24.05 30.909374 24.05Q30.175 24.05 29.675 24.534374Q29.190624 25.01875 29.14375 25.846874ZM37.64375 28.6125L37.8 29.534374Q37.346874 29.628124 37.003124 29.628124Q36.425 29.628124 36.1125 29.45625Q35.8 29.26875 35.659374 28.971874Q35.534374 28.675 35.534374 27.721874L35.534374 24.14375L34.76875 24.14375L34.76875 23.33125L35.534374 23.33125L35.534374 21.784374L36.58125 21.159374L36.58125 23.33125L37.64375 23.33125L37.64375 24.14375L36.58125 24.14375L36.58125 27.784374Q36.58125 28.2375 36.628124 28.3625Q36.690624 28.4875 36.815624 28.565624Q36.940624 28.64375 37.175 28.64375Q37.3625 28.64375 37.64375 28.6125ZM44.425 29.55L44.425 27.4875L40.70625 27.4875L40.70625 26.51875L44.628124 20.95625L45.4875 20.95625L45.4875 26.51875L46.64375 26.51875L46.64375 27.4875L45.4875 27.4875L45.4875 29.55L44.425 29.55ZM44.425 26.51875L44.425 22.659374L41.7375 26.51875L44.425 26.51875ZM48.05 27.3L49.159374 27.20625Q49.284374 28.01875 49.721874 28.425Q50.175 28.83125 50.815624 28.83125Q51.565624 28.83125 52.096874 28.253124Q52.628124 27.675 52.628124 26.7375Q52.628124 25.83125 52.1125 25.315624Q51.6125 24.784374 50.784374 24.784374Q50.284374 24.784374 49.8625 25.01875Q49.45625 25.253124 49.221874 25.6125L48.2375 25.4875L49.065624 21.08125L53.346874 21.08125L53.346874 22.08125L49.909374 22.08125L49.45625 24.39375Q50.221874 23.846874 51.065624 23.846874Q52.190624 23.846874 52.95625 24.628124Q53.7375 25.409374 53.7375 26.64375Q53.7375 27.8 53.065624 28.659374Q52.2375 29.690624 50.815624 29.690624Q49.64375 29.690624 48.89375 29.034374Q48.159374 28.378124 48.05 27.3Z" fill-rule="nonzero"/><path fill="#9e9e9e" d="M24.596874 45.534374L24.596874 46.55L18.909374 46.55Q18.909374 46.175 19.034374 45.815624Q19.253124 45.2375 19.721874 44.675Q20.20625 44.1125 21.1125 43.378124Q22.51875 42.221874 23.003124 41.55Q23.503124 40.878124 23.503124 40.284374Q23.503124 39.659374 23.05 39.2375Q22.596874 38.8 21.878124 38.8Q21.1125 38.8 20.659374 39.253124Q20.20625 39.70625 20.190624 40.51875L19.1125 40.409374Q19.221874 39.190624 19.940624 38.565624Q20.675 37.925 21.909374 37.925Q23.14375 37.925 23.8625 38.6125Q24.58125 39.3 24.58125 40.315624Q24.58125 40.83125 24.3625 41.33125Q24.159374 41.815624 23.659374 42.378124Q23.175 42.925 22.05 43.878124Q21.096874 44.675 20.815624 44.971874Q20.55 45.253124 20.378124 45.534374L24.596874 45.534374ZM26.64375 46.55L26.64375 45.346874L27.846874 45.346874L27.846874 46.55L26.64375 46.55ZM33.01875 46.55L31.971874 46.55L31.971874 39.83125Q31.58125 40.190624 30.95625 40.565624Q30.346874 40.925 29.8625 41.096874L29.8625 40.08125Q30.7375 39.659374 31.39375 39.08125Q32.065624 38.4875 32.346874 37.925L33.01875 37.925L33.01875 46.55ZM36.253124 40.01875Q36.253124 39.096874 36.70625 38.45625Q37.175 37.815624 38.05 37.815624Q38.8625 37.815624 39.39375 38.39375Q39.925 38.971874 39.925 40.08125Q39.925 41.175 39.378124 41.76875Q38.846874 42.346874 38.065624 42.346874Q37.284374 42.346874 36.76875 41.76875Q36.253124 41.190624 36.253124 40.01875ZM38.08125 38.534374Q37.690624 38.534374 37.425 38.878124Q37.175 39.221874 37.175 40.128124Q37.175 40.95625 37.425 41.3Q37.690624 41.628124 38.08125 41.628124Q38.4875 41.628124 38.7375 41.284374Q39.003124 40.940624 39.003124 40.05Q39.003124 39.20625 38.7375 38.878124Q38.471874 38.534374 38.08125 38.534374ZM38.08125 46.8625L42.784374 37.815624L43.64375 37.815624L38.95625 46.8625L38.08125 46.8625ZM41.8 44.534374Q41.8 43.6125 42.253124 42.971874Q42.721874 42.33125 43.6125 42.33125Q44.425 42.33125 44.95625 42.909374Q45.4875 43.471874 45.4875 44.596874Q45.4875 45.690624 44.940624 46.284374Q44.409374 46.8625 43.6125 46.8625Q42.846874 46.8625 42.315624 46.284374Q41.8 45.70625 41.8 44.534374ZM43.64375 43.05Q43.2375 43.05 42.971874 43.39375Q42.721874 43.7375 42.721874 44.64375Q42.721874 45.45625 42.9875 45.8Q43.253124 46.14375 43.64375 46.14375Q44.034374 46.14375 44.3 45.8Q44.565624 45.45625 44.565624 44.55Q44.565624 43.721874 44.3 43.39375Q44.034374 43.05 43.64375 43.05Z" fill-rule="nonzero"/><path stroke="#757575" stroke-width="1.0" stroke-linecap="butt" d="M18.55 34.05L127.05 34.05L289.40652 27.251678" fill-rule="nonzero"/><path fill="#9e9e9e" d="M291.40652 27.251678C291.40652 26.14711 290.51108 25.251678 289.40652 25.251678C288.30194 25.251678 287.40652 26.14711 287.40652 27.251678C287.40652 28.356249 288.30194 29.251678 289.40652 29.251678C290.51108 29.251678 291.40652 28.356249 291.40652 27.251678" fill-rule="nonzero"/><path fill="#1a1a1a" d="M19.471874 78.60181L19.471874 70.00806L20.628124 70.00806L25.14375 76.75806L25.14375 70.00806L26.2375 70.00806L26.2375 78.60181L25.065624 78.60181L20.55 71.85181L20.55 78.60181L19.471874 78.60181ZM32.596874 76.60181L33.690624 76.72681Q33.440624 77.67993 32.7375 78.21118Q32.034374 78.74243 30.95625 78.74243Q29.596874 78.74243 28.784374 77.89868Q27.9875 77.05493 27.9875 75.53931Q27.9875 73.97681 28.8 73.11743Q29.6125 72.24243 30.89375 72.24243Q32.14375 72.24243 32.925 73.08618Q33.721874 73.92993 33.721874 75.47681Q33.721874 75.57056 33.721874 75.75806L29.08125 75.75806Q29.14375 76.78931 29.659374 77.33618Q30.175 77.86743 30.95625 77.86743Q31.534374 77.86743 31.940624 77.57056Q32.3625 77.25806 32.596874 76.60181ZM29.14375 74.89868L32.6125 74.89868Q32.55 74.10181 32.221874 73.71118Q31.70625 73.10181 30.909374 73.10181Q30.175 73.10181 29.675 73.58618Q29.190624 74.07056 29.14375 74.89868ZM37.64375 77.66431L37.8 78.58618Q37.346874 78.67993 37.003124 78.67993Q36.425 78.67993 36.1125 78.50806Q35.8 78.32056 35.659374 78.02368Q35.534374 77.72681 35.534374 76.77368L35.534374 73.19556L34.76875 73.19556L34.76875 72.38306L35.534374 72.38306L35.534374 70.83618L36.58125 70.21118L36.58125 72.38306L37.64375 72.38306L37.64375 73.19556L36.58125 73.19556L36.58125 76.83618Q36.58125 77.28931 36.628124 77.41431Q36.690624 77.53931 36.815624 77.61743Q36.940624 77.69556 37.175 77.69556Q37.3625 77.69556 37.64375 77.66431ZM41.05 76.33618L42.1125 76.19556Q42.284374 77.08618 42.721874 77.49243Q43.159374 77.88306 43.784374 77.88306Q44.534374 77.88306 45.05 77.36743Q45.565624 76.85181 45.565624 76.08618Q45.565624 75.36743 45.08125 74.89868Q44.6125 74.41431 43.878124 74.41431Q43.58125 74.41431 43.128124 74.53931L43.253124 73.60181Q43.3625 73.61743 43.425 73.61743Q44.096874 73.61743 44.628124 73.27368Q45.175 72.91431 45.175 72.17993Q45.175 71.60181 44.784374 71.22681Q44.39375 70.83618 43.76875 70.83618Q43.159374 70.83618 42.7375 71.22681Q42.33125 71.61743 42.221874 72.38306L41.159374 72.19556Q41.346874 71.14868 42.034374 70.57056Q42.721874 69.97681 43.7375 69.97681Q44.440624 69.97681 45.034374 70.28931Q45.628124 70.58618 45.940624 71.10181Q46.253124 71.61743 46.253124 72.21118Q46.253124 72.75806 45.95625 73.22681Q45.659374 73.67993 45.08125 73.94556Q45.83125 74.11743 46.253124 74.67993Q46.675 75.22681 46.675 76.07056Q46.675 77.19556 45.846874 77.97681Q45.034374 78.75806 43.784374 78.75806Q42.659374 78.75806 41.909374 78.08618Q41.159374 77.39868 41.05 76.33618ZM48.05 74.36743Q48.05 72.83618 48.3625 71.91431Q48.675 70.97681 49.284374 70.47681Q49.909374 69.97681 50.846874 69.97681Q51.534374 69.97681 52.05 70.25806Q52.58125 70.53931 52.925 71.07056Q53.26875 71.58618 53.45625 72.33618Q53.64375 73.08618 53.64375 74.36743Q53.64375 75.88306 53.33125 76.80493Q53.034374 77.72681 52.409374 78.24243Q51.8 78.74243 50.846874 78.74243Q49.6125 78.74243 48.89375 77.85181Q48.05 76.78931 48.05 74.36743ZM49.128124 74.36743Q49.128124 76.47681 49.628124 77.17993Q50.128124 77.88306 50.846874 77.88306Q51.58125 77.88306 52.065624 77.17993Q52.565624 76.47681 52.565624 74.36743Q52.565624 72.24243 52.065624 71.55493Q51.58125 70.85181 50.83125 70.85181Q50.1125 70.85181 49.675 71.46118Q49.128124 72.24243 49.128124 74.36743Z" fill-rule="nonzero"/><path fill="#9e9e9e" d="M24.596874 94.58618L24.596874 95.60181L18.909374 95.60181Q18.909374 95.22681 19.034374 94.86743Q19.253124 94.28931 19.721874 93.72681Q20.20625 93.16431 21.1125 92.42993Q22.51875 91.27368 23.003124 90.60181Q23.503124 89.92993 23.503124 89.33618Q23.503124 88.71118 23.05 88.28931Q22.596874 87.85181 21.878124 87.85181Q21.1125 87.85181 20.659374 88.30493Q20.20625 88.75806 20.190624 89.57056L19.1125 89.46118Q19.221874 88.24243 19.940624 87.61743Q20.675 86.97681 21.909374 86.97681Q23.14375 86.97681 23.8625 87.66431Q24.58125 88.35181 24.58125 89.36743Q24.58125 89.88306 24.3625 90.38306Q24.159374 90.86743 23.659374 91.42993Q23.175 91.97681 22.05 92.92993Q21.096874 93.72681 20.815624 94.02368Q20.55 94.30493 20.378124 94.58618L24.596874 94.58618ZM26.05 93.33618L27.1125 93.19556Q27.284374 94.08618 27.721874 94.49243Q28.159374 94.88306 28.784374 94.88306Q29.534374 94.88306 30.05 94.36743Q30.565624 93.85181 30.565624 93.08618Q30.565624 92.36743 30.08125 91.89868Q29.6125 91.41431 28.878124 91.41431Q28.58125 91.41431 28.128124 91.53931L28.253124 90.60181Q28.3625 90.61743 28.425 90.61743Q29.096874 90.61743 29.628124 90.27368Q30.175 89.91431 30.175 89.17993Q30.175 88.60181 29.784374 88.22681Q29.39375 87.83618 28.76875 87.83618Q28.159374 87.83618 27.7375 88.22681Q27.33125 88.61743 27.221874 89.38306L26.159374 89.19556Q26.346874 88.14868 27.034374 87.57056Q27.721874 86.97681 28.7375 86.97681Q29.440624 86.97681 30.034374 87.28931Q30.628124 87.58618 30.940624 88.10181Q31.253124 88.61743 31.253124 89.21118Q31.253124 89.75806 30.95625 90.22681Q30.659374 90.67993 30.08125 90.94556Q30.83125 91.11743 31.253124 91.67993Q31.675 92.22681 31.675 93.07056Q31.675 94.19556 30.846874 94.97681Q30.034374 95.75806 28.784374 95.75806Q27.659374 95.75806 26.909374 95.08618Q26.159374 94.39868 26.05 93.33618ZM33.64375 95.60181L33.64375 94.39868L34.846874 94.39868L34.846874 95.60181L33.64375 95.60181ZM39.425 95.60181L39.425 93.53931L35.70625 93.53931L35.70625 92.57056L39.628124 87.00806L40.4875 87.00806L40.4875 92.57056L41.64375 92.57056L41.64375 93.53931L40.4875 93.53931L40.4875 95.60181L39.425 95.60181ZM39.425 92.57056L39.425 88.71118L36.7375 92.57056L39.425 92.57056ZM43.253124 89.07056Q43.253124 88.14868 43.70625 87.50806Q44.175 86.86743 45.05 86.86743Q45.8625 86.86743 46.39375 87.44556Q46.925 88.02368 46.925 89.13306Q46.925 90.22681 46.378124 90.82056Q45.846874 91.39868 45.065624 91.39868Q44.284374 91.39868 43.76875 90.82056Q43.253124 90.24243 43.253124 89.07056ZM45.08125 87.58618Q44.690624 87.58618 44.425 87.92993Q44.175 88.27368 44.175 89.17993Q44.175 90.00806 44.425 90.35181Q44.690624 90.67993 45.08125 90.67993Q45.4875 90.67993 45.7375 90.33618Q46.003124 89.99243 46.003124 89.10181Q46.003124 88.25806 45.7375 87.92993Q45.471874 87.58618 45.08125 87.58618ZM45.08125 95.91431L49.784374 86.86743L50.64375 86.86743L45.95625 95.91431L45.08125 95.91431ZM48.8 93.58618Q48.8 92.66431 49.253124 92.02368Q49.721874 91.38306 50.6125 91.38306Q51.425 91.38306 51.95625 91.96118Q52.4875 92.52368 52.4875 93.64868Q52.4875 94.74243 51.940624 95.33618Q51.409374 95.91431 50.6125 95.91431Q49.846874 95.91431 49.315624 95.33618Q48.8 94.75806 48.8 93.58618ZM50.64375 92.10181Q50.2375 92.10181 49.971874 92.44556Q49.721874 92.78931 49.721874 93.69556Q49.721874 94.50806 49.9875 94.85181Q50.253124 95.19556 50.64375 95.19556Q51.034374 95.19556 51.3 94.85181Q51.565624 94.50806 51.565624 93.60181Q51.565624 92.77368 51.3 92.44556Q51.034374 92.10181 50.64375 92.10181Z" fill-rule="nonzero"/><path stroke="#757575" stroke-width="1.0" stroke-linecap="butt" d="M18.55 83.10181L127.05 83.10181L178.88286 83.10181" fill-rule="nonzero"/><path fill="#9e9e9e" d="M180.88286 83.10181C180.88286 81.99724 179.98743 81.10181 178.88286 81.10181C177.77829 81.10181 176.88286 81.99724 176.88286 83.10181C176.88286 84.206375 177.77829 85.10181 178.88286 85.10181C179.98743 85.10181 180.88286 84.206375 180.88286 83.10181" fill-rule="nonzero"/><path fill="#1a1a1a" d="M19.471874 298.62787L19.471874 290.03412L20.628124 290.03412L25.14375 296.78412L25.14375 290.03412L26.2375 290.03412L26.2375 298.62787L25.065624 298.62787L20.55 291.87787L20.55 298.62787L19.471874 298.62787ZM32.596874 296.62787L33.690624 296.75287Q33.440624 297.706 32.7375 298.23724Q32.034374 298.7685 30.95625 298.7685Q29.596874 298.7685 28.784374 297.92474Q27.9875 297.081 27.9875 295.56537Q27.9875 294.00287 28.8 293.1435Q29.6125 292.2685 30.89375 292.2685Q32.14375 292.2685 32.925 293.11224Q33.721874 293.956 33.721874 295.50287Q33.721874 295.59662 33.721874 295.78412L29.08125 295.78412Q29.14375 296.81537 29.659374 297.36224Q30.175 297.8935 30.95625 297.8935Q31.534374 297.8935 31.940624 297.59662Q32.3625 297.28412 32.596874 296.62787ZM29.14375 294.92474L32.6125 294.92474Q32.55 294.12787 32.221874 293.73724Q31.70625 293.12787 30.909374 293.12787Q30.175 293.12787 29.675 293.61224Q29.190624 294.09662 29.14375 294.92474ZM37.64375 297.69037L37.8 298.61224Q37.346874 298.706 37.003124 298.706Q36.425 298.706 36.1125 298.53412Q35.8 298.34662 35.659374 298.04974Q35.534374 297.75287 35.534374 296.79974L35.534374 293.22162L34.76875 293.22162L34.76875 292.40912L35.534374 292.40912L35.534374 290.86224L36.58125 290.23724L36.58125 292.40912L37.64375 292.40912L37.64375 293.22162L36.58125 293.22162L36.58125 296.86224Q36.58125 297.31537 36.628124 297.44037Q36.690624 297.56537 36.815624 297.6435Q36.940624 297.72162 37.175 297.72162Q37.3625 297.72162 37.64375 297.69037ZM45.01875 298.62787L43.971874 298.62787L43.971874 291.90912Q43.58125 292.2685 42.95625 292.6435Q42.346874 293.00287 41.8625 293.17474L41.8625 292.15912Q42.7375 291.73724 43.39375 291.15912Q44.065624 290.56537 44.346874 290.00287L45.01875 290.00287L45.01875 298.62787ZM48.05 296.37787L49.159374 296.28412Q49.284374 297.09662 49.721874 297.50287Q50.175 297.90912 50.815624 297.90912Q51.565624 297.90912 52.096874 297.331Q52.628124 296.75287 52.628124 295.81537Q52.628124 294.90912 52.1125 294.3935Q51.6125 293.86224 50.784374 293.86224Q50.284374 293.86224 49.8625 294.09662Q49.45625 294.331 49.221874 294.69037L48.2375 294.56537L49.065624 290.15912L53.346874 290.15912L53.346874 291.15912L49.909374 291.15912L49.45625 293.47162Q50.221874 292.92474 51.065624 292.92474Q52.190624 292.92474 52.95625 293.706Q53.7375 294.48724 53.7375 295.72162Q53.7375 296.87787 53.065624 297.73724Q52.2375 298.7685 50.815624 298.7685Q49.64375 298.7685 48.89375 298.11224Q48.159374 297.456 48.05 296.37787Z" fill-rule="nonzero"/><path fill="#9e9e9e" d="M24.596874 314.61224L24.596874 315.62787L18.909374 315.62787Q18.909374 315.25287 19.034374 314.8935Q19.253124 314.31537 19.721874 313.75287Q20.20625 313.19037 21.1125 312.456Q22.51875 311.29974 23.003124 310.62787Q23.503124 309.956 23.503124 309.36224Q23.503124 308.73724 23.05 308.31537Q22.596874 307.87787 21.878124 307.87787Q21.1125 307.87787 20.659374 308.331Q20.20625 308.78412 20.190624 309.59662L19.1125 309.48724Q19.221874 308.2685 19.940624 307.6435Q20.675 307.00287 21.909374 307.00287Q23.14375 307.00287 23.8625 307.69037Q24.58125 308.37787 24.58125 309.3935Q24.58125 309.90912 24.3625 310.40912Q24.159374 310.8935 23.659374 311.456Q23.175 312.00287 22.05 312.956Q21.096874 313.75287 20.815624 314.04974Q20.55 314.331 20.378124 314.61224L24.596874 314.61224ZM26.05 313.37787L27.159374 313.28412Q27.284374 314.09662 27.721874 314.50287Q28.175 314.90912 28.815624 314.90912Q29.565624 314.90912 30.096874 314.331Q30.628124 313.75287 30.628124 312.81537Q30.628124 311.90912 30.1125 311.3935Q29.6125 310.86224 28.784374 310.86224Q28.284374 310.86224 27.8625 311.09662Q27.45625 311.331 27.221874 311.69037L26.2375 311.56537L27.065624 307.15912L31.346874 307.15912L31.346874 308.15912L27.909374 308.15912L27.45625 310.47162Q28.221874 309.92474 29.065624 309.92474Q30.190624 309.92474 30.95625 310.706Q31.7375 311.48724 31.7375 312.72162Q31.7375 313.87787 31.065624 314.73724Q30.2375 315.7685 28.815624 315.7685Q27.64375 315.7685 26.89375 315.11224Q26.159374 314.456 26.05 313.37787ZM33.64375 315.62787L33.64375 314.42474L34.846874 314.42474L34.846874 315.62787L33.64375 315.62787ZM36.05 313.37787L37.159374 313.28412Q37.284374 314.09662 37.721874 314.50287Q38.175 314.90912 38.815624 314.90912Q39.565624 314.90912 40.096874 314.331Q40.628124 313.75287 40.628124 312.81537Q40.628124 311.90912 40.1125 311.3935Q39.6125 310.86224 38.784374 310.86224Q38.284374 310.86224 37.8625 311.09662Q37.45625 311.331 37.221874 311.69037L36.2375 311.56537L37.065624 307.15912L41.346874 307.15912L41.346874 308.15912L37.909374 308.15912L37.45625 310.47162Q38.221874 309.92474 39.065624 309.92474Q40.190624 309.92474 40.95625 310.706Q41.7375 311.48724 41.7375 312.72162Q41.7375 313.87787 41.065624 314.73724Q40.2375 315.7685 38.815624 315.7685Q37.64375 315.7685 36.89375 315.11224Q36.159374 314.456 36.05 313.37787ZM43.253124 309.09662Q43.253124 308.17474 43.70625 307.53412Q44.175 306.8935 45.05 306.8935Q45.8625 306.8935 46.39375 307.47162Q46.925 308.04974 46.925 309.15912Q46.925 310.25287 46.378124 310.84662Q45.846874 311.42474 45.065624 311.42474Q44.284374 311.42474 43.76875 310.84662Q43.253124 310.2685 43.253124 309.09662ZM45.08125 307.61224Q44.690624 307.61224 44.425 307.956Q44.175 308.29974 44.175 309.206Q44.175 310.03412 44.425 310.37787Q44.690624 310.706 45.08125 310.706Q45.4875 310.706 45.7375 310.36224Q46.003124 310.0185 46.003124 309.12787Q46.003124 308.28412 45.7375 307.956Q45.471874 307.61224 45.08125 307.61224ZM45.08125 315.94037L49.784374 306.8935L50.64375 306.8935L45.95625 315.94037L45.08125 315.94037ZM48.8 313.61224Q48.8 312.69037 49.253124 312.04974Q49.721874 311.40912 50.6125 311.40912Q51.425 311.40912 51.95625 311.98724Q52.4875 312.54974 52.4875 313.67474Q52.4875 314.7685 51.940624 315.36224Q51.409374 315.94037 50.6125 315.94037Q49.846874 315.94037 49.315624 315.36224Q48.8 314.78412 48.8 313.61224ZM50.64375 312.12787Q50.2375 312.12787 49.971874 312.47162Q49.721874 312.81537 49.721874 313.72162Q49.721874 314.53412 49.9875 314.87787Q50.253124 315.22162 50.64375 315.22162Q51.034374 315.22162 51.3 314.87787Q51.565624 314.53412 51.565624 313.62787Q51.565624 312.79974 51.3 312.47162Q51.034374 312.12787 50.64375 312.12787Z" fill-rule="nonzero"/><path stroke="#757575" stroke-width="1.0" stroke-linecap="butt" d="M18.55 303.12787L127.05 303.12787L193.61186 303.12787" fill-rule="nonzero"/><path fill="#9e9e9e" d="M195.61186 303.12787C195.61186 302.02332 194.71643 301.12787 193.61186 301.12787C192.5073 301.12787 191.61186 302.02332 191.61186 303.12787C191.61186 304.23245 192.5073 305.12787 193.61186 305.12787C194.71643 305.12787 195.61186 304.23245 195.61186 303.12787" fill-rule="nonzero"/><path fill="#1a1a1a" d="M497.3719 175.7003L497.3719 167.10655L500.34064 167.10655Q501.34064 167.10655 501.8719 167.23155Q502.60626 167.40343 503.1219 167.84093Q503.8094 168.41905 504.1375 169.3253Q504.48126 170.21593 504.48126 171.35655Q504.48126 172.34093 504.2469 173.09093Q504.02814 173.84093 503.66876 174.34093Q503.3094 174.84093 502.8719 175.12218Q502.45 175.40343 501.85626 175.55968Q501.2625 175.7003 500.48126 175.7003L497.3719 175.7003ZM498.5125 174.68468L500.34064 174.68468Q501.2 174.68468 501.6844 174.52843Q502.16876 174.37218 502.45 174.0753Q502.85626 173.68468 503.075 172.99718Q503.3094 172.30968 503.3094 171.34093Q503.3094 169.99718 502.85626 169.27843Q502.41876 168.54405 501.79376 168.29405Q501.325 168.12218 500.325 168.12218L498.5125 168.12218L498.5125 174.68468ZM510.325 175.7003L510.325 174.77843Q509.59064 175.84093 508.34064 175.84093Q507.79376 175.84093 507.3094 175.6378Q506.84064 175.41905 506.60626 175.10655Q506.3719 174.77843 506.27814 174.30968Q506.21564 174.0128 506.21564 173.3253L506.21564 169.48155L507.27814 169.48155L507.27814 172.93468Q507.27814 173.74718 507.34064 174.04405Q507.4344 174.4503 507.7469 174.7003Q508.075 174.93468 508.5594 174.93468Q509.02814 174.93468 509.4344 174.7003Q509.85626 174.4503 510.02814 174.02843Q510.21564 173.60655 510.21564 172.80968L510.21564 169.48155L511.2625 169.48155L511.2625 175.7003L510.325 175.7003ZM517.4969 173.7003L518.59064 173.8253Q518.34064 174.77843 517.6375 175.30968Q516.9344 175.84093 515.85626 175.84093Q514.4969 175.84093 513.6844 174.99718Q512.8875 174.15343 512.8875 172.6378Q512.8875 171.0753 513.7 170.21593Q514.5125 169.34093 515.79376 169.34093Q517.04376 169.34093 517.825 170.18468Q518.6219 171.02843 518.6219 172.5753Q518.6219 172.66905 518.6219 172.85655L513.98126 172.85655Q514.04376 173.8878 514.5594 174.43468Q515.075 174.96593 515.85626 174.96593Q516.4344 174.96593 516.84064 174.66905Q517.2625 174.35655 517.4969 173.7003ZM514.04376 171.99718L517.5125 171.99718Q517.45 171.2003 517.1219 170.80968Q516.60626 170.2003 515.8094 170.2003Q515.075 170.2003 514.575 170.68468Q514.09064 171.16905 514.04376 171.99718ZM522.85626 172.59093Q522.85626 170.85655 523.8094 170.02843Q524.60626 169.34093 525.7625 169.34093Q527.04376 169.34093 527.85626 170.18468Q528.6844 171.0128 528.6844 172.49718Q528.6844 173.7003 528.325 174.3878Q527.96564 175.0753 527.2625 175.46593Q526.575 175.84093 525.7625 175.84093Q524.46564 175.84093 523.65314 175.0128Q522.85626 174.16905 522.85626 172.59093ZM523.9344 172.59093Q523.9344 173.77843 524.45 174.37218Q524.98126 174.96593 525.7625 174.96593Q526.5594 174.96593 527.075 174.37218Q527.59064 173.77843 527.59064 172.55968Q527.59064 171.40343 527.0594 170.80968Q526.54376 170.21593 525.7625 170.21593Q524.98126 170.21593 524.45 170.80968Q523.9344 171.3878 523.9344 172.59093ZM530.2469 175.7003L530.2469 169.48155L531.1844 169.48155L531.1844 170.35655Q531.8719 169.34093 533.16876 169.34093Q533.73126 169.34093 534.2 169.54405Q534.6844 169.74718 534.91876 170.0753Q535.15314 170.40343 535.2469 170.84093Q535.29376 171.1378 535.29376 171.87218L535.29376 175.7003L534.2469 175.7003L534.2469 171.91905Q534.2469 171.2628 534.1219 170.9503Q533.9969 170.6378 533.6844 170.4503Q533.3719 170.24718 532.95 170.24718Q532.27814 170.24718 531.77814 170.68468Q531.29376 171.10655 531.29376 172.29405L531.29376 175.7003L530.2469 175.7003ZM540.3875 175.7003L540.3875 167.10655L544.2 167.10655Q545.35626 167.10655 545.95 167.34093Q546.54376 167.5753 546.90314 168.16905Q547.2625 168.74718 547.2625 169.4503Q547.2625 170.37218 546.66876 170.99718Q546.075 171.62218 544.84064 171.79405Q545.29376 172.0128 545.52814 172.21593Q546.02814 172.66905 546.46564 173.35655L547.96564 175.7003L546.52814 175.7003L545.40314 173.91905Q544.90314 173.1378 544.575 172.73155Q544.2625 172.3253 543.9969 172.16905Q543.7469 171.99718 543.48126 171.91905Q543.29376 171.8878 542.85626 171.8878L541.52814 171.8878L541.52814 175.7003L540.3875 175.7003ZM541.52814 170.90343L543.98126 170.90343Q544.7469 170.90343 545.1844 170.74718Q545.6375 170.5753 545.85626 170.23155Q546.09064 169.87218 546.09064 169.4503Q546.09064 168.84093 545.6375 168.4503Q545.2 168.05968 544.2469 168.05968L541.52814 168.05968L541.52814 170.90343ZM553.4969 173.7003L554.59064 173.8253Q554.34064 174.77843 553.6375 175.30968Q552.9344 175.84093 551.85626 175.84093Q550.4969 175.84093 549.6844 174.99718Q548.8875 174.15343 548.8875 172.6378Q548.8875 171.0753 549.7 170.21593Q550.5125 169.34093 551.79376 169.34093Q553.04376 169.34093 553.825 170.18468Q554.6219 171.02843 554.6219 172.5753Q554.6219 172.66905 554.6219 172.85655L549.98126 172.85655Q550.04376 173.8878 550.5594 174.43468Q551.075 174.96593 551.85626 174.96593Q552.4344 174.96593 552.84064 174.66905Q553.2625 174.35655 553.4969 173.7003ZM550.04376 171.99718L553.5125 171.99718Q553.45 171.2003 553.1219 170.80968Q552.60626 170.2003 551.8094 170.2003Q551.075 170.2003 550.575 170.68468Q550.09064 171.16905 550.04376 171.99718ZM560.3094 173.41905L561.34064 173.55968Q561.16876 174.62218 560.46564 175.23155Q559.7625 175.84093 558.7469 175.84093Q557.46564 175.84093 556.6844 175.0128Q555.91876 174.16905 555.91876 172.60655Q555.91876 171.60655 556.2469 170.85655Q556.59064 170.09093 557.2625 169.71593Q557.95 169.34093 558.7625 169.34093Q559.7625 169.34093 560.40314 169.85655Q561.0594 170.35655 561.2469 171.30968L560.21564 171.46593Q560.075 170.84093 559.7 170.52843Q559.325 170.2003 558.79376 170.2003Q557.9969 170.2003 557.4969 170.77843Q556.9969 171.34093 556.9969 172.5753Q556.9969 173.84093 557.48126 174.40343Q557.96564 174.96593 558.73126 174.96593Q559.35626 174.96593 559.7625 174.59093Q560.1844 174.21593 560.3094 173.41905ZM566.4969 173.7003L567.59064 173.8253Q567.34064 174.77843 566.6375 175.30968Q565.9344 175.84093 564.85626 175.84093Q563.4969 175.84093 562.6844 174.99718Q561.8875 174.15343 561.8875 172.6378Q561.8875 171.0753 562.7 170.21593Q563.5125 169.34093 564.79376 169.34093Q566.04376 169.34093 566.825 170.18468Q567.6219 171.02843 567.6219 172.5753Q567.6219 172.66905 567.6219 172.85655L562.98126 172.85655Q563.04376 173.8878 563.5594 174.43468Q564.075 174.96593 564.85626 174.96593Q565.4344 174.96593 565.84064 174.66905Q566.2625 174.35655 566.4969 173.7003ZM563.04376 171.99718L566.5125 171.99718Q566.45 171.2003 566.1219 170.80968Q565.60626 170.2003 564.8094 170.2003Q564.075 170.2003 563.575 170.68468Q563.09064 171.16905 563.04376 171.99718ZM569.2469 168.3253L569.2469 167.10655L570.3094 167.10655L570.3094 168.3253L569.2469 168.3253ZM569.2469 175.7003L569.2469 169.48155L570.3094 169.48155L570.3094 175.7003L569.2469 175.7003ZM572.2469 178.09093L572.2469 169.48155L573.2 169.48155L573.2 170.27843Q573.54376 169.80968 573.96564 169.5753Q574.40314 169.34093 575.0125 169.34093Q575.8094 169.34093 576.41876 169.74718Q577.02814 170.15343 577.325 170.90343Q577.6375 171.65343 577.6375 172.54405Q577.6375 173.49718 577.29376 174.2628Q576.96564 175.02843 576.3094 175.43468Q575.65314 175.84093 574.9344 175.84093Q574.40314 175.84093 573.98126 175.62218Q573.5594 175.3878 573.29376 175.05968L573.29376 178.09093L572.2469 178.09093ZM573.2 172.62218Q573.2 173.8253 573.6844 174.40343Q574.16876 174.96593 574.85626 174.96593Q575.5594 174.96593 576.0594 174.37218Q576.5594 173.77843 576.5594 172.52843Q576.5594 171.34093 576.075 170.7628Q575.59064 170.16905 574.90314 170.16905Q574.23126 170.16905 573.71564 170.79405Q573.2 171.41905 573.2 172.62218ZM581.54376 174.7628L581.7 175.68468Q581.2469 175.77843 580.90314 175.77843Q580.325 175.77843 580.0125 175.60655Q579.7 175.41905 579.5594 175.12218Q579.4344 174.8253 579.4344 173.87218L579.4344 170.29405L578.66876 170.29405L578.66876 169.48155L579.4344 169.48155L579.4344 167.93468L580.48126 167.30968L580.48126 169.48155L581.54376 169.48155L581.54376 170.29405L580.48126 170.29405L580.48126 173.93468Q580.48126 174.3878 580.52814 174.5128Q580.59064 174.6378 580.71564 174.71593Q580.84064 174.79405 581.075 174.79405Q581.2625 174.79405 581.54376 174.7628Z" fill-rule="nonzero"/><path fill="#9e9e9e" d="M550.325 192.7003L550.325 190.6378L546.60626 190.6378L546.60626 189.66905L550.52814 184.10655L551.3875 184.10655L551.3875 189.66905L552.54376 189.66905L552.54376 190.6378L551.3875 190.6378L551.3875 192.7003L550.325 192.7003ZM550.325 189.66905L550.325 185.80968L547.6375 189.66905L550.325 189.66905ZM555.575 188.04405Q554.91876 187.79405 554.59064 187.35655Q554.27814 186.90343 554.27814 186.29405Q554.27814 185.35655 554.95 184.71593Q555.6375 184.0753 556.7469 184.0753Q557.8719 184.0753 558.5594 184.73155Q559.2469 185.3878 559.2469 186.3253Q559.2469 186.91905 558.9344 187.35655Q558.6219 187.79405 557.98126 188.04405Q558.77814 188.29405 559.1844 188.87218Q559.59064 189.4503 559.59064 190.24718Q559.59064 191.34093 558.8094 192.09093Q558.04376 192.84093 556.7625 192.84093Q555.4969 192.84093 554.71564 192.09093Q553.9344 191.34093 553.9344 190.21593Q553.9344 189.37218 554.35626 188.80968Q554.79376 188.24718 555.575 188.04405ZM555.35626 186.24718Q555.35626 186.85655 555.7469 187.24718Q556.15314 187.6378 556.77814 187.6378Q557.3875 187.6378 557.77814 187.2628Q558.16876 186.87218 558.16876 186.30968Q558.16876 185.73155 557.7625 185.34093Q557.35626 184.93468 556.7625 184.93468Q556.15314 184.93468 555.7469 185.3253Q555.35626 185.71593 555.35626 186.24718ZM555.02814 190.21593Q555.02814 190.66905 555.23126 191.09093Q555.45 191.5128 555.8719 191.74718Q556.29376 191.98155 556.77814 191.98155Q557.52814 191.98155 558.0125 191.49718Q558.5125 191.0128 558.5125 190.2628Q558.5125 189.49718 558.0125 188.99718Q557.5125 188.49718 556.7469 188.49718Q555.9969 188.49718 555.5125 188.99718Q555.02814 189.48155 555.02814 190.21593ZM561.54376 192.7003L561.54376 191.49718L562.7469 191.49718L562.7469 192.7003L561.54376 192.7003ZM564.10626 190.71593L565.1219 190.62218Q565.2469 191.34093 565.60626 191.66905Q565.98126 191.98155 566.54376 191.98155Q567.02814 191.98155 567.3875 191.7628Q567.7625 191.52843 567.9969 191.16905Q568.23126 190.79405 568.3875 190.16905Q568.54376 189.52843 568.54376 188.87218Q568.54376 188.79405 568.54376 188.65343Q568.23126 189.15343 567.6844 189.48155Q567.1375 189.79405 566.4969 189.79405Q565.41876 189.79405 564.6844 189.02843Q563.95 188.24718 563.95 186.98155Q563.95 185.66905 564.71564 184.87218Q565.4969 184.0753 566.65314 184.0753Q567.48126 184.0753 568.16876 184.52843Q568.8719 184.98155 569.23126 185.8253Q569.59064 186.65343 569.59064 188.23155Q569.59064 189.87218 569.23126 190.85655Q568.8875 191.8253 568.16876 192.34093Q567.46564 192.84093 566.52814 192.84093Q565.5125 192.84093 564.8719 192.29405Q564.23126 191.73155 564.10626 190.71593ZM568.41876 186.91905Q568.41876 186.0128 567.9344 185.48155Q567.46564 184.9503 566.77814 184.9503Q566.075 184.9503 565.54376 185.52843Q565.02814 186.09093 565.02814 187.0128Q565.02814 187.8253 565.52814 188.34093Q566.02814 188.85655 566.7469 188.85655Q567.48126 188.85655 567.95 188.34093Q568.41876 187.8253 568.41876 186.91905ZM571.15314 186.16905Q571.15314 185.24718 571.60626 184.60655Q572.075 183.96593 572.95 183.96593Q573.7625 183.96593 574.29376 184.54405Q574.825 185.12218 574.825 186.23155Q574.825 187.3253 574.27814 187.91905Q573.7469 188.49718 572.96564 188.49718Q572.1844 188.49718 571.66876 187.91905Q571.15314 187.34093 571.15314 186.16905ZM572.98126 184.68468Q572.59064 184.68468 572.325 185.02843Q572.075 185.37218 572.075 186.27843Q572.075 187.10655 572.325 187.4503Q572.59064 187.77843 572.98126 187.77843Q573.3875 187.77843 573.6375 187.43468Q573.90314 187.09093 573.90314 186.2003Q573.90314 185.35655 573.6375 185.02843Q573.3719 184.68468 572.98126 184.68468ZM572.98126 193.0128L577.6844 183.96593L578.54376 183.96593L573.85626 193.0128L572.98126 193.0128ZM576.7 190.68468Q576.7 189.7628 577.15314 189.12218Q577.6219 188.48155 578.5125 188.48155Q579.325 188.48155 579.85626 189.05968Q580.3875 189.62218 580.3875 190.74718Q580.3875 191.84093 579.84064 192.43468Q579.3094 193.0128 578.5125 193.0128Q577.7469 193.0128 577.21564 192.43468Q576.7 191.85655 576.7 190.68468ZM578.54376 189.2003Q578.1375 189.2003 577.8719 189.54405Q577.6219 189.8878 577.6219 190.79405Q577.6219 191.60655 577.8875 191.9503Q578.15314 192.29405 578.54376 192.29405Q578.9344 192.29405 579.2 191.9503Q579.46564 191.60655 579.46564 190.7003Q579.46564 189.87218 579.2 189.54405Q578.9344 189.2003 578.54376 189.2003Z" fill-rule="nonzero"/><path stroke="#757575" stroke-width="1.0" stroke-linecap="butt" d="M581.45 180.2003L472.95 180.2003L458.51392 180.2003" fill-rule="nonzero"/><path fill="#9e9e9e" d="M460.51392 180.2003C460.51392 179.09573 459.6185 178.2003 458.51392 178.2003C457.40936 178.2003 456.51392 179.09573 456.51392 180.2003C456.51392 181.30487 457.40936 182.2003 458.51392 182.2003C459.6185 182.2003 460.51392 181.30487 460.51392 180.2003" fill-rule="nonzero"/></svg>