<svg version="1.1" viewBox="0.0 0.0 600.0 371.0" fill="none" stroke="none" stroke-linecap="square" stroke-miterlimit="10" width="600" height="371" xmlns:xlink="http://www.w3.org/1999/xlink" xmlns="http://www.w3.org/2000/svg"><path fill="#ffffff" d="M0 0L600.0 0L600.0 371.0L0 371.0L0 0Z" fill-rule="nonzero"/><path stroke="#333333" stroke-width="1.0" stroke-linecap="butt" d="M45.5 318.5L581.5 318.5" fill-rule="nonzero"/><path stroke="#cccccc" stroke-width="1.0" stroke-linecap="butt" d="M45.5 245.5L581.5 245.5" fill-rule="nonzero"/><path stroke="#cccccc" stroke-width="1.0" stroke-linecap="butt" d="M45.5 172.5L581.5 172.5" fill-rule="nonzero"/><path stroke="#cccccc" stroke-width="1.0" stroke-linecap="butt" d="M45.5 98.5L581.5 98.5" fill-rule="nonzero"/><path stroke="#cccccc" stroke-width="1.0" stroke-linecap="butt" d="M45.5 25.5L581.5 25.5" fill-rule="nonzero"/><clipPath id="id_0"><path d="M45.55 25.55L581.45 25.55L581.45 318.45L45.55 318.45L45.55 25.55Z" clip-rule="nonzero"/></clipPath><path stroke="#000000" stroke-width="2.0" stroke-linecap="butt" stroke-opacity="0.0" clip-path="url(#id_0)" d="M169.0 318.0L89.0 318.0L89.0 35.0C89.0 33.89543 89.89543 33.0 91.0 33.0L167.0 33.0C168.10457 33.0 169.0 33.89543 169.0 35.0Z" fill-rule="nonzero"/><path fill="#4285f4" clip-path="url(#id_0)" d="M169.0 318.0L89.0 318.0L89.0 35.0C89.0 33.89543 89.89543 33.0 91.0 33.0L167.0 33.0C168.10457 33.0 169.0 33.89543 169.0 35.0Z" fill-rule="nonzero"/><path stroke="#000000" stroke-width="2.0" stroke-linecap="butt" stroke-opacity="0.0" clip-path="url(#id_0)" d="M292.0 318.0L212.0 318.0L212.0 181.0C212.0 179.89543 212.89543 179.0 214.0 179.0L290.0 179.0C291.10458 179.0 292.0 179.89543 292.0 181.0Z" fill-rule="nonzero"/><path fill="#4285f4" clip-path="url(#id_0)" d="M292.0 318.0L212.0 318.0L212.0 181.0C212.0 179.89543 212.89543 179.0 214.0 179.0L290.0 179.0C291.10458 179.0 292.0 179.89543 292.0 181.0Z" fill-rule="nonzero"/><path stroke="#000000" stroke-width="2.0" stroke-linecap="butt" stroke-opacity="0.0" clip-path="url(#id_0)" d="M415.0 318.0L335.0 318.0L335.0 218.0C335.0 216.89543 335.89542 216.0 337.0 216.0L413.0 216.0C414.10458 216.0 415.0 216.89543 415.0 218.0Z" fill-rule="nonzero"/><path fill="#4285f4" clip-path="url(#id_0)" d="M415.0 318.0L335.0 318.0L335.0 218.0C335.0 216.89543 335.89542 216.0 337.0 216.0L413.0 216.0C414.10458 216.0 415.0 216.89543 415.0 218.0Z" fill-rule="nonzero"/><path stroke="#000000" stroke-width="2.0" stroke-linecap="butt" stroke-opacity="0.0" clip-path="url(#id_0)" d="M538.0 318.0L458.0 318.0L458.0 189.0C458.0 187.89543 458.89542 187.0 460.0 187.0L536.0 187.0C537.10455 187.0 538.0 187.89543 538.0 189.0Z" fill-rule="nonzero"/><path fill="#4285f4" clip-path="url(#id_0)" d="M538.0 318.0L458.0 318.0L458.0 189.0C458.0 187.89543 458.89542 187.0 460.0 187.0L536.0 187.0C537.10455 187.0 538.0 187.89543 538.0 189.0Z" fill-rule="nonzero"/><path stroke="#4285f4" stroke-width="3.0" stroke-linejoin="round" stroke-linecap="round" d="M124.28125 44.875626L125.09375 44.875626Q125.875 44.86 126.3125 44.469376Q126.75 44.07875 126.75 43.406876Q126.75 41.906876 125.25 41.906876Q124.546875 41.906876 124.125 42.313126Q123.71875 42.719376 123.71875 43.375626L122.625 43.375626Q122.625 42.36 123.359375 41.688126Q124.109375 41.01625 125.25 41.01625Q126.453125 41.01625 127.140625 41.656876Q127.828125 42.2975 127.828125 43.438126Q127.828125 44.000626 127.46875 44.51625Q127.109375 45.031876 126.484375 45.2975Q127.1875 45.51625 127.5625 46.031876Q127.953125 46.5475 127.953125 47.2975Q127.953125 48.438126 127.203125 49.125626Q126.453125 49.7975 125.25 49.7975Q124.0625 49.7975 123.296875 49.14125Q122.546875 48.485 122.546875 47.4225L123.640625 47.4225Q123.640625 48.094376 124.078125 48.500626Q124.515625 48.906876 125.265625 48.906876Q126.046875 48.906876 126.453125 48.500626Q126.875 48.07875 126.875 47.313126Q126.875 46.57875 126.421875 46.188126Q125.96875 45.781876 125.09375 45.76625L124.28125 45.76625L124.28125 44.875626ZM133.85938 45.9225Q133.53125 46.32875 133.04688 46.57875Q132.57812 46.813126 132.01562 46.813126Q131.28125 46.813126 130.73438 46.45375Q130.1875 46.094376 129.89062 45.438126Q129.59375 44.76625 129.59375 43.969376Q129.59375 43.125626 129.90625 42.438126Q130.23438 41.750626 130.82812 41.39125Q131.4375 41.01625 132.23438 41.01625Q133.5 41.01625 134.21875 41.969376Q134.95312 42.9225 134.95312 44.5475L134.95312 44.86Q134.95312 47.36 133.96875 48.500626Q132.98438 49.64125 131.0 49.6725L130.78125 49.6725L130.78125 48.76625L131.01562 48.76625Q132.35938 48.735 133.07812 48.063126Q133.79688 47.39125 133.85938 45.9225ZM132.1875 45.9225Q132.73438 45.9225 133.1875 45.594376Q133.65625 45.250626 133.875 44.76625L133.875 44.32875Q133.875 43.26625 133.40625 42.594376Q132.9375 41.9225 132.23438 41.9225Q131.51562 41.9225 131.07812 42.469376Q130.65625 43.01625 130.65625 43.9225Q130.65625 44.7975 131.0625 45.36Q131.48438 45.9225 132.1875 45.9225Z" fill-rule="nonzero"/><path fill="#ffffff" d="M124.28125 44.875626L125.09375 44.875626Q125.875 44.86 126.3125 44.469376Q126.75 44.07875 126.75 43.406876Q126.75 41.906876 125.25 41.906876Q124.546875 41.906876 124.125 42.313126Q123.71875 42.719376 123.71875 43.375626L122.625 43.375626Q122.625 42.36 123.359375 41.688126Q124.109375 41.01625 125.25 41.01625Q126.453125 41.01625 127.140625 41.656876Q127.828125 42.2975 127.828125 43.438126Q127.828125 44.000626 127.46875 44.51625Q127.109375 45.031876 126.484375 45.2975Q127.1875 45.51625 127.5625 46.031876Q127.953125 46.5475 127.953125 47.2975Q127.953125 48.438126 127.203125 49.125626Q126.453125 49.7975 125.25 49.7975Q124.0625 49.7975 123.296875 49.14125Q122.546875 48.485 122.546875 47.4225L123.640625 47.4225Q123.640625 48.094376 124.078125 48.500626Q124.515625 48.906876 125.265625 48.906876Q126.046875 48.906876 126.453125 48.500626Q126.875 48.07875 126.875 47.313126Q126.875 46.57875 126.421875 46.188126Q125.96875 45.781876 125.09375 45.76625L124.28125 45.76625L124.28125 44.875626ZM133.85938 45.9225Q133.53125 46.32875 133.04688 46.57875Q132.57812 46.813126 132.01562 46.813126Q131.28125 46.813126 130.73438 46.45375Q130.1875 46.094376 129.89062 45.438126Q129.59375 44.76625 129.59375 43.969376Q129.59375 43.125626 129.90625 42.438126Q130.23438 41.750626 130.82812 41.39125Q131.4375 41.01625 132.23438 41.01625Q133.5 41.01625 134.21875 41.969376Q134.95312 42.9225 134.95312 44.5475L134.95312 44.86Q134.95312 47.36 133.96875 48.500626Q132.98438 49.64125 131.0 49.6725L130.78125 49.6725L130.78125 48.76625L131.01562 48.76625Q132.35938 48.735 133.07812 48.063126Q133.79688 47.39125 133.85938 45.9225ZM132.1875 45.9225Q132.73438 45.9225 133.1875 45.594376Q133.65625 45.250626 133.875 44.76625L133.875 44.32875Q133.875 43.26625 133.40625 42.594376Q132.9375 41.9225 132.23438 41.9225Q131.51562 41.9225 131.07812 42.469376Q130.65625 43.01625 130.65625 43.9225Q130.65625 44.7975 131.0625 45.36Q131.48438 45.9225 132.1875 45.9225Z" fill-rule="nonzero"/><path stroke="#4285f4" stroke-width="3.0" stroke-linejoin="round" stroke-linecap="round" d="M249.26562 196.1225L248.1875 196.1225L248.1875 188.90375L246.0 189.70062L246.0 188.71625L249.10938 187.54437L249.26562 187.54437L249.26562 196.1225ZM256.85938 192.3725Q256.53125 192.77875 256.04688 193.02875Q255.57812 193.26312 255.01562 193.26312Q254.28125 193.26312 253.73438 192.90375Q253.1875 192.54437 252.89062 191.88812Q252.59375 191.21625 252.59375 190.41937Q252.59375 189.57562 252.90625 188.88812Q253.23438 188.20062 253.82812 187.84125Q254.4375 187.46625 255.23438 187.46625Q256.5 187.46625 257.21875 188.41937Q257.95312 189.3725 257.95312 190.9975L257.95312 191.31Q257.95312 193.81 256.96875 194.95062Q255.98438 196.09125 254.0 196.1225L253.78125 196.1225L253.78125 195.21625L254.01562 195.21625Q255.35938 195.185 256.07812 194.51312Q256.79688 193.84125 256.85938 192.3725ZM255.1875 192.3725Q255.73438 192.3725 256.1875 192.04437Q256.65625 191.70062 256.875 191.21625L256.875 190.77875Q256.875 189.71625 256.40625 189.04437Q255.9375 188.3725 255.23438 188.3725Q254.51562 188.3725 254.07812 188.91937Q253.65625 189.46625 253.65625 190.3725Q253.65625 191.2475 254.0625 191.81Q254.48438 192.3725 255.1875 192.3725Z" fill-rule="nonzero"/><path fill="#ffffff" d="M249.26562 196.1225L248.1875 196.1225L248.1875 188.90375L246.0 189.70062L246.0 188.71625L249.10938 187.54437L249.26562 187.54437L249.26562 196.1225ZM256.85938 192.3725Q256.53125 192.77875 256.04688 193.02875Q255.57812 193.26312 255.01562 193.26312Q254.28125 193.26312 253.73438 192.90375Q253.1875 192.54437 252.89062 191.88812Q252.59375 191.21625 252.59375 190.41937Q252.59375 189.57562 252.90625 188.88812Q253.23438 188.20062 253.82812 187.84125Q254.4375 187.46625 255.23438 187.46625Q256.5 187.46625 257.21875 188.41937Q257.95312 189.3725 257.95312 190.9975L257.95312 191.31Q257.95312 193.81 256.96875 194.95062Q255.98438 196.09125 254.0 196.1225L253.78125 196.1225L253.78125 195.21625L254.01562 195.21625Q255.35938 195.185 256.07812 194.51312Q256.79688 193.84125 256.85938 192.3725ZM255.1875 192.3725Q255.73438 192.3725 256.1875 192.04437Q256.65625 191.70062 256.875 191.21625L256.875 190.77875Q256.875 189.71625 256.40625 189.04437Q255.9375 188.3725 255.23438 188.3725Q254.51562 188.3725 254.07812 188.91937Q253.65625 189.46625 253.65625 190.3725Q253.65625 191.2475 254.0625 191.81Q254.48438 192.3725 255.1875 192.3725Z" fill-rule="nonzero"/><path stroke="#4285f4" stroke-width="3.0" stroke-linejoin="round" stroke-linecap="round" d="M372.26562 232.735L371.1875 232.735L371.1875 225.51625L369.0 226.31313L369.0 225.32875L372.10938 224.15688L372.26562 224.15688L372.26562 232.735ZM380.28125 229.87563L381.46875 229.87563L381.46875 230.75063L380.28125 230.75063L380.28125 232.735L379.20312 232.735L379.20312 230.75063L375.3125 230.75063L375.3125 230.11L379.125 224.20375L380.28125 224.20375L380.28125 229.87563ZM376.54688 229.87563L379.20312 229.87563L379.20312 225.68813L379.0625 225.9225L376.54688 229.87563Z" fill-rule="nonzero"/><path fill="#ffffff" d="M372.26562 232.735L371.1875 232.735L371.1875 225.51625L369.0 226.31313L369.0 225.32875L372.10938 224.15688L372.26562 224.15688L372.26562 232.735ZM380.28125 229.87563L381.46875 229.87563L381.46875 230.75063L380.28125 230.75063L380.28125 232.735L379.20312 232.735L379.20312 230.75063L375.3125 230.75063L375.3125 230.11L379.125 224.20375L380.28125 224.20375L380.28125 229.87563ZM376.54688 229.87563L379.20312 229.87563L379.20312 225.68813L379.0625 225.9225L376.54688 229.87563Z" fill-rule="nonzero"/><path stroke="#4285f4" stroke-width="3.0" stroke-linejoin="round" stroke-linecap="round" d="M495.26562 203.445L494.1875 203.445L494.1875 196.22626L492.0 197.02313L492.0 196.03876L495.10938 194.86688L495.26562 194.86688L495.26562 203.445ZM503.89062 197.1325Q503.89062 197.77313 503.54688 198.27313Q503.20312 198.77313 502.64062 199.05438Q503.29688 199.33563 503.6875 199.89813Q504.07812 200.445 504.07812 201.14813Q504.07812 202.24188 503.32812 202.91376Q502.59375 203.57 501.375 203.57Q500.14062 203.57 499.39062 202.91376Q498.65625 202.24188 498.65625 201.14813Q498.65625 200.445 499.03125 199.89813Q499.40625 199.33563 500.07812 199.05438Q499.51562 198.77313 499.1875 198.27313Q498.85938 197.77313 498.85938 197.1325Q498.85938 196.05438 499.54688 195.42938Q500.23438 194.78876 501.375 194.78876Q502.5 194.78876 503.1875 195.42938Q503.89062 196.05438 503.89062 197.1325ZM503.0 201.11688Q503.0 200.39813 502.54688 199.96063Q502.09375 199.5075 501.35938 199.5075Q500.625 199.5075 500.17188 199.96063Q499.73438 200.39813 499.73438 201.1325Q499.73438 201.85126 500.17188 202.27313Q500.60938 202.67938 501.375 202.67938Q502.125 202.67938 502.5625 202.2575Q503.0 201.83563 503.0 201.11688ZM501.375 195.67938Q500.73438 195.67938 500.32812 196.08563Q499.9375 196.47626 499.9375 197.16376Q499.9375 197.80438 500.32812 198.21063Q500.71875 198.61688 501.35938 198.61688Q502.01562 198.61688 502.40625 198.21063Q502.79688 197.80438 502.79688 197.16376Q502.79688 196.5075 502.39062 196.10126Q501.98438 195.67938 501.375 195.67938Z" fill-rule="nonzero"/><path fill="#ffffff" d="M495.26562 203.445L494.1875 203.445L494.1875 196.22626L492.0 197.02313L492.0 196.03876L495.10938 194.86688L495.26562 194.86688L495.26562 203.445ZM503.89062 197.1325Q503.89062 197.77313 503.54688 198.27313Q503.20312 198.77313 502.64062 199.05438Q503.29688 199.33563 503.6875 199.89813Q504.07812 200.445 504.07812 201.14813Q504.07812 202.24188 503.32812 202.91376Q502.59375 203.57 501.375 203.57Q500.14062 203.57 499.39062 202.91376Q498.65625 202.24188 498.65625 201.14813Q498.65625 200.445 499.03125 199.89813Q499.40625 199.33563 500.07812 199.05438Q499.51562 198.77313 499.1875 198.27313Q498.85938 197.77313 498.85938 197.1325Q498.85938 196.05438 499.54688 195.42938Q500.23438 194.78876 501.375 194.78876Q502.5 194.78876 503.1875 195.42938Q503.89062 196.05438 503.89062 197.1325ZM503.0 201.11688Q503.0 200.39813 502.54688 199.96063Q502.09375 199.5075 501.35938 199.5075Q500.625 199.5075 500.17188 199.96063Q499.73438 200.39813 499.73438 201.1325Q499.73438 201.85126 500.17188 202.27313Q500.60938 202.67938 501.375 202.67938Q502.125 202.67938 502.5625 202.2575Q503.0 201.83563 503.0 201.11688ZM501.375 195.67938Q500.73438 195.67938 500.32812 196.08563Q499.9375 196.47626 499.9375 197.16376Q499.9375 197.80438 500.32812 198.21063Q500.71875 198.61688 501.35938 198.61688Q502.01562 198.61688 502.40625 198.21063Q502.79688 197.80438 502.79688 197.16376Q502.79688 196.5075 502.39062 196.10126Q501.98438 195.67938 501.375 195.67938Z" fill-rule="nonzero"/><path fill="#000000" d="M33.05 318.21564Q33.05 316.6844 33.3625 315.7625Q33.675 314.825 34.284374 314.325Q34.909374 313.825 35.846874 313.825Q36.534374 313.825 37.05 314.10626Q37.58125 314.3875 37.925 314.91876Q38.26875 315.4344 38.45625 316.1844Q38.64375 316.9344 38.64375 318.21564Q38.64375 319.73126 38.33125 320.65314Q38.034374 321.575 37.409374 322.09064Q36.8 322.59064 35.846874 322.59064Q34.6125 322.59064 33.89375 321.7Q33.05 320.6375 33.05 318.21564ZM34.128124 318.21564Q34.128124 320.325 34.628124 321.02814Q35.128124 321.73126 35.846874 321.73126Q36.58125 321.73126 37.065624 321.02814Q37.565624 320.325 37.565624 318.21564Q37.565624 316.09064 37.065624 315.40314Q36.58125 314.7 35.83125 314.7Q35.1125 314.7 34.675 315.3094Q34.128124 316.09064 34.128124 318.21564Z" fill-rule="nonzero"/><path fill="#000000" d="M30.01875 249.225L28.971874 249.225L28.971874 242.50626Q28.58125 242.86563 27.95625 243.24063Q27.346874 243.6 26.8625 243.77188L26.8625 242.75626Q27.7375 242.33438 28.39375 241.75626Q29.065624 241.1625 29.346874 240.6L30.01875 240.6L30.01875 249.225ZM33.05 244.99063Q33.05 243.45938 33.3625 242.5375Q33.675 241.6 34.284374 241.1Q34.909374 240.6 35.846874 240.6Q36.534374 240.6 37.05 240.88126Q37.58125 241.1625 37.925 241.69376Q38.26875 242.20938 38.45625 242.95938Q38.64375 243.70938 38.64375 244.99063Q38.64375 246.50626 38.33125 247.42813Q38.034374 248.35 37.409374 248.86563Q36.8 249.36563 35.846874 249.36563Q34.6125 249.36563 33.89375 248.475Q33.05 247.4125 33.05 244.99063ZM34.128124 244.99063Q34.128124 247.1 34.628124 247.80313Q35.128124 248.50626 35.846874 248.50626Q36.58125 248.50626 37.065624 247.80313Q37.565624 247.1 37.565624 244.99063Q37.565624 242.86563 37.065624 242.17813Q36.58125 241.475 35.83125 241.475Q35.1125 241.475 34.675 242.08438Q34.128124 242.86563 34.128124 244.99063Z" fill-rule="nonzero"/><path fill="#000000" d="M31.596874 174.98438L31.596874 176.0L25.909374 176.0Q25.909374 175.625 26.034374 175.26562Q26.253124 174.6875 26.721874 174.125Q27.20625 173.5625 28.1125 172.82812Q29.51875 171.67188 30.003124 171.0Q30.503124 170.32812 30.503124 169.73438Q30.503124 169.10938 30.05 168.6875Q29.596874 168.25 28.878124 168.25Q28.1125 168.25 27.659374 168.70312Q27.20625 169.15625 27.190624 169.96875L26.1125 169.85938Q26.221874 168.64062 26.940624 168.01562Q27.675 167.375 28.909374 167.375Q30.14375 167.375 30.8625 168.0625Q31.58125 168.75 31.58125 169.76562Q31.58125 170.28125 31.3625 170.78125Q31.159374 171.26562 30.659374 171.82812Q30.175 172.375 29.05 173.32812Q28.096874 174.125 27.815624 174.42188Q27.55 174.70312 27.378124 174.98438L31.596874 174.98438ZM33.05 171.76562Q33.05 170.23438 33.3625 169.3125Q33.675 168.375 34.284374 167.875Q34.909374 167.375 35.846874 167.375Q36.534374 167.375 37.05 167.65625Q37.58125 167.9375 37.925 168.46875Q38.26875 168.98438 38.45625 169.73438Q38.64375 170.48438 38.64375 171.76562Q38.64375 173.28125 38.33125 174.20312Q38.034374 175.125 37.409374 175.64062Q36.8 176.14062 35.846874 176.14062Q34.6125 176.14062 33.89375 175.25Q33.05 174.1875 33.05 171.76562ZM34.128124 171.76562Q34.128124 173.875 34.628124 174.57812Q35.128124 175.28125 35.846874 175.28125Q36.58125 175.28125 37.065624 174.57812Q37.565624 173.875 37.565624 171.76562Q37.565624 169.64062 37.065624 168.95312Q36.58125 168.25 35.83125 168.25Q35.1125 168.25 34.675 168.85938Q34.128124 169.64062 34.128124 171.76562Z" fill-rule="nonzero"/><path fill="#000000" d="M26.05 100.50938L27.1125 100.36875Q27.284374 101.25938 27.721874 101.66563Q28.159374 102.05625 28.784374 102.05625Q29.534374 102.05625 30.05 101.54063Q30.565624 101.025 30.565624 100.25938Q30.565624 99.54063 30.08125 99.07188Q29.6125 98.5875 28.878124 98.5875Q28.58125 98.5875 28.128124 98.7125L28.253124 97.775Q28.3625 97.79063 28.425 97.79063Q29.096874 97.79063 29.628124 97.44688Q30.175 97.0875 30.175 96.35313Q30.175 95.775 29.784374 95.4Q29.39375 95.00938 28.76875 95.00938Q28.159374 95.00938 27.7375 95.4Q27.33125 95.79063 27.221874 96.55625L26.159374 96.36875Q26.346874 95.32188 27.034374 94.74375Q27.721874 94.15 28.7375 94.15Q29.440624 94.15 30.034374 94.4625Q30.628124 94.75938 30.940624 95.275Q31.253124 95.79063 31.253124 96.38438Q31.253124 96.93125 30.95625 97.4Q30.659374 97.85313 30.08125 98.11875Q30.83125 98.29063 31.253124 98.85313Q31.675 99.4 31.675 100.24375Q31.675 101.36875 30.846874 102.15Q30.034374 102.93125 28.784374 102.93125Q27.659374 102.93125 26.909374 102.25938Q26.159374 101.57188 26.05 100.50938ZM33.05 98.54063Q33.05 97.00938 33.3625 96.0875Q33.675 95.15 34.284374 94.65Q34.909374 94.15 35.846874 94.15Q36.534374 94.15 37.05 94.43125Q37.58125 94.7125 37.925 95.24375Q38.26875 95.75938 38.45625 96.50938Q38.64375 97.25938 38.64375 98.54063Q38.64375 100.05625 38.33125 100.97813Q38.034374 101.9 37.409374 102.41563Q36.8 102.91563 35.846874 102.91563Q34.6125 102.91563 33.89375 102.025Q33.05 100.9625 33.05 98.54063ZM34.128124 98.54063Q34.128124 100.65 34.628124 101.35313Q35.128124 102.05625 35.846874 102.05625Q36.58125 102.05625 37.065624 101.35313Q37.565624 100.65 37.565624 98.54063Q37.565624 96.41563 37.065624 95.72813Q36.58125 95.025 35.83125 95.025Q35.1125 95.025 34.675 95.63438Q34.128124 96.41563 34.128124 98.54063Z" fill-rule="nonzero"/><path fill="#000000" d="M29.425 29.55L29.425 27.4875L25.70625 27.4875L25.70625 26.51875L29.628124 20.95625L30.4875 20.95625L30.4875 26.51875L31.64375 26.51875L31.64375 27.4875L30.4875 27.4875L30.4875 29.55L29.425 29.55ZM29.425 26.51875L29.425 22.659374L26.7375 26.51875L29.425 26.51875ZM33.05 25.315624Q33.05 23.784374 33.3625 22.8625Q33.675 21.925 34.284374 21.425Q34.909374 20.925 35.846874 20.925Q36.534374 20.925 37.05 21.20625Q37.58125 21.4875 37.925 22.01875Q38.26875 22.534374 38.45625 23.284374Q38.64375 24.034374 38.64375 25.315624Q38.64375 26.83125 38.33125 27.753124Q38.034374 28.675 37.409374 29.190624Q36.8 29.690624 35.846874 29.690624Q34.6125 29.690624 33.89375 28.8Q33.05 27.7375 33.05 25.315624ZM34.128124 25.315624Q34.128124 27.425 34.628124 28.128124Q35.128124 28.83125 35.846874 28.83125Q36.58125 28.83125 37.065624 28.128124Q37.565624 27.425 37.565624 25.315624Q37.565624 23.190624 37.065624 22.503124Q36.58125 21.8 35.83125 21.8Q35.1125 21.8 34.675 22.409374Q34.128124 23.190624 34.128124 25.315624Z" fill-rule="nonzero"/><path fill="#000000" d="M78.75377 332.6844L79.81627 332.59064Q79.894394 333.2469 80.175644 333.65314Q80.456894 334.0594 81.03502 334.325Q81.62877 334.575 82.363144 334.575Q83.00377 334.575 83.50377 334.3875Q84.00377 334.1844 84.238144 333.85626Q84.488144 333.5125 84.488144 333.1219Q84.488144 332.71564 84.25377 332.41876Q84.019394 332.10626 83.488144 331.90314Q83.12877 331.7625 81.94127 331.48126Q80.769394 331.2 80.300644 330.95Q79.675644 330.6219 79.37877 330.15314Q79.081894 329.66876 79.081894 329.075Q79.081894 328.4344 79.44127 327.8719Q79.81627 327.29376 80.519394 327.0125Q81.238144 326.71564 82.09752 326.71564Q83.050644 326.71564 83.78502 327.02814Q84.519394 327.325 84.91002 327.9344Q85.300644 328.52814 85.331894 329.27814L84.238144 329.35626Q84.144394 328.54376 83.62877 328.1375Q83.12877 327.71564 82.144394 327.71564Q81.113144 327.71564 80.644394 328.09064Q80.175644 328.46564 80.175644 328.9969Q80.175644 329.46564 80.50377 329.7625Q80.831894 330.0594 82.206894 330.3719Q83.59752 330.6844 84.113144 330.91876Q84.863144 331.27814 85.22252 331.8094Q85.581894 332.325 85.581894 333.02814Q85.581894 333.71564 85.19127 334.325Q84.800644 334.91876 84.06627 335.2625Q83.331894 335.59064 82.41002 335.59064Q81.238144 335.59064 80.44127 335.2625Q79.66002 334.91876 79.206894 334.23126Q78.769394 333.54376 78.75377 332.6844ZM86.613144 332.34064Q86.613144 330.60626 87.56627 329.77814Q88.363144 329.09064 89.519394 329.09064Q90.800644 329.09064 91.613144 329.9344Q92.44127 330.7625 92.44127 332.2469Q92.44127 333.45 92.081894 334.1375Q91.72252 334.825 91.019394 335.21564Q90.331894 335.59064 89.519394 335.59064Q88.22252 335.59064 87.41002 334.7625Q86.613144 333.91876 86.613144 332.34064ZM87.69127 332.34064Q87.69127 333.52814 88.206894 334.1219Q88.738144 334.71564 89.519394 334.71564Q90.31627 334.71564 90.831894 334.1219Q91.34752 333.52814 91.34752 332.3094Q91.34752 331.15314 90.81627 330.5594Q90.300644 329.96564 89.519394 329.96564Q88.738144 329.96564 88.206894 330.5594Q87.69127 331.1375 87.69127 332.34064ZM93.97252 335.45L93.97252 326.85626L95.03502 326.85626L95.03502 335.45L93.97252 335.45ZM96.613144 332.34064Q96.613144 330.60626 97.56627 329.77814Q98.363144 329.09064 99.519394 329.09064Q100.800644 329.09064 101.613144 329.9344Q102.44127 330.7625 102.44127 332.2469Q102.44127 333.45 102.081894 334.1375Q101.72252 334.825 101.019394 335.21564Q100.331894 335.59064 99.519394 335.59064Q98.22252 335.59064 97.41002 334.7625Q96.613144 333.91876 96.613144 332.34064ZM97.69127 332.34064Q97.69127 333.52814 98.206894 334.1219Q98.738144 334.71564 99.519394 334.71564Q100.31627 334.71564 100.831894 334.1219Q101.34752 333.52814 101.34752 332.3094Q101.34752 331.15314 100.81627 330.5594Q100.300644 329.96564 99.519394 329.96564Q98.738144 329.96564 98.206894 330.5594Q97.69127 331.1375 97.69127 332.34064ZM107.12877 335.45L107.12877 326.85626L110.09752 326.85626Q111.09752 326.85626 111.62877 326.98126Q112.363144 327.15314 112.87877 327.59064Q113.56627 328.16876 113.894394 329.075Q114.238144 329.96564 114.238144 331.10626Q114.238144 332.09064 114.00377 332.84064Q113.78502 333.59064 113.425644 334.09064Q113.06627 334.59064 112.62877 334.8719Q112.206894 335.15314 111.613144 335.3094Q111.019394 335.45 110.238144 335.45L107.12877 335.45ZM108.269394 334.4344L110.09752 334.4344Q110.956894 334.4344 111.44127 334.27814Q111.925644 334.1219 112.206894 333.825Q112.613144 333.4344 112.831894 332.7469Q113.06627 332.0594 113.06627 331.09064Q113.06627 329.7469 112.613144 329.02814Q112.175644 328.29376 111.550644 328.04376Q111.081894 327.8719 110.081894 327.8719L108.269394 327.8719L108.269394 334.4344ZM120.25377 333.45L121.34752 333.575Q121.09752 334.52814 120.394394 335.0594Q119.69127 335.59064 118.613144 335.59064Q117.25377 335.59064 116.44127 334.7469Q115.644394 333.90314 115.644394 332.3875Q115.644394 330.825 116.456894 329.96564Q117.269394 329.09064 118.550644 329.09064Q119.800644 329.09064 120.581894 329.9344Q121.37877 330.77814 121.37877 332.325Q121.37877 332.41876 121.37877 332.60626L116.738144 332.60626Q116.800644 333.6375 117.31627 334.1844Q117.831894 334.71564 118.613144 334.71564Q119.19127 334.71564 119.59752 334.41876Q120.019394 334.10626 120.25377 333.45ZM116.800644 331.7469L120.269394 331.7469Q120.206894 330.95 119.87877 330.5594Q119.363144 329.95 118.56627 329.95Q117.831894 329.95 117.331894 330.4344Q116.84752 330.91876 116.800644 331.7469ZM124.72252 335.45L122.363144 329.23126L123.47252 329.23126L124.81627 332.95Q125.019394 333.5594 125.206894 334.2Q125.34752 333.71564 125.59752 333.02814L126.988144 329.23126L128.06627 329.23126L125.706894 335.45L124.72252 335.45ZM132.25377 333.45L133.34752 333.575Q133.09752 334.52814 132.3944 335.0594Q131.69127 335.59064 130.61314 335.59064Q129.25377 335.59064 128.44127 334.7469Q127.644394 333.90314 127.644394 332.3875Q127.644394 330.825 128.4569 329.96564Q129.2694 329.09064 130.55064 329.09064Q131.80064 329.09064 132.5819 329.9344Q133.37877 330.77814 133.37877 332.325Q133.37877 332.41876 133.37877 332.60626L128.73814 332.60626Q128.80064 333.6375 129.31627 334.1844Q129.8319 334.71564 130.61314 334.71564Q131.19127 334.71564 131.59752 334.41876Q132.0194 334.10626 132.25377 333.45ZM128.80064 331.7469L132.2694 331.7469Q132.2069 330.95 131.87877 330.5594Q131.36314 329.95 130.56627 329.95Q129.8319 329.95 129.3319 330.4344Q128.84752 330.91876 128.80064 331.7469ZM134.97252 335.45L134.97252 326.85626L136.03502 326.85626L136.03502 335.45L134.97252 335.45ZM137.61314 332.34064Q137.61314 330.60626 138.56627 329.77814Q139.36314 329.09064 140.5194 329.09064Q141.80064 329.09064 142.61314 329.9344Q143.44127 330.7625 143.44127 332.2469Q143.44127 333.45 143.0819 334.1375Q142.72252 334.825 142.0194 335.21564Q141.3319 335.59064 140.5194 335.59064Q139.22252 335.59064 138.41002 334.7625Q137.61314 333.91876 137.61314 332.34064ZM138.69127 332.34064Q138.69127 333.52814 139.2069 334.1219Q139.73814 334.71564 140.5194 334.71564Q141.31627 334.71564 141.8319 334.1219Q142.34752 333.52814 142.34752 332.3094Q142.34752 331.15314 141.81627 330.5594Q141.30064 329.96564 140.5194 329.96564Q139.73814 329.96564 139.2069 330.5594Q138.69127 331.1375 138.69127 332.34064ZM145.00377 337.84064L145.00377 329.23126L145.9569 329.23126L145.9569 330.02814Q146.30064 329.5594 146.72252 329.325Q147.16002 329.09064 147.7694 329.09064Q148.56627 329.09064 149.17564 329.4969Q149.78502 329.90314 150.0819 330.65314Q150.3944 331.40314 150.3944 332.29376Q150.3944 333.2469 150.05064 334.0125Q149.72252 334.77814 149.06627 335.1844Q148.41002 335.59064 147.69127 335.59064Q147.16002 335.59064 146.73814 335.3719Q146.31627 335.1375 146.05064 334.8094L146.05064 337.84064L145.00377 337.84064ZM145.9569 332.3719Q145.9569 333.575 146.44127 334.15314Q146.92564 334.71564 147.61314 334.71564Q148.31627 334.71564 148.81627 334.1219Q149.31627 333.52814 149.31627 332.27814Q149.31627 331.09064 148.8319 330.5125Q148.34752 329.91876 147.66002 329.91876Q146.98814 329.91876 146.47252 330.54376Q145.9569 331.16876 145.9569 332.3719ZM156.25377 333.45L157.34752 333.575Q157.09752 334.52814 156.3944 335.0594Q155.69127 335.59064 154.61314 335.59064Q153.25377 335.59064 152.44127 334.7469Q151.6444 333.90314 151.6444 332.3875Q151.6444 330.825 152.4569 329.96564Q153.2694 329.09064 154.55064 329.09064Q155.80064 329.09064 156.5819 329.9344Q157.37877 330.77814 157.37877 332.325Q157.37877 332.41876 157.37877 332.60626L152.73814 332.60626Q152.80064 333.6375 153.31627 334.1844Q153.8319 334.71564 154.61314 334.71564Q155.19127 334.71564 155.59752 334.41876Q156.0194 334.10626 156.25377 333.45ZM152.80064 331.7469L156.2694 331.7469Q156.2069 330.95 155.87877 330.5594Q155.36314 329.95 154.56627 329.95Q153.8319 329.95 153.3319 330.4344Q152.84752 330.91876 152.80064 331.7469ZM158.98814 335.45L158.98814 329.23126L159.94127 329.23126L159.94127 330.16876Q160.30064 329.5125 160.59752 329.3094Q160.91002 329.09064 161.28502 329.09064Q161.81627 329.09064 162.36314 329.41876L162.00377 330.40314Q161.61314 330.16876 161.23814 330.16876Q160.87877 330.16876 160.59752 330.3875Q160.3319 330.59064 160.22252 330.96564Q160.03502 331.52814 160.03502 332.1844L160.03502 335.45L158.98814 335.45ZM165.61314 332.34064Q165.61314 330.60626 166.56627 329.77814Q167.36314 329.09064 168.5194 329.09064Q169.80064 329.09064 170.61314 329.9344Q171.44127 330.7625 171.44127 332.2469Q171.44127 333.45 171.0819 334.1375Q170.72252 334.825 170.0194 335.21564Q169.3319 335.59064 168.5194 335.59064Q167.22252 335.59064 166.41002 334.7625Q165.61314 333.91876 165.61314 332.34064ZM166.69127 332.34064Q166.69127 333.52814 167.2069 334.1219Q167.73814 334.71564 168.5194 334.71564Q169.31627 334.71564 169.8319 334.1219Q170.34752 333.52814 170.34752 332.3094Q170.34752 331.15314 169.81627 330.5594Q169.30064 329.96564 168.5194 329.96564Q167.73814 329.96564 167.2069 330.5594Q166.69127 331.1375 166.69127 332.34064ZM173.00377 335.45L173.00377 329.23126L173.94127 329.23126L173.94127 330.10626Q174.62877 329.09064 175.92564 329.09064Q176.48814 329.09064 176.9569 329.29376Q177.44127 329.4969 177.67564 329.825Q177.91002 330.15314 178.00377 330.59064Q178.05064 330.8875 178.05064 331.6219L178.05064 335.45L177.00377 335.45L177.00377 331.66876Q177.00377 331.0125 176.87877 330.7Q176.75377 330.3875 176.44127 330.2Q176.12877 329.9969 175.7069 329.9969Q175.03502 329.9969 174.53502 330.4344Q174.05064 330.85626 174.05064 332.04376L174.05064 335.45L173.00377 335.45Z" fill-rule="nonzero"/><path fill="#000000" d="M85.300644 348.5125L85.456894 349.4344Q85.00377 349.52814 84.66002 349.52814Q84.081894 349.52814 83.769394 349.35626Q83.456894 349.16876 83.31627 348.8719Q83.19127 348.575 83.19127 347.6219L83.19127 344.04376L82.425644 344.04376L82.425644 343.23126L83.19127 343.23126L83.19127 341.6844L84.238144 341.0594L84.238144 343.23126L85.300644 343.23126L85.300644 344.04376L84.238144 344.04376L84.238144 347.6844Q84.238144 348.1375 84.28502 348.2625Q84.34752 348.3875 84.47252 348.46564Q84.59752 348.54376 84.831894 348.54376Q85.019394 348.54376 85.300644 348.5125ZM86.00377 349.45L86.00377 340.85626L87.050644 340.85626L87.050644 343.9344Q87.78502 343.09064 88.91002 343.09064Q89.613144 343.09064 90.113144 343.3719Q90.62877 343.6375 90.84752 344.1219Q91.06627 344.59064 91.06627 345.5125L91.06627 349.45L90.019394 349.45L90.019394 345.5125Q90.019394 344.71564 89.675644 344.35626Q89.331894 343.9969 88.706894 343.9969Q88.238144 343.9969 87.81627 344.2469Q87.41002 344.48126 87.22252 344.90314Q87.050644 345.3094 87.050644 346.04376L87.050644 349.45L86.00377 349.45ZM97.25377 347.45L98.34752 347.575Q98.09752 348.52814 97.394394 349.0594Q96.69127 349.59064 95.613144 349.59064Q94.25377 349.59064 93.44127 348.7469Q92.644394 347.90314 92.644394 346.3875Q92.644394 344.825 93.456894 343.96564Q94.269394 343.09064 95.550644 343.09064Q96.800644 343.09064 97.581894 343.9344Q98.37877 344.77814 98.37877 346.325Q98.37877 346.41876 98.37877 346.60626L93.738144 346.60626Q93.800644 347.6375 94.31627 348.1844Q94.831894 348.71564 95.613144 348.71564Q96.19127 348.71564 96.59752 348.41876Q97.019394 348.10626 97.25377 347.45ZM93.800644 345.7469L97.269394 345.7469Q97.206894 344.95 96.87877 344.5594Q96.363144 343.95 95.56627 343.95Q94.831894 343.95 94.331894 344.4344Q93.84752 344.91876 93.800644 345.7469ZM104.144394 349.45L102.238144 343.23126L103.331894 343.23126L104.31627 346.825L104.69127 348.15314Q104.72252 348.0594 105.019394 346.8719L106.00377 343.23126L107.081894 343.23126L108.019394 346.84064L108.331894 348.02814L108.69127 346.825L109.75377 343.23126L110.78502 343.23126L108.831894 349.45L107.738144 349.45L106.75377 345.71564L106.50377 344.66876L105.25377 349.45L104.144394 349.45ZM112.00377 349.45L112.00377 340.85626L113.050644 340.85626L113.050644 343.9344Q113.78502 343.09064 114.91002 343.09064Q115.613144 343.09064 116.113144 343.3719Q116.62877 343.6375 116.84752 344.1219Q117.06627 344.59064 117.06627 345.5125L117.06627 349.45L116.019394 349.45L116.019394 345.5125Q116.019394 344.71564 115.675644 344.35626Q115.331894 343.9969 114.706894 343.9969Q114.238144 343.9969 113.81627 344.2469Q113.41002 344.48126 113.22252 344.90314Q113.050644 345.3094 113.050644 346.04376L113.050644 349.45L112.00377 349.45ZM118.613144 346.34064Q118.613144 344.60626 119.56627 343.77814Q120.363144 343.09064 121.519394 343.09064Q122.800644 343.09064 123.613144 343.9344Q124.44127 344.7625 124.44127 346.2469Q124.44127 347.45 124.081894 348.1375Q123.72252 348.825 123.019394 349.21564Q122.331894 349.59064 121.519394 349.59064Q120.22252 349.59064 119.41002 348.7625Q118.613144 347.91876 118.613144 346.34064ZM119.69127 346.34064Q119.69127 347.52814 120.206894 348.1219Q120.738144 348.71564 121.519394 348.71564Q122.31627 348.71564 122.831894 348.1219Q123.34752 347.52814 123.34752 346.3094Q123.34752 345.15314 122.81627 344.5594Q122.300644 343.96564 121.519394 343.96564Q120.738144 343.96564 120.206894 344.5594Q119.69127 345.1375 119.69127 346.34064ZM125.97252 349.45L125.97252 340.85626L127.03502 340.85626L127.03502 349.45L125.97252 349.45ZM133.25377 347.45L134.34752 347.575Q134.09752 348.52814 133.3944 349.0594Q132.69127 349.59064 131.61314 349.59064Q130.25377 349.59064 129.44127 348.7469Q128.6444 347.90314 128.6444 346.3875Q128.6444 344.825 129.4569 343.96564Q130.2694 343.09064 131.55064 343.09064Q132.80064 343.09064 133.5819 343.9344Q134.37877 344.77814 134.37877 346.325Q134.37877 346.41876 134.37877 346.60626L129.73814 346.60626Q129.80064 347.6375 130.31627 348.1844Q130.8319 348.71564 131.61314 348.71564Q132.19127 348.71564 132.59752 348.41876Q133.0194 348.10626 133.25377 347.45ZM129.80064 345.7469L133.2694 345.7469Q133.2069 344.95 132.87877 344.5594Q132.36314 343.95 131.56627 343.95Q130.8319 343.95 130.3319 344.4344Q129.84752 344.91876 129.80064 345.7469ZM139.00377 351.84064L139.00377 343.23126L139.9569 343.23126L139.9569 344.02814Q140.30064 343.5594 140.72252 343.325Q141.16002 343.09064 141.7694 343.09064Q142.56627 343.09064 143.17564 343.4969Q143.78502 343.90314 144.0819 344.65314Q144.3944 345.40314 144.3944 346.29376Q144.3944 347.2469 144.05064 348.0125Q143.72252 348.77814 143.06627 349.1844Q142.41002 349.59064 141.69127 349.59064Q141.16002 349.59064 140.73814 349.3719Q140.31627 349.1375 140.05064 348.8094L140.05064 351.84064L139.00377 351.84064ZM139.9569 346.3719Q139.9569 347.575 140.44127 348.15314Q140.92564 348.71564 141.61314 348.71564Q142.31627 348.71564 142.81627 348.1219Q143.31627 347.52814 143.31627 346.27814Q143.31627 345.09064 142.8319 344.5125Q142.34752 343.91876 141.66002 343.91876Q140.98814 343.91876 140.47252 344.54376Q139.9569 345.16876 139.9569 346.3719ZM145.98814 349.45L145.98814 343.23126L146.94127 343.23126L146.94127 344.16876Q147.30064 343.5125 147.59752 343.3094Q147.91002 343.09064 148.28502 343.09064Q148.81627 343.09064 149.36314 343.41876L149.00377 344.40314Q148.61314 344.16876 148.23814 344.16876Q147.87877 344.16876 147.59752 344.3875Q147.3319 344.59064 147.22252 344.96564Q147.03502 345.52814 147.03502 346.1844L147.03502 349.45L145.98814 349.45ZM149.61314 346.34064Q149.61314 344.60626 150.56627 343.77814Q151.36314 343.09064 152.5194 343.09064Q153.80064 343.09064 154.61314 343.9344Q155.44127 344.7625 155.44127 346.2469Q155.44127 347.45 155.0819 348.1375Q154.72252 348.825 154.0194 349.21564Q153.3319 349.59064 152.5194 349.59064Q151.22252 349.59064 150.41002 348.7625Q149.61314 347.91876 149.61314 346.34064ZM150.69127 346.34064Q150.69127 347.52814 151.2069 348.1219Q151.73814 348.71564 152.5194 348.71564Q153.31627 348.71564 153.8319 348.1219Q154.34752 347.52814 154.34752 346.3094Q154.34752 345.15314 153.81627 344.5594Q153.30064 343.96564 152.5194 343.96564Q151.73814 343.96564 151.2069 344.5594Q150.69127 345.1375 150.69127 346.34064ZM156.98814 342.09064L156.98814 340.85626L158.05064 340.85626L158.05064 342.09064L156.98814 342.09064ZM155.66002 351.8719L155.84752 350.96564Q156.17564 351.04376 156.34752 351.04376Q156.67564 351.04376 156.8319 350.825Q156.98814 350.6219 156.98814 349.7625L156.98814 343.23126L158.05064 343.23126L158.05064 349.79376Q158.05064 350.9344 157.75377 351.3875Q157.36314 351.98126 156.48814 351.98126Q156.05064 351.98126 155.66002 351.8719ZM164.25377 347.45L165.34752 347.575Q165.09752 348.52814 164.3944 349.0594Q163.69127 349.59064 162.61314 349.59064Q161.25377 349.59064 160.44127 348.7469Q159.6444 347.90314 159.6444 346.3875Q159.6444 344.825 160.4569 343.96564Q161.2694 343.09064 162.55064 343.09064Q163.80064 343.09064 164.5819 343.9344Q165.37877 344.77814 165.37877 346.325Q165.37877 346.41876 165.37877 346.60626L160.73814 346.60626Q160.80064 347.6375 161.31627 348.1844Q161.8319 348.71564 162.61314 348.71564Q163.19127 348.71564 163.59752 348.41876Q164.0194 348.10626 164.25377 347.45ZM160.80064 345.7469L164.2694 345.7469Q164.2069 344.95 163.87877 344.5594Q163.36314 343.95 162.56627 343.95Q161.8319 343.95 161.3319 344.4344Q160.84752 344.91876 160.80064 345.7469ZM171.06627 347.16876L172.09752 347.3094Q171.92564 348.3719 171.22252 348.98126Q170.5194 349.59064 169.50377 349.59064Q168.22252 349.59064 167.44127 348.7625Q166.67564 347.91876 166.67564 346.35626Q166.67564 345.35626 167.00377 344.60626Q167.34752 343.84064 168.0194 343.46564Q168.7069 343.09064 169.5194 343.09064Q170.5194 343.09064 171.16002 343.60626Q171.81627 344.10626 172.00377 345.0594L170.97252 345.21564Q170.8319 344.59064 170.4569 344.27814Q170.0819 343.95 169.55064 343.95Q168.75377 343.95 168.25377 344.52814Q167.75377 345.09064 167.75377 346.325Q167.75377 347.59064 168.23814 348.15314Q168.72252 348.71564 169.48814 348.71564Q170.11314 348.71564 170.5194 348.34064Q170.94127 347.96564 171.06627 347.16876ZM175.30064 348.5125L175.4569 349.4344Q175.00377 349.52814 174.66002 349.52814Q174.0819 349.52814 173.7694 349.35626Q173.4569 349.16876 173.31627 348.8719Q173.19127 348.575 173.19127 347.6219L173.19127 344.04376L172.42564 344.04376L172.42564 343.23126L173.19127 343.23126L173.19127 341.6844L174.23814 341.0594L174.23814 343.23126L175.30064 343.23126L175.30064 344.04376L174.23814 344.04376L174.23814 347.6844Q174.23814 348.1375 174.28502 348.2625Q174.34752 348.3875 174.47252 348.46564Q174.59752 348.54376 174.8319 348.54376Q175.0194 348.54376 175.30064 348.5125Z" fill-rule="nonzero"/><path fill="#000000" d="M193.94917 332.6844L195.01167 332.59064Q195.0898 333.2469 195.37105 333.65314Q195.6523 334.0594 196.23042 334.325Q196.82417 334.575 197.55855 334.575Q198.19917 334.575 198.69917 334.3875Q199.19917 334.1844 199.43355 333.85626Q199.68355 333.5125 199.68355 333.1219Q199.68355 332.71564 199.44917 332.41876Q199.2148 332.10626 198.68355 331.90314Q198.32417 331.7625 197.13667 331.48126Q195.9648 331.2 195.49605 330.95Q194.87105 330.6219 194.57417 330.15314Q194.2773 329.66876 194.2773 329.075Q194.2773 328.4344 194.63667 327.8719Q195.01167 327.29376 195.7148 327.0125Q196.43355 326.71564 197.29292 326.71564Q198.24605 326.71564 198.98042 327.02814Q199.7148 327.325 200.10542 327.9344Q200.49605 328.52814 200.5273 329.27814L199.43355 329.35626Q199.3398 328.54376 198.82417 328.1375Q198.32417 327.71564 197.3398 327.71564Q196.30855 327.71564 195.8398 328.09064Q195.37105 328.46564 195.37105 328.9969Q195.37105 329.46564 195.69917 329.7625Q196.0273 330.0594 197.4023 330.3719Q198.79292 330.6844 199.30855 330.91876Q200.05855 331.27814 200.41792 331.8094Q200.7773 332.325 200.7773 333.02814Q200.7773 333.71564 200.38667 334.325Q199.99605 334.91876 199.26167 335.2625Q198.5273 335.59064 197.60542 335.59064Q196.43355 335.59064 195.63667 335.2625Q194.85542 334.91876 194.4023 334.23126Q193.9648 333.54376 193.94917 332.6844ZM204.49605 334.5125L204.6523 335.4344Q204.19917 335.52814 203.85542 335.52814Q203.2773 335.52814 202.9648 335.35626Q202.6523 335.16876 202.51167 334.8719Q202.38667 334.575 202.38667 333.6219L202.38667 330.04376L201.62105 330.04376L201.62105 329.23126L202.38667 329.23126L202.38667 327.6844L203.43355 327.0594L203.43355 329.23126L204.49605 329.23126L204.49605 330.04376L203.43355 330.04376L203.43355 333.6844Q203.43355 334.1375 203.48042 334.2625Q203.54292 334.3875 203.66792 334.46564Q203.79292 334.54376 204.0273 334.54376Q204.2148 334.54376 204.49605 334.5125ZM209.26167 334.6844Q208.66792 335.1844 208.12105 335.3875Q207.5898 335.59064 206.9648 335.59064Q205.93355 335.59064 205.38667 335.09064Q204.8398 334.59064 204.8398 333.8094Q204.8398 333.35626 205.04292 332.98126Q205.24605 332.59064 205.5898 332.3719Q205.93355 332.1375 206.35542 332.02814Q206.6523 331.9344 207.29292 331.85626Q208.55855 331.71564 209.16792 331.4969Q209.16792 331.27814 209.16792 331.23126Q209.16792 330.575 208.87105 330.3094Q208.4648 329.96564 207.66792 329.96564Q206.93355 329.96564 206.57417 330.23126Q206.2148 330.48126 206.04292 331.1375L205.01167 330.9969Q205.1523 330.34064 205.48042 329.9344Q205.80855 329.52814 206.41792 329.3094Q207.0273 329.09064 207.82417 329.09064Q208.62105 329.09064 209.12105 329.27814Q209.62105 329.46564 209.85542 329.7469Q210.0898 330.02814 210.18355 330.46564Q210.23042 330.73126 210.23042 331.4344L210.23042 332.84064Q210.23042 334.3094 210.29292 334.7Q210.37105 335.09064 210.57417 335.45L209.4648 335.45Q209.30855 335.1219 209.26167 334.6844ZM209.16792 332.325Q208.5898 332.5594 207.44917 332.73126Q206.79292 332.825 206.5273 332.95Q206.26167 333.0594 206.10542 333.27814Q205.9648 333.4969 205.9648 333.77814Q205.9648 334.2 206.2773 334.48126Q206.60542 334.7625 207.2148 334.7625Q207.82417 334.7625 208.29292 334.4969Q208.7773 334.23126 208.99605 333.7625Q209.16792 333.40314 209.16792 332.71564L209.16792 332.325ZM212.44917 335.45L212.44917 330.04376L211.51167 330.04376L211.51167 329.23126L212.44917 329.23126L212.44917 328.5594Q212.44917 327.9344 212.55855 327.6375Q212.7148 327.21564 213.0898 326.96564Q213.48042 326.71564 214.16792 326.71564Q214.62105 326.71564 215.1523 326.825L214.99605 327.73126Q214.66792 327.6844 214.37105 327.6844Q213.88667 327.6844 213.68355 327.8875Q213.49605 328.09064 213.49605 328.65314L213.49605 329.23126L214.7148 329.23126L214.7148 330.04376L213.49605 330.04376L213.49605 335.45L212.44917 335.45ZM215.44917 335.45L215.44917 330.04376L214.51167 330.04376L214.51167 329.23126L215.44917 329.23126L215.44917 328.5594Q215.44917 327.9344 215.55855 327.6375Q215.7148 327.21564 216.0898 326.96564Q216.48042 326.71564 217.16792 326.71564Q217.62105 326.71564 218.1523 326.825L217.99605 327.73126Q217.66792 327.6844 217.37105 327.6844Q216.88667 327.6844 216.68355 327.8875Q216.49605 328.09064 216.49605 328.65314L216.49605 329.23126L217.7148 329.23126L217.7148 330.04376L216.49605 330.04376L216.49605 335.45L215.44917 335.45ZM220.38667 335.45L223.68355 326.85626L224.9023 326.85626L228.41792 335.45L227.13667 335.45L226.12105 332.84064L222.54292 332.84064L221.5898 335.45L220.38667 335.45ZM222.87105 331.91876L225.7773 331.91876L224.88667 329.54376Q224.4648 328.46564 224.2773 327.7625Q224.10542 328.59064 223.80855 329.40314L222.87105 331.91876ZM232.2773 335.45L232.2773 334.52814Q231.54292 335.59064 230.29292 335.59064Q229.74605 335.59064 229.26167 335.3875Q228.79292 335.16876 228.55855 334.85626Q228.32417 334.52814 228.23042 334.0594Q228.16792 333.7625 228.16792 333.075L228.16792 329.23126L229.23042 329.23126L229.23042 332.6844Q229.23042 333.4969 229.29292 333.79376Q229.38667 334.2 229.69917 334.45Q230.0273 334.6844 230.51167 334.6844Q230.98042 334.6844 231.38667 334.45Q231.80855 334.2 231.98042 333.77814Q232.16792 333.35626 232.16792 332.5594L232.16792 329.23126L233.2148 329.23126L233.2148 335.45L232.2773 335.45ZM234.99605 335.96564L236.0273 336.1219Q236.0898 336.59064 236.38667 336.8094Q236.7773 337.10626 237.44917 337.10626Q238.18355 337.10626 238.57417 336.8094Q238.98042 336.5125 239.12105 335.9969Q239.2148 335.66876 239.19917 334.6375Q238.51167 335.45 237.48042 335.45Q236.19917 335.45 235.49605 334.52814Q234.79292 333.59064 234.79292 332.3094Q234.79292 331.41876 235.10542 330.66876Q235.43355 329.90314 236.04292 329.4969Q236.6523 329.09064 237.48042 329.09064Q238.5898 329.09064 239.30855 329.98126L239.30855 329.23126L240.2773 329.23126L240.2773 334.60626Q240.2773 336.0594 239.98042 336.66876Q239.68355 337.27814 239.04292 337.6219Q238.4023 337.98126 237.4648 337.98126Q236.35542 337.98126 235.66792 337.48126Q234.98042 336.98126 234.99605 335.96564ZM235.87105 332.23126Q235.87105 333.45 236.35542 334.0125Q236.8398 334.575 237.57417 334.575Q238.30855 334.575 238.79292 334.0125Q239.29292 333.45 239.29292 332.2625Q239.29292 331.1219 238.7773 330.54376Q238.2773 329.96564 237.55855 329.96564Q236.85542 329.96564 236.35542 330.54376Q235.87105 331.10626 235.87105 332.23126ZM242.19917 335.45L242.19917 329.23126L243.13667 329.23126L243.13667 330.10626Q243.43355 329.6375 243.91792 329.3719Q244.4023 329.09064 245.0273 329.09064Q245.7148 329.09064 246.1523 329.3719Q246.60542 329.65314 246.7773 330.16876Q247.5273 329.09064 248.69917 329.09064Q249.63667 329.09064 250.12105 329.60626Q250.62105 330.10626 250.62105 331.1844L250.62105 335.45L249.57417 335.45L249.57417 331.52814Q249.57417 330.90314 249.4648 330.6219Q249.37105 330.34064 249.10542 330.16876Q248.8398 329.9969 248.4648 329.9969Q247.80855 329.9969 247.37105 330.4344Q246.94917 330.8719 246.94917 331.84064L246.94917 335.45L245.88667 335.45L245.88667 331.40314Q245.88667 330.7 245.62105 330.35626Q245.37105 329.9969 244.79292 329.9969Q244.3398 329.9969 243.9648 330.23126Q243.5898 330.46564 243.41792 330.91876Q243.24605 331.3719 243.24605 332.21564L243.24605 335.45L242.19917 335.45ZM257.44916 333.45L258.5429 333.575Q258.2929 334.52814 257.58978 335.0594Q256.88666 335.59064 255.80855 335.59064Q254.44917 335.59064 253.63667 334.7469Q252.8398 333.90314 252.8398 332.3875Q252.8398 330.825 253.6523 329.96564Q254.4648 329.09064 255.74605 329.09064Q256.99603 329.09064 257.77728 329.9344Q258.57416 330.77814 258.57416 332.325Q258.57416 332.41876 258.57416 332.60626L253.93355 332.60626Q253.99605 333.6375 254.51167 334.1844Q255.0273 334.71564 255.80855 334.71564Q256.38666 334.71564 256.7929 334.41876Q257.21478 334.10626 257.44916 333.45ZM253.99605 331.7469L257.46478 331.7469Q257.40228 330.95 257.07416 330.5594Q256.55853 329.95 255.76167 329.95Q255.0273 329.95 254.5273 330.4344Q254.04292 330.91876 253.99605 331.7469ZM260.19916 335.45L260.19916 329.23126L261.13666 329.23126L261.13666 330.10626Q261.82416 329.09064 263.12103 329.09064Q263.68353 329.09064 264.15228 329.29376Q264.63666 329.4969 264.87103 329.825Q265.1054 330.15314 265.19916 330.59064Q265.24603 330.8875 265.24603 331.6219L265.24603 335.45L264.19916 335.45L264.19916 331.66876Q264.19916 331.0125 264.07416 330.7Q263.94916 330.3875 263.63666 330.2Q263.32416 329.9969 262.90228 329.9969Q262.2304 329.9969 261.7304 330.4344Q261.24603 330.85626 261.24603 332.04376L261.24603 335.45L260.19916 335.45ZM269.49603 334.5125L269.65228 335.4344Q269.19916 335.52814 268.8554 335.52814Q268.27728 335.52814 267.96478 335.35626Q267.65228 335.16876 267.51166 334.8719Q267.38666 334.575 267.38666 333.6219L267.38666 330.04376L266.62103 330.04376L266.62103 329.23126L267.38666 329.23126L267.38666 327.6844L268.43353 327.0594L268.43353 329.23126L269.49603 329.23126L269.49603 330.04376L268.43353 330.04376L268.43353 333.6844Q268.43353 334.1375 268.4804 334.2625Q268.5429 334.3875 268.6679 334.46564Q268.7929 334.54376 269.02728 334.54376Q269.21478 334.54376 269.49603 334.5125ZM274.26166 334.6844Q273.6679 335.1844 273.12103 335.3875Q272.58978 335.59064 271.96478 335.59064Q270.93353 335.59064 270.38666 335.09064Q269.83978 334.59064 269.83978 333.8094Q269.83978 333.35626 270.0429 332.98126Q270.24603 332.59064 270.58978 332.3719Q270.93353 332.1375 271.3554 332.02814Q271.65228 331.9344 272.2929 331.85626Q273.55853 331.71564 274.1679 331.4969Q274.1679 331.27814 274.1679 331.23126Q274.1679 330.575 273.87103 330.3094Q273.46478 329.96564 272.6679 329.96564Q271.93353 329.96564 271.57416 330.23126Q271.21478 330.48126 271.0429 331.1375L270.01166 330.9969Q270.15228 330.34064 270.4804 329.9344Q270.80853 329.52814 271.4179 329.3094Q272.02728 329.09064 272.82416 329.09064Q273.62103 329.09064 274.12103 329.27814Q274.62103 329.46564 274.8554 329.7469Q275.08978 330.02814 275.18353 330.46564Q275.2304 330.73126 275.2304 331.4344L275.2304 332.84064Q275.2304 334.3094 275.2929 334.7Q275.37103 335.09064 275.57416 335.45L274.46478 335.45Q274.30853 335.1219 274.26166 334.6844ZM274.1679 332.325Q273.58978 332.5594 272.44916 332.73126Q271.7929 332.825 271.52728 332.95Q271.26166 333.0594 271.1054 333.27814Q270.96478 333.4969 270.96478 333.77814Q270.96478 334.2 271.27728 334.48126Q271.6054 334.7625 272.21478 334.7625Q272.82416 334.7625 273.2929 334.4969Q273.77728 334.23126 273.99603 333.7625Q274.1679 333.40314 274.1679 332.71564L274.1679 332.325ZM279.49603 334.5125L279.65228 335.4344Q279.19916 335.52814 278.8554 335.52814Q278.27728 335.52814 277.96478 335.35626Q277.65228 335.16876 277.51166 334.8719Q277.38666 334.575 277.38666 333.6219L277.38666 330.04376L276.62103 330.04376L276.62103 329.23126L277.38666 329.23126L277.38666 327.6844L278.43353 327.0594L278.43353 329.23126L279.49603 329.23126L279.49603 330.04376L278.43353 330.04376L278.43353 333.6844Q278.43353 334.1375 278.4804 334.2625Q278.5429 334.3875 278.6679 334.46564Q278.7929 334.54376 279.02728 334.54376Q279.21478 334.54376 279.49603 334.5125ZM280.19916 328.075L280.19916 326.85626L281.26166 326.85626L281.26166 328.075L280.19916 328.075ZM280.19916 335.45L280.19916 329.23126L281.26166 329.23126L281.26166 335.45L280.19916 335.45ZM282.80853 332.34064Q282.80853 330.60626 283.76166 329.77814Q284.55853 329.09064 285.71478 329.09064Q286.99603 329.09064 287.80853 329.9344Q288.63666 330.7625 288.63666 332.2469Q288.63666 333.45 288.27728 334.1375Q287.9179 334.825 287.21478 335.21564Q286.52728 335.59064 285.71478 335.59064Q284.4179 335.59064 283.6054 334.7625Q282.80853 333.91876 282.80853 332.34064ZM283.88666 332.34064Q283.88666 333.52814 284.40228 334.1219Q284.93353 334.71564 285.71478 334.71564Q286.51166 334.71564 287.02728 334.1219Q287.5429 333.52814 287.5429 332.3094Q287.5429 331.15314 287.01166 330.5594Q286.49603 329.96564 285.71478 329.96564Q284.93353 329.96564 284.40228 330.5594Q283.88666 331.1375 283.88666 332.34064ZM290.19916 335.45L290.19916 329.23126L291.13666 329.23126L291.13666 330.10626Q291.82416 329.09064 293.12103 329.09064Q293.68353 329.09064 294.15228 329.29376Q294.63666 329.4969 294.87103 329.825Q295.1054 330.15314 295.19916 330.59064Q295.24603 330.8875 295.24603 331.6219L295.24603 335.45L294.19916 335.45L294.19916 331.66876Q294.19916 331.0125 294.07416 330.7Q293.94916 330.3875 293.63666 330.2Q293.32416 329.9969 292.90228 329.9969Q292.2304 329.9969 291.7304 330.4344Q291.24603 330.85626 291.24603 332.04376L291.24603 335.45L290.19916 335.45ZM299.80853 332.34064Q299.80853 330.60626 300.76166 329.77814Q301.55853 329.09064 302.71478 329.09064Q303.99603 329.09064 304.80853 329.9344Q305.63666 330.7625 305.63666 332.2469Q305.63666 333.45 305.27728 334.1375Q304.9179 334.825 304.21478 335.21564Q303.52728 335.59064 302.71478 335.59064Q301.4179 335.59064 300.6054 334.7625Q299.80853 333.91876 299.80853 332.34064ZM300.88666 332.34064Q300.88666 333.52814 301.40228 334.1219Q301.93353 334.71564 302.71478 334.71564Q303.51166 334.71564 304.02728 334.1219Q304.5429 333.52814 304.5429 332.3094Q304.5429 331.15314 304.01166 330.5594Q303.49603 329.96564 302.71478 329.96564Q301.93353 329.96564 301.40228 330.5594Q300.88666 331.1375 300.88666 332.34064ZM307.18353 335.45L307.18353 329.23126L308.13666 329.23126L308.13666 330.16876Q308.49603 329.5125 308.7929 329.3094Q309.1054 329.09064 309.4804 329.09064Q310.01166 329.09064 310.55853 329.41876L310.19916 330.40314Q309.80853 330.16876 309.43353 330.16876Q309.07416 330.16876 308.7929 330.3875Q308.52728 330.59064 308.4179 330.96564Q308.2304 331.52814 308.2304 332.1844L308.2304 335.45L307.18353 335.45Z" fill-rule="nonzero"/><path fill="#000000" d="M195.0273 349.45L195.0273 340.85626L196.1523 340.85626L196.1523 349.45L195.0273 349.45ZM197.69917 349.45L197.69917 343.23126L198.63667 343.23126L198.63667 344.10626Q199.32417 343.09064 200.62105 343.09064Q201.18355 343.09064 201.6523 343.29376Q202.13667 343.4969 202.37105 343.825Q202.60542 344.15314 202.69917 344.59064Q202.74605 344.8875 202.74605 345.6219L202.74605 349.45L201.69917 349.45L201.69917 345.66876Q201.69917 345.0125 201.57417 344.7Q201.44917 344.3875 201.13667 344.2Q200.82417 343.9969 200.4023 343.9969Q199.73042 343.9969 199.23042 344.4344Q198.74605 344.85626 198.74605 346.04376L198.74605 349.45L197.69917 349.45ZM208.73042 349.45L208.73042 348.66876Q208.13667 349.59064 206.99605 349.59064Q206.24605 349.59064 205.62105 349.1844Q204.99605 348.7625 204.6523 348.02814Q204.30855 347.29376 204.30855 346.34064Q204.30855 345.41876 204.62105 344.65314Q204.93355 343.8875 205.55855 343.4969Q206.18355 343.09064 206.94917 343.09064Q207.51167 343.09064 207.94917 343.325Q208.38667 343.5594 208.66792 343.9344L208.66792 340.85626L209.7148 340.85626L209.7148 349.45L208.73042 349.45ZM205.4023 346.34064Q205.4023 347.54376 205.9023 348.1375Q206.4023 348.71564 207.0898 348.71564Q207.7773 348.71564 208.26167 348.15314Q208.74605 347.59064 208.74605 346.4344Q208.74605 345.15314 208.24605 344.5594Q207.76167 343.96564 207.04292 343.96564Q206.3398 343.96564 205.87105 344.54376Q205.4023 345.10626 205.4023 346.34064ZM211.69917 342.075L211.69917 340.85626L212.76167 340.85626L212.76167 342.075L211.69917 342.075ZM211.69917 349.45L211.69917 343.23126L212.76167 343.23126L212.76167 349.45L211.69917 349.45ZM216.41792 349.45L214.05855 343.23126L215.16792 343.23126L216.51167 346.95Q216.7148 347.5594 216.9023 348.2Q217.04292 347.71564 217.29292 347.02814L218.68355 343.23126L219.76167 343.23126L217.4023 349.45L216.41792 349.45ZM219.69917 342.075L219.69917 340.85626L220.76167 340.85626L220.76167 342.075L219.69917 342.075ZM219.69917 349.45L219.69917 343.23126L220.76167 343.23126L220.76167 349.45L219.69917 349.45ZM226.73042 349.45L226.73042 348.66876Q226.13667 349.59064 224.99605 349.59064Q224.24605 349.59064 223.62105 349.1844Q222.99605 348.7625 222.6523 348.02814Q222.30855 347.29376 222.30855 346.34064Q222.30855 345.41876 222.62105 344.65314Q222.93355 343.8875 223.55855 343.4969Q224.18355 343.09064 224.94917 343.09064Q225.51167 343.09064 225.94917 343.325Q226.38667 343.5594 226.66792 343.9344L226.66792 340.85626L227.7148 340.85626L227.7148 349.45L226.73042 349.45ZM223.4023 346.34064Q223.4023 347.54376 223.9023 348.1375Q224.4023 348.71564 225.0898 348.71564Q225.7773 348.71564 226.26167 348.15314Q226.74605 347.59064 226.74605 346.4344Q226.74605 345.15314 226.24605 344.5594Q225.76167 343.96564 225.04292 343.96564Q224.3398 343.96564 223.87105 344.54376Q223.4023 345.10626 223.4023 346.34064ZM233.7773 349.45L233.7773 348.52814Q233.04292 349.59064 231.79292 349.59064Q231.24605 349.59064 230.76167 349.3875Q230.29292 349.16876 230.05855 348.85626Q229.82417 348.52814 229.73042 348.0594Q229.66792 347.7625 229.66792 347.075L229.66792 343.23126L230.73042 343.23126L230.73042 346.6844Q230.73042 347.4969 230.79292 347.79376Q230.88667 348.2 231.19917 348.45Q231.5273 348.6844 232.01167 348.6844Q232.48042 348.6844 232.88667 348.45Q233.30855 348.2 233.48042 347.77814Q233.66792 347.35626 233.66792 346.5594L233.66792 343.23126L234.7148 343.23126L234.7148 349.45L233.7773 349.45ZM240.76167 348.6844Q240.16792 349.1844 239.62105 349.3875Q239.0898 349.59064 238.4648 349.59064Q237.43355 349.59064 236.88667 349.09064Q236.3398 348.59064 236.3398 347.8094Q236.3398 347.35626 236.54292 346.98126Q236.74605 346.59064 237.0898 346.3719Q237.43355 346.1375 237.85542 346.02814Q238.1523 345.9344 238.79292 345.85626Q240.05855 345.71564 240.66792 345.4969Q240.66792 345.27814 240.66792 345.23126Q240.66792 344.575 240.37105 344.3094Q239.9648 343.96564 239.16792 343.96564Q238.43355 343.96564 238.07417 344.23126Q237.7148 344.48126 237.54292 345.1375L236.51167 344.9969Q236.6523 344.34064 236.98042 343.9344Q237.30855 343.52814 237.91792 343.3094Q238.5273 343.09064 239.32417 343.09064Q240.12105 343.09064 240.62105 343.27814Q241.12105 343.46564 241.35542 343.7469Q241.5898 344.02814 241.68355 344.46564Q241.73042 344.73126 241.73042 345.4344L241.73042 346.84064Q241.73042 348.3094 241.79292 348.7Q241.87105 349.09064 242.07417 349.45L240.9648 349.45Q240.80855 349.1219 240.76167 348.6844ZM240.66792 346.325Q240.0898 346.5594 238.94917 346.73126Q238.29292 346.825 238.0273 346.95Q237.76167 347.0594 237.60542 347.27814Q237.4648 347.4969 237.4648 347.77814Q237.4648 348.2 237.7773 348.48126Q238.10542 348.7625 238.7148 348.7625Q239.32417 348.7625 239.79292 348.4969Q240.2773 348.23126 240.49605 347.7625Q240.66792 347.40314 240.66792 346.71564L240.66792 346.325ZM243.66792 349.45L243.66792 340.85626L244.73042 340.85626L244.73042 349.45L243.66792 349.45ZM255.9648 346.4344L257.08978 346.73126Q256.7304 348.1219 255.80855 348.85626Q254.88667 349.59064 253.54292 349.59064Q252.1523 349.59064 251.2773 349.02814Q250.4023 348.46564 249.94917 347.40314Q249.49605 346.325 249.49605 345.09064Q249.49605 343.7469 250.01167 342.7469Q250.5273 341.7469 251.4648 341.23126Q252.41792 340.71564 253.55855 340.71564Q254.8398 340.71564 255.7148 341.3719Q256.6054 342.02814 256.94916 343.21564L255.82417 343.48126Q255.5273 342.54376 254.94917 342.1219Q254.38667 341.6844 253.5273 341.6844Q252.54292 341.6844 251.87105 342.16876Q251.2148 342.6375 250.93355 343.4344Q250.66792 344.23126 250.66792 345.09064Q250.66792 346.1844 250.98042 346.9969Q251.30855 347.8094 251.98042 348.21564Q252.6523 348.6219 253.44917 348.6219Q254.4023 348.6219 255.05855 348.075Q255.73042 347.52814 255.9648 346.4344ZM258.30853 346.34064Q258.30853 344.60626 259.26166 343.77814Q260.05853 343.09064 261.21478 343.09064Q262.49603 343.09064 263.30853 343.9344Q264.13666 344.7625 264.13666 346.2469Q264.13666 347.45 263.77728 348.1375Q263.4179 348.825 262.71478 349.21564Q262.02728 349.59064 261.21478 349.59064Q259.9179 349.59064 259.1054 348.7625Q258.30853 347.91876 258.30853 346.34064ZM259.38666 346.34064Q259.38666 347.52814 259.90228 348.1219Q260.43353 348.71564 261.21478 348.71564Q262.01166 348.71564 262.52728 348.1219Q263.0429 347.52814 263.0429 346.3094Q263.0429 345.15314 262.51166 344.5594Q261.99603 343.96564 261.21478 343.96564Q260.43353 343.96564 259.90228 344.5594Q259.38666 345.1375 259.38666 346.34064ZM265.69916 349.45L265.69916 343.23126L266.63666 343.23126L266.63666 344.10626Q267.32416 343.09064 268.62103 343.09064Q269.18353 343.09064 269.65228 343.29376Q270.13666 343.4969 270.37103 343.825Q270.6054 344.15314 270.69916 344.59064Q270.74603 344.8875 270.74603 345.6219L270.74603 349.45L269.69916 349.45L269.69916 345.66876Q269.69916 345.0125 269.57416 344.7Q269.44916 344.3875 269.13666 344.2Q268.82416 343.9969 268.40228 343.9969Q267.7304 343.9969 267.2304 344.4344Q266.74603 344.85626 266.74603 346.04376L266.74603 349.45L265.69916 349.45ZM274.99603 348.5125L275.15228 349.4344Q274.69916 349.52814 274.3554 349.52814Q273.77728 349.52814 273.46478 349.35626Q273.15228 349.16876 273.01166 348.8719Q272.88666 348.575 272.88666 347.6219L272.88666 344.04376L272.12103 344.04376L272.12103 343.23126L272.88666 343.23126L272.88666 341.6844L273.93353 341.0594L273.93353 343.23126L274.99603 343.23126L274.99603 344.04376L273.93353 344.04376L273.93353 347.6844Q273.93353 348.1375 273.9804 348.2625Q274.0429 348.3875 274.1679 348.46564Q274.2929 348.54376 274.52728 348.54376Q274.71478 348.54376 274.99603 348.5125ZM275.68353 349.45L275.68353 343.23126L276.63666 343.23126L276.63666 344.16876Q276.99603 343.5125 277.2929 343.3094Q277.6054 343.09064 277.9804 343.09064Q278.51166 343.09064 279.05853 343.41876L278.69916 344.40314Q278.30853 344.16876 277.93353 344.16876Q277.57416 344.16876 277.2929 344.3875Q277.02728 344.59064 276.9179 344.96564Q276.7304 345.52814 276.7304 346.1844L276.7304 349.45L275.68353 349.45ZM279.69916 342.075L279.69916 340.85626L280.76166 340.85626L280.76166 342.075L279.69916 342.075ZM279.69916 349.45L279.69916 343.23126L280.76166 343.23126L280.76166 349.45L279.69916 349.45ZM283.6679 349.45L282.68353 349.45L282.68353 340.85626L283.74603 340.85626L283.74603 343.91876Q284.4179 343.09064 285.44916 343.09064Q286.02728 343.09064 286.52728 343.325Q287.0429 343.54376 287.37103 343.96564Q287.71478 344.3875 287.90228 344.98126Q288.08978 345.575 288.08978 346.2469Q288.08978 347.84064 287.2929 348.71564Q286.49603 349.59064 285.40228 349.59064Q284.2929 349.59064 283.6679 348.66876L283.6679 349.45ZM283.65228 346.29376Q283.65228 347.40314 283.96478 347.90314Q284.46478 348.71564 285.30853 348.71564Q285.99603 348.71564 286.49603 348.1219Q287.01166 347.52814 287.01166 346.325Q287.01166 345.10626 286.52728 344.52814Q286.0429 343.95 285.3554 343.95Q284.6679 343.95 284.15228 344.5594Q283.65228 345.15314 283.65228 346.29376ZM293.77728 349.45L293.77728 348.52814Q293.0429 349.59064 291.7929 349.59064Q291.24603 349.59064 290.76166 349.3875Q290.2929 349.16876 290.05853 348.85626Q289.82416 348.52814 289.7304 348.0594Q289.6679 347.7625 289.6679 347.075L289.6679 343.23126L290.7304 343.23126L290.7304 346.6844Q290.7304 347.4969 290.7929 347.79376Q290.88666 348.2 291.19916 348.45Q291.52728 348.6844 292.01166 348.6844Q292.4804 348.6844 292.88666 348.45Q293.30853 348.2 293.4804 347.77814Q293.6679 347.35626 293.6679 346.5594L293.6679 343.23126L294.71478 343.23126L294.71478 349.45L293.77728 349.45ZM298.99603 348.5125L299.15228 349.4344Q298.69916 349.52814 298.3554 349.52814Q297.77728 349.52814 297.46478 349.35626Q297.15228 349.16876 297.01166 348.8719Q296.88666 348.575 296.88666 347.6219L296.88666 344.04376L296.12103 344.04376L296.12103 343.23126L296.88666 343.23126L296.88666 341.6844L297.93353 341.0594L297.93353 343.23126L298.99603 343.23126L298.99603 344.04376L297.93353 344.04376L297.93353 347.6844Q297.93353 348.1375 297.9804 348.2625Q298.0429 348.3875 298.1679 348.46564Q298.2929 348.54376 298.52728 348.54376Q298.71478 348.54376 298.99603 348.5125ZM299.30853 346.34064Q299.30853 344.60626 300.26166 343.77814Q301.05853 343.09064 302.21478 343.09064Q303.49603 343.09064 304.30853 343.9344Q305.13666 344.7625 305.13666 346.2469Q305.13666 347.45 304.77728 348.1375Q304.4179 348.825 303.71478 349.21564Q303.02728 349.59064 302.21478 349.59064Q300.9179 349.59064 300.1054 348.7625Q299.30853 347.91876 299.30853 346.34064ZM300.38666 346.34064Q300.38666 347.52814 300.90228 348.1219Q301.43353 348.71564 302.21478 348.71564Q303.01166 348.71564 303.52728 348.1219Q304.0429 347.52814 304.0429 346.3094Q304.0429 345.15314 303.51166 344.5594Q302.99603 343.96564 302.21478 343.96564Q301.43353 343.96564 300.90228 344.5594Q300.38666 345.1375 300.38666 346.34064ZM306.68353 349.45L306.68353 343.23126L307.63666 343.23126L307.63666 344.16876Q307.99603 343.5125 308.2929 343.3094Q308.6054 343.09064 308.9804 343.09064Q309.51166 343.09064 310.05853 343.41876L309.69916 344.40314Q309.30853 344.16876 308.93353 344.16876Q308.57416 344.16876 308.2929 344.3875Q308.02728 344.59064 307.9179 344.96564Q307.7304 345.52814 307.7304 346.1844L307.7304 349.45L306.68353 349.45Z" fill-rule="nonzero"/><path fill="#000000" d="M349.20706 335.45L349.20706 327.8719L346.37894 327.8719L346.37894 326.85626L353.19144 326.85626L353.19144 327.8719L350.3477 327.8719L350.3477 335.45L349.20706 335.45ZM358.14456 333.45L359.2383 333.575Q358.9883 334.52814 358.2852 335.0594Q357.58206 335.59064 356.50394 335.59064Q355.14456 335.59064 354.33206 334.7469Q353.5352 333.90314 353.5352 332.3875Q353.5352 330.825 354.3477 329.96564Q355.1602 329.09064 356.44144 329.09064Q357.69144 329.09064 358.4727 329.9344Q359.26956 330.77814 359.26956 332.325Q359.26956 332.41876 359.26956 332.60626L354.62894 332.60626Q354.69144 333.6375 355.20706 334.1844Q355.7227 334.71564 356.50394 334.71564Q357.08206 334.71564 357.4883 334.41876Q357.9102 334.10626 358.14456 333.45ZM354.69144 331.7469L358.1602 331.7469Q358.0977 330.95 357.76956 330.5594Q357.25394 329.95 356.45706 329.95Q355.7227 329.95 355.2227 330.4344Q354.7383 330.91876 354.69144 331.7469ZM364.95706 333.16876L365.9883 333.3094Q365.81644 334.3719 365.1133 334.98126Q364.4102 335.59064 363.39456 335.59064Q362.1133 335.59064 361.33206 334.7625Q360.56644 333.91876 360.56644 332.35626Q360.56644 331.35626 360.89456 330.60626Q361.2383 329.84064 361.9102 329.46564Q362.5977 329.09064 363.4102 329.09064Q364.4102 329.09064 365.0508 329.60626Q365.70706 330.10626 365.89456 331.0594L364.8633 331.21564Q364.7227 330.59064 364.3477 330.27814Q363.9727 329.95 363.44144 329.95Q362.64456 329.95 362.14456 330.52814Q361.64456 331.09064 361.64456 332.325Q361.64456 333.59064 362.12894 334.15314Q362.6133 334.71564 363.37894 334.71564Q364.00394 334.71564 364.4102 334.34064Q364.83206 333.96564 364.95706 333.16876ZM366.89456 335.45L366.89456 326.85626L367.94144 326.85626L367.94144 329.9344Q368.6758 329.09064 369.8008 329.09064Q370.50394 329.09064 371.00394 329.3719Q371.51956 329.6375 371.7383 330.1219Q371.95706 330.59064 371.95706 331.5125L371.95706 335.45L370.9102 335.45L370.9102 331.5125Q370.9102 330.71564 370.56644 330.35626Q370.2227 329.9969 369.5977 329.9969Q369.12894 329.9969 368.70706 330.2469Q368.3008 330.48126 368.1133 330.90314Q367.94144 331.3094 367.94144 332.04376L367.94144 335.45L366.89456 335.45ZM376.9727 335.45L376.9727 326.85626L378.1133 326.85626L378.1133 334.4344L382.3477 334.4344L382.3477 335.45L376.9727 335.45ZM388.14456 333.45L389.2383 333.575Q388.9883 334.52814 388.2852 335.0594Q387.58206 335.59064 386.50394 335.59064Q385.14456 335.59064 384.33206 334.7469Q383.5352 333.90314 383.5352 332.3875Q383.5352 330.825 384.3477 329.96564Q385.1602 329.09064 386.44144 329.09064Q387.69144 329.09064 388.4727 329.9344Q389.26956 330.77814 389.26956 332.325Q389.26956 332.41876 389.26956 332.60626L384.62894 332.60626Q384.69144 333.6375 385.20706 334.1844Q385.7227 334.71564 386.50394 334.71564Q387.08206 334.71564 387.4883 334.41876Q387.9102 334.10626 388.14456 333.45ZM384.69144 331.7469L388.1602 331.7469Q388.0977 330.95 387.76956 330.5594Q387.25394 329.95 386.45706 329.95Q385.7227 329.95 385.2227 330.4344Q384.7383 330.91876 384.69144 331.7469ZM394.95706 334.6844Q394.3633 335.1844 393.81644 335.3875Q393.2852 335.59064 392.6602 335.59064Q391.62894 335.59064 391.08206 335.09064Q390.5352 334.59064 390.5352 333.8094Q390.5352 333.35626 390.7383 332.98126Q390.94144 332.59064 391.2852 332.3719Q391.62894 332.1375 392.0508 332.02814Q392.3477 331.9344 392.9883 331.85626Q394.25394 331.71564 394.8633 331.4969Q394.8633 331.27814 394.8633 331.23126Q394.8633 330.575 394.56644 330.3094Q394.1602 329.96564 393.3633 329.96564Q392.62894 329.96564 392.26956 330.23126Q391.9102 330.48126 391.7383 331.1375L390.70706 330.9969Q390.8477 330.34064 391.1758 329.9344Q391.50394 329.52814 392.1133 329.3094Q392.7227 329.09064 393.51956 329.09064Q394.31644 329.09064 394.81644 329.27814Q395.31644 329.46564 395.5508 329.7469Q395.7852 330.02814 395.87894 330.46564Q395.9258 330.73126 395.9258 331.4344L395.9258 332.84064Q395.9258 334.3094 395.9883 334.7Q396.06644 335.09064 396.26956 335.45L395.1602 335.45Q395.00394 335.1219 394.95706 334.6844ZM394.8633 332.325Q394.2852 332.5594 393.14456 332.73126Q392.4883 332.825 392.2227 332.95Q391.95706 333.0594 391.8008 333.27814Q391.6602 333.4969 391.6602 333.77814Q391.6602 334.2 391.9727 334.48126Q392.3008 334.7625 392.9102 334.7625Q393.51956 334.7625 393.9883 334.4969Q394.4727 334.23126 394.69144 333.7625Q394.8633 333.40314 394.8633 332.71564L394.8633 332.325ZM401.9258 335.45L401.9258 334.66876Q401.33206 335.59064 400.19144 335.59064Q399.44144 335.59064 398.81644 335.1844Q398.19144 334.7625 397.8477 334.02814Q397.50394 333.29376 397.50394 332.34064Q397.50394 331.41876 397.81644 330.65314Q398.12894 329.8875 398.75394 329.4969Q399.37894 329.09064 400.14456 329.09064Q400.70706 329.09064 401.14456 329.325Q401.58206 329.5594 401.8633 329.9344L401.8633 326.85626L402.9102 326.85626L402.9102 335.45L401.9258 335.45ZM398.5977 332.34064Q398.5977 333.54376 399.0977 334.1375Q399.5977 334.71564 400.2852 334.71564Q400.9727 334.71564 401.45706 334.15314Q401.94144 333.59064 401.94144 332.4344Q401.94144 331.15314 401.44144 330.5594Q400.95706 329.96564 400.2383 329.96564Q399.5352 329.96564 399.06644 330.54376Q398.5977 331.10626 398.5977 332.34064Z" fill-rule="nonzero"/><path fill="#000000" d="M451.77747 335.45L455.07434 326.85626L456.2931 326.85626L459.80872 335.45L458.52747 335.45L457.51184 332.84064L453.93372 332.84064L452.9806 335.45L451.77747 335.45ZM454.26184 331.91876L457.1681 331.91876L456.27747 329.54376Q455.8556 328.46564 455.6681 327.7625Q455.49622 328.59064 455.19934 329.40314L454.26184 331.91876ZM459.57434 335.45L459.57434 329.23126L460.52747 329.23126L460.52747 330.16876Q460.88684 329.5125 461.18372 329.3094Q461.49622 329.09064 461.87122 329.09064Q462.40247 329.09064 462.94934 329.41876L462.58997 330.40314Q462.19934 330.16876 461.82434 330.16876Q461.46497 330.16876 461.18372 330.3875Q460.9181 330.59064 460.80872 330.96564Q460.62122 331.52814 460.62122 332.1844L460.62122 335.45L459.57434 335.45ZM467.65247 333.16876L468.68372 333.3094Q468.51184 334.3719 467.80872 334.98126Q467.1056 335.59064 466.08997 335.59064Q464.80872 335.59064 464.02747 334.7625Q463.26184 333.91876 463.26184 332.35626Q463.26184 331.35626 463.58997 330.60626Q463.93372 329.84064 464.6056 329.46564Q465.2931 329.09064 466.1056 329.09064Q467.1056 329.09064 467.74622 329.60626Q468.40247 330.10626 468.58997 331.0594L467.55872 331.21564Q467.4181 330.59064 467.0431 330.27814Q466.6681 329.95 466.13684 329.95Q465.33997 329.95 464.83997 330.52814Q464.33997 331.09064 464.33997 332.325Q464.33997 333.59064 464.82434 334.15314Q465.30872 334.71564 466.07434 334.71564Q466.69934 334.71564 467.1056 334.34064Q467.52747 333.96564 467.65247 333.16876ZM469.58997 335.45L469.58997 326.85626L470.63684 326.85626L470.63684 329.9344Q471.37122 329.09064 472.49622 329.09064Q473.19934 329.09064 473.69934 329.3719Q474.21497 329.6375 474.43372 330.1219Q474.65247 330.59064 474.65247 331.5125L474.65247 335.45L473.6056 335.45L473.6056 331.5125Q473.6056 330.71564 473.26184 330.35626Q472.9181 329.9969 472.2931 329.9969Q471.82434 329.9969 471.40247 330.2469Q470.99622 330.48126 470.80872 330.90314Q470.63684 331.3094 470.63684 332.04376L470.63684 335.45L469.58997 335.45ZM476.58997 328.075L476.58997 326.85626L477.65247 326.85626L477.65247 328.075L476.58997 328.075ZM476.58997 335.45L476.58997 329.23126L477.65247 329.23126L477.65247 335.45L476.58997 335.45ZM481.88684 334.5125L482.0431 335.4344Q481.58997 335.52814 481.24622 335.52814Q480.6681 335.52814 480.3556 335.35626Q480.0431 335.16876 479.90247 334.8719Q479.77747 334.575 479.77747 333.6219L479.77747 330.04376L479.01184 330.04376L479.01184 329.23126L479.77747 329.23126L479.77747 327.6844L480.82434 327.0594L480.82434 329.23126L481.88684 329.23126L481.88684 330.04376L480.82434 330.04376L480.82434 333.6844Q480.82434 334.1375 480.87122 334.2625Q480.93372 334.3875 481.05872 334.46564Q481.18372 334.54376 481.4181 334.54376Q481.6056 334.54376 481.88684 334.5125ZM486.83997 333.45L487.93372 333.575Q487.68372 334.52814 486.9806 335.0594Q486.27747 335.59064 485.19934 335.59064Q483.83997 335.59064 483.02747 334.7469Q482.2306 333.90314 482.2306 332.3875Q482.2306 330.825 483.0431 329.96564Q483.8556 329.09064 485.13684 329.09064Q486.38684 329.09064 487.1681 329.9344Q487.96497 330.77814 487.96497 332.325Q487.96497 332.41876 487.96497 332.60626L483.32434 332.60626Q483.38684 333.6375 483.90247 334.1844Q484.4181 334.71564 485.19934 334.71564Q485.77747 334.71564 486.18372 334.41876Q486.6056 334.10626 486.83997 333.45ZM483.38684 331.7469L486.8556 331.7469Q486.7931 330.95 486.46497 330.5594Q485.94934 329.95 485.15247 329.95Q484.4181 329.95 483.9181 330.4344Q483.43372 330.91876 483.38684 331.7469ZM493.65247 333.16876L494.68372 333.3094Q494.51184 334.3719 493.80872 334.98126Q493.1056 335.59064 492.08997 335.59064Q490.80872 335.59064 490.02747 334.7625Q489.26184 333.91876 489.26184 332.35626Q489.26184 331.35626 489.58997 330.60626Q489.93372 329.84064 490.6056 329.46564Q491.2931 329.09064 492.1056 329.09064Q493.1056 329.09064 493.74622 329.60626Q494.40247 330.10626 494.58997 331.0594L493.55872 331.21564Q493.4181 330.59064 493.0431 330.27814Q492.6681 329.95 492.13684 329.95Q491.33997 329.95 490.83997 330.52814Q490.33997 331.09064 490.33997 332.325Q490.33997 333.59064 490.82434 334.15314Q491.30872 334.71564 492.07434 334.71564Q492.69934 334.71564 493.1056 334.34064Q493.52747 333.96564 493.65247 333.16876ZM497.88684 334.5125L498.0431 335.4344Q497.58997 335.52814 497.24622 335.52814Q496.6681 335.52814 496.3556 335.35626Q496.0431 335.16876 495.90247 334.8719Q495.77747 334.575 495.77747 333.6219L495.77747 330.04376L495.01184 330.04376L495.01184 329.23126L495.77747 329.23126L495.77747 327.6844L496.82434 327.0594L496.82434 329.23126L497.88684 329.23126L497.88684 330.04376L496.82434 330.04376L496.82434 333.6844Q496.82434 334.1375 496.87122 334.2625Q496.93372 334.3875 497.05872 334.46564Q497.18372 334.54376 497.4181 334.54376Q497.6056 334.54376 497.88684 334.5125ZM500.7931 335.59064L503.27747 326.71564L504.12122 326.71564L501.63684 335.59064L500.7931 335.59064ZM507.71497 335.45L507.71497 326.85626L510.96497 326.85626Q511.80872 326.85626 512.26184 326.9344Q512.90247 327.04376 513.32434 327.34064Q513.76184 327.6375 514.01184 328.16876Q514.27747 328.7 514.27747 329.34064Q514.27747 330.4344 513.57434 331.2Q512.88684 331.95 511.05872 331.95L508.8556 331.95L508.8556 335.45L507.71497 335.45ZM508.8556 330.95L511.07434 330.95Q512.1837 330.95 512.63684 330.54376Q513.1056 330.1219 513.1056 329.3719Q513.1056 328.84064 512.82434 328.46564Q512.5587 328.075 512.1212 327.95Q511.82434 327.8719 511.05872 327.8719L508.8556 327.8719L508.8556 330.95ZM515.57434 335.45L515.57434 329.23126L516.52747 329.23126L516.52747 330.16876Q516.88684 329.5125 517.1837 329.3094Q517.4962 329.09064 517.8712 329.09064Q518.40247 329.09064 518.94934 329.41876L518.58997 330.40314Q518.19934 330.16876 517.82434 330.16876Q517.46497 330.16876 517.1837 330.3875Q516.9181 330.59064 516.8087 330.96564Q516.6212 331.52814 516.6212 332.1844L516.6212 335.45L515.57434 335.45ZM519.19934 332.34064Q519.19934 330.60626 520.15247 329.77814Q520.94934 329.09064 522.1056 329.09064Q523.38684 329.09064 524.19934 329.9344Q525.02747 330.7625 525.02747 332.2469Q525.02747 333.45 524.6681 334.1375Q524.3087 334.825 523.6056 335.21564Q522.9181 335.59064 522.1056 335.59064Q520.8087 335.59064 519.9962 334.7625Q519.19934 333.91876 519.19934 332.34064ZM520.27747 332.34064Q520.27747 333.52814 520.7931 334.1219Q521.32434 334.71564 522.1056 334.71564Q522.90247 334.71564 523.4181 334.1219Q523.9337 333.52814 523.9337 332.3094Q523.9337 331.15314 523.40247 330.5594Q522.88684 329.96564 522.1056 329.96564Q521.32434 329.96564 520.7931 330.5594Q520.27747 331.1375 520.27747 332.34064ZM526.57434 328.09064L526.57434 326.85626L527.63684 326.85626L527.63684 328.09064L526.57434 328.09064ZM525.2462 337.8719L525.4337 336.96564Q525.76184 337.04376 525.9337 337.04376Q526.26184 337.04376 526.4181 336.825Q526.57434 336.6219 526.57434 335.7625L526.57434 329.23126L527.63684 329.23126L527.63684 335.79376Q527.63684 336.9344 527.33997 337.3875Q526.94934 337.98126 526.07434 337.98126Q525.63684 337.98126 525.2462 337.8719ZM533.83997 333.45L534.9337 333.575Q534.6837 334.52814 533.9806 335.0594Q533.27747 335.59064 532.19934 335.59064Q530.83997 335.59064 530.02747 334.7469Q529.2306 333.90314 529.2306 332.3875Q529.2306 330.825 530.0431 329.96564Q530.8556 329.09064 532.13684 329.09064Q533.38684 329.09064 534.1681 329.9344Q534.96497 330.77814 534.96497 332.325Q534.96497 332.41876 534.96497 332.60626L530.32434 332.60626Q530.38684 333.6375 530.90247 334.1844Q531.4181 334.71564 532.19934 334.71564Q532.77747 334.71564 533.1837 334.41876Q533.6056 334.10626 533.83997 333.45ZM530.38684 331.7469L533.8556 331.7469Q533.7931 330.95 533.46497 330.5594Q532.94934 329.95 532.15247 329.95Q531.4181 329.95 530.9181 330.4344Q530.4337 330.91876 530.38684 331.7469ZM540.65247 333.16876L541.6837 333.3094Q541.51184 334.3719 540.8087 334.98126Q540.1056 335.59064 539.08997 335.59064Q537.8087 335.59064 537.02747 334.7625Q536.26184 333.91876 536.26184 332.35626Q536.26184 331.35626 536.58997 330.60626Q536.9337 329.84064 537.6056 329.46564Q538.2931 329.09064 539.1056 329.09064Q540.1056 329.09064 540.7462 329.60626Q541.40247 330.10626 541.58997 331.0594L540.5587 331.21564Q540.4181 330.59064 540.0431 330.27814Q539.6681 329.95 539.13684 329.95Q538.33997 329.95 537.83997 330.52814Q537.33997 331.09064 537.33997 332.325Q537.33997 333.59064 537.82434 334.15314Q538.3087 334.71564 539.07434 334.71564Q539.69934 334.71564 540.1056 334.34064Q540.52747 333.96564 540.65247 333.16876ZM544.88684 334.5125L545.0431 335.4344Q544.58997 335.52814 544.2462 335.52814Q543.6681 335.52814 543.3556 335.35626Q543.0431 335.16876 542.90247 334.8719Q542.77747 334.575 542.77747 333.6219L542.77747 330.04376L542.01184 330.04376L542.01184 329.23126L542.77747 329.23126L542.77747 327.6844L543.82434 327.0594L543.82434 329.23126L544.88684 329.23126L544.88684 330.04376L543.82434 330.04376L543.82434 333.6844Q543.82434 334.1375 543.8712 334.2625Q543.9337 334.3875 544.0587 334.46564Q544.1837 334.54376 544.4181 334.54376Q544.6056 334.54376 544.88684 334.5125Z" fill-rule="nonzero"/><path fill="#000000" d="M485.1681 349.45L485.1681 340.85626L486.30872 340.85626L486.30872 348.4344L490.5431 348.4344L490.5431 349.45L485.1681 349.45ZM496.33997 347.45L497.43372 347.575Q497.18372 348.52814 496.4806 349.0594Q495.77747 349.59064 494.69934 349.59064Q493.33997 349.59064 492.52747 348.7469Q491.7306 347.90314 491.7306 346.3875Q491.7306 344.825 492.5431 343.96564Q493.3556 343.09064 494.63684 343.09064Q495.88684 343.09064 496.6681 343.9344Q497.46497 344.77814 497.46497 346.325Q497.46497 346.41876 497.46497 346.60626L492.82434 346.60626Q492.88684 347.6375 493.40247 348.1844Q493.9181 348.71564 494.69934 348.71564Q495.27747 348.71564 495.68372 348.41876Q496.1056 348.10626 496.33997 347.45ZM492.88684 345.7469L496.3556 345.7469Q496.2931 344.95 495.96497 344.5594Q495.44934 343.95 494.65247 343.95Q493.9181 343.95 493.4181 344.4344Q492.93372 344.91876 492.88684 345.7469ZM503.15247 348.6844Q502.55872 349.1844 502.01184 349.3875Q501.4806 349.59064 500.8556 349.59064Q499.82434 349.59064 499.27747 349.09064Q498.7306 348.59064 498.7306 347.8094Q498.7306 347.35626 498.93372 346.98126Q499.13684 346.59064 499.4806 346.3719Q499.82434 346.1375 500.24622 346.02814Q500.5431 345.9344 501.18372 345.85626Q502.44934 345.71564 503.05872 345.4969Q503.05872 345.27814 503.05872 345.23126Q503.05872 344.575 502.76184 344.3094Q502.3556 343.96564 501.55872 343.96564Q500.82434 343.96564 500.46497 344.23126Q500.1056 344.48126 499.93372 345.1375L498.90247 344.9969Q499.0431 344.34064 499.37122 343.9344Q499.69934 343.52814 500.30872 343.3094Q500.9181 343.09064 501.71497 343.09064Q502.51184 343.09064 503.01184 343.27814Q503.51184 343.46564 503.74622 343.7469Q503.9806 344.02814 504.07434 344.46564Q504.12122 344.73126 504.12122 345.4344L504.12122 346.84064Q504.12122 348.3094 504.18372 348.7Q504.26184 349.09064 504.46497 349.45L503.3556 349.45Q503.19934 349.1219 503.15247 348.6844ZM503.05872 346.325Q502.4806 346.5594 501.33997 346.73126Q500.68372 346.825 500.4181 346.95Q500.15247 347.0594 499.99622 347.27814Q499.8556 347.4969 499.8556 347.77814Q499.8556 348.2 500.1681 348.48126Q500.49622 348.7625 501.1056 348.7625Q501.71497 348.7625 502.18372 348.4969Q502.6681 348.23126 502.88684 347.7625Q503.05872 347.40314 503.05872 346.71564L503.05872 346.325ZM510.12122 349.45L510.12122 348.66876Q509.52747 349.59064 508.38684 349.59064Q507.63684 349.59064 507.01184 349.1844Q506.38684 348.7625 506.0431 348.02814Q505.69934 347.29376 505.69934 346.34064Q505.69934 345.41876 506.01184 344.65314Q506.32434 343.8875 506.94934 343.4969Q507.57434 343.09064 508.33997 343.09064Q508.90247 343.09064 509.33997 343.325Q509.77747 343.5594 510.05872 343.9344L510.05872 340.85626L511.1056 340.85626L511.1056 349.45L510.12122 349.45ZM506.7931 346.34064Q506.7931 347.54376 507.2931 348.1375Q507.7931 348.71564 508.4806 348.71564Q509.1681 348.71564 509.65247 348.15314Q510.13684 347.59064 510.13684 346.4344Q510.13684 345.15314 509.63684 344.5594Q509.15247 343.96564 508.43372 343.96564Q507.7306 343.96564 507.26184 344.54376Q506.7931 345.10626 506.7931 346.34064Z" fill-rule="nonzero"/></svg>