<svg version="1.1" viewBox="0.0 0.0 600.0 371.0" fill="none" stroke="none" stroke-linecap="square" stroke-miterlimit="10" width="600" height="371" xmlns:xlink="http://www.w3.org/1999/xlink" xmlns="http://www.w3.org/2000/svg"><path fill="#ffffff" d="M0 0L600.0 0L600.0 371.0L0 371.0L0 0Z" fill-rule="nonzero"/><path fill="#ea4335" d="M144.32376 245.8093C124.428085 194.45264 131.14133 136.58788 162.26668 91.150475C193.39201 45.713078 244.9242 18.55 300.0 18.55L300.0 185.5Z" fill-rule="nonzero"/><path fill="#4285f4" d="M300.0 18.55C384.27026 18.55 455.32877 81.35226 465.6846 164.9838C476.04044 248.61534 422.44644 326.85294 340.7214 347.4076C258.99634 367.96228 174.76569 324.38898 144.32376 245.8093L300.0 185.5Z" fill-rule="nonzero"/><path fill="#1a1a1a" d="M21.89375 91.36795L21.89375 87.727325L18.58125 82.7742L19.971874 82.7742L21.659374 85.36795Q22.128124 86.0867 22.534374 86.821075Q22.925 86.1492 23.471874 85.30545L25.14375 82.7742L26.45625 82.7742L23.034374 87.727325L23.034374 91.36795L21.89375 91.36795ZM30.596874 89.36795L31.690624 89.49295Q31.440624 90.446075 30.7375 90.977325Q30.034374 91.508575 28.95625 91.508575Q27.596874 91.508575 26.784374 90.664825Q25.9875 89.821075 25.9875 88.30545Q25.9875 86.74295 26.8 85.883575Q27.6125 85.008575 28.89375 85.008575Q30.14375 85.008575 30.925 85.852325Q31.721874 86.696075 31.721874 88.24295Q31.721874 88.3367 31.721874 88.5242L27.08125 88.5242Q27.14375 89.55545 27.659374 90.102325Q28.175 90.633575 28.95625 90.633575Q29.534374 90.633575 29.940624 90.3367Q30.3625 90.0242 30.596874 89.36795ZM27.14375 87.664825L30.6125 87.664825Q30.55 86.86795 30.221874 86.477325Q29.70625 85.86795 28.909374 85.86795Q28.175 85.86795 27.675 86.352325Q27.190624 86.8367 27.14375 87.664825ZM32.925 89.508575L33.95625 89.352325Q34.05 89.977325 34.440624 90.30545Q34.846874 90.633575 35.58125 90.633575Q36.3 90.633575 36.64375 90.352325Q37.003124 90.05545 37.003124 89.6492Q37.003124 89.289825 36.690624 89.0867Q36.471874 88.946075 35.6125 88.727325Q34.45625 88.43045 34.003124 88.227325Q33.565624 88.008575 33.33125 87.633575Q33.096874 87.258575 33.096874 86.789825Q33.096874 86.383575 33.284374 86.0242Q33.471874 85.664825 33.8 85.43045Q34.05 85.258575 34.471874 85.133575Q34.89375 85.008575 35.39375 85.008575Q36.1125 85.008575 36.659374 85.227325Q37.221874 85.43045 37.4875 85.789825Q37.753124 86.1492 37.846874 86.74295L36.815624 86.883575Q36.753124 86.414825 36.409374 86.1492Q36.08125 85.86795 35.45625 85.86795Q34.7375 85.86795 34.425 86.11795Q34.1125 86.352325 34.1125 86.68045Q34.1125 86.883575 34.2375 87.039825Q34.378124 87.2117 34.64375 87.321075Q34.8 87.383575 35.58125 87.5867Q36.70625 87.8992 37.14375 88.0867Q37.58125 88.2742 37.83125 88.633575Q38.08125 88.99295 38.08125 89.539825Q38.08125 90.071075 37.76875 90.539825Q37.471874 90.99295 36.89375 91.258575Q36.315624 91.508575 35.58125 91.508575Q34.3625 91.508575 33.721874 91.008575Q33.096874 90.49295 32.925 89.508575Z" fill-rule="nonzero"/><path fill="#9e9e9e" d="M19.05 106.102325L20.1125 105.9617Q20.284374 106.852325 20.721874 107.258575Q21.159374 107.6492 21.784374 107.6492Q22.534374 107.6492 23.05 107.133575Q23.565624 106.61795 23.565624 105.852325Q23.565624 105.133575 23.08125 104.664825Q22.6125 104.18045 21.878124 104.18045Q21.58125 104.18045 21.128124 104.30545L21.253124 103.36795Q21.3625 103.383575 21.425 103.383575Q22.096874 103.383575 22.628124 103.039825Q23.175 102.68045 23.175 101.946075Q23.175 101.36795 22.784374 100.99295Q22.39375 100.602325 21.76875 100.602325Q21.159374 100.602325 20.7375 100.99295Q20.33125 101.383575 20.221874 102.1492L19.159374 101.9617Q19.346874 100.914825 20.034374 100.3367Q20.721874 99.74295 21.7375 99.74295Q22.440624 99.74295 23.034374 100.05545Q23.628124 100.352325 23.940624 100.86795Q24.253124 101.383575 24.253124 101.977325Q24.253124 102.5242 23.95625 102.99295Q23.659374 103.446075 23.08125 103.7117Q23.83125 103.883575 24.253124 104.446075Q24.675 104.99295 24.675 105.8367Q24.675 106.9617 23.846874 107.74295Q23.034374 108.5242 21.784374 108.5242Q20.659374 108.5242 19.909374 107.852325Q19.159374 107.164825 19.05 106.102325ZM26.05 104.133575Q26.05 102.602325 26.3625 101.68045Q26.675 100.74295 27.284374 100.24295Q27.909374 99.74295 28.846874 99.74295Q29.534374 99.74295 30.05 100.0242Q30.58125 100.30545 30.925 100.8367Q31.26875 101.352325 31.45625 102.102325Q31.64375 102.852325 31.64375 104.133575Q31.64375 105.6492 31.33125 106.571075Q31.034374 107.49295 30.409374 108.008575Q29.8 108.508575 28.846874 108.508575Q27.6125 108.508575 26.89375 107.61795Q26.05 106.55545 26.05 104.133575ZM27.128124 104.133575Q27.128124 106.24295 27.628124 106.946075Q28.128124 107.6492 28.846874 107.6492Q29.58125 107.6492 30.065624 106.946075Q30.565624 106.24295 30.565624 104.133575Q30.565624 102.008575 30.065624 101.321075Q29.58125 100.61795 28.83125 100.61795Q28.1125 100.61795 27.675 101.227325Q27.128124 102.008575 27.128124 104.133575ZM33.64375 108.36795L33.64375 107.164825L34.846874 107.164825L34.846874 108.36795L33.64375 108.36795ZM36.20625 106.383575L37.221874 106.289825Q37.346874 107.008575 37.70625 107.3367Q38.08125 107.6492 38.64375 107.6492Q39.128124 107.6492 39.4875 107.43045Q39.8625 107.196075 40.096874 106.8367Q40.33125 106.4617 40.4875 105.8367Q40.64375 105.196075 40.64375 104.539825Q40.64375 104.4617 40.64375 104.321075Q40.33125 104.821075 39.784374 105.1492Q39.2375 105.4617 38.596874 105.4617Q37.51875 105.4617 36.784374 104.696075Q36.05 103.914825 36.05 102.6492Q36.05 101.3367 36.815624 100.539825Q37.596874 99.74295 38.753124 99.74295Q39.58125 99.74295 40.26875 100.196075Q40.971874 100.6492 41.33125 101.49295Q41.690624 102.321075 41.690624 103.8992Q41.690624 105.539825 41.33125 106.5242Q40.9875 107.49295 40.26875 108.008575Q39.565624 108.508575 38.628124 108.508575Q37.6125 108.508575 36.971874 107.9617Q36.33125 107.3992 36.20625 106.383575ZM40.51875 102.5867Q40.51875 101.68045 40.034374 101.1492Q39.565624 100.61795 38.878124 100.61795Q38.175 100.61795 37.64375 101.196075Q37.128124 101.758575 37.128124 102.68045Q37.128124 103.49295 37.628124 104.008575Q38.128124 104.5242 38.846874 104.5242Q39.58125 104.5242 40.05 104.008575Q40.51875 103.49295 40.51875 102.5867ZM43.253124 101.8367Q43.253124 100.914825 43.70625 100.2742Q44.175 99.633575 45.05 99.633575Q45.8625 99.633575 46.39375 100.2117Q46.925 100.789825 46.925 101.8992Q46.925 102.99295 46.378124 103.5867Q45.846874 104.164825 45.065624 104.164825Q44.284374 104.164825 43.76875 103.5867Q43.253124 103.008575 43.253124 101.8367ZM45.08125 100.352325Q44.690624 100.352325 44.425 100.696075Q44.175 101.039825 44.175 101.946075Q44.175 102.7742 44.425 103.11795Q44.690624 103.446075 45.08125 103.446075Q45.4875 103.446075 45.7375 103.102325Q46.003124 102.758575 46.003124 101.86795Q46.003124 101.0242 45.7375 100.696075Q45.471874 100.352325 45.08125 100.352325ZM45.08125 108.68045L49.784374 99.633575L50.64375 99.633575L45.95625 108.68045L45.08125 108.68045ZM48.8 106.352325Q48.8 105.43045 49.253124 104.789825Q49.721874 104.1492 50.6125 104.1492Q51.425 104.1492 51.95625 104.727325Q52.4875 105.289825 52.4875 106.414825Q52.4875 107.508575 51.940624 108.102325Q51.409374 108.68045 50.6125 108.68045Q49.846874 108.68045 49.315624 108.102325Q48.8 107.5242 48.8 106.352325ZM50.64375 104.86795Q50.2375 104.86795 49.971874 105.2117Q49.721874 105.55545 49.721874 106.4617Q49.721874 107.2742 49.9875 107.61795Q50.253124 107.9617 50.64375 107.9617Q51.034374 107.9617 51.3 107.61795Q51.565624 107.2742 51.565624 106.36795Q51.565624 105.539825 51.3 105.2117Q51.034374 104.86795 50.64375 104.86795Z" fill-rule="nonzero"/><path stroke="#757575" stroke-width="1.0" stroke-linecap="butt" d="M18.55 95.86795L127.05 95.86795L169.15334 95.86795" fill-rule="nonzero"/><path fill="#9e9e9e" d="M171.15334 95.86795C171.15334 94.76338 170.2579 93.86795 169.15334 93.86795C168.04877 93.86795 167.15334 94.76338 167.15334 95.86795C167.15334 96.97252 168.04877 97.86795 169.15334 97.86795C170.2579 97.86795 171.15334 96.97252 171.15334 95.86795" fill-rule="nonzero"/><path fill="#1a1a1a" d="M566.3719 270.63205L566.3719 262.0383L567.52814 262.0383L572.04376 268.7883L572.04376 262.0383L573.1375 262.0383L573.1375 270.63205L571.96564 270.63205L567.45 263.88205L567.45 270.63205L566.3719 270.63205ZM574.85626 267.52267Q574.85626 265.7883 575.8094 264.96017Q576.60626 264.27267 577.7625 264.27267Q579.04376 264.27267 579.85626 265.11642Q580.6844 265.94455 580.6844 267.42892Q580.6844 268.63205 580.325 269.31955Q579.96564 270.00705 579.2625 270.39767Q578.575 270.77267 577.7625 270.77267Q576.46564 270.77267 575.65314 269.94455Q574.85626 269.1008 574.85626 267.52267ZM575.9344 267.52267Q575.9344 268.71017 576.45 269.30392Q576.98126 269.89767 577.7625 269.89767Q578.5594 269.89767 579.075 269.30392Q579.59064 268.71017 579.59064 267.49142Q579.59064 266.33517 579.0594 265.74142Q578.54376 265.14767 577.7625 265.14767Q576.98126 265.14767 576.45 265.74142Q575.9344 266.31955 575.9344 267.52267Z" fill-rule="nonzero"/><path fill="#9e9e9e" d="M552.41876 281.14767L551.3719 281.2258Q551.23126 280.6008 550.98126 280.31955Q550.54376 279.86642 549.91876 279.86642Q549.41876 279.86642 549.02814 280.14767Q548.54376 280.52267 548.2469 281.2258Q547.96564 281.9133 547.95 283.19455Q548.325 282.61642 548.8719 282.33517Q549.4344 282.05392 550.04376 282.05392Q551.09064 282.05392 551.825 282.83517Q552.575 283.61642 552.575 284.83517Q552.575 285.64767 552.21564 286.3508Q551.8719 287.0383 551.2625 287.4133Q550.65314 287.77267 549.8875 287.77267Q548.5594 287.77267 547.73126 286.80392Q546.90314 285.83517 546.90314 283.61642Q546.90314 281.11642 547.825 279.99142Q548.6219 279.00705 549.98126 279.00705Q550.9969 279.00705 551.6375 279.58517Q552.29376 280.14767 552.41876 281.14767ZM548.1219 284.8508Q548.1219 285.39767 548.34064 285.89767Q548.575 286.38205 548.98126 286.64767Q549.40314 286.9133 549.8719 286.9133Q550.52814 286.9133 551.0125 286.38205Q551.4969 285.83517 551.4969 284.9133Q551.4969 284.02267 551.0125 283.50705Q550.54376 282.99142 549.825 282.99142Q549.10626 282.99142 548.60626 283.50705Q548.1219 284.02267 548.1219 284.8508ZM554.10626 285.64767L555.1219 285.55392Q555.2469 286.27267 555.60626 286.6008Q555.98126 286.9133 556.54376 286.9133Q557.02814 286.9133 557.3875 286.69455Q557.7625 286.46017 557.9969 286.1008Q558.23126 285.7258 558.3875 285.1008Q558.54376 284.46017 558.54376 283.80392Q558.54376 283.7258 558.54376 283.58517Q558.23126 284.08517 557.6844 284.4133Q557.1375 284.7258 556.4969 284.7258Q555.41876 284.7258 554.6844 283.96017Q553.95 283.17892 553.95 281.9133Q553.95 280.6008 554.71564 279.80392Q555.4969 279.00705 556.65314 279.00705Q557.48126 279.00705 558.16876 279.46017Q558.8719 279.9133 559.23126 280.75705Q559.59064 281.58517 559.59064 283.1633Q559.59064 284.80392 559.23126 285.7883Q558.8875 286.75705 558.16876 287.27267Q557.46564 287.77267 556.52814 287.77267Q555.5125 287.77267 554.8719 287.2258Q554.23126 286.6633 554.10626 285.64767ZM558.41876 281.8508Q558.41876 280.94455 557.9344 280.4133Q557.46564 279.88205 556.77814 279.88205Q556.075 279.88205 555.54376 280.46017Q555.02814 281.02267 555.02814 281.94455Q555.02814 282.75705 555.52814 283.27267Q556.02814 283.7883 556.7469 283.7883Q557.48126 283.7883 557.95 283.27267Q558.41876 282.75705 558.41876 281.8508ZM561.54376 287.63205L561.54376 286.42892L562.7469 286.42892L562.7469 287.63205L561.54376 287.63205ZM567.91876 287.63205L566.8719 287.63205L566.8719 280.9133Q566.48126 281.27267 565.85626 281.64767Q565.2469 282.00705 564.7625 282.17892L564.7625 281.1633Q565.6375 280.74142 566.29376 280.1633Q566.96564 279.56955 567.2469 279.00705L567.91876 279.00705L567.91876 287.63205ZM571.15314 281.1008Q571.15314 280.17892 571.60626 279.5383Q572.075 278.89767 572.95 278.89767Q573.7625 278.89767 574.29376 279.4758Q574.825 280.05392 574.825 281.1633Q574.825 282.25705 574.27814 282.8508Q573.7469 283.42892 572.96564 283.42892Q572.1844 283.42892 571.66876 282.8508Q571.15314 282.27267 571.15314 281.1008ZM572.98126 279.61642Q572.59064 279.61642 572.325 279.96017Q572.075 280.30392 572.075 281.21017Q572.075 282.0383 572.325 282.38205Q572.59064 282.71017 572.98126 282.71017Q573.3875 282.71017 573.6375 282.36642Q573.90314 282.02267 573.90314 281.13205Q573.90314 280.2883 573.6375 279.96017Q573.3719 279.61642 572.98126 279.61642ZM572.98126 287.94455L577.6844 278.89767L578.54376 278.89767L573.85626 287.94455L572.98126 287.94455ZM576.7 285.61642Q576.7 284.69455 577.15314 284.05392Q577.6219 283.4133 578.5125 283.4133Q579.325 283.4133 579.85626 283.99142Q580.3875 284.55392 580.3875 285.67892Q580.3875 286.77267 579.84064 287.36642Q579.3094 287.94455 578.5125 287.94455Q577.7469 287.94455 577.21564 287.36642Q576.7 286.7883 576.7 285.61642ZM578.54376 284.13205Q578.1375 284.13205 577.8719 284.4758Q577.6219 284.81955 577.6219 285.7258Q577.6219 286.5383 577.8875 286.88205Q578.15314 287.2258 578.54376 287.2258Q578.9344 287.2258 579.2 286.88205Q579.46564 286.5383 579.46564 285.63205Q579.46564 284.80392 579.2 284.4758Q578.9344 284.13205 578.54376 284.13205Z" fill-rule="nonzero"/><path stroke="#757575" stroke-width="1.0" stroke-linecap="butt" d="M581.45 275.13205L472.95 275.13205L430.84665 275.13205" fill-rule="nonzero"/><path fill="#9e9e9e" d="M432.84665 275.13205C432.84665 274.02747 431.95123 273.13205 430.84665 273.13205C429.7421 273.13205 428.84665 274.02747 428.84665 275.13205C428.84665 276.2366 429.7421 277.13205 430.84665 277.13205C431.95123 277.13205 432.84665 276.2366 432.84665 275.13205" fill-rule="nonzero"/></svg>