<svg version="1.1" viewBox="0.0 0.0 807.0 479.0" fill="none" stroke="none" stroke-linecap="square" stroke-miterlimit="10" width="807" height="479" xmlns:xlink="http://www.w3.org/1999/xlink" xmlns="http://www.w3.org/2000/svg"><path fill="#ffffff" d="M0 0L807.0 0L807.0 479.0L0 479.0L0 0Z" fill-rule="nonzero"/><path fill="#fbbc04" d="M375.93607 25.719662C385.07678 24.541101 394.28363 23.95 403.5 23.95L403.5 239.5Z" fill-rule="nonzero"/><path fill="#ea4335" d="M285.90994 420.1499C210.20078 370.86868 173.25273 279.6063 193.3543 191.53561C213.45584 103.46493 286.34213 37.271523 375.93607 25.719662L403.5 239.5Z" fill-rule="nonzero"/><path fill="#4285f4" d="M403.5 23.95C495.5257 23.95 577.40186 82.373726 607.3315 169.39638C637.26117 256.41904 608.64233 352.8452 536.0848 409.45023C463.52722 466.0552 363.03558 470.35312 285.90994 420.1499L403.5 239.5Z" fill-rule="nonzero"/><path fill="#1a1a1a" d="M26.371876 34.95L24.090626 26.35625L25.2625 26.35625L26.575 31.996876Q26.778126 32.871876 26.934376 33.746876Q27.2625 32.371876 27.325 32.153126L28.95 26.35625L30.325 26.35625L31.559376 30.7Q32.0125 32.325 32.23125 33.746876Q32.3875 32.934376 32.653126 31.871876L33.996876 26.35625L35.1375 26.35625L32.79375 34.95L31.684376 34.95L29.8875 28.403126Q29.653126 27.590626 29.60625 27.403126Q29.48125 27.98125 29.35625 28.403126L27.54375 34.95L26.371876 34.95ZM39.996876 32.95L41.090626 33.075Q40.840626 34.028126 40.1375 34.559376Q39.434376 35.090626 38.35625 35.090626Q36.996876 35.090626 36.184376 34.246876Q35.3875 33.403126 35.3875 31.8875Q35.3875 30.325 36.2 29.465626Q37.0125 28.590626 38.29375 28.590626Q39.54375 28.590626 40.325 29.434376Q41.121876 30.278126 41.121876 31.825Q41.121876 31.91875 41.121876 32.10625L36.48125 32.10625Q36.54375 33.1375 37.059376 33.684376Q37.575 34.215626 38.35625 34.215626Q38.934376 34.215626 39.340626 33.91875Q39.7625 33.60625 39.996876 32.95ZM36.54375 31.246876L40.0125 31.246876Q39.95 30.45 39.621876 30.059376Q39.10625 29.45 38.309376 29.45Q37.575 29.45 37.075 29.934376Q36.590626 30.41875 36.54375 31.246876ZM46.996876 32.95L48.090626 33.075Q47.840626 34.028126 47.1375 34.559376Q46.434376 35.090626 45.35625 35.090626Q43.996876 35.090626 43.184376 34.246876Q42.3875 33.403126 42.3875 31.8875Q42.3875 30.325 43.2 29.465626Q44.0125 28.590626 45.29375 28.590626Q46.54375 28.590626 47.325 29.434376Q48.121876 30.278126 48.121876 31.825Q48.121876 31.91875 48.121876 32.10625L43.48125 32.10625Q43.54375 33.1375 44.059376 33.684376Q44.575 34.215626 45.35625 34.215626Q45.934376 34.215626 46.340626 33.91875Q46.7625 33.60625 46.996876 32.95ZM43.54375 31.246876L47.0125 31.246876Q46.95 30.45 46.621876 30.059376Q46.10625 29.45 45.309376 29.45Q44.575 29.45 44.075 29.934376Q43.590626 30.41875 43.54375 31.246876ZM49.746876 34.95L49.746876 26.35625L50.809376 26.35625L50.809376 31.2625L53.29375 28.73125L54.66875 28.73125L52.278126 31.028126L54.903126 34.95L53.60625 34.95L51.54375 31.7625L50.809376 32.48125L50.809376 34.95L49.746876 34.95ZM55.715626 34.95L55.715626 26.35625L56.778126 26.35625L56.778126 34.95L55.715626 34.95ZM58.7 37.340626L58.575 36.35625Q58.91875 36.45 59.184376 36.45Q59.528126 36.45 59.73125 36.325Q59.95 36.215626 60.090626 36.0125Q60.184376 35.840626 60.41875 35.215626Q60.434376 35.1375 60.5125 34.965626L58.1375 28.73125L59.278126 28.73125L60.575 32.325Q60.825 33.0125 61.028126 33.778126Q61.215626 33.04375 61.465626 32.35625L62.79375 28.73125L63.840626 28.73125L61.48125 35.059376Q61.090626 36.075 60.8875 36.465626Q60.60625 36.996876 60.23125 37.23125Q59.871876 37.48125 59.371876 37.48125Q59.075 37.48125 58.7 37.340626Z" fill-rule="nonzero"/><path fill="#9e9e9e" d="M29.996876 50.934376L29.996876 51.95L24.309376 51.95Q24.309376 51.575 24.434376 51.215626Q24.653126 50.6375 25.121876 50.075Q25.60625 49.5125 26.5125 48.778126Q27.91875 47.621876 28.403126 46.95Q28.903126 46.278126 28.903126 45.684376Q28.903126 45.059376 28.45 44.6375Q27.996876 44.2 27.278126 44.2Q26.5125 44.2 26.059376 44.653126Q25.60625 45.10625 25.590626 45.91875L24.5125 45.809376Q24.621876 44.590626 25.340626 43.965626Q26.075 43.325 27.309376 43.325Q28.54375 43.325 29.2625 44.0125Q29.98125 44.7 29.98125 45.715626Q29.98125 46.23125 29.7625 46.73125Q29.559376 47.215626 29.059376 47.778126Q28.575 48.325 27.45 49.278126Q26.496876 50.075 26.215626 50.371876Q25.95 50.653126 25.778126 50.934376L29.996876 50.934376ZM32.04375 51.95L32.04375 50.746876L33.246876 50.746876L33.246876 51.95L32.04375 51.95ZM34.45 47.715626Q34.45 46.184376 34.7625 45.2625Q35.075 44.325 35.684376 43.825Q36.309376 43.325 37.246876 43.325Q37.934376 43.325 38.45 43.60625Q38.98125 43.8875 39.325 44.41875Q39.66875 44.934376 39.85625 45.684376Q40.04375 46.434376 40.04375 47.715626Q40.04375 49.23125 39.73125 50.153126Q39.434376 51.075 38.809376 51.590626Q38.2 52.090626 37.246876 52.090626Q36.0125 52.090626 35.29375 51.2Q34.45 50.1375 34.45 47.715626ZM35.528126 47.715626Q35.528126 49.825 36.028126 50.528126Q36.528126 51.23125 37.246876 51.23125Q37.98125 51.23125 38.465626 50.528126Q38.965626 49.825 38.965626 47.715626Q38.965626 45.590626 38.465626 44.903126Q37.98125 44.2 37.23125 44.2Q36.5125 44.2 36.075 44.809376Q35.528126 45.590626 35.528126 47.715626ZM41.653126 45.41875Q41.653126 44.496876 42.10625 43.85625Q42.575 43.215626 43.45 43.215626Q44.2625 43.215626 44.79375 43.79375Q45.325 44.371876 45.325 45.48125Q45.325 46.575 44.778126 47.16875Q44.246876 47.746876 43.465626 47.746876Q42.684376 47.746876 42.16875 47.16875Q41.653126 46.590626 41.653126 45.41875ZM43.48125 43.934376Q43.090626 43.934376 42.825 44.278126Q42.575 44.621876 42.575 45.528126Q42.575 46.35625 42.825 46.7Q43.090626 47.028126 43.48125 47.028126Q43.8875 47.028126 44.1375 46.684376Q44.403126 46.340626 44.403126 45.45Q44.403126 44.60625 44.1375 44.278126Q43.871876 43.934376 43.48125 43.934376ZM43.48125 52.2625L48.184376 43.215626L49.04375 43.215626L44.35625 52.2625L43.48125 52.2625ZM47.2 49.934376Q47.2 49.0125 47.653126 48.371876Q48.121876 47.73125 49.0125 47.73125Q49.825 47.73125 50.35625 48.309376Q50.8875 48.871876 50.8875 49.996876Q50.8875 51.090626 50.340626 51.684376Q49.809376 52.2625 49.0125 52.2625Q48.246876 52.2625 47.715626 51.684376Q47.2 51.10625 47.2 49.934376ZM49.04375 48.45Q48.6375 48.45 48.371876 48.79375Q48.121876 49.1375 48.121876 50.04375Q48.121876 50.85625 48.3875 51.2Q48.653126 51.54375 49.04375 51.54375Q49.434376 51.54375 49.7 51.2Q49.965626 50.85625 49.965626 49.95Q49.965626 49.121876 49.7 48.79375Q49.434376 48.45 49.04375 48.45Z" fill-rule="nonzero"/><path stroke="#757575" stroke-width="1.0" stroke-linecap="butt" d="M23.95 39.45L181.95 39.45L390.3802 35.148228" fill-rule="nonzero"/><path fill="#9e9e9e" d="M392.3802 35.148228C392.3802 34.04366 391.48474 33.148228 390.3802 33.148228C389.2756 33.148228 388.3802 34.04366 388.3802 35.148228C388.3802 36.252796 389.2756 37.148228 390.3802 37.148228C391.48474 37.148228 392.3802 36.252796 392.3802 35.148228" fill-rule="nonzero"/><path fill="#1a1a1a" d="M23.934376 189.43384L27.23125 180.84009L28.45 180.84009L31.965626 189.43384L30.684376 189.43384L29.66875 186.82446L26.090626 186.82446L25.1375 189.43384L23.934376 189.43384ZM26.41875 185.90259L29.325 185.90259L28.434376 183.52759Q28.0125 182.44946 27.825 181.74634Q27.653126 182.57446 27.35625 183.38696L26.41875 185.90259ZM31.746876 189.43384L31.746876 183.21509L32.684376 183.21509L32.684376 184.09009Q33.371876 183.07446 34.66875 183.07446Q35.23125 183.07446 35.7 183.27759Q36.184376 183.48071 36.41875 183.80884Q36.653126 184.13696 36.746876 184.57446Q36.79375 184.87134 36.79375 185.60571L36.79375 189.43384L35.746876 189.43384L35.746876 185.65259Q35.746876 184.99634 35.621876 184.68384Q35.496876 184.37134 35.184376 184.18384Q34.871876 183.98071 34.45 183.98071Q33.778126 183.98071 33.278126 184.41821Q32.79375 184.84009 32.79375 186.02759L32.79375 189.43384L31.746876 189.43384ZM38.746876 189.43384L38.746876 183.21509L39.684376 183.21509L39.684376 184.09009Q40.371876 183.07446 41.66875 183.07446Q42.23125 183.07446 42.7 183.27759Q43.184376 183.48071 43.41875 183.80884Q43.653126 184.13696 43.746876 184.57446Q43.79375 184.87134 43.79375 185.60571L43.79375 189.43384L42.746876 189.43384L42.746876 185.65259Q42.746876 184.99634 42.621876 184.68384Q42.496876 184.37134 42.184376 184.18384Q41.871876 183.98071 41.45 183.98071Q40.778126 183.98071 40.278126 184.41821Q39.79375 184.84009 39.79375 186.02759L39.79375 189.43384L38.746876 189.43384ZM49.825 189.43384L49.825 188.51196Q49.090626 189.57446 47.840626 189.57446Q47.29375 189.57446 46.809376 189.37134Q46.340626 189.15259 46.10625 188.84009Q45.871876 188.51196 45.778126 188.04321Q45.715626 187.74634 45.715626 187.05884L45.715626 183.21509L46.778126 183.21509L46.778126 186.66821Q46.778126 187.48071 46.840626 187.77759Q46.934376 188.18384 47.246876 188.43384Q47.575 188.66821 48.059376 188.66821Q48.528126 188.66821 48.934376 188.43384Q49.35625 188.18384 49.528126 187.76196Q49.715626 187.34009 49.715626 186.54321L49.715626 183.21509L50.7625 183.21509L50.7625 189.43384L49.825 189.43384ZM56.809376 188.66821Q56.215626 189.16821 55.66875 189.37134Q55.1375 189.57446 54.5125 189.57446Q53.48125 189.57446 52.934376 189.07446Q52.3875 188.57446 52.3875 187.79321Q52.3875 187.34009 52.590626 186.96509Q52.79375 186.57446 53.1375 186.35571Q53.48125 186.12134 53.903126 186.01196Q54.2 185.91821 54.840626 185.84009Q56.10625 185.69946 56.715626 185.48071Q56.715626 185.26196 56.715626 185.21509Q56.715626 184.55884 56.41875 184.29321Q56.0125 183.94946 55.215626 183.94946Q54.48125 183.94946 54.121876 184.21509Q53.7625 184.46509 53.590626 185.12134L52.559376 184.98071Q52.7 184.32446 53.028126 183.91821Q53.35625 183.51196 53.965626 183.29321Q54.575 183.07446 55.371876 183.07446Q56.16875 183.07446 56.66875 183.26196Q57.16875 183.44946 57.403126 183.73071Q57.6375 184.01196 57.73125 184.44946Q57.778126 184.71509 57.778126 185.41821L57.778126 186.82446Q57.778126 188.29321 57.840626 188.68384Q57.91875 189.07446 58.121876 189.43384L57.0125 189.43384Q56.85625 189.10571 56.809376 188.66821ZM56.715626 186.30884Q56.1375 186.54321 54.996876 186.71509Q54.340626 186.80884 54.075 186.93384Q53.809376 187.04321 53.653126 187.26196Q53.5125 187.48071 53.5125 187.76196Q53.5125 188.18384 53.825 188.46509Q54.153126 188.74634 54.7625 188.74634Q55.371876 188.74634 55.840626 188.48071Q56.325 188.21509 56.54375 187.74634Q56.715626 187.38696 56.715626 186.69946L56.715626 186.30884ZM59.715626 189.43384L59.715626 180.84009L60.778126 180.84009L60.778126 189.43384L59.715626 189.43384Z" fill-rule="nonzero"/><path fill="#9e9e9e" d="M24.45 204.16821L25.5125 204.02759Q25.684376 204.91821 26.121876 205.32446Q26.559376 205.71509 27.184376 205.71509Q27.934376 205.71509 28.45 205.19946Q28.965626 204.68384 28.965626 203.91821Q28.965626 203.19946 28.48125 202.73071Q28.0125 202.24634 27.278126 202.24634Q26.98125 202.24634 26.528126 202.37134L26.653126 201.43384Q26.7625 201.44946 26.825 201.44946Q27.496876 201.44946 28.028126 201.10571Q28.575 200.74634 28.575 200.01196Q28.575 199.43384 28.184376 199.05884Q27.79375 198.66821 27.16875 198.66821Q26.559376 198.66821 26.1375 199.05884Q25.73125 199.44946 25.621876 200.21509L24.559376 200.02759Q24.746876 198.98071 25.434376 198.40259Q26.121876 197.80884 27.1375 197.80884Q27.840626 197.80884 28.434376 198.12134Q29.028126 198.41821 29.340626 198.93384Q29.653126 199.44946 29.653126 200.04321Q29.653126 200.59009 29.35625 201.05884Q29.059376 201.51196 28.48125 201.77759Q29.23125 201.94946 29.653126 202.51196Q30.075 203.05884 30.075 203.90259Q30.075 205.02759 29.246876 205.80884Q28.434376 206.59009 27.184376 206.59009Q26.059376 206.59009 25.309376 205.91821Q24.559376 205.23071 24.45 204.16821ZM33.075 201.77759Q32.41875 201.52759 32.090626 201.09009Q31.778126 200.63696 31.778126 200.02759Q31.778126 199.09009 32.45 198.44946Q33.1375 197.80884 34.246876 197.80884Q35.371876 197.80884 36.059376 198.46509Q36.746876 199.12134 36.746876 200.05884Q36.746876 200.65259 36.434376 201.09009Q36.121876 201.52759 35.48125 201.77759Q36.278126 202.02759 36.684376 202.60571Q37.090626 203.18384 37.090626 203.98071Q37.090626 205.07446 36.309376 205.82446Q35.54375 206.57446 34.2625 206.57446Q32.996876 206.57446 32.215626 205.82446Q31.434376 205.07446 31.434376 203.94946Q31.434376 203.10571 31.85625 202.54321Q32.29375 201.98071 33.075 201.77759ZM32.85625 199.98071Q32.85625 200.59009 33.246876 200.98071Q33.653126 201.37134 34.278126 201.37134Q34.8875 201.37134 35.278126 200.99634Q35.66875 200.60571 35.66875 200.04321Q35.66875 199.46509 35.2625 199.07446Q34.85625 198.66821 34.2625 198.66821Q33.653126 198.66821 33.246876 199.05884Q32.85625 199.44946 32.85625 199.98071ZM32.528126 203.94946Q32.528126 204.40259 32.73125 204.82446Q32.95 205.24634 33.371876 205.48071Q33.79375 205.71509 34.278126 205.71509Q35.028126 205.71509 35.5125 205.23071Q36.0125 204.74634 36.0125 203.99634Q36.0125 203.23071 35.5125 202.73071Q35.0125 202.23071 34.246876 202.23071Q33.496876 202.23071 33.0125 202.73071Q32.528126 203.21509 32.528126 203.94946ZM39.04375 206.43384L39.04375 205.23071L40.246876 205.23071L40.246876 206.43384L39.04375 206.43384ZM43.075 201.77759Q42.41875 201.52759 42.090626 201.09009Q41.778126 200.63696 41.778126 200.02759Q41.778126 199.09009 42.45 198.44946Q43.1375 197.80884 44.246876 197.80884Q45.371876 197.80884 46.059376 198.46509Q46.746876 199.12134 46.746876 200.05884Q46.746876 200.65259 46.434376 201.09009Q46.121876 201.52759 45.48125 201.77759Q46.278126 202.02759 46.684376 202.60571Q47.090626 203.18384 47.090626 203.98071Q47.090626 205.07446 46.309376 205.82446Q45.54375 206.57446 44.2625 206.57446Q42.996876 206.57446 42.215626 205.82446Q41.434376 205.07446 41.434376 203.94946Q41.434376 203.10571 41.85625 202.54321Q42.29375 201.98071 43.075 201.77759ZM42.85625 199.98071Q42.85625 200.59009 43.246876 200.98071Q43.653126 201.37134 44.278126 201.37134Q44.8875 201.37134 45.278126 200.99634Q45.66875 200.60571 45.66875 200.04321Q45.66875 199.46509 45.2625 199.07446Q44.85625 198.66821 44.2625 198.66821Q43.653126 198.66821 43.246876 199.05884Q42.85625 199.44946 42.85625 199.98071ZM42.528126 203.94946Q42.528126 204.40259 42.73125 204.82446Q42.95 205.24634 43.371876 205.48071Q43.79375 205.71509 44.278126 205.71509Q45.028126 205.71509 45.5125 205.23071Q46.0125 204.74634 46.0125 203.99634Q46.0125 203.23071 45.5125 202.73071Q45.0125 202.23071 44.246876 202.23071Q43.496876 202.23071 43.0125 202.73071Q42.528126 203.21509 42.528126 203.94946ZM48.653126 199.90259Q48.653126 198.98071 49.10625 198.34009Q49.575 197.69946 50.45 197.69946Q51.2625 197.69946 51.79375 198.27759Q52.325 198.85571 52.325 199.96509Q52.325 201.05884 51.778126 201.65259Q51.246876 202.23071 50.465626 202.23071Q49.684376 202.23071 49.16875 201.65259Q48.653126 201.07446 48.653126 199.90259ZM50.48125 198.41821Q50.090626 198.41821 49.825 198.76196Q49.575 199.10571 49.575 200.01196Q49.575 200.84009 49.825 201.18384Q50.090626 201.51196 50.48125 201.51196Q50.8875 201.51196 51.1375 201.16821Q51.403126 200.82446 51.403126 199.93384Q51.403126 199.09009 51.1375 198.76196Q50.871876 198.41821 50.48125 198.41821ZM50.48125 206.74634L55.184376 197.69946L56.04375 197.69946L51.35625 206.74634L50.48125 206.74634ZM54.2 204.41821Q54.2 203.49634 54.653126 202.85571Q55.121876 202.21509 56.0125 202.21509Q56.825 202.21509 57.35625 202.79321Q57.8875 203.35571 57.8875 204.48071Q57.8875 205.57446 57.340626 206.16821Q56.809376 206.74634 56.0125 206.74634Q55.246876 206.74634 54.715626 206.16821Q54.2 205.59009 54.2 204.41821ZM56.04375 202.93384Q55.6375 202.93384 55.371876 203.27759Q55.121876 203.62134 55.121876 204.52759Q55.121876 205.34009 55.3875 205.68384Q55.653126 206.02759 56.04375 206.02759Q56.434376 206.02759 56.7 205.68384Q56.965626 205.34009 56.965626 204.43384Q56.965626 203.60571 56.7 203.27759Q56.434376 202.93384 56.04375 202.93384Z" fill-rule="nonzero"/><path stroke="#757575" stroke-width="1.0" stroke-linecap="butt" d="M23.95 193.93384L181.95 193.93384L203.86157 193.93384" fill-rule="nonzero"/><path fill="#9e9e9e" d="M205.86157 193.93384C205.86157 192.82927 204.96614 191.93384 203.86157 191.93384C202.757 191.93384 201.86157 192.82927 201.86157 193.93384C201.86157 195.0384 202.757 195.93384 203.86157 195.93384C204.96614 195.93384 205.86157 195.0384 205.86157 193.93384" fill-rule="nonzero"/><path fill="#1a1a1a" d="M742.9406 293.26343L742.9406 284.66968L744.65936 284.66968L746.6906 290.7478Q746.97186 291.60718 747.09686 292.02905Q747.2375 291.5603 747.55 290.65405L749.6125 284.66968L751.14374 284.66968L751.14374 293.26343L750.05 293.26343L750.05 286.07593L747.55 293.26343L746.51874 293.26343L744.03436 285.95093L744.03436 293.26343L742.9406 293.26343ZM751.45624 290.15405Q751.45624 288.41968 752.40936 287.59155Q753.20624 286.90405 754.3625 286.90405Q755.64374 286.90405 756.45624 287.7478Q757.28436 288.57593 757.28436 290.0603Q757.28436 291.26343 756.925 291.95093Q756.5656 292.63843 755.8625 293.02905Q755.175 293.40405 754.3625 293.40405Q753.0656 293.40405 752.2531 292.57593Q751.45624 291.73218 751.45624 290.15405ZM752.53436 290.15405Q752.53436 291.34155 753.05 291.9353Q753.58124 292.52905 754.3625 292.52905Q755.15936 292.52905 755.675 291.9353Q756.1906 291.34155 756.1906 290.1228Q756.1906 288.96655 755.65936 288.3728Q755.14374 287.77905 754.3625 287.77905Q753.58124 287.77905 753.05 288.3728Q752.53436 288.95093 752.53436 290.15405ZM758.84686 293.26343L758.84686 287.04468L759.78436 287.04468L759.78436 287.91968Q760.47186 286.90405 761.76874 286.90405Q762.33124 286.90405 762.8 287.10718Q763.28436 287.3103 763.51874 287.63843Q763.7531 287.96655 763.84686 288.40405Q763.89374 288.70093 763.89374 289.4353L763.89374 293.26343L762.84686 293.26343L762.84686 289.48218Q762.84686 288.82593 762.72186 288.51343Q762.59686 288.20093 762.28436 288.01343Q761.97186 287.8103 761.55 287.8103Q760.8781 287.8103 760.3781 288.2478Q759.89374 288.66968 759.89374 289.85718L759.89374 293.26343L758.84686 293.26343ZM768.14374 292.32593L768.3 293.2478Q767.84686 293.34155 767.5031 293.34155Q766.925 293.34155 766.6125 293.16968Q766.3 292.98218 766.15936 292.6853Q766.03436 292.38843 766.03436 291.4353L766.03436 287.85718L765.26874 287.85718L765.26874 287.04468L766.03436 287.04468L766.03436 285.4978L767.08124 284.8728L767.08124 287.04468L768.14374 287.04468L768.14374 287.85718L767.08124 287.85718L767.08124 291.4978Q767.08124 291.95093 767.1281 292.07593Q767.1906 292.20093 767.3156 292.27905Q767.4406 292.35718 767.675 292.35718Q767.8625 292.35718 768.14374 292.32593ZM768.84686 293.26343L768.84686 284.66968L769.89374 284.66968L769.89374 287.7478Q770.6281 286.90405 771.7531 286.90405Q772.45624 286.90405 772.95624 287.1853Q773.47186 287.45093 773.6906 287.9353Q773.90936 288.40405 773.90936 289.32593L773.90936 293.26343L772.8625 293.26343L772.8625 289.32593Q772.8625 288.52905 772.51874 288.16968Q772.175 287.8103 771.55 287.8103Q771.08124 287.8103 770.65936 288.0603Q770.2531 288.29468 770.0656 288.71655Q769.89374 289.1228 769.89374 289.85718L769.89374 293.26343L768.84686 293.26343ZM775.8156 293.26343L775.8156 284.66968L776.8781 284.66968L776.8781 293.26343L775.8156 293.26343ZM778.8 295.65405L778.675 294.66968Q779.01874 294.76343 779.28436 294.76343Q779.6281 294.76343 779.83124 294.63843Q780.05 294.52905 780.1906 294.32593Q780.28436 294.15405 780.51874 293.52905Q780.53436 293.45093 780.6125 293.27905L778.2375 287.04468L779.3781 287.04468L780.675 290.63843Q780.925 291.32593 781.1281 292.09155Q781.3156 291.35718 781.5656 290.66968L782.89374 287.04468L783.9406 287.04468L781.58124 293.3728Q781.1906 294.38843 780.9875 294.77905Q780.70624 295.3103 780.33124 295.54468Q779.97186 295.79468 779.47186 295.79468Q779.175 295.79468 778.8 295.65405Z" fill-rule="nonzero"/><path fill="#9e9e9e" d="M748.55 308.01343L749.65936 307.91968Q749.78436 308.73218 750.22186 309.13843Q750.675 309.54468 751.3156 309.54468Q752.0656 309.54468 752.59686 308.96655Q753.1281 308.38843 753.1281 307.45093Q753.1281 306.54468 752.6125 306.02905Q752.1125 305.4978 751.28436 305.4978Q750.78436 305.4978 750.3625 305.73218Q749.95624 305.96655 749.72186 306.32593L748.7375 306.20093L749.5656 301.79468L753.84686 301.79468L753.84686 302.79468L750.40936 302.79468L749.95624 305.10718Q750.72186 304.5603 751.5656 304.5603Q752.6906 304.5603 753.45624 305.34155Q754.2375 306.1228 754.2375 307.35718Q754.2375 308.51343 753.5656 309.3728Q752.7375 310.40405 751.3156 310.40405Q750.14374 310.40405 749.39374 309.7478Q748.65936 309.09155 748.55 308.01343ZM755.70624 308.27905L756.72186 308.1853Q756.84686 308.90405 757.20624 309.23218Q757.58124 309.54468 758.14374 309.54468Q758.6281 309.54468 758.9875 309.32593Q759.3625 309.09155 759.59686 308.73218Q759.83124 308.35718 759.9875 307.73218Q760.14374 307.09155 760.14374 306.4353Q760.14374 306.35718 760.14374 306.21655Q759.83124 306.71655 759.28436 307.04468Q758.7375 307.35718 758.09686 307.35718Q757.01874 307.35718 756.28436 306.59155Q755.55 305.8103 755.55 304.54468Q755.55 303.23218 756.3156 302.4353Q757.09686 301.63843 758.2531 301.63843Q759.08124 301.63843 759.76874 302.09155Q760.47186 302.54468 760.83124 303.38843Q761.1906 304.21655 761.1906 305.79468Q761.1906 307.4353 760.83124 308.41968Q760.4875 309.38843 759.76874 309.90405Q759.0656 310.40405 758.1281 310.40405Q757.1125 310.40405 756.47186 309.85718Q755.83124 309.29468 755.70624 308.27905ZM760.01874 304.48218Q760.01874 303.57593 759.53436 303.04468Q759.0656 302.51343 758.3781 302.51343Q757.675 302.51343 757.14374 303.09155Q756.6281 303.65405 756.6281 304.57593Q756.6281 305.38843 757.1281 305.90405Q757.6281 306.41968 758.34686 306.41968Q759.08124 306.41968 759.55 305.90405Q760.01874 305.38843 760.01874 304.48218ZM763.14374 310.26343L763.14374 309.0603L764.34686 309.0603L764.34686 310.26343L763.14374 310.26343ZM771.09686 309.2478L771.09686 310.26343L765.40936 310.26343Q765.40936 309.88843 765.53436 309.52905Q765.7531 308.95093 766.22186 308.38843Q766.70624 307.82593 767.6125 307.09155Q769.01874 305.9353 769.5031 305.26343Q770.0031 304.59155 770.0031 303.9978Q770.0031 303.3728 769.55 302.95093Q769.09686 302.51343 768.3781 302.51343Q767.6125 302.51343 767.15936 302.96655Q766.70624 303.41968 766.6906 304.23218L765.6125 304.1228Q765.72186 302.90405 766.4406 302.27905Q767.175 301.63843 768.40936 301.63843Q769.64374 301.63843 770.3625 302.32593Q771.08124 303.01343 771.08124 304.02905Q771.08124 304.54468 770.8625 305.04468Q770.65936 305.52905 770.15936 306.09155Q769.675 306.63843 768.55 307.59155Q767.59686 308.38843 767.3156 308.6853Q767.05 308.96655 766.8781 309.2478L771.09686 309.2478ZM772.7531 303.73218Q772.7531 302.8103 773.20624 302.16968Q773.675 301.52905 774.55 301.52905Q775.3625 301.52905 775.89374 302.10718Q776.425 302.6853 776.425 303.79468Q776.425 304.88843 775.8781 305.48218Q775.34686 306.0603 774.5656 306.0603Q773.78436 306.0603 773.26874 305.48218Q772.7531 304.90405 772.7531 303.73218ZM774.58124 302.2478Q774.1906 302.2478 773.925 302.59155Q773.675 302.9353 773.675 303.84155Q773.675 304.66968 773.925 305.01343Q774.1906 305.34155 774.58124 305.34155Q774.9875 305.34155 775.2375 304.9978Q775.5031 304.65405 775.5031 303.76343Q775.5031 302.91968 775.2375 302.59155Q774.97186 302.2478 774.58124 302.2478ZM774.58124 310.57593L779.28436 301.52905L780.14374 301.52905L775.45624 310.57593L774.58124 310.57593ZM778.3 308.2478Q778.3 307.32593 778.7531 306.6853Q779.22186 306.04468 780.1125 306.04468Q780.925 306.04468 781.45624 306.6228Q781.9875 307.1853 781.9875 308.3103Q781.9875 309.40405 781.4406 309.9978Q780.90936 310.57593 780.1125 310.57593Q779.34686 310.57593 778.8156 309.9978Q778.3 309.41968 778.3 308.2478ZM780.14374 306.76343Q779.7375 306.76343 779.47186 307.10718Q779.22186 307.45093 779.22186 308.35718Q779.22186 309.16968 779.4875 309.51343Q779.7531 309.85718 780.14374 309.85718Q780.53436 309.85718 780.8 309.51343Q781.0656 309.16968 781.0656 308.26343Q781.0656 307.4353 780.8 307.10718Q780.53436 306.76343 780.14374 306.76343Z" fill-rule="nonzero"/><path stroke="#757575" stroke-width="1.0" stroke-linecap="butt" d="M783.05 297.76343L625.05 297.76343L599.80884 297.76343" fill-rule="nonzero"/><path fill="#9e9e9e" d="M601.80884 297.76343C601.80884 296.65884 600.9134 295.76343 599.80884 295.76343C598.7042 295.76343 597.80884 296.65884 597.80884 297.76343C597.80884 298.86798 598.7042 299.76343 599.80884 299.76343C600.9134 299.76343 601.80884 298.86798 601.80884 297.76343" fill-rule="nonzero"/></svg>