<svg version="1.1" viewBox="0.0 0.0 600.0 371.0" fill="none" stroke="none" stroke-linecap="square" stroke-miterlimit="10" width="600" height="371" xmlns:xlink="http://www.w3.org/1999/xlink" xmlns="http://www.w3.org/2000/svg"><path fill="#ffffff" d="M0 0L600.0 0L600.0 371.0L0 371.0L0 0Z" fill-rule="nonzero"/><path fill="#4285f4" d="M300.0 18.55C354.24612 18.55 405.11044 44.90576 436.39313 89.22322C467.6758 133.54068 475.47638 190.29414 457.31046 241.40816L300.0 185.5Z" fill-rule="nonzero"/><path fill="#46bdc6" d="M292.40134 18.723015C294.9326 18.607687 297.46613 18.55 300.0 18.55L300.0 185.5Z" fill-rule="nonzero"/><path fill="#ff6d01" d="M247.68723 26.957653C262.1467 22.186596 277.19086 19.41603 292.40134 18.723015L300.0 185.5Z" fill-rule="nonzero"/><path fill="#34a853" d="M140.30792 234.19029C113.848885 147.4112 161.5329 55.385212 247.68723 26.957653L300.0 185.5Z" fill-rule="nonzero"/><path fill="#fbbc04" d="M284.81842 351.7583C217.22864 345.58646 160.10222 299.1107 140.30792 234.19029L300.0 185.5Z" fill-rule="nonzero"/><path fill="#ea4335" d="M457.31046 241.40816C431.76932 313.27405 360.77206 358.69388 284.81842 351.7583L300.0 185.5Z" fill-rule="nonzero"/><path fill="#1a1a1a" d="M23.01875 29.55L21.971874 29.55L21.971874 22.83125Q21.58125 23.190624 20.95625 23.565624Q20.346874 23.925 19.8625 24.096874L19.8625 23.08125Q20.7375 22.659374 21.39375 22.08125Q22.065624 21.4875 22.346874 20.925L23.01875 20.925L23.01875 29.55ZM28.925 26.971874L28.925 25.909374L32.175 25.909374L32.175 26.971874L28.925 26.971874ZM38.596874 28.534374L38.596874 29.55L32.909374 29.55Q32.909374 29.175 33.034374 28.815624Q33.253124 28.2375 33.721874 27.675Q34.20625 27.1125 35.1125 26.378124Q36.51875 25.221874 37.003124 24.55Q37.503124 23.878124 37.503124 23.284374Q37.503124 22.659374 37.05 22.2375Q36.596874 21.8 35.878124 21.8Q35.1125 21.8 34.659374 22.253124Q34.20625 22.70625 34.190624 23.51875L33.1125 23.409374Q33.221874 22.190624 33.940624 21.565624Q34.675 20.925 35.909374 20.925Q37.14375 20.925 37.8625 21.6125Q38.58125 22.3 38.58125 23.315624Q38.58125 23.83125 38.3625 24.33125Q38.159374 24.815624 37.659374 25.378124Q37.175 25.925 36.05 26.878124Q35.096874 27.675 34.815624 27.971874Q34.55 28.253124 34.378124 28.534374L38.596874 28.534374ZM43.3 31.940624L43.175 30.95625Q43.51875 31.05 43.784374 31.05Q44.128124 31.05 44.33125 30.925Q44.55 30.815624 44.690624 30.6125Q44.784374 30.440624 45.01875 29.815624Q45.034374 29.7375 45.1125 29.565624L42.7375 23.33125L43.878124 23.33125L45.175 26.925Q45.425 27.6125 45.628124 28.378124Q45.815624 27.64375 46.065624 26.95625L47.39375 23.33125L48.440624 23.33125L46.08125 29.659374Q45.690624 30.675 45.4875 31.065624Q45.20625 31.596874 44.83125 31.83125Q44.471874 32.08125 43.971874 32.08125Q43.675 32.08125 43.3 31.940624ZM52.596874 27.55L53.690624 27.675Q53.440624 28.628124 52.7375 29.159374Q52.034374 29.690624 50.95625 29.690624Q49.596874 29.690624 48.784374 28.846874Q47.9875 28.003124 47.9875 26.4875Q47.9875 24.925 48.8 24.065624Q49.6125 23.190624 50.89375 23.190624Q52.14375 23.190624 52.925 24.034374Q53.721874 24.878124 53.721874 26.425Q53.721874 26.51875 53.721874 26.70625L49.08125 26.70625Q49.14375 27.7375 49.659374 28.284374Q50.175 28.815624 50.95625 28.815624Q51.534374 28.815624 51.940624 28.51875Q52.3625 28.20625 52.596874 27.55ZM49.14375 25.846874L52.6125 25.846874Q52.55 25.05 52.221874 24.659374Q51.70625 24.05 50.909374 24.05Q50.175 24.05 49.675 24.534374Q49.190624 25.01875 49.14375 25.846874ZM59.409374 28.784374Q58.815624 29.284374 58.26875 29.4875Q57.7375 29.690624 57.1125 29.690624Q56.08125 29.690624 55.534374 29.190624Q54.9875 28.690624 54.9875 27.909374Q54.9875 27.45625 55.190624 27.08125Q55.39375 26.690624 55.7375 26.471874Q56.08125 26.2375 56.503124 26.128124Q56.8 26.034374 57.440624 25.95625Q58.70625 25.815624 59.315624 25.596874Q59.315624 25.378124 59.315624 25.33125Q59.315624 24.675 59.01875 24.409374Q58.6125 24.065624 57.815624 24.065624Q57.08125 24.065624 56.721874 24.33125Q56.3625 24.58125 56.190624 25.2375L55.159374 25.096874Q55.3 24.440624 55.628124 24.034374Q55.95625 23.628124 56.565624 23.409374Q57.175 23.190624 57.971874 23.190624Q58.76875 23.190624 59.26875 23.378124Q59.76875 23.565624 60.003124 23.846874Q60.2375 24.128124 60.33125 24.565624Q60.378124 24.83125 60.378124 25.534374L60.378124 26.940624Q60.378124 28.409374 60.440624 28.8Q60.51875 29.190624 60.721874 29.55L59.6125 29.55Q59.45625 29.221874 59.409374 28.784374ZM59.315624 26.425Q58.7375 26.659374 57.596874 26.83125Q56.940624 26.925 56.675 27.05Q56.409374 27.159374 56.253124 27.378124Q56.1125 27.596874 56.1125 27.878124Q56.1125 28.3 56.425 28.58125Q56.753124 28.8625 57.3625 28.8625Q57.971874 28.8625 58.440624 28.596874Q58.925 28.33125 59.14375 27.8625Q59.315624 27.503124 59.315624 26.815624L59.315624 26.425ZM62.33125 29.55L62.33125 23.33125L63.284374 23.33125L63.284374 24.26875Q63.64375 23.6125 63.940624 23.409374Q64.25313 23.190624 64.62813 23.190624Q65.15938 23.190624 65.70625 23.51875L65.34688 24.503124Q64.95625 24.26875 64.58125 24.26875Q64.22188 24.26875 63.940624 24.4875Q63.675 24.690624 63.565624 25.065624Q63.378124 25.628124 63.378124 26.284374L63.378124 29.55L62.33125 29.55ZM65.925 27.690624L66.95625 27.534374Q67.05 28.159374 67.44063 28.4875Q67.84688 28.815624 68.58125 28.815624Q69.3 28.815624 69.64375 28.534374Q70.00313 28.2375 70.00313 27.83125Q70.00313 27.471874 69.69063 27.26875Q69.47188 27.128124 68.6125 26.909374Q67.45625 26.6125 67.00313 26.409374Q66.56563 26.190624 66.33125 25.815624Q66.09688 25.440624 66.09688 24.971874Q66.09688 24.565624 66.28438 24.20625Q66.47188 23.846874 66.8 23.6125Q67.05 23.440624 67.47188 23.315624Q67.89375 23.190624 68.39375 23.190624Q69.1125 23.190624 69.65938 23.409374Q70.22188 23.6125 70.4875 23.971874Q70.75313 24.33125 70.84688 24.925L69.81563 25.065624Q69.75313 24.596874 69.40938 24.33125Q69.08125 24.05 68.45625 24.05Q67.7375 24.05 67.425 24.3Q67.1125 24.534374 67.1125 24.8625Q67.1125 25.065624 67.2375 25.221874Q67.37813 25.39375 67.64375 25.503124Q67.8 25.565624 68.58125 25.76875Q69.70625 26.08125 70.14375 26.26875Q70.58125 26.45625 70.83125 26.815624Q71.08125 27.175 71.08125 27.721874Q71.08125 28.253124 70.76875 28.721874Q70.47188 29.175 69.89375 29.440624Q69.31563 29.690624 68.58125 29.690624Q67.3625 29.690624 66.72188 29.190624Q66.09688 28.675 65.925 27.690624Z" fill-rule="nonzero"/><path fill="#9e9e9e" d="M22.425 46.55L22.425 44.4875L18.70625 44.4875L18.70625 43.51875L22.628124 37.95625L23.4875 37.95625L23.4875 43.51875L24.64375 43.51875L24.64375 44.4875L23.4875 44.4875L23.4875 46.55L22.425 46.55ZM22.425 43.51875L22.425 39.659374L19.7375 43.51875L22.425 43.51875ZM26.64375 46.55L26.64375 45.346874L27.846874 45.346874L27.846874 46.55L26.64375 46.55ZM29.05 44.284374L30.1125 44.14375Q30.284374 45.034374 30.721874 45.440624Q31.159374 45.83125 31.784374 45.83125Q32.534374 45.83125 33.05 45.315624Q33.565624 44.8 33.565624 44.034374Q33.565624 43.315624 33.08125 42.846874Q32.6125 42.3625 31.878124 42.3625Q31.58125 42.3625 31.128124 42.4875L31.253124 41.55Q31.3625 41.565624 31.425 41.565624Q32.096874 41.565624 32.628124 41.221874Q33.175 40.8625 33.175 40.128124Q33.175 39.55 32.784374 39.175Q32.39375 38.784374 31.76875 38.784374Q31.159374 38.784374 30.7375 39.175Q30.33125 39.565624 30.221874 40.33125L29.159374 40.14375Q29.346874 39.096874 30.034374 38.51875Q30.721874 37.925 31.7375 37.925Q32.440624 37.925 33.034374 38.2375Q33.628124 38.534374 33.940624 39.05Q34.253124 39.565624 34.253124 40.159374Q34.253124 40.70625 33.95625 41.175Q33.659374 41.628124 33.08125 41.89375Q33.83125 42.065624 34.253124 42.628124Q34.675 43.175 34.675 44.01875Q34.675 45.14375 33.846874 45.925Q33.034374 46.70625 31.784374 46.70625Q30.659374 46.70625 29.909374 46.034374Q29.159374 45.346874 29.05 44.284374ZM36.253124 40.01875Q36.253124 39.096874 36.70625 38.45625Q37.175 37.815624 38.05 37.815624Q38.8625 37.815624 39.39375 38.39375Q39.925 38.971874 39.925 40.08125Q39.925 41.175 39.378124 41.76875Q38.846874 42.346874 38.065624 42.346874Q37.284374 42.346874 36.76875 41.76875Q36.253124 41.190624 36.253124 40.01875ZM38.08125 38.534374Q37.690624 38.534374 37.425 38.878124Q37.175 39.221874 37.175 40.128124Q37.175 40.95625 37.425 41.3Q37.690624 41.628124 38.08125 41.628124Q38.4875 41.628124 38.7375 41.284374Q39.003124 40.940624 39.003124 40.05Q39.003124 39.20625 38.7375 38.878124Q38.471874 38.534374 38.08125 38.534374ZM38.08125 46.8625L42.784374 37.815624L43.64375 37.815624L38.95625 46.8625L38.08125 46.8625ZM41.8 44.534374Q41.8 43.6125 42.253124 42.971874Q42.721874 42.33125 43.6125 42.33125Q44.425 42.33125 44.95625 42.909374Q45.4875 43.471874 45.4875 44.596874Q45.4875 45.690624 44.940624 46.284374Q44.409374 46.8625 43.6125 46.8625Q42.846874 46.8625 42.315624 46.284374Q41.8 45.70625 41.8 44.534374ZM43.64375 43.05Q43.2375 43.05 42.971874 43.39375Q42.721874 43.7375 42.721874 44.64375Q42.721874 45.45625 42.9875 45.8Q43.253124 46.14375 43.64375 46.14375Q44.034374 46.14375 44.3 45.8Q44.565624 45.45625 44.565624 44.55Q44.565624 43.721874 44.3 43.39375Q44.034374 43.05 43.64375 43.05Z" fill-rule="nonzero"/><path stroke="#757575" stroke-width="1.0" stroke-linecap="butt" d="M18.55 34.05L127.05 34.05L271.2745 29.520515" fill-rule="nonzero"/><path fill="#9e9e9e" d="M273.2745 29.520515C273.2745 28.415945 272.3791 27.520515 271.2745 27.520515C270.16995 27.520515 269.2745 28.415945 269.2745 29.520515C269.2745 30.625086 270.16995 31.520515 271.2745 31.520515C272.3791 31.520515 273.2745 30.625086 273.2745 29.520515" fill-rule="nonzero"/><path fill="#1a1a1a" d="M19.1125 100.56378L19.1125 99.54816L24.675 99.54816L24.675 100.37628Q23.8625 101.25128 23.05 102.70441Q22.253124 104.14191 21.815624 105.67316Q21.4875 106.75128 21.409374 108.03253L20.315624 108.03253Q20.33125 107.01691 20.70625 105.57941Q21.096874 104.14191 21.8 102.81378Q22.51875 101.48566 23.33125 100.56378L19.1125 100.56378ZM25.925 105.45441L25.925 104.39191L29.175 104.39191L29.175 105.45441L25.925 105.45441ZM30.20625 106.04816L31.221874 105.95441Q31.346874 106.67316 31.70625 107.00128Q32.08125 107.31378 32.64375 107.31378Q33.128124 107.31378 33.4875 107.09503Q33.8625 106.86066 34.096874 106.50128Q34.33125 106.12628 34.4875 105.50128Q34.64375 104.86066 34.64375 104.20441Q34.64375 104.12628 34.64375 103.98566Q34.33125 104.48566 33.784374 104.81378Q33.2375 105.12628 32.596874 105.12628Q31.51875 105.12628 30.784374 104.36066Q30.05 103.57941 30.05 102.31378Q30.05 101.00128 30.815624 100.20441Q31.596874 99.40753 32.753124 99.40753Q33.58125 99.40753 34.26875 99.86066Q34.971874 100.31378 35.33125 101.15753Q35.690624 101.98566 35.690624 103.56378Q35.690624 105.20441 35.33125 106.18878Q34.9875 107.15753 34.26875 107.67316Q33.565624 108.17316 32.628124 108.17316Q31.6125 108.17316 30.971874 107.62628Q30.33125 107.06378 30.20625 106.04816ZM34.51875 102.25128Q34.51875 101.34503 34.034374 100.81378Q33.565624 100.28253 32.878124 100.28253Q32.175 100.28253 31.64375 100.86066Q31.128124 101.42316 31.128124 102.34503Q31.128124 103.15753 31.628124 103.67316Q32.128124 104.18878 32.846874 104.18878Q33.58125 104.18878 34.05 103.67316Q34.51875 103.15753 34.51875 102.25128ZM40.3 110.42316L40.175 109.43878Q40.51875 109.53253 40.784374 109.53253Q41.128124 109.53253 41.33125 109.40753Q41.55 109.29816 41.690624 109.09503Q41.784374 108.92316 42.01875 108.29816Q42.034374 108.22003 42.1125 108.04816L39.7375 101.81378L40.878124 101.81378L42.175 105.40753Q42.425 106.09503 42.628124 106.86066Q42.815624 106.12628 43.065624 105.43878L44.39375 101.81378L45.440624 101.81378L43.08125 108.14191Q42.690624 109.15753 42.4875 109.54816Q42.20625 110.07941 41.83125 110.31378Q41.471874 110.56378 40.971874 110.56378Q40.675 110.56378 40.3 110.42316ZM49.596874 106.03253L50.690624 106.15753Q50.440624 107.11066 49.7375 107.64191Q49.034374 108.17316 47.95625 108.17316Q46.596874 108.17316 45.784374 107.32941Q44.9875 106.48566 44.9875 104.97003Q44.9875 103.40753 45.8 102.54816Q46.6125 101.67316 47.89375 101.67316Q49.14375 101.67316 49.925 102.51691Q50.721874 103.36066 50.721874 104.90753Q50.721874 105.00128 50.721874 105.18878L46.08125 105.18878Q46.14375 106.22003 46.659374 106.76691Q47.175 107.29816 47.95625 107.29816Q48.534374 107.29816 48.940624 107.00128Q49.3625 106.68878 49.596874 106.03253ZM46.14375 104.32941L49.6125 104.32941Q49.55 103.53253 49.221874 103.14191Q48.70625 102.53253 47.909374 102.53253Q47.175 102.53253 46.675 103.01691Q46.190624 103.50128 46.14375 104.32941ZM56.409374 107.26691Q55.815624 107.76691 55.26875 107.97003Q54.7375 108.17316 54.1125 108.17316Q53.08125 108.17316 52.534374 107.67316Q51.9875 107.17316 51.9875 106.39191Q51.9875 105.93878 52.190624 105.56378Q52.39375 105.17316 52.7375 104.95441Q53.08125 104.72003 53.503124 104.61066Q53.8 104.51691 54.440624 104.43878Q55.70625 104.29816 56.315624 104.07941Q56.315624 103.86066 56.315624 103.81378Q56.315624 103.15753 56.01875 102.89191Q55.6125 102.54816 54.815624 102.54816Q54.08125 102.54816 53.721874 102.81378Q53.3625 103.06378 53.190624 103.72003L52.159374 103.57941Q52.3 102.92316 52.628124 102.51691Q52.95625 102.11066 53.565624 101.89191Q54.175 101.67316 54.971874 101.67316Q55.76875 101.67316 56.26875 101.86066Q56.76875 102.04816 57.003124 102.32941Q57.2375 102.61066 57.33125 103.04816Q57.378124 103.31378 57.378124 104.01691L57.378124 105.42316Q57.378124 106.89191 57.440624 107.28253Q57.51875 107.67316 57.721874 108.03253L56.6125 108.03253Q56.45625 107.70441 56.409374 107.26691ZM56.315624 104.90753Q55.7375 105.14191 54.596874 105.31378Q53.940624 105.40753 53.675 105.53253Q53.409374 105.64191 53.253124 105.86066Q53.1125 106.07941 53.1125 106.36066Q53.1125 106.78253 53.425 107.06378Q53.753124 107.34503 54.3625 107.34503Q54.971874 107.34503 55.440624 107.07941Q55.925 106.81378 56.14375 106.34503Q56.315624 105.98566 56.315624 105.29816L56.315624 104.90753ZM59.33125 108.03253L59.33125 101.81378L60.284374 101.81378L60.284374 102.75128Q60.64375 102.09503 60.940624 101.89191Q61.253124 101.67316 61.628124 101.67316Q62.159374 101.67316 62.70625 102.00128L62.346874 102.98566Q61.95625 102.75128 61.58125 102.75128Q61.221874 102.75128 60.940624 102.97003Q60.675 103.17316 60.565624 103.54816Q60.378124 104.11066 60.378124 104.76691L60.378124 108.03253L59.33125 108.03253ZM62.925 106.17316L63.95625 106.01691Q64.05 106.64191 64.44063 106.97003Q64.84688 107.29816 65.58125 107.29816Q66.3 107.29816 66.64375 107.01691Q67.00313 106.72003 67.00313 106.31378Q67.00313 105.95441 66.69063 105.75128Q66.47188 105.61066 65.6125 105.39191Q64.45625 105.09503 64.00313 104.89191Q63.565624 104.67316 63.33125 104.29816Q63.096874 103.92316 63.096874 103.45441Q63.096874 103.04816 63.284374 102.68878Q63.471874 102.32941 63.8 102.09503Q64.05 101.92316 64.47188 101.79816Q64.89375 101.67316 65.39375 101.67316Q66.1125 101.67316 66.65938 101.89191Q67.22188 102.09503 67.4875 102.45441Q67.75313 102.81378 67.84688 103.40753L66.81563 103.54816Q66.75313 103.07941 66.40938 102.81378Q66.08125 102.53253 65.45625 102.53253Q64.7375 102.53253 64.425 102.78253Q64.1125 103.01691 64.1125 103.34503Q64.1125 103.54816 64.2375 103.70441Q64.37813 103.87628 64.64375 103.98566Q64.8 104.04816 65.58125 104.25128Q66.70625 104.56378 67.14375 104.75128Q67.58125 104.93878 67.83125 105.29816Q68.08125 105.65753 68.08125 106.20441Q68.08125 106.73566 67.76875 107.20441Q67.47188 107.65753 66.89375 107.92316Q66.31563 108.17316 65.58125 108.17316Q64.3625 108.17316 63.721874 107.67316Q63.096874 107.15753 62.925 106.17316Z" fill-rule="nonzero"/><path fill="#9e9e9e" d="M24.596874 124.01691L24.596874 125.03253L18.909374 125.03253Q18.909374 124.65753 19.034374 124.29816Q19.253124 123.72003 19.721874 123.15753Q20.20625 122.59503 21.1125 121.86066Q22.51875 120.70441 23.003124 120.03253Q23.503124 119.36066 23.503124 118.76691Q23.503124 118.14191 23.05 117.72003Q22.596874 117.28253 21.878124 117.28253Q21.1125 117.28253 20.659374 117.73566Q20.20625 118.18878 20.190624 119.00128L19.1125 118.89191Q19.221874 117.67316 19.940624 117.04816Q20.675 116.40753 21.909374 116.40753Q23.14375 116.40753 23.8625 117.09503Q24.58125 117.78253 24.58125 118.79816Q24.58125 119.31378 24.3625 119.81378Q24.159374 120.29816 23.659374 120.86066Q23.175 121.40753 22.05 122.36066Q21.096874 123.15753 20.815624 123.45441Q20.55 123.73566 20.378124 124.01691L24.596874 124.01691ZM29.425 125.03253L29.425 122.97003L25.70625 122.97003L25.70625 122.00128L29.628124 116.43878L30.4875 116.43878L30.4875 122.00128L31.64375 122.00128L31.64375 122.97003L30.4875 122.97003L30.4875 125.03253L29.425 125.03253ZM29.425 122.00128L29.425 118.14191L26.7375 122.00128L29.425 122.00128ZM33.64375 125.03253L33.64375 123.82941L34.846874 123.82941L34.846874 125.03253L33.64375 125.03253ZM41.51875 118.54816L40.471874 118.62628Q40.33125 118.00128 40.08125 117.72003Q39.64375 117.26691 39.01875 117.26691Q38.51875 117.26691 38.128124 117.54816Q37.64375 117.92316 37.346874 118.62628Q37.065624 119.31378 37.05 120.59503Q37.425 120.01691 37.971874 119.73566Q38.534374 119.45441 39.14375 119.45441Q40.190624 119.45441 40.925 120.23566Q41.675 121.01691 41.675 122.23566Q41.675 123.04816 41.315624 123.75128Q40.971874 124.43878 40.3625 124.81378Q39.753124 125.17316 38.9875 125.17316Q37.659374 125.17316 36.83125 124.20441Q36.003124 123.23566 36.003124 121.01691Q36.003124 118.51691 36.925 117.39191Q37.721874 116.40753 39.08125 116.40753Q40.096874 116.40753 40.7375 116.98566Q41.39375 117.54816 41.51875 118.54816ZM37.221874 122.25128Q37.221874 122.79816 37.440624 123.29816Q37.675 123.78253 38.08125 124.04816Q38.503124 124.31378 38.971874 124.31378Q39.628124 124.31378 40.1125 123.78253Q40.596874 123.23566 40.596874 122.31378Q40.596874 121.42316 40.1125 120.90753Q39.64375 120.39191 38.925 120.39191Q38.20625 120.39191 37.70625 120.90753Q37.221874 121.42316 37.221874 122.25128ZM43.253124 118.50128Q43.253124 117.57941 43.70625 116.93878Q44.175 116.29816 45.05 116.29816Q45.8625 116.29816 46.39375 116.87628Q46.925 117.45441 46.925 118.56378Q46.925 119.65753 46.378124 120.25128Q45.846874 120.82941 45.065624 120.82941Q44.284374 120.82941 43.76875 120.25128Q43.253124 119.67316 43.253124 118.50128ZM45.08125 117.01691Q44.690624 117.01691 44.425 117.36066Q44.175 117.70441 44.175 118.61066Q44.175 119.43878 44.425 119.78253Q44.690624 120.11066 45.08125 120.11066Q45.4875 120.11066 45.7375 119.76691Q46.003124 119.42316 46.003124 118.53253Q46.003124 117.68878 45.7375 117.36066Q45.471874 117.01691 45.08125 117.01691ZM45.08125 125.34503L49.784374 116.29816L50.64375 116.29816L45.95625 125.34503L45.08125 125.34503ZM48.8 123.01691Q48.8 122.09503 49.253124 121.45441Q49.721874 120.81378 50.6125 120.81378Q51.425 120.81378 51.95625 121.39191Q52.4875 121.95441 52.4875 123.07941Q52.4875 124.17316 51.940624 124.76691Q51.409374 125.34503 50.6125 125.34503Q49.846874 125.34503 49.315624 124.76691Q48.8 124.18878 48.8 123.01691ZM50.64375 121.53253Q50.2375 121.53253 49.971874 121.87628Q49.721874 122.22003 49.721874 123.12628Q49.721874 123.93878 49.9875 124.28253Q50.253124 124.62628 50.64375 124.62628Q51.034374 124.62628 51.3 124.28253Q51.565624 123.93878 51.565624 123.03253Q51.565624 122.20441 51.3 121.87628Q51.034374 121.53253 50.64375 121.53253Z" fill-rule="nonzero"/><path stroke="#757575" stroke-width="1.0" stroke-linecap="butt" d="M18.55 112.53253L127.05 112.53253L159.17918 112.53253" fill-rule="nonzero"/><path fill="#9e9e9e" d="M161.17918 112.53253C161.17918 111.42796 160.28375 110.53253 159.17918 110.53253C158.07462 110.53253 157.17918 111.42796 157.17918 112.53253C157.17918 113.63711 158.07462 114.53253 159.17918 114.53253C160.28375 114.53253 161.17918 113.63711 161.17918 112.53253" fill-rule="nonzero"/><path fill="#1a1a1a" d="M23.01875 304.02975L21.971874 304.02975L21.971874 297.311Q21.58125 297.67038 20.95625 298.04538Q20.346874 298.40475 19.8625 298.57663L19.8625 297.561Q20.7375 297.13913 21.39375 296.561Q22.065624 295.96725 22.346874 295.40475L23.01875 295.40475L23.01875 304.02975ZM26.05 299.79538Q26.05 298.26413 26.3625 297.34225Q26.675 296.40475 27.284374 295.90475Q27.909374 295.40475 28.846874 295.40475Q29.534374 295.40475 30.05 295.686Q30.58125 295.96725 30.925 296.4985Q31.26875 297.01413 31.45625 297.76413Q31.64375 298.51413 31.64375 299.79538Q31.64375 301.311 31.33125 302.23288Q31.034374 303.15475 30.409374 303.67038Q29.8 304.17038 28.846874 304.17038Q27.6125 304.17038 26.89375 303.27975Q26.05 302.21725 26.05 299.79538ZM27.128124 299.79538Q27.128124 301.90475 27.628124 302.60788Q28.128124 303.311 28.846874 303.311Q29.58125 303.311 30.065624 302.60788Q30.565624 301.90475 30.565624 299.79538Q30.565624 297.67038 30.065624 296.98288Q29.58125 296.27975 28.83125 296.27975Q28.1125 296.27975 27.675 296.88913Q27.128124 297.67038 27.128124 299.79538ZM32.925 301.45163L32.925 300.38913L36.175 300.38913L36.175 301.45163L32.925 301.45163ZM41.01875 304.02975L39.971874 304.02975L39.971874 297.311Q39.58125 297.67038 38.95625 298.04538Q38.346874 298.40475 37.8625 298.57663L37.8625 297.561Q38.7375 297.13913 39.39375 296.561Q40.065624 295.96725 40.346874 295.40475L41.01875 295.40475L41.01875 304.02975ZM47.425 304.02975L47.425 301.96725L43.70625 301.96725L43.70625 300.9985L47.628124 295.436L48.4875 295.436L48.4875 300.9985L49.64375 300.9985L49.64375 301.96725L48.4875 301.96725L48.4875 304.02975L47.425 304.02975ZM47.425 300.9985L47.425 297.13913L44.7375 300.9985L47.425 300.9985ZM54.3 306.42038L54.175 305.436Q54.51875 305.52975 54.784374 305.52975Q55.128124 305.52975 55.33125 305.40475Q55.55 305.29538 55.690624 305.09225Q55.784374 304.92038 56.01875 304.29538Q56.034374 304.21725 56.1125 304.04538L53.7375 297.811L54.878124 297.811L56.175 301.40475Q56.425 302.09225 56.628124 302.85788Q56.815624 302.1235 57.065624 301.436L58.39375 297.811L59.440624 297.811L57.08125 304.13913Q56.690624 305.15475 56.4875 305.54538Q56.20625 306.07663 55.83125 306.311Q55.471874 306.561 54.971874 306.561Q54.675 306.561 54.3 306.42038ZM63.596874 302.02975L64.69063 302.15475Q64.44063 303.10788 63.7375 303.63913Q63.034374 304.17038 61.95625 304.17038Q60.596874 304.17038 59.784374 303.32663Q58.9875 302.48288 58.9875 300.96725Q58.9875 299.40475 59.8 298.54538Q60.6125 297.67038 61.89375 297.67038Q63.14375 297.67038 63.925 298.51413Q64.72188 299.35788 64.72188 300.90475Q64.72188 300.9985 64.72188 301.186L60.08125 301.186Q60.14375 302.21725 60.659374 302.76413Q61.175 303.29538 61.95625 303.29538Q62.534374 303.29538 62.940624 302.9985Q63.3625 302.686 63.596874 302.02975ZM60.14375 300.32663L63.6125 300.32663Q63.55 299.52975 63.221874 299.13913Q62.70625 298.52975 61.909374 298.52975Q61.175 298.52975 60.675 299.01413Q60.190624 299.4985 60.14375 300.32663ZM70.40938 303.26413Q69.81563 303.76413 69.26875 303.96725Q68.7375 304.17038 68.1125 304.17038Q67.08125 304.17038 66.53438 303.67038Q65.9875 303.17038 65.9875 302.38913Q65.9875 301.936 66.19063 301.561Q66.39375 301.17038 66.7375 300.95163Q67.08125 300.71725 67.50313 300.60788Q67.8 300.51413 68.44063 300.436Q69.70625 300.29538 70.31563 300.07663Q70.31563 299.85788 70.31563 299.811Q70.31563 299.15475 70.01875 298.88913Q69.6125 298.54538 68.81563 298.54538Q68.08125 298.54538 67.72188 298.811Q67.3625 299.061 67.19063 299.71725L66.15938 299.57663Q66.3 298.92038 66.62813 298.51413Q66.95625 298.10788 67.56563 297.88913Q68.175 297.67038 68.97188 297.67038Q69.76875 297.67038 70.26875 297.85788Q70.76875 298.04538 71.00313 298.32663Q71.2375 298.60788 71.33125 299.04538Q71.37813 299.311 71.37813 300.01413L71.37813 301.42038Q71.37813 302.88913 71.44063 303.27975Q71.51875 303.67038 71.72188 304.02975L70.6125 304.02975Q70.45625 303.70163 70.40938 303.26413ZM70.31563 300.90475Q69.7375 301.13913 68.59688 301.311Q67.94063 301.40475 67.675 301.52975Q67.40938 301.63913 67.25313 301.85788Q67.1125 302.07663 67.1125 302.35788Q67.1125 302.77975 67.425 303.061Q67.75313 303.34225 68.3625 303.34225Q68.97188 303.34225 69.44063 303.07663Q69.925 302.811 70.14375 302.34225Q70.31563 301.98288 70.31563 301.29538L70.31563 300.90475ZM73.33125 304.02975L73.33125 297.811L74.28438 297.811L74.28438 298.7485Q74.64375 298.09225 74.94063 297.88913Q75.25313 297.67038 75.62813 297.67038Q76.15938 297.67038 76.70625 297.9985L76.34688 298.98288Q75.95625 298.7485 75.58125 298.7485Q75.22188 298.7485 74.94063 298.96725Q74.675 299.17038 74.56563 299.54538Q74.37813 300.10788 74.37813 300.76413L74.37813 304.02975L73.33125 304.02975ZM76.925 302.17038L77.95625 302.01413Q78.05 302.63913 78.44063 302.96725Q78.84688 303.29538 79.58125 303.29538Q80.3 303.29538 80.64375 303.01413Q81.00313 302.71725 81.00313 302.311Q81.00313 301.95163 80.69063 301.7485Q80.47188 301.60788 79.6125 301.38913Q78.45625 301.09225 78.00313 300.88913Q77.56563 300.67038 77.33125 300.29538Q77.09688 299.92038 77.09688 299.45163Q77.09688 299.04538 77.28438 298.686Q77.47188 298.32663 77.8 298.09225Q78.05 297.92038 78.47188 297.79538Q78.89375 297.67038 79.39375 297.67038Q80.1125 297.67038 80.65938 297.88913Q81.22188 298.09225 81.4875 298.45163Q81.75313 298.811 81.84688 299.40475L80.81563 299.54538Q80.75313 299.07663 80.40938 298.811Q80.08125 298.52975 79.45625 298.52975Q78.7375 298.52975 78.425 298.77975Q78.1125 299.01413 78.1125 299.34225Q78.1125 299.54538 78.2375 299.70163Q78.37813 299.8735 78.64375 299.98288Q78.8 300.04538 79.58125 300.2485Q80.70625 300.561 81.14375 300.7485Q81.58125 300.936 81.83125 301.29538Q82.08125 301.65475 82.08125 302.20163Q82.08125 302.73288 81.76875 303.20163Q81.47188 303.65475 80.89375 303.92038Q80.31563 304.17038 79.58125 304.17038Q78.3625 304.17038 77.72188 303.67038Q77.09688 303.15475 76.925 302.17038Z" fill-rule="nonzero"/><path fill="#9e9e9e" d="M23.01875 321.02975L21.971874 321.02975L21.971874 314.311Q21.58125 314.67038 20.95625 315.04538Q20.346874 315.40475 19.8625 315.57663L19.8625 314.561Q20.7375 314.13913 21.39375 313.561Q22.065624 312.96725 22.346874 312.40475L23.01875 312.40475L23.01875 321.02975ZM27.675 316.3735Q27.01875 316.1235 26.690624 315.686Q26.378124 315.23288 26.378124 314.6235Q26.378124 313.686 27.05 313.04538Q27.7375 312.40475 28.846874 312.40475Q29.971874 312.40475 30.659374 313.061Q31.346874 313.71725 31.346874 314.65475Q31.346874 315.2485 31.034374 315.686Q30.721874 316.1235 30.08125 316.3735Q30.878124 316.6235 31.284374 317.20163Q31.690624 317.77975 31.690624 318.57663Q31.690624 319.67038 30.909374 320.42038Q30.14375 321.17038 28.8625 321.17038Q27.596874 321.17038 26.815624 320.42038Q26.034374 319.67038 26.034374 318.54538Q26.034374 317.70163 26.45625 317.13913Q26.89375 316.57663 27.675 316.3735ZM27.45625 314.57663Q27.45625 315.186 27.846874 315.57663Q28.253124 315.96725 28.878124 315.96725Q29.4875 315.96725 29.878124 315.59225Q30.26875 315.20163 30.26875 314.63913Q30.26875 314.061 29.8625 313.67038Q29.45625 313.26413 28.8625 313.26413Q28.253124 313.26413 27.846874 313.65475Q27.45625 314.04538 27.45625 314.57663ZM27.128124 318.54538Q27.128124 318.9985 27.33125 319.42038Q27.55 319.84225 27.971874 320.07663Q28.39375 320.311 28.878124 320.311Q29.628124 320.311 30.1125 319.82663Q30.6125 319.34225 30.6125 318.59225Q30.6125 317.82663 30.1125 317.32663Q29.6125 316.82663 28.846874 316.82663Q28.096874 316.82663 27.6125 317.32663Q27.128124 317.811 27.128124 318.54538ZM33.64375 321.02975L33.64375 319.82663L34.846874 319.82663L34.846874 321.02975L33.64375 321.02975ZM37.675 316.3735Q37.01875 316.1235 36.690624 315.686Q36.378124 315.23288 36.378124 314.6235Q36.378124 313.686 37.05 313.04538Q37.7375 312.40475 38.846874 312.40475Q39.971874 312.40475 40.659374 313.061Q41.346874 313.71725 41.346874 314.65475Q41.346874 315.2485 41.034374 315.686Q40.721874 316.1235 40.08125 316.3735Q40.878124 316.6235 41.284374 317.20163Q41.690624 317.77975 41.690624 318.57663Q41.690624 319.67038 40.909374 320.42038Q40.14375 321.17038 38.8625 321.17038Q37.596874 321.17038 36.815624 320.42038Q36.034374 319.67038 36.034374 318.54538Q36.034374 317.70163 36.45625 317.13913Q36.89375 316.57663 37.675 316.3735ZM37.45625 314.57663Q37.45625 315.186 37.846874 315.57663Q38.253124 315.96725 38.878124 315.96725Q39.4875 315.96725 39.878124 315.59225Q40.26875 315.20163 40.26875 314.63913Q40.26875 314.061 39.8625 313.67038Q39.45625 313.26413 38.8625 313.26413Q38.253124 313.26413 37.846874 313.65475Q37.45625 314.04538 37.45625 314.57663ZM37.128124 318.54538Q37.128124 318.9985 37.33125 319.42038Q37.55 319.84225 37.971874 320.07663Q38.39375 320.311 38.878124 320.311Q39.628124 320.311 40.1125 319.82663Q40.6125 319.34225 40.6125 318.59225Q40.6125 317.82663 40.1125 317.32663Q39.6125 316.82663 38.846874 316.82663Q38.096874 316.82663 37.6125 317.32663Q37.128124 317.811 37.128124 318.54538ZM43.253124 314.4985Q43.253124 313.57663 43.70625 312.936Q44.175 312.29538 45.05 312.29538Q45.8625 312.29538 46.39375 312.8735Q46.925 313.45163 46.925 314.561Q46.925 315.65475 46.378124 316.2485Q45.846874 316.82663 45.065624 316.82663Q44.284374 316.82663 43.76875 316.2485Q43.253124 315.67038 43.253124 314.4985ZM45.08125 313.01413Q44.690624 313.01413 44.425 313.35788Q44.175 313.70163 44.175 314.60788Q44.175 315.436 44.425 315.77975Q44.690624 316.10788 45.08125 316.10788Q45.4875 316.10788 45.7375 315.76413Q46.003124 315.42038 46.003124 314.52975Q46.003124 313.686 45.7375 313.35788Q45.471874 313.01413 45.08125 313.01413ZM45.08125 321.34225L49.784374 312.29538L50.64375 312.29538L45.95625 321.34225L45.08125 321.34225ZM48.8 319.01413Q48.8 318.09225 49.253124 317.45163Q49.721874 316.811 50.6125 316.811Q51.425 316.811 51.95625 317.38913Q52.4875 317.95163 52.4875 319.07663Q52.4875 320.17038 51.940624 320.76413Q51.409374 321.34225 50.6125 321.34225Q49.846874 321.34225 49.315624 320.76413Q48.8 320.186 48.8 319.01413ZM50.64375 317.52975Q50.2375 317.52975 49.971874 317.8735Q49.721874 318.21725 49.721874 319.1235Q49.721874 319.936 49.9875 320.27975Q50.253124 320.6235 50.64375 320.6235Q51.034374 320.6235 51.3 320.27975Q51.565624 319.936 51.565624 319.02975Q51.565624 318.20163 51.3 317.8735Q51.034374 317.52975 50.64375 317.52975Z" fill-rule="nonzero"/><path stroke="#757575" stroke-width="1.0" stroke-linecap="butt" d="M18.55 308.52975L127.05 308.52975L199.90787 308.52975" fill-rule="nonzero"/><path fill="#9e9e9e" d="M201.90787 308.52975C201.90787 307.42517 201.01245 306.52975 199.90787 306.52975C198.8033 306.52975 197.90787 307.42517 197.90787 308.52975C197.90787 309.6343 198.8033 310.52975 199.90787 310.52975C201.01245 310.52975 201.90787 309.6343 201.90787 308.52975" fill-rule="nonzero"/><path fill="#1a1a1a" d="M531.91876 89.537056L530.8719 89.537056L530.8719 82.818306Q530.48126 83.17768 529.85626 83.55268Q529.2469 83.912056 528.7625 84.08393L528.7625 83.068306Q529.6375 82.64643 530.29376 82.068306Q530.96564 81.474556 531.2469 80.912056L531.91876 80.912056L531.91876 89.537056ZM534.95 87.287056L536.0594 87.193306Q536.1844 88.005806 536.6219 88.412056Q537.075 88.818306 537.71564 88.818306Q538.46564 88.818306 538.9969 88.24018Q539.52814 87.662056 539.52814 86.724556Q539.52814 85.818306 539.0125 85.30268Q538.5125 84.77143 537.6844 84.77143Q537.1844 84.77143 536.7625 85.005806Q536.35626 85.24018 536.1219 85.599556L535.1375 85.474556L535.96564 81.068306L540.2469 81.068306L540.2469 82.068306L536.8094 82.068306L536.35626 84.380806Q537.1219 83.83393 537.96564 83.83393Q539.09064 83.83393 539.85626 84.61518Q540.6375 85.39643 540.6375 86.630806Q540.6375 87.787056 539.96564 88.64643Q539.1375 89.67768 537.71564 89.67768Q536.54376 89.67768 535.79376 89.02143Q535.0594 88.36518 534.95 87.287056ZM544.45 88.14643L544.45 85.787056L542.1219 85.787056L542.1219 84.80268L544.45 84.80268L544.45 82.474556L545.45 82.474556L545.45 84.80268L547.79376 84.80268L547.79376 85.787056L545.45 85.787056L545.45 88.14643L544.45 88.14643ZM552.2 91.92768L552.075 90.943306Q552.41876 91.037056 552.6844 91.037056Q553.02814 91.037056 553.23126 90.912056Q553.45 90.80268 553.59064 90.599556Q553.6844 90.42768 553.91876 89.80268Q553.9344 89.724556 554.0125 89.55268L551.6375 83.318306L552.77814 83.318306L554.075 86.912056Q554.325 87.599556 554.52814 88.36518Q554.71564 87.630806 554.96564 86.943306L556.29376 83.318306L557.34064 83.318306L554.98126 89.64643Q554.59064 90.662056 554.3875 91.05268Q554.10626 91.58393 553.73126 91.818306Q553.3719 92.068306 552.8719 92.068306Q552.575 92.068306 552.2 91.92768ZM561.4969 87.537056L562.59064 87.662056Q562.34064 88.61518 561.6375 89.14643Q560.9344 89.67768 559.85626 89.67768Q558.4969 89.67768 557.6844 88.83393Q556.8875 87.99018 556.8875 86.474556Q556.8875 84.912056 557.7 84.05268Q558.5125 83.17768 559.79376 83.17768Q561.04376 83.17768 561.825 84.02143Q562.6219 84.86518 562.6219 86.412056Q562.6219 86.505806 562.6219 86.693306L557.98126 86.693306Q558.04376 87.724556 558.5594 88.27143Q559.075 88.80268 559.85626 88.80268Q560.4344 88.80268 560.84064 88.505806Q561.2625 88.193306 561.4969 87.537056ZM558.04376 85.83393L561.5125 85.83393Q561.45 85.037056 561.1219 84.64643Q560.60626 84.037056 559.8094 84.037056Q559.075 84.037056 558.575 84.52143Q558.09064 85.005806 558.04376 85.83393ZM568.3094 88.77143Q567.71564 89.27143 567.16876 89.474556Q566.6375 89.67768 566.0125 89.67768Q564.98126 89.67768 564.4344 89.17768Q563.8875 88.67768 563.8875 87.89643Q563.8875 87.443306 564.09064 87.068306Q564.29376 86.67768 564.6375 86.45893Q564.98126 86.224556 565.40314 86.11518Q565.7 86.02143 566.34064 85.943306Q567.60626 85.80268 568.21564 85.58393Q568.21564 85.36518 568.21564 85.318306Q568.21564 84.662056 567.91876 84.39643Q567.5125 84.05268 566.71564 84.05268Q565.98126 84.05268 565.6219 84.318306Q565.2625 84.568306 565.09064 85.224556L564.0594 85.08393Q564.2 84.42768 564.52814 84.02143Q564.85626 83.61518 565.46564 83.39643Q566.075 83.17768 566.8719 83.17768Q567.66876 83.17768 568.16876 83.36518Q568.66876 83.55268 568.90314 83.83393Q569.1375 84.11518 569.23126 84.55268Q569.27814 84.818306 569.27814 85.52143L569.27814 86.92768Q569.27814 88.39643 569.34064 88.787056Q569.41876 89.17768 569.6219 89.537056L568.5125 89.537056Q568.35626 89.20893 568.3094 88.77143ZM568.21564 86.412056Q567.6375 86.64643 566.4969 86.818306Q565.84064 86.912056 565.575 87.037056Q565.3094 87.14643 565.15314 87.36518Q565.0125 87.58393 565.0125 87.86518Q565.0125 88.287056 565.325 88.568306Q565.65314 88.849556 566.2625 88.849556Q566.8719 88.849556 567.34064 88.58393Q567.825 88.318306 568.04376 87.849556Q568.21564 87.49018 568.21564 86.80268L568.21564 86.412056ZM571.23126 89.537056L571.23126 83.318306L572.1844 83.318306L572.1844 84.255806Q572.54376 83.599556 572.84064 83.39643Q573.15314 83.17768 573.52814 83.17768Q574.0594 83.17768 574.60626 83.505806L574.2469 84.49018Q573.85626 84.255806 573.48126 84.255806Q573.1219 84.255806 572.84064 84.474556Q572.575 84.67768 572.46564 85.05268Q572.27814 85.61518 572.27814 86.27143L572.27814 89.537056L571.23126 89.537056ZM574.825 87.67768L575.85626 87.52143Q575.95 88.14643 576.34064 88.474556Q576.7469 88.80268 577.48126 88.80268Q578.2 88.80268 578.54376 88.52143Q578.90314 88.224556 578.90314 87.818306Q578.90314 87.45893 578.59064 87.255806Q578.3719 87.11518 577.5125 86.89643Q576.35626 86.599556 575.90314 86.39643Q575.46564 86.17768 575.23126 85.80268Q574.9969 85.42768 574.9969 84.95893Q574.9969 84.55268 575.1844 84.193306Q575.3719 83.83393 575.7 83.599556Q575.95 83.42768 576.3719 83.30268Q576.79376 83.17768 577.29376 83.17768Q578.0125 83.17768 578.5594 83.39643Q579.1219 83.599556 579.3875 83.95893Q579.65314 84.318306 579.7469 84.912056L578.71564 85.05268Q578.65314 84.58393 578.3094 84.318306Q577.98126 84.037056 577.35626 84.037056Q576.6375 84.037056 576.325 84.287056Q576.0125 84.52143 576.0125 84.849556Q576.0125 85.05268 576.1375 85.20893Q576.27814 85.380806 576.54376 85.49018Q576.7 85.55268 577.48126 85.755806Q578.60626 86.068306 579.04376 86.255806Q579.48126 86.443306 579.73126 86.80268Q579.98126 87.162056 579.98126 87.70893Q579.98126 88.24018 579.66876 88.70893Q579.3719 89.162056 578.79376 89.42768Q578.21564 89.67768 577.48126 89.67768Q576.2625 89.67768 575.6219 89.17768Q574.9969 88.662056 574.825 87.67768Z" fill-rule="nonzero"/><path fill="#9e9e9e" d="M546.95 104.27143L548.0125 104.130806Q548.1844 105.02143 548.6219 105.42768Q549.0594 105.818306 549.6844 105.818306Q550.4344 105.818306 550.95 105.30268Q551.46564 104.787056 551.46564 104.02143Q551.46564 103.30268 550.98126 102.83393Q550.5125 102.349556 549.77814 102.349556Q549.48126 102.349556 549.02814 102.474556L549.15314 101.537056Q549.2625 101.55268 549.325 101.55268Q549.9969 101.55268 550.52814 101.20893Q551.075 100.849556 551.075 100.11518Q551.075 99.537056 550.6844 99.162056Q550.29376 98.77143 549.66876 98.77143Q549.0594 98.77143 548.6375 99.162056Q548.23126 99.55268 548.1219 100.318306L547.0594 100.130806Q547.2469 99.08393 547.9344 98.505806Q548.6219 97.912056 549.6375 97.912056Q550.34064 97.912056 550.9344 98.224556Q551.52814 98.52143 551.84064 99.037056Q552.15314 99.55268 552.15314 100.14643Q552.15314 100.693306 551.85626 101.162056Q551.5594 101.61518 550.98126 101.880806Q551.73126 102.05268 552.15314 102.61518Q552.575 103.162056 552.575 104.005806Q552.575 105.130806 551.7469 105.912056Q550.9344 106.693306 549.6844 106.693306Q548.5594 106.693306 547.8094 106.02143Q547.0594 105.33393 546.95 104.27143ZM553.95 102.30268Q553.95 100.77143 554.2625 99.849556Q554.575 98.912056 555.1844 98.412056Q555.8094 97.912056 556.7469 97.912056Q557.4344 97.912056 557.95 98.193306Q558.48126 98.474556 558.825 99.005806Q559.16876 99.52143 559.35626 100.27143Q559.54376 101.02143 559.54376 102.30268Q559.54376 103.818306 559.23126 104.74018Q558.9344 105.662056 558.3094 106.17768Q557.7 106.67768 556.7469 106.67768Q555.5125 106.67768 554.79376 105.787056Q553.95 104.724556 553.95 102.30268ZM555.02814 102.30268Q555.02814 104.412056 555.52814 105.11518Q556.02814 105.818306 556.7469 105.818306Q557.48126 105.818306 557.96564 105.11518Q558.46564 104.412056 558.46564 102.30268Q558.46564 100.17768 557.96564 99.49018Q557.48126 98.787056 556.73126 98.787056Q556.0125 98.787056 555.575 99.39643Q555.02814 100.17768 555.02814 102.30268ZM561.54376 106.537056L561.54376 105.33393L562.7469 105.33393L562.7469 106.537056L561.54376 106.537056ZM567.325 106.537056L567.325 104.474556L563.60626 104.474556L563.60626 103.505806L567.52814 97.943306L568.3875 97.943306L568.3875 103.505806L569.54376 103.505806L569.54376 104.474556L568.3875 104.474556L568.3875 106.537056L567.325 106.537056ZM567.325 103.505806L567.325 99.64643L564.6375 103.505806L567.325 103.505806ZM571.15314 100.005806Q571.15314 99.08393 571.60626 98.443306Q572.075 97.80268 572.95 97.80268Q573.7625 97.80268 574.29376 98.380806Q574.825 98.95893 574.825 100.068306Q574.825 101.162056 574.27814 101.755806Q573.7469 102.33393 572.96564 102.33393Q572.1844 102.33393 571.66876 101.755806Q571.15314 101.17768 571.15314 100.005806ZM572.98126 98.52143Q572.59064 98.52143 572.325 98.86518Q572.075 99.20893 572.075 100.11518Q572.075 100.943306 572.325 101.287056Q572.59064 101.61518 572.98126 101.61518Q573.3875 101.61518 573.6375 101.27143Q573.90314 100.92768 573.90314 100.037056Q573.90314 99.193306 573.6375 98.86518Q573.3719 98.52143 572.98126 98.52143ZM572.98126 106.849556L577.6844 97.80268L578.54376 97.80268L573.85626 106.849556L572.98126 106.849556ZM576.7 104.52143Q576.7 103.599556 577.15314 102.95893Q577.6219 102.318306 578.5125 102.318306Q579.325 102.318306 579.85626 102.89643Q580.3875 103.45893 580.3875 104.58393Q580.3875 105.67768 579.84064 106.27143Q579.3094 106.849556 578.5125 106.849556Q577.7469 106.849556 577.21564 106.27143Q576.7 105.693306 576.7 104.52143ZM578.54376 103.037056Q578.1375 103.037056 577.8719 103.380806Q577.6219 103.724556 577.6219 104.630806Q577.6219 105.443306 577.8875 105.787056Q578.15314 106.130806 578.54376 106.130806Q578.9344 106.130806 579.2 105.787056Q579.46564 105.443306 579.46564 104.537056Q579.46564 103.70893 579.2 103.380806Q578.9344 103.037056 578.54376 103.037056Z" fill-rule="nonzero"/><path stroke="#757575" stroke-width="1.0" stroke-linecap="butt" d="M581.45 94.037056L472.95 94.037056L429.57346 94.037056" fill-rule="nonzero"/><path fill="#9e9e9e" d="M431.57346 94.037056C431.57346 92.93249 430.67804 92.037056 429.57346 92.037056C428.4689 92.037056 427.57346 92.93249 427.57346 94.037056C427.57346 95.14163 428.4689 96.037056 429.57346 96.037056C430.67804 96.037056 431.57346 95.14163 431.57346 94.037056" fill-rule="nonzero"/><path fill="#1a1a1a" d="M530.95 312.33646L532.0125 312.19583Q532.1844 313.08646 532.6219 313.4927Q533.0594 313.88333 533.6844 313.88333Q534.4344 313.88333 534.95 313.3677Q535.46564 312.85208 535.46564 312.08646Q535.46564 311.3677 534.98126 310.89896Q534.5125 310.41458 533.77814 310.41458Q533.48126 310.41458 533.02814 310.53958L533.15314 309.60208Q533.2625 309.6177 533.325 309.6177Q533.9969 309.6177 534.52814 309.27396Q535.075 308.91458 535.075 308.1802Q535.075 307.60208 534.6844 307.22708Q534.29376 306.83646 533.66876 306.83646Q533.0594 306.83646 532.6375 307.22708Q532.23126 307.6177 532.1219 308.38333L531.0594 308.19583Q531.2469 307.14896 531.9344 306.57083Q532.6219 305.97708 533.6375 305.97708Q534.34064 305.97708 534.9344 306.28958Q535.52814 306.58646 535.84064 307.10208Q536.15314 307.6177 536.15314 308.21146Q536.15314 308.75833 535.85626 309.22708Q535.5594 309.6802 534.98126 309.94583Q535.73126 310.1177 536.15314 310.6802Q536.575 311.22708 536.575 312.07083Q536.575 313.19583 535.7469 313.97708Q534.9344 314.75833 533.6844 314.75833Q532.5594 314.75833 531.8094 314.08646Q531.0594 313.39896 530.95 312.33646ZM537.825 312.02396L537.825 310.96146L541.075 310.96146L541.075 312.02396L537.825 312.02396ZM547.41876 308.1177L546.3719 308.19583Q546.23126 307.57083 545.98126 307.28958Q545.54376 306.83646 544.91876 306.83646Q544.41876 306.83646 544.02814 307.1177Q543.54376 307.4927 543.2469 308.19583Q542.96564 308.88333 542.95 310.16458Q543.325 309.58646 543.8719 309.3052Q544.4344 309.02396 545.04376 309.02396Q546.09064 309.02396 546.825 309.8052Q547.575 310.58646 547.575 311.8052Q547.575 312.6177 547.21564 313.32083Q546.8719 314.00833 546.2625 314.38333Q545.65314 314.7427 544.8875 314.7427Q543.5594 314.7427 542.73126 313.77396Q541.90314 312.8052 541.90314 310.58646Q541.90314 308.08646 542.825 306.96146Q543.6219 305.97708 544.98126 305.97708Q545.9969 305.97708 546.6375 306.5552Q547.29376 307.1177 547.41876 308.1177ZM543.1219 311.82083Q543.1219 312.3677 543.34064 312.8677Q543.575 313.35208 543.98126 313.6177Q544.40314 313.88333 544.8719 313.88333Q545.52814 313.88333 546.0125 313.35208Q546.4969 312.8052 546.4969 311.88333Q546.4969 310.9927 546.0125 310.47708Q545.54376 309.96146 544.825 309.96146Q544.10626 309.96146 543.60626 310.47708Q543.1219 310.9927 543.1219 311.82083ZM552.2 316.9927L552.075 316.00833Q552.41876 316.10208 552.6844 316.10208Q553.02814 316.10208 553.23126 315.97708Q553.45 315.8677 553.59064 315.66458Q553.6844 315.4927 553.91876 314.8677Q553.9344 314.78958 554.0125 314.6177L551.6375 308.38333L552.77814 308.38333L554.075 311.97708Q554.325 312.66458 554.52814 313.4302Q554.71564 312.69583 554.96564 312.00833L556.29376 308.38333L557.34064 308.38333L554.98126 314.71146Q554.59064 315.72708 554.3875 316.1177Q554.10626 316.64896 553.73126 316.88333Q553.3719 317.13333 552.8719 317.13333Q552.575 317.13333 552.2 316.9927ZM561.4969 312.60208L562.59064 312.72708Q562.34064 313.6802 561.6375 314.21146Q560.9344 314.7427 559.85626 314.7427Q558.4969 314.7427 557.6844 313.89896Q556.8875 313.0552 556.8875 311.53958Q556.8875 309.97708 557.7 309.1177Q558.5125 308.2427 559.79376 308.2427Q561.04376 308.2427 561.825 309.08646Q562.6219 309.9302 562.6219 311.47708Q562.6219 311.57083 562.6219 311.75833L557.98126 311.75833Q558.04376 312.78958 558.5594 313.33646Q559.075 313.8677 559.85626 313.8677Q560.4344 313.8677 560.84064 313.57083Q561.2625 313.25833 561.4969 312.60208ZM558.04376 310.89896L561.5125 310.89896Q561.45 310.10208 561.1219 309.71146Q560.60626 309.10208 559.8094 309.10208Q559.075 309.10208 558.575 309.58646Q558.09064 310.07083 558.04376 310.89896ZM568.3094 313.83646Q567.71564 314.33646 567.16876 314.53958Q566.6375 314.7427 566.0125 314.7427Q564.98126 314.7427 564.4344 314.2427Q563.8875 313.7427 563.8875 312.96146Q563.8875 312.50833 564.09064 312.13333Q564.29376 311.7427 564.6375 311.52396Q564.98126 311.28958 565.40314 311.1802Q565.7 311.08646 566.34064 311.00833Q567.60626 310.8677 568.21564 310.64896Q568.21564 310.4302 568.21564 310.38333Q568.21564 309.72708 567.91876 309.46146Q567.5125 309.1177 566.71564 309.1177Q565.98126 309.1177 565.6219 309.38333Q565.2625 309.63333 565.09064 310.28958L564.0594 310.14896Q564.2 309.4927 564.52814 309.08646Q564.85626 308.6802 565.46564 308.46146Q566.075 308.2427 566.8719 308.2427Q567.66876 308.2427 568.16876 308.4302Q568.66876 308.6177 568.90314 308.89896Q569.1375 309.1802 569.23126 309.6177Q569.27814 309.88333 569.27814 310.58646L569.27814 311.9927Q569.27814 313.46146 569.34064 313.85208Q569.41876 314.2427 569.6219 314.60208L568.5125 314.60208Q568.35626 314.27396 568.3094 313.83646ZM568.21564 311.47708Q567.6375 311.71146 566.4969 311.88333Q565.84064 311.97708 565.575 312.10208Q565.3094 312.21146 565.15314 312.4302Q565.0125 312.64896 565.0125 312.9302Q565.0125 313.35208 565.325 313.63333Q565.65314 313.91458 566.2625 313.91458Q566.8719 313.91458 567.34064 313.64896Q567.825 313.38333 568.04376 312.91458Q568.21564 312.5552 568.21564 311.8677L568.21564 311.47708ZM571.23126 314.60208L571.23126 308.38333L572.1844 308.38333L572.1844 309.32083Q572.54376 308.66458 572.84064 308.46146Q573.15314 308.2427 573.52814 308.2427Q574.0594 308.2427 574.60626 308.57083L574.2469 309.5552Q573.85626 309.32083 573.48126 309.32083Q573.1219 309.32083 572.84064 309.53958Q572.575 309.7427 572.46564 310.1177Q572.27814 310.6802 572.27814 311.33646L572.27814 314.60208L571.23126 314.60208ZM574.825 312.7427L575.85626 312.58646Q575.95 313.21146 576.34064 313.53958Q576.7469 313.8677 577.48126 313.8677Q578.2 313.8677 578.54376 313.58646Q578.90314 313.28958 578.90314 312.88333Q578.90314 312.52396 578.59064 312.32083Q578.3719 312.1802 577.5125 311.96146Q576.35626 311.66458 575.90314 311.46146Q575.46564 311.2427 575.23126 310.8677Q574.9969 310.4927 574.9969 310.02396Q574.9969 309.6177 575.1844 309.25833Q575.3719 308.89896 575.7 308.66458Q575.95 308.4927 576.3719 308.3677Q576.79376 308.2427 577.29376 308.2427Q578.0125 308.2427 578.5594 308.46146Q579.1219 308.66458 579.3875 309.02396Q579.65314 309.38333 579.7469 309.97708L578.71564 310.1177Q578.65314 309.64896 578.3094 309.38333Q577.98126 309.10208 577.35626 309.10208Q576.6375 309.10208 576.325 309.35208Q576.0125 309.58646 576.0125 309.91458Q576.0125 310.1177 576.1375 310.27396Q576.27814 310.44583 576.54376 310.5552Q576.7 310.6177 577.48126 310.82083Q578.60626 311.13333 579.04376 311.32083Q579.48126 311.50833 579.73126 311.8677Q579.98126 312.22708 579.98126 312.77396Q579.98126 313.3052 579.66876 313.77396Q579.3719 314.22708 578.79376 314.4927Q578.21564 314.7427 577.48126 314.7427Q576.2625 314.7427 575.6219 314.2427Q574.9969 313.72708 574.825 312.7427Z" fill-rule="nonzero"/><path fill="#9e9e9e" d="M552.4969 330.58646L552.4969 331.60208L546.8094 331.60208Q546.8094 331.22708 546.9344 330.8677Q547.15314 330.28958 547.6219 329.72708Q548.10626 329.16458 549.0125 328.4302Q550.41876 327.27396 550.90314 326.60208Q551.40314 325.9302 551.40314 325.33646Q551.40314 324.71146 550.95 324.28958Q550.4969 323.85208 549.77814 323.85208Q549.0125 323.85208 548.5594 324.3052Q548.10626 324.75833 548.09064 325.57083L547.0125 325.46146Q547.1219 324.2427 547.84064 323.6177Q548.575 322.97708 549.8094 322.97708Q551.04376 322.97708 551.7625 323.66458Q552.48126 324.35208 552.48126 325.3677Q552.48126 325.88333 552.2625 326.38333Q552.0594 326.8677 551.5594 327.4302Q551.075 327.97708 549.95 328.9302Q548.9969 329.72708 548.71564 330.02396Q548.45 330.3052 548.27814 330.58646L552.4969 330.58646ZM557.91876 331.60208L556.8719 331.60208L556.8719 324.88333Q556.48126 325.2427 555.85626 325.6177Q555.2469 325.97708 554.7625 326.14896L554.7625 325.13333Q555.6375 324.71146 556.29376 324.13333Q556.96564 323.53958 557.2469 322.97708L557.91876 322.97708L557.91876 331.60208ZM561.54376 331.60208L561.54376 330.39896L562.7469 330.39896L562.7469 331.60208L561.54376 331.60208ZM563.95 327.3677Q563.95 325.83646 564.2625 324.91458Q564.575 323.97708 565.1844 323.47708Q565.8094 322.97708 566.7469 322.97708Q567.4344 322.97708 567.95 323.25833Q568.48126 323.53958 568.825 324.07083Q569.16876 324.58646 569.35626 325.33646Q569.54376 326.08646 569.54376 327.3677Q569.54376 328.88333 569.23126 329.8052Q568.9344 330.72708 568.3094 331.2427Q567.7 331.7427 566.7469 331.7427Q565.5125 331.7427 564.79376 330.85208Q563.95 329.78958 563.95 327.3677ZM565.02814 327.3677Q565.02814 329.47708 565.52814 330.1802Q566.02814 330.88333 566.7469 330.88333Q567.48126 330.88333 567.96564 330.1802Q568.46564 329.47708 568.46564 327.3677Q568.46564 325.2427 567.96564 324.5552Q567.48126 323.85208 566.73126 323.85208Q566.0125 323.85208 565.575 324.46146Q565.02814 325.2427 565.02814 327.3677ZM571.15314 325.07083Q571.15314 324.14896 571.60626 323.50833Q572.075 322.8677 572.95 322.8677Q573.7625 322.8677 574.29376 323.44583Q574.825 324.02396 574.825 325.13333Q574.825 326.22708 574.27814 326.82083Q573.7469 327.39896 572.96564 327.39896Q572.1844 327.39896 571.66876 326.82083Q571.15314 326.2427 571.15314 325.07083ZM572.98126 323.58646Q572.59064 323.58646 572.325 323.9302Q572.075 324.27396 572.075 325.1802Q572.075 326.00833 572.325 326.35208Q572.59064 326.6802 572.98126 326.6802Q573.3875 326.6802 573.6375 326.33646Q573.90314 325.9927 573.90314 325.10208Q573.90314 324.25833 573.6375 323.9302Q573.3719 323.58646 572.98126 323.58646ZM572.98126 331.91458L577.6844 322.8677L578.54376 322.8677L573.85626 331.91458L572.98126 331.91458ZM576.7 329.58646Q576.7 328.66458 577.15314 328.02396Q577.6219 327.38333 578.5125 327.38333Q579.325 327.38333 579.85626 327.96146Q580.3875 328.52396 580.3875 329.64896Q580.3875 330.7427 579.84064 331.33646Q579.3094 331.91458 578.5125 331.91458Q577.7469 331.91458 577.21564 331.33646Q576.7 330.75833 576.7 329.58646ZM578.54376 328.10208Q578.1375 328.10208 577.8719 328.44583Q577.6219 328.78958 577.6219 329.69583Q577.6219 330.50833 577.8875 330.85208Q578.15314 331.19583 578.54376 331.19583Q578.9344 331.19583 579.2 330.85208Q579.46564 330.50833 579.46564 329.60208Q579.46564 328.77396 579.2 328.44583Q578.9344 328.10208 578.54376 328.10208Z" fill-rule="nonzero"/><path stroke="#757575" stroke-width="1.0" stroke-linecap="butt" d="M581.45 319.10208L472.95 319.10208L385.47067 319.10208" fill-rule="nonzero"/><path fill="#9e9e9e" d="M387.47067 319.10208C387.47067 317.99753 386.57523 317.10208 385.47067 317.10208C384.3661 317.10208 383.47067 317.99753 383.47067 319.10208C383.47067 320.20667 384.3661 321.10208 385.47067 321.10208C386.57523 321.10208 387.47067 320.20667 387.47067 319.10208" fill-rule="nonzero"/></svg>