<svg version="1.1" viewBox="0.0 0.0 600.0 371.0" fill="none" stroke="none" stroke-linecap="square" stroke-miterlimit="10" width="600" height="371" xmlns:xlink="http://www.w3.org/1999/xlink" xmlns="http://www.w3.org/2000/svg"><path fill="#ffffff" d="M0 0L600.0 0L600.0 371.0L0 371.0L0 0Z" fill-rule="nonzero"/><path fill="#4285f4" d="M300.0 18.55C359.64548 18.55 414.7602 50.37049 444.58295 102.025C474.4057 153.6795 474.4057 217.3205 444.58295 268.975L300.0 185.5Z" fill-rule="nonzero"/><path fill="#ff6d01" d="M284.81842 19.2417C289.8658 18.780806 294.9316 18.55 300.0 18.55L300.0 185.5Z" fill-rule="nonzero"/><path fill="#34a853" d="M206.8529 46.95065C230.1046 31.318478 256.91656 21.789509 284.81842 19.2417L300.0 185.5Z" fill-rule="nonzero"/><path fill="#fbbc04" d="M177.98694 299.45224C144.60574 263.70972 128.57556 215.12767 134.13036 166.53778C139.68515 117.9479 166.26624 74.237175 206.8529 46.95065L300.0 185.5Z" fill-rule="nonzero"/><path fill="#ea4335" d="M444.58295 268.975C418.13 314.79282 371.52573 345.3606 318.96222 351.36963C266.3987 357.3787 214.09799 338.11777 177.98694 299.45224L300.0 185.5Z" fill-rule="nonzero"/><path fill="#1a1a1a" d="M19.425 29.55L19.425 20.95625L20.565624 20.95625L20.565624 28.534374L24.8 28.534374L24.8 29.55L19.425 29.55ZM30.596874 27.55L31.690624 27.675Q31.440624 28.628124 30.7375 29.159374Q30.034374 29.690624 28.95625 29.690624Q27.596874 29.690624 26.784374 28.846874Q25.9875 28.003124 25.9875 26.4875Q25.9875 24.925 26.8 24.065624Q27.6125 23.190624 28.89375 23.190624Q30.14375 23.190624 30.925 24.034374Q31.721874 24.878124 31.721874 26.425Q31.721874 26.51875 31.721874 26.70625L27.08125 26.70625Q27.14375 27.7375 27.659374 28.284374Q28.175 28.815624 28.95625 28.815624Q29.534374 28.815624 29.940624 28.51875Q30.3625 28.20625 30.596874 27.55ZM27.14375 25.846874L30.6125 25.846874Q30.55 25.05 30.221874 24.659374Q29.70625 24.05 28.909374 24.05Q28.175 24.05 27.675 24.534374Q27.190624 25.01875 27.14375 25.846874ZM32.925 27.690624L33.95625 27.534374Q34.05 28.159374 34.440624 28.4875Q34.846874 28.815624 35.58125 28.815624Q36.3 28.815624 36.64375 28.534374Q37.003124 28.2375 37.003124 27.83125Q37.003124 27.471874 36.690624 27.26875Q36.471874 27.128124 35.6125 26.909374Q34.45625 26.6125 34.003124 26.409374Q33.565624 26.190624 33.33125 25.815624Q33.096874 25.440624 33.096874 24.971874Q33.096874 24.565624 33.284374 24.20625Q33.471874 23.846874 33.8 23.6125Q34.05 23.440624 34.471874 23.315624Q34.89375 23.190624 35.39375 23.190624Q36.1125 23.190624 36.659374 23.409374Q37.221874 23.6125 37.4875 23.971874Q37.753124 24.33125 37.846874 24.925L36.815624 25.065624Q36.753124 24.596874 36.409374 24.33125Q36.08125 24.05 35.45625 24.05Q34.7375 24.05 34.425 24.3Q34.1125 24.534374 34.1125 24.8625Q34.1125 25.065624 34.2375 25.221874Q34.378124 25.39375 34.64375 25.503124Q34.8 25.565624 35.58125 25.76875Q36.70625 26.08125 37.14375 26.26875Q37.58125 26.45625 37.83125 26.815624Q38.08125 27.175 38.08125 27.721874Q38.08125 28.253124 37.76875 28.721874Q37.471874 29.175 36.89375 29.440624Q36.315624 29.690624 35.58125 29.690624Q34.3625 29.690624 33.721874 29.190624Q33.096874 28.675 32.925 27.690624ZM39.925 27.690624L40.95625 27.534374Q41.05 28.159374 41.440624 28.4875Q41.846874 28.815624 42.58125 28.815624Q43.3 28.815624 43.64375 28.534374Q44.003124 28.2375 44.003124 27.83125Q44.003124 27.471874 43.690624 27.26875Q43.471874 27.128124 42.6125 26.909374Q41.45625 26.6125 41.003124 26.409374Q40.565624 26.190624 40.33125 25.815624Q40.096874 25.440624 40.096874 24.971874Q40.096874 24.565624 40.284374 24.20625Q40.471874 23.846874 40.8 23.6125Q41.05 23.440624 41.471874 23.315624Q41.89375 23.190624 42.39375 23.190624Q43.1125 23.190624 43.659374 23.409374Q44.221874 23.6125 44.4875 23.971874Q44.753124 24.33125 44.846874 24.925L43.815624 25.065624Q43.753124 24.596874 43.409374 24.33125Q43.08125 24.05 42.45625 24.05Q41.7375 24.05 41.425 24.3Q41.1125 24.534374 41.1125 24.8625Q41.1125 25.065624 41.2375 25.221874Q41.378124 25.39375 41.64375 25.503124Q41.8 25.565624 42.58125 25.76875Q43.70625 26.08125 44.14375 26.26875Q44.58125 26.45625 44.83125 26.815624Q45.08125 27.175 45.08125 27.721874Q45.08125 28.253124 44.76875 28.721874Q44.471874 29.175 43.89375 29.440624Q43.315624 29.690624 42.58125 29.690624Q41.3625 29.690624 40.721874 29.190624Q40.096874 28.675 39.925 27.690624ZM52.64375 28.6125L52.8 29.534374Q52.346874 29.628124 52.003124 29.628124Q51.425 29.628124 51.1125 29.45625Q50.8 29.26875 50.659374 28.971874Q50.534374 28.675 50.534374 27.721874L50.534374 24.14375L49.76875 24.14375L49.76875 23.33125L50.534374 23.33125L50.534374 21.784374L51.58125 21.159374L51.58125 23.33125L52.64375 23.33125L52.64375 24.14375L51.58125 24.14375L51.58125 27.784374Q51.58125 28.2375 51.628124 28.3625Q51.690624 28.4875 51.815624 28.565624Q51.940624 28.64375 52.175 28.64375Q52.3625 28.64375 52.64375 28.6125ZM53.346874 29.55L53.346874 20.95625L54.39375 20.95625L54.39375 24.034374Q55.128124 23.190624 56.253124 23.190624Q56.95625 23.190624 57.45625 23.471874Q57.971874 23.7375 58.190624 24.221874Q58.409374 24.690624 58.409374 25.6125L58.409374 29.55L57.3625 29.55L57.3625 25.6125Q57.3625 24.815624 57.01875 24.45625Q56.675 24.096874 56.05 24.096874Q55.58125 24.096874 55.159374 24.346874Q54.753124 24.58125 54.565624 25.003124Q54.39375 25.409374 54.39375 26.14375L54.39375 29.55L53.346874 29.55ZM64.40938 28.784374Q63.815624 29.284374 63.26875 29.4875Q62.7375 29.690624 62.1125 29.690624Q61.08125 29.690624 60.534374 29.190624Q59.9875 28.690624 59.9875 27.909374Q59.9875 27.45625 60.190624 27.08125Q60.39375 26.690624 60.7375 26.471874Q61.08125 26.2375 61.503124 26.128124Q61.8 26.034374 62.440624 25.95625Q63.70625 25.815624 64.31563 25.596874Q64.31563 25.378124 64.31563 25.33125Q64.31563 24.675 64.01875 24.409374Q63.6125 24.065624 62.815624 24.065624Q62.08125 24.065624 61.721874 24.33125Q61.3625 24.58125 61.190624 25.2375L60.159374 25.096874Q60.3 24.440624 60.628124 24.034374Q60.95625 23.628124 61.565624 23.409374Q62.175 23.190624 62.971874 23.190624Q63.76875 23.190624 64.26875 23.378124Q64.76875 23.565624 65.00313 23.846874Q65.2375 24.128124 65.33125 24.565624Q65.37813 24.83125 65.37813 25.534374L65.37813 26.940624Q65.37813 28.409374 65.44063 28.8Q65.51875 29.190624 65.72188 29.55L64.6125 29.55Q64.45625 29.221874 64.40938 28.784374ZM64.31563 26.425Q63.7375 26.659374 62.596874 26.83125Q61.940624 26.925 61.675 27.05Q61.409374 27.159374 61.253124 27.378124Q61.1125 27.596874 61.1125 27.878124Q61.1125 28.3 61.425 28.58125Q61.753124 28.8625 62.3625 28.8625Q62.971874 28.8625 63.440624 28.596874Q63.925 28.33125 64.14375 27.8625Q64.31563 27.503124 64.31563 26.815624L64.31563 26.425ZM67.34688 29.55L67.34688 23.33125L68.28438 23.33125L68.28438 24.20625Q68.97188 23.190624 70.26875 23.190624Q70.83125 23.190624 71.3 23.39375Q71.78438 23.596874 72.01875 23.925Q72.25313 24.253124 72.34688 24.690624Q72.39375 24.9875 72.39375 25.721874L72.39375 29.55L71.34688 29.55L71.34688 25.76875Q71.34688 25.1125 71.22188 24.8Q71.09688 24.4875 70.78438 24.3Q70.47188 24.096874 70.05 24.096874Q69.37813 24.096874 68.87813 24.534374Q68.39375 24.95625 68.39375 26.14375L68.39375 29.55L67.34688 29.55ZM81.40938 28.784374Q80.81563 29.284374 80.26875 29.4875Q79.7375 29.690624 79.1125 29.690624Q78.08125 29.690624 77.53438 29.190624Q76.9875 28.690624 76.9875 27.909374Q76.9875 27.45625 77.19063 27.08125Q77.39375 26.690624 77.7375 26.471874Q78.08125 26.2375 78.50313 26.128124Q78.8 26.034374 79.44063 25.95625Q80.70625 25.815624 81.31563 25.596874Q81.31563 25.378124 81.31563 25.33125Q81.31563 24.675 81.01875 24.409374Q80.6125 24.065624 79.81563 24.065624Q79.08125 24.065624 78.72188 24.33125Q78.3625 24.58125 78.19063 25.2375L77.15938 25.096874Q77.3 24.440624 77.62813 24.034374Q77.95625 23.628124 78.56563 23.409374Q79.175 23.190624 79.97188 23.190624Q80.76875 23.190624 81.26875 23.378124Q81.76875 23.565624 82.00313 23.846874Q82.2375 24.128124 82.33125 24.565624Q82.37813 24.83125 82.37813 25.534374L82.37813 26.940624Q82.37813 28.409374 82.44063 28.8Q82.51875 29.190624 82.72188 29.55L81.6125 29.55Q81.45625 29.221874 81.40938 28.784374ZM81.31563 26.425Q80.7375 26.659374 79.59688 26.83125Q78.94063 26.925 78.675 27.05Q78.40938 27.159374 78.25313 27.378124Q78.1125 27.596874 78.1125 27.878124Q78.1125 28.3 78.425 28.58125Q78.75313 28.8625 79.3625 28.8625Q79.97188 28.8625 80.44063 28.596874Q80.925 28.33125 81.14375 27.8625Q81.31563 27.503124 81.31563 26.815624L81.31563 26.425ZM87.3 31.940624L87.175 30.95625Q87.51875 31.05 87.78438 31.05Q88.12813 31.05 88.33125 30.925Q88.55 30.815624 88.69063 30.6125Q88.78438 30.440624 89.01875 29.815624Q89.03438 29.7375 89.1125 29.565624L86.7375 23.33125L87.87813 23.33125L89.175 26.925Q89.425 27.6125 89.62813 28.378124Q89.81563 27.64375 90.06563 26.95625L91.39375 23.33125L92.44063 23.33125L90.08125 29.659374Q89.69063 30.675 89.4875 31.065624Q89.20625 31.596874 88.83125 31.83125Q88.47188 32.08125 87.97188 32.08125Q87.675 32.08125 87.3 31.940624ZM96.59688 27.55L97.69063 27.675Q97.44063 28.628124 96.7375 29.159374Q96.03438 29.690624 94.95625 29.690624Q93.59688 29.690624 92.78438 28.846874Q91.9875 28.003124 91.9875 26.4875Q91.9875 24.925 92.8 24.065624Q93.6125 23.190624 94.89375 23.190624Q96.14375 23.190624 96.925 24.034374Q97.72188 24.878124 97.72188 26.425Q97.72188 26.51875 97.72188 26.70625L93.08125 26.70625Q93.14375 27.7375 93.65938 28.284374Q94.175 28.815624 94.95625 28.815624Q95.53438 28.815624 95.94063 28.51875Q96.3625 28.20625 96.59688 27.55ZM93.14375 25.846874L96.6125 25.846874Q96.55 25.05 96.22188 24.659374Q95.70625 24.05 94.90938 24.05Q94.175 24.05 93.675 24.534374Q93.19063 25.01875 93.14375 25.846874ZM103.40938 28.784374Q102.81563 29.284374 102.26875 29.4875Q101.7375 29.690624 101.1125 29.690624Q100.08125 29.690624 99.53438 29.190624Q98.9875 28.690624 98.9875 27.909374Q98.9875 27.45625 99.19063 27.08125Q99.39375 26.690624 99.7375 26.471874Q100.08125 26.2375 100.50313 26.128124Q100.8 26.034374 101.44063 25.95625Q102.70625 25.815624 103.31563 25.596874Q103.31563 25.378124 103.31563 25.33125Q103.31563 24.675 103.01875 24.409374Q102.6125 24.065624 101.81563 24.065624Q101.08125 24.065624 100.72188 24.33125Q100.3625 24.58125 100.19063 25.2375L99.15938 25.096874Q99.3 24.440624 99.62813 24.034374Q99.95625 23.628124 100.56563 23.409374Q101.175 23.190624 101.97188 23.190624Q102.76875 23.190624 103.26875 23.378124Q103.76875 23.565624 104.00313 23.846874Q104.2375 24.128124 104.33125 24.565624Q104.37813 24.83125 104.37813 25.534374L104.37813 26.940624Q104.37813 28.409374 104.44063 28.8Q104.51875 29.190624 104.72188 29.55L103.6125 29.55Q103.45625 29.221874 103.40938 28.784374ZM103.31563 26.425Q102.7375 26.659374 101.59688 26.83125Q100.94063 26.925 100.675 27.05Q100.40938 27.159374 100.25313 27.378124Q100.1125 27.596874 100.1125 27.878124Q100.1125 28.3 100.425 28.58125Q100.75313 28.8625 101.3625 28.8625Q101.97188 28.8625 102.44063 28.596874Q102.925 28.33125 103.14375 27.8625Q103.31563 27.503124 103.31563 26.815624L103.31563 26.425ZM106.33125 29.55L106.33125 23.33125L107.28438 23.33125L107.28438 24.26875Q107.64375 23.6125 107.94063 23.409374Q108.25313 23.190624 108.62813 23.190624Q109.15938 23.190624 109.70625 23.51875L109.34688 24.503124Q108.95625 24.26875 108.58125 24.26875Q108.22188 24.26875 107.94063 24.4875Q107.675 24.690624 107.56563 25.065624Q107.37813 25.628124 107.37813 26.284374L107.37813 29.55L106.33125 29.55Z" fill-rule="nonzero"/><path fill="#9e9e9e" d="M23.01875 46.55L21.971874 46.55L21.971874 39.83125Q21.58125 40.190624 20.95625 40.565624Q20.346874 40.925 19.8625 41.096874L19.8625 40.08125Q20.7375 39.659374 21.39375 39.08125Q22.065624 38.4875 22.346874 37.925L23.01875 37.925L23.01875 46.55ZM26.64375 46.55L26.64375 45.346874L27.846874 45.346874L27.846874 46.55L26.64375 46.55ZM32.425 46.55L32.425 44.4875L28.70625 44.4875L28.70625 43.51875L32.628124 37.95625L33.4875 37.95625L33.4875 43.51875L34.64375 43.51875L34.64375 44.4875L33.4875 44.4875L33.4875 46.55L32.425 46.55ZM32.425 43.51875L32.425 39.659374L29.7375 43.51875L32.425 43.51875ZM36.253124 40.01875Q36.253124 39.096874 36.70625 38.45625Q37.175 37.815624 38.05 37.815624Q38.8625 37.815624 39.39375 38.39375Q39.925 38.971874 39.925 40.08125Q39.925 41.175 39.378124 41.76875Q38.846874 42.346874 38.065624 42.346874Q37.284374 42.346874 36.76875 41.76875Q36.253124 41.190624 36.253124 40.01875ZM38.08125 38.534374Q37.690624 38.534374 37.425 38.878124Q37.175 39.221874 37.175 40.128124Q37.175 40.95625 37.425 41.3Q37.690624 41.628124 38.08125 41.628124Q38.4875 41.628124 38.7375 41.284374Q39.003124 40.940624 39.003124 40.05Q39.003124 39.20625 38.7375 38.878124Q38.471874 38.534374 38.08125 38.534374ZM38.08125 46.8625L42.784374 37.815624L43.64375 37.815624L38.95625 46.8625L38.08125 46.8625ZM41.8 44.534374Q41.8 43.6125 42.253124 42.971874Q42.721874 42.33125 43.6125 42.33125Q44.425 42.33125 44.95625 42.909374Q45.4875 43.471874 45.4875 44.596874Q45.4875 45.690624 44.940624 46.284374Q44.409374 46.8625 43.6125 46.8625Q42.846874 46.8625 42.315624 46.284374Q41.8 45.70625 41.8 44.534374ZM43.64375 43.05Q43.2375 43.05 42.971874 43.39375Q42.721874 43.7375 42.721874 44.64375Q42.721874 45.45625 42.9875 45.8Q43.253124 46.14375 43.64375 46.14375Q44.034374 46.14375 44.3 45.8Q44.565624 45.45625 44.565624 44.55Q44.565624 43.721874 44.3 43.39375Q44.034374 43.05 43.64375 43.05Z" fill-rule="nonzero"/><path stroke="#757575" stroke-width="1.0" stroke-linecap="butt" d="M18.55 34.05L127.05 34.05L292.78128 27.061865" fill-rule="nonzero"/><path fill="#9e9e9e" d="M294.78128 27.061865C294.78128 25.957294 293.88583 25.061865 292.78128 25.061865C291.6767 25.061865 290.78128 25.957294 290.78128 27.061865C290.78128 28.166433 291.6767 29.061865 292.78128 29.061865C293.88583 29.061865 294.78128 28.166433 294.78128 27.061865" fill-rule="nonzero"/><path fill="#1a1a1a" d="M23.01875 60.55L21.971874 60.55L21.971874 53.83125Q21.58125 54.190624 20.95625 54.565624Q20.346874 54.925 19.8625 55.096874L19.8625 54.08125Q20.7375 53.659374 21.39375 53.08125Q22.065624 52.4875 22.346874 51.925L23.01875 51.925L23.01875 60.55ZM28.925 57.971874L28.925 56.909374L32.175 56.909374L32.175 57.971874L28.925 57.971874ZM38.596874 59.534374L38.596874 60.55L32.909374 60.55Q32.909374 60.175 33.034374 59.815624Q33.253124 59.2375 33.721874 58.675Q34.20625 58.1125 35.1125 57.378124Q36.51875 56.221874 37.003124 55.55Q37.503124 54.878124 37.503124 54.284374Q37.503124 53.659374 37.05 53.2375Q36.596874 52.8 35.878124 52.8Q35.1125 52.8 34.659374 53.253124Q34.20625 53.70625 34.190624 54.51875L33.1125 54.409374Q33.221874 53.190624 33.940624 52.565624Q34.675 51.925 35.909374 51.925Q37.14375 51.925 37.8625 52.6125Q38.58125 53.3 38.58125 54.315624Q38.58125 54.83125 38.3625 55.33125Q38.159374 55.815624 37.659374 56.378124Q37.175 56.925 36.05 57.878124Q35.096874 58.675 34.815624 58.971874Q34.55 59.253124 34.378124 59.534374L38.596874 59.534374ZM43.3 62.940624L43.175 61.95625Q43.51875 62.05 43.784374 62.05Q44.128124 62.05 44.33125 61.925Q44.55 61.815624 44.690624 61.6125Q44.784374 61.440624 45.01875 60.815624Q45.034374 60.7375 45.1125 60.565624L42.7375 54.33125L43.878124 54.33125L45.175 57.925Q45.425 58.6125 45.628124 59.378124Q45.815624 58.64375 46.065624 57.95625L47.39375 54.33125L48.440624 54.33125L46.08125 60.659374Q45.690624 61.675 45.4875 62.065624Q45.20625 62.596874 44.83125 62.83125Q44.471874 63.08125 43.971874 63.08125Q43.675 63.08125 43.3 62.940624ZM52.596874 58.55L53.690624 58.675Q53.440624 59.628124 52.7375 60.159374Q52.034374 60.690624 50.95625 60.690624Q49.596874 60.690624 48.784374 59.846874Q47.9875 59.003124 47.9875 57.4875Q47.9875 55.925 48.8 55.065624Q49.6125 54.190624 50.89375 54.190624Q52.14375 54.190624 52.925 55.034374Q53.721874 55.878124 53.721874 57.425Q53.721874 57.51875 53.721874 57.70625L49.08125 57.70625Q49.14375 58.7375 49.659374 59.284374Q50.175 59.815624 50.95625 59.815624Q51.534374 59.815624 51.940624 59.51875Q52.3625 59.20625 52.596874 58.55ZM49.14375 56.846874L52.6125 56.846874Q52.55 56.05 52.221874 55.659374Q51.70625 55.05 50.909374 55.05Q50.175 55.05 49.675 55.534374Q49.190624 56.01875 49.14375 56.846874ZM59.409374 59.784374Q58.815624 60.284374 58.26875 60.4875Q57.7375 60.690624 57.1125 60.690624Q56.08125 60.690624 55.534374 60.190624Q54.9875 59.690624 54.9875 58.909374Q54.9875 58.45625 55.190624 58.08125Q55.39375 57.690624 55.7375 57.471874Q56.08125 57.2375 56.503124 57.128124Q56.8 57.034374 57.440624 56.95625Q58.70625 56.815624 59.315624 56.596874Q59.315624 56.378124 59.315624 56.33125Q59.315624 55.675 59.01875 55.409374Q58.6125 55.065624 57.815624 55.065624Q57.08125 55.065624 56.721874 55.33125Q56.3625 55.58125 56.190624 56.2375L55.159374 56.096874Q55.3 55.440624 55.628124 55.034374Q55.95625 54.628124 56.565624 54.409374Q57.175 54.190624 57.971874 54.190624Q58.76875 54.190624 59.26875 54.378124Q59.76875 54.565624 60.003124 54.846874Q60.2375 55.128124 60.33125 55.565624Q60.378124 55.83125 60.378124 56.534374L60.378124 57.940624Q60.378124 59.409374 60.440624 59.8Q60.51875 60.190624 60.721874 60.55L59.6125 60.55Q59.45625 60.221874 59.409374 59.784374ZM59.315624 57.425Q58.7375 57.659374 57.596874 57.83125Q56.940624 57.925 56.675 58.05Q56.409374 58.159374 56.253124 58.378124Q56.1125 58.596874 56.1125 58.878124Q56.1125 59.3 56.425 59.58125Q56.753124 59.8625 57.3625 59.8625Q57.971874 59.8625 58.440624 59.596874Q58.925 59.33125 59.14375 58.8625Q59.315624 58.503124 59.315624 57.815624L59.315624 57.425ZM62.33125 60.55L62.33125 54.33125L63.284374 54.33125L63.284374 55.26875Q63.64375 54.6125 63.940624 54.409374Q64.25313 54.190624 64.62813 54.190624Q65.15938 54.190624 65.70625 54.51875L65.34688 55.503124Q64.95625 55.26875 64.58125 55.26875Q64.22188 55.26875 63.940624 55.4875Q63.675 55.690624 63.565624 56.065624Q63.378124 56.628124 63.378124 57.284374L63.378124 60.55L62.33125 60.55ZM65.925 58.690624L66.95625 58.534374Q67.05 59.159374 67.44063 59.4875Q67.84688 59.815624 68.58125 59.815624Q69.3 59.815624 69.64375 59.534374Q70.00313 59.2375 70.00313 58.83125Q70.00313 58.471874 69.69063 58.26875Q69.47188 58.128124 68.6125 57.909374Q67.45625 57.6125 67.00313 57.409374Q66.56563 57.190624 66.33125 56.815624Q66.09688 56.440624 66.09688 55.971874Q66.09688 55.565624 66.28438 55.20625Q66.47188 54.846874 66.8 54.6125Q67.05 54.440624 67.47188 54.315624Q67.89375 54.190624 68.39375 54.190624Q69.1125 54.190624 69.65938 54.409374Q70.22188 54.6125 70.4875 54.971874Q70.75313 55.33125 70.84688 55.925L69.81563 56.065624Q69.75313 55.596874 69.40938 55.33125Q69.08125 55.05 68.45625 55.05Q67.7375 55.05 67.425 55.3Q67.1125 55.534374 67.1125 55.8625Q67.1125 56.065624 67.2375 56.221874Q67.37813 56.39375 67.64375 56.503124Q67.8 56.565624 68.58125 56.76875Q69.70625 57.08125 70.14375 57.26875Q70.58125 57.45625 70.83125 57.815624Q71.08125 58.175 71.08125 58.721874Q71.08125 59.253124 70.76875 59.721874Q70.47188 60.175 69.89375 60.440624Q69.31563 60.690624 68.58125 60.690624Q67.3625 60.690624 66.72188 60.190624Q66.09688 59.675 65.925 58.690624Z" fill-rule="nonzero"/><path fill="#9e9e9e" d="M20.675 72.89375Q20.01875 72.64375 19.690624 72.20625Q19.378124 71.75313 19.378124 71.14375Q19.378124 70.20625 20.05 69.56563Q20.7375 68.925 21.846874 68.925Q22.971874 68.925 23.659374 69.58125Q24.346874 70.2375 24.346874 71.175Q24.346874 71.76875 24.034374 72.20625Q23.721874 72.64375 23.08125 72.89375Q23.878124 73.14375 24.284374 73.72188Q24.690624 74.3 24.690624 75.09688Q24.690624 76.19063 23.909374 76.94063Q23.14375 77.69063 21.8625 77.69063Q20.596874 77.69063 19.815624 76.94063Q19.034374 76.19063 19.034374 75.06563Q19.034374 74.22188 19.45625 73.65938Q19.89375 73.09688 20.675 72.89375ZM20.45625 71.09688Q20.45625 71.70625 20.846874 72.09688Q21.253124 72.4875 21.878124 72.4875Q22.4875 72.4875 22.878124 72.1125Q23.26875 71.72188 23.26875 71.15938Q23.26875 70.58125 22.8625 70.19063Q22.45625 69.78438 21.8625 69.78438Q21.253124 69.78438 20.846874 70.175Q20.45625 70.56563 20.45625 71.09688ZM20.128124 75.06563Q20.128124 75.51875 20.33125 75.94063Q20.55 76.3625 20.971874 76.59688Q21.39375 76.83125 21.878124 76.83125Q22.628124 76.83125 23.1125 76.34688Q23.6125 75.8625 23.6125 75.1125Q23.6125 74.34688 23.1125 73.84688Q22.6125 73.34688 21.846874 73.34688Q21.096874 73.34688 20.6125 73.84688Q20.128124 74.33125 20.128124 75.06563ZM26.64375 77.55L26.64375 76.34688L27.846874 76.34688L27.846874 77.55L26.64375 77.55ZM29.05 73.31563Q29.05 71.78438 29.3625 70.8625Q29.675 69.925 30.284374 69.425Q30.909374 68.925 31.846874 68.925Q32.534374 68.925 33.05 69.20625Q33.58125 69.4875 33.925 70.01875Q34.26875 70.53438 34.45625 71.28438Q34.64375 72.03438 34.64375 73.31563Q34.64375 74.83125 34.33125 75.75313Q34.034374 76.675 33.409374 77.19063Q32.8 77.69063 31.846874 77.69063Q30.6125 77.69063 29.89375 76.8Q29.05 75.7375 29.05 73.31563ZM30.128124 73.31563Q30.128124 75.425 30.628124 76.12813Q31.128124 76.83125 31.846874 76.83125Q32.58125 76.83125 33.065624 76.12813Q33.565624 75.425 33.565624 73.31563Q33.565624 71.19063 33.065624 70.50313Q32.58125 69.8 31.83125 69.8Q31.1125 69.8 30.675 70.40938Q30.128124 71.19063 30.128124 73.31563ZM36.253124 71.01875Q36.253124 70.09688 36.70625 69.45625Q37.175 68.81563 38.05 68.81563Q38.8625 68.81563 39.39375 69.39375Q39.925 69.97188 39.925 71.08125Q39.925 72.175 39.378124 72.76875Q38.846874 73.34688 38.065624 73.34688Q37.284374 73.34688 36.76875 72.76875Q36.253124 72.19063 36.253124 71.01875ZM38.08125 69.53438Q37.690624 69.53438 37.425 69.87813Q37.175 70.22188 37.175 71.12813Q37.175 71.95625 37.425 72.3Q37.690624 72.62813 38.08125 72.62813Q38.4875 72.62813 38.7375 72.28438Q39.003124 71.94063 39.003124 71.05Q39.003124 70.20625 38.7375 69.87813Q38.471874 69.53438 38.08125 69.53438ZM38.08125 77.8625L42.784374 68.81563L43.64375 68.81563L38.95625 77.8625L38.08125 77.8625ZM41.8 75.53438Q41.8 74.6125 42.253124 73.97188Q42.721874 73.33125 43.6125 73.33125Q44.425 73.33125 44.95625 73.90938Q45.4875 74.47188 45.4875 75.59688Q45.4875 76.69063 44.940624 77.28438Q44.409374 77.8625 43.6125 77.8625Q42.846874 77.8625 42.315624 77.28438Q41.8 76.70625 41.8 75.53438ZM43.64375 74.05Q43.2375 74.05 42.971874 74.39375Q42.721874 74.7375 42.721874 75.64375Q42.721874 76.45625 42.9875 76.8Q43.253124 77.14375 43.64375 77.14375Q44.034374 77.14375 44.3 76.8Q44.565624 76.45625 44.565624 75.55Q44.565624 74.72188 44.3 74.39375Q44.034374 74.05 43.64375 74.05Z" fill-rule="nonzero"/><path stroke="#757575" stroke-width="1.0" stroke-linecap="butt" d="M18.55 65.05L127.05 65.05L246.88725 36.05506" fill-rule="nonzero"/><path fill="#9e9e9e" d="M248.88725 36.05506C248.88725 34.950493 247.99182 34.05506 246.88725 34.05506C245.78268 34.05506 244.88725 34.950493 244.88725 36.05506C244.88725 37.15963 245.78268 38.05506 246.88725 38.05506C247.99182 38.05506 248.88725 37.15963 248.88725 36.05506" fill-rule="nonzero"/><path fill="#1a1a1a" d="M19.1125 155.51715L19.1125 154.50153L24.675 154.50153L24.675 155.32965Q23.8625 156.20465 23.05 157.65778Q22.253124 159.09528 21.815624 160.62653Q21.4875 161.70465 21.409374 162.9859L20.315624 162.9859Q20.33125 161.97028 20.70625 160.53278Q21.096874 159.09528 21.8 157.76715Q22.51875 156.43903 23.33125 155.51715L19.1125 155.51715ZM25.925 160.40778L25.925 159.34528L29.175 159.34528L29.175 160.40778L25.925 160.40778ZM30.20625 161.00153L31.221874 160.90778Q31.346874 161.62653 31.70625 161.95465Q32.08125 162.26715 32.64375 162.26715Q33.128124 162.26715 33.4875 162.0484Q33.8625 161.81403 34.096874 161.45465Q34.33125 161.07965 34.4875 160.45465Q34.64375 159.81403 34.64375 159.15778Q34.64375 159.07965 34.64375 158.93903Q34.33125 159.43903 33.784374 159.76715Q33.2375 160.07965 32.596874 160.07965Q31.51875 160.07965 30.784374 159.31403Q30.05 158.53278 30.05 157.26715Q30.05 155.95465 30.815624 155.15778Q31.596874 154.3609 32.753124 154.3609Q33.58125 154.3609 34.26875 154.81403Q34.971874 155.26715 35.33125 156.1109Q35.690624 156.93903 35.690624 158.51715Q35.690624 160.15778 35.33125 161.14215Q34.9875 162.1109 34.26875 162.62653Q33.565624 163.12653 32.628124 163.12653Q31.6125 163.12653 30.971874 162.57965Q30.33125 162.01715 30.20625 161.00153ZM34.51875 157.20465Q34.51875 156.2984 34.034374 155.76715Q33.565624 155.2359 32.878124 155.2359Q32.175 155.2359 31.64375 155.81403Q31.128124 156.37653 31.128124 157.2984Q31.128124 158.1109 31.628124 158.62653Q32.128124 159.14215 32.846874 159.14215Q33.58125 159.14215 34.05 158.62653Q34.51875 158.1109 34.51875 157.20465ZM40.3 165.37653L40.175 164.39215Q40.51875 164.4859 40.784374 164.4859Q41.128124 164.4859 41.33125 164.3609Q41.55 164.25153 41.690624 164.0484Q41.784374 163.87653 42.01875 163.25153Q42.034374 163.1734 42.1125 163.00153L39.7375 156.76715L40.878124 156.76715L42.175 160.3609Q42.425 161.0484 42.628124 161.81403Q42.815624 161.07965 43.065624 160.39215L44.39375 156.76715L45.440624 156.76715L43.08125 163.09528Q42.690624 164.1109 42.4875 164.50153Q42.20625 165.03278 41.83125 165.26715Q41.471874 165.51715 40.971874 165.51715Q40.675 165.51715 40.3 165.37653ZM49.596874 160.9859L50.690624 161.1109Q50.440624 162.06403 49.7375 162.59528Q49.034374 163.12653 47.95625 163.12653Q46.596874 163.12653 45.784374 162.28278Q44.9875 161.43903 44.9875 159.9234Q44.9875 158.3609 45.8 157.50153Q46.6125 156.62653 47.89375 156.62653Q49.14375 156.62653 49.925 157.47028Q50.721874 158.31403 50.721874 159.8609Q50.721874 159.95465 50.721874 160.14215L46.08125 160.14215Q46.14375 161.1734 46.659374 161.72028Q47.175 162.25153 47.95625 162.25153Q48.534374 162.25153 48.940624 161.95465Q49.3625 161.64215 49.596874 160.9859ZM46.14375 159.28278L49.6125 159.28278Q49.55 158.4859 49.221874 158.09528Q48.70625 157.4859 47.909374 157.4859Q47.175 157.4859 46.675 157.97028Q46.190624 158.45465 46.14375 159.28278ZM56.409374 162.22028Q55.815624 162.72028 55.26875 162.9234Q54.7375 163.12653 54.1125 163.12653Q53.08125 163.12653 52.534374 162.62653Q51.9875 162.12653 51.9875 161.34528Q51.9875 160.89215 52.190624 160.51715Q52.39375 160.12653 52.7375 159.90778Q53.08125 159.6734 53.503124 159.56403Q53.8 159.47028 54.440624 159.39215Q55.70625 159.25153 56.315624 159.03278Q56.315624 158.81403 56.315624 158.76715Q56.315624 158.1109 56.01875 157.84528Q55.6125 157.50153 54.815624 157.50153Q54.08125 157.50153 53.721874 157.76715Q53.3625 158.01715 53.190624 158.6734L52.159374 158.53278Q52.3 157.87653 52.628124 157.47028Q52.95625 157.06403 53.565624 156.84528Q54.175 156.62653 54.971874 156.62653Q55.76875 156.62653 56.26875 156.81403Q56.76875 157.00153 57.003124 157.28278Q57.2375 157.56403 57.33125 158.00153Q57.378124 158.26715 57.378124 158.97028L57.378124 160.37653Q57.378124 161.84528 57.440624 162.2359Q57.51875 162.62653 57.721874 162.9859L56.6125 162.9859Q56.45625 162.65778 56.409374 162.22028ZM56.315624 159.8609Q55.7375 160.09528 54.596874 160.26715Q53.940624 160.3609 53.675 160.4859Q53.409374 160.59528 53.253124 160.81403Q53.1125 161.03278 53.1125 161.31403Q53.1125 161.7359 53.425 162.01715Q53.753124 162.2984 54.3625 162.2984Q54.971874 162.2984 55.440624 162.03278Q55.925 161.76715 56.14375 161.2984Q56.315624 160.93903 56.315624 160.25153L56.315624 159.8609ZM59.33125 162.9859L59.33125 156.76715L60.284374 156.76715L60.284374 157.70465Q60.64375 157.0484 60.940624 156.84528Q61.253124 156.62653 61.628124 156.62653Q62.159374 156.62653 62.70625 156.95465L62.346874 157.93903Q61.95625 157.70465 61.58125 157.70465Q61.221874 157.70465 60.940624 157.9234Q60.675 158.12653 60.565624 158.50153Q60.378124 159.06403 60.378124 159.72028L60.378124 162.9859L59.33125 162.9859ZM62.925 161.12653L63.95625 160.97028Q64.05 161.59528 64.44063 161.9234Q64.84688 162.25153 65.58125 162.25153Q66.3 162.25153 66.64375 161.97028Q67.00313 161.6734 67.00313 161.26715Q67.00313 160.90778 66.69063 160.70465Q66.47188 160.56403 65.6125 160.34528Q64.45625 160.0484 64.00313 159.84528Q63.565624 159.62653 63.33125 159.25153Q63.096874 158.87653 63.096874 158.40778Q63.096874 158.00153 63.284374 157.64215Q63.471874 157.28278 63.8 157.0484Q64.05 156.87653 64.47188 156.75153Q64.89375 156.62653 65.39375 156.62653Q66.1125 156.62653 66.65938 156.84528Q67.22188 157.0484 67.4875 157.40778Q67.75313 157.76715 67.84688 158.3609L66.81563 158.50153Q66.75313 158.03278 66.40938 157.76715Q66.08125 157.4859 65.45625 157.4859Q64.7375 157.4859 64.425 157.7359Q64.1125 157.97028 64.1125 158.2984Q64.1125 158.50153 64.2375 158.65778Q64.37813 158.82965 64.64375 158.93903Q64.8 159.00153 65.58125 159.20465Q66.70625 159.51715 67.14375 159.70465Q67.58125 159.89215 67.83125 160.25153Q68.08125 160.6109 68.08125 161.15778Q68.08125 161.68903 67.76875 162.15778Q67.47188 162.6109 66.89375 162.87653Q66.31563 163.12653 65.58125 163.12653Q64.3625 163.12653 63.721874 162.62653Q63.096874 162.1109 62.925 161.12653Z" fill-rule="nonzero"/><path fill="#9e9e9e" d="M24.596874 178.97028L24.596874 179.9859L18.909374 179.9859Q18.909374 179.6109 19.034374 179.25153Q19.253124 178.6734 19.721874 178.1109Q20.20625 177.5484 21.1125 176.81403Q22.51875 175.65778 23.003124 174.9859Q23.503124 174.31403 23.503124 173.72028Q23.503124 173.09528 23.05 172.6734Q22.596874 172.2359 21.878124 172.2359Q21.1125 172.2359 20.659374 172.68903Q20.20625 173.14215 20.190624 173.95465L19.1125 173.84528Q19.221874 172.62653 19.940624 172.00153Q20.675 171.3609 21.909374 171.3609Q23.14375 171.3609 23.8625 172.0484Q24.58125 172.7359 24.58125 173.75153Q24.58125 174.26715 24.3625 174.76715Q24.159374 175.25153 23.659374 175.81403Q23.175 176.3609 22.05 177.31403Q21.096874 178.1109 20.815624 178.40778Q20.55 178.68903 20.378124 178.97028L24.596874 178.97028ZM26.1125 172.51715L26.1125 171.50153L31.675 171.50153L31.675 172.32965Q30.8625 173.20465 30.05 174.65778Q29.253124 176.09528 28.815624 177.62653Q28.4875 178.70465 28.409374 179.9859L27.315624 179.9859Q27.33125 178.97028 27.70625 177.53278Q28.096874 176.09528 28.8 174.76715Q29.51875 173.43903 30.33125 172.51715L26.1125 172.51715ZM33.64375 179.9859L33.64375 178.78278L34.846874 178.78278L34.846874 179.9859L33.64375 179.9859ZM36.05 177.7359L37.159374 177.64215Q37.284374 178.45465 37.721874 178.8609Q38.175 179.26715 38.815624 179.26715Q39.565624 179.26715 40.096874 178.68903Q40.628124 178.1109 40.628124 177.1734Q40.628124 176.26715 40.1125 175.75153Q39.6125 175.22028 38.784374 175.22028Q38.284374 175.22028 37.8625 175.45465Q37.45625 175.68903 37.221874 176.0484L36.2375 175.9234L37.065624 171.51715L41.346874 171.51715L41.346874 172.51715L37.909374 172.51715L37.45625 174.82965Q38.221874 174.28278 39.065624 174.28278Q40.190624 174.28278 40.95625 175.06403Q41.7375 175.84528 41.7375 177.07965Q41.7375 178.2359 41.065624 179.09528Q40.2375 180.12653 38.815624 180.12653Q37.64375 180.12653 36.89375 179.47028Q36.159374 178.81403 36.05 177.7359ZM43.253124 173.45465Q43.253124 172.53278 43.70625 171.89215Q44.175 171.25153 45.05 171.25153Q45.8625 171.25153 46.39375 171.82965Q46.925 172.40778 46.925 173.51715Q46.925 174.6109 46.378124 175.20465Q45.846874 175.78278 45.065624 175.78278Q44.284374 175.78278 43.76875 175.20465Q43.253124 174.62653 43.253124 173.45465ZM45.08125 171.97028Q44.690624 171.97028 44.425 172.31403Q44.175 172.65778 44.175 173.56403Q44.175 174.39215 44.425 174.7359Q44.690624 175.06403 45.08125 175.06403Q45.4875 175.06403 45.7375 174.72028Q46.003124 174.37653 46.003124 173.4859Q46.003124 172.64215 45.7375 172.31403Q45.471874 171.97028 45.08125 171.97028ZM45.08125 180.2984L49.784374 171.25153L50.64375 171.25153L45.95625 180.2984L45.08125 180.2984ZM48.8 177.97028Q48.8 177.0484 49.253124 176.40778Q49.721874 175.76715 50.6125 175.76715Q51.425 175.76715 51.95625 176.34528Q52.4875 176.90778 52.4875 178.03278Q52.4875 179.12653 51.940624 179.72028Q51.409374 180.2984 50.6125 180.2984Q49.846874 180.2984 49.315624 179.72028Q48.8 179.14215 48.8 177.97028ZM50.64375 176.4859Q50.2375 176.4859 49.971874 176.82965Q49.721874 177.1734 49.721874 178.07965Q49.721874 178.89215 49.9875 179.2359Q50.253124 179.57965 50.64375 179.57965Q51.034374 179.57965 51.3 179.2359Q51.565624 178.89215 51.565624 177.9859Q51.565624 177.15778 51.3 176.82965Q51.034374 176.4859 50.64375 176.4859Z" fill-rule="nonzero"/><path stroke="#757575" stroke-width="1.0" stroke-linecap="butt" d="M18.55 167.4859L127.05 167.4859L142.42384 167.4859" fill-rule="nonzero"/><path fill="#9e9e9e" d="M144.42384 167.4859C144.42384 166.38133 143.52841 165.4859 142.42384 165.4859C141.31927 165.4859 140.42384 166.38133 140.42384 167.4859C140.42384 168.59047 141.31927 169.4859 142.42384 169.4859C143.52841 169.4859 144.42384 168.59047 144.42384 167.4859" fill-rule="nonzero"/><path fill="#1a1a1a" d="M531.91876 101.69875L530.8719 101.69875L530.8719 94.98Q530.48126 95.33938 529.85626 95.71438Q529.2469 96.07375 528.7625 96.24563L528.7625 95.23Q529.6375 94.80813 530.29376 94.23Q530.96564 93.63625 531.2469 93.07375L531.91876 93.07375L531.91876 101.69875ZM534.95 97.46438Q534.95 95.93313 535.2625 95.01125Q535.575 94.07375 536.1844 93.57375Q536.8094 93.07375 537.7469 93.07375Q538.4344 93.07375 538.95 93.355Q539.48126 93.63625 539.825 94.1675Q540.16876 94.68313 540.35626 95.43313Q540.54376 96.18313 540.54376 97.46438Q540.54376 98.98 540.23126 99.90188Q539.9344 100.82375 539.3094 101.33938Q538.7 101.83938 537.7469 101.83938Q536.5125 101.83938 535.79376 100.94875Q534.95 99.88625 534.95 97.46438ZM536.02814 97.46438Q536.02814 99.57375 536.52814 100.27688Q537.02814 100.98 537.7469 100.98Q538.48126 100.98 538.96564 100.27688Q539.46564 99.57375 539.46564 97.46438Q539.46564 95.33938 538.96564 94.65188Q538.48126 93.94875 537.73126 93.94875Q537.0125 93.94875 536.575 94.55813Q536.02814 95.33938 536.02814 97.46438ZM544.45 100.30813L544.45 97.94875L542.1219 97.94875L542.1219 96.96438L544.45 96.96438L544.45 94.63625L545.45 94.63625L545.45 96.96438L547.79376 96.96438L547.79376 97.94875L545.45 97.94875L545.45 100.30813L544.45 100.30813ZM552.2 104.08938L552.075 103.105Q552.41876 103.19875 552.6844 103.19875Q553.02814 103.19875 553.23126 103.07375Q553.45 102.96438 553.59064 102.76125Q553.6844 102.58938 553.91876 101.96438Q553.9344 101.88625 554.0125 101.71438L551.6375 95.48L552.77814 95.48L554.075 99.07375Q554.325 99.76125 554.52814 100.52688Q554.71564 99.7925 554.96564 99.105L556.29376 95.48L557.34064 95.48L554.98126 101.80813Q554.59064 102.82375 554.3875 103.21438Q554.10626 103.74563 553.73126 103.98Q553.3719 104.23 552.8719 104.23Q552.575 104.23 552.2 104.08938ZM561.4969 99.69875L562.59064 99.82375Q562.34064 100.77688 561.6375 101.30813Q560.9344 101.83938 559.85626 101.83938Q558.4969 101.83938 557.6844 100.99563Q556.8875 100.15188 556.8875 98.63625Q556.8875 97.07375 557.7 96.21438Q558.5125 95.33938 559.79376 95.33938Q561.04376 95.33938 561.825 96.18313Q562.6219 97.02688 562.6219 98.57375Q562.6219 98.6675 562.6219 98.855L557.98126 98.855Q558.04376 99.88625 558.5594 100.43313Q559.075 100.96438 559.85626 100.96438Q560.4344 100.96438 560.84064 100.6675Q561.2625 100.355 561.4969 99.69875ZM558.04376 97.99563L561.5125 97.99563Q561.45 97.19875 561.1219 96.80813Q560.60626 96.19875 559.8094 96.19875Q559.075 96.19875 558.575 96.68313Q558.09064 97.1675 558.04376 97.99563ZM568.3094 100.93313Q567.71564 101.43313 567.16876 101.63625Q566.6375 101.83938 566.0125 101.83938Q564.98126 101.83938 564.4344 101.33938Q563.8875 100.83938 563.8875 100.05813Q563.8875 99.605 564.09064 99.23Q564.29376 98.83938 564.6375 98.62063Q564.98126 98.38625 565.40314 98.27688Q565.7 98.18313 566.34064 98.105Q567.60626 97.96438 568.21564 97.74563Q568.21564 97.52688 568.21564 97.48Q568.21564 96.82375 567.91876 96.55813Q567.5125 96.21438 566.71564 96.21438Q565.98126 96.21438 565.6219 96.48Q565.2625 96.73 565.09064 97.38625L564.0594 97.24563Q564.2 96.58938 564.52814 96.18313Q564.85626 95.77688 565.46564 95.55813Q566.075 95.33938 566.8719 95.33938Q567.66876 95.33938 568.16876 95.52688Q568.66876 95.71438 568.90314 95.99563Q569.1375 96.27688 569.23126 96.71438Q569.27814 96.98 569.27814 97.68313L569.27814 99.08938Q569.27814 100.55813 569.34064 100.94875Q569.41876 101.33938 569.6219 101.69875L568.5125 101.69875Q568.35626 101.37063 568.3094 100.93313ZM568.21564 98.57375Q567.6375 98.80813 566.4969 98.98Q565.84064 99.07375 565.575 99.19875Q565.3094 99.30813 565.15314 99.52688Q565.0125 99.74563 565.0125 100.02688Q565.0125 100.44875 565.325 100.73Q565.65314 101.01125 566.2625 101.01125Q566.8719 101.01125 567.34064 100.74563Q567.825 100.48 568.04376 100.01125Q568.21564 99.65188 568.21564 98.96438L568.21564 98.57375ZM571.23126 101.69875L571.23126 95.48L572.1844 95.48L572.1844 96.4175Q572.54376 95.76125 572.84064 95.55813Q573.15314 95.33938 573.52814 95.33938Q574.0594 95.33938 574.60626 95.6675L574.2469 96.65188Q573.85626 96.4175 573.48126 96.4175Q573.1219 96.4175 572.84064 96.63625Q572.575 96.83938 572.46564 97.21438Q572.27814 97.77688 572.27814 98.43313L572.27814 101.69875L571.23126 101.69875ZM574.825 99.83938L575.85626 99.68313Q575.95 100.30813 576.34064 100.63625Q576.7469 100.96438 577.48126 100.96438Q578.2 100.96438 578.54376 100.68313Q578.90314 100.38625 578.90314 99.98Q578.90314 99.62063 578.59064 99.4175Q578.3719 99.27688 577.5125 99.05813Q576.35626 98.76125 575.90314 98.55813Q575.46564 98.33938 575.23126 97.96438Q574.9969 97.58938 574.9969 97.12063Q574.9969 96.71438 575.1844 96.355Q575.3719 95.99563 575.7 95.76125Q575.95 95.58938 576.3719 95.46438Q576.79376 95.33938 577.29376 95.33938Q578.0125 95.33938 578.5594 95.55813Q579.1219 95.76125 579.3875 96.12063Q579.65314 96.48 579.7469 97.07375L578.71564 97.21438Q578.65314 96.74563 578.3094 96.48Q577.98126 96.19875 577.35626 96.19875Q576.6375 96.19875 576.325 96.44875Q576.0125 96.68313 576.0125 97.01125Q576.0125 97.21438 576.1375 97.37063Q576.27814 97.5425 576.54376 97.65188Q576.7 97.71438 577.48126 97.9175Q578.60626 98.23 579.04376 98.4175Q579.48126 98.605 579.73126 98.96438Q579.98126 99.32375 579.98126 99.87063Q579.98126 100.40188 579.66876 100.87063Q579.3719 101.32375 578.79376 101.58938Q578.21564 101.83938 577.48126 101.83938Q576.2625 101.83938 575.6219 101.33938Q574.9969 100.82375 574.825 99.83938Z" fill-rule="nonzero"/><path fill="#9e9e9e" d="M546.95 116.43313L548.0125 116.2925Q548.1844 117.18313 548.6219 117.58938Q549.0594 117.98 549.6844 117.98Q550.4344 117.98 550.95 117.46438Q551.46564 116.94875 551.46564 116.18313Q551.46564 115.46438 550.98126 114.99563Q550.5125 114.51125 549.77814 114.51125Q549.48126 114.51125 549.02814 114.63625L549.15314 113.69875Q549.2625 113.71438 549.325 113.71438Q549.9969 113.71438 550.52814 113.37063Q551.075 113.01125 551.075 112.27688Q551.075 111.69875 550.6844 111.32375Q550.29376 110.93313 549.66876 110.93313Q549.0594 110.93313 548.6375 111.32375Q548.23126 111.71438 548.1219 112.48L547.0594 112.2925Q547.2469 111.24563 547.9344 110.6675Q548.6219 110.07375 549.6375 110.07375Q550.34064 110.07375 550.9344 110.38625Q551.52814 110.68313 551.84064 111.19875Q552.15314 111.71438 552.15314 112.30813Q552.15314 112.855 551.85626 113.32375Q551.5594 113.77688 550.98126 114.0425Q551.73126 114.21438 552.15314 114.77688Q552.575 115.32375 552.575 116.1675Q552.575 117.2925 551.7469 118.07375Q550.9344 118.855 549.6844 118.855Q548.5594 118.855 547.8094 118.18313Q547.0594 117.49563 546.95 116.43313ZM553.95 116.43313L555.0125 116.2925Q555.1844 117.18313 555.6219 117.58938Q556.0594 117.98 556.6844 117.98Q557.4344 117.98 557.95 117.46438Q558.46564 116.94875 558.46564 116.18313Q558.46564 115.46438 557.98126 114.99563Q557.5125 114.51125 556.77814 114.51125Q556.48126 114.51125 556.02814 114.63625L556.15314 113.69875Q556.2625 113.71438 556.325 113.71438Q556.9969 113.71438 557.52814 113.37063Q558.075 113.01125 558.075 112.27688Q558.075 111.69875 557.6844 111.32375Q557.29376 110.93313 556.66876 110.93313Q556.0594 110.93313 555.6375 111.32375Q555.23126 111.71438 555.1219 112.48L554.0594 112.2925Q554.2469 111.24563 554.9344 110.6675Q555.6219 110.07375 556.6375 110.07375Q557.34064 110.07375 557.9344 110.38625Q558.52814 110.68313 558.84064 111.19875Q559.15314 111.71438 559.15314 112.30813Q559.15314 112.855 558.85626 113.32375Q558.5594 113.77688 557.98126 114.0425Q558.73126 114.21438 559.15314 114.77688Q559.575 115.32375 559.575 116.1675Q559.575 117.2925 558.7469 118.07375Q557.9344 118.855 556.6844 118.855Q555.5594 118.855 554.8094 118.18313Q554.0594 117.49563 553.95 116.43313ZM561.54376 118.69875L561.54376 117.49563L562.7469 117.49563L562.7469 118.69875L561.54376 118.69875ZM563.95 116.43313L565.0125 116.2925Q565.1844 117.18313 565.6219 117.58938Q566.0594 117.98 566.6844 117.98Q567.4344 117.98 567.95 117.46438Q568.46564 116.94875 568.46564 116.18313Q568.46564 115.46438 567.98126 114.99563Q567.5125 114.51125 566.77814 114.51125Q566.48126 114.51125 566.02814 114.63625L566.15314 113.69875Q566.2625 113.71438 566.325 113.71438Q566.9969 113.71438 567.52814 113.37063Q568.075 113.01125 568.075 112.27688Q568.075 111.69875 567.6844 111.32375Q567.29376 110.93313 566.66876 110.93313Q566.0594 110.93313 565.6375 111.32375Q565.23126 111.71438 565.1219 112.48L564.0594 112.2925Q564.2469 111.24563 564.9344 110.6675Q565.6219 110.07375 566.6375 110.07375Q567.34064 110.07375 567.9344 110.38625Q568.52814 110.68313 568.84064 111.19875Q569.15314 111.71438 569.15314 112.30813Q569.15314 112.855 568.85626 113.32375Q568.5594 113.77688 567.98126 114.0425Q568.73126 114.21438 569.15314 114.77688Q569.575 115.32375 569.575 116.1675Q569.575 117.2925 568.7469 118.07375Q567.9344 118.855 566.6844 118.855Q565.5594 118.855 564.8094 118.18313Q564.0594 117.49563 563.95 116.43313ZM571.15314 112.1675Q571.15314 111.24563 571.60626 110.605Q572.075 109.96438 572.95 109.96438Q573.7625 109.96438 574.29376 110.5425Q574.825 111.12063 574.825 112.23Q574.825 113.32375 574.27814 113.9175Q573.7469 114.49563 572.96564 114.49563Q572.1844 114.49563 571.66876 113.9175Q571.15314 113.33938 571.15314 112.1675ZM572.98126 110.68313Q572.59064 110.68313 572.325 111.02688Q572.075 111.37063 572.075 112.27688Q572.075 113.105 572.325 113.44875Q572.59064 113.77688 572.98126 113.77688Q573.3875 113.77688 573.6375 113.43313Q573.90314 113.08938 573.90314 112.19875Q573.90314 111.355 573.6375 111.02688Q573.3719 110.68313 572.98126 110.68313ZM572.98126 119.01125L577.6844 109.96438L578.54376 109.96438L573.85626 119.01125L572.98126 119.01125ZM576.7 116.68313Q576.7 115.76125 577.15314 115.12063Q577.6219 114.48 578.5125 114.48Q579.325 114.48 579.85626 115.05813Q580.3875 115.62063 580.3875 116.74563Q580.3875 117.83938 579.84064 118.43313Q579.3094 119.01125 578.5125 119.01125Q577.7469 119.01125 577.21564 118.43313Q576.7 117.855 576.7 116.68313ZM578.54376 115.19875Q578.1375 115.19875 577.8719 115.5425Q577.6219 115.88625 577.6219 116.7925Q577.6219 117.605 577.8875 117.94875Q578.15314 118.2925 578.54376 118.2925Q578.9344 118.2925 579.2 117.94875Q579.46564 117.605 579.46564 116.69875Q579.46564 115.87063 579.2 115.5425Q578.9344 115.19875 578.54376 115.19875Z" fill-rule="nonzero"/><path stroke="#757575" stroke-width="1.0" stroke-linecap="butt" d="M581.45 106.19875L472.95 106.19875L437.3538 106.19875" fill-rule="nonzero"/><path fill="#9e9e9e" d="M439.3538 106.19875C439.3538 105.09418 438.45837 104.19875 437.3538 104.19875C436.24924 104.19875 435.3538 105.09418 435.3538 106.19875C435.3538 107.30332 436.24924 108.19875 437.3538 108.19875C438.45837 108.19875 439.3538 107.30332 439.3538 106.19875" fill-rule="nonzero"/><path fill="#1a1a1a" d="M530.95 330.1844L532.0125 330.04376Q532.1844 330.9344 532.6219 331.34064Q533.0594 331.73126 533.6844 331.73126Q534.4344 331.73126 534.95 331.21564Q535.46564 330.7 535.46564 329.9344Q535.46564 329.21564 534.98126 328.7469Q534.5125 328.2625 533.77814 328.2625Q533.48126 328.2625 533.02814 328.3875L533.15314 327.45Q533.2625 327.46564 533.325 327.46564Q533.9969 327.46564 534.52814 327.1219Q535.075 326.7625 535.075 326.02814Q535.075 325.45 534.6844 325.075Q534.29376 324.6844 533.66876 324.6844Q533.0594 324.6844 532.6375 325.075Q532.23126 325.46564 532.1219 326.23126L531.0594 326.04376Q531.2469 324.9969 531.9344 324.41876Q532.6219 323.825 533.6375 323.825Q534.34064 323.825 534.9344 324.1375Q535.52814 324.4344 535.84064 324.95Q536.15314 325.46564 536.15314 326.0594Q536.15314 326.60626 535.85626 327.075Q535.5594 327.52814 534.98126 327.79376Q535.73126 327.96564 536.15314 328.52814Q536.575 329.075 536.575 329.91876Q536.575 331.04376 535.7469 331.825Q534.9344 332.60626 533.6844 332.60626Q532.5594 332.60626 531.8094 331.9344Q531.0594 331.2469 530.95 330.1844ZM537.825 329.8719L537.825 328.8094L541.075 328.8094L541.075 329.8719L537.825 329.8719ZM547.41876 325.96564L546.3719 326.04376Q546.23126 325.41876 545.98126 325.1375Q545.54376 324.6844 544.91876 324.6844Q544.41876 324.6844 544.02814 324.96564Q543.54376 325.34064 543.2469 326.04376Q542.96564 326.73126 542.95 328.0125Q543.325 327.4344 543.8719 327.15314Q544.4344 326.8719 545.04376 326.8719Q546.09064 326.8719 546.825 327.65314Q547.575 328.4344 547.575 329.65314Q547.575 330.46564 547.21564 331.16876Q546.8719 331.85626 546.2625 332.23126Q545.65314 332.59064 544.8875 332.59064Q543.5594 332.59064 542.73126 331.6219Q541.90314 330.65314 541.90314 328.4344Q541.90314 325.9344 542.825 324.8094Q543.6219 323.825 544.98126 323.825Q545.9969 323.825 546.6375 324.40314Q547.29376 324.96564 547.41876 325.96564ZM543.1219 329.66876Q543.1219 330.21564 543.34064 330.71564Q543.575 331.2 543.98126 331.46564Q544.40314 331.73126 544.8719 331.73126Q545.52814 331.73126 546.0125 331.2Q546.4969 330.65314 546.4969 329.73126Q546.4969 328.84064 546.0125 328.325Q545.54376 327.8094 544.825 327.8094Q544.10626 327.8094 543.60626 328.325Q543.1219 328.84064 543.1219 329.66876ZM552.2 334.84064L552.075 333.85626Q552.41876 333.95 552.6844 333.95Q553.02814 333.95 553.23126 333.825Q553.45 333.71564 553.59064 333.5125Q553.6844 333.34064 553.91876 332.71564Q553.9344 332.6375 554.0125 332.46564L551.6375 326.23126L552.77814 326.23126L554.075 329.825Q554.325 330.5125 554.52814 331.27814Q554.71564 330.54376 554.96564 329.85626L556.29376 326.23126L557.34064 326.23126L554.98126 332.5594Q554.59064 333.575 554.3875 333.96564Q554.10626 334.4969 553.73126 334.73126Q553.3719 334.98126 552.8719 334.98126Q552.575 334.98126 552.2 334.84064ZM561.4969 330.45L562.59064 330.575Q562.34064 331.52814 561.6375 332.0594Q560.9344 332.59064 559.85626 332.59064Q558.4969 332.59064 557.6844 331.7469Q556.8875 330.90314 556.8875 329.3875Q556.8875 327.825 557.7 326.96564Q558.5125 326.09064 559.79376 326.09064Q561.04376 326.09064 561.825 326.9344Q562.6219 327.77814 562.6219 329.325Q562.6219 329.41876 562.6219 329.60626L557.98126 329.60626Q558.04376 330.6375 558.5594 331.1844Q559.075 331.71564 559.85626 331.71564Q560.4344 331.71564 560.84064 331.41876Q561.2625 331.10626 561.4969 330.45ZM558.04376 328.7469L561.5125 328.7469Q561.45 327.95 561.1219 327.5594Q560.60626 326.95 559.8094 326.95Q559.075 326.95 558.575 327.4344Q558.09064 327.91876 558.04376 328.7469ZM568.3094 331.6844Q567.71564 332.1844 567.16876 332.3875Q566.6375 332.59064 566.0125 332.59064Q564.98126 332.59064 564.4344 332.09064Q563.8875 331.59064 563.8875 330.8094Q563.8875 330.35626 564.09064 329.98126Q564.29376 329.59064 564.6375 329.3719Q564.98126 329.1375 565.40314 329.02814Q565.7 328.9344 566.34064 328.85626Q567.60626 328.71564 568.21564 328.4969Q568.21564 328.27814 568.21564 328.23126Q568.21564 327.575 567.91876 327.3094Q567.5125 326.96564 566.71564 326.96564Q565.98126 326.96564 565.6219 327.23126Q565.2625 327.48126 565.09064 328.1375L564.0594 327.9969Q564.2 327.34064 564.52814 326.9344Q564.85626 326.52814 565.46564 326.3094Q566.075 326.09064 566.8719 326.09064Q567.66876 326.09064 568.16876 326.27814Q568.66876 326.46564 568.90314 326.7469Q569.1375 327.02814 569.23126 327.46564Q569.27814 327.73126 569.27814 328.4344L569.27814 329.84064Q569.27814 331.3094 569.34064 331.7Q569.41876 332.09064 569.6219 332.45L568.5125 332.45Q568.35626 332.1219 568.3094 331.6844ZM568.21564 329.325Q567.6375 329.5594 566.4969 329.73126Q565.84064 329.825 565.575 329.95Q565.3094 330.0594 565.15314 330.27814Q565.0125 330.4969 565.0125 330.77814Q565.0125 331.2 565.325 331.48126Q565.65314 331.7625 566.2625 331.7625Q566.8719 331.7625 567.34064 331.4969Q567.825 331.23126 568.04376 330.7625Q568.21564 330.40314 568.21564 329.71564L568.21564 329.325ZM571.23126 332.45L571.23126 326.23126L572.1844 326.23126L572.1844 327.16876Q572.54376 326.5125 572.84064 326.3094Q573.15314 326.09064 573.52814 326.09064Q574.0594 326.09064 574.60626 326.41876L574.2469 327.40314Q573.85626 327.16876 573.48126 327.16876Q573.1219 327.16876 572.84064 327.3875Q572.575 327.59064 572.46564 327.96564Q572.27814 328.52814 572.27814 329.1844L572.27814 332.45L571.23126 332.45ZM574.825 330.59064L575.85626 330.4344Q575.95 331.0594 576.34064 331.3875Q576.7469 331.71564 577.48126 331.71564Q578.2 331.71564 578.54376 331.4344Q578.90314 331.1375 578.90314 330.73126Q578.90314 330.3719 578.59064 330.16876Q578.3719 330.02814 577.5125 329.8094Q576.35626 329.5125 575.90314 329.3094Q575.46564 329.09064 575.23126 328.71564Q574.9969 328.34064 574.9969 327.8719Q574.9969 327.46564 575.1844 327.10626Q575.3719 326.7469 575.7 326.5125Q575.95 326.34064 576.3719 326.21564Q576.79376 326.09064 577.29376 326.09064Q578.0125 326.09064 578.5594 326.3094Q579.1219 326.5125 579.3875 326.8719Q579.65314 327.23126 579.7469 327.825L578.71564 327.96564Q578.65314 327.4969 578.3094 327.23126Q577.98126 326.95 577.35626 326.95Q576.6375 326.95 576.325 327.2Q576.0125 327.4344 576.0125 327.7625Q576.0125 327.96564 576.1375 328.1219Q576.27814 328.29376 576.54376 328.40314Q576.7 328.46564 577.48126 328.66876Q578.60626 328.98126 579.04376 329.16876Q579.48126 329.35626 579.73126 329.71564Q579.98126 330.075 579.98126 330.6219Q579.98126 331.15314 579.66876 331.6219Q579.3719 332.075 578.79376 332.34064Q578.21564 332.59064 577.48126 332.59064Q576.2625 332.59064 575.6219 332.09064Q574.9969 331.575 574.825 330.59064Z" fill-rule="nonzero"/><path fill="#9e9e9e" d="M552.4969 348.4344L552.4969 349.45L546.8094 349.45Q546.8094 349.075 546.9344 348.71564Q547.15314 348.1375 547.6219 347.575Q548.10626 347.0125 549.0125 346.27814Q550.41876 345.1219 550.90314 344.45Q551.40314 343.77814 551.40314 343.1844Q551.40314 342.5594 550.95 342.1375Q550.4969 341.7 549.77814 341.7Q549.0125 341.7 548.5594 342.15314Q548.10626 342.60626 548.09064 343.41876L547.0125 343.3094Q547.1219 342.09064 547.84064 341.46564Q548.575 340.825 549.8094 340.825Q551.04376 340.825 551.7625 341.5125Q552.48126 342.2 552.48126 343.21564Q552.48126 343.73126 552.2625 344.23126Q552.0594 344.71564 551.5594 345.27814Q551.075 345.825 549.95 346.77814Q548.9969 347.575 548.71564 347.8719Q548.45 348.15314 548.27814 348.4344L552.4969 348.4344ZM554.10626 347.46564L555.1219 347.3719Q555.2469 348.09064 555.60626 348.41876Q555.98126 348.73126 556.54376 348.73126Q557.02814 348.73126 557.3875 348.5125Q557.7625 348.27814 557.9969 347.91876Q558.23126 347.54376 558.3875 346.91876Q558.54376 346.27814 558.54376 345.6219Q558.54376 345.54376 558.54376 345.40314Q558.23126 345.90314 557.6844 346.23126Q557.1375 346.54376 556.4969 346.54376Q555.41876 346.54376 554.6844 345.77814Q553.95 344.9969 553.95 343.73126Q553.95 342.41876 554.71564 341.6219Q555.4969 340.825 556.65314 340.825Q557.48126 340.825 558.16876 341.27814Q558.8719 341.73126 559.23126 342.575Q559.59064 343.40314 559.59064 344.98126Q559.59064 346.6219 559.23126 347.60626Q558.8875 348.575 558.16876 349.09064Q557.46564 349.59064 556.52814 349.59064Q555.5125 349.59064 554.8719 349.04376Q554.23126 348.48126 554.10626 347.46564ZM558.41876 343.66876Q558.41876 342.7625 557.9344 342.23126Q557.46564 341.7 556.77814 341.7Q556.075 341.7 555.54376 342.27814Q555.02814 342.84064 555.02814 343.7625Q555.02814 344.575 555.52814 345.09064Q556.02814 345.60626 556.7469 345.60626Q557.48126 345.60626 557.95 345.09064Q558.41876 344.575 558.41876 343.66876ZM561.54376 349.45L561.54376 348.2469L562.7469 348.2469L562.7469 349.45L561.54376 349.45ZM564.0125 341.98126L564.0125 340.96564L569.575 340.96564L569.575 341.79376Q568.7625 342.66876 567.95 344.1219Q567.15314 345.5594 566.71564 347.09064Q566.3875 348.16876 566.3094 349.45L565.21564 349.45Q565.23126 348.4344 565.60626 346.9969Q565.9969 345.5594 566.7 344.23126Q567.41876 342.90314 568.23126 341.98126L564.0125 341.98126ZM571.15314 342.91876Q571.15314 341.9969 571.60626 341.35626Q572.075 340.71564 572.95 340.71564Q573.7625 340.71564 574.29376 341.29376Q574.825 341.8719 574.825 342.98126Q574.825 344.075 574.27814 344.66876Q573.7469 345.2469 572.96564 345.2469Q572.1844 345.2469 571.66876 344.66876Q571.15314 344.09064 571.15314 342.91876ZM572.98126 341.4344Q572.59064 341.4344 572.325 341.77814Q572.075 342.1219 572.075 343.02814Q572.075 343.85626 572.325 344.2Q572.59064 344.52814 572.98126 344.52814Q573.3875 344.52814 573.6375 344.1844Q573.90314 343.84064 573.90314 342.95Q573.90314 342.10626 573.6375 341.77814Q573.3719 341.4344 572.98126 341.4344ZM572.98126 349.7625L577.6844 340.71564L578.54376 340.71564L573.85626 349.7625L572.98126 349.7625ZM576.7 347.4344Q576.7 346.5125 577.15314 345.8719Q577.6219 345.23126 578.5125 345.23126Q579.325 345.23126 579.85626 345.8094Q580.3875 346.3719 580.3875 347.4969Q580.3875 348.59064 579.84064 349.1844Q579.3094 349.7625 578.5125 349.7625Q577.7469 349.7625 577.21564 349.1844Q576.7 348.60626 576.7 347.4344ZM578.54376 345.95Q578.1375 345.95 577.8719 346.29376Q577.6219 346.6375 577.6219 347.54376Q577.6219 348.35626 577.8875 348.7Q578.15314 349.04376 578.54376 349.04376Q578.9344 349.04376 579.2 348.7Q579.46564 348.35626 579.46564 347.45Q579.46564 346.6219 579.2 346.29376Q578.9344 345.95 578.54376 345.95Z" fill-rule="nonzero"/><path stroke="#757575" stroke-width="1.0" stroke-linecap="butt" d="M581.45 336.95L472.95 336.95L318.0141 343.07617" fill-rule="nonzero"/><path fill="#9e9e9e" d="M320.0141 343.07617C320.0141 341.9716 319.11868 341.07617 318.0141 341.07617C316.90955 341.07617 316.0141 341.9716 316.0141 343.07617C316.0141 344.18073 316.90955 345.07617 318.0141 345.07617C319.11868 345.07617 320.0141 344.18073 320.0141 343.07617" fill-rule="nonzero"/></svg>